<svg xmlns="http://www.w3.org/2000/svg" width="64" height="64"><path d="M44.089 34.948a6.874 6.874 0 1 1 0-13.748 6.874 6.874 0 0 1 0 13.748Zm0-2.37a4.504 4.504 0 1 0 0-9.008 4.504 4.504 0 0 0 0 9.008Zm-30.34.474a4.978 4.978 0 1 1 0-9.956 4.978 4.978 0 0 1 0 9.956Zm0-2.37a2.607 2.607 0 1 0 0-5.215 2.607 2.607 0 0 0 0 5.214Zm3.792 15.644a4.978 4.978 0 1 1 0-9.956 4.978 4.978 0 0 1 0 9.956Zm0-2.37a2.607 2.607 0 1 0 0-5.215 2.607 2.607 0 0 0 0 5.215Zm13.274 8.059a4.978 4.978 0 1 1 0-9.956 4.978 4.978 0 0 1 0 9.956Zm0-2.37a2.607 2.607 0 1 0 0-5.215 2.607 2.607 0 0 0 0 5.214Z" class="one" fill="#0F1126"/><path d="M4.74 30.065c0 14.444 11.753 26.17 26.264 26.17 11.824 0 22.036-7.824 25.194-18.958 1.795-7.343.517-15.078-5.45-18.063-4.611-2.201-8.64-1.924-15.359.172-5.087 1.586-5.342 1.658-7.15 1.833-2.854.275-5.191-.507-7-2.721-1.453-1.937-1.305-3.402-.257-6.905.156-.52.238-.804.315-1.104.335-1.304.302-1.949-.058-2.42-.68-.906-3.422-.805-5.355.506-6.93 4.95-11.143 12.882-11.143 21.49Zm-4.74 0c0-10.163 4.97-19.52 13.176-25.38C17 2.09 22.528 1.886 25.018 5.206c1.43 1.87 1.53 3.89.87 6.462-.096.378-.191.708-.364 1.285-.581 1.94-.638 2.507-.555 2.622 1.191 1.455 2.438 1.335 9.009-.715 7.76-2.42 12.85-2.771 18.851.095 8.6 4.3 10.235 14.199 7.952 23.531a30.896 30.896 0 0 1-29.777 22.489C13.877 60.975 0 47.129 0 30.065Z" class="two" fill="#0F1126"/></svg>