<svg xmlns="http://www.w3.org/2000/svg" width="64" height="64" viewBox="0 0 64 64">
  <g class="one" fill="#0F1126">
    <path d="M38.6464865,44.1129237 C38.5642278,47.6500473 35.5939377,50.4923077 32,50.4923077 C28.4377659,50.4923077 25.5195515,47.6755964 25.352517,44.0843552 L22.8936368,44.1987217 C23.1214909,49.0975837 27.1167178,52.9538462 32,52.9538462 C36.9198807,52.9538462 40.9937451,49.0555794 41.1073596,44.1701533 L38.6464865,44.1129237 Z"/>
  </g>
  <g class="two" fill="#0F1126">
    <path d="M58.9784615,51.7230769 C58.9784615,49.7235694 46.4439295,46.3076923 32,46.3076923 C17.5560705,46.3076923 5.02153846,49.7235694 5.02153846,51.7230769 C5.02153846,53.7225844 17.5560705,57.1384615 32,57.1384615 C46.4439295,57.1384615 58.9784615,53.7225844 58.9784615,51.7230769 Z M0.0995936628,51.6246154 L0.0984615385,51.6246154 C0.0984615385,45.6474404 3.75929964,39.7580984 9.84615385,36.4196515 L9.84615385,24.1538462 C9.84615385,11.9636068 19.8097606,2 32,2 C44.1902394,2 54.1538462,11.9636068 54.1538462,24.1538462 L54.1538462,36.4196515 C60.2407004,39.7580984 63.9015385,45.6474404 63.9015385,51.6246154 L63.9004063,51.6246154 C63.9011606,51.6573702 63.9015385,51.6901908 63.9015385,51.7230769 C63.9015385,58.1403255 49.5126807,62.0615385 32,62.0615385 C14.4873193,62.0615385 0.0984615385,58.1403255 0.0984615385,51.7230769 C0.0984615385,51.6901908 0.0988394186,51.6573702 0.0995936628,51.6246154 Z M7.40392229,44.8582019 C13.2729816,42.6272234 22.1415308,41.3846154 32,41.3846154 C41.8584692,41.3846154 50.7270184,42.6272234 56.5960777,44.8582019 C55.1801541,42.9606376 53.1713857,41.3146681 50.6737158,40.1793636 C49.7949607,39.7799295 49.2307692,38.9037378 49.2307692,37.9384615 L49.2307692,24.1538462 C49.2307692,14.6825471 41.4712991,6.92307692 32,6.92307692 C22.5287009,6.92307692 14.7692308,14.6825471 14.7692308,24.1538462 L14.7692308,37.9384615 C14.7692308,38.9037378 14.2050393,39.7799295 13.3262842,40.1793636 C10.8286143,41.3146681 8.8198459,42.9606376 7.40392229,44.8582019 Z"/>
  </g>
</svg>
