<svg xmlns="http://www.w3.org/2000/svg" width="64" height="64"><path d="M38.646 44.113c-.082 3.537-3.052 6.38-6.646 6.38-3.562 0-6.48-2.817-6.647-6.409l-2.46.115c.228 4.899 4.224 8.755 9.107 8.755 4.92 0 8.994-3.898 9.107-8.784l-2.46-.057Z" class="one" fill="#0F1126"/><path d="M58.978 51.723c0-2-12.534-5.415-26.978-5.415S5.022 49.724 5.022 51.723c0 2 12.534 5.415 26.978 5.415s26.978-3.415 26.978-5.415ZM.1 51.625H.098c0-5.978 3.661-11.867 9.748-15.205V24.154C9.846 11.964 19.81 2 32 2s22.154 9.964 22.154 22.154V36.42c6.087 3.338 9.748 9.227 9.748 15.205H63.9l.002.098c0 6.417-14.39 10.339-31.902 10.339C14.487 62.062.098 58.14.098 51.723c0-.033 0-.066.002-.098Zm7.304-6.767c5.869-2.23 14.738-3.473 24.596-3.473s18.727 1.242 24.596 3.473c-1.416-1.897-3.425-3.543-5.922-4.679a2.462 2.462 0 0 1-1.443-2.24V24.153c0-9.471-7.76-17.23-17.231-17.23-9.471 0-17.23 7.759-17.23 17.23v13.784c0 .966-.565 1.842-1.444 2.241-2.497 1.136-4.506 2.782-5.922 4.68Z" class="two" fill="#0F1126"/></svg>