<svg xmlns="http://www.w3.org/2000/svg" width="64" height="64"><path d="M24.945 20.83a5.333 5.333 0 0 1-3.831 2.795l-14.61 2.502L16.877 36.82a5.333 5.333 0 0 1 1.45 4.483l-2.19 15.03 13.479-6.738a5.333 5.333 0 0 1 4.772 0l13.48 6.75-2.194-15.041a5.333 5.333 0 0 1 1.45-4.484l11.853-12.217c-.287.297-.394.776-.244 1.208.129.368.405.598.713.652l-16.558-2.838a5.333 5.333 0 0 1-3.832-2.796l-7.054-13.57-7.058 13.57Zm38.824 3.222c.52 1.485.148 3.124-.968 4.27L50.953 40.534l2.47 16.936c.232 1.586-.48 3.162-1.846 4.084a4.617 4.617 0 0 1-4.633.291l-14.942-7.48-14.939 7.469a4.617 4.617 0 0 1-4.633-.291c-1.365-.922-2.078-2.499-1.846-4.084l2.466-16.925L1.198 28.318C.082 27.172-.288 25.533.23 24.048c.52-1.486 1.847-2.58 3.457-2.85l16.526-2.83 7.803-15.003C28.77 1.916 30.314 1 32.004 1c1.689 0 3.233.916 3.986 2.365l7.8 15.004 16.558 2.837c1.596.28 2.906 1.37 3.421 2.846Z" class="two" fill="#0F1126"/></svg>