<svg xmlns="http://www.w3.org/2000/svg" width="64" height="64"><path d="m6.157 53.75-.935-13.086-3.31-1.655a1.23 1.23 0 0 1-.681-1.101V30.03a7.138 7.138 0 0 1 7.138-7.139h7.877a7.149 7.149 0 0 1 6.456 4.09 1.23 1.23 0 1 1-2.224 1.055 4.688 4.688 0 0 0-4.232-2.683H8.37a4.677 4.677 0 0 0-4.677 4.677v7.116l3.258 1.63c.39.194.647.579.678 1.012l.903 12.642h9.684a1.23 1.23 0 0 1 0 2.461H7.385a1.23 1.23 0 0 1-1.228-1.143Zm6.15-34.304a7.138 7.138 0 1 1 0-14.277 7.138 7.138 0 0 1 0 14.277Zm0-2.461a4.677 4.677 0 1 0 0-9.354 4.677 4.677 0 0 0 0 9.354ZM57.05 38.776l3.258-1.629v-7.116a4.677 4.677 0 0 0-4.677-4.677h-7.877a4.688 4.688 0 0 0-4.232 2.683 1.23 1.23 0 1 1-2.224-1.056 7.149 7.149 0 0 1 6.456-4.089h7.877a7.138 7.138 0 0 1 7.138 7.139v7.877c0 .466-.263.892-.68 1.1l-3.311 1.656-.935 13.085a1.23 1.23 0 0 1-1.228 1.143h-10.83a1.23 1.23 0 0 1 0-2.461h9.684l.903-12.642a1.23 1.23 0 0 1 .678-1.013Zm-5.358-19.33a7.138 7.138 0 1 1 0-14.277 7.138 7.138 0 0 1 0 14.277Zm0-2.461a4.677 4.677 0 1 0 0-9.354 4.677 4.677 0 0 0 0 9.354Z" class="one" fill="#0F1126"/><path d="M40.364 61.692A2.462 2.462 0 0 1 37.908 64H26.092c-1.3 0-2.375-1.01-2.456-2.308l-.867-13.865-3.067-.613a2.462 2.462 0 0 1-1.979-2.414V32c0-5.71 4.629-10.338 10.339-10.338h7.876c5.71 0 10.339 4.628 10.339 10.338v12.8a2.462 2.462 0 0 1-1.979 2.414l-3.067.613-.867 13.865Zm-3.928-16.06a2.462 2.462 0 0 1 1.974-2.261l2.944-.589V32a5.416 5.416 0 0 0-5.416-5.415h-7.876A5.416 5.416 0 0 0 22.646 32v10.782l2.944.589a2.462 2.462 0 0 1 1.974 2.26l.84 13.446h7.191l.84-13.446ZM32 20.676c-5.71 0-10.338-4.629-10.338-10.339C21.662 4.628 26.29 0 32 0c5.71 0 10.338 4.629 10.338 10.338 0 5.71-4.628 10.339-10.338 10.339Zm0-4.923a5.415 5.415 0 1 0 0-10.83 5.415 5.415 0 0 0 0 10.83Z" class="two" fill="#0F1126"/></svg>