<svg xmlns="http://www.w3.org/2000/svg" width="64" height="64"><path d="M23.17 8.615h3.938a1.23 1.23 0 1 0 0-2.461h-3.939a1.23 1.23 0 1 0 0 2.461zM4.461 13.538h41.353a1.23 1.23 0 1 0 0-2.461H4.462a1.23 1.23 0 1 0 0 2.461zm0 32h24.615a1.23 1.23 0 1 0 0-2.461H4.462a1.23 1.23 0 1 0 0 2.461z"/><path d="M37.938 59.077H8.4A1.477 1.477 0 0 1 6.923 57.6V6.4c0-.816.661-1.477 1.477-1.477h33.477c.815 0 1.477.661 1.477 1.477v28.554a2.462 2.462 0 0 0 4.923 0V6.4a6.4 6.4 0 0 0-6.4-6.4H8.4A6.4 6.4 0 0 0 2 6.4v51.2A6.4 6.4 0 0 0 8.4 64h29.538a2.462 2.462 0 1 0 0-4.923Z"/><path d="M44.194 62.038c-.46 1.036-1.958.952-2.299-.129l-8.084-25.6a1.23 1.23 0 0 1 1.544-1.544l25.6 8.084c1.08.341 1.165 1.838.13 2.298L49.39 50.345l-5.197 11.693ZM36.87 37.825l6.393 20.244 4.07-9.157a1.23 1.23 0 0 1 .624-.625l9.157-4.07-20.244-6.392Z"/></svg>