<svg xmlns="http://www.w3.org/2000/svg" width="64" height="64" viewBox="0 0 64 64">
  <g transform="translate(2)">
    <path d="M21.1692308 8.61538462L25.1076923 8.61538462C25.7874274 8.61538462 26.3384615 8.06435046 26.3384615 7.38461538 26.3384615 6.70488031 25.7874274 6.15384615 25.1076923 6.15384615L21.1692308 6.15384615C20.4894957 6.15384615 19.9384615 6.70488031 19.9384615 7.38461538 19.9384615 8.06435046 20.4894957 8.61538462 21.1692308 8.61538462zM2.46153846 13.5384615L43.8153846 13.5384615C44.4951197 13.5384615 45.0461538 12.9874274 45.0461538 12.3076923 45.0461538 11.6279572 44.4951197 11.0769231 43.8153846 11.0769231L2.46153846 11.0769231C1.78180338 11.0769231 1.23076923 11.6279572 1.23076923 12.3076923 1.23076923 12.9874274 1.78180338 13.5384615 2.46153846 13.5384615zM2.46153846 45.5384615L27.0769231 45.5384615C27.7566582 45.5384615 28.3076923 44.9874274 28.3076923 44.3076923 28.3076923 43.6279572 27.7566582 43.0769231 27.0769231 43.0769231L2.46153846 43.0769231C1.78180338 43.0769231 1.23076923 43.6279572 1.23076923 44.3076923 1.23076923 44.9874274 1.78180338 45.5384615 2.46153846 45.5384615z"/>
    <path d="M35.9384615,59.0769231 L6.4,59.0769231 C5.58445477,59.0769231 4.92307692,58.4155452 4.92307692,57.6 L4.92307692,6.4 C4.92307692,5.58445477 5.58445477,4.92307692 6.4,4.92307692 L39.8769231,4.92307692 C40.6924683,4.92307692 41.3538462,5.58445477 41.3538462,6.4 L41.3538462,34.9538462 C41.3538462,36.3133163 42.4559145,37.4153846 43.8153846,37.4153846 C45.1748548,37.4153846 46.2769231,36.3133163 46.2769231,34.9538462 L46.2769231,6.4 C46.2769231,2.86551446 43.4114086,0 39.8769231,0 L6.4,0 C2.86551446,0 0,2.86551446 0,6.4 L0,57.6 C0,61.1344855 2.86551446,64 6.4,64 L35.9384615,64 C37.2979317,64 38.4,62.8979317 38.4,61.5384615 C38.4,60.1789914 37.2979317,59.0769231 35.9384615,59.0769231 Z"/>
    <path d="M42.193517,62.0383243 C41.7332602,63.0739023 40.2364432,62.9897334 39.8951857,61.9090848 L31.8109752,36.3090848 C31.510958,35.3590305 32.4051843,34.4648042 33.3552386,34.7648213 L58.9552386,42.8490319 C60.0358873,43.1902893 60.1200561,44.6871063 59.0844781,45.1473632 L47.3907358,50.344582 L42.193517,62.0383243 Z M34.8709926,37.8248387 L41.263915,58.0690932 L45.3336085,48.912283 C45.4573596,48.633843 45.6799968,48.4112057 45.9584369,48.2874546 L55.1152471,44.2177612 L34.8709926,37.8248387 Z"/>
  </g>
</svg>
