<svg xmlns="http://www.w3.org/2000/svg" width="64" height="64" viewBox="0 0 64 64">
  <g fill="#0F1126">
    <path d="M34.4615385 41.8111666L34.4615385 2.46153846C34.4615385 1.10206831 33.3594702 0 32 0 30.6405298 0 29.5384615 1.10206831 29.5384615 2.46153846L29.5384615 41.8111666 17.9867244 30.2594295C17.0254338 29.2981389 15.4668739 29.2981389 14.5055833 30.2594295 13.5442927 31.22072 13.5442927 32.77928 14.5055833 33.7405705L30.2594295 49.4944167C31.22072 50.4557073 32.77928 50.4557073 33.7405705 49.4944167L49.4944167 33.7405705C50.4557073 32.77928 50.4557073 31.22072 49.4944167 30.2594295 48.5331261 29.2981389 46.9745662 29.2981389 46.0132756 30.2594295L34.4615385 41.8111666zM2.46153846 62.7692308L61.5384615 62.7692308C62.2181966 62.7692308 62.7692308 62.2181966 62.7692308 61.5384615 62.7692308 60.8587265 62.2181966 60.3076923 61.5384615 60.3076923L2.46153846 60.3076923C1.78180338 60.3076923 1.23076923 60.8587265 1.23076923 61.5384615 1.23076923 62.2181966 1.78180338 62.7692308 2.46153846 62.7692308z"/>
  </g>
</svg>
