<svg xmlns="http://www.w3.org/2000/svg" width="64" height="64"><path d="M20.982 40.615h22.252a1.23 1.23 0 0 0 0-2.461H20.982a1.23 1.23 0 1 0 0 2.461Z"/><path d="M55.695 54.033c2.91 4.203-.15 9.967-5.273 9.967h-36.53c-5.084 0-8.164-5.697-5.394-9.934l15.24-22.813V12.8h-3.446a2.462 2.462 0 0 1-2.461-2.462V2.462A2.462 2.462 0 0 1 20.292 0h23.631a2.462 2.462 0 0 1 2.462 2.462v7.876a2.462 2.462 0 0 1-2.462 2.462h-3.446v18.453l15.218 22.78ZM26.2 7.877a2.462 2.462 0 0 1 2.462 2.461V32c0 .487-.145.963-.415 1.367L12.605 56.781c-.616.942.116 2.296 1.287 2.296h36.53c1.167 0 1.866-1.317 1.202-2.276L35.969 33.367A2.462 2.462 0 0 1 35.554 32V10.338a2.462 2.462 0 0 1 2.461-2.461h3.447V4.923H22.754v2.954H26.2Z"/></svg>