<svg xmlns="http://www.w3.org/2000/svg" width="64" height="64" viewBox="0 0 64 64">
  <g transform="translate(7)">
    <path d="M13.9815385,40.6153846 L36.2338462,40.6153846 C36.9135812,40.6153846 37.4646154,40.0643505 37.4646154,39.3846154 C37.4646154,38.7048803 36.9135812,38.1538462 36.2338462,38.1538462 L13.9815385,38.1538462 C13.3018034,38.1538462 12.7507692,38.7048803 12.7507692,39.3846154 C12.7507692,40.0643505 13.3018034,40.6153846 13.9815385,40.6153846 Z"/>
    <path d="M48.6946269,54.0327139 C51.6042507,58.2355038 48.5455384,64 43.4215385,64 L6.89230769,64 C1.80843394,64 -1.27249984,58.3031791 1.49781562,54.0664463 L16.7384615,31.253404 L16.7384615,12.8 L13.2923077,12.8 C11.9328375,12.8 10.8307692,11.6979317 10.8307692,10.3384615 L10.8307692,2.46153846 C10.8307692,1.10206831 11.9328375,0 13.2923077,0 L36.9230769,0 C38.2825471,0 39.3846154,1.10206831 39.3846154,2.46153846 L39.3846154,10.3384615 C39.3846154,11.6979317 38.2825471,12.8 36.9230769,12.8 L33.4769231,12.8 L33.4769231,31.2534201 L48.6946269,54.0327139 Z M19.2,7.87692308 C20.5594702,7.87692308 21.6615385,8.97899139 21.6615385,10.3384615 L21.6615385,32 C21.6615385,32.4867817 21.51721,32.9626348 21.2467998,33.3673998 L5.60484828,56.7809215 C4.98874365,57.7231992 5.72085963,59.0769231 6.89230769,59.0769231 L43.4215385,59.0769231 C44.5890299,59.0769231 45.2875909,57.7604042 44.6239695,56.801246 L28.9685849,33.3673998 C28.6981746,32.9626348 28.5538462,32.4867817 28.5538462,32 L28.5538462,10.3384615 C28.5538462,8.97899139 29.6559145,7.87692308 31.0153846,7.87692308 L34.4615385,7.87692308 L34.4615385,4.92307692 L15.7538462,4.92307692 L15.7538462,7.87692308 L19.2,7.87692308 Z"/>
  </g>
</svg>
