<svg xmlns="http://www.w3.org/2000/svg" width="64" height="64"><path d="m26.823 31.829 1.914-3.48L18.375 8.163 13.31 19.558l13.513 12.27Zm4.822 1.449 18.962-13.906L45.55 7.995 31.645 33.278Zm9.976-28.355H22.246l9.353 18.222L41.621 4.923ZM26.585 59.077h32.492V12.8h-6.004l2.838 6.385c.47 1.058.14 2.3-.794 2.985L26.585 43.094v15.983Zm-4.923 0v-17.23c0-.416.104-.824.304-1.187l2.418-4.396-15.7-14.257a2.462 2.462 0 0 1-.595-2.822l2.838-6.385H4.923v46.277h16.739Zm29.223-51.2h10.653A2.462 2.462 0 0 1 64 10.338v51.2A2.462 2.462 0 0 1 61.538 64H2.462A2.462 2.462 0 0 1 0 61.538v-51.2a2.462 2.462 0 0 1 2.462-2.461h10.653l2.851-6.415A2.462 2.462 0 0 1 18.216 0h27.569c.972 0 1.854.573 2.249 1.462l2.851 6.415Z" class="two" fill="#0F1126" fill-rule="evenodd"/><path d="M30.77 48.738v3.939a1.23 1.23 0 1 0 2.46 0v-3.939a1.23 1.23 0 0 0-2.46 0Z" class="one" fill="#0F1126"/></svg>