<svg xmlns="http://www.w3.org/2000/svg" width="64" height="64" viewBox="0 0 64 64">
  <g class="two" fill="#0F1126" fill-rule="evenodd">
    <path d="M26.8233757,31.8287323 L28.7369741,28.3494626 L18.3751042,8.16300495 L13.3104824,19.5584039 L26.8233757,31.8287323 Z M31.6451148,33.2775086 L50.6067944,19.3722769 L45.5503465,7.99526911 L31.6451148,33.2775086 Z M41.6214862,4.92307692 L22.2458006,4.92307692 L31.599341,23.1451592 L41.6214862,4.92307692 Z M26.5846154,59.0769231 L59.0769231,59.0769231 L59.0769231,12.8 L53.0731919,12.8 L55.9109207,19.1848899 C56.381043,20.2426651 56.0506504,21.4850841 55.1172029,22.1696123 L26.5846154,43.0935098 L26.5846154,59.0769231 Z M21.6615385,59.0769231 L21.6615385,41.8461538 C21.6615385,41.4313773 21.7663492,41.0233261 21.9662378,40.6598923 L24.3841496,36.263689 L8.68369444,22.0069538 C7.8974715,21.2930273 7.65776143,20.1553551 8.08907926,19.1848899 L10.9268081,12.8 L4.92307692,12.8 L4.92307692,59.0769231 L21.6615385,59.0769231 Z M50.8851577,7.87692308 L61.5384615,7.87692308 C62.8979317,7.87692308 64,8.97899139 64,10.3384615 L64,61.5384615 C64,62.8979317 62.8979317,64 61.5384615,64 L2.46153846,64 C1.10206831,64 0,62.8979317 0,61.5384615 L0,10.3384615 C0,8.97899139 1.10206831,7.87692308 2.46153846,7.87692308 L13.1148423,7.87692308 L15.9660023,1.46181301 C16.3610826,0.572882513 17.2426124,0 18.2153846,0 L45.7846154,0 C46.7573876,0 47.6389174,0.572882513 48.0339977,1.46181301 L50.8851577,7.87692308 Z"/>
  </g>
  <g class="one" fill="#0F1126">
    <path fill-rule="nonzero" d="M30.7692308,48.7384615 L30.7692308,52.6769231 C30.7692308,53.3566582 31.3202649,53.9076923 32,53.9076923 C32.6797351,53.9076923 33.2307692,53.3566582 33.2307692,52.6769231 L33.2307692,48.7384615 C33.2307692,48.0587265 32.6797351,47.5076923 32,47.5076923 C31.3202649,47.5076923 30.7692308,48.0587265 30.7692308,48.7384615 Z"/>
  </g>
</svg>
