<svg xmlns="http://www.w3.org/2000/svg" width="64" height="64"><path d="M11.815 33.477V2.462A2.462 2.462 0 0 1 14.277 0h47.261A2.462 2.462 0 0 1 64 2.462V55.63C64 60.239 60.24 64 55.63 64H8.37C3.76 64 0 60.24 0 55.63V35.939a2.462 2.462 0 0 1 2.462-2.461h9.353Zm0 4.923H4.923v17.23a3.464 3.464 0 0 0 3.446 3.447 3.464 3.464 0 0 0 3.446-3.446V38.4Zm4.923-33.477V3.717v51.914a8.306 8.306 0 0 1-.744 3.446H55.63a3.464 3.464 0 0 0 3.446-3.446V4.923H16.738Z" class="two" fill="#0F1126" fill-rule="evenodd"/><path d="M43.815 13.538a1.23 1.23 0 1 1 0-2.461h7.877a1.23 1.23 0 1 1 0 2.461h-7.877Zm0 9.847a1.23 1.23 0 0 1 0-2.462h7.877a1.23 1.23 0 0 1 0 2.462h-7.877ZM24.123 33.23a1.23 1.23 0 1 1 0-2.462h27.57a1.23 1.23 0 1 1 0 2.462h-27.57Zm0-22.154h11.815c.68 0 1.231.551 1.231 1.23v9.847c0 .68-.55 1.23-1.23 1.23H24.122a1.23 1.23 0 0 1-1.23-1.23v-9.846c0-.68.55-1.231 1.23-1.231Zm1.23 9.846h9.355v-7.385h-9.354v7.385ZM32 50.462a1.23 1.23 0 1 1 0 2.461h-7.877a1.23 1.23 0 1 1 0-2.461H32Zm0-9.847a1.23 1.23 0 0 1 0 2.462h-7.877a1.23 1.23 0 0 1 0-2.462H32Zm7.877 0h11.815c.68 0 1.231.551 1.231 1.231v9.846c0 .68-.551 1.231-1.23 1.231H39.876a1.23 1.23 0 0 1-1.23-1.23v-9.847c0-.68.55-1.23 1.23-1.23Zm1.23 9.847h9.355v-7.385h-9.354v7.385Z" class="one" fill="#0F1126"/></svg>