<svg xmlns="http://www.w3.org/2000/svg" width="64" height="64"><path d="M34.708 14.354V8.692H14.277a1.23 1.23 0 1 1 0-2.461h21.661c.68 0 1.231.55 1.231 1.23v6.893a1.23 1.23 0 0 1-2.461 0ZM11.323 31.338a2.215 2.215 0 1 1 0-4.43 2.215 2.215 0 0 1 0 4.43Zm0-2.461a.246.246 0 1 0 0 .492.246.246 0 0 0 0-.492Z" class="one" fill="#0F1126"/><path d="m44.308 30.063 16.13-8.065C62.074 21.18 64 22.37 64 24.2v31.508c0 1.83-1.926 3.02-3.562 2.201l-16.13-8.065v5.864a6.4 6.4 0 0 1-6.4 6.4H6.4a6.4 6.4 0 0 1-6.4-6.4V24.2a6.4 6.4 0 0 1 6.4-6.4h31.508a6.4 6.4 0 0 1 6.4 6.4v5.863Zm0 5.504v8.773l14.769 7.385V28.183l-14.77 7.384Zm-4.923-1.57V24.2c0-.816-.662-1.477-1.477-1.477H6.4c-.816 0-1.477.661-1.477 1.477v31.508c0 .815.661 1.477 1.477 1.477h31.508c.815 0 1.477-.662 1.477-1.477V33.997Z" class="two" fill="#0F1126"/></svg>