<svg xmlns="http://www.w3.org/2000/svg" width="64" height="64" viewBox="0 0 64 64">
  <g class="one" fill="#0F1126">
    <path d="M34.7076923,14.3538462 L34.7076923,8.69230769 L14.2769231,8.69230769 C13.597188,8.69230769 13.0461538,8.14127354 13.0461538,7.46153846 C13.0461538,6.78180338 13.597188,6.23076923 14.2769231,6.23076923 L35.9384615,6.23076923 C36.6181966,6.23076923 37.1692308,6.78180338 37.1692308,7.46153846 L37.1692308,14.3538462 C37.1692308,15.0335812 36.6181966,15.5846154 35.9384615,15.5846154 C35.2587265,15.5846154 34.7076923,15.0335812 34.7076923,14.3538462 Z M11.3230769,31.3384615 C10.0995538,31.3384615 9.10769231,30.3466001 9.10769231,29.1230769 C9.10769231,27.8995538 10.0995538,26.9076923 11.3230769,26.9076923 C12.5466001,26.9076923 13.5384615,27.8995538 13.5384615,29.1230769 C13.5384615,30.3466001 12.5466001,31.3384615 11.3230769,31.3384615 Z M11.3230769,28.8769231 C11.1871299,28.8769231 11.0769231,28.9871299 11.0769231,29.1230769 C11.0769231,29.2590239 11.1871299,29.3692308 11.3230769,29.3692308 C11.4590239,29.3692308 11.5692308,29.2590239 11.5692308,29.1230769 C11.5692308,28.9871299 11.4590239,28.8769231 11.3230769,28.8769231 Z"/>
  </g>
  <g class="two" fill="#0F1126">
    <path d="M44.3076923,30.063301 L60.4376281,21.9983331 C62.0743077,21.1799933 64,22.3701366 64,24.2 L64,55.7076923 C64,57.5375557 62.0743077,58.727699 60.4376281,57.9093592 L44.3076923,49.8443914 L44.3076923,55.7076923 C44.3076923,59.2421778 41.4421778,62.1076923 37.9076923,62.1076923 L6.4,62.1076923 C2.86551446,62.1076923 0,59.2421778 0,55.7076923 L0,24.2 C0,20.6655145 2.86551446,17.8 6.4,17.8 L37.9076923,17.8 C41.4421778,17.8 44.3076923,20.6655145 44.3076923,24.2 L44.3076923,30.063301 Z M44.3076923,35.5674683 L44.3076923,44.340224 L59.0769231,51.7248394 L59.0769231,28.1828529 L44.3076923,35.5674683 Z M39.3846154,33.9966341 L39.3846154,24.2 C39.3846154,23.3844548 38.7232375,22.7230769 37.9076923,22.7230769 L6.4,22.7230769 C5.58445477,22.7230769 4.92307692,23.3844548 4.92307692,24.2 L4.92307692,55.7076923 C4.92307692,56.5232375 5.58445477,57.1846154 6.4,57.1846154 L37.9076923,57.1846154 C38.7232375,57.1846154 39.3846154,56.5232375 39.3846154,55.7076923 L39.3846154,45.9110583 C39.3838977,45.8768282 39.3838952,45.8425388 39.3846154,45.808212 L39.3846154,34.0994808 C39.3838952,34.0651535 39.3838977,34.0308641 39.3846154,33.9966342 Z"/>
  </g>
</svg>
