<svg xmlns="http://www.w3.org/2000/svg" width="64" height="64"><path d="M11.233 12.58c5.132-5.648 12.34-8.888 20.165-8.888 4.39 0 8.631 1.042 12.462 3.01a1.23 1.23 0 1 0 1.125-2.19 29.644 29.644 0 0 0-13.587-3.281c-8.524 0-16.392 3.536-21.987 9.693a1.23 1.23 0 0 0 1.822 1.655Z" class="one" fill="#0F1126"/><path d="M24.096 31.049c-.28 0-.554-.048-.814-.139 1.086 1.166 3.967 1.984 7.274.418 3.348-1.585 6.521-.218 8.616 2.19 2.34 2.678.3 6.058-2.94 5.907a.964.964 0 0 0-.28.083c-.387.155-.847.443-1.665 1.03-.434.313-.668.48-.9.641-.759.525-1.64.945-2.597 1.26 2.327.701 4.84.8 7.146.345 4.575-.903 9.241-9.515 8.181-19.209-.152-1.394.825-2.466 2-2.691-1.359-5.632-4.477-11.185-7.822-13.596-1.938-1.397-.95-4.458 1.44-4.458 2.899 0 5.128.718 7.329 2.347a2.411 2.411 0 0 1 2.34.288c.417.298 1.095.835 1.95 1.596a36.35 36.35 0 0 1 4.115 4.326c3.351 4.163 5.557 8.798 6.032 13.837.455 4.826-.453 10.01-2.533 14.503.344 3.407-2.179 8.609-6.19 12.902-5.437 5.818-12.861 9.402-21.457 9.402-14.816 0-23.769-6.762-29.145-15.973-3.98-6.81-5.523-19.29-1.256-28.79-.365-3.72.36-6.851 1.827-9.359.755-1.29 1.547-2.167 2.163-2.662 1.568-1.262 3.906-.21 4.002 1.802.022.464.19 1.317.591 2.12.203.407.442.742.721 1.005 1.724-.387 3.555-.444 5.478-.144a10.796 10.796 0 0 1 1.805-1.459c2.06-1.328 4.543-1.933 7.354-1.523 2.113.308 2.858 2.976 1.211 4.335-2.875 2.371-3.187 3.047-3.093 3.368.038.127.213.286.554.283 2.244-.018 4.217.056 5.399.34l.276.083c2.471.91 2.472 3.22 1.664 5.193-.675 1.647-1.885 2.628-4.28 4.048-.089.052-.921.541-1.145.675-.208.125-.385.235-.54.335.215 2.537-.587 5.34-2.81 5.34Zm32.1 7.242c1.93-3.84 2.798-8.421 2.403-12.605-.373-3.963-2.171-7.741-4.965-11.212a31.309 31.309 0 0 0-2.346-2.6 2.511 2.511 0 0 1-1.18.22c2.397 4.784 3.855 10.459 3.622 15.453-.076 1.612-1.455 2.467-2.743 2.336-1.062 9.116-6.129 16.554-12.098 17.73-6.103 1.204-13.196-.438-17.671-5.683-1.551-1.818.137-4.557 2.458-3.99 2.38.584 5.4.235 6.909-.81.194-.133.389-.273.833-.593.283-.203.54-.383.779-.544-7.74 3.334-15.777-1.643-14.078-7.673.606-2.15 2.065-3.135 3.694-3.18a2.462 2.462 0 0 1 .501-1.938c.371-.467.83-.87 1.405-1.28.342-.243.717-.483 1.192-.768.25-.15 1.1-.65 1.17-.69.304-.18.574-.348.813-.502-.431-.007-.878-.008-1.32-.005-2.763.023-4.7-1.737-5.315-3.808a4.892 4.892 0 0 1-.208-1.388 2.461 2.461 0 0 1-1.987.36c-2.069-.514-3.886-.461-5.51.06a2.462 2.462 0 0 1-1.852-.143 7.54 7.54 0 0 1-2.675-2.184c-.302 1.29-.372 2.782-.142 4.497.064.48-.015.967-.226 1.402-3.859 7.949-2.537 19.165.769 24.822 1.664 2.852 3.852 5.542 7.048 7.956 4.683 3.537 10.55 5.577 17.845 5.577 7.154 0 13.31-2.971 17.86-7.84 3.367-3.604 5.29-7.977 4.905-9.017a2.462 2.462 0 0 1 .11-1.96Z" class="two" fill="#0F1126"/></svg>