<svg xmlns="http://www.w3.org/2000/svg" width="64" height="64"><path d="M33.02 47.55v2.252a2.738 2.738 0 1 0 5.476 0 1.185 1.185 0 0 1 2.37 0 5.109 5.109 0 0 1-8.95 3.368A5.109 5.109 0 0 1 22.802 50a1.185 1.185 0 0 1 2.37 0 2.738 2.738 0 1 0 5.477 0v-2.325a3.124 3.124 0 0 1-1.427-1.009l-3.765-4.707c-1.648-2.06-.181-5.112 2.457-5.112h7.53c2.64 0 4.106 3.052 2.458 5.112l-3.765 4.707a3.13 3.13 0 0 1-1.118.884ZM22.025 34.35a5.109 5.109 0 1 1 0-10.217 5.109 5.109 0 0 1 0 10.217Zm0-2.37a2.738 2.738 0 1 0 0-5.477 2.738 2.738 0 0 0 0 5.477Zm19.616 2.37a5.109 5.109 0 1 1 0-10.217 5.109 5.109 0 0 1 0 10.217Zm0-2.37a2.738 2.738 0 1 0 0-5.477 2.738 2.738 0 0 0 0 5.477Zm-13.728 7.236a.776.776 0 0 0-.606 1.262l3.765 4.706a.776.776 0 0 0 1.213 0l3.765-4.706a.777.777 0 0 0-.606-1.262h-7.53Z" class="one" fill="#0F1126"/><path d="M53.857 1.92c1.46-1.217 3.687-.306 3.876 1.585l3.923 39.234a2.37 2.37 0 0 1-.127 1.035C58.41 52.482 41.276 63 31.834 63S5.258 52.482 2.139 43.774a2.37 2.37 0 0 1-.127-1.035L5.935 3.505C6.125 1.614 8.351.703 9.811 1.92l10.773 8.977c.688-.2 1.528-.42 2.495-.64 2.862-.65 5.825-1.04 8.755-1.04 2.93 0 5.893.39 8.754 1.04.968.22 1.808.44 2.496.64L53.857 1.92Zm-8.735 13.45a2.37 2.37 0 0 1-2.312.413 19.594 19.594 0 0 0-.845-.27 37.41 37.41 0 0 0-2.426-.633c-2.54-.577-5.164-.922-7.705-.922-2.542 0-5.164.345-7.705.922-.892.202-1.707.419-2.426.634-.421.126-.71.22-.845.269a2.37 2.37 0 0 1-2.312-.413l-8.338-6.949-3.422 34.217C9.696 49.3 24.46 58.26 31.834 58.26S53.972 49.3 56.882 42.64L53.46 8.42l-8.338 6.95Z" class="two" fill="#0F1126"/></svg>