<svg xmlns="http://www.w3.org/2000/svg" width="64" height="64"><path d="M45.785 55.2c7.341 0 13.292-5.95 13.292-13.292s-5.95-13.293-13.292-13.293h-27.57c-7.341 0-13.292 5.951-13.292 13.293 0 7.341 5.95 13.292 13.292 13.292h27.57Zm0 4.923h-27.57C8.155 60.123 0 51.968 0 41.908s8.155-18.216 18.215-18.216h27.57C55.845 23.692 64 31.847 64 41.908c0 10.06-8.155 18.215-18.215 18.215ZM34.462 18.277a2.462 2.462 0 0 1-4.924 0V6.462a2.462 2.462 0 0 1 4.924 0v11.815Z" class="two" fill="#0F1126"/><path d="M20.923 39.692V36a1.23 1.23 0 1 0-2.461 0v3.692h-3.693a1.23 1.23 0 1 0 0 2.462h3.693v3.692a1.23 1.23 0 1 0 2.461 0v-3.692h3.692a1.23 1.23 0 0 0 0-2.462h-3.692Zm21.301 1.117a1.23 1.23 0 1 1-1.74-1.74l3.938-3.94a1.23 1.23 0 1 1 1.74 1.741l-3.938 3.939Zm1.97 7.877a1.23 1.23 0 1 1-1.741-1.74l3.938-3.94a1.23 1.23 0 1 1 1.74 1.741l-3.938 3.939Z" class="one" fill="#0F1126"/></svg>