<svg xmlns="http://www.w3.org/2000/svg" width="64" height="64" viewBox="0 0 64 64">
  <g class="two" fill="#0F1126">
    <path d="M2.46153846,5.90769231 L61.5384615,5.90769231 C62.8979317,5.90769231 64,7.00976062 64,8.36923077 L64,61.5384615 C64,62.8979317 62.8979317,64 61.5384615,64 L2.46153846,64 C1.10206831,64 0,62.8979317 0,61.5384615 L0,8.36923077 C0,7.00976062 1.10206831,5.90769231 2.46153846,5.90769231 Z M4.92307692,59.0769231 L59.0769231,59.0769231 L59.0769231,10.8307692 L4.92307692,10.8307692 L4.92307692,59.0769231 Z"/>
  </g>
  <g class="one" fill="#0F1126">
    <path d="M36.6923077,40.6153846 L36.6923077,33.2307692 L26.8454016,33.2307692 C26.8459017,33.2457147 26.8461538,33.2607255 26.8461538,33.2757974 L26.8461538,40.6153846 L36.6923077,40.6153846 Z M36.6769231,43.0769231 L26.8461538,43.0769231 L26.8461538,50.4615385 L36.6769231,50.4615385 L36.6769231,43.0769231 Z M15.5076923,40.6153846 L24.3846154,40.6153846 L24.3846154,33.2757974 C24.3846154,33.2607255 24.3848675,33.2457147 24.3853676,33.2307692 L15.5076923,33.2307692 L15.5076923,40.6153846 Z M15.5076923,43.0769231 L15.5076923,50.4615385 L24.3846154,50.4615385 L24.3846154,43.0769231 L15.5076923,43.0769231 Z M39.1538462,33.2307692 L39.1538462,40.6153846 L48.4923077,40.6153846 L48.4923077,33.2307692 L39.1538462,33.2307692 Z M39.1384615,51.6923077 C39.1384615,52.3720428 38.5874274,52.9230769 37.9076923,52.9230769 L14.2769231,52.9230769 C13.597188,52.9230769 13.0461538,52.3720428 13.0461538,51.6923077 L13.0461538,32 C13.0461538,31.3202649 13.597188,30.7692308 14.2769231,30.7692308 L49.7230769,30.7692308 C50.402812,30.7692308 50.9538462,31.3202649 50.9538462,32 L50.9538462,41.8461538 C50.9538462,42.5258889 50.402812,43.0769231 49.7230769,43.0769231 L39.1384615,43.0769231 L39.1384615,51.6923077 Z M61.5384615,20.9230769 C62.2181966,20.9230769 62.7692308,21.4741111 62.7692308,22.1538462 C62.7692308,22.8335812 62.2181966,23.3846154 61.5384615,23.3846154 L2.46153846,23.3846154 C1.78180338,23.3846154 1.23076923,22.8335812 1.23076923,22.1538462 C1.23076923,21.4741111 1.78180338,20.9230769 2.46153846,20.9230769 L61.5384615,20.9230769 Z M30.7692308,2.46153846 C30.7692308,1.78180338 31.3202649,1.23076923 32,1.23076923 C32.6797351,1.23076923 33.2307692,1.78180338 33.2307692,2.46153846 L33.2307692,14.2769231 C33.2307692,14.9566582 32.6797351,15.5076923 32,15.5076923 C31.3202649,15.5076923 30.7692308,14.9566582 30.7692308,14.2769231 L30.7692308,2.46153846 Z M15.5384615,2.46153846 C15.5384615,1.78180338 16.0894957,1.23076923 16.7692308,1.23076923 C17.4489658,1.23076923 18,1.78180338 18,2.46153846 L18,14.2769231 C18,14.9566582 17.4489658,15.5076923 16.7692308,15.5076923 C16.0894957,15.5076923 15.5384615,14.9566582 15.5384615,14.2769231 L15.5384615,2.46153846 Z M45.5384615,2.46153846 C45.5384615,1.78180338 46.0894957,1.23076923 46.7692308,1.23076923 C47.4489658,1.23076923 48,1.78180338 48,2.46153846 L48,14.2769231 C48,14.9566582 47.4489658,15.5076923 46.7692308,15.5076923 C46.0894957,15.5076923 45.5384615,14.9566582 45.5384615,14.2769231 L45.5384615,2.46153846 Z"/>
  </g>
</svg>
