<svg xmlns="http://www.w3.org/2000/svg" width="64" height="64"><path d="M2.462 5.908h59.076A2.462 2.462 0 0 1 64 8.369v53.17A2.462 2.462 0 0 1 61.538 64H2.462A2.462 2.462 0 0 1 0 61.538V8.37a2.462 2.462 0 0 1 2.462-2.461Zm2.461 53.169h54.154V10.83H4.923v48.246Z" class="two" fill="#0F1126"/><path d="M36.692 40.615v-7.384h-9.847l.001.045v7.34h9.846Zm-.015 2.462h-9.83v7.385h9.83v-7.385Zm-21.17-2.462h8.878V33.231h-8.877v7.384Zm0 2.462v7.385h8.878v-7.385h-8.877Zm23.647-9.846v7.384h9.338v-7.384h-9.338Zm-.016 18.461c0 .68-.55 1.231-1.23 1.231H14.277a1.23 1.23 0 0 1-1.23-1.23V32c0-.68.55-1.23 1.23-1.23h35.446c.68 0 1.23.55 1.23 1.23v9.846c0 .68-.55 1.23-1.23 1.23H39.138v8.616Zm22.4-30.769a1.23 1.23 0 0 1 0 2.462H2.462a1.23 1.23 0 0 1 0-2.462h59.076ZM30.77 2.462a1.23 1.23 0 1 1 2.462 0v11.815a1.23 1.23 0 1 1-2.462 0V2.462Zm-15.23 0a1.23 1.23 0 0 1 2.461 0v11.815a1.23 1.23 0 0 1-2.462 0V2.462Zm30 0a1.23 1.23 0 0 1 2.461 0v11.815a1.23 1.23 0 0 1-2.462 0V2.462Z" class="one" fill="#0F1126"/></svg>