<svg xmlns="http://www.w3.org/2000/svg" width="64" height="64"><path d="M24.809 17.854c0-4.63 3.778-8.41 8.41-8.41h21.765c4.631 0 8.41 3.78 8.41 8.41V39.62c0 4.631-3.779 8.41-8.41 8.41H19.367c-2.074 0-3.227-2.4-1.931-4.019l7.373-9.216v-16.94Zm30.175 25.23a3.48 3.48 0 0 0 3.463-3.464V17.854a3.48 3.48 0 0 0-3.463-3.463H33.218a3.48 3.48 0 0 0-3.463 3.463v17.809c0 .561-.19 1.106-.542 1.545l-4.7 5.875h30.471Z" class="two" fill="#0F1126"/><path d="M36.792 34.14a1.237 1.237 0 1 1 0-2.473h13.851a1.237 1.237 0 1 1 0 2.473h-13.85Zm0-9.778a1.237 1.237 0 1 1 0-2.473h13.851a1.237 1.237 0 1 1 0 2.473h-13.85Zm-20.055 7.855-6.349 2.557v3.123c0 .468-.264.896-.683 1.106L4.97 41.37c-1.978 1.023-1.978 3.903-.015 4.918l4.749 2.375c.419.21.683.638.683 1.106v3.958a5.206 5.206 0 0 1-5.194 5.194H1.237a1.237 1.237 0 1 1 0-2.474h3.957a2.732 2.732 0 0 0 2.721-2.72v-3.194l-4.08-2.04c-3.761-1.945-3.761-7.375.015-9.328l4.065-2.033V33.94c0-.504.307-.958.775-1.147l7.141-2.876c.46-.177.612-.886.268-1.23l-7.816-7.718a1.237 1.237 0 0 1-.368-.88V6.237a1.237 1.237 0 1 1 2.473 0V19.57l7.454 7.36c1.62 1.618 1.003 4.476-1.105 5.286Z" class="one" fill="#0f1126"/></svg>