<svg xmlns="http://www.w3.org/2000/svg" width="64" height="64" viewBox="0 0 64 64">
  <g class="two" fill="#0F1126">
    <path d="M61.0615385,48.7384615 L61.0615385,30.0307692 C61.0615385,13.4452068 47.6163317,0 31.0307692,0 C14.4452068,0 1,13.4452068 1,30.0307692 L1,48.7384615 C1,50.0979317 2.10206831,51.2 3.46153846,51.2 C4.82100861,51.2 5.92307692,50.0979317 5.92307692,48.7384615 L5.92307692,30.0307692 C5.92307692,16.1641471 17.1641471,4.92307692 31.0307692,4.92307692 C44.8973914,4.92307692 56.1384615,16.1641471 56.1384615,30.0307692 L56.1384615,48.7384615 C56.1384615,50.0979317 57.2405298,51.2 58.6,51.2 C59.9594702,51.2 61.0615385,50.0979317 61.0615385,48.7384615 Z"/>
  </g>
  <g class="one" fill="#0F1126">
    <path d="M46.6428768,13.3014843 C47.1397251,13.765361 47.1664539,14.5441824 46.7025772,15.0410307 C46.2387006,15.537879 45.4598791,15.5646078 44.9630309,15.1007311 C41.2009461,11.5883041 36.2678891,9.6 31.0307692,9.6 C25.7573225,9.6 20.7929055,11.6159501 17.0223208,15.1722752 C16.5278315,15.6386657 15.7488845,15.6158871 15.282494,15.1213978 C14.8161035,14.6269084 14.8388822,13.8479614 15.3333715,13.381571 C19.5559589,9.39892759 25.1225135,7.13846154 31.0307692,7.13846154 C36.8983236,7.13846154 42.4297419,9.3679395 46.6428768,13.3014843 Z M20.2,36.6769231 C20.8797351,36.6769231 21.4307692,37.2279572 21.4307692,37.9076923 L21.4307692,61.5384615 C21.4307692,62.2181966 20.8797351,62.7692308 20.2,62.7692308 L14.2923077,62.7692308 C10.3495572,62.7692308 7.15384615,59.5735197 7.15384615,55.6307692 L7.15384615,37.9076923 C7.15384615,37.2279572 7.70488031,36.6769231 8.38461538,36.6769231 L20.2,36.6769231 Z M9.61538462,39.1384615 L9.61538462,55.6307692 C9.61538462,58.2140495 11.7090274,60.3076923 14.2923077,60.3076923 L18.9692308,60.3076923 L18.9692308,39.1384615 L9.61538462,39.1384615 Z M41.8615385,36.6769231 L53.6769231,36.6769231 C54.3566582,36.6769231 54.9076923,37.2279572 54.9076923,37.9076923 L54.9076923,55.6307692 C54.9076923,59.5735197 51.7119812,62.7692308 47.7692308,62.7692308 L41.8615385,62.7692308 C41.1818034,62.7692308 40.6307692,62.2181966 40.6307692,61.5384615 L40.6307692,37.9076923 C40.6307692,37.2279572 41.1818034,36.6769231 41.8615385,36.6769231 Z M43.0923077,60.3076923 L47.7692308,60.3076923 C50.3525111,60.3076923 52.4461538,58.2140495 52.4461538,55.6307692 L52.4461538,39.1384615 L43.0923077,39.1384615 L43.0923077,60.3076923 Z"/>
  </g>
</svg>
