<svg xmlns="http://www.w3.org/2000/svg" width="64" height="64"><path d="M61.062 48.738V30.031C61.062 13.445 47.616 0 31.03 0 14.445 0 1 13.445 1 30.03v18.708a2.462 2.462 0 1 0 4.923 0V30.031c0-13.867 11.241-25.108 25.108-25.108 13.866 0 25.107 11.241 25.107 25.108v18.707a2.462 2.462 0 1 0 4.924 0Z" class="two" fill="#0F1126"/><path d="M46.643 13.301a1.23 1.23 0 1 1-1.68 1.8A20.35 20.35 0 0 0 31.031 9.6a20.351 20.351 0 0 0-14.009 5.572 1.23 1.23 0 1 1-1.689-1.79 22.812 22.812 0 0 1 15.698-6.244c5.867 0 11.399 2.23 15.612 6.163ZM20.2 36.677c.68 0 1.23.551 1.23 1.23v23.631c0 .68-.55 1.231-1.23 1.231h-5.908a7.138 7.138 0 0 1-7.138-7.138V37.908c0-.68.55-1.231 1.23-1.231H20.2ZM9.615 39.138v16.493a4.677 4.677 0 0 0 4.677 4.677h4.677v-21.17H9.615Zm32.247-2.461h11.815c.68 0 1.23.551 1.23 1.23v17.724a7.138 7.138 0 0 1-7.138 7.138h-5.907a1.23 1.23 0 0 1-1.231-1.23V37.907c0-.68.55-1.231 1.23-1.231Zm1.23 23.63h4.677a4.677 4.677 0 0 0 4.677-4.676V39.138h-9.354v21.17Z" class="one" fill="#0F1126"/></svg>