<svg xmlns="http://www.w3.org/2000/svg" width="64" height="64"><path d="M64 38.82c0 8.089-6.821 14.646-15.236 14.646H15.236C6.821 53.466 0 46.91 0 38.82c0-5.803 3.54-10.91 8.792-13.265-.27-.919-.41-1.875-.41-2.85 0-5.686 4.647-10.327 10.489-10.605C19.16 5.37 24.928 0 32 0c7.072 0 12.839 5.37 13.13 12.1 5.84.278 10.488 4.92 10.488 10.604 0 .976-.14 1.932-.41 2.85C60.459 27.91 64 33.018 64 38.82ZM49.372 25.669c.6-.894.92-1.908.92-2.965 0-3.036-2.56-5.497-5.719-5.497h-2.307c-1.683 0-2.944-1.484-2.61-3.07.105-.495.158-.998.158-1.505 0-4.149-3.498-7.512-7.814-7.512s-7.814 3.363-7.814 7.512c0 .507.053 1.01.157 1.505.335 1.586-.926 3.07-2.61 3.07h-2.306c-3.159 0-5.719 2.46-5.719 5.497 0 1.057.32 2.071.92 2.965.999 1.49.159 3.48-1.637 3.88-4.456.994-7.665 4.82-7.665 9.27 0 5.262 4.437 9.527 9.91 9.527h33.528c5.473 0 9.91-4.265 9.91-9.526 0-4.451-3.209-8.277-7.665-9.27-1.796-.4-2.636-2.392-1.637-3.881Z" class="two" fill="#0F1126"/><path d="M30.44 40.315V60.16H19.675a1.28 1.28 0 0 0 0 2.56H43.85a1.28 1.28 0 1 0 0-2.56H33V46.442l9.74-9.739a1.28 1.28 0 0 0-1.811-1.81L33 42.822v-2.67a1.286 1.286 0 0 0 0-.651V20.144a1.28 1.28 0 1 0-2.56 0v16.55l-7.845-7.844a1.28 1.28 0 1 0-1.81 1.81l9.655 9.655Z" class="one" fill="#0F1126"/></svg>