<svg xmlns="http://www.w3.org/2000/svg" width="64" height="64"><path d="M32.822 16c.016-.08.024-.162.024-.246V8.862a1.23 1.23 0 1 0-2.461 0v6.892c0 .084.008.166.024.246h-7.163a1.23 1.23 0 0 0 0 2.462H39A1.23 1.23 0 0 0 39 16h-6.178Z" class="one" fill="#0f1126"/><path d="M54.047 46.822C57.547 54.947 51.59 64 42.744 64H19.515c-8.85 0-14.808-9.062-11.3-17.187l12.378-28.662-5.56-14.825A2.462 2.462 0 0 1 17.339 0h27.57a2.462 2.462 0 0 1 2.306 3.32L41.692 18.15l12.355 28.673ZM25.55 17.352a2.462 2.462 0 0 1-.045 1.84l-12.77 29.573c-2.106 4.875 1.47 10.312 6.78 10.312h23.228c5.308 0 8.882-5.432 6.782-10.307L36.78 19.19a2.462 2.462 0 0 1-.046-1.834l4.63-12.433H20.89l4.661 12.428Z" class="two" fill="#0F1126"/></svg>