<svg xmlns="http://www.w3.org/2000/svg" width="64" height="64" viewBox="0 0 64 64">
  <g class="one" fill="#0f1126">
    <path d="M32.821534,16 C32.8376787,15.9204652 32.8461538,15.8381454 32.8461538,15.7538462 L32.8461538,8.86153846 C32.8461538,8.18180338 32.2951197,7.63076923 31.6153846,7.63076923 C30.9356495,7.63076923 30.3846154,8.18180338 30.3846154,8.86153846 L30.3846154,15.7538462 C30.3846154,15.8381454 30.3930905,15.9204652 30.4092352,16 L23.2461538,16 C22.5664188,16 22.0153846,16.5510342 22.0153846,17.2307692 C22.0153846,17.9105043 22.5664188,18.4615385 23.2461538,18.4615385 L39,18.4615385 C39.6797351,18.4615385 40.2307692,17.9105043 40.2307692,17.2307692 C40.2307692,16.5510342 39.6797351,16 39,16 L32.821534,16 Z"/>
  </g>
  <g class="two" fill="#0F1126">
    <path d="M54.0468621,46.822199 C57.5471958,54.946567 51.5900174,64 42.7435077,64 L19.5154462,64 C10.6650093,64 4.70687384,54.9378723 8.21584403,46.8134556 L20.5929187,18.1505555 L15.0336513,3.32584232 C14.430189,1.71660952 15.6198002,0 17.3384615,0 L44.9076923,0 C46.6240036,0 47.8134624,1.71227458 47.2144401,3.32065785 L41.6919373,18.1486567 L54.0468621,46.822199 Z M25.5509641,17.3510808 C25.774507,17.9471951 25.7583918,18.6067359 25.5060021,19.1912214 L12.7354673,48.7652987 C10.6302342,53.6396037 14.2051436,59.0769231 19.5154462,59.0769231 L42.7435077,59.0769231 C48.051569,59.0769231 51.6258301,53.6449331 49.5256004,48.7702438 L36.7797542,19.1894438 C36.5288466,18.6071327 36.5123211,17.9504597 36.7336214,17.3562652 L41.364207,4.92307692 L20.8904627,4.92307692 L25.5509641,17.3510808 Z"/>
  </g>
</svg>
