<svg xmlns="http://www.w3.org/2000/svg" width="64" height="64"><path d="M24.619 14.714c2.24-.985 4.714-1.47 7.381-1.47 10.383 0 18.855 8.443 18.855 18.854a1.23 1.23 0 1 0 2.462 0c0-11.772-9.576-21.316-21.317-21.316-2.997 0-5.81.552-8.373 1.68a1.23 1.23 0 0 0 .992 2.252zM13.145 32c0-2.487.513-4.986 1.487-7.42a1.23 1.23 0 1 0-2.286-.914c-1.086 2.716-1.663 5.522-1.663 8.334a1.23 1.23 0 0 0 2.462 0zm15.59-5.006-10.93-10.929a1.23 1.23 0 0 0-1.74 1.74l10.93 10.93a1.23 1.23 0 0 0 1.74-1.74z"/><path d="M32 64C14.327 64 0 49.673 0 32 0 14.327 14.327 0 32 0c17.673 0 32 14.327 32 32 0 17.673-14.327 32-32 32Zm0-4.923c14.954 0 27.077-12.123 27.077-27.077C59.077 17.046 46.954 4.923 32 4.923 17.046 4.923 4.923 17.046 4.923 32c0 14.954 12.123 27.077 27.077 27.077Z"/><path d="M32 39.138a7.138 7.138 0 1 1 0-14.276 7.138 7.138 0 0 1 0 14.276Zm0-2.461a4.677 4.677 0 1 0 0-9.354 4.677 4.677 0 0 0 0 9.354Z"/></svg>