<svg xmlns="http://www.w3.org/2000/svg" width="64" height="64"><path d="M2.462 0h59.076A2.462 2.462 0 0 1 64 2.462v59.076A2.462 2.462 0 0 1 61.538 64H2.462A2.462 2.462 0 0 1 0 61.538V2.462A2.462 2.462 0 0 1 2.462 0Zm2.461 59.077h54.154V4.923H4.923v54.154Z" class="two" fill="#0F1126"/><path d="M24.123 28.308a6.154 6.154 0 1 1 0-12.308 6.154 6.154 0 0 1 0 12.308Zm0-2.462a3.692 3.692 0 1 0 0-7.384 3.692 3.692 0 0 0 0 7.384Zm1.2 19.915-8.926-7.141-6.117 6.99a1.23 1.23 0 1 1-1.852-1.62l6.892-7.877a1.23 1.23 0 0 1 1.695-.151l8.904 7.123L39.916 26.29a1.23 1.23 0 0 1 1.845-.052l13.785 14.77a1.23 1.23 0 0 1-1.8 1.679l-12.832-13.75-13.876 16.652a1.23 1.23 0 0 1-1.715.173Z" class="one" fill="#0F1162"/></svg>