<svg xmlns="http://www.w3.org/2000/svg" width="64" height="64"><path d="M17 22.016v-7.168C17 6.648 23.648 0 31.848 0c8.2 0 14.848 6.648 14.848 14.848v7.168h-5.12v-7.168c0-5.372-4.356-9.728-9.728-9.728s-9.728 4.356-9.728 9.728v7.168h27.4a6.656 6.656 0 0 1 6.656 6.656v28.672A6.656 6.656 0 0 1 49.52 64H12.656A6.656 6.656 0 0 1 6 57.344V28.672a6.656 6.656 0 0 1 6.656-6.656H17ZM49.52 58.88c.848 0 1.536-.688 1.536-1.536V28.672c0-.848-.688-1.536-1.536-1.536H12.656c-.848 0-1.536.688-1.536 1.536v28.672c0 .848.688 1.536 1.536 1.536H49.52Z" class="two" fill="#0F1126" fill-rule="evenodd"/><path d="M32.88 47.142v5.082a1.28 1.28 0 1 1-2.56 0v-4.903a7.425 7.425 0 1 1 2.56-.179ZM31.088 44.8a4.864 4.864 0 1 0 0-9.728 4.864 4.864 0 0 0 0 9.728Z" class="one" fill="#0F1126"/></svg>