<svg xmlns="http://www.w3.org/2000/svg" width="64" height="64"><path d="M27.139 8.161a5.17 5.17 0 1 1 9.723 0l13.544 9.03a1.23 1.23 0 0 1-1.366 2.048l-13.545-9.03A5.15 5.15 0 0 1 32 11.569a5.15 5.15 0 0 1-3.495-1.36l-13.545 9.03a1.23 1.23 0 0 1-1.366-2.048l13.545-9.03ZM32 9.108a2.708 2.708 0 1 0 0-5.416 2.708 2.708 0 0 0 0 5.416Zm-7.877 29.046a6.154 6.154 0 1 1 0-12.308 6.154 6.154 0 0 1 0 12.308Zm0-2.462a3.692 3.692 0 1 0 0-7.384 3.692 3.692 0 0 0 0 7.384Zm1.2 17.946-8.926-7.141-6.117 6.99a1.23 1.23 0 1 1-1.852-1.62l6.892-7.877a1.23 1.23 0 0 1 1.695-.151l8.904 7.123 13.997-16.796a1.23 1.23 0 0 1 1.845-.052l13.785 14.77a1.23 1.23 0 0 1-1.8 1.679l-12.832-13.75-13.876 16.652a1.23 1.23 0 0 1-1.715.173Z" class="one" fill="#0F1126"/><path d="M4.923 59.077h54.154v-38.4H4.923v38.4ZM2.462 15.754h59.076A2.462 2.462 0 0 1 64 18.215v43.323A2.462 2.462 0 0 1 61.538 64H2.462A2.462 2.462 0 0 1 0 61.538V18.215a2.462 2.462 0 0 1 2.462-2.461Z" class="two" fill="#0F1126"/></svg>