<svg xmlns="http://www.w3.org/2000/svg" width="64" height="64"><path d="M62.778 59.297a2.462 2.462 0 1 1-3.48 3.481L47.281 50.763a2.462 2.462 0 0 1 3.48-3.481l12.016 12.015Zm-35.785-5.81C12.362 53.486.501 41.624.501 26.992.5 12.362 12.36.501 26.993.501c14.632 0 26.493 11.86 26.493 26.492 0 14.632-11.86 26.493-26.493 26.493Zm0-4.924c11.913 0 21.57-9.657 21.57-21.57 0-11.912-9.657-21.57-21.57-21.57-11.912 0-21.57 9.658-21.57 21.57 0 11.913 9.658 21.57 21.57 21.57Z" class="two" fill="#0F1126"/><path d="M12.662 23.307a15.083 15.083 0 0 1 10.645-10.645 1.23 1.23 0 1 0-.637-2.378A17.545 17.545 0 0 0 10.284 22.67a1.23 1.23 0 0 0 2.378.637Z" class="one" fill="#0F1126"/></svg>