<svg xmlns="http://www.w3.org/2000/svg" width="64" height="64" viewBox="0 0 64 64">
  <g class="two" fill="#0F1126">
    <path d="M62.7783802,59.2972391 C63.7396708,60.2585297 63.7396708,61.8170896 62.7783802,62.7783802 C61.8170896,63.7396708 60.2585297,63.7396708 59.2972391,62.7783802 L47.2815937,50.7627348 C46.3203032,49.8014443 46.3203032,48.2428843 47.2815937,47.2815937 C48.2428843,46.3203032 49.8014443,46.3203032 50.7627348,47.2815937 L62.7783802,59.2972391 Z M26.9934811,53.4863103 C12.3618955,53.4863103 0.50065189,41.6250666 0.50065189,26.9934811 C0.50065189,12.3618955 12.3618955,0.50065189 26.9934811,0.50065189 C41.6250666,0.50065189 53.4863103,12.3618955 53.4863103,26.9934811 C53.4863103,41.6250666 41.6250666,53.4863103 26.9934811,53.4863103 Z M26.9934811,48.5632334 C38.9061263,48.5632334 48.5632334,38.9061263 48.5632334,26.9934811 C48.5632334,15.0808359 38.9061263,5.42372881 26.9934811,5.42372881 C15.0808359,5.42372881 5.42372881,15.0808359 5.42372881,26.9934811 C5.42372881,38.9061263 15.0808359,48.5632334 26.9934811,48.5632334 Z"/>
  </g>
  <g class="one" fill="#0F1126">
    <path d="M12.6621316,23.3067104 C14.0502985,18.1242206 18.1242206,14.0502985 23.3067104,12.6621316 C23.9632992,12.4862596 24.3529971,11.8114169 24.1771251,11.1548281 C24.0012531,10.4982393 23.3264103,10.1085414 22.6698216,10.2844133 C16.637709,11.9001578 11.9001578,16.637709 10.2844133,22.6698216 C10.1085414,23.3264103 10.4982393,24.0012531 11.1548281,24.1771251 C11.8114169,24.3529971 12.4862596,23.9632992 12.6621316,23.3067104 Z"/>
  </g>
</svg>
