<svg xmlns="http://www.w3.org/2000/svg" width="64" height="64"><path d="M32.923 40.721V16.246a1.23 1.23 0 0 1 2.462 0v24.475a7.138 7.138 0 1 1-2.462 0ZM14.462 30.77a1.23 1.23 0 0 1 0-2.461H18.4a1.23 1.23 0 0 1 0 2.461h-3.938Zm0-9.846a1.23 1.23 0 1 1 0-2.461H18.4a1.23 1.23 0 1 1 0 2.461h-3.938Zm0-9.846a1.23 1.23 0 0 1 0-2.462H18.4a1.23 1.23 0 1 1 0 2.462h-3.938ZM34.154 52.43a4.677 4.677 0 1 0 0-9.354 4.677 4.677 0 0 0 0 9.354Z" class="one" fill="#0F1126"/><path d="M50.4 47.754C50.4 56.694 43.095 64 34.154 64c-8.941 0-16.246-7.305-16.246-16.246 0-4.945 2.217-9.507 5.907-12.545V10.34C23.815 4.646 28.462 0 34.154 0s10.338 4.647 10.338 10.338V35.23C48.203 38.35 50.4 42.83 50.4 47.754ZM39.57 36.43V10.338c0-2.972-2.443-5.415-5.416-5.415-2.973 0-5.416 2.443-5.416 5.415v26.093c0 .806-.395 1.562-1.057 2.022a11.292 11.292 0 0 0-4.85 9.3c0 6.223 5.1 11.324 11.323 11.324 6.222 0 11.323-5.101 11.323-11.323 0-3.74-1.814-7.108-4.887-9.328a2.462 2.462 0 0 1-1.02-1.995Z" class="two" fill="#0F1126"/></svg>