<svg xmlns="http://www.w3.org/2000/svg" width="64" height="64" viewBox="0 0 64 64">
  <g class="one" fill="#0F1126">
    <path d="M32.9230769,40.7210901 L32.9230769,16.2461538 C32.9230769,15.5664188 33.4741111,15.0153846 34.1538462,15.0153846 C34.8335812,15.0153846 35.3846154,15.5664188 35.3846154,16.2461538 L35.3846154,40.7210901 C38.7405594,41.3043144 41.2923077,44.2310839 41.2923077,47.7538462 C41.2923077,51.6963096 38.0963096,54.8923077 34.1538462,54.8923077 C30.2113827,54.8923077 27.0153846,51.6963096 27.0153846,47.7538462 C27.0153846,44.2310839 29.5671329,41.3043144 32.9230769,40.7210901 Z M14.4615385,30.7692308 C13.7818034,30.7692308 13.2307692,30.2181966 13.2307692,29.5384615 C13.2307692,28.8587265 13.7818034,28.3076923 14.4615385,28.3076923 L18.4,28.3076923 C19.0797351,28.3076923 19.6307692,28.8587265 19.6307692,29.5384615 C19.6307692,30.2181966 19.0797351,30.7692308 18.4,30.7692308 L14.4615385,30.7692308 Z M14.4615385,20.9230769 C13.7818034,20.9230769 13.2307692,20.3720428 13.2307692,19.6923077 C13.2307692,19.0125726 13.7818034,18.4615385 14.4615385,18.4615385 L18.4,18.4615385 C19.0797351,18.4615385 19.6307692,19.0125726 19.6307692,19.6923077 C19.6307692,20.3720428 19.0797351,20.9230769 18.4,20.9230769 L14.4615385,20.9230769 Z M14.4615385,11.0769231 C13.7818034,11.0769231 13.2307692,10.5258889 13.2307692,9.84615385 C13.2307692,9.16641877 13.7818034,8.61538462 14.4615385,8.61538462 L18.4,8.61538462 C19.0797351,8.61538462 19.6307692,9.16641877 19.6307692,9.84615385 C19.6307692,10.5258889 19.0797351,11.0769231 18.4,11.0769231 L14.4615385,11.0769231 Z M34.1538462,52.4307692 C36.7368394,52.4307692 38.8307692,50.3368394 38.8307692,47.7538462 C38.8307692,45.1708529 36.7368394,43.0769231 34.1538462,43.0769231 C31.5708529,43.0769231 29.4769231,45.1708529 29.4769231,47.7538462 C29.4769231,50.3368394 31.5708529,52.4307692 34.1538462,52.4307692 Z"/>
  </g>
  <g class="two" fill="#0F1126">
    <path d="M50.4,47.7538462 C50.4,56.6948548 43.0948548,64 34.1538462,64 C25.2128375,64 17.9076923,56.6948548 17.9076923,47.7538462 C17.9076923,42.8089468 20.1253142,38.246727 23.8153846,35.2092233 L23.8153846,10.3384615 C23.8153846,4.64668369 28.4620683,0 34.1538462,0 C39.845624,0 44.4923077,4.64668369 44.4923077,10.3384615 L44.4923077,35.2304428 C48.2032068,38.3485021 50.4,42.8286927 50.4,47.7538462 Z M39.5692308,36.4307692 L39.5692308,10.3384615 C39.5692308,7.365624 37.1266837,4.92307692 34.1538462,4.92307692 C31.1810086,4.92307692 28.7384615,7.365624 28.7384615,10.3384615 L28.7384615,36.4307692 C28.7384615,37.237255 28.3433975,37.9925869 27.6809743,38.452603 C24.6720816,40.5421118 22.8307692,43.9836123 22.8307692,47.7538462 C22.8307692,53.9759145 27.9317778,59.0769231 34.1538462,59.0769231 C40.3759145,59.0769231 45.4769231,53.9759145 45.4769231,47.7538462 C45.4769231,44.0142097 43.6634382,40.6463093 40.5895617,38.4262873 C39.9487926,37.9635097 39.5692308,37.2211794 39.5692308,36.4307692 Z"/>
  </g>
</svg>
