<svg xmlns="http://www.w3.org/2000/svg" width="64" height="64"><path d="M20.185 62.77a7.138 7.138 0 1 1 0-14.278 7.138 7.138 0 0 1 0 14.277zm0-2.462a4.677 4.677 0 1 0 0-9.354 4.677 4.677 0 0 0 0 9.354zm33.477 2.461a7.138 7.138 0 1 1 0-14.277 7.138 7.138 0 0 1 0 14.277zm0-2.461a4.677 4.677 0 1 0 0-9.354 4.677 4.677 0 0 0 0 9.354zm-.186-20.923h-35.11L12.458 0H2.462a2.462 2.462 0 0 0 0 4.923h5.757l5.907 39.385h43.66L62.38 9.846H19.298a2.462 2.462 0 0 0 0 4.923h37.46l-3.282 24.616z" fill="#0F1126"/></svg>