<svg xmlns="http://www.w3.org/2000/svg" width="64" height="64"><path d="M49.723 19.477a1.23 1.23 0 0 1 0-2.462h11.815c.68 0 1.231.551 1.231 1.231v29.539c0 .68-.55 1.23-1.23 1.23h-6.647v8.616a1.23 1.23 0 0 1-1.946 1.001l-13.463-9.617H28.062a1.23 1.23 0 1 1 0-2.461h11.815c.256 0 .507.08.715.23l11.839 8.455v-7.454c0-.68.55-1.231 1.23-1.231h6.647V19.477H49.723Z" class="one" fill="#0F1126"/><path d="M2.462 40.4A2.462 2.462 0 0 1 0 37.938V4.462A2.462 2.462 0 0 1 2.462 2h47.261a2.462 2.462 0 0 1 2.462 2.462v33.476a2.462 2.462 0 0 1-2.462 2.462H28.986L13.93 53.576c-1.592 1.392-4.083.262-4.083-1.853V40.4H2.462ZM4.923 6.923v28.554h7.385a2.462 2.462 0 0 1 2.461 2.461v8.36l11.672-10.212a2.462 2.462 0 0 1 1.62-.61h19.2V6.924H4.924Z" class="two" fill="#0F1126"/></svg>