<svg xmlns="http://www.w3.org/2000/svg" width="64" height="64"><path d="M2.462 0h59.076A2.462 2.462 0 0 1 64 2.462v59.076A2.462 2.462 0 0 1 61.538 64H2.462A2.462 2.462 0 0 1 0 61.538V2.462A2.462 2.462 0 0 1 2.462 0Zm2.461 59.077h54.154V4.923H4.923v54.154Z" class="two" fill="#0F1126"/><path d="M19.692 41.846V34.91a1.23 1.23 0 0 0-2.461 0v6.937h-6.714a1.23 1.23 0 0 0 0 2.462h6.714v6.713a1.23 1.23 0 0 0 2.461 0v-6.713h6.937a1.23 1.23 0 1 0 0-2.462h-6.937ZM18.573 27.86a9.287 9.287 0 1 1 0-18.573 9.287 9.287 0 0 1 0 18.573Zm0-2.461a6.825 6.825 0 1 0 0-13.65 6.825 6.825 0 0 0 0 13.65ZM37.371 9.287h16.112c.68 0 1.23.55 1.23 1.23V26.63c0 .68-.55 1.231-1.23 1.231H37.37a1.23 1.23 0 0 1-1.231-1.23V10.516c0-.68.55-1.23 1.23-1.23Zm1.23 16.112h13.65v-13.65h-13.65v13.65Zm14.882 26.853H37.37a1.23 1.23 0 0 1-1.056-1.864l8.056-13.427a1.23 1.23 0 0 1 2.11 0l8.057 13.427a1.23 1.23 0 0 1-1.055 1.864Zm-8.056-12.265-5.883 9.803H51.31l-5.882-9.803Z" class="one" fill="#0F1126"/></svg>