<svg xmlns="http://www.w3.org/2000/svg" width="64" height="64"><path d="M50.119 19.314a7.042 7.042 0 1 1 0-14.083 7.042 7.042 0 0 1 0 14.083Zm0-2.462a4.58 4.58 0 1 0 0-9.16 4.58 4.58 0 0 0 0 9.16Zm5.975 7.052c1.901-1.188 4.445-.773 5.718 1.045a4.136 4.136 0 0 1-1.194 5.883l-7.748 4.842a4.13 4.13 0 0 1-5.117-.583l-6.76-6.76-5.99 5.989 11.087 6.929a4.132 4.132 0 0 1 1.25 5.802l-7.748 11.622a4.132 4.132 0 0 1-5.867 1.056c-1.817-1.314-2.179-3.9-.923-5.784l5.292-7.939-8.786-5.49c-2.185-1.366-3.439-3.78-3.301-6.386.092-1.738.888-3.4 2.177-4.689l6.96-6.96-5.192-5.191-4.879 3.659c-2.073 1.554-5.055.851-6.212-1.52-.87-1.786-.27-3.96 1.337-5.164l7.66-5.746a4.136 4.136 0 0 1 5.406.385l10.65 10.649 7.362 7.362 4.818-3.011Zm-24.57-13.26a1.674 1.674 0 0 0-2.189-.156l-7.66 5.746c-.689.516-.94 1.423-.601 2.116a1.677 1.677 0 0 0 2.523.63l5.731-4.3a1.23 1.23 0 0 1 1.61.114l6.817 6.818c.48.48.48 1.26 0 1.74l-7.83 7.83c-.875.875-1.402 1.973-1.46 3.078-.09 1.713.722 3.277 2.147 4.168l9.861 6.163a1.23 1.23 0 0 1 .372 1.726L34.85 55.31c-.544.817-.391 1.912.317 2.424a1.671 1.671 0 0 0 2.377-.427l7.748-11.621a1.675 1.675 0 0 0-.506-2.35L33.42 36.233a2.2 2.2 0 0 1-.39-3.42l7.093-7.092a1.23 1.23 0 0 1 1.74 0l7.631 7.63a1.67 1.67 0 0 0 2.071.237l7.748-4.843a1.674 1.674 0 0 0 .482-2.384c-.496-.709-1.572-.884-2.396-.369l-5.649 3.53a1.23 1.23 0 0 1-1.523-.173L42.18 21.3 31.523 10.644Zm-7.855 27.798a4.135 4.135 0 0 1 0 5.85l-4.724 4.725a4.137 4.137 0 0 1-2.925 1.211H5.367a4.136 4.136 0 1 1 0-8.272h8.94l3.514-3.513a4.135 4.135 0 0 1 5.848 0Zm-4.107 1.74-3.875 3.875c-.23.23-.544.36-.87.36h-9.45a1.674 1.674 0 1 0 0 3.35H16.02c.444 0 .87-.177 1.184-.491l4.726-4.725a1.674 1.674 0 1 0-2.368-2.368Z" class="one" fill="#0F1126"/><path d="M9.846 28.615a2.462 2.462 0 1 1 0-4.923h9.685a2.462 2.462 0 1 1 0 4.923H9.846ZM2.462 36a2.462 2.462 0 0 1 0-4.923h9.684a2.462 2.462 0 1 1 0 4.923H2.462Z" class="two" fill="#0F1126"/></svg>