<svg xmlns="http://www.w3.org/2000/svg" width="64" height="64"><path d="m44.594 17.693-6.447-8.596H20.645a1.032 1.032 0 1 1 0-2.065h18.018c.325 0 .63.153.826.413l6.446 8.596h13.936a1.032 1.032 0 0 1 0 2.065H45.419c-.325 0-.63-.153-.825-.413Zm-34.271 9.984h16.171c.57 0 1.032.463 1.032 1.033v13.513c0 .57-.462 1.032-1.032 1.032H10.323c-.57 0-1.033-.462-1.033-1.032V28.71c0-.57.462-1.033 1.033-1.033Zm1.032 13.514h14.107V29.74H11.355v11.45Zm23.674-11.45a1.032 1.032 0 0 1 0-2.064h18.867a1.032 1.032 0 0 1 0 2.065H35.029Zm0 7.227a1.032 1.032 0 1 1 0-2.065h18.867a1.032 1.032 0 0 1 0 2.065H35.029Zm0 7.226a1.032 1.032 0 0 1 0-2.065h8.086a1.032 1.032 0 1 1 0 2.065h-8.086Z" class="one" fill="#0F1126"/><path d="M64 33.965v16.891a6.57 6.57 0 0 1-6.569 6.57H6.57A6.57 6.57 0 0 1 0 50.855V8.065C0 6.925.924 6 2.065 6H61.935C63.075 6 64 6.924 64 8.065v25.9ZM24.211 10.129l3.66 4.88h32v-4.88h-35.66ZM4.13 50.856a2.44 2.44 0 0 0 2.44 2.44H57.43a2.44 2.44 0 0 0 2.44-2.44V19.138H26.839c-.65 0-1.262-.306-1.652-.826l-6.137-8.183H4.129v40.727Z" class="two" fill="#0F1125"/></svg>