<svg xmlns="http://www.w3.org/2000/svg" width="64" height="64" viewBox="0 0 64 64">
  <g class="one" fill="#0F1126">
    <path d="M44.5935484,17.6926686 L38.1466276,9.09677419 L20.6451613,9.09677419 C20.0750609,9.09677419 19.6129032,8.63461652 19.6129032,8.06451613 C19.6129032,7.49441574 20.0750609,7.03225806 20.6451613,7.03225806 L38.6627566,7.03225806 C38.9876674,7.03225806 39.2936166,7.18523268 39.488563,7.44516129 L45.9354839,16.0410557 L59.8709677,16.0410557 C60.4410681,16.0410557 60.9032258,16.5032134 60.9032258,17.0733138 C60.9032258,17.6434142 60.4410681,18.1055718 59.8709677,18.1055718 L45.4193548,18.1055718 C45.0944441,18.1055718 44.7884948,17.9525972 44.5935484,17.6926686 Z M10.3225806,27.6774194 L26.494045,27.6774194 C27.0641454,27.6774194 27.5263031,28.139577 27.5263031,28.7096774 L27.5263031,42.2228739 C27.5263031,42.7929743 27.0641454,43.255132 26.494045,43.255132 L10.3225806,43.255132 C9.75248026,43.255132 9.29032258,42.7929743 9.29032258,42.2228739 L9.29032258,28.7096774 C9.29032258,28.139577 9.75248026,27.6774194 10.3225806,27.6774194 Z M11.3548387,41.1906158 L25.4617869,41.1906158 L25.4617869,29.7419355 L11.3548387,29.7419355 L11.3548387,41.1906158 Z M35.0289845,29.7419355 C34.4588841,29.7419355 33.9967265,29.2797778 33.9967265,28.7096774 C33.9967265,28.139577 34.4588841,27.6774194 35.0289845,27.6774194 L53.895693,27.6774194 C54.4657933,27.6774194 54.927951,28.139577 54.927951,28.7096774 C54.927951,29.2797778 54.4657933,29.7419355 53.895693,29.7419355 L35.0289845,29.7419355 Z M35.0289845,36.9677419 C34.4588841,36.9677419 33.9967265,36.5055843 33.9967265,35.9354839 C33.9967265,35.3653835 34.4588841,34.9032258 35.0289845,34.9032258 L53.895693,34.9032258 C54.4657933,34.9032258 54.927951,35.3653835 54.927951,35.9354839 C54.927951,36.5055843 54.4657933,36.9677419 53.895693,36.9677419 L35.0289845,36.9677419 Z M35.0289845,44.1935484 C34.4588841,44.1935484 33.9967265,43.7313907 33.9967265,43.1612903 C33.9967265,42.5911899 34.4588841,42.1290323 35.0289845,42.1290323 L43.1147167,42.1290323 C43.6848171,42.1290323 44.1469748,42.5911899 44.1469748,43.1612903 C44.1469748,43.7313907 43.6848171,44.1935484 43.1147167,44.1935484 L35.0289845,44.1935484 Z"/>
  </g>
  <g class="two" fill="#0F1125">
    <path d="M64,33.9648094 L64,50.856305 C64,54.48406 61.0588401,57.4252199 57.431085,57.4252199 L6.56891496,57.4252199 C2.94115993,57.4252199 0,54.48406 0,50.856305 L0,8.06451613 C0,6.92431536 0.924315355,6 2.06451613,6 L15.483871,6 L61.9354839,6 C63.0756846,6 64,6.92431536 64,8.06451613 L64,33.9648094 Z M24.2111437,10.1290323 L27.8709677,15.0087977 L59.8709677,15.0087977 L59.8709677,10.1290323 L24.2111437,10.1290323 Z M4.12903226,50.856305 C4.12903226,52.2036585 5.22156148,53.2961877 6.56891496,53.2961877 L57.431085,53.2961877 C58.7784385,53.2961877 59.8709677,52.2036585 59.8709677,50.856305 L59.8709677,19.1378299 L26.8387097,19.1378299 C26.1888881,19.1378299 25.5769897,18.8318807 25.1870968,18.3120235 L19.0498534,10.1290323 L4.12903226,10.1290323 L4.12903226,50.856305 Z"/>
  </g>
</svg>
