<svg xmlns="http://www.w3.org/2000/svg" width="64" height="64"><g fill="none"><path fill="#000" d="M5.462 48h21.661a1.23 1.23 0 1 0 0-2.462H5.462a1.23 1.23 0 0 0 0 2.462zm0-34.462h39.384a1.23 1.23 0 1 0 0-2.461H5.462a1.23 1.23 0 1 0 0 2.461z"/><path fill="#000" d="M40.908 59.077H9.4c-.807 0-1.477-.67-1.477-1.477V6.4c0-.807.67-1.477 1.477-1.477h31.508c.806 0 1.477.67 1.477 1.477v22.746a2.462 2.462 0 1 0 4.923 0V6.4c0-3.526-2.875-6.4-6.4-6.4H9.4C5.874 0 3 2.874 3 6.4v51.2C3 61.126 5.874 64 9.4 64h31.508a2.462 2.462 0 1 0 0-4.923Z"/><path fill="#000" d="M14.57 25.354h12.938a1.23 1.23 0 0 0 0-2.462h-14.17c-.68 0-1.23.551-1.23 1.231v11.815c0 .68.55 1.231 1.23 1.231h13.88a1.23 1.23 0 0 0 0-2.461H14.569v-9.354Z"/><path fill="#000" d="M50.641 57.716 27.06 34.036a5.66 5.66 0 1 1 8.004-8.008l23.683 23.583a1.23 1.23 0 1 0 1.737-1.745l-23.681-23.58a8.121 8.121 0 0 0-11.486.002 8.122 8.122 0 0 0 0 11.487l23.58 23.678a1.23 1.23 0 1 0 1.744-1.737Z"/><path fill="#000" d="m33.196 34.135 1.97-1.97a1.23 1.23 0 0 0-1.741-1.74l-1.97 1.969a1.23 1.23 0 0 0 1.741 1.74Z"/><path fill="#444" d="M24.23 8.462h3.94a1.23 1.23 0 0 0 0-2.462h-3.94a1.23 1.23 0 0 0 0 2.462Z"/></g></svg>