<svg xmlns="http://www.w3.org/2000/svg" width="64" height="64" viewBox="0 0 64 64">
  <g fill="none" transform="translate(3)">
    <path fill="#000" d="M2.46153846 48L24.1230769 48C24.802812 48 25.3538462 47.4489658 25.3538462 46.7692308 25.3538462 46.0894957 24.802812 45.5384615 24.1230769 45.5384615L2.46153846 45.5384615C1.78180338 45.5384615 1.23076923 46.0894957 1.23076923 46.7692308 1.23076923 47.4489658 1.78180338 48 2.46153846 48zM2.46153846 13.5384615L41.8461538 13.5384615C42.5258889 13.5384615 43.0769231 12.9874274 43.0769231 12.3076923 43.0769231 11.6279572 42.5258889 11.0769231 41.8461538 11.0769231L2.46153846 11.0769231C1.78180338 11.0769231 1.23076923 11.6279572 1.23076923 12.3076923 1.23076923 12.9874274 1.78180338 13.5384615 2.46153846 13.5384615z"/>
    <path fill="#000" d="M37.9076923,59.0769231 L6.4,59.0769231 C5.59331631,59.0769231 4.92307692,58.4066837 4.92307692,57.6 L4.92307692,6.4 C4.92307692,5.59331631 5.59331631,4.92307692 6.4,4.92307692 L37.9076923,4.92307692 C38.714376,4.92307692 39.3846154,5.59331631 39.3846154,6.4 L39.3846154,29.1456 C39.3846154,30.5050702 40.4866837,31.6071385 41.8461538,31.6071385 C43.205624,31.6071385 44.3076923,30.5050702 44.3076923,29.1456 L44.3076923,6.4 C44.3076923,2.874376 41.4333163,0 37.9076923,0 L6.4,0 C2.874376,0 0,2.874376 0,6.4 L0,57.6 C0,61.125624 2.874376,64 6.4,64 L37.9076923,64 C39.2671625,64 40.3692308,62.8979317 40.3692308,61.5384615 C40.3692308,60.1789914 39.2671625,59.0769231 37.9076923,59.0769231 Z"/>
    <path fill="#000" d="M11.5692308,25.3538462 L24.5080615,25.3538462 C25.1877966,25.3538462 25.7388308,24.802812 25.7388308,24.1230769 C25.7388308,23.4433418 25.1877966,22.8923077 24.5080615,22.8923077 L10.3384615,22.8923077 C9.65872646,22.8923077 9.10769231,23.4433418 9.10769231,24.1230769 L9.10769231,35.9384615 C9.10769231,36.6181966 9.65872646,37.1692308 10.3384615,37.1692308 L24.2176,37.1692308 C24.8973351,37.1692308 25.4483692,36.6181966 25.4483692,35.9384615 C25.4483692,35.2587265 24.8973351,34.7076923 24.2176,34.7076923 L11.5692308,34.7076923 L11.5692308,25.3538462 Z"/>
    <path fill="#000" d="M47.6413272,57.7161451 L24.0597888,34.0361451 C21.8467109,31.8230635 21.8467109,28.2386508 24.0578184,26.0283521 C26.2692442,23.8169263 29.8536569,23.8169263 32.0639556,26.0280338 L55.7469507,49.6105942 C56.2286162,50.090217 57.0078944,50.0885611 57.4875173,49.6068955 C57.9671401,49.1252299 57.9654841,48.3459517 57.4838186,47.8663289 L33.802834,24.285775 C30.6332354,21.1150121 25.4900173,21.1150121 22.317407,24.2876224 C19.1447968,27.4590722 19.1447968,32.6022904 22.317407,35.7749007 L45.8971343,59.4530857 C46.3767772,59.9347313 47.1560555,59.9363548 47.6377011,59.4567119 C48.1193466,58.977069 48.1209701,58.1977907 47.6413272,57.7161451 Z"/>
    <path fill="#000" d="M30.1960699,34.1345314 L32.1653007,32.1653007 C32.6459459,31.6846554 32.6459459,30.9053754 32.1653007,30.4247301 C31.6846554,29.9440848 30.9053754,29.9440848 30.4247301,30.4247301 L28.4554993,32.3939609 C27.9748541,32.8746062 27.9748541,33.6538861 28.4554993,34.1345314 C28.9361446,34.6151767 29.7154246,34.6151767 30.1960699,34.1345314 Z"/>
    <path fill="#444" d="M21.2307692,8.46153846 L25.1692308,8.46153846 C25.8489658,8.46153846 26.4,7.91050431 26.4,7.23076923 C26.4,6.55103415 25.8489658,6 25.1692308,6 L21.2307692,6 C20.5510342,6 20,6.55103415 20,7.23076923 C20,7.91050431 20.5510342,8.46153846 21.2307692,8.46153846 Z"/>
  </g>
</svg>
