<svg xmlns="http://www.w3.org/2000/svg" width="64" height="64"><path d="m23.024 34.901-3.068 3.068 3.068 3.068a1.23 1.23 0 0 1-1.74 1.741l-3.939-3.938a1.23 1.23 0 0 1 0-1.741l3.939-3.939a1.23 1.23 0 1 1 1.74 1.741Zm17.952 6.136 3.068-3.068-3.068-3.068a1.23 1.23 0 1 1 1.74-1.74l3.939 3.938c.48.48.48 1.26 0 1.74l-3.939 3.939a1.23 1.23 0 1 1-1.74-1.74Zm-11.814 5.36a1.23 1.23 0 1 1-2.201-1.101l7.877-15.754a1.23 1.23 0 1 1 2.201 1.1l-7.877 15.755Zm-18.824-32.55a1.23 1.23 0 1 1 0-2.462h3.939a1.23 1.23 0 1 1 0 2.461h-3.939Zm9.847 0a1.23 1.23 0 1 1 0-2.462h3.938a1.23 1.23 0 1 1 0 2.461h-3.938Zm22.646 0a1.23 1.23 0 0 1 0-2.462h10.83a1.23 1.23 0 0 1 0 2.461h-10.83Z" class="one" fill="#0F1126"/><path d="M4.923 21.23V55.2h54.154V21.23H4.923Zm0-4.922h54.154V8.923H4.923v7.385ZM2.462 4h59.076A2.462 2.462 0 0 1 64 6.462v51.2a2.462 2.462 0 0 1-2.462 2.461H2.462A2.462 2.462 0 0 1 0 57.662v-51.2A2.462 2.462 0 0 1 2.462 4Z" class="two" fill="#0F1126"/></svg>