<svg xmlns="http://www.w3.org/2000/svg" width="64" height="64"><path d="M4.923 21.23V55.2h54.154V21.23H4.923Zm0-4.922h54.154V8.923H4.923v7.385ZM2.462 4h59.076A2.462 2.462 0 0 1 64 6.462v51.2a2.462 2.462 0 0 1-2.462 2.461H2.462A2.462 2.462 0 0 1 0 57.662v-51.2A2.462 2.462 0 0 1 2.462 4Z" class="two" fill="#0F1126"/><path d="M10.338 29.846h15.754c.68 0 1.231.551 1.231 1.23v15.755c0 .68-.551 1.23-1.23 1.23H10.337a1.23 1.23 0 0 1-1.23-1.23V31.077c0-.68.55-1.23 1.23-1.23ZM11.57 45.6h13.293V32.308H11.569V45.6Zm21.416-13.292a1.23 1.23 0 1 1 0-2.462h20.677a1.23 1.23 0 0 1 0 2.462H32.985Zm0 7.384a1.23 1.23 0 0 1 0-2.461h20.677a1.23 1.23 0 0 1 0 2.461H32.985Zm0 7.385a1.23 1.23 0 0 1 0-2.462H44.8a1.23 1.23 0 0 1 0 2.462H32.985Zm-22.647-33.23a1.23 1.23 0 1 1 0-2.462h3.939a1.23 1.23 0 1 1 0 2.461h-3.939Zm9.847 0a1.23 1.23 0 1 1 0-2.462h3.938a1.23 1.23 0 1 1 0 2.461h-3.938Zm22.646 0a1.23 1.23 0 0 1 0-2.462h10.83a1.23 1.23 0 0 1 0 2.461h-10.83Z" class="one" fill="#0F1126"/></svg>