<svg xmlns="http://www.w3.org/2000/svg" width="64" height="64" viewBox="0 0 64 64">
  <g transform="translate(0 4)" fill="#c043de">
    <path d="M6.68525777,28.8391582 C8.49856748,30.9561941 10.5556698,33.0744916 12.8088753,35.0458359 C19.1101835,40.5588916 25.6521539,43.826087 32,43.826087 C38.3012783,43.826087 44.8357071,40.5580745 51.1538105,35.043873 C53.4136329,33.0715855 55.4800578,30.9522684 57.3041925,28.8341686 C57.7159705,28.3560313 58.0955327,27.9007476 58.4413354,27.4733218 C58.0987766,27.0473495 57.7227493,26.5937111 57.3147422,26.1173635 C55.5014325,24.0003276 53.4443302,21.8820301 51.1911247,19.9106859 C44.8898165,14.3976302 38.3478461,11.1304348 32,11.1304348 C25.6055923,11.1304348 19.056062,14.3968246 12.7715649,19.9087149 C10.5249793,21.8791086 8.47720028,23.9963774 6.67471396,26.1123396 C6.26731669,26.5905886 5.89216003,27.0459199 5.55071211,27.4733084 C5.89540127,27.9021475 6.27409099,28.3591217 6.68525777,28.8391582 Z M1.10568816,25.1965852 C1.62366781,24.5234254 2.2266345,23.7767129 2.90990142,22.9746169 C4.8574151,20.6884052 7.06732841,18.4035001 9.50535818,16.2651982 C16.6054764,10.037958 24.179023,6.26086957 32,6.26086957 C39.7752308,6.26086957 47.3365572,10.0371524 54.4528314,16.2632272 C56.8957796,18.4005786 59.1136774,20.684455 61.0709721,22.969593 C61.7576283,23.771263 62.3639582,24.5175485 62.8851169,25.1902802 C63.2037168,25.6015411 63.4269263,25.9023813 63.549769,26.0745966 C64.1520037,26.9188797 64.1498936,28.0472017 63.5445054,28.8892753 C63.420956,29.0611282 63.1963849,29.3616048 62.8759256,29.7724997 C62.3515889,30.4448074 61.7418966,31.1906702 61.0518515,31.9919183 C59.0847774,34.2759925 56.8588945,36.5588492 54.4110247,38.6952574 C47.2785786,44.9201864 39.7294909,48.6956522 32,48.6956522 C24.2247692,48.6956522 16.6634428,44.9193693 9.54716863,38.6932945 C7.10422035,36.5559432 4.88632263,34.2720668 2.92902795,31.9869287 C2.2423717,31.1852588 1.63604185,30.4389732 1.1148831,29.7662416 C0.796283225,29.3549807 0.573073716,29.0541404 0.450231022,28.8819251 C-0.148141386,28.0430566 -0.1502468,26.9230685 0.44496758,26.0820047 C0.567102042,25.9094234 0.788948752,25.6082158 1.10568816,25.1965852 Z"/>
    <path d="M32,39.1304348 C25.4939643,39.1304348 20.2197802,33.9135788 20.2197802,27.4782609 C20.2197802,21.0429429 25.4939643,15.826087 32,15.826087 C38.5060357,15.826087 43.7802198,21.0429429 43.7802198,27.4782609 C43.7802198,33.9135788 38.5060357,39.1304348 32,39.1304348 Z M32,36.6956522 C37.1465656,36.6956522 41.3186813,32.5688855 41.3186813,27.4782609 C41.3186813,22.3876362 37.1465656,18.2608696 32,18.2608696 C26.8534344,18.2608696 22.6813187,22.3876362 22.6813187,27.4782609 C22.6813187,32.5688855 26.8534344,36.6956522 32,36.6956522 Z"/>
    <path d="M7.55160395,53.3825648 L58.1889666,3.29560826 C58.6696119,2.82018738 58.6696119,2.04937784 58.1889666,1.57395696 C57.7083213,1.09853609 56.9290413,1.09853609 56.448396,1.57395696 L5.81103341,51.6609135 C5.33038813,52.1363344 5.33038813,52.9071439 5.81103341,53.3825648 C6.29167869,53.8579857 7.07095867,53.8579857 7.55160395,53.3825648 Z"/>
  </g>
</svg>
