<svg xmlns="http://www.w3.org/2000/svg" width="64" height="64" viewBox="0 0 64 64">
  <g fill="#4a69f9" transform="translate(2)">
    <polygon points="46.5 12 46.5 44.983 48.786 44.983 48.786 12"/>
    <path d="M37.5510204 12.5714286L57.1428571 12.5714286C57.7740397 12.5714286 58.2857143 12.059754 58.2857143 11.4285714 58.2857143 10.7973889 57.7740397 10.2857143 57.1428571 10.2857143L37.5510204 10.2857143C36.9198378 10.2857143 36.4081633 10.7973889 36.4081633 11.4285714 36.4081633 12.059754 36.9198378 12.5714286 37.5510204 12.5714286zM37.5510204 46.8571429L57.1428571 46.8571429C57.7740397 46.8571429 58.2857143 46.3454683 58.2857143 45.7142857 58.2857143 45.0831031 57.7740397 44.5714286 57.1428571 44.5714286L37.5510204 44.5714286C36.9198378 44.5714286 36.4081633 45.0831031 36.4081633 45.7142857 36.4081633 46.3454683 36.9198378 46.8571429 37.5510204 46.8571429z"/>
    <path d="M54.8571429 4.57142857L39.8367347 4.57142857 39.8367347 46.5193961 47.3469388 55.531641 54.8571429 46.5193961 54.8571429 4.57142857zM58.8987915 48.8102174L49.1028731 60.5653194C48.1890557 61.6619003 46.5048218 61.6619003 45.5910044 60.5653194L35.7950861 48.8102174C35.4527718 48.3994403 35.2653061 47.8816508 35.2653061 47.3469388L35.2653061 2.28571429C35.2653061 1.02334914 36.2886553 0 37.5510204 0L57.1428571 0C58.4052223 0 59.4285714 1.02334914 59.4285714 2.28571429L59.4285714 47.3469388C59.4285714 47.8816508 59.2411058 48.3994403 58.8987915 48.8102174zM2.28571429 30.8571429L11.1020408 30.8571429C11.7332234 30.8571429 12.244898 30.3454683 12.244898 29.7142857 12.244898 29.0831031 11.7332234 28.5714286 11.1020408 28.5714286L2.28571429 28.5714286C1.65453171 28.5714286 1.14285714 29.0831031 1.14285714 29.7142857 1.14285714 30.3454683 1.65453171 30.8571429 2.28571429 30.8571429zM2.28571429 37.7142857L9.14285714 37.7142857C9.77403971 37.7142857 10.2857143 37.2026111 10.2857143 36.5714286 10.2857143 35.940246 9.77403971 35.4285714 9.14285714 35.4285714L2.28571429 35.4285714C1.65453171 35.4285714 1.14285714 35.940246 1.14285714 36.5714286 1.14285714 37.2026111 1.65453171 37.7142857 2.28571429 37.7142857zM2.28571429 53.7142857L9.14285714 53.7142857C9.77403971 53.7142857 10.2857143 53.2026111 10.2857143 52.5714286 10.2857143 51.940246 9.77403971 51.4285714 9.14285714 51.4285714L2.28571429 51.4285714C1.65453171 51.4285714 1.14285714 51.940246 1.14285714 52.5714286 1.14285714 53.2026111 1.65453171 53.7142857 2.28571429 53.7142857zM2.28571429 14.8571429L11.1020408 14.8571429C11.7332234 14.8571429 12.244898 14.3454683 12.244898 13.7142857 12.244898 13.0831031 11.7332234 12.5714286 11.1020408 12.5714286L2.28571429 12.5714286C1.65453171 12.5714286 1.14285714 13.0831031 1.14285714 13.7142857 1.14285714 14.3454683 1.65453171 14.8571429 2.28571429 14.8571429zM2.28571429 21.7142857L9.14285714 21.7142857C9.77403971 21.7142857 10.2857143 21.2026111 10.2857143 20.5714286 10.2857143 19.940246 9.77403971 19.4285714 9.14285714 19.4285714L2.28571429 19.4285714C1.65453171 19.4285714 1.14285714 19.940246 1.14285714 20.5714286 1.14285714 21.2026111 1.65453171 21.7142857 2.28571429 21.7142857zM2.28571429 44.5714286L11.1020408 44.5714286C11.7332234 44.5714286 12.244898 44.059754 12.244898 43.4285714 12.244898 42.7973889 11.7332234 42.2857143 11.1020408 42.2857143L2.28571429 42.2857143C1.65453171 42.2857143 1.14285714 42.7973889 1.14285714 43.4285714 1.14285714 44.059754 1.65453171 44.5714286 2.28571429 44.5714286zM17.9591837 13.2244898C16.2459738 13.2244898 14.8571429 11.8356588 14.8571429 10.122449 14.8571429 8.40923914 16.2459738 7.02040816 17.9591837 7.02040816 19.6723935 7.02040816 21.0612245 8.40923914 21.0612245 10.122449 21.0612245 11.8356588 19.6723935 13.2244898 17.9591837 13.2244898zM17.9591837 10.9387755C18.4100284 10.9387755 18.7755102 10.5732937 18.7755102 10.122449 18.7755102 9.67160429 18.4100284 9.30612245 17.9591837 9.30612245 17.508339 9.30612245 17.1428571 9.67160429 17.1428571 10.122449 17.1428571 10.5732937 17.508339 10.9387755 17.9591837 10.9387755z"/>
    <path d="M4.57142857,58.7755102 L23.5102041,58.7755102 L23.5102041,4.57142857 L4.57142857,4.57142857 L4.57142857,58.7755102 Z M2.28571429,0 L25.7959184,0 C27.0582835,0 28.0816327,1.02334914 28.0816327,2.28571429 L28.0816327,61.0612245 C28.0816327,62.3235896 27.0582835,63.3469388 25.7959184,63.3469388 L2.28571429,63.3469388 C1.02334914,63.3469388 0,62.3235896 0,61.0612245 L0,2.28571429 C0,1.02334914 1.02334914,0 2.28571429,0 Z"/>
  </g>
</svg>
