<svg xmlns="http://www.w3.org/2000/svg" width="64" height="64" viewBox="0 0 64 64">
  <g fill="#e8467f" transform="translate(0 2)">
    <path d="M46.2085844,0.684003542 C46.6528516,0.245953404 47.2543905,0 47.8814815,0 L59.2592593,0 C60.5683787,0 61.6296296,1.05040886 61.6296296,2.34615385 L61.6296296,13.6076923 C61.6296296,14.229931 61.3798949,14.8266844 60.9353642,15.2666736 L57.1427716,19.0205198 C56.698241,19.460509 56.095328,19.7076923 55.4666667,19.7076923 L50.2518519,19.7076923 L50.2518519,24.8692308 C50.2518519,26.1649758 49.1906009,27.2153846 47.8814815,27.2153846 L42.6666667,27.2153846 L42.6666667,32.3769231 C42.6666667,32.9925549 42.4221928,33.5835203 41.9859723,34.0223623 L37.1078165,38.929834 C38.2311242,44.8548178 36.4290569,50.9718468 32.0168457,55.3389813 C24.7385659,62.5429037 12.9977304,62.5429037 5.71945059,55.3389813 C-1.55882921,48.1350589 -1.55882921,36.5141719 5.70072493,29.3289932 C10.0209126,24.9557591 16.2754289,23.1571388 22.2881962,24.2696463 L46.2085844,0.684003542 Z M24.7128971,28.5021503 C24.1167694,29.0899358 23.2504963,29.3208599 22.4367566,29.1089056 C17.6358193,27.8584085 12.5158802,29.1419135 9.07166052,32.6282121 C3.64475514,37.9996743 3.64475514,46.6495565 9.07166052,52.0210187 C14.4985659,57.3924809 23.2377304,57.3924809 28.6646358,52.0210187 C32.196552,48.5251857 33.4801189,43.5309892 32.2202678,38.792465 C32.0074641,37.9920727 32.2364705,37.1399158 32.8229166,36.5499454 L37.9259259,31.4162689 L37.9259259,24.8692308 C37.9259259,23.5734858 38.9871769,22.5230769 40.2962963,22.5230769 L45.5111111,22.5230769 L45.5111111,17.3615385 C45.5111111,16.0657935 46.5723621,15.0153846 47.8814815,15.0153846 L54.4848271,15.0153846 L56.8888889,12.6358836 L56.8888889,4.69230769 L48.8606672,4.69230769 L24.7128971,28.5021503 Z"/>
    <path d="M14.6962963,49.5038462 C11.4234978,49.5038462 8.77037037,46.877824 8.77037037,43.6384615 C8.77037037,40.3990991 11.4234978,37.7730769 14.6962963,37.7730769 C17.9690948,37.7730769 20.6222222,40.3990991 20.6222222,43.6384615 C20.6222222,46.877824 17.9690948,49.5038462 14.6962963,49.5038462 Z M14.6962963,47.1576923 C16.6599754,47.1576923 18.2518519,45.582079 18.2518519,43.6384615 C18.2518519,41.6948441 16.6599754,40.1192308 14.6962963,40.1192308 C12.7326172,40.1192308 11.1407407,41.6948441 11.1407407,43.6384615 C11.1407407,45.582079 12.7326172,47.1576923 14.6962963,47.1576923 Z"/>
  </g>
</svg>
