<svg xmlns="http://www.w3.org/2000/svg" width="64" height="64" viewBox="0 0 64 64">
  <g fill="#7948f6" transform="translate(1)">
    <path d="M20.1384615 63.2769231C16.1959981 63.2769231 13 60.080925 13 56.1384615 13 52.1959981 16.1959981 49 20.1384615 49 24.080925 49 27.2769231 52.1959981 27.2769231 56.1384615 27.2769231 60.080925 24.080925 63.2769231 20.1384615 63.2769231zM20.1384615 60.8153846C22.7214548 60.8153846 24.8153846 58.7214548 24.8153846 56.1384615 24.8153846 53.5554682 22.7214548 51.4615385 20.1384615 51.4615385 17.5554682 51.4615385 15.4615385 53.5554682 15.4615385 56.1384615 15.4615385 58.7214548 17.5554682 60.8153846 20.1384615 60.8153846zM53.6153846 63.2769231C49.6729212 63.2769231 46.4769231 60.080925 46.4769231 56.1384615 46.4769231 52.1959981 49.6729212 49 53.6153846 49 57.5578481 49 60.7538462 52.1959981 60.7538462 56.1384615 60.7538462 60.080925 57.5578481 63.2769231 53.6153846 63.2769231zM53.6153846 60.8153846C56.1983779 60.8153846 58.2923077 58.7214548 58.2923077 56.1384615 58.2923077 53.5554682 56.1983779 51.4615385 53.6153846 51.4615385 51.0323913 51.4615385 48.9384615 53.5554682 48.9384615 56.1384615 48.9384615 58.7214548 51.0323913 60.8153846 53.6153846 60.8153846zM53.4756519 39.3846154L18.3659998 39.3846154 12.4583075 0 2.46153846 0C1.10206831 0 0 1.10206831 0 2.46153846 0 3.82100861 1.10206831 4.92307692 2.46153846 4.92307692L8.21861558 4.92307692 14.1263079 44.3076923 57.7858865 44.3076923 62.3807583 9.84615385 19.2984615 9.84615385C17.9389914 9.84615385 16.8369231 10.9482222 16.8369231 12.3076923 16.8369231 13.6671625 17.9389914 14.7692308 19.2984615 14.7692308L56.7577032 14.7692308 53.4756519 39.3846154z"/>
    <path d="M42.6762386,12.4189995 C43.1969376,12.9396986 44.0411576,12.9396986 44.5618567,12.4189995 C45.0825557,11.8983005 45.0825557,11.0540805 44.5618567,10.5333814 L35.4189995,1.39052429 C34.8983005,0.869825236 34.0540805,0.869825236 33.5333814,1.39052429 L24.3905243,10.5333814 C23.8698252,11.0540805 23.8698252,11.8983005 24.3905243,12.4189995 C24.9112233,12.9396986 25.7554433,12.9396986 26.2761424,12.4189995 L34.4761905,4.21895142 L42.6762386,12.4189995 Z"/>
    <path d="M53.6127465,12.4189995 C54.1334456,12.9396986 54.9776655,12.9396986 55.4983646,12.4189995 C56.0190637,11.8983005 56.0190637,11.0540805 55.4983646,10.5333814 L46.3555075,1.39052429 C45.8348084,0.869825236 44.9905884,0.869825236 44.4698894,1.39052429 L39.3905243,6.46988937 C38.8698252,6.99058843 38.8698252,7.8348084 39.3905243,8.35550745 C39.9112233,8.87620651 40.7554433,8.87620651 41.2761424,8.35550745 L45.4126984,4.21895142 L53.6127465,12.4189995 Z"/>
  </g>
</svg>
