<svg xmlns="http://www.w3.org/2000/svg" width="64" height="64" viewBox="0 0 64 64">
  <g fill="#1688e9">
    <path d="M4.92307692,59.0769231 L59.0769231,59.0769231 L59.0769231,4.92307692 L4.92307692,4.92307692 L4.92307692,59.0769231 Z M2.46153846,0 L61.5384615,0 C62.8979317,0 64,1.10206831 64,2.46153846 L64,61.5384615 C64,62.8979317 62.8979317,64 61.5384615,64 L2.46153846,64 C1.10206831,64 0,62.8979317 0,61.5384615 L0,2.46153846 C0,1.10206831 1.10206831,0 2.46153846,0 Z"/>
    <path d="M25.3538462 33.7054442L40.5259277 24.1230769 25.3538462 14.5407096 25.3538462 33.7054442zM24.7802991 11.2670906L43.4879914 23.0824752C44.2527208 23.5654622 44.2527208 24.6806916 43.4879914 25.1636786L24.7802991 36.9790633C23.960768 37.4966618 22.8923077 36.9077599 22.8923077 35.9384615L22.8923077 12.3076923C22.8923077 11.3383939 23.960768 10.749492 24.7802991 11.2670906zM46.7692308 48L53.6615385 48C54.3412735 48 54.8923077 47.4489658 54.8923077 46.7692308 54.8923077 46.0894957 54.3412735 45.5384615 53.6615385 45.5384615L46.7692308 45.5384615C46.0894957 45.5384615 45.5384615 46.0894957 45.5384615 46.7692308 45.5384615 47.4489658 46.0894957 48 46.7692308 48zM10.3384615 48L31.0153846 48C31.6951197 48 32.2461538 47.4489658 32.2461538 46.7692308 32.2461538 46.0894957 31.6951197 45.5384615 31.0153846 45.5384615L10.3384615 45.5384615C9.65872646 45.5384615 9.10769231 46.0894957 9.10769231 46.7692308 9.10769231 47.4489658 9.65872646 48 10.3384615 48zM38.9384615 52.9076923C35.5397862 52.9076923 32.7846154 50.1525215 32.7846154 46.7538462 32.7846154 43.3551708 35.5397862 40.6 38.9384615 40.6 42.3371369 40.6 45.0923077 43.3551708 45.0923077 46.7538462 45.0923077 50.1525215 42.3371369 52.9076923 38.9384615 52.9076923zM38.9384615 50.4461538C40.9776668 50.4461538 42.6307692 48.7930514 42.6307692 46.7538462 42.6307692 44.7146409 40.9776668 43.0615385 38.9384615 43.0615385 36.8992563 43.0615385 35.2461538 44.7146409 35.2461538 46.7538462 35.2461538 48.7930514 36.8992563 50.4461538 38.9384615 50.4461538z"/>
  </g>
</svg>
