<svg width="981" height="4" xmlns="http://www.w3.org/2000/svg" xmlns:xlink="http://www.w3.org/1999/xlink"><defs><path id="a" d="M0 0h16.262v4H0z"/><path id="c" d="M0 0h16.262v4H0z"/><path id="e" d="M0 0h16.262v4H0z"/><path id="g" d="M0 0h16.262v4H0z"/><path id="i" d="M0 0h16.262v4H0z"/><path id="k" d="M0 0h16.262v4H0z"/><path id="m" d="M0 0h16.262v4H0z"/><path id="o" d="M0 0h16.262v4H0z"/><path id="q" d="M0 0h16.262v4H0z"/><path id="s" d="M0 0h16.262v4H0z"/><path id="u" d="M0 0h16.262v4H0z"/><path id="w" d="M0 0h16.262v4H0z"/><path id="y" d="M0 0h16.262v4H0z"/><path id="A" d="M0 0h16.262v4H0z"/><path id="C" d="M0 0h16.262v4H0z"/><path id="E" d="M0 0h16.262v4H0z"/><path id="G" d="M0 0h16.262v4H0z"/><path id="I" d="M0 0h16.262v4H0z"/><path id="K" d="M0 0h16.262v4H0z"/><path id="M" d="M0 0h16.262v4H0z"/><path id="O" d="M0 0h16.262v4H0z"/><path id="Q" d="M0 0h16.262v4H0z"/><path id="S" d="M0 0h16.262v4H0z"/><path id="U" d="M0 0h16.262v4H0z"/><path id="W" d="M0 0h16.262v4H0z"/><path id="Y" d="M0 0h16.262v4H0z"/><path id="aa" d="M0 0h16.262v4H0z"/><path id="ac" d="M0 0h16.262v4H0z"/><path id="ae" d="M0 0h16.262v4H0z"/><path id="ag" d="M0 0h16.262v4H0z"/><path id="ai" d="M0 0h16.262v4H0z"/><path id="ak" d="M0 0h16.262v4H0z"/><path id="am" d="M0 0h16.262v4H0z"/><path id="ao" d="M0 0h16.262v4H0z"/><path id="aq" d="M0 0h16.262v4H0z"/><path id="as" d="M0 0h16.262v4H0z"/><path id="au" d="M0 0h16.262v4H0z"/><path id="aw" d="M0 0h16.262v4H0z"/><path id="ay" d="M0 0h16.262v4H0z"/><path id="aA" d="M0 0h16.262v4H0z"/><path id="aC" d="M0 0h16.262v4H0z"/><path id="aE" d="M0 0h16.262v4H0z"/><path id="aG" d="M0 0h16.262v4H0z"/><path id="aI" d="M0 0h16.262v4H0z"/><path id="aK" d="M0 0h16.262v4H0z"/><path id="aM" d="M0 0h16.262v4H0z"/><path id="aO" d="M0 0h16.262v4H0z"/><path id="aQ" d="M0 0h16.262v4H0z"/><path id="aS" d="M0 0h16.262v4H0z"/><path id="aU" d="M0 0h16.262v4H0z"/><path id="aW" d="M0 0h16.262v4H0z"/><path id="aY" d="M0 0h16.262v4H0z"/><path id="ba" d="M0 0h16.262v4H0z"/><path id="bc" d="M0 0h16.262v4H0z"/><path id="be" d="M0 0h16.262v4H0z"/><path id="bg" d="M0 0h16.262v4H0z"/><path id="bi" d="M0 0h16.262v4H0z"/><path id="bk" d="M0 0h16.262v4H0z"/><path id="bm" d="M0 0h16.262v4H0z"/><path id="bo" d="M0 0h16.262v4H0z"/><path id="bq" d="M0 0h16.262v4H0z"/></defs><g fill="none" fill-rule="evenodd"><mask id="b" fill="#fff"><use xlink:href="#a"/></mask><g mask="url(#b)"><path d="M2.53 0c1.24 0 2.248.896 2.248 2S3.77 4 2.529 4C1.29 4 .281 3.104.281 2s1.007-2 2.248-2z" fill="#0060DF" fill-rule="nonzero"/><path d="M2.53 0c1.24 0 2.248.896 2.248 2S3.77 4 2.529 4C1.29 4 .281 3.104.281 2s1.007-2 2.248-2z" stroke="#0060df" stroke-width=".562" fill="none"/></g><g transform="translate(16.262)"><mask id="d" fill="#fff"><use xlink:href="#c"/></mask><g mask="url(#d)"><path d="M2.87 0c1.24 0 2.248.896 2.248 2S4.11 4 2.869 4C1.63 4 .621 3.104.621 2S1.63 0 2.87 0z" fill="#0060DF" fill-rule="nonzero"/><path d="M2.87 0c1.24 0 2.248.896 2.248 2S4.11 4 2.869 4C1.63 4 .621 3.104.621 2S1.63 0 2.87 0z" stroke="#0060df" stroke-width=".562" fill="none"/></g></g><g transform="translate(32.525)"><mask id="f" fill="#fff"><use xlink:href="#e"/></mask><g mask="url(#f)"><path d="M3.93 0c1.24 0 2.248.896 2.248 2S5.17 4 3.929 4c-1.24 0-2.248-.896-2.248-2S2.69 0 3.93 0z" fill="#0060DF" fill-rule="nonzero"/><path d="M3.93 0c1.24 0 2.248.896 2.248 2S5.17 4 3.929 4c-1.24 0-2.248-.896-2.248-2S2.69 0 3.93 0z" stroke="#0060df" stroke-width=".562" fill="none"/></g></g><g transform="translate(48.787)"><mask id="h" fill="#fff"><use xlink:href="#g"/></mask><g mask="url(#h)"><path d="M5.26.049C6.605.049 7.7.923 7.7 2S6.605 3.951 5.26 3.951c-1.348 0-2.44-.874-2.44-1.951S3.911.049 5.26.049z" fill="#0060DF" fill-rule="nonzero"/><path d="M5.26.049C6.605.049 7.7.923 7.7 2S6.605 3.951 5.26 3.951c-1.348 0-2.44-.874-2.44-1.951S3.911.049 5.26.049z" stroke="#0060df" stroke-width=".58" fill="none"/></g></g><g transform="translate(65.05)"><mask id="j" fill="#fff"><use xlink:href="#i"/></mask><g mask="url(#j)"><path d="M6.456.099C7.911.099 9.093.95 9.093 2c0 1.05-1.182 1.901-2.637 1.901S3.82 3.05 3.82 2C3.82.95 5.001.099 6.456.099z" fill="#0060DF" fill-rule="nonzero"/><path d="M6.456.099C7.911.099 9.093.95 9.093 2c0 1.05-1.182 1.901-2.637 1.901S3.82 3.05 3.82 2C3.82.95 5.001.099 6.456.099z" stroke="#0060df" stroke-width=".6" fill="none"/></g></g><g transform="translate(81.311)"><mask id="l" fill="#fff"><use xlink:href="#k"/></mask><g mask="url(#l)"><path d="M7.461.149c1.564 0 2.833.83 2.833 1.851 0 1.022-1.27 1.851-2.833 1.851-1.564 0-2.833-.83-2.833-1.851C4.628.978 5.898.149 7.46.149z" fill="#0060DF" fill-rule="nonzero"/><path d="M7.461.149c1.564 0 2.833.83 2.833 1.851 0 1.022-1.27 1.851-2.833 1.851-1.564 0-2.833-.83-2.833-1.851C4.628.978 5.898.149 7.46.149z" stroke="#0060df" stroke-width=".621" fill="none"/></g></g><g transform="translate(97.574)"><mask id="n" fill="#fff"><use xlink:href="#m"/></mask><g mask="url(#n)"><path d="M8.305.199c1.672 0 3.03.807 3.03 1.801 0 .994-1.358 1.801-3.03 1.801-1.673 0-3.03-.807-3.03-1.801 0-.994 1.357-1.801 3.03-1.801z" fill="#0060DF" fill-rule="nonzero"/><path d="M8.305.199c1.672 0 3.03.807 3.03 1.801 0 .994-1.358 1.801-3.03 1.801-1.673 0-3.03-.807-3.03-1.801 0-.994 1.357-1.801 3.03-1.801z" stroke="#0060df" stroke-width=".644" fill="none"/></g></g><g transform="translate(113.836)"><mask id="p" fill="#fff"><use xlink:href="#o"/></mask><g mask="url(#p)"><path d="M9.022.249c1.781 0 3.227.784 3.227 1.751 0 .967-1.446 1.751-3.227 1.751-1.78 0-3.226-.784-3.226-1.751 0-.967 1.445-1.751 3.226-1.751z" fill="#0060DF" fill-rule="nonzero"/><path d="M9.022.249c1.781 0 3.227.784 3.227 1.751 0 .967-1.446 1.751-3.227 1.751-1.78 0-3.226-.784-3.226-1.751 0-.967 1.445-1.751 3.226-1.751z" stroke="#0060df" stroke-width=".668" fill="none"/></g></g><g transform="translate(130.098)"><mask id="r" fill="#fff"><use xlink:href="#q"/></mask><g mask="url(#r)"><path d="M9.64.299c1.89 0 3.424.762 3.424 1.701 0 .939-1.534 1.701-3.424 1.701S6.216 2.94 6.216 2c0-.939 1.535-1.701 3.424-1.701z" fill="#0060DF" fill-rule="nonzero"/><path d="M9.64.299c1.89 0 3.424.762 3.424 1.701 0 .939-1.534 1.701-3.424 1.701S6.216 2.94 6.216 2c0-.939 1.535-1.701 3.424-1.701z" stroke="#0060df" stroke-width=".693" fill="none"/></g></g><g transform="translate(146.36)"><mask id="t" fill="#fff"><use xlink:href="#s"/></mask><g mask="url(#t)"><path d="M10.177.349c1.998 0 3.62.74 3.62 1.651s-1.622 1.651-3.62 1.651-3.62-.74-3.62-1.651S8.179.349 10.177.349z" fill="#0060DF" fill-rule="nonzero"/><path d="M10.177.349c1.998 0 3.62.74 3.62 1.651s-1.622 1.651-3.62 1.651-3.62-.74-3.62-1.651S8.179.349 10.177.349z" stroke="#0060df" stroke-width=".719" fill="none"/></g></g><g transform="translate(162.623)"><mask id="v" fill="#fff"><use xlink:href="#u"/></mask><g mask="url(#v)"><path d="M10.648.399c2.106 0 3.817.717 3.817 1.601s-1.71 1.601-3.817 1.601S6.83 2.884 6.83 2 8.54.399 10.648.399z" fill="#0060DF" fill-rule="nonzero"/><path d="M10.648.399c2.106 0 3.817.717 3.817 1.601s-1.71 1.601-3.817 1.601S6.83 2.884 6.83 2 8.54.399 10.648.399z" stroke="#0060df" stroke-width=".746" fill="none"/></g></g><g transform="translate(178.885)"><mask id="x" fill="#fff"><use xlink:href="#w"/></mask><g mask="url(#x)"><path d="M11.062.344c1.988 0 3.602.742 3.602 1.656 0 .914-1.614 1.656-3.602 1.656C9.074 3.656 7.46 2.914 7.46 2c0-.914 1.614-1.656 3.602-1.656z" fill="#0060DF" fill-rule="nonzero"/><path d="M11.062.344c1.988 0 3.602.742 3.602 1.656 0 .914-1.614 1.656-3.602 1.656C9.074 3.656 7.46 2.914 7.46 2c0-.914 1.614-1.656 3.602-1.656z" stroke="#0060df" stroke-width=".717" fill="none"/></g></g><g transform="translate(195.148)"><mask id="z" fill="#fff"><use xlink:href="#y"/></mask><g mask="url(#z)"><path d="M11.429.287c1.863 0 3.376.767 3.376 1.713 0 .946-1.513 1.713-3.376 1.713-1.864 0-3.377-.767-3.377-1.713 0-.946 1.513-1.713 3.377-1.713z" fill="#0060DF" fill-rule="nonzero"/><path d="M11.429.287c1.863 0 3.376.767 3.376 1.713 0 .946-1.513 1.713-3.376 1.713-1.864 0-3.377-.767-3.377-1.713 0-.946 1.513-1.713 3.377-1.713z" stroke="#0060df" stroke-width=".687" fill="none"/></g></g><g transform="translate(211.41)"><mask id="B" fill="#fff"><use xlink:href="#A"/></mask><g mask="url(#B)"><path d="M11.754.23c1.739 0 3.15.793 3.15 1.77s-1.411 1.77-3.15 1.77c-1.739 0-3.15-.793-3.15-1.77S10.014.23 11.753.23z" fill="#0060DF" fill-rule="nonzero"/><path d="M11.754.23c1.739 0 3.15.793 3.15 1.77s-1.411 1.77-3.15 1.77c-1.739 0-3.15-.793-3.15-1.77S10.014.23 11.753.23z" stroke="#0060df" stroke-width=".659" fill="none"/></g></g><g transform="translate(227.672)"><mask id="D" fill="#fff"><use xlink:href="#C"/></mask><g mask="url(#D)"><path d="M12.043.172c1.614 0 2.925.82 2.925 1.828 0 1.009-1.31 1.828-2.925 1.828-1.614 0-2.925-.82-2.925-1.828 0-1.009 1.31-1.828 2.925-1.828z" fill="#0060DF" fill-rule="nonzero"/><path d="M12.043.172c1.614 0 2.925.82 2.925 1.828 0 1.009-1.31 1.828-2.925 1.828-1.614 0-2.925-.82-2.925-1.828 0-1.009 1.31-1.828 2.925-1.828z" stroke="#0060df" stroke-width=".632" fill="none"/></g></g><g transform="translate(243.934)"><mask id="F" fill="#fff"><use xlink:href="#E"/></mask><g mask="url(#F)"><path d="M12.3.115C13.79.115 15 .96 15 2s-1.21 1.885-2.7 1.885c-1.49 0-2.7-.845-2.7-1.885S10.81.115 12.3.115z" fill="#0060DF" fill-rule="nonzero"/><path d="M12.3.115C13.79.115 15 .96 15 2s-1.21 1.885-2.7 1.885c-1.49 0-2.7-.845-2.7-1.885S10.81.115 12.3.115z" stroke="#0060df" stroke-width=".607" fill="none"/></g></g><g transform="translate(260.197)"><mask id="H" fill="#fff"><use xlink:href="#G"/></mask><g mask="url(#H)"><path d="M12.528.057c1.365 0 2.474.87 2.474 1.943 0 1.072-1.109 1.943-2.474 1.943-1.365 0-2.474-.87-2.474-1.943 0-1.072 1.109-1.943 2.474-1.943z" fill="#0060DF" fill-rule="nonzero"/><path d="M12.528.057c1.365 0 2.474.87 2.474 1.943 0 1.072-1.109 1.943-2.474 1.943-1.365 0-2.474-.87-2.474-1.943 0-1.072 1.109-1.943 2.474-1.943z" stroke="#0060df" stroke-width=".583" fill="none"/></g></g><g transform="translate(276.459)"><mask id="J" fill="#fff"><use xlink:href="#I"/></mask><g mask="url(#J)"><path d="M12.73 0c1.241 0 2.248.896 2.248 2s-1.007 2-2.248 2c-1.24 0-2.248-.896-2.248-2s1.007-2 2.248-2z" fill="#0060DF" fill-rule="nonzero"/><path d="M12.73 0c1.241 0 2.248.896 2.248 2s-1.007 2-2.248 2c-1.24 0-2.248-.896-2.248-2s1.007-2 2.248-2z" stroke="#0060df" stroke-width=".562" fill="none"/></g></g><g transform="translate(292.721)"><mask id="L" fill="#fff"><use xlink:href="#K"/></mask><g mask="url(#L)"><path d="M12.909 0c1.24 0 2.248.896 2.248 2S14.15 4 12.91 4c-1.24 0-2.248-.896-2.248-2s1.007-2 2.248-2z" fill="#0060DF" fill-rule="nonzero"/><path d="M12.909 0c1.24 0 2.248.896 2.248 2S14.15 4 12.91 4c-1.24 0-2.248-.896-2.248-2s1.007-2 2.248-2z" stroke="#0060df" stroke-width=".562" fill="none"/></g></g><g transform="translate(308.984)"><mask id="N" fill="#fff"><use xlink:href="#M"/></mask><g mask="url(#N)"><path d="M13.066 0c1.241 0 2.249.896 2.249 2s-1.008 2-2.249 2c-1.24 0-2.248-.896-2.248-2s1.008-2 2.248-2z" fill="#0060DF" fill-rule="nonzero"/><path d="M13.066 0c1.241 0 2.249.896 2.249 2s-1.008 2-2.249 2c-1.24 0-2.248-.896-2.248-2s1.008-2 2.248-2z" stroke="#0060df" stroke-width=".562" fill="none"/></g></g><g transform="translate(325.246)"><mask id="P" fill="#fff"><use xlink:href="#O"/></mask><g mask="url(#P)"><path d="M13.204 0c1.241 0 2.249.896 2.249 2s-1.008 2-2.249 2c-1.24 0-2.248-.896-2.248-2s1.007-2 2.248-2z" fill="#0060DF" fill-rule="nonzero"/><path d="M13.204 0c1.241 0 2.249.896 2.249 2s-1.008 2-2.249 2c-1.24 0-2.248-.896-2.248-2s1.007-2 2.248-2z" stroke="#0060df" stroke-width=".562" fill="none"/></g></g><g transform="translate(341.508)"><mask id="R" fill="#fff"><use xlink:href="#Q"/></mask><g mask="url(#R)"><path d="M13.324 0c1.24 0 2.248.896 2.248 2s-1.007 2-2.248 2c-1.24 0-2.248-.896-2.248-2s1.007-2 2.248-2z" fill="#0060DF" fill-rule="nonzero"/><path d="M13.324 0c1.24 0 2.248.896 2.248 2s-1.007 2-2.248 2c-1.24 0-2.248-.896-2.248-2s1.007-2 2.248-2z" stroke="#0060df" stroke-width=".562" fill="none"/></g></g><g transform="translate(357.77)"><mask id="T" fill="#fff"><use xlink:href="#S"/></mask><g mask="url(#T)"><path d="M13.427 0c1.241 0 2.248.896 2.248 2s-1.007 2-2.248 2c-1.24 0-2.248-.896-2.248-2s1.007-2 2.248-2z" fill="#0060DF" fill-rule="nonzero"/><path d="M13.427 0c1.241 0 2.248.896 2.248 2s-1.007 2-2.248 2c-1.24 0-2.248-.896-2.248-2s1.007-2 2.248-2z" stroke="#0060df" stroke-width=".562" fill="none"/></g></g><g transform="translate(374.033)"><mask id="V" fill="#fff"><use xlink:href="#U"/></mask><g mask="url(#V)"><path d="M13.515 0c1.24 0 2.248.896 2.248 2s-1.007 2-2.248 2c-1.241 0-2.248-.896-2.248-2s1.007-2 2.248-2z" fill="#0060DF" fill-rule="nonzero"/><path d="M13.515 0c1.24 0 2.248.896 2.248 2s-1.007 2-2.248 2c-1.241 0-2.248-.896-2.248-2s1.007-2 2.248-2z" stroke="#0060df" stroke-width=".562" fill="none"/></g></g><g transform="translate(390.295)"><mask id="X" fill="#fff"><use xlink:href="#W"/></mask><g mask="url(#X)"><path d="M13.588 0c1.24 0 2.248.896 2.248 2s-1.007 2-2.248 2c-1.24 0-2.248-.896-2.248-2s1.007-2 2.248-2z" fill="#0060DF" fill-rule="nonzero"/><path d="M13.588 0c1.24 0 2.248.896 2.248 2s-1.007 2-2.248 2c-1.24 0-2.248-.896-2.248-2s1.007-2 2.248-2z" stroke="#0060df" stroke-width=".562" fill="none"/></g></g><g transform="translate(406.557)"><mask id="Z" fill="#fff"><use xlink:href="#Y"/></mask><g mask="url(#Z)"><path d="M13.648 0c1.24 0 2.248.896 2.248 2s-1.007 2-2.248 2c-1.241 0-2.249-.896-2.249-2s1.008-2 2.249-2z" fill="#0060DF" fill-rule="nonzero"/><path d="M13.648 0c1.24 0 2.248.896 2.248 2s-1.007 2-2.248 2c-1.241 0-2.249-.896-2.249-2s1.008-2 2.249-2z" stroke="#0060df" stroke-width=".562" fill="none"/></g></g><g transform="translate(422.82)"><mask id="ab" fill="#fff"><use xlink:href="#aa"/></mask><g mask="url(#ab)"><path d="M13.695 0c1.24 0 2.248.896 2.248 2s-1.007 2-2.248 2c-1.241 0-2.248-.896-2.248-2s1.007-2 2.248-2z" fill="#0060DF" fill-rule="nonzero"/><path d="M13.695 0c1.24 0 2.248.896 2.248 2s-1.007 2-2.248 2c-1.241 0-2.248-.896-2.248-2s1.007-2 2.248-2z" stroke="#0060df" stroke-width=".562" fill="none"/></g></g><g transform="translate(439.082)"><mask id="ad" fill="#fff"><use xlink:href="#ac"/></mask><g mask="url(#ad)"><path d="M13.73 0c1.24 0 2.248.896 2.248 2s-1.007 2-2.248 2c-1.24 0-2.248-.896-2.248-2s1.007-2 2.248-2z" fill="#0060DF" fill-rule="nonzero"/><path d="M13.73 0c1.24 0 2.248.896 2.248 2s-1.007 2-2.248 2c-1.24 0-2.248-.896-2.248-2s1.007-2 2.248-2z" stroke="#0060df" stroke-width=".562" fill="none"/></g></g><g transform="translate(455.344)"><mask id="af" fill="#fff"><use xlink:href="#ae"/></mask><g mask="url(#af)"><path d="M13.754 0c1.24 0 2.248.896 2.248 2s-1.007 2-2.248 2c-1.241 0-2.248-.896-2.248-2s1.007-2 2.248-2z" fill="#0060DF" fill-rule="nonzero"/><path d="M13.754 0c1.24 0 2.248.896 2.248 2s-1.007 2-2.248 2c-1.241 0-2.248-.896-2.248-2s1.007-2 2.248-2z" stroke="#0060df" stroke-width=".562" fill="none"/></g></g><g transform="translate(471.607)"><mask id="ah" fill="#fff"><use xlink:href="#ag"/></mask><g mask="url(#ah)"><path d="M13.767 0c1.24 0 2.248.896 2.248 2s-1.007 2-2.248 2c-1.24 0-2.248-.896-2.248-2s1.007-2 2.248-2z" fill="#0060DF" fill-rule="nonzero"/><path d="M13.767 0c1.24 0 2.248.896 2.248 2s-1.007 2-2.248 2c-1.24 0-2.248-.896-2.248-2s1.007-2 2.248-2z" stroke="#0060df" stroke-width=".562" fill="none"/></g></g><g transform="translate(487.869)"><mask id="aj" fill="#fff"><use xlink:href="#ai"/></mask><g mask="url(#aj)"><path d="M13.77 0c1.241 0 2.249.896 2.249 2S15.01 4 13.77 4c-1.24 0-2.248-.896-2.248-2s1.007-2 2.248-2z" fill="#0060DF" fill-rule="nonzero"/><path d="M13.77 0c1.241 0 2.249.896 2.249 2S15.01 4 13.77 4c-1.24 0-2.248-.896-2.248-2s1.007-2 2.248-2z" stroke="#0060df" stroke-width=".562" fill="none"/></g></g><g transform="translate(504.131)"><mask id="al" fill="#fff"><use xlink:href="#ak"/></mask><g mask="url(#al)"><path d="M13.656 0c1.24 0 2.248.896 2.248 2s-1.008 2-2.248 2c-1.241 0-2.249-.896-2.249-2s1.008-2 2.249-2z" fill="#0060DF" fill-rule="nonzero"/><path d="M13.656 0c1.24 0 2.248.896 2.248 2s-1.008 2-2.248 2c-1.241 0-2.249-.896-2.249-2s1.008-2 2.249-2z" stroke="#0060df" stroke-width=".562" fill="none"/></g></g><g transform="translate(520.393)"><mask id="an" fill="#fff"><use xlink:href="#am"/></mask><g mask="url(#an)"><path d="M13.23 0c1.24 0 2.248.896 2.248 2s-1.007 2-2.248 2c-1.24 0-2.248-.896-2.248-2s1.007-2 2.248-2z" fill="#0060DF" fill-rule="nonzero"/><path d="M13.23 0c1.24 0 2.248.896 2.248 2s-1.007 2-2.248 2c-1.24 0-2.248-.896-2.248-2s1.007-2 2.248-2z" stroke="#0060df" stroke-width=".562" fill="none"/></g></g><g transform="translate(536.656)"><mask id="ap" fill="#fff"><use xlink:href="#ao"/></mask><g mask="url(#ap)"><path d="M12.289.049c1.317 0 2.386.874 2.386 1.951s-1.07 1.951-2.386 1.951c-1.317 0-2.386-.874-2.386-1.951S10.973.049 12.29.049z" fill="#0060DF" fill-rule="nonzero"/><path d="M12.289.049c1.317 0 2.386.874 2.386 1.951s-1.07 1.951-2.386 1.951c-1.317 0-2.386-.874-2.386-1.951S10.973.049 12.29.049z" stroke="#0060df" stroke-width=".573" fill="none"/></g></g><g transform="translate(552.918)"><mask id="ar" fill="#fff"><use xlink:href="#aq"/></mask><g mask="url(#ar)"><path d="M10.86.1c1.394 0 2.527.85 2.527 1.9 0 1.05-1.133 1.9-2.527 1.9-1.395 0-2.527-.85-2.527-1.9C8.333.95 9.465.1 10.86.1z" fill="#0060DF" fill-rule="nonzero"/><path d="M10.86.1c1.394 0 2.527.85 2.527 1.9 0 1.05-1.133 1.9-2.527 1.9-1.395 0-2.527-.85-2.527-1.9C8.333.95 9.465.1 10.86.1z" stroke="#0060df" stroke-width=".585" fill="none"/></g></g><g transform="translate(569.18)"><mask id="at" fill="#fff"><use xlink:href="#as"/></mask><g mask="url(#at)"><path d="M9.456.15c1.472 0 2.668.829 2.668 1.85 0 1.021-1.196 1.85-2.668 1.85-1.472 0-2.668-.829-2.668-1.85C6.788.979 7.984.15 9.456.15z" fill="#0060DF" fill-rule="nonzero"/><path d="M9.456.15c1.472 0 2.668.829 2.668 1.85 0 1.021-1.196 1.85-2.668 1.85-1.472 0-2.668-.829-2.668-1.85C6.788.979 7.984.15 9.456.15z" stroke="#0060df" stroke-width=".598" fill="none"/></g></g><g transform="translate(585.443)"><mask id="av" fill="#fff"><use xlink:href="#au"/></mask><g mask="url(#av)"><path d="M8.323.2c1.55 0 2.808.806 2.808 1.8S9.873 3.8 8.323 3.8c-1.55 0-2.809-.806-2.809-1.8S6.773.2 8.323.2z" fill="#0060DF" fill-rule="nonzero"/><path d="M8.323.2c1.55 0 2.808.806 2.808 1.8S9.873 3.8 8.323 3.8c-1.55 0-2.809-.806-2.809-1.8S6.773.2 8.323.2z" stroke="#0060df" stroke-width=".612" fill="none"/></g></g><g transform="translate(601.705)"><mask id="ax" fill="#fff"><use xlink:href="#aw"/></mask><g mask="url(#ax)"><path d="M7.423.25c1.628 0 2.95.784 2.95 1.75S9.05 3.75 7.422 3.75c-1.628 0-2.95-.784-2.95-1.75S5.795.25 7.423.25z" fill="#0060DF" fill-rule="nonzero"/><path d="M7.423.25c1.628 0 2.95.784 2.95 1.75S9.05 3.75 7.422 3.75c-1.628 0-2.95-.784-2.95-1.75S5.795.25 7.423.25z" stroke="#0060df" stroke-width=".627" fill="none"/></g></g><g transform="translate(617.967)"><mask id="az" fill="#fff"><use xlink:href="#ay"/></mask><g mask="url(#az)"><path d="M6.693.3c1.705 0 3.09.762 3.09 1.7s-1.385 1.7-3.09 1.7c-1.706 0-3.09-.762-3.09-1.7S4.986.3 6.692.3z" fill="#0060DF" fill-rule="nonzero"/><path d="M6.693.3c1.705 0 3.09.762 3.09 1.7s-1.385 1.7-3.09 1.7c-1.706 0-3.09-.762-3.09-1.7S4.986.3 6.692.3z" stroke="#0060df" stroke-width=".642" fill="none"/></g></g><g transform="translate(634.23)"><mask id="aB" fill="#fff"><use xlink:href="#aA"/></mask><g mask="url(#aB)"><path d="M6.087.35C7.871.35 9.32 1.09 9.32 2c0 .91-1.448 1.65-3.232 1.65-1.783 0-3.231-.74-3.231-1.65 0-.91 1.448-1.65 3.231-1.65z" fill="#0060DF" fill-rule="nonzero"/><path d="M6.087.35C7.871.35 9.32 1.09 9.32 2c0 .91-1.448 1.65-3.232 1.65-1.783 0-3.231-.74-3.231-1.65 0-.91 1.448-1.65 3.231-1.65z" stroke="#0060df" stroke-width=".659" fill="none"/></g></g><g transform="translate(650.492)"><mask id="aD" fill="#fff"><use xlink:href="#aC"/></mask><g mask="url(#aD)"><path d="M5.576.4C7.438.4 8.95 1.117 8.95 2c0 .883-1.511 1.6-3.373 1.6-1.86 0-3.372-.717-3.372-1.6 0-.883 1.511-1.6 3.372-1.6z" fill="#0060DF" fill-rule="nonzero"/><path d="M5.576.4C7.438.4 8.95 1.117 8.95 2c0 .883-1.511 1.6-3.373 1.6-1.86 0-3.372-.717-3.372-1.6 0-.883 1.511-1.6 3.372-1.6z" stroke="#0060df" stroke-width=".676" fill="none"/></g></g><g transform="translate(666.754)"><mask id="aF" fill="#fff"><use xlink:href="#aE"/></mask><g mask="url(#aF)"><path d="M5.14.343C6.912.343 8.35 1.085 8.35 2S6.912 3.657 5.14 3.657c-1.773 0-3.212-.742-3.212-1.657S3.367.343 5.14.343z" fill="#0060DF" fill-rule="nonzero"/><path d="M5.14.343C6.912.343 8.35 1.085 8.35 2S6.912 3.657 5.14 3.657c-1.773 0-3.212-.742-3.212-1.657S3.367.343 5.14.343z" stroke="#0060df" stroke-width=".656" fill="none"/></g></g><g transform="translate(683.016)"><mask id="aH" fill="#fff"><use xlink:href="#aG"/></mask><g mask="url(#aH)"><path d="M4.762.286c1.684 0 3.052.768 3.052 1.714S6.446 3.714 4.762 3.714 1.712 2.946 1.712 2 3.077.286 4.761.286z" fill="#0060DF" fill-rule="nonzero"/><path d="M4.762.286c1.684 0 3.052.768 3.052 1.714S6.446 3.714 4.762 3.714 1.712 2.946 1.712 2 3.077.286 4.761.286z" stroke="#0060df" stroke-width=".638" fill="none"/></g></g><g transform="translate(699.279)"><mask id="aJ" fill="#fff"><use xlink:href="#aI"/></mask><g mask="url(#aJ)"><path d="M4.435.229c1.595 0 2.89.793 2.89 1.771 0 .978-1.295 1.771-2.89 1.771-1.596 0-2.89-.793-2.89-1.771 0-.978 1.294-1.771 2.89-1.771z" fill="#0060DF" fill-rule="nonzero"/><path d="M4.435.229c1.595 0 2.89.793 2.89 1.771 0 .978-1.295 1.771-2.89 1.771-1.596 0-2.89-.793-2.89-1.771 0-.978 1.294-1.771 2.89-1.771z" stroke="#0060df" stroke-width=".621" fill="none"/></g></g><g transform="translate(715.541)"><mask id="aL" fill="#fff"><use xlink:href="#aK"/></mask><g mask="url(#aL)"><path d="M4.149.171c1.506 0 2.73.82 2.73 1.829 0 1.01-1.224 1.829-2.73 1.829-1.507 0-2.73-.82-2.73-1.829C1.419.99 2.642.171 4.149.171z" fill="#0060DF" fill-rule="nonzero"/><path d="M4.149.171c1.506 0 2.73.82 2.73 1.829 0 1.01-1.224 1.829-2.73 1.829-1.507 0-2.73-.82-2.73-1.829C1.419.99 2.642.171 4.149.171z" stroke="#0060df" stroke-width=".604" fill="none"/></g></g><g transform="translate(731.803)"><mask id="aN" fill="#fff"><use xlink:href="#aM"/></mask><g mask="url(#aN)"><path d="M3.898.114C5.316.114 6.468.96 6.468 2c0 1.04-1.152 1.886-2.57 1.886S1.328 3.04 1.328 2C1.329.96 2.48.114 3.899.114z" fill="#0060DF" fill-rule="nonzero"/><path d="M3.898.114C5.316.114 6.468.96 6.468 2c0 1.04-1.152 1.886-2.57 1.886S1.328 3.04 1.328 2C1.329.96 2.48.114 3.899.114z" stroke="#0060df" stroke-width=".589" fill="none"/></g></g><g transform="translate(748.066)"><mask id="aP" fill="#fff"><use xlink:href="#aO"/></mask><g mask="url(#aP)"><path d="M3.679.057C5.008.057 6.087.927 6.087 2c0 1.072-1.079 1.943-2.408 1.943-1.33 0-2.41-.87-2.41-1.943C1.27.928 2.35.057 3.68.057z" fill="#0060DF" fill-rule="nonzero"/><path d="M3.679.057C5.008.057 6.087.927 6.087 2c0 1.072-1.079 1.943-2.408 1.943-1.33 0-2.41-.87-2.41-1.943C1.27.928 2.35.057 3.68.057z" stroke="#0060df" stroke-width=".575" fill="none"/></g></g><g transform="translate(764.328)"><mask id="aR" fill="#fff"><use xlink:href="#aQ"/></mask><g mask="url(#aR)"><path d="M3.486 0c1.24 0 2.248.896 2.248 2S4.727 4 3.486 4c-1.24 0-2.248-.896-2.248-2s1.007-2 2.248-2z" fill="#0060DF" fill-rule="nonzero"/><path d="M3.486 0c1.24 0 2.248.896 2.248 2S4.727 4 3.486 4c-1.24 0-2.248-.896-2.248-2s1.007-2 2.248-2z" stroke="#0060df" stroke-width=".562" fill="none"/></g></g><g transform="translate(780.59)"><mask id="aT" fill="#fff"><use xlink:href="#aS"/></mask><g mask="url(#aT)"><path d="M3.318 0c1.24 0 2.248.896 2.248 2S4.558 4 3.318 4c-1.241 0-2.249-.896-2.249-2s1.008-2 2.249-2z" fill="#0060DF" fill-rule="nonzero"/><path d="M3.318 0c1.24 0 2.248.896 2.248 2S4.558 4 3.318 4c-1.241 0-2.249-.896-2.249-2s1.008-2 2.249-2z" stroke="#0060df" stroke-width=".562" fill="none"/></g></g><g transform="translate(796.852)"><mask id="aV" fill="#fff"><use xlink:href="#aU"/></mask><g mask="url(#aV)"><path d="M3.17 0C4.412 0 5.42.896 5.42 2S4.41 4 3.17 4C1.93 4 .922 3.104.922 2S1.93 0 3.171 0z" fill="#0060DF" fill-rule="nonzero"/><path d="M3.17 0C4.412 0 5.42.896 5.42 2S4.41 4 3.17 4C1.93 4 .922 3.104.922 2S1.93 0 3.171 0z" stroke="#0060df" stroke-width=".562" fill="none"/></g></g><g transform="translate(813.115)"><mask id="aX" fill="#fff"><use xlink:href="#aW"/></mask><g mask="url(#aX)"><path d="M3.043 0c1.24 0 2.248.896 2.248 2S4.284 4 3.043 4C1.803 4 .795 3.104.795 2s1.007-2 2.248-2z" fill="#0060DF" fill-rule="nonzero"/><path d="M3.043 0c1.24 0 2.248.896 2.248 2S4.284 4 3.043 4C1.803 4 .795 3.104.795 2s1.007-2 2.248-2z" stroke="#0060df" stroke-width=".562" fill="none"/></g></g><g transform="translate(829.377)"><mask id="aZ" fill="#fff"><use xlink:href="#aY"/></mask><g mask="url(#aZ)"><path d="M2.933 0C4.173 0 5.18.896 5.18 2S4.174 4 2.933 4C1.692 4 .685 3.104.685 2s1.007-2 2.248-2z" fill="#0060DF" fill-rule="nonzero"/><path d="M2.933 0C4.173 0 5.18.896 5.18 2S4.174 4 2.933 4C1.692 4 .685 3.104.685 2s1.007-2 2.248-2z" stroke="#0060df" stroke-width=".562" fill="none"/></g></g><g transform="translate(845.64)"><mask id="bb" fill="#fff"><use xlink:href="#ba"/></mask><g mask="url(#bb)"><path d="M2.839 0c1.24 0 2.248.896 2.248 2S4.079 4 2.839 4C1.598 4 .59 3.104.59 2S1.598 0 2.84 0z" fill="#0060DF" fill-rule="nonzero"/><path d="M2.839 0c1.24 0 2.248.896 2.248 2S4.079 4 2.839 4C1.598 4 .59 3.104.59 2S1.598 0 2.84 0z" stroke="#0060df" stroke-width=".562" fill="none"/></g></g><g transform="translate(861.902)"><mask id="bd" fill="#fff"><use xlink:href="#bc"/></mask><g mask="url(#bd)"><path d="M2.759 0c1.24 0 2.248.896 2.248 2S4 4 2.76 4C1.519 4 .511 3.104.511 2s1.007-2 2.248-2z" fill="#0060DF" fill-rule="nonzero"/><path d="M2.759 0c1.24 0 2.248.896 2.248 2S4 4 2.76 4C1.519 4 .511 3.104.511 2s1.007-2 2.248-2z" stroke="#0060df" stroke-width=".562" fill="none"/></g></g><g transform="translate(878.164)"><mask id="bf" fill="#fff"><use xlink:href="#be"/></mask><g mask="url(#bf)"><path d="M2.693 0C3.933 0 4.94.896 4.94 2S3.934 4 2.693 4C1.453 4 .445 3.104.445 2s1.007-2 2.248-2z" fill="#0060DF" fill-rule="nonzero"/><path d="M2.693 0C3.933 0 4.94.896 4.94 2S3.934 4 2.693 4C1.453 4 .445 3.104.445 2s1.007-2 2.248-2z" stroke="#0060df" stroke-width=".562" fill="none"/></g></g><g transform="translate(894.426)"><mask id="bh" fill="#fff"><use xlink:href="#bg"/></mask><g mask="url(#bh)"><path d="M2.64 0c1.24 0 2.247.896 2.247 2S3.88 4 2.64 4C1.4 4 .391 3.104.391 2s1.007-2 2.248-2z" fill="#0060DF" fill-rule="nonzero"/><path d="M2.64 0c1.24 0 2.247.896 2.247 2S3.88 4 2.64 4C1.4 4 .391 3.104.391 2s1.007-2 2.248-2z" stroke="#0060df" stroke-width=".562" fill="none"/></g></g><g transform="translate(910.689)"><mask id="bj" fill="#fff"><use xlink:href="#bi"/></mask><g mask="url(#bj)"><path d="M2.597 0c1.24 0 2.248.896 2.248 2S3.838 4 2.597 4C1.357 4 .35 3.104.35 2s1.007-2 2.248-2z" fill="#0060DF" fill-rule="nonzero"/><path d="M2.597 0c1.24 0 2.248.896 2.248 2S3.838 4 2.597 4C1.357 4 .35 3.104.35 2s1.007-2 2.248-2z" stroke="#0060df" stroke-width=".562" fill="none"/></g></g><g transform="translate(926.95)"><mask id="bl" fill="#fff"><use xlink:href="#bk"/></mask><g mask="url(#bl)"><path d="M2.566 0c1.24 0 2.248.896 2.248 2S3.806 4 2.566 4C1.325 4 .317 3.104.317 2s1.008-2 2.249-2z" fill="#0060DF" fill-rule="nonzero"/><path d="M2.566 0c1.24 0 2.248.896 2.248 2S3.806 4 2.566 4C1.325 4 .317 3.104.317 2s1.008-2 2.249-2z" stroke="#0060df" stroke-width=".562" fill="none"/></g></g><g transform="translate(943.213)"><mask id="bn" fill="#fff"><use xlink:href="#bm"/></mask><g mask="url(#bn)"><path d="M2.544 0c1.241 0 2.249.896 2.249 2S3.785 4 2.544 4C1.304 4 .296 3.104.296 2s1.008-2 2.248-2z" fill="#0060DF" fill-rule="nonzero"/><path d="M2.544 0c1.241 0 2.249.896 2.249 2S3.785 4 2.544 4C1.304 4 .296 3.104.296 2s1.008-2 2.248-2z" stroke="#0060df" stroke-width=".562" fill="none"/></g></g><g><g transform="translate(959.475)"><mask id="bp" fill="#fff"><use xlink:href="#bo"/></mask><g mask="url(#bp)"><path d="M2.532 0c1.241 0 2.249.896 2.249 2S3.773 4 2.532 4C1.292 4 .284 3.104.284 2s1.008-2 2.248-2z" fill="#0060DF" fill-rule="nonzero"/><path d="M2.532 0c1.241 0 2.249.896 2.249 2S3.773 4 2.532 4C1.292 4 .284 3.104.284 2s1.008-2 2.248-2z" stroke="#0060df" stroke-width=".562" fill="none"/></g></g></g><g><g transform="translate(975.738)"><mask id="br" fill="#fff"><use xlink:href="#bq"/></mask><g mask="url(#br)"><path d="M2.53 0c1.24 0 2.248.896 2.248 2S3.77 4 2.529 4C1.29 4 .281 3.104.281 2s1.007-2 2.248-2z" fill="#0060DF" fill-rule="nonzero"/><path d="M2.53 0c1.24 0 2.248.896 2.248 2S3.77 4 2.529 4C1.29 4 .281 3.104.281 2s1.007-2 2.248-2z" stroke="#0060df" stroke-width=".562" fill="none"/></g></g></g></g></svg>