<?xml version="1.0"?>
<!-- This Source Code Form is subject to the terms of the Mozilla Public
   - License, v. 2.0. If a copy of the MPL was not distributed with this
   - file, You can obtain one at http://mozilla.org/MPL/2.0/. -->
<svg xmlns="http://www.w3.org/2000/svg" xmlns:xlink="http://www.w3.org/1999/xlink" width="16" height="16" viewBox="0 0 16 16">
  <style>
    path {
      fill-rule: evenodd;
      fill:#4d4d4d;
    }
  </style>
  <path d="M174.446,28.071a5.639,5.639,0,0,0,.479-3.983c0,0.014.007,0.028,0.011,0.042l-0.009-.026s-0.1.288-.23,0.733c-0.009-.059-0.018-0.119-0.029-0.178a6.442,6.442,0,0,0-.087-1.675,3.38,3.38,0,0,0-1.2-1.878c0.018,0.013.036,0.029,0.055,0.046-0.041-.032-0.065-0.048-0.065-0.048l0.041,0.221a2.691,2.691,0,0,0-.978-0.9s0.018,0.1.048,0.315a6.84,6.84,0,0,0-9.157.057,3.3,3.3,0,0,1,.209.282,4.205,4.205,0,0,1,1.026-.029,5.87,5.87,0,0,1,7.526.654c0.058,0.058.114,0.117,0.169,0.177a2.281,2.281,0,0,0-1.034-.482,4.092,4.092,0,0,1,1.424,3.584,2.384,2.384,0,0,0-.547-0.767,6.375,6.375,0,0,1-.106,2.966,1.727,1.727,0,0,0-.168-0.54,4.465,4.465,0,0,1-.431,1.518,1.171,1.171,0,0,1-.766.861c-0.125-.021-0.04-0.141-0.063-0.258a1.666,1.666,0,0,0-.423.321,0.763,0.763,0,0,1-.473.372,1.009,1.009,0,0,0,.176-0.246,1.526,1.526,0,0,1-.724.27,3.176,3.176,0,0,1-1.991-.348,0.873,0.873,0,0,1,.547.031,2.279,2.279,0,0,0-.884-0.242A2.876,2.876,0,0,1,166,28.294a2.81,2.81,0,0,0,2.127-.28,1.771,1.771,0,0,1,1.047-.525,0.252,0.252,0,0,0,.233-0.438,1.356,1.356,0,0,0-1.367-.379,1.971,1.971,0,0,1-1.948.117,1.108,1.108,0,0,1-.756-1.051,0.581,0.581,0,0,1,.28-0.479,1.354,1.354,0,0,1,.16.067s-0.046-.07-0.075-0.1l0.021-.006a3.648,3.648,0,0,1,.354.14,0.442,0.442,0,0,1,.166.126s0.029-.018,0-0.082a0.451,0.451,0,0,0-.181-0.178h0.007a1.761,1.761,0,0,1,.209.1,0.944,0.944,0,0,0,.039-0.423,0.523,0.523,0,0,0-.055-0.227c-0.03-.043.008-0.063,0.055-0.023a0.585,0.585,0,0,0-.046-0.1v0a0.111,0.111,0,0,1,.018-0.037,7.132,7.132,0,0,1,1.126-.732,0.977,0.977,0,0,0,.248-0.275,0.766,0.766,0,0,0,.175-0.474,0.3,0.3,0,0,0-.231-0.172,1,1,0,0,0-.333-0.02l0.019,0.009c-0.168-.011-0.4-0.015-0.7-0.013a0.734,0.734,0,0,1-.614-0.339l-0.063-.1a1.259,1.259,0,0,1-.06-0.122,2.365,2.365,0,0,1,.806-1.223c0.025-.021-0.1.014-0.074-0.008a2.391,2.391,0,0,1,.234-0.127,0.466,0.466,0,0,0-.387-0.045,0.978,0.978,0,0,0-.338.117c0.041-.043.175-0.111,0.143-0.1a2.11,2.11,0,0,0-.685.342,0.276,0.276,0,0,1,0-.067,1.153,1.153,0,0,0-.411.387,0.593,0.593,0,0,0,0-.082,1.506,1.506,0,0,0-.2.224l0,0a2.954,2.954,0,0,0-1.641.025,2.589,2.589,0,0,1-.558-0.625c-0.017-.026-0.019.058-0.034,0.031a1.991,1.991,0,0,1-.2-0.7c0-.023,0-0.046,0-0.067a0.593,0.593,0,0,0-.175.2,1.24,1.24,0,0,0-.117.267c-0.021.064-.036,0.1-0.05,0.138-0.005.011,0.009-.117,0-0.107a0.889,0.889,0,0,0-.106.2,1.021,1.021,0,0,0-.05.177,0.008,0.008,0,0,0,0,0,0.28,0.28,0,0,0-.008-0.076,3.274,3.274,0,0,0-.14.476,2.781,2.781,0,0,0-.075.451,4.235,4.235,0,0,0,0,.669c0,0.039,0,.076,0,0.111a3.094,3.094,0,0,0-.322.544,7.273,7.273,0,0,0-.6,2.023,4.675,4.675,0,0,1,.344-0.778c0,0.005,0,.011,0,0.016a6.993,6.993,0,0,0-.22,2.551,7.377,7.377,0,0,1,.132-0.77,6.417,6.417,0,0,0,.914,2.9,5.935,5.935,0,0,0,1.633,1.848q0.171,0.137.349,0.263a7.53,7.53,0,0,0,2.953,1.384,1.539,1.539,0,0,1-.571-0.305,7.511,7.511,0,0,0,2.074.352,0.4,0.4,0,0,1-.329-0.18s2.492,0.141,3.787-.881a1.378,1.378,0,0,0,.537-0.7,5.166,5.166,0,0,0,1.217-.9,2.6,2.6,0,0,0,.856-1.714c0,0.016-.006.031-0.009,0.046A0.739,0.739,0,0,0,174.446,28.071Z" transform="translate(-160 -18)"/>
</svg>
