
<svg width="591px" height="298px" viewBox="0 0 591 298" version="1.1" xmlns="http://www.w3.org/2000/svg" xmlns:xlink="http://www.w3.org/1999/xlink">
    <!-- Generator: Sketch 44.1 (41455) - http://www.bohemiancoding.com/sketch -->
    <desc>Created with Sketch.</desc>
    <defs>
        <polygon id="path-1" points="123.3855 18.75 0.6555 18.75 0.6555 0.4258125 123.3855 0.4258125"></polygon>
        <polygon id="path-3" points="0.8728125 1.095 151.602187 1.095 151.602188 33.1070625 0.8728125 33.1070625 0.8728125 1.095"></polygon>
        <polygon id="path-5" points="203.119875 18.75 0.6555 18.75 0.6555 0.4258125 203.119875 0.4258125"></polygon>
        <path d="M5.05712311,17.4178966 C2.09905602,9.96268794 0.526859974,0.188186945 3.3675,0.189375 C3.624375,0.189375 3.91875,0.27 4.24875,0.43875 C9.08479472,2.90630824 12.9892261,4.68737499 15.8945378,6.46997741 L15.8945378,17.4178966 L5.05712311,17.4178966 L5.05712311,17.4178966 Z" id="path-7"></path>
        <path d="M1.2754503,15.3702075 C0.0458252071,9.13263293 0.241682374,1.10317468 2.36625,1.104375 C2.6175,1.104375 2.895,1.216875 3.200625,1.456875 C6.52495273,4.06664278 9.26061822,6.03464918 11.2627957,7.84258086 L11.2627957,15.3702075 L1.2754503,15.3702075 L1.2754503,15.3702075 Z" id="path-9"></path>
        <path d="M0.179354063,13.1873567 C0.332611187,8.22319677 2.11255858,1.64625 3.78,1.64625 C4.025625,1.64625 4.27125,1.790625 4.5075,2.105625 C6.52096102,4.78505809 8.21241268,6.84724708 9.36906901,8.63738503 L9.36906901,13.1873567 L0.179354063,13.1873567 L0.179354063,13.1873567 Z" id="path-11"></path>
    </defs>
    <g id="Screens" stroke="none" stroke-width="1" fill="none" fill-rule="evenodd">
        <g id="Themes---1366px" transform="translate(-57.000000, -210.000000)">
            <g id="Page-1" transform="translate(57.000000, 209.000000)">
                <g id="Group-242" transform="translate(0.000000, 0.780000)">
                    <path d="M588.74625,135.8145 L474.95625,135.8145 C473.919375,135.8145 473.08125,134.976375 473.08125,133.9395 C473.08125,132.902625 473.919375,132.0645 474.95625,132.0645 L588.74625,132.0645 C589.783125,132.0645 590.62125,132.902625 590.62125,133.9395 C590.62125,134.976375 589.783125,135.8145 588.74625,135.8145" id="Fill-1" fill="#E1E1E6"></path>
                    <path d="M569.549625,126.646312 L519.17025,126.646312 C518.650875,126.646312 518.23275,126.226312 518.23275,125.708812 C518.23275,125.191312 518.650875,124.771312 519.17025,124.771312 L569.549625,124.771312 C570.067125,124.771312 570.487125,125.191312 570.487125,125.708812 C570.487125,126.226312 570.067125,126.646312 569.549625,126.646312" id="Fill-3" fill="#E1E1E6"></path>
                    <path d="M584.355375,143.109375 L413.107875,143.109375 C412.590375,143.109375 412.170375,142.689375 412.170375,142.171875 C412.170375,141.654375 412.590375,141.234375 413.107875,141.234375 L584.355375,141.234375 C584.872875,141.234375 585.292875,141.654375 585.292875,142.171875 C585.292875,142.689375 584.872875,143.109375 584.355375,143.109375" id="Fill-5" fill="#E1E1E6"></path>
                    <path d="M467.021437,207.196313 C467.021437,207.196313 460.337063,215.830688 468.118313,225.996938 C477.296437,237.989438 492.746438,234.691313 501.292687,227.740688 C518.692687,213.588188 529.509562,225.185063 529.509562,225.185063 C529.509562,225.185063 530.111437,209.538188 510.937688,201.603188 C491.762062,193.664438 467.021437,207.196313 467.021437,207.196313" id="Fill-7" fill="#FF66ED"></path>
                    <g id="Group-11" transform="translate(408.750000, 279.375000)">
                        <mask id="mask-2" fill="white">
                            <use xlink:href="#path-1"></use>
                        </mask>
                        <g id="Clip-10"></g>
                        <path d="M0.6555,9.5870625 C0.6555,4.5283125 28.129875,0.4258125 62.022375,0.4258125 C95.913,0.4258125 123.3855,4.5283125 123.3855,9.5870625 C123.3855,14.6476875 95.913,18.7501875 62.022375,18.7501875 C28.129875,18.7501875 0.6555,14.6476875 0.6555,9.5870625" id="Fill-9" fill="#EDEDF2" mask="url(#mask-2)"></path>
                    </g>
                    <path d="M499.266375,242.1255 C499.266375,242.1255 491.1645,234.8055 497.031375,223.42425 C503.952,210.003 519.741375,210.52425 529.38075,215.862375 C548.998875,226.72425 557.60325,213.40425 557.60325,213.40425 C557.60325,213.40425 560.953875,228.698625 543.48075,239.8905 C526.00575,251.082375 499.266375,242.1255 499.266375,242.1255" id="Fill-12" fill="#FF66ED"></path>
                    <path d="M477.799125,257.603437 C477.799125,257.603437 463.59225,252.330937 465.304125,234.647812 C467.3235,213.792187 487.942875,206.344687 503.107875,208.268437 C533.9835,212.179688 538.22475,190.587187 538.22475,190.587187 C538.22475,190.587187 550.406625,208.577812 533.636625,231.987188 C516.870375,255.396562 477.799125,257.603437 477.799125,257.603437" id="Fill-14" fill="#FF99F9"></path>
                    <path d="M409.786313,89.659125 L295.994438,89.659125 C294.957563,89.659125 294.119438,88.821 294.119438,87.784125 C294.119438,86.74725 294.957563,85.909125 295.994438,85.909125 L409.786313,85.909125 C410.823188,85.909125 411.661313,86.74725 411.661313,87.784125 C411.661313,88.821 410.823188,89.659125 409.786313,89.659125" id="Fill-16" fill="#E1E1E6"></path>
                    <path d="M394.412812,81.113625 L365.867813,81.113625 C365.350312,81.113625 364.930313,80.693625 364.930313,80.176125 C364.930313,79.658625 365.350312,79.238625 365.867813,79.238625 L394.412812,79.238625 C394.930313,79.238625 395.350312,79.658625 395.350312,80.176125 C395.350312,80.693625 394.930313,81.113625 394.412812,81.113625" id="Fill-18" fill="#E1E1E6"></path>
                    <path d="M368.536312,96.952125 L197.286937,96.952125 C196.769437,96.952125 196.349437,96.532125 196.349437,96.014625 C196.349437,95.497125 196.769437,95.077125 197.286937,95.077125 L368.536312,95.077125 C369.053812,95.077125 369.473812,95.497125 369.473812,96.014625 C369.473812,96.532125 369.053812,96.952125 368.536312,96.952125" id="Fill-20" fill="#E1E1E6"></path>
                    <path d="M501.101063,42.30075 L501.101063,42.30075 C500.572313,42.30075 500.036063,42.3345 499.507313,42.39825 C496.647938,42.748875 493.985438,44.04825 491.941688,46.077 C488.021063,46.802625 484.186688,47.9745 480.517313,49.566375 C479.484188,49.30575 478.419188,49.176375 477.344813,49.176375 C470.892938,49.176375 465.374813,54.027 464.474813,60.347625 C464.214188,60.602625 463.957313,60.85575 463.704188,61.1145 C457.904812,62.51325 453.755438,67.73325 453.755438,73.753875 C453.755438,74.173875 453.781688,74.601375 453.832313,75.066375 C453.082313,76.602 452.409188,78.15825 451.827938,79.708875 C449.544188,80.987625 448.109813,83.397 448.109813,86.0595 C448.109813,87.381375 448.469813,88.656375 449.159813,89.79075 C448.979813,90.87075 448.842938,91.887 448.737938,92.88075 C448.164188,96.15825 447.871688,99.456375 447.871688,102.687 C447.871688,133.82325 473.204813,159.156375 504.342938,159.156375 C506.677313,159.156375 509.054813,159.006375 511.430438,158.70825 C512.786063,160.063875 514.636688,160.847625 516.567938,160.847625 C519.521063,160.847625 522.080438,159.1095 523.216688,156.516375 C524.266688,156.732 525.337313,156.84075 526.411688,156.84075 C533.459812,156.84075 539.547938,152.305125 541.610438,145.67325 C546.183563,144.411375 549.560438,140.5095 550.126688,135.737625 C551.277938,134.14575 552.356063,132.477 553.340438,130.7595 C559.143563,128.822625 562.884188,122.98575 562.130438,116.847 C562.038563,116.102625 561.879188,115.362 561.652313,114.628875 C563.997938,111.86325 565.076063,108.29325 564.629813,104.6595 C564.249188,101.5545 562.784813,98.73825 560.484188,96.642 C560.096063,93.00075 559.338563,89.367 558.230438,85.82325 C558.423563,84.917625 558.521063,84.013875 558.521063,83.128875 C558.521063,78.26325 555.762938,73.782 551.448562,71.563875 C547.179188,65.117625 541.544813,59.522625 535.092938,55.318875 C533.562938,49.727625 528.410438,45.747 522.545438,45.747 C520.419188,45.747 518.326688,46.273875 516.446063,47.277 C514.312313,46.660125 512.148563,46.17825 509.992313,45.837 C507.586688,43.58325 504.382313,42.30075 501.101063,42.30075 M501.101063,44.17575 C504.200438,44.17575 507.061688,45.47325 509.109188,47.5995 C511.709813,47.97825 514.237313,48.557625 516.684188,49.302 C518.388563,48.2445 520.391063,47.622 522.545438,47.622 C527.919188,47.622 532.400438,51.42825 533.446688,56.49075 C540.146063,60.722625 545.851688,66.377625 550.162313,73.0245 C553.985437,74.785125 556.646063,78.643875 556.646063,83.128875 C556.646063,84.087 556.512938,85.011375 556.286063,85.89825 C557.491688,89.63325 558.318563,93.538875 558.693563,97.57575 C560.872313,99.328875 562.400438,101.893875 562.769813,104.88825 C563.208563,108.46575 561.890438,111.84825 559.501688,114.190125 C559.874813,115.093875 560.142938,116.057625 560.270438,117.07575 C560.956688,122.661375 557.371688,127.77825 552.078563,129.18075 C550.946063,131.218875 549.687938,133.17825 548.311688,135.04575 C547.979813,139.63575 544.561688,143.3445 540.099187,144.088875 C538.653563,150.317625 533.082938,154.96575 526.411688,154.96575 C524.921063,154.96575 523.486688,154.7295 522.140438,154.300125 C522.059813,154.32825 521.979188,154.3545 521.898563,154.38075 C521.499188,156.977625 519.275438,158.972625 516.567938,158.972625 C514.760438,158.972625 513.170438,158.076375 512.186063,156.71325 C509.624813,157.082625 507.007313,157.281375 504.342938,157.281375 C474.191063,157.281375 449.746688,132.838875 449.746688,102.687 C449.746688,99.42825 450.048563,96.24075 450.596063,93.137625 C450.729188,91.862625 450.914813,90.6045 451.136063,89.361375 C450.425438,88.4445 449.984813,87.30825 449.984813,86.0595 C449.984813,83.803875 451.366688,81.872625 453.327938,81.06075 C454.027313,79.107 454.846688,77.217 455.763563,75.387 C455.684813,74.852625 455.630438,74.31075 455.630438,73.753875 C455.630438,68.3295 459.515438,63.816375 464.654813,62.82825 C465.177938,62.282625 465.712313,61.752 466.259813,61.23075 C466.745438,55.53075 471.519188,51.051375 477.344813,51.051375 C478.497938,51.051375 479.613563,51.227625 480.661688,51.553875 C484.518563,49.8195 488.613563,48.552 492.871688,47.81325 C494.602313,45.91575 496.987313,44.597625 499.736063,44.25825 C500.195438,44.203875 500.651063,44.17575 501.101063,44.17575" id="Fill-22" fill="#F218CD"></path>
                    <path d="M525.606,104.618813 C525.551625,104.618813 525.495375,104.615063 525.441,104.603813 C520.110375,103.662562 512.94225,96.5431875 512.640375,96.2413125 C512.27475,95.8756875 512.27475,95.2831875 512.640375,94.9156875 C513.006,94.5500625 513.600375,94.5500625 513.966,94.9156875 C514.035375,94.9850625 521.017875,101.920687 525.76725,102.758812 C526.275375,102.848812 526.616625,103.334438 526.526625,103.844438 C526.446,104.298187 526.050375,104.618813 525.606,104.618813" id="Fill-24" fill="#FF1AD9"></path>
                    <path d="M450.161063,182.422125 C450.161063,182.422125 407.426063,198.134625 404.977313,202.188375 C402.515438,206.272125 406.391063,206.425875 406.391063,206.425875 C407.802938,207.130875 452.984813,199.364625 452.984813,199.364625 L450.161063,182.422125 Z" id="Fill-26" fill="#E1E1E6"></path>
                    <path d="M476.724187,259.775062 C476.531062,259.775062 476.411062,259.773188 476.364187,259.773188 C475.329187,259.754437 474.504187,258.899438 474.522937,257.864438 C474.541687,256.831313 475.419187,255.950063 476.431687,256.023188 C476.602312,256.021313 492.747937,256.210688 509.534813,248.688188 C526.158563,241.233188 534.421687,227.950688 534.504187,227.819438 C535.044187,226.934438 536.202937,226.660688 537.080438,227.195063 C537.963562,227.735063 538.246688,228.886313 537.706688,229.769438 C537.352312,230.354438 528.798563,244.160063 511.068562,252.108188 C494.692313,259.448813 479.315437,259.775062 476.724187,259.775062" id="Fill-28" fill="#FF66ED"></path>
                    <path d="M115.665938,149.712187 L1.8759375,149.712187 C0.8390625,149.712187 0.0009375,148.874062 0.0009375,147.837187 C0.0009375,146.800313 0.8390625,145.962187 1.8759375,145.962187 L115.665938,145.962187 C116.702813,145.962187 117.540938,146.800313 117.540938,147.837187 C117.540938,148.874062 116.702813,149.712187 115.665938,149.712187" id="Fill-30" fill="#E1E1E6"></path>
                    <path d="M45.7929375,141.168563 L17.2460625,141.168563 C16.7285625,141.168563 16.3085625,140.748562 16.3085625,140.231063 C16.3085625,139.713563 16.7285625,139.293563 17.2460625,139.293563 L45.7929375,139.293563 C46.3104375,139.293563 46.7304375,139.713563 46.7304375,140.231063 C46.7304375,140.748562 46.3104375,141.168563 45.7929375,141.168563" id="Fill-32" fill="#E1E1E6"></path>
                    <path d="M214.3725,157.007062 L43.125,157.007062 C42.6075,157.007062 42.1875,156.587062 42.1875,156.069562 C42.1875,155.552063 42.6075,155.132062 43.125,155.132062 L214.3725,155.132062 C214.89,155.132062 215.31,155.552063 215.31,156.069562 C215.31,156.587062 214.89,157.007062 214.3725,157.007062" id="Fill-34" fill="#E1E1E6"></path>
                    <path d="M116.916562,109.769625 L116.916562,110.0865 L116.916562,261.333375 C116.916562,264.329625 119.511562,266.759625 122.710313,266.759625 L310.860937,266.759625 C314.059687,266.759625 316.650937,264.329625 316.650937,261.333375 L316.650937,110.0865 L316.650937,109.769625 L116.916562,109.769625 Z" id="Fill-36" fill="#F6F6F8"></path>
                    <path d="M117.854062,110.707125 L117.854062,261.333375 C117.854062,263.8065 120.032813,265.822125 122.710313,265.822125 L310.860937,265.822125 C313.536563,265.822125 315.713437,263.8065 315.713437,261.333375 L315.713437,110.707125 L117.854062,110.707125 Z M310.860937,267.697125 L122.710313,267.697125 C118.997812,267.697125 115.979062,264.8415 115.979062,261.333375 L115.979062,108.832125 L317.588437,108.832125 L317.588437,261.333375 C317.588437,264.8415 314.569688,267.697125 310.860937,267.697125 L310.860937,267.697125 Z" id="Fill-38" fill="#E1E1E6"></path>
                    <path d="M316.651687,108.864937 L316.651687,86.8993125 C316.651687,83.4493125 313.854188,80.6518125 310.404188,80.6518125 L123.164813,80.6518125 C119.714813,80.6518125 116.917312,83.4493125 116.917312,86.8993125 L116.917312,108.864937 L116.917312,109.768687 L316.651687,109.768687 L316.651687,108.864937 Z" id="Fill-40" fill="#F6F6F8"></path>
                    <path d="M117.854062,108.832125 L315.713437,108.832125 L315.713437,86.90025 C315.713437,83.9715 313.332187,81.59025 310.403437,81.59025 L123.164062,81.59025 C120.237188,81.59025 117.854062,83.9715 117.854062,86.90025 L117.854062,108.832125 Z M317.588437,110.707125 L115.979062,110.707125 L115.979062,86.90025 C115.979062,82.9365 119.202187,79.71525 123.164062,79.71525 L310.403437,79.71525 C314.367188,79.71525 317.588437,82.9365 317.588437,86.90025 L317.588437,110.707125 Z" id="Fill-42" fill="#E1E1E6"></path>
                    <path d="M129.451875,110.086313 L129.451875,248.300062 C129.451875,251.099438 131.71875,253.370063 134.51625,253.370063 L299.0775,253.370063 C301.875,253.370063 304.14375,251.099438 304.14375,248.300062 L304.14375,110.086313 L129.451875,110.086313 Z" id="Fill-44" fill="#F6F6F8"></path>
                    <path d="M130.389375,111.023813 L130.389375,248.300062 C130.389375,250.580062 132.24,252.432563 134.51625,252.432563 L299.0775,252.432563 C301.35375,252.432563 303.20625,250.580062 303.20625,248.300062 L303.20625,111.023813 L130.389375,111.023813 Z M299.0775,254.307563 L134.51625,254.307563 C131.206875,254.307563 128.514375,251.611312 128.514375,248.300062 L128.514375,109.148813 L305.08125,109.148813 L305.08125,248.300062 C305.08125,251.611312 302.386875,254.307563 299.0775,254.307563 L299.0775,254.307563 Z" id="Fill-46" fill="#E1E1E6"></path>
                    <path d="M133.286063,91.3235625 C135.616688,91.3235625 137.504813,93.2116875 137.504813,95.5423125 C137.504813,97.8710625 135.616688,99.7610625 133.286063,99.7610625 C130.957313,99.7610625 129.067313,97.8710625 129.067313,95.5423125 C129.067313,93.2116875 130.957313,91.3235625 133.286063,91.3235625" id="Fill-48" fill="#E1E1E6"></path>
                    <path d="M146.894625,91.3235625 C149.223375,91.3235625 151.1115,93.2116875 151.1115,95.5423125 C151.1115,97.8710625 149.223375,99.7610625 146.894625,99.7610625 C144.564,99.7610625 142.675875,97.8710625 142.675875,95.5423125 C142.675875,93.2116875 144.564,91.3235625 146.894625,91.3235625" id="Fill-50" fill="#E1E1E6"></path>
                    <path d="M263.853187,100.312125 L169.756313,100.312125 C167.236312,100.312125 165.190687,98.2665 165.190687,95.744625 L165.190687,95.339625 C165.190687,92.815875 167.236312,90.772125 169.756313,90.772125 L263.853187,90.772125 C266.376937,90.772125 268.420687,92.815875 268.420687,95.339625 L268.420687,95.744625 C268.420687,98.268375 266.376937,100.312125 263.853187,100.312125" id="Fill-52" fill="#E1E1E6"></path>
                    <path d="M559.385437,114.18975 C561.772312,111.847875 563.092312,108.465375 562.651687,104.887875 C562.284187,101.8935 560.754187,99.3285 558.575437,97.57725 C555.997312,69.821625 532.655437,48.090375 504.226687,48.090375 C474.074813,48.090375 449.630438,72.532875 449.630438,102.686625 C449.630438,132.8385 474.074813,157.281 504.226687,157.281 C506.891062,157.281 509.506688,157.08225 512.069813,156.71475 C513.052312,158.076 514.644187,158.97225 516.451687,158.97225 C519.159187,158.97225 521.381062,156.97725 521.780438,154.38225 C521.861063,154.354125 521.941688,154.327875 522.022312,154.301625 C523.370437,154.729125 524.804813,154.965375 526.295437,154.965375 C532.964812,154.965375 538.537312,150.319125 539.981063,144.0885 C544.443562,143.344125 547.861687,139.635375 548.193562,135.045375 C549.571688,133.177875 550.829813,131.2185 551.962312,129.180375 C557.253562,127.777875 560.838562,122.662875 560.152312,117.075375 C560.026687,116.05725 559.756687,115.0935 559.385437,114.18975" id="Fill-54" fill="#FF66ED"></path>
                    <path d="M552.119812,114.171375 C554.568562,112.19325 556.109812,109.14825 556.021687,105.762 C555.950438,102.925125 554.750437,100.3845 552.871688,98.547 C552.980437,72.336375 533.105437,49.877625 506.501063,47.29575 C478.280438,44.556375 453.181688,65.215125 450.442313,93.433875 C447.704813,121.6545 468.361688,146.751375 496.582313,149.49075 C499.074188,149.732625 501.541687,149.781375 503.973563,149.67075 C504.768562,151.033875 506.176688,152.01825 507.869812,152.181375 C510.402937,152.427 512.666063,150.763875 513.273563,148.3695 C513.352313,148.35075 513.429188,148.33575 513.507938,148.315125 C514.730438,148.840125 516.052312,149.192625 517.447312,149.327625 C523.689188,149.931375 529.325438,146.0895 531.243562,140.3895 C535.488562,140.097 539.024813,136.9395 539.750437,132.672 C541.209187,131.050125 542.564813,129.33075 543.809812,127.525125 C548.891062,126.6945 552.710438,122.232 552.575437,116.94075 C552.549187,115.977 552.387937,115.05075 552.119812,114.171375" id="Fill-56" fill="#FF99F9"></path>
                    <path d="M480.139125,251.509687 C466.942875,251.509687 457.206,248.605312 457.080375,248.569687 C456.5835,248.419687 456.306,247.894687 456.456,247.399687 C456.606,246.904687 457.125375,246.625312 457.626,246.775312 C457.781625,246.822187 473.452875,251.489062 491.880375,248.809687 C510.2235,246.145312 521.992875,235.442812 522.109125,235.334062 C522.4935,234.983437 523.084125,235.005937 523.43475,235.386562 C523.785375,235.767187 523.762875,236.359687 523.38225,236.710312 C522.891,237.167812 511.0935,247.913437 492.150375,250.665937 C487.95975,251.273437 483.907875,251.509687 480.139125,251.509687" id="Fill-58" fill="#FF66ED"></path>
                    <path d="M404.470875,231.150188 C418.210875,232.487063 430.434,222.433312 431.770875,208.691438 C432.198375,204.303938 431.418375,200.088938 429.817125,196.293937 C427.769625,191.447062 416.425875,208.155188 411.66525,203.810812 C406.904625,199.466437 425.452125,188.630812 420.8865,185.597062 C417.517125,183.358313 413.619,181.811438 409.312125,181.391437 C395.57025,180.054563 383.347125,190.108313 382.01025,203.850188 C380.67525,217.592062 390.730875,229.813312 404.470875,231.150188" id="Fill-60" fill="#FFC44D"></path>
                    <path d="M407.715375,185.736375 C410.151,185.972625 411.95475,187.93575 411.741,190.120125 C411.529125,192.3045 409.38225,193.88325 406.946625,193.647 C404.509125,193.408875 402.705375,191.44575 402.91725,189.26325 C403.131,187.078875 405.277875,185.500125 407.715375,185.736375" id="Fill-62" fill="#FF7700"></path>
                    <path d="M389.978063,199.511438 C388.886813,197.418938 389.828062,194.773313 392.079938,193.601438 C394.329938,192.429563 397.037438,193.173938 398.128688,195.266438 C399.218063,197.360813 398.276813,200.008313 396.026813,201.180188 C393.774938,202.352063 391.067438,201.603938 389.978063,199.511438" id="Fill-64" fill="#FF1AD9"></path>
                    <path d="M387.87225,213.572063 C387.93975,211.213313 390.049125,209.360813 392.586,209.432063 C395.122875,209.503313 397.125375,211.473938 397.057875,213.832688 C396.990375,216.189563 394.881,218.043937 392.344125,217.972688 C389.80725,217.901438 387.806625,215.930813 387.87225,213.572063" id="Fill-66" fill="#6600CC"></path>
                    <path d="M402.960188,221.019 C403.027688,218.66025 405.570188,216.820875 408.637687,216.907125 C411.707063,216.99525 414.140812,218.97525 414.073312,221.334 C414.007687,223.69275 411.465188,225.534 408.395813,225.445875 C405.328313,225.359625 402.894563,223.37775 402.960188,221.019" id="Fill-68" fill="#0D96FF"></path>
                    <path d="M417.257062,212.136562 C417.324562,209.777812 419.433937,207.925312 421.972687,207.996562 C424.507687,208.067812 426.510187,210.038437 426.442687,212.397187 C426.375187,214.754062 424.265812,216.610312 421.730812,216.537187 C419.192062,216.465937 417.191437,214.495312 417.257062,212.136562" id="Fill-70" fill="#00D000"></path>
                    <path d="M441.295125,101.130562 C422.200125,107.389312 390.246375,121.613062 381.246375,133.314937 C375.733875,140.481187 391.872,164.876812 400.3095,168.002437 C426.87825,177.842438 482.10825,178.892437 498.343875,152.064937 C514.581375,125.237437 498.673875,82.3261875 441.295125,101.130562" id="Fill-72" fill="#FFFFFF"></path>
                    <path d="M87.434625,36.14475 L123.9615,36.14475 C123.9615,36.14475 112.533375,10.6035 136.795875,7.297875 C158.43525,4.35225 166.989,26.58975 166.989,26.58975 C166.989,26.58975 169.555875,13.761 182.424,16.215375 C195.114,18.634125 204.483375,39.045375 204.483375,39.045375 L236.289,39.045375" id="Fill-74" fill="#FFFFFF"></path>
                    <g id="Group-78" transform="translate(86.250000, 0.000000)">
                        <mask id="mask-4" fill="white">
                            <use xlink:href="#path-3"></use>
                        </mask>
                        <g id="Clip-77"></g>
                        <path d="M150.664688,33.1070625 L118.857188,33.1070625 C118.504688,33.1070625 118.180312,32.9083125 118.020938,32.5933125 C117.929063,32.4114375 108.709688,14.4414375 96.6253125,12.1370625 C84.8034375,9.8908125 82.3809375,21.2870625 82.2834375,21.7745625 C82.2009375,22.1851875 81.8615625,22.4908125 81.4453125,22.5245625 C81.0103125,22.5564375 80.6390625,22.3164375 80.4890625,21.9283125 C80.4684375,21.8739375 78.3365625,16.4326875 73.6565625,11.4358125 C67.4540625,4.8151875 59.9278125,2.0533125 51.2971875,3.2289375 C45.0028125,4.0858125 40.6753125,6.5683125 38.4290625,10.6014375 C33.9103125,18.7183125 39.1396875,30.6451875 39.1921875,30.7633125 C39.3215625,31.0539375 39.2971875,31.3895625 39.1228125,31.6576875 C38.9503125,31.9220625 38.6540625,32.0833125 38.3371875,32.0833125 L1.8103125,32.0833125 C1.2928125,32.0833125 0.8728125,31.6633125 0.8728125,31.1458125 C0.8728125,30.6283125 1.2928125,30.2083125 1.8103125,30.2083125 L36.9496875,30.2083125 C35.6409375,26.7095625 32.7009375,17.0458125 36.7884375,9.6958125 C39.3346875,5.1133125 44.1309375,2.3139375 51.0440625,1.3726875 C68.9690625,-1.0816875 78.2821875,13.3689375 81.2053125,19.0426875 C82.7371875,15.2420625 86.9540625,8.3833125 96.9759375,10.2958125 C108.914063,12.5720625 117.764063,28.1233125 119.425313,31.2320625 L150.664688,31.2320625 C151.182188,31.2320625 151.602188,31.6520625 151.602188,32.1695625 C151.602188,32.6870625 151.182188,33.1070625 150.664688,33.1070625" id="Fill-76" fill="#E1E1E6" mask="url(#mask-4)"></path>
                    </g>
                    <path d="M237.965625,39.685875 L87.429375,39.685875 C86.3925,39.685875 85.554375,38.84775 85.554375,37.810875 C85.554375,36.774 86.3925,35.935875 87.429375,35.935875 L237.965625,35.935875 C239.0025,35.935875 239.840625,36.774 239.840625,37.810875 C239.840625,38.84775 239.0025,39.685875 237.965625,39.685875" id="Fill-79" fill="#FFFFFF"></path>
                    <path d="M468.486375,249.7665 C468.955125,249.828375 469.437,249.8865 469.932,249.944625 C470.187,249.974625 470.4195,250.109625 470.57325,250.315875 C472.551375,252.96525 474.807,254.634 476.350125,255.56775 C476.627625,255.734625 476.800125,256.034625 476.803875,256.359 C476.80575,256.6815 476.6445,256.98525 476.368875,257.159625 C476.173875,257.28525 475.93575,257.514 475.930125,257.8815 C475.926375,258.13275 476.01825,258.369 476.19075,258.550875 C476.365125,258.729 476.5995,258.832125 476.848875,258.835875 L477.193875,258.83775 C480.03825,258.83775 495.0495,258.472125 511.15575,251.253375 C515.04825,249.505875 518.818875,247.315875 522.357,244.743375 C522.512625,244.630875 522.69825,244.569 522.891375,244.56525 C531.118875,244.405875 538.033875,242.5665 543.445125,239.1015 C556.56075,230.699625 557.607,220.113375 557.39325,215.68275 C554.976375,218.16525 549.507,222.21525 540.475125,220.743375 C540.1995,220.70025 539.957625,220.53525 539.817,220.29525 C539.6745,220.053375 539.64825,219.76275 539.742,219.50025 C544.315125,206.8365 540.842625,196.96275 538.941375,192.999 C537.46575,196.97025 533.082,205.109625 521.331375,208.34025 C521.02575,208.419 520.705125,208.3515 520.468875,208.14525 C517.8495,205.882125 514.68075,203.9715 511.047,202.46775 C493.367625,195.149625 470.39325,206.733375 468.122625,207.924 C467.301375,209.094 462.801375,216.280875 468.9495,224.872125 C469.146375,225.144 469.180125,225.50025 469.041375,225.804 C467.802,228.5415 467.016375,231.54525 466.707,234.7365 C466.206375,239.902125 467.080125,244.4865 469.303875,248.362125 C469.480125,248.6715 469.467,249.055875 469.26825,249.35025 C469.092,249.61275 468.7995,249.7665 468.490125,249.7665 L468.486375,249.7665 Z M477.193875,260.71275 L476.89575,260.710875 C476.065125,260.69775 475.363875,260.392125 474.842625,259.852125 C474.321375,259.31025 474.042,258.599625 474.055125,257.849625 C474.062625,257.38275 474.18825,256.94025 474.415125,256.55025 C472.902,255.520875 471.028875,253.9665 469.317,251.759625 C462.370125,250.927125 457.797,249.618375 457.288875,249.47025 C456.2895,249.168375 455.727,248.118375 456.027,247.128375 C456.327,246.142125 457.377,245.5815 458.36325,245.875875 C458.40075,245.889 461.616375,246.84525 466.821375,247.642125 C465.036375,243.798375 464.37075,239.407125 464.8395,234.558375 C465.15075,231.35025 465.91575,228.31275 467.117625,225.520875 C460.20075,215.354625 466.68075,206.710875 466.746375,206.624625 C466.827,206.5215 466.926375,206.437125 467.04075,206.373375 C468.066375,205.814625 492.403875,192.72525 511.765125,200.737125 C515.406375,202.24275 518.6145,204.14775 521.307,206.39775 C535.2645,202.312125 537.748875,190.524 537.77325,190.405875 C537.846375,190.034625 538.135125,189.742125 538.506375,189.667125 C538.87575,189.592125 539.25825,189.749625 539.46825,190.060875 C539.80575,190.559625 547.472625,202.192125 541.885125,219.0465 C552.34575,220.22775 557.083875,213.202125 557.286375,212.89275 C557.4945,212.574 557.8695,212.409 558.24075,212.482125 C558.612,212.549625 558.90825,212.834625 558.988875,213.202125 C559.022625,213.3615 562.273875,229.267125 544.45575,240.678375 C538.81575,244.293375 531.672,246.228375 523.221375,246.43275 C519.647625,249.009 515.847,251.204625 511.92075,252.963375 C495.4695,260.339625 480.10575,260.71275 477.193875,260.71275 L477.193875,260.71275 Z" id="Fill-81" fill="#FF1AD9"></path>
                    <path d="M500.551688,117.78225 C500.551688,117.78225 510.543563,144.81975 495.519188,177.480375 C480.747938,209.5935 484.224188,243.840375 479.988563,255.844125 C475.752938,267.844125 421.340438,263.730375 414.333563,256.549125 C397.788563,239.59725 415.535438,183.521625 478.647938,165.487875 C497.549813,160.086 500.551688,117.78225 500.551688,117.78225" id="Fill-83" fill="#FFFFFF"></path>
                    <path d="M495.150188,184.689 C495.150188,184.689 487.350187,197.29275 486.150188,211.69275 C484.950188,226.094625 481.350188,257.898375 481.350188,257.898375 C481.350188,257.898375 477.750187,261.498375 464.548313,263.898375 C451.346438,266.298375 427.342688,263.898375 421.942687,262.098375 C416.540813,260.298375 419.017688,257.973375 419.017688,257.973375 C419.017688,257.973375 413.992688,252.123375 425.992687,257.523375 C437.994563,262.92525 457.346437,259.698375 466.948313,244.6965 C476.548313,229.694625 474.148313,212.29275 495.150188,184.689" id="Fill-85" fill="#E1E1E6"></path>
                    <path d="M482.79975,245.002125 C482.79975,245.002125 481.335375,267.007125 477.891,277.31775 C474.446625,287.63025 470.325375,292.824 468.502875,291.384 C466.680375,289.94775 467.991,257.684625 467.991,257.684625 L482.79975,245.002125 Z" id="Fill-87" fill="#E1E1E6"></path>
                    <path d="M410.240437,243.79725 C410.240437,243.79725 413.542312,265.999125 425.341687,279.761625 C432.417937,288.0135 436.816687,292.641 438.181688,290.764125 C439.548562,288.88725 429.564188,258.180375 429.564188,258.180375 L410.240437,243.79725 Z" id="Fill-89" fill="#FFFFFF"></path>
                    <path d="M427.571437,116.484 C428.690812,116.484 429.598312,117.3915 429.598312,118.510875 L429.598312,123.05775 C429.598312,124.177125 428.690812,125.0865 427.571437,125.0865 C426.452062,125.0865 425.544562,124.177125 425.544562,123.05775 L425.544562,118.510875 C425.535187,117.3915 426.444562,116.484 427.571437,116.484" id="Fill-91" fill="#535A80"></path>
                    <path d="M433.042688,130.555688 C432.433313,130.555688 431.837063,130.259437 431.477063,129.715688 C431.405813,129.610687 430.087688,127.743188 427.571438,127.743188 C425.015813,127.743188 423.688313,129.680062 423.675188,129.700687 C423.112688,130.568813 421.950188,130.818187 421.082063,130.253812 C420.212063,129.689437 419.964563,128.528812 420.528938,127.660688 C420.626438,127.510688 422.960813,123.993188 427.571438,123.993188 C432.182063,123.993188 434.516438,127.510688 434.613938,127.660688 C435.178313,128.528812 434.930813,129.689437 434.060813,130.253812 C433.745813,130.458187 433.393313,130.555688 433.042688,130.555688" id="Fill-93" fill="#E1E1E6"></path>
                    <path d="M463.196437,116.484 C464.315812,116.484 465.223312,117.3915 465.223312,118.510875 L465.223312,123.05775 C465.223312,124.177125 464.315812,125.0865 463.196437,125.0865 C462.077062,125.0865 461.169562,124.177125 461.169562,123.05775 L461.169562,118.510875 C461.160187,117.3915 462.069562,116.484 463.196437,116.484" id="Fill-95" fill="#535A80"></path>
                    <path d="M468.667688,130.555688 C468.058313,130.555688 467.462063,130.259437 467.102063,129.715688 C467.030813,129.610687 465.712688,127.743188 463.196438,127.743188 C460.640813,127.743188 459.313313,129.680062 459.300188,129.700687 C458.735813,130.568813 457.575188,130.818187 456.707063,130.253812 C455.837063,129.689437 455.589563,128.528812 456.153938,127.660688 C456.251438,127.510688 458.585813,123.993188 463.196438,123.993188 C467.807063,123.993188 470.141438,127.510688 470.238938,127.660688 C470.803313,128.528812 470.555813,129.689437 469.685813,130.253812 C469.370813,130.458187 469.018313,130.555688 468.667688,130.555688" id="Fill-97" fill="#E1E1E6"></path>
                    <path d="M499.619813,44.2580625 C505.722938,43.5099375 511.276688,47.8468125 512.026688,53.9499375 C512.778563,60.0530625 508.437938,65.6086875 502.334812,66.3586875 C496.231688,67.1086875 490.677938,62.7699375 489.927938,56.6668125 C489.177937,50.5636875 493.516688,45.0080625 499.619813,44.2580625" id="Fill-99" fill="#FF99F9"></path>
                    <path d="M448.145062,176.066625 C427.773187,176.066625 405.151312,172.519125 397.595062,168.742875 C383.320687,161.60475 378.451313,138.9285 378.252562,137.9685 C378.038812,136.954125 378.689437,135.960375 379.703812,135.750375 C380.714437,135.529125 381.708188,136.18725 381.921938,137.201625 C381.966938,137.421 386.626312,159.066 399.273188,165.3885 C407.898187,169.701 445.062562,174.951 467.789437,170.84475 C468.818812,170.662875 469.782562,171.33975 469.968187,172.356 C470.150062,173.376 469.475062,174.351 468.455062,174.536625 C462.513187,175.609125 455.474437,176.066625 448.145062,176.066625" id="Fill-101" fill="#E1E1E6"></path>
                    <path d="M398.43375,167.065125 C398.43375,167.065125 434.01,176.6295 458.43375,172.377 C473.694375,169.722 478.5525,164.682 490.35,152.886375 C493.95,149.286375 495.73875,162.32325 489.15,168.48825 C475.30875,181.44075 407.885625,174.715125 398.43375,167.065125" id="Fill-103" fill="#E1E1E6"></path>
                    <path d="M402.59025,118.71975 C402.269625,118.71975 401.9565,118.55475 401.78025,118.256625 C401.519625,117.810375 401.669625,117.236625 402.115875,116.97225 C404.133375,115.791 451.863375,88.06725 480.742125,97.53975 C481.2315,97.701 481.5015,98.22975 481.338375,98.722875 C481.179,99.214125 480.6465,99.48225 480.15525,99.319125 C452.088375,90.1185 403.554,118.3035 403.064625,118.59225 C402.9165,118.6785 402.753375,118.71975 402.59025,118.71975" id="Fill-105" fill="#E1E1E6"></path>
                    <path d="M481.95,97.6790625 C481.95,97.6790625 477.898125,112.232813 491.7,129.034688 C497.649375,136.275937 502.2675,141.278437 501.751875,154.686563 C501.151875,170.288438 493.95,179.890313 493.95,179.890313 L497.55,176.288438 C497.55,176.288438 511.951875,150.636563 507.751875,128.282813 C503.0775,103.401563 481.95,97.6790625 481.95,97.6790625" id="Fill-107" fill="#E1E1E6"></path>
                    <path d="M514.68375,128.00325 C514.68375,134.605125 509.3325,139.956375 502.730625,139.956375 C496.12875,139.956375 490.7775,134.605125 490.7775,128.00325 C490.7775,121.401375 496.12875,116.050125 502.730625,116.050125 C509.3325,116.050125 514.68375,121.401375 514.68375,128.00325" id="Fill-109" fill="#E1E1E6"></path>
                    <path d="M360.441375,109.185375 C357.632625,108.472875 355.427625,106.267875 354.715125,103.459125 C354.647625,103.18725 354.297,103.18725 354.2295,103.459125 C353.517,106.267875 351.312,108.472875 348.501375,109.185375 C348.227625,109.252875 348.227625,109.605375 348.501375,109.67475 C351.312,110.385375 353.517,112.5885 354.2295,115.399125 C354.297,115.672875 354.647625,115.672875 354.715125,115.399125 C355.427625,112.5885 357.632625,110.385375 360.441375,109.67475 C360.715125,109.605375 360.715125,109.252875 360.441375,109.185375" id="Fill-111" fill="#FFC44D"></path>
                    <path d="M380.304563,120.803437 C375.347063,119.545312 371.445188,115.643438 370.187063,110.687812 C370.061438,110.211562 369.446438,110.211562 369.328313,110.687812 C368.079563,115.643438 364.177688,119.545312 359.212688,120.794062 C358.734563,120.919687 358.734563,121.536563 359.212688,121.652812 C364.170188,122.910937 368.072063,126.812812 369.328313,131.770312 C369.455813,132.248437 370.070813,132.248437 370.187063,131.770312 C371.445188,126.812812 375.347063,122.910937 380.304563,121.652812 C380.782688,121.536563 380.782688,120.919687 380.304563,120.803437" id="Fill-113" fill="#FFAA00"></path>
                    <path d="M363.398438,136.21725 C355.984688,134.344125 350.151563,128.501625 348.269063,121.087875 C348.092812,120.375375 347.175938,120.375375 346.990312,121.087875 C345.117188,128.501625 339.272812,134.33475 331.859062,136.21725 C331.146562,136.3935 331.146562,137.310375 331.859062,137.496 C339.272812,139.369125 345.105937,145.211625 346.990312,152.625375 C347.164688,153.337875 348.081562,153.337875 348.269063,152.625375 C350.140312,145.211625 355.984688,139.3785 363.398438,137.496 C364.110937,137.310375 364.110937,136.3935 363.398438,136.21725" id="Fill-115" fill="#FFC44D"></path>
                    <path d="M475.947938,96.329625 C475.947938,96.329625 482.030438,87.753375 492.601688,87.32775 C505.066688,86.829 513.785438,99.204 513.879188,108.307125 C514.076063,126.835875 527.157938,127.584 527.157938,127.584 C527.157938,127.584 511.503563,136.83525 494.849813,127.383375 C479.939813,118.9215 475.947938,96.329625 475.947938,96.329625" id="Fill-117" fill="#FF99F9"></path>
                    <path d="M483.601688,224.481375 C483.543563,224.481375 483.483563,224.47575 483.423562,224.4645 C482.915438,224.367 482.581688,223.87575 482.679188,223.367625 C488.928563,190.78575 502.407937,160.015125 502.544813,159.707625 C502.752938,159.235125 503.300438,159.017625 503.780438,159.2295 C504.252938,159.4395 504.468563,159.99075 504.258562,160.465125 C504.123562,160.77075 490.728563,191.35575 484.520438,223.720125 C484.434188,224.170125 484.040437,224.481375 483.601688,224.481375" id="Fill-119" fill="#E1E1E6"></path>
                    <path d="M486.43425,194.556562 C486.43425,194.556562 529.703625,175.259063 531.822375,171.023438 C533.941125,166.785938 532.114875,167.492813 530.20425,167.022188 C528.29175,166.551563 499.3755,173.858438 483.6105,177.612188 L486.43425,194.556562 Z" id="Fill-121" fill="#FFFFFF"></path>
                    <path d="M421.984875,151.354687 C419.468625,150.790312 416.838,150.040312 414.19425,149.284687 C416.82675,150.019687 419.468625,150.790312 421.984875,151.354687 C424.482375,151.964062 426.873,152.307187 428.8905,152.721562 C426.873,152.307187 424.46175,151.975312 421.984875,151.354687 M399.98925,144.072187 C401.9055,144.831562 404.11425,145.866562 406.52925,146.723437 C404.097375,145.860937 401.9055,144.831562 399.98925,144.072187 M438.04425,154.414687 C437.27175,154.099687 436.488,153.814687 435.723,153.535312 C434.5905,153.111562 433.452375,152.704687 432.33675,152.284687 L426.559875,150.323437 C422.7105,149.037187 418.82175,147.876562 414.95175,146.652187 C411.04425,145.553437 407.1555,144.392812 403.22925,143.355937 L397.324875,141.831562 C396.1755,141.572812 395.033625,141.300937 393.888,141.040312 C393.874875,141.032812 393.852375,141.019687 393.843,141.012187 C393.018,140.819062 392.202375,140.642812 391.37175,140.462812 C391.278,140.434687 391.16925,140.455312 391.058625,140.487187 C390.736125,140.597812 390.556125,140.969062 390.661125,141.306562 L390.89175,142.071562 C391.4205,143.828437 392.013,145.380937 392.678625,146.738437 C393.319875,148.120312 394.008,149.346562 394.73175,150.514687 C396.15675,152.809687 397.728,154.658437 399.364875,156.304687 C399.813,156.743437 400.28175,157.103437 400.743,157.497187 C401.033625,157.401562 401.318625,157.347187 401.596125,157.313437 C401.3055,157.373437 401.013,157.424062 400.718625,157.523438 C400.733625,157.529062 400.729875,157.544062 400.744875,157.549687 C400.729875,157.544062 400.72425,157.560937 400.707375,157.555312 C403.58175,160.011562 406.666125,161.699062 409.973625,162.702187 C410.018625,162.717187 410.07675,162.750937 410.123625,162.764062 L410.1405,162.769687 L410.1555,162.773437 C410.202375,162.788437 410.269875,162.792187 410.314875,162.803437 C413.63175,163.778437 417.136125,164.057812 420.886125,163.579687 C420.874875,163.559062 420.874875,163.559062 420.858,163.555312 C420.874875,163.559062 420.874875,163.559062 420.8955,163.547812 C421.4955,163.472812 422.071125,163.424062 422.682375,163.317187 C424.939875,162.816562 427.264875,162.150937 429.736125,160.999687 C430.96425,160.414687 432.211125,159.765937 433.527375,158.952187 C434.813625,158.179687 436.178625,157.191562 437.584875,156.012187 L438.20175,155.481562 C438.27675,155.402812 438.35175,155.322187 438.3855,155.215312 C438.50925,154.909687 438.348,154.538437 438.04425,154.414687" id="Fill-123" fill="#535A80"></path>
                    <path d="M394.758938,137.81025 C395.276438,137.324625 402.671438,139.2315 402.902062,139.5765 C403.132688,139.923375 401.522063,147.639 400.976438,148.074 C400.430813,148.50525 396.491438,146.214 396.253313,145.747125 C396.013313,145.28025 394.265813,138.269625 394.758938,137.81025" id="Fill-125" fill="#FFFFFF"></path>
                    <path d="M406.647938,140.135813 C407.165438,139.650188 416.911688,142.100813 417.142313,142.447688 C417.372938,142.794563 411.217313,149.797688 409.642313,150.474563 C409.001063,150.748313 404.480438,149.739563 404.240438,149.272688 C404.002313,148.805813 406.154813,140.595188 406.647938,140.135813" id="Fill-127" fill="#FFFFFF"></path>
                    <path d="M551.358,158.226562 C551.358,158.226562 551.348625,158.269688 551.32425,158.350313 C551.303625,158.432813 551.266125,158.550938 551.21925,158.702813 C551.1705,158.856562 551.103,159.032813 551.029875,159.246563 C550.947375,159.450938 550.85925,159.694688 550.7505,159.953438 C550.313625,160.990313 549.61425,162.372187 548.622375,163.838437 C547.63425,165.308437 546.357375,166.870313 544.834875,168.344063 C544.0755,169.084688 543.2505,169.797188 542.389875,170.494688 C541.96425,170.849063 541.523625,171.190313 541.08675,171.542813 C540.64425,171.884063 540.2055,172.234688 539.753625,172.568438 C538.857375,173.250938 537.938625,173.901563 537.0255,174.531563 C536.112375,175.161563 535.193625,175.757812 534.293625,176.316563 C532.49175,177.439687 530.742375,178.397813 529.1955,179.159063 C527.64675,179.920312 526.298625,180.480938 525.327375,180.840937 C524.84175,181.017188 524.453625,181.150312 524.1855,181.234688 C523.9155,181.319063 523.767375,181.358438 523.767375,181.358438 C522.23925,181.774687 520.66425,180.869063 520.248,179.340937 C520.04925,178.598438 520.159875,177.840937 520.501125,177.214687 C520.501125,177.214687 520.57425,177.081562 520.718625,176.837813 C520.863,176.595937 521.08425,176.249062 521.36925,175.819687 C521.943,174.959062 522.803625,173.777813 523.906125,172.452188 C525.00675,171.124688 526.347375,169.645313 527.858625,168.154688 C528.61425,167.410313 529.4055,166.654688 530.2305,165.915938 C531.05925,165.175313 531.90675,164.434687 532.77675,163.724063 C533.208,163.360313 533.652375,163.015313 534.087375,162.662813 C534.529875,162.321562 534.96675,161.970938 535.411125,161.640938 C536.2905,160.967813 537.1755,160.330313 538.07175,159.765938 C539.858625,158.627813 541.6755,157.754063 543.33675,157.133438 C544.992375,156.512812 546.50175,156.154687 547.61175,155.972813 C547.8855,155.924063 548.14425,155.895938 548.36175,155.864062 C548.588625,155.843438 548.776125,155.817188 548.937375,155.807813 C549.094875,155.794688 549.21675,155.789063 549.303,155.785313 C549.3855,155.781563 549.432375,155.781563 549.432375,155.781563 C550.538625,155.796562 551.42175,156.704063 551.40675,157.808438 C551.404875,157.950938 551.388,158.097188 551.358,158.226562" id="Fill-129" fill="#CC7700"></path>
                    <path d="M536.077875,161.137875 C536.77725,164.021625 538.4535,166.626 540.825375,168.50475 C541.52475,169.05975 542.27475,169.537875 543.0585,169.942875 C543.679125,169.421625 544.275375,168.891 544.836,168.345375 C545.54475,167.65725 546.199125,166.95225 546.799125,166.245375 C543.821625,165.3585 541.401,162.8835 540.73725,159.771 C540.63975,159.307875 540.577875,158.8335 540.559125,158.3535 C539.734125,158.767875 538.89975,159.2385 538.071,159.76725 C537.39975,160.18725 536.737875,160.650375 536.077875,161.137875" id="Fill-131" fill="#994C00"></path>
                    <path d="M546.7035,159.257437 C549.311625,162.201187 557.460375,161.871187 560.895375,149.876812 C561.1935,148.836187 560.106,147.930562 559.14225,148.421812 C557.524125,149.244937 555.154125,150.023062 552.154125,149.841187 C546.154125,149.473687 543.081,155.164312 546.7035,159.257437" id="Fill-133" fill="#FFC899"></path>
                    <path d="M552.041063,150.098625 C553.728562,151.411125 552.185438,151.8555 553.177312,153.7905 C554.317312,156.008625 557.369812,152.66925 558.586687,155.359875 C559.467938,153.89925 560.255438,152.101125 560.885437,149.913 C561.189188,148.861125 560.084812,147.946125 559.107938,148.43925 C557.487937,149.25675 555.131063,150.02175 552.153563,149.839875 C552.003563,149.8305 551.855437,149.824875 551.709187,149.824875 C551.817937,149.918625 551.926688,150.0105 552.041063,150.098625" id="Fill-135" fill="#00D000"></path>
                    <path d="M529.698563,170.963438 C527.585438,171.914063 530.201063,180.509063 535.473562,181.009688 C540.749812,181.512188 543.762937,177.242813 544.014187,174.732188 C544.265437,172.219688 534.721687,168.704063 529.698563,170.963438" id="Fill-137" fill="#FFFFFF"></path>
                    <path d="M416.431312,195.96825 C416.431312,195.96825 406.698187,199.557 404.978813,202.187625 C403.120688,205.033875 403.030687,209.4945 405.151313,209.721375 C409.527563,210.190125 418.589438,202.06575 418.589438,202.06575 L416.431312,195.96825 Z" id="Fill-139" fill="#E1E1E6"></path>
                    <path d="M477.778875,73.754625 C477.778875,79.90275 472.795125,84.8865 466.647,84.8865 C460.497,84.8865 455.51325,79.90275 455.51325,73.754625 C455.51325,67.6065 460.497,62.62275 466.647,62.62275 C472.795125,62.62275 477.778875,67.6065 477.778875,73.754625" id="Fill-141" fill="#FF99F9"></path>
                    <path d="M488.360625,62.1841875 C488.360625,68.3323125 483.376875,73.3160625 477.22875,73.3160625 C471.07875,73.3160625 466.095,68.3323125 466.095,62.1841875 C466.095,56.0360625 471.07875,51.0523125 477.22875,51.0523125 C483.376875,51.0523125 488.360625,56.0360625 488.360625,62.1841875" id="Fill-143" fill="#FF99F9"></path>
                    <path d="M455.278875,91.471875 C452.290125,91.471875 449.867625,89.049375 449.867625,86.05875 C449.867625,83.071875 452.290125,80.6475 455.278875,80.6475 C458.2695,80.6475 460.692,83.071875 460.692,86.05875 C460.692,89.049375 458.2695,91.471875 455.278875,91.471875" id="Fill-145" fill="#FF99F9"></path>
                    <path d="M485.930812,109.863 C479.792062,110.183625 474.555187,105.46425 474.234562,99.3255 C473.915813,93.183 478.633312,87.948 484.773937,87.62925 C490.912687,87.308625 496.149562,92.026125 496.470187,98.168625 C496.790812,104.307375 492.071437,109.54425 485.930812,109.863" id="Fill-147" fill="#FF99F9"></path>
                    <path d="M509.619187,118.320562 C515.722312,117.572437 521.277937,121.909312 522.026062,128.012437 C522.777937,134.115563 518.437312,139.671188 512.336062,140.421188 C506.232937,141.171187 500.677312,136.832437 499.927312,130.729312 C499.179187,124.626187 503.516062,119.070562 509.619187,118.320562" id="Fill-149" fill="#FF99F9"></path>
                    <path d="M459.26325,99.285 C456.2745,99.285 453.852,96.860625 453.852,93.871875 C453.852,90.883125 456.2745,88.460625 459.26325,88.460625 C462.253875,88.460625 464.676375,90.883125 464.676375,93.871875 C464.676375,96.860625 462.253875,99.285 459.26325,99.285" id="Fill-151" fill="#FF99F9"></path>
                    <path d="M499.151063,204.883688 C505.254188,204.133688 510.807938,208.472438 511.557938,214.575563 C512.309813,220.678688 507.969188,226.234313 501.866062,226.982438 C495.762938,227.734313 490.209188,223.393688 489.459188,217.290563 C488.709187,211.189313 493.047938,205.633688 499.151063,204.883688" id="Fill-153" fill="#FF99F9"></path>
                    <path d="M521.546625,216.362625 C521.546625,221.84325 517.10475,226.285125 511.626,226.285125 C506.145375,226.285125 501.7035,221.84325 501.7035,216.362625 C501.7035,210.883875 506.145375,206.442 511.626,206.442 C517.10475,206.442 521.546625,210.883875 521.546625,216.362625" id="Fill-155" fill="#FF99F9"></path>
                    <path d="M556.528875,83.129625 C556.528875,89.27775 551.545125,94.2615 545.397,94.2615 C539.247,94.2615 534.26325,89.27775 534.26325,83.129625 C534.26325,76.9815 539.247,71.99775 545.397,71.99775 C551.545125,71.99775 556.528875,76.9815 556.528875,83.129625" id="Fill-157" fill="#FF99F9"></path>
                    <path d="M533.560125,58.754625 C533.560125,64.90275 528.576375,69.8865 522.42825,69.8865 C516.27825,69.8865 511.2945,64.90275 511.2945,58.754625 C511.2945,52.6065 516.27825,47.62275 522.42825,47.62275 C528.576375,47.62275 533.560125,52.6065 533.560125,58.754625" id="Fill-159" fill="#FF99F9"></path>
                    <path d="M405.280125,31.0561875 L425.592,31.0561875 C425.592,31.0561875 419.23575,16.8530625 432.730125,15.0136875 C444.763875,13.3768125 449.52075,25.7424375 449.52075,25.7424375 C449.52075,25.7424375 450.94575,18.6080625 458.1045,19.9730625 C465.162,21.3193125 470.37075,32.6686875 470.37075,32.6686875 L488.057625,32.6686875" id="Fill-161" fill="#FFFFFF"></path>
                    <path d="M426.216375,28.8718125 L405.9045,28.8718125 C405.387,28.8718125 404.967,28.4518125 404.967,27.9343125 C404.967,27.4168125 405.387,26.9968125 405.9045,26.9968125 L424.855125,26.9968125 C424.063875,24.6586875 422.832,19.6899375 424.992,15.8030625 C426.475125,13.1349375 429.2445,11.5074375 433.227,10.9655625 C442.71075,9.6718125 447.9495,16.6243125 449.998875,20.2261875 C451.270125,17.6724375 454.0245,14.9949375 458.905125,15.9305625 C465.44325,17.1774375 470.3295,24.7111875 471.535125,26.7324375 L488.682,26.7324375 C489.201375,26.7324375 489.6195,27.1524375 489.6195,27.6699375 C489.6195,28.1893125 489.201375,28.6074375 488.682,28.6074375 L470.995125,28.6074375 C470.652,28.6074375 470.338875,28.4218125 470.172,28.1236875 C470.12325,28.0318125 465.087,19.0186875 458.552625,17.7718125 C452.3745,16.5905625 451.1145,22.5511875 451.063875,22.8043125 C450.981375,23.2130625 450.640125,23.5186875 450.22575,23.5543125 C449.78325,23.5824375 449.4195,23.3461875 449.2695,22.9580625 C449.08575,22.4818125 444.61575,11.3143125 433.480125,12.8218125 C430.116375,13.2811875 427.812,14.5899375 426.63075,16.7161875 C424.217625,21.0568125 427.04325,27.4880625 427.071375,27.5518125 C427.20075,27.8405625 427.176375,28.1780625 427.003875,28.4424375 C426.8295,28.7105625 426.535125,28.8718125 426.216375,28.8718125" id="Fill-163" fill="#E1E1E6"></path>
                    <path d="M489.367688,34.6340625 L405.652688,34.6340625 C404.615813,34.6340625 403.777688,33.7959375 403.777688,32.7590625 C403.777688,31.7221875 404.615813,30.8840625 405.652688,30.8840625 L489.367688,30.8840625 C490.404563,30.8840625 491.242688,31.7221875 491.242688,32.7590625 C491.242688,33.7959375 490.404563,34.6340625 489.367688,34.6340625" id="Fill-165" fill="#FFFFFF"></path>
                    <path d="M482.629313,75.2469375 C481.701188,75.2469375 480.894938,74.5625625 480.774938,73.6175625 C480.403688,70.7075625 481.628063,64.3250625 488.927437,60.9913125 C495.864938,57.8244375 500.968688,61.7844375 502.693688,64.3231875 C503.276813,65.1800625 503.055563,66.3463125 502.198688,66.9275625 C501.339938,67.5125625 500.173688,67.2875625 499.592438,66.4325625 C499.262438,65.9619375 496.140563,61.8144375 490.483688,64.4038125 C483.936188,67.3944375 484.470563,72.9238125 484.496813,73.1563125 C484.611188,74.1800625 483.878063,75.1119375 482.856188,75.2319375 C482.779313,75.2413125 482.704313,75.2469375 482.629313,75.2469375" id="Fill-167" fill="#FF66ED"></path>
                    <path d="M497.276063,63.5428125 C497.227312,63.5428125 497.176688,63.5390625 497.126063,63.5315625 C496.614188,63.4490625 496.267313,62.9671875 496.347938,62.4571875 C496.359188,62.3990625 497.362313,56.6109375 504.342938,55.6096875 C509.606063,54.8559375 512.229188,58.4859375 512.877938,60.5090625 C513.037313,61.0021875 512.767313,61.5309375 512.274188,61.6884375 C511.784813,61.8515625 511.254188,61.5778125 511.094813,61.0828125 C511.038563,60.9121875 509.577938,56.7590625 504.609188,57.4659375 C498.980437,58.2721875 498.206062,62.7084375 498.200438,62.7534375 C498.125437,63.2146875 497.727937,63.5428125 497.276063,63.5428125" id="Fill-169" fill="#FF66ED"></path>
                    <path d="M525.888,139.158 C523.816125,139.158 522.0855,138.267375 521.164875,137.483625 C520.771125,137.148 520.72425,136.5555 521.059875,136.16175 C521.39925,135.766125 521.993625,135.723 522.38175,136.05675 C522.522375,136.174875 525.934875,138.95925 529.801125,135.7305 C534.128625,132.121125 532.54425,128.03175 532.474875,127.861125 C532.28175,127.383 532.5105,126.837375 532.98675,126.6405 C533.464875,126.438 534.008625,126.668625 534.207375,127.144875 C534.229875,127.19925 536.418,132.65175 531.003,137.168625 C529.238625,138.642375 527.464875,139.158 525.888,139.158" id="Fill-171" fill="#FF66ED"></path>
                    <path d="M474.149813,66.6665625 C474.101063,66.6665625 474.048563,66.6609375 473.997938,66.6534375 C473.487938,66.5690625 473.142938,66.0909375 473.223563,65.5828125 C473.232938,65.5246875 474.236063,59.7365625 481.216688,58.7353125 C486.474188,57.9759375 489.101063,61.6096875 489.751688,63.6346875 C489.911063,64.1278125 489.641063,64.6565625 489.147938,64.8140625 C488.658563,64.9753125 488.127938,64.7015625 487.968563,64.2084375 C487.912313,64.0359375 486.451688,59.8734375 481.482938,60.5915625 C475.906688,61.3921875 475.106063,65.6990625 475.074188,65.8828125 C474.995438,66.3403125 474.599813,66.6665625 474.149813,66.6665625" id="Fill-173" fill="#FF66ED"></path>
                    <path d="M533.100563,128.82525 C530.528063,128.82525 528.317437,127.889625 527.046188,126.993375 C526.200563,126.397125 525.998062,125.227125 526.594313,124.3815 C527.194313,123.534 528.362438,123.333375 529.208062,123.929625 C529.680562,124.254 534.056812,127.03275 538.449938,122.6265 C543.600563,117.457125 541.011188,112.390875 540.984938,112.342125 C540.499313,111.427125 540.849938,110.290875 541.764937,109.807125 C542.683688,109.3215 543.814313,109.674 544.299938,110.587125 C545.670563,113.18025 546.769313,119.587125 541.106813,125.274 C538.449938,127.938375 535.603687,128.82525 533.100563,128.82525" id="Fill-175" fill="#FF66ED"></path>
                    <path d="M488.59125,197.533875 C488.544375,197.533875 488.4975,197.530125 488.450625,197.522625 C487.936875,197.44575 487.58625,196.9695 487.663125,196.457625 C488.653125,189.8445 511.31625,181.4895 513.89625,180.557625 C514.389375,180.388875 514.92,180.636375 515.098125,181.122 C515.2725,181.6095 515.02125,182.147625 514.53375,182.323875 C505.1925,185.69325 490.138125,192.58575 489.515625,196.735125 C489.44625,197.200125 489.046875,197.533875 488.59125,197.533875" id="Fill-177" fill="#E1E1E6"></path>
                    <path d="M414.373125,197.6895 C414.050625,197.6895 413.739375,197.5245 413.563125,197.230125 C413.300625,196.783875 413.44875,196.20825 413.893125,195.943875 C414.04875,195.853875 429.55875,186.7545 449.926875,181.513875 C450.429375,181.3845 450.939375,181.686375 451.06875,182.187 C451.198125,182.6895 450.89625,183.1995 450.395625,183.33075 C430.29375,188.502 415.00125,197.470125 414.849375,197.560125 C414.699375,197.64825 414.534375,197.6895 414.373125,197.6895" id="Fill-179" fill="#FFFFFF"></path>
                    <path d="M203.701125,178.108125 C203.701125,170.0175 210.259875,163.460625 218.348625,163.460625 C226.441125,163.460625 232.998,170.0175 232.998,178.108125 C232.998,186.196875 226.441125,192.755625 218.348625,192.755625 C210.259875,192.755625 203.701125,186.196875 203.701125,178.108125 M252.529875,173.225625 L242.2755,173.225625 C241.718625,170.1 240.558,167.116875 238.857375,164.435625 L246.181125,157.111875 C247.801125,154.95375 247.362375,151.89375 245.206125,150.275625 C243.469875,148.974375 241.083,148.974375 239.34675,150.275625 L232.021125,157.599375 C229.343625,155.89875 226.35675,154.738125 223.233,154.18125 L223.233,143.92875 C223.233,141.230625 221.04675,139.044375 218.348625,139.044375 C215.65425,139.044375 213.468,141.230625 213.468,143.92875 L213.468,154.18125 C210.34425,154.738125 207.357375,155.89875 204.678,157.599375 L197.84175,150.275625 C195.8205,148.2525 192.541125,148.2525 190.518,150.275625 C188.49675,152.296875 188.49675,155.57625 190.518,157.599375 L197.84175,164.435625 C196.143,167.116875 194.982375,170.1 194.4255,173.225625 L184.171125,173.225625 C181.474875,173.225625 179.28675,175.411875 179.28675,178.108125 C179.28675,180.804375 181.474875,182.990625 184.171125,182.990625 L194.4255,182.990625 C194.982375,186.11625 196.143,189.099375 197.84175,191.77875 L190.518,198.616875 C188.359875,200.233125 187.923,203.295 189.541125,205.45125 C191.161125,207.6075 194.21925,208.04625 196.377375,206.428125 C196.748625,206.150625 197.07675,205.820625 197.35425,205.45125 L204.1905,198.1275 C206.869875,199.82625 209.854875,200.986875 212.978625,201.545625 L212.978625,212.2875 C212.978625,214.98375 215.164875,217.17 217.863,217.17 C220.55925,217.17 222.743625,214.98375 222.743625,212.2875 L222.743625,202.033125 C225.86925,201.47625 228.85425,200.315625 231.533625,198.616875 L238.857375,205.940625 C241.0155,207.556875 244.0755,207.121875 245.693625,204.961875 C246.99675,203.225625 246.99675,200.840625 245.693625,199.1025 L238.369875,191.77875 C240.241125,189.13875 241.568625,186.15 242.2755,182.990625 L252.529875,182.990625 C255.226125,182.990625 257.412375,180.804375 257.412375,178.108125 C257.412375,175.411875 255.226125,173.225625 252.529875,173.225625" id="Fill-181" fill="#E1E1E6"></path>
                    <path d="M436.695563,291.979687 C435.257438,291.979687 432.778688,290.575312 427.556813,284.091563 C418.316813,272.620312 408.619313,250.260937 407.368688,244.322812 C406.123688,238.401562 409.271813,217.562812 419.121188,205.414687 C426.831188,195.904687 443.723063,181.652812 449.481188,176.888438 C440.391188,176.672812 410.089313,175.669687 401.651813,171.859687 C391.832438,167.423437 384.443063,159.578437 380.844938,149.762812 C377.357438,140.254687 376.954313,137.256562 380.507438,132.735937 C383.796188,128.554688 393.866813,119.674687 403.470563,114.552187 C412.913063,109.517812 433.434938,100.388437 447.401813,96.3534375 C447.893063,96.2071875 448.418063,96.4978125 448.562438,96.9946875 C448.704938,97.4915625 448.419938,98.0109375 447.921188,98.1553125 C434.078063,102.156562 413.723063,111.209062 404.353688,116.207812 C394.973063,121.210312 385.172438,129.839062 381.981188,133.894687 C379.043063,137.635312 379.123688,139.626562 382.605563,149.119687 C386.029313,158.455312 393.066188,165.923437 402.424313,170.147812 C411.823688,174.396562 451.652438,175.062187 452.051813,175.065937 C452.445563,175.071562 452.796188,175.324687 452.923688,175.697812 C453.053063,176.072812 452.933063,176.485312 452.627438,176.732812 C452.400563,176.918437 429.782438,195.240937 420.578063,206.594062 C411.236813,218.115937 408.049313,238.440937 409.204313,243.936562 C410.426813,249.745312 419.938688,271.647187 429.017438,282.915937 C435.186188,290.575312 436.770563,290.102812 436.785563,290.085938 C436.884938,290.046562 437.141813,289.519687 437.042438,288.267187 C436.877438,286.236562 432.499313,271.022812 430.824938,265.330312 C430.734938,265.030312 430.804313,264.704062 431.006813,264.464062 C431.205563,264.222187 431.535563,264.107812 431.826188,264.134062 C431.884313,264.141562 437.522438,264.752813 447.038063,264.752813 C456.527438,264.752813 467.079938,262.911562 467.186813,262.892812 C467.458688,262.849687 467.736188,262.919062 467.948063,263.095312 C468.159938,263.269687 468.283688,263.530312 468.287438,263.805937 C468.414938,275.160937 469.183688,287.603437 470.273063,289.930312 C471.784313,288.891562 474.574313,283.420312 477.390563,274.169062 C479.550563,267.064687 482.700562,236.777812 483.604313,226.547812 C484.494938,216.432187 489.163687,196.397812 491.286187,193.568437 C493.206187,191.007187 515.417438,180.559687 519.853688,178.491562 C520.318688,178.272187 520.877438,178.472812 521.098688,178.945312 C521.318062,179.414062 521.113687,179.970937 520.643063,180.190312 C510.546187,184.904062 494.051813,193.007812 492.788063,194.691562 C491.147438,196.877812 486.450562,215.612812 485.471812,226.710937 C484.796813,234.353437 481.560563,266.907187 479.184938,274.714687 C477.698063,279.597187 473.865563,291.045937 470.389313,291.914062 C469.991813,292.009687 469.599938,291.923437 469.269938,291.666562 C467.055563,289.958437 466.543688,273.188437 466.425563,264.917812 C463.453688,265.388437 454.898063,266.627812 447.038063,266.627812 C440.153063,266.627812 435.261188,266.310937 433.011188,266.125312 C434.423063,270.960938 438.724313,285.820312 438.909938,288.115312 C439.112438,290.631562 438.242438,291.524062 437.479313,291.827812 C437.252438,291.919687 436.997438,291.979687 436.695563,291.979687" id="Fill-183" fill="#C8C8CC"></path>
                    <path d="M277.584187,90.765 C277.190437,90.765 276.871688,91.08375 276.871688,91.4775 L276.871688,100.01625 C276.871688,100.408125 277.190437,100.725 277.584187,100.725 C277.976063,100.725 278.294812,100.408125 278.294812,100.01625 L278.294812,91.4775 C278.294812,91.08375 277.976063,90.765 277.584187,90.765 M287.472938,99.800625 L284.626688,91.97625 C284.489812,91.60125 284.075437,91.411875 283.702313,91.54875 C283.327313,91.685625 283.137937,92.1 283.274812,92.473125 L286.121062,100.299375 C286.211063,100.5825 286.464187,100.78125 286.762313,100.798125 L286.976063,100.798125 C287.360437,100.7175 287.606063,100.33875 287.525438,99.954375 C287.512313,99.901875 287.495438,99.85125 287.472938,99.800625 M281.851688,91.4775 C281.457938,91.4775 281.139187,91.79625 281.139187,92.188125 L281.139187,100.01625 C281.139187,100.408125 281.457938,100.725 281.851688,100.725 C282.245437,100.725 282.564188,100.408125 282.564188,100.01625 L282.564188,92.188125 C282.564188,91.79625 282.245437,91.4775 281.851688,91.4775 M279.717938,92.188125 C279.326063,92.188125 279.007312,92.506875 279.007312,92.900625 L279.007312,100.01625 C279.007312,100.408125 279.326063,100.725 279.717938,100.725 C280.111688,100.725 280.430437,100.408125 280.430437,100.01625 L280.430437,92.900625 C280.430437,92.506875 280.111688,92.188125 279.717938,92.188125" id="Fill-185" fill="#8000FF"></path>
                    <path d="M425.907,253.086187 C420.27825,253.086187 414.81075,252.469312 409.50825,251.233688 C376.82325,243.617437 350.908875,213.574313 330.280125,159.383063 C314.031375,116.702438 291.852,103.348688 291.63075,103.217438 C291.18075,102.956813 291.03075,102.383063 291.29325,101.936813 C291.553875,101.486812 292.1295,101.338688 292.57575,101.599313 C293.507625,102.143063 315.552,115.421813 332.031375,158.717438 C352.422,212.278687 377.90325,241.944938 409.932,249.407437 C443.8995,257.319937 484.918875,239.190562 531.86325,195.523687 C532.242,195.169312 532.8345,195.193688 533.188875,195.570562 C533.5395,195.949313 533.52075,196.543688 533.140125,196.896187 C492.977625,234.253687 456.99825,253.086187 425.907,253.086187" id="Fill-187" fill="#E1E1E6"></path>
                    <path d="M429.504937,266.678063 C418.757437,266.678063 407.314312,265.097438 395.310562,261.306188 C355.174312,248.633062 337.123687,203.051813 322.620562,166.427437 C314.363062,145.577437 307.232437,127.571812 297.870562,119.156813 C297.099937,118.464937 297.036187,117.278062 297.728062,116.509312 C298.423687,115.740562 299.608687,115.680562 300.375562,116.366812 C310.395562,125.370562 317.674312,143.756812 326.106187,165.047438 C340.318687,200.933063 358.003687,245.593687 396.437437,257.732438 C466.309312,279.788063 516.874312,224.426812 517.374937,223.864312 C518.066812,223.093687 519.253687,223.026187 520.022438,223.716187 C520.794937,224.404313 520.862437,225.589313 520.172437,226.361812 C519.741187,226.845562 483.431812,266.678063 429.504937,266.678063" id="Fill-189" fill="#E1E1E6"></path>
                    <path d="M441.366562,239.796375 L436.581563,238.4145 C435.923438,238.22325 435.233438,238.602 435.040313,239.263875 C434.849063,239.923875 435.231563,240.61575 435.891563,240.805125 L440.674688,242.187 C441.334688,242.37825 442.026563,241.997625 442.215937,241.337625 C442.407188,240.677625 442.026563,239.987625 441.366562,239.796375 L441.366562,239.796375 Z M449.922188,237.087 L437.965313,233.6295 C437.305313,233.43825 436.615313,233.818875 436.424062,234.48075 C436.232813,235.14075 436.613438,235.83075 437.273438,236.022 L449.232188,239.477625 C449.892187,239.67075 450.582187,239.28825 450.773438,238.62825 C450.964688,237.966375 450.584063,237.27825 449.922188,237.087 L449.922188,237.087 Z M451.305937,232.303875 L439.347188,228.846375 C438.687187,228.657 437.997187,229.037625 437.807813,229.69575 C437.614688,230.357625 437.995313,231.047625 438.657188,231.238875 L450.615937,234.6945 C451.274063,234.88575 451.964063,234.507 452.155312,233.845125 C452.346563,233.185125 451.965937,232.49325 451.305937,232.303875 L451.305937,232.303875 Z M452.687813,227.52075 L440.730938,224.06325 C440.070938,223.873875 439.379063,224.2545 439.189687,224.9145 C438.996562,225.5745 439.377187,226.2645 440.039062,226.45575 L451.997813,229.91325 C452.655937,230.102625 453.347813,229.722 453.539062,229.062 C453.730313,228.402 453.349688,227.712 452.687813,227.52075 L452.687813,227.52075 Z M452.445938,250.772625 C452.063438,252.0945 450.683438,252.85575 449.363437,252.47325 L430.230938,246.943875 C428.907188,246.561375 428.147812,245.181375 428.528437,243.8595 L435.443438,219.943875 C435.824063,218.623875 437.204063,217.862625 438.524063,218.24325 L457.658437,223.7745 C458.980313,224.155125 459.741563,225.537 459.359063,226.857 L452.445938,250.772625 Z M461.432813,219.681375 L437.515312,212.76825 C434.875313,212.005125 432.113438,213.527625 431.350312,216.1695 L423.053438,244.86825 C422.290313,247.510125 423.814688,250.272 426.456563,251.035125 L450.372187,257.94825 C453.014062,258.711375 455.774063,257.188875 456.537188,254.547 L464.834063,225.84825 C465.597188,223.206375 464.074687,220.446375 461.432813,219.681375 L461.432813,219.681375 Z" id="Fill-191" fill="#00D000"></path>
                    <path d="M313.066313,160.856062 C312.584438,161.013562 312.181312,161.356687 311.950688,161.808562 L307.765688,169.767937 L299.990063,165.522937 C299.483813,165.249187 298.881938,165.213562 298.345688,165.429187 C297.333188,165.759187 296.781938,166.846687 297.111938,167.857312 C297.265688,168.327937 297.593813,168.721687 298.028813,168.957937 L305.990063,173.144812 L307.677563,174.029812 C308.611312,174.509812 309.755063,174.155437 310.253813,173.231062 L311.142562,171.541687 L315.327562,163.584187 C315.813188,162.637312 315.440063,161.476687 314.493188,160.989187 C314.052563,160.764187 313.542563,160.715437 313.066313,160.856062 M311.423812,181.542937 C303.293813,184.068562 294.655688,179.525437 292.130063,171.395437 L289.842563,164.036062 C289.210688,162.003562 290.346938,159.843562 292.379438,159.211687 L314.459438,152.352937 C316.493813,151.721062 318.651938,152.855437 319.283813,154.887937 L321.571313,162.249187 C324.096938,170.379187 319.553813,179.019187 311.423812,181.542937" id="Fill-193" fill="#E63821"></path>
                    <path d="M532.463437,219.506438 C531.137812,218.788312 529.480312,219.249562 528.715312,220.550813 C525.660937,226.153312 519.203437,228.982687 513.012187,227.428313 C508.727812,226.346438 505.225312,223.273313 503.599687,219.163313 L509.018437,220.586437 C510.514687,220.980187 512.044688,220.085813 512.436563,218.591438 C512.830312,217.095188 511.937812,215.561438 510.441562,215.169563 L499.607812,212.325187 C498.111562,211.931438 496.579687,212.825813 496.185937,214.320188 L493.341562,225.155812 C492.949687,226.652062 493.842187,228.182063 495.338437,228.575813 C496.834687,228.967688 498.364688,228.073312 498.758437,226.577063 L499.540312,223.599562 C504.565312,233.013937 516.269062,236.572688 525.685312,231.549563 C529.155937,229.697063 531.979687,226.826437 533.775937,223.325812 C534.482812,221.951437 533.940938,220.262063 532.564687,219.555188 C532.530937,219.540188 532.499062,219.523313 532.463437,219.506438 M537.799688,199.194563 C536.303437,198.800813 534.771562,199.695188 534.377813,201.189563 L533.595937,204.168937 C528.572812,194.756438 516.869062,191.195812 507.452812,196.220813 C503.982187,198.073313 501.158437,200.942063 499.362187,204.442688 C498.655312,205.818938 499.197187,207.506438 500.573437,208.213313 C500.607187,208.230187 500.639062,208.245188 500.674687,208.262063 L501.216562,208.404562 C502.515938,208.773937 503.895937,208.160812 504.494062,206.949563 C507.623437,201.480187 514.022812,198.774563 520.125937,200.342062 C524.410312,201.420187 527.912812,204.497062 529.536562,208.605187 L524.119687,207.182063 C522.623438,206.790188 521.093437,207.682688 520.701562,209.178937 C520.307812,210.675187 521.200312,212.205188 522.696562,212.598938 L533.530313,215.445188 C535.026562,215.837063 536.558437,214.942688 536.952187,213.448312 L539.796562,202.612688 C540.188437,201.116438 539.295937,199.586437 537.799688,199.194563" id="Fill-195" fill="#2BB0CC"></path>
                    <path d="M354.206625,183.308438 C348.96975,181.371563 343.0935,182.445938 338.88225,186.111563 L340.695375,181.289063 C340.881,180.795938 340.631625,180.244688 340.136625,180.060938 C339.6435,179.875313 339.09225,180.124688 338.9085,180.617813 L335.55225,189.548438 C335.366625,190.043438 335.616,190.592813 336.111,190.778438 L345.041625,194.134688 C345.53475,194.320312 346.086,194.069063 346.271625,193.577813 C346.455375,193.084688 346.206,192.533438 345.712875,192.347813 L340.176,190.266563 C344.329125,185.500313 351.562875,185.005313 356.331,189.160313 C361.09725,193.317188 361.590375,200.549063 357.43725,205.315313 C353.280375,210.081562 346.046625,210.578438 341.280375,206.421562 C338.781,204.242813 337.350375,201.085313 337.356,197.770313 C337.3635,196.703438 336.50475,195.833438 335.436,195.825938 C334.369125,195.818438 333.499125,196.679063 333.491625,197.744063 C333.589125,206.175938 340.50225,212.931562 348.93225,212.834063 C357.366,212.736562 364.11975,205.825312 364.02225,197.393438 C363.951,191.129063 360.0585,185.543438 354.206625,183.308438 L354.206625,183.308438 Z M344.925375,202.041562 L349.83975,199.812188 C350.076,199.669688 350.239125,199.433438 350.286,199.163438 L352.972875,192.019688 C353.156625,191.524687 352.909125,190.975313 352.414125,190.789688 C351.921,190.604062 351.36975,190.853438 351.186,191.346563 L348.634125,198.134062 L344.032875,200.074688 C343.560375,200.295938 343.35225,200.849063 343.56225,201.325313 L344.812875,201.794063 L344.925375,202.041562 Z" id="Fill-197" fill="#FFAA00"></path>
                    <path d="M370.068938,258.963937 L378.437063,262.115812 C380.915813,262.938937 383.595188,261.594562 384.416438,259.115812 C384.422063,259.098937 384.427688,259.082062 384.433313,259.065187 L373.095188,255.082687 L370.068938,258.963937 Z M359.486438,268.098937 C357.858938,268.586437 356.145188,267.662062 355.657688,266.034562 C355.172063,264.407062 356.096438,262.693312 357.722063,262.205812 C359.349563,261.720187 361.063313,262.642687 361.550813,264.270187 C361.573313,264.343312 361.592063,264.416437 361.607063,264.489562 C362.066438,265.989562 361.224563,267.577687 359.724563,268.037062 C359.645813,268.061437 359.567063,268.080187 359.486438,268.098937 L359.486438,268.098937 Z M355.374563,254.514562 C353.792063,255.129562 352.010813,254.343937 351.393938,252.761437 C350.778938,251.178937 351.562688,249.395812 353.147063,248.780812 C354.727688,248.165812 356.512688,248.949562 357.127688,250.533937 C357.153938,250.603312 357.180188,250.674562 357.202688,250.747687 C357.778313,252.206437 357.065813,253.854562 355.608938,254.432062 C355.532063,254.463937 355.453313,254.490187 355.374563,254.514562 L355.374563,254.514562 Z M379.136438,242.379562 C377.094563,240.748312 374.117063,241.082062 372.487688,243.123937 C372.476438,243.138937 372.465188,243.152062 372.453938,243.165187 L365.612063,252.405187 L360.348938,250.535812 L360.144563,249.857062 C359.606438,248.073937 358.258313,246.652687 356.510813,246.015187 L355.483313,242.617687 L350.955188,243.988312 L351.707063,246.480187 C348.782063,247.933312 347.591438,251.482687 349.046438,254.407687 C350.499563,257.332687 354.050813,258.525187 356.975813,257.068312 C357.894563,256.612687 358.678313,255.922687 359.250188,255.071437 L362.585813,256.286437 L360.101438,259.509562 C356.938313,258.692062 353.711438,260.593312 352.895813,263.756437 C352.078313,266.917687 353.979563,270.144562 357.140813,270.960187 C360.303938,271.777687 363.530813,269.876437 364.346438,266.715187 C364.625813,265.637062 364.593938,264.502687 364.254563,263.443312 C364.179563,263.055187 364.065188,262.674562 363.913313,262.308937 L379.136438,242.379562 Z M381.549563,247.085812 L386.077688,245.717062 L384.708938,241.188937 L380.180813,242.557687 L381.549563,247.085812 Z M383.606438,253.878937 C386.107688,253.121437 387.521438,250.481437 386.762063,247.980187 L382.233938,249.350812 L383.606438,253.878937 Z M379.492688,240.294562 L384.020813,238.923937 L382.652063,234.393937 L378.123938,235.766437 L379.492688,240.294562 Z M373.803938,229.657687 L369.275813,231.030187 L370.646438,235.558312 L375.174563,234.185812 L373.803938,229.657687 Z M360.219563,233.769562 L355.691438,235.140187 L357.062063,239.668312 L361.590188,238.299562 L360.219563,233.769562 Z M376.067063,228.973312 L377.439563,233.501437 L381.967688,232.130812 C381.208313,229.629562 378.568313,228.217687 376.067063,228.973312 L376.067063,228.973312 Z M367.010813,231.714562 L362.482688,233.083312 L363.855188,237.613312 L368.383313,236.242687 L367.010813,231.714562 Z M353.426438,235.824562 C350.925188,236.582062 349.511438,239.223937 350.268938,241.725187 L354.797063,240.352687 L353.426438,235.824562 Z" id="Fill-199" fill="#95E100"></path>
                    <path d="M318.18975,118.749 L313.97475,121.2915 C313.131,121.825875 312.0135,121.57275 311.481,120.729 C310.9485,119.883375 311.197875,118.76775 312.0435,118.23525 L316.11975,115.660875 C315.46725,115.13775 314.706,114.7665 313.890375,114.5715 C310.81725,113.932125 307.807875,115.899 307.16475,118.972125 C306.967875,119.919 307.012875,120.899625 307.29975,121.824 L296.59725,128.583375 C295.882875,128.904 295.56225,129.744 295.882875,130.46025 C296.2035,131.1765 297.045375,131.497125 297.75975,131.1765 C297.8835,131.122125 297.996,131.049 298.099125,130.960875 L308.801625,124.2015 C309.51975,124.908375 310.41225,125.41275 311.385375,125.66025 C314.44725,126.352125 317.490375,124.43025 318.18225,121.368375 C318.3885,120.50775 318.390375,119.6115 318.18975,118.749" id="Fill-201" fill="#F218CD"></path>
                    <g id="Group-205" transform="translate(114.375000, 279.375000)">
                        <mask id="mask-6" fill="white">
                            <use xlink:href="#path-5"></use>
                        </mask>
                        <g id="Clip-204"></g>
                        <path d="M0.6555,9.5870625 C0.6555,4.5283125 45.979875,0.4258125 101.888625,0.4258125 C157.797375,0.4258125 203.119875,4.5283125 203.119875,9.5870625 C203.119875,14.6476875 157.797375,18.7501875 101.888625,18.7501875 C45.979875,18.7501875 0.6555,14.6476875 0.6555,9.5870625" id="Fill-203" fill="#EDEDF2" mask="url(#mask-6)"></path>
                    </g>
                    <path d="M186.1065,266.262563 C185.568375,266.151938 185.0415,266.500688 184.930875,267.038813 C184.494,269.187563 183.89025,271.493813 182.889,273.494438 C182.624625,272.592563 182.253375,271.713188 181.959,271.010063 C181.8465,270.743813 181.739625,270.490688 181.698375,270.366938 C181.525875,269.845688 180.959625,269.566313 180.438375,269.740688 C179.91525,269.913188 179.634,270.477563 179.808375,271.000688 C179.872125,271.193813 179.980875,271.454438 180.1215,271.782563 C180.4215,272.496938 180.87525,273.575063 181.102125,274.553813 C181.345875,275.600063 181.2165,276.055688 181.10025,276.156938 C181.045875,276.209438 180.99525,276.263813 180.954,276.321938 C179.95275,277.373813 178.7115,278.174438 177.159,278.579438 L174.715875,263.581313 C174.355875,261.383813 172.285875,259.893188 170.088375,260.251313 C167.890875,260.607563 166.40025,262.681313 166.758375,264.878813 L171.040875,291.158813 C171.397125,293.356313 179.354625,292.060688 178.9965,289.863188 L177.479625,280.555688 C179.6115,280.041938 181.2615,278.946938 182.549625,277.529438 C182.5815,277.493813 182.613375,277.460063 182.643375,277.422563 C185.107125,274.643813 186.22275,270.678188 186.884625,267.438188 C186.99525,266.898188 186.6465,266.373188 186.1065,266.262563" id="Fill-206" fill="#DE9B59"></path>
                    <path d="M189.3915,242.061375 C188.859,241.678875 188.302125,241.35075 187.73025,241.075125 C188.049,240.74325 188.349,240.385125 188.6265,240.002625 C191.7765,235.622625 190.78275,229.517625 186.40275,226.363875 C182.0415,223.225125 175.972125,224.200125 172.807125,228.5295 C172.2765,227.181375 171.369,225.9645 170.10525,225.055125 C166.604625,222.535125 161.722125,223.330125 159.20025,226.83075 C158.84025,227.33325 158.549625,227.863875 158.32275,228.411375 C154.102125,227.13075 149.354625,228.58575 146.634,232.36575 C143.489625,236.7345 144.14775,242.682 147.959625,246.276375 C145.773375,246.917625 143.7765,248.263875 142.34025,250.255125 C138.918375,255.010125 139.998375,261.642 144.753375,265.06575 C147.16275,266.79825 150.05025,267.37575 152.75775,266.907 C152.620875,269.065125 153.562125,271.242 155.4465,272.5995 C158.358375,274.69575 162.419625,274.03575 164.515875,271.122 C164.808375,270.717 165.0465,270.2895 165.23025,269.847 C165.27525,269.88075 165.3165,269.9145 165.363375,269.94825 C170.03025,273.30825 176.54025,272.248875 179.90025,267.57825 C181.044,265.990125 181.674,264.18825 181.825875,262.371375 C185.647125,262.708875 189.543375,261.085125 191.94525,257.743875 C195.5715,252.7095 194.42775,245.687625 189.3915,242.061375" id="Fill-208" fill="#A5F894"></path>
                    <path d="M153.768375,265.780875 L153.693375,266.96775 C153.5715,268.8915 154.432125,270.714 155.994,271.839 C158.48025,273.62775 161.965875,273.063375 163.754625,270.57525 C164.00025,270.234 164.204625,269.868375 164.365875,269.485875 L164.830875,268.375875 L165.79275,269.09775 C167.962125,270.667125 170.470875,271.263375 172.97025,270.849 C175.469625,270.442125 177.659625,269.0865 179.137125,267.0315 C180.142125,265.6365 180.749625,263.999625 180.892125,262.293375 L180.970875,261.355875 L181.908375,261.438375 C185.529,261.745875 189.07275,260.129625 191.184,257.197125 C194.50275,252.588375 193.45275,246.14025 188.844,242.823375 C188.36775,242.48025 187.85775,242.1765 187.323375,241.91775 L186.159,241.357125 L187.05525,240.42525 C187.344,240.123375 187.615875,239.80275 187.867125,239.454 C190.709625,235.503375 189.809625,229.97025 185.85525,227.125875 C181.930875,224.2965 176.4165,225.17775 173.564625,229.083375 L172.559625,230.45775 L171.93525,228.873375 C171.4515,227.64525 170.628375,226.58775 169.55775,225.81525 C166.48275,223.60275 162.175875,224.302125 159.9615,227.379 C159.654,227.8065 159.393375,228.27525 159.189,228.77025 L158.86275,229.555875 L158.049,229.308375 C154.098375,228.108375 149.81025,229.55775 147.397125,232.914 C144.573375,236.834625 145.09275,242.28525 148.60275,245.59275 L149.793375,246.715875 L148.224,247.17525 C146.144625,247.784625 144.370875,249.039 143.1015,250.803375 C141.592125,252.899625 140.992125,255.459 141.4065,258.009 C141.82275,260.560875 143.204625,262.794 145.300875,264.303375 C147.42525,265.833375 150.009,266.425875 152.598375,265.983375 L153.768375,265.780875 Z M159.232125,274.758375 C157.7265,274.758375 156.209625,274.304625 154.899,273.3615 C153.114,272.07525 152.01525,270.115875 151.833375,267.967125 C149.118375,268.184625 146.4465,267.438375 144.205875,265.824 C139.04025,262.105875 137.860875,254.87775 141.579,249.708375 C142.80525,248.00775 144.423375,246.700875 146.309625,245.879625 C143.047125,241.89525 142.795875,236.092125 145.87275,231.819 C148.599,228.033375 153.307125,226.278375 157.807125,227.304 C157.994625,226.949625 158.2065,226.6065 158.439,226.284 C161.259,222.369 166.735875,221.478375 170.65275,224.29275 C171.607125,224.980875 172.404,225.84525 173.0115,226.837125 C176.643375,223.0965 182.604,222.475875 186.95025,225.6015 C191.74275,229.0515 192.835875,235.758375 189.38775,240.550875 C189.324,240.637125 189.262125,240.723375 189.1965,240.80775 C189.449625,240.963375 189.699,241.128375 189.939,241.299 C195.385875,245.223375 196.627125,252.84525 192.708375,258.292125 C190.419,261.472125 186.697125,263.350875 182.80275,263.350875 L182.647125,263.350875 C182.364,265.068375 181.68525,266.703375 180.659625,268.1265 C178.88775,270.5865 176.264625,272.212125 173.272125,272.699625 C170.57775,273.14025 167.883375,272.6115 165.580875,271.214625 C165.48525,271.37025 165.384,271.522125 165.279,271.67025 C163.825875,273.685875 161.544,274.758375 159.232125,274.758375 L159.232125,274.758375 Z" id="Fill-210" fill="#00B300"></path>
                    <path d="M171.478313,279.283125 C171.341438,279.305625 171.197063,279.3 171.050813,279.25875 C165.977063,277.858125 159.155812,275.180625 158.499563,268.164375 C158.448937,267.616875 158.852063,267.13125 159.399563,267.07875 C159.948937,267.028125 160.432687,267.43125 160.485187,267.980625 C161.019563,273.703125 166.697063,275.986875 171.585188,277.336875 C172.115813,277.483125 172.427063,278.0325 172.278938,278.563125 C172.172063,278.95125 171.849562,279.223125 171.478313,279.283125" id="Fill-212" fill="#CC7700"></path>
                    <path d="M174.779625,237.868313 C175.84275,237.515812 176.9865,238.087687 177.339,239.152688 L178.76775,243.465188 C179.12025,244.530188 177.989625,243.988313 176.9265,244.340813 C175.8615,244.693313 175.274625,245.795813 174.924,244.738313 L173.49525,240.425813 C173.14275,239.362688 173.724,238.218938 174.779625,237.868313" id="Fill-214" fill="#009900"></path>
                    <path d="M175.451625,245.745563 C175.230375,245.818688 174.975375,245.771813 174.801,245.591813 C174.551625,245.338688 174.559125,244.939313 174.802875,244.691813 C175.879125,243.628688 177.341625,243.118687 178.811625,243.300563 C179.160375,243.343688 179.406,243.660563 179.362875,244.007438 C179.31975,244.358063 179.006625,244.603688 178.656,244.560563 C177.57225,244.425563 176.497875,244.800563 175.699125,245.584313 C175.627875,245.661188 175.54725,245.713688 175.451625,245.745563" id="Fill-216" fill="#00D000"></path>
                    <path d="M157.340625,243.648938 C158.40375,243.296438 159.5475,243.870188 159.898125,244.935188 L161.32875,249.245813 C161.68125,250.310813 160.550625,249.768938 159.485625,250.121438 C158.420625,250.475813 157.835625,251.578313 157.485,250.520813 L156.054375,246.208313 C155.701875,245.143313 156.285,243.999563 157.340625,243.648938" id="Fill-218" fill="#009900"></path>
                    <path d="M158.012625,251.526187 C157.7895,251.599312 157.536375,251.552437 157.360125,251.372437 C157.11075,251.119313 157.11825,250.719937 157.362,250.472437 C158.440125,249.411188 159.90075,248.901188 161.37075,249.081188 C161.721375,249.126188 161.965125,249.441188 161.923875,249.789938 C161.88075,250.138688 161.56575,250.384312 161.215125,250.341187 C160.131375,250.208063 159.057,250.581187 158.25825,251.364937 C158.187,251.441812 158.098875,251.496187 158.012625,251.526187" id="Fill-220" fill="#00D000"></path>
                    <path d="M181.607625,247.935375 C181.1895,248.031 180.777,248.13975 180.372,248.2485 C180.27075,248.317875 179.99325,248.4885 179.562,248.7285 C178.9995,249.00225 178.2345,249.486 177.267,249.9135 C176.293875,250.331625 175.17825,250.9035 173.950125,251.37225 C172.72575,251.876625 171.396375,252.336 170.0595,252.795375 C168.717,253.2135 167.368875,253.642875 166.086375,253.971 C164.8095,254.3235 163.585125,254.53725 162.55575,254.779125 C161.522625,255.015375 160.615125,255.096 160.00575,255.202875 C159.516375,255.266625 159.182625,255.2985 159.06825,255.30225 C158.665125,255.461625 158.271375,255.6285 157.86825,255.795375 C157.8195,255.81225 157.780125,255.8535 157.742625,255.8985 C157.6395,256.039125 157.67325,256.249125 157.817625,256.35975 L158.13825,256.61475 C158.878875,257.197875 159.583875,257.677875 160.262625,258.052875 C160.941375,258.44475 161.590125,258.757875 162.238875,259.03725 C163.513875,259.58475 164.717625,259.897875 165.8895,260.10975 C166.20825,260.16225 166.512,260.175375 166.821375,260.205375 C167.980125,258.649125 170.202,259.500375 172.067625,258.881625 C173.94075,258.261 175.217625,256.2585 177.0795,256.822875 C177.310125,256.61475 177.537,256.4235 177.762,256.200375 C178.566375,255.32475 179.34825,254.361 180.0495,253.14975 C180.3945,252.54225 180.72825,251.902875 181.041375,251.1735 C181.3545,250.470375 181.6395,249.652875 181.88325,248.7435 L181.98825,248.3385 C181.99575,248.284125 182.005125,248.227875 181.986375,248.171625 C181.95075,248.0085 181.772625,247.897875 181.607625,247.935375" id="Fill-222" fill="#009900"></path>
                    <path d="M162.555563,254.779875 C163.584938,254.536125 164.818687,254.322375 166.086187,253.969875 C167.368688,253.643625 168.709313,253.216125 170.059313,252.79425 C171.384938,252.32925 172.725563,251.8755 173.949938,251.373 C175.183688,250.894875 176.293688,250.332375 177.266813,249.912375 C178.234312,249.48675 179.010562,249.008625 179.561813,248.727375 C179.993063,248.48925 180.270563,248.318625 180.371813,248.24925 C179.771813,248.404875 179.171812,248.568 178.579312,248.719875 L175.571813,249.59175 C173.574938,250.18425 171.596813,250.838625 169.609313,251.463 C167.642437,252.151125 165.664313,252.8055 163.706813,253.5255 L160.774313,254.6205 C160.208063,254.853 159.638063,255.076125 159.073688,255.308625 C159.182437,255.297375 159.519937,255.27675 160.009312,255.20925 C160.614938,255.09675 161.522437,255.016125 162.555563,254.779875" id="Fill-224" fill="#009900"></path>
                    <path d="M177.106875,256.828875 C177.114375,256.825125 177.114375,256.825125 177.12,256.813875 C175.261875,256.258875 173.619375,257.181375 171.83625,258.028875 L171.830625,258.03075 L171.82125,258.0345 C169.88625,258.418875 168.009375,258.66075 166.858125,260.215125 C166.8675,260.211375 166.869375,260.22075 166.876875,260.217 C166.869375,260.22075 166.87125,260.226375 166.86375,260.230125 C168.795,260.4195 170.589375,260.222625 172.276875,259.671375 C172.30125,259.663875 172.333125,259.662 172.3575,259.652625 L172.366875,259.65075 L172.374375,259.648875 C172.396875,259.6395 172.426875,259.62075 172.45125,259.61325 C174.13125,259.048875 175.689375,258.13575 177.125625,256.83075 C177.114375,256.825125 177.114375,256.825125 177.106875,256.828875" id="Fill-226" fill="#00D000"></path>
                    <path d="M339.602063,166.47 C339.208313,166.47 338.844563,166.220625 338.711438,165.82875 L337.462688,162.07875 C337.299563,161.5875 337.565812,161.056875 338.057063,160.891875 C338.550187,160.72875 339.078938,160.995 339.243938,161.48625 L340.492687,165.23625 C340.655813,165.7275 340.389563,166.258125 339.898312,166.423125 C339.798938,166.455 339.701437,166.47 339.602063,166.47" id="Fill-228" fill="#E1E1E6"></path>
                    <path d="M343.352063,225.22125 C343.008938,225.22125 342.678938,225.03 342.513937,224.70375 L340.014563,219.703125 C339.783938,219.24 339.969562,218.675625 340.432688,218.445 C340.895813,218.2125 341.458313,218.4 341.690813,218.863125 L344.190188,223.86375 C344.420813,224.326875 344.235188,224.89125 343.772063,225.121875 C343.635188,225.189375 343.492687,225.22125 343.352063,225.22125" id="Fill-230" fill="#E1E1E6"></path>
                    <path d="M400.228313,270.22125 C400.128938,270.22125 400.031438,270.20625 399.932063,270.174375 L394.307063,268.299375 C393.815813,268.134375 393.549563,267.60375 393.712688,267.1125 C393.879563,266.62125 394.412063,266.356875 394.899563,266.518125 L400.524563,268.393125 C401.015813,268.558125 401.282063,269.08875 401.118938,269.58 C400.985813,269.971875 400.620188,270.22125 400.228313,270.22125" id="Fill-232" fill="#E1E1E6"></path>
                    <path d="M371.477063,218.97 C371.208938,218.97 370.942688,218.85375 370.757063,218.6325 L364.507688,211.1325 C364.175813,210.735 364.230188,210.144375 364.627688,209.8125 C365.023313,209.480625 365.613938,209.533125 365.947688,209.9325 L372.197063,217.4325 C372.528938,217.83 372.474563,218.420625 372.077063,218.7525 C371.902688,218.89875 371.688938,218.97 371.477063,218.97" id="Fill-234" fill="#E1E1E6"></path>
                    <path d="M523.978313,196.47 C523.727062,196.47 523.473938,196.36875 523.290188,196.17 C522.937688,195.79125 522.962063,195.196875 523.340813,194.844375 L532.147688,186.684375 C532.528313,186.3375 533.120813,186.354375 533.473313,186.736875 C533.825813,187.115625 533.801438,187.708125 533.422688,188.0625 L524.615813,196.220625 C524.433938,196.3875 524.207063,196.47 523.978313,196.47" id="Fill-236" fill="#E1E1E6"></path>
                    <path d="M305.227688,135.845625 C304.944563,135.845625 304.661438,135.71625 304.477688,135.470625 L302.602688,132.97125 C302.293313,132.556875 302.375813,131.97 302.790188,131.65875 C303.202688,131.349375 303.791438,131.431875 304.102688,131.84625 L305.977688,134.345625 C306.287063,134.76 306.204563,135.346875 305.790188,135.658125 C305.621438,135.785625 305.422688,135.845625 305.227688,135.845625" id="Fill-238" fill="#E1E1E6"></path>
                    <path d="M437.374875,90.439125 C431.2605,87.321 438.196125,114.469125 444.11925,115.686 C450.038625,116.901 455.84175,110.689125 455.082375,104.362875 C454.32675,98.036625 448.173,95.947875 437.374875,90.439125" id="Fill-240" fill="#FFC44D"></path>
                </g>
                <g id="Group-245" transform="translate(433.125000, 90.780000)">
                    <mask id="mask-8" fill="white">
                        <use xlink:href="#path-7"></use>
                    </mask>
                    <g id="Clip-244"></g>
                    <path d="M-2.34375,-8.168625 C-8.458125,-11.288625 -1.400625,15.377625 4.400625,17.07825 C10.719375,18.93075 17.92125,12.93075 15.365625,5.755125 C13.228125,-0.248625 8.454375,-2.659875 -2.34375,-8.168625" id="Fill-243" fill="#FFAA00" mask="url(#mask-8)"></path>
                </g>
                <path d="M434.450625,82.860375 C430.10625,79.447875 431.37,101.9685 435.860625,103.849125 C440.349375,105.72975 445.895625,101.722875 446.28,96.606 C446.664375,91.492875 442.126875,88.8885 434.450625,82.860375" id="Fill-246" fill="#FFC44D"></path>
                <g id="Group-250" transform="translate(431.250000, 81.405000)">
                    <mask id="mask-10" fill="white">
                        <use xlink:href="#path-9"></use>
                    </mask>
                    <g id="Clip-249"></g>
                    <path d="M-0.670125,-6.3688125 C-5.0145,-9.7794375 -3.628875,12.4749375 0.738,14.6199375 C5.9955,17.2036875 12.1455,12.7036875 11.157375,7.3786875 C10.223625,2.3368125 7.00425,-0.3388125 -0.670125,-6.3688125" id="Fill-248" fill="#FFAA00" mask="url(#mask-10)"></path>
                </g>
                <path d="M433.881188,76.0104375 C431.269313,72.5341875 427.667438,89.9191875 430.699313,92.2591875 C433.731188,94.5973125 438.763688,92.6754375 440.093063,88.8616875 C441.420563,85.0498125 438.497438,82.1491875 433.881188,76.0104375" id="Fill-251" fill="#FFC44D"></path>
                <g id="Group-255" transform="translate(429.375000, 73.905000)">
                    <mask id="mask-12" fill="white">
                        <use xlink:href="#path-11"></use>
                    </mask>
                    <g id="Clip-254"></g>
                    <path d="M3.1475625,-4.6310625 C0.5338125,-8.1073125 -2.7699375,8.9364375 -0.0343125,11.6195625 C3.5188125,15.1033125 9.6706875,12.2533125 9.3575625,8.2220625 C9.0463125,4.1964375 7.7638125,1.5095625 3.1475625,-4.6310625" id="Fill-253" fill="#FFAA00" mask="url(#mask-12)"></path>
                </g>
                <g id="Group-274" transform="translate(401.250000, 68.280000)">
                    <path d="M33.3673125,2.077875 C31.8148125,-1.079625 26.3341875,12.19725 28.3929375,14.51475 C30.4498125,16.830375 34.7379375,16.057875 36.3691875,13.226625 C38.0004375,10.39725 36.1123125,7.654125 33.3673125,2.077875" id="Fill-256" fill="#FFC44D"></path>
                    <path d="M41.84325,47.8816875 C41.440125,47.8816875 41.03325,47.7523125 40.692,47.4841875 C40.3995,47.2573125 33.537,41.8029375 29.937,30.8379375 C24.827625,15.2773125 29.991375,2.6079375 30.212625,2.0773125 C30.610125,1.1248125 31.701375,0.6785625 32.66325,1.0704375 C33.61575,1.4679375 34.0695,2.5648125 33.673875,3.5210625 C33.625125,3.6391875 28.842,15.4873125 33.501375,29.6698125 C36.747,39.5623125 42.936375,44.4804375 42.99825,44.5291875 C43.81575,45.1666875 43.960125,46.3460625 43.322625,47.1598125 C42.95325,47.6341875 42.402,47.8816875 41.84325,47.8816875" id="Fill-258" fill="#FFAA00"></path>
                    <path d="M97.6629375,107.25375 C97.5316875,107.25375 97.3948125,107.225625 97.2673125,107.165625 C96.7985625,106.948125 96.5960625,106.39125 96.8135625,105.920625 C96.8529375,105.834375 100.880438,97.14 103.027313,91.006875 C105.159188,84.920625 106.717313,72.88125 106.732313,72.76125 C106.797938,72.2475 107.274187,71.87625 107.780438,71.949375 C108.296063,72.015 108.657937,72.485625 108.592313,72.9975 C108.528563,73.5 106.992938,85.355625 104.797313,91.625625 C102.620438,97.84875 98.5554375,106.62375 98.5123125,106.711875 C98.3548125,107.053125 98.0154375,107.25375 97.6629375,107.25375" id="Fill-260" fill="#C8C8CC"></path>
                    <path d="M91.7248125,109.12875 C91.3085625,109.12875 90.9298125,108.85125 90.8191875,108.43125 C90.6860625,107.92875 90.9841875,107.416875 91.4848125,107.285625 C91.6516875,107.240625 108.129188,102.8925 113.709188,101.65125 C119.330438,100.404375 127.451063,98.529375 127.452938,98.529375 L127.872938,100.355625 C127.872938,100.355625 119.742938,102.230625 114.114188,103.48125 C108.571688,104.715 92.1298125,109.05375 91.9648125,109.096875 C91.8841875,109.119375 91.8035625,109.12875 91.7248125,109.12875" id="Fill-262" fill="#C8C8CC"></path>
                    <path d="M135.899063,114.587062 C135.315938,114.587062 134.708438,114.538312 134.076563,114.437062 C131.682187,114.054562 129.878438,112.985812 128.714063,111.257062 C126.484688,107.945812 127.491563,103.442062 127.534688,103.252687 C127.652812,102.748312 128.164688,102.444562 128.657812,102.549562 C129.162187,102.667687 129.477188,103.168312 129.362813,103.674562 C129.353438,103.712062 128.498438,107.589562 130.274063,110.216437 C131.136562,111.493312 132.514688,112.288312 134.372812,112.584562 C136.459687,112.914562 138.169688,112.592062 139.440938,111.615187 C141.512813,110.021437 141.827812,107.167687 141.831562,107.137687 C141.884063,106.625812 142.315313,106.269562 142.857188,106.299562 C143.369062,106.350187 143.747812,106.807687 143.697187,107.321437 C143.682188,107.471437 143.312813,110.990812 140.599688,113.088937 C139.309688,114.086437 137.734688,114.587062 135.899063,114.587062" id="Fill-264" fill="#C8C8CC"></path>
                    <path d="M6.049875,142.56375 C5.776125,142.56375 5.50425,142.54125 5.236125,142.494375 C3.95175,142.269375 2.918625,141.508125 2.168625,140.23125 C1.411125,138.945 1.261125,137.604375 1.71675,136.243125 C3.102375,132.13125 9.833625,129.31875 10.118625,129.200625 C10.602375,129.001875 11.146125,129.230625 11.341125,129.710625 C11.539875,130.186875 11.311125,130.734375 10.833,130.933125 C9.10425,131.6475 4.414875,134.1 3.496125,136.84125 C3.214875,137.6775 3.308625,138.4725 3.783,139.27875 C4.249875,140.07375 4.831125,140.52 5.5605,140.6475 C8.123625,141.0975 12.0705,137.791875 14.20425,136.021875 C14.72925,135.583125 15.183,135.208125 15.53925,134.941875 C18.038625,133.06875 35.84925,119.630625 35.84925,119.630625 L36.976125,121.126875 C36.976125,121.126875 19.16175,134.565 16.662375,136.441875 C16.32675,136.693125 15.89925,137.05125 15.4005,137.46375 C12.918,139.528125 9.263625,142.56375 6.049875,142.56375" id="Fill-266" fill="#C8C8CC"></path>
                    <path d="M47.3491875,48.504375 C46.9573125,48.504375 46.5935625,48.256875 46.4604375,47.865 C46.2954375,47.37375 46.5616875,46.843125 47.0510625,46.678125 C47.2929375,46.595625 52.9741875,44.60625 52.9741875,38.81625 C52.9741875,32.85375 46.8223125,29.094375 46.7604375,29.05875 C46.6198125,28.97625 46.5054375,28.85625 46.4266875,28.7175 C46.4116875,28.693125 45.0091875,26.23875 43.2485625,24.48 C41.4916875,22.72125 39.4048125,21.5175 39.3841875,21.508125 C39.1404375,21.365625 38.9698125,21.12375 38.9248125,20.84625 C38.9210625,20.8275 38.6098125,18.999375 37.7098125,16.30125 C37.0535625,14.32875 36.3110625,14.16375 36.3035625,14.161875 C36.0373125,14.16375 35.8104375,14.056875 35.6229375,13.84875 C35.4391875,13.6425 35.4016875,13.366875 35.4391875,13.093125 C35.4504375,13.02 36.4516875,5.698125 32.7860625,2.814375 C32.3810625,2.495625 32.3098125,1.905 32.6304375,1.498125 C32.9510625,1.093125 33.5435625,1.02375 33.9485625,1.3425 C37.7079375,4.30125 37.5616875,10.42875 37.3798125,12.594375 C38.0360625,12.975 38.8629375,13.82625 39.4910625,15.70875 C40.1885625,17.80125 40.5448125,19.381875 40.6910625,20.105625 C41.4241875,20.56125 43.0835625,21.661875 44.5760625,23.1525 C46.2241875,24.8025 47.5385625,26.915625 47.9341875,27.585 C49.1398125,28.365 54.8491875,32.405625 54.8491875,38.81625 C54.8491875,45.97125 47.7166875,48.433125 47.6454375,48.4575 C47.5460625,48.489375 47.4485625,48.504375 47.3491875,48.504375" id="Fill-268" fill="#FFAA00"></path>
                    <path d="M109.976813,73.891875 C105.191813,73.891875 102.641813,71.998125 101.061188,70.415625 C99.1130625,68.4675 98.1080625,64.46625 97.7893125,62.98125 C95.8336875,62.323125 89.2130625,59.75625 84.4299375,53.776875 C80.0518125,48.305625 78.9211875,42.215625 78.6680625,40.378125 C77.3143125,39.70875 73.5961875,37.65 72.4224375,34.798125 C70.0505625,29.041875 72.7505625,25.565625 72.8668125,25.4175 C73.1911875,25.018125 73.7799375,24.950625 74.1849375,25.27125 C74.5880625,25.59375 74.6536875,26.180625 74.3349375,26.585625 C74.2486875,26.69625 72.2236875,29.4 74.1549375,34.085625 C75.0943125,36.361875 78.6305625,38.32875 79.9149375,38.895 C80.2280625,39.03375 80.4418125,39.33 80.4718125,39.67125 C80.4774375,39.740625 81.1430625,46.666875 85.8943125,52.605 C91.0599375,59.0625 98.7793125,61.33125 98.8561875,61.35375 C99.2030625,61.449375 99.4618125,61.738125 99.5236875,62.090625 C99.7730625,63.489375 100.768688,67.471875 102.386813,69.09 C104.211188,70.91625 107.143688,72.85875 113.741813,71.64375 C114.257438,71.56125 114.739313,71.885625 114.834938,72.395625 C114.928688,72.905625 114.591188,73.393125 114.081188,73.48875 C112.554938,73.77 111.191813,73.891875 109.976813,73.891875" id="Fill-270" fill="#F218CD"></path>
                    <path d="M121.659,178.9395 C121.375875,178.9395 121.09275,178.810125 120.910875,178.5645 C120.599625,178.150125 120.682125,177.56325 121.0965,177.253875 C130.0965,170.492625 133.972125,162.852 134.0115,162.775125 C134.24025,162.310125 134.808375,162.118875 135.26775,162.35325 C135.730875,162.583875 135.918375,163.146375 135.689625,163.6095 C135.5265,163.937625 131.60025,171.711375 122.2215,178.750125 C122.05275,178.8795 121.854,178.9395 121.659,178.9395" id="Fill-272" fill="#F218CD"></path>
                </g>
            </g>
        </g>
    </g>
</svg>
