<?xml version="1.0" encoding="UTF-8" standalone="no"?>
<svg
   xmlns:dc="http://purl.org/dc/elements/1.1/"
   xmlns:cc="http://creativecommons.org/ns#"
   xmlns:rdf="http://www.w3.org/1999/02/22-rdf-syntax-ns#"
   xmlns:svg="http://www.w3.org/2000/svg"
   xmlns="http://www.w3.org/2000/svg"
   xmlns:xlink="http://www.w3.org/1999/xlink"
   xmlns:sodipodi="http://sodipodi.sourceforge.net/DTD/sodipodi-0.dtd"
   xmlns:inkscape="http://www.inkscape.org/namespaces/inkscape"
   width="688.99908"
   height="297.03049"
   viewBox="0 0 688.99908 297.03049"
   version="1.1"
   id="svg214"
   sodipodi:docname="artistic-unicorn.svg"
   inkscape:version="0.92.2 5c3e80d, 2017-08-06">
  <metadata
     id="metadata218">
    <rdf:RDF>
      <cc:Work
         rdf:about="">
        <dc:format>image/svg+xml</dc:format>
        <dc:type
           rdf:resource="http://purl.org/dc/dcmitype/StillImage" />
        <dc:title>artistic-unicorn</dc:title>
      </cc:Work>
    </rdf:RDF>
  </metadata>
  <sodipodi:namedview
     pagecolor="#ffffff"
     bordercolor="#666666"
     borderopacity="1"
     objecttolerance="10"
     gridtolerance="10"
     guidetolerance="10"
     inkscape:pageopacity="0"
     inkscape:pageshadow="2"
     inkscape:window-width="1683"
     inkscape:window-height="1005"
     id="namedview216"
     showgrid="false"
     fit-margin-top="0"
     fit-margin-left="0"
     fit-margin-right="0"
     fit-margin-bottom="0"
     inkscape:zoom="2.1814252"
     inkscape:cx="344.49954"
     inkscape:cy="148.51524"
     inkscape:window-x="0"
     inkscape:window-y="390"
     inkscape:window-maximized="0"
     inkscape:current-layer="svg214" />
  <!-- Generator: Sketch 46.2 (44496) - http://www.bohemiancoding.com/sketch -->
  <title
     id="title10">artistic-unicorn</title>
  <desc
     id="desc12">Created with Sketch.</desc>
  <defs
     id="defs20">
    <polygon
       id="path-1"
       points="0.6555,0.4258125 123.3855,0.4258125 123.3855,18.75 0.6555,18.75 " />
    <polygon
       id="path-3"
       points="151.60219,32.107062 0.8728125,32.107062 0.8728125,0.095 151.60219,0.095 " />
    <polygon
       id="path-5"
       points="0.6555,0.4258125 203.11988,0.4258125 203.11988,18.75 0.6555,18.75 " />
    <path
       d="M 4.0571231,17.417897 C 1.099056,9.9626879 -0.47314003,0.18818694 2.3675,0.189375 c 0.256875,0 0.55125,0.080625 0.88125,0.249375 4.8360447,2.4675582 8.740476,4.248625 11.645788,6.0312274 V 17.417897 Z"
       id="path-7"
       inkscape:connector-curvature="0" />
    <path
       d="M 1.2754503,14.370207 C 0.04582521,8.1326329 0.24168237,0.10317468 2.36625,0.104375 c 0.25125,0 0.52875,0.1125 0.834375,0.3525 3.3243277,2.6097678 6.0599932,4.5777742 8.062171,6.3857059 v 7.5276261 z"
       id="path-9"
       inkscape:connector-curvature="0" />
    <path
       d="M 0.17935406,12.187357 C 0.33261119,7.2231968 2.1125586,0.64625 3.78,0.64625 c 0.245625,0 0.49125,0.144375 0.7275,0.459375 2.013461,2.6794331 3.7049127,4.7416221 4.861569,6.53176 v 4.549972 z"
       id="path-11"
       inkscape:connector-curvature="0" />
  </defs>
  <g
     id="Page-1"
     style="fill:none;fill-rule:evenodd;stroke:none;stroke-width:1"
     transform="translate(-9.375e-4,-0.87469094)">
    <g
       id="artistic-unicorn">
      <path
         d="M 587.85021,20.9 C 621.56681,20.9033 655.2834,20.9067 689,20.91"
         id="Path"
         inkscape:connector-curvature="0" />
      <g
         id="Group-242"
         transform="translate(0,0.78)">
        <path
           d="m 588.74625,134.8145 h -113.79 c -1.03688,0 -1.875,-0.83813 -1.875,-1.875 0,-1.03688 0.83812,-1.875 1.875,-1.875 h 113.79 c 1.03688,0 1.875,0.83812 1.875,1.875 0,1.03687 -0.83812,1.875 -1.875,1.875"
           id="Fill-1"
           inkscape:connector-curvature="0"
           style="fill:#e1e1e6;fill-rule:nonzero" />
        <path
           d="m 569.54962,125.64631 h -50.37937 c -0.51937,0 -0.9375,-0.42 -0.9375,-0.9375 0,-0.5175 0.41813,-0.9375 0.9375,-0.9375 h 50.37937 c 0.51751,0 0.9375,0.42 0.9375,0.9375 0,0.5175 -0.41999,0.9375 -0.9375,0.9375"
           id="Fill-3"
           inkscape:connector-curvature="0"
           style="fill:#e1e1e6;fill-rule:nonzero" />
        <path
           d="m 584.35537,142.10937 h -171.2475 c -0.5175,0 -0.9375,-0.42 -0.9375,-0.9375 0,-0.5175 0.42,-0.9375 0.9375,-0.9375 h 171.2475 c 0.51751,0 0.9375,0.42 0.9375,0.9375 0,0.5175 -0.41999,0.9375 -0.9375,0.9375"
           id="Fill-5"
           inkscape:connector-curvature="0"
           style="fill:#e1e1e6;fill-rule:nonzero" />
        <path
           d="m 467.02144,206.19631 c 0,0 -6.68438,8.63438 1.09687,18.80063 9.17813,11.9925 24.62813,8.69437 33.17438,1.74375 17.4,-14.1525 28.21687,-2.55563 28.21687,-2.55563 0,0 0.60188,-15.64687 -18.57187,-23.58187 -19.17563,-7.93875 -43.91625,5.59312 -43.91625,5.59312"
           id="Fill-7"
           inkscape:connector-curvature="0"
           style="fill:#ff66ed;fill-rule:nonzero" />
        <g
           id="Group-11"
           transform="translate(408.75,278.375)">
          <g
             id="Fill-9-Clipped">
            <g
               id="g33">
              <mask
                 id="mask-2"
                 fill="white">
                <use
                   xlink:href="#path-1"
                   id="use27"
                   x="0"
                   y="0"
                   width="100%"
                   height="100%" />
              </mask>
              <g
                 id="g30" />
              <path
                 d="m 0.6555,9.5870625 c 0,-5.05875 27.474375,-9.16125 61.366875,-9.16125 33.890625,0 61.363125,4.1025 61.363125,9.16125 0,5.0606255 -27.4725,9.1631245 -61.363125,9.1631245 -33.8925,0 -61.366875,-4.102499 -61.366875,-9.1631245"
                 id="Fill-9"
                 mask="url(#mask-2)"
                 inkscape:connector-curvature="0"
                 style="fill:#ededf2;fill-rule:nonzero" />
            </g>
          </g>
        </g>
        <path
           d="m 499.26637,241.1255 c 0,0 -8.10187,-7.32 -2.23499,-18.70125 6.92062,-13.42125 22.70999,-12.9 32.34937,-7.56188 19.61812,10.86188 28.2225,-2.45812 28.2225,-2.45812 0,0 3.35063,15.29437 -14.1225,26.48625 -17.475,11.19188 -44.21438,2.235 -44.21438,2.235"
           id="Fill-12"
           inkscape:connector-curvature="0"
           style="fill:#ff66ed;fill-rule:nonzero" />
        <path
           d="m 477.79912,256.60344 c 0,0 -14.20687,-5.2725 -12.495,-22.95563 2.01938,-20.85562 22.63876,-28.30312 37.80375,-26.37937 30.87563,3.91125 35.11688,-17.68125 35.11688,-17.68125 0,0 12.18187,17.99062 -4.58813,41.4 -16.76625,23.40937 -55.8375,25.61625 -55.8375,25.61625"
           id="Fill-14"
           inkscape:connector-curvature="0"
           style="fill:#ff99f9;fill-rule:nonzero" />
        <path
           d="M 409.78631,88.659125 H 295.99444 c -1.03688,0 -1.875,-0.838125 -1.875,-1.875 0,-1.036875 0.83812,-1.875 1.875,-1.875 h 113.79187 c 1.03688,0 1.875,0.838125 1.875,1.875 0,1.036875 -0.83812,1.875 -1.875,1.875"
           id="Fill-16"
           inkscape:connector-curvature="0"
           style="fill:#e1e1e6;fill-rule:nonzero" />
        <path
           d="m 394.41281,80.113625 h -28.545 c -0.5175,0 -0.9375,-0.42 -0.9375,-0.9375 0,-0.5175 0.42,-0.9375 0.9375,-0.9375 h 28.545 c 0.5175,0 0.9375,0.42 0.9375,0.9375 0,0.5175 -0.42,0.9375 -0.9375,0.9375"
           id="Fill-18"
           inkscape:connector-curvature="0"
           style="fill:#e1e1e6;fill-rule:nonzero" />
        <path
           d="M 368.53631,95.952125 H 197.28694 c -0.5175,0 -0.9375,-0.42 -0.9375,-0.9375 0,-0.5175 0.42,-0.9375 0.9375,-0.9375 h 171.24937 c 0.5175,0 0.9375,0.42 0.9375,0.9375 0,0.5175 -0.42,0.9375 -0.9375,0.9375"
           id="Fill-20"
           inkscape:connector-curvature="0"
           style="fill:#e1e1e6;fill-rule:nonzero" />
        <path
           d="m 501.10106,41.30075 v 0 c -0.52875,0 -1.065,0.03375 -1.59375,0.0975 -2.85937,0.350625 -5.52187,1.65 -7.56562,3.67875 -3.92063,0.725625 -7.755,1.8975 -11.42438,3.489375 -1.03312,-0.260625 -2.09812,-0.39 -3.1725,-0.39 -6.45187,0 -11.97,4.850625 -12.87,11.17125 -0.26062,0.255 -0.5175,0.508125 -0.77062,0.766875 -5.79938,1.39875 -9.94875,6.61875 -9.94875,12.639375 0,0.42 0.0263,0.8475 0.0769,1.3125 -0.75,1.535625 -1.42312,3.091875 -2.00437,4.6425 -2.28375,1.27875 -3.71813,3.688125 -3.71813,6.350625 0,1.321875 0.36,2.596875 1.05,3.73125 -0.18,1.08 -0.31687,2.09625 -0.42187,3.09 -0.57375,3.2775 -0.86625,6.575625 -0.86625,9.80625 0,31.13625 25.33312,56.46937 56.47125,56.46937 2.33437,0 4.71187,-0.15 7.0875,-0.44812 1.35562,1.35562 3.20625,2.13937 5.1375,2.13937 2.95312,0 5.5125,-1.73812 6.64875,-4.33125 1.05,0.21563 2.12062,0.32438 3.195,0.32438 7.04812,0 13.13625,-4.53563 15.19875,-11.1675 4.57312,-1.26188 7.95,-5.16375 8.51625,-9.93563 1.15125,-1.59187 2.22937,-3.26062 3.21375,-4.97812 5.80312,-1.93687 9.54375,-7.77375 8.79,-13.9125 -0.0919,-0.74437 -0.25125,-1.485 -0.47813,-2.21813 2.34563,-2.76562 3.42375,-6.33562 2.9775,-9.96937 -0.38062,-3.105 -1.845,-5.92125 -4.14562,-8.0175 -0.38813,-3.64125 -1.14563,-7.275 -2.25375,-10.81875 0.19312,-0.905625 0.29062,-1.809375 0.29062,-2.694375 0,-4.865625 -2.75812,-9.346875 -7.0725,-11.565 -4.26937,-6.44625 -9.90375,-12.04125 -16.35562,-16.245 -1.53,-5.59125 -6.6825,-9.571875 -12.5475,-9.571875 -2.12625,0 -4.21875,0.526875 -6.09938,1.53 -2.13375,-0.616875 -4.2975,-1.09875 -6.45375,-1.44 -2.40562,-2.25375 -5.61,-3.53625 -8.89125,-3.53625 m 0,1.875 c 3.09938,0 5.96063,1.2975 8.00813,3.42375 2.60062,0.37875 5.12812,0.958125 7.575,1.7025 1.70437,-1.0575 3.70687,-1.68 5.86125,-1.68 5.37375,0 9.855,3.80625 10.90125,8.86875 6.69937,4.231875 12.405,9.886875 16.71562,16.53375 3.82313,1.760625 6.48375,5.619375 6.48375,10.104375 0,0.958125 -0.13312,1.8825 -0.36,2.769375 1.20563,3.735 2.0325,7.640625 2.4075,11.6775 2.17875,1.753125 3.70688,4.31812 4.07625,7.3125 0.43875,3.5775 -0.87937,6.96 -3.26812,9.30187 0.37312,0.90375 0.64125,1.86751 0.76875,2.88563 0.68625,5.58563 -2.89875,10.7025 -8.19188,12.105 -1.1325,2.03812 -2.39062,3.9975 -3.76687,5.865 -0.33188,4.59 -3.75,8.29875 -8.2125,9.04312 -1.44563,6.22875 -7.01625,10.87688 -13.6875,10.87688 -1.49063,0 -2.925,-0.23625 -4.27125,-0.66563 -0.0806,0.0281 -0.16125,0.0544 -0.24188,0.0806 -0.39937,2.59687 -2.62312,4.59187 -5.33062,4.59187 -1.8075,0 -3.3975,-0.89624 -4.38188,-2.25937 -2.56125,0.36937 -5.17875,0.56812 -7.84312,0.56812 -30.15188,0 -54.59625,-24.4425 -54.59625,-54.59437 0,-3.25875 0.30187,-6.44625 0.84937,-9.549375 0.13313,-1.275 0.31875,-2.533125 0.54,-3.77625 -0.71062,-0.916875 -1.15125,-2.053125 -1.15125,-3.301875 0,-2.255625 1.38188,-4.186875 3.34313,-4.99875 0.69937,-1.95375 1.51875,-3.84375 2.43562,-5.67375 -0.0787,-0.534375 -0.13312,-1.07625 -0.13312,-1.633125 0,-5.424375 3.885,-9.9375 9.02437,-10.925625 0.52313,-0.545625 1.0575,-1.07625 1.605,-1.5975 0.48563,-5.7 5.25938,-10.179375 11.085,-10.179375 1.15313,0 2.26875,0.17625 3.31688,0.5025 3.85687,-1.734375 7.95187,-3.001875 12.21,-3.740625 1.73062,-1.8975 4.11562,-3.215625 6.86437,-3.555 0.45938,-0.05438 0.915,-0.0825 1.365,-0.0825"
           id="Fill-22"
           inkscape:connector-curvature="0"
           style="fill:#f218cd;fill-rule:nonzero" />
        <path
           d="m 525.606,103.61881 c -0.0544,0 -0.11063,-0.004 -0.165,-0.015 -5.33063,-0.94125 -12.49875,-8.060622 -12.80063,-8.362497 -0.36562,-0.365626 -0.36562,-0.958126 0,-1.325625 0.36563,-0.365626 0.96,-0.365626 1.32563,0 0.0694,0.06937 7.05187,7.005002 11.80125,7.843122 0.50813,0.09 0.84937,0.57563 0.75937,1.08563 -0.0806,0.45375 -0.47624,0.77437 -0.92062,0.77437"
           id="Fill-24"
           inkscape:connector-curvature="0"
           style="fill:#ff1ad9;fill-rule:nonzero" />
        <path
           d="m 450.16106,181.42212 c 0,0 -42.735,15.7125 -45.18375,19.76625 -2.46187,4.08375 1.41375,4.2375 1.41375,4.2375 1.41188,0.705 46.59375,-7.06125 46.59375,-7.06125 z"
           id="Fill-26"
           inkscape:connector-curvature="0"
           style="fill:#e1e1e6;fill-rule:nonzero" />
        <path
           d="m 476.72419,258.77506 c -0.19313,0 -0.31313,-0.002 -0.36,-0.002 -1.035,-0.0188 -1.86,-0.87375 -1.84125,-1.90875 0.0188,-1.03313 0.89625,-1.91438 1.90875,-1.84125 0.17062,-0.002 16.31625,0.1875 33.10312,-7.335 16.62375,-7.455 24.88688,-20.7375 24.96938,-20.86875 0.54,-0.885 1.69875,-1.15875 2.57625,-0.62438 0.88312,0.54 1.16625,1.69125 0.62625,2.57438 -0.35438,0.585 -8.90813,14.39062 -26.63813,22.33875 -16.37625,7.34062 -31.75312,7.66687 -34.34437,7.66687"
           id="Fill-28"
           inkscape:connector-curvature="0"
           style="fill:#ff66ed;fill-rule:nonzero" />
        <path
           d="M 115.66594,148.71219 H 1.8759375 c -1.036875,0 -1.875,-0.83813 -1.875,-1.875 0,-1.03688 0.838125,-1.875 1.875,-1.875 H 115.66594 c 1.03687,0 1.875,0.83812 1.875,1.875 0,1.03687 -0.83813,1.875 -1.875,1.875"
           id="Fill-30"
           inkscape:connector-curvature="0"
           style="fill:#e1e1e6;fill-rule:nonzero" />
        <path
           d="M 45.792937,140.16856 H 17.246062 c -0.5175,0 -0.9375,-0.42 -0.9375,-0.9375 0,-0.5175 0.42,-0.9375 0.9375,-0.9375 h 28.546875 c 0.5175,0 0.9375,0.42 0.9375,0.9375 0,0.5175 -0.42,0.9375 -0.9375,0.9375"
           id="Fill-32"
           inkscape:connector-curvature="0"
           style="fill:#e1e1e6;fill-rule:nonzero" />
        <path
           d="M 214.3725,156.00706 H 43.125 c -0.5175,0 -0.9375,-0.42 -0.9375,-0.9375 0,-0.5175 0.42,-0.9375 0.9375,-0.9375 h 171.2475 c 0.5175,0 0.9375,0.42 0.9375,0.9375 0,0.5175 -0.42,0.9375 -0.9375,0.9375"
           id="Fill-34"
           inkscape:connector-curvature="0"
           style="fill:#e1e1e6;fill-rule:nonzero" />
        <path
           d="m 116.91656,108.76963 v 0.31687 151.24687 c 0,2.99626 2.595,5.42626 5.79375,5.42626 h 188.15063 c 3.19875,0 5.79,-2.43 5.79,-5.42626 V 109.0865 108.76963 Z"
           id="Fill-36"
           inkscape:connector-curvature="0"
           style="fill:#f6f6f8;fill-rule:nonzero" />
        <path
           d="m 117.85406,109.70713 v 150.62624 c 0,2.47313 2.17875,4.48876 4.85625,4.48876 h 188.15063 c 2.67562,0 4.8525,-2.01563 4.8525,-4.48876 V 109.70713 Z m 193.00688,156.99 H 122.71031 c -3.7125,0 -6.73125,-2.85563 -6.73125,-6.36376 V 107.83213 h 201.60938 v 152.50124 c 0,3.50813 -3.01875,6.36376 -6.7275,6.36376 z"
           id="Fill-38"
           inkscape:connector-curvature="0"
           style="fill:#e1e1e6;fill-rule:nonzero" />
        <path
           d="M 316.65169,107.86494 V 85.899312 c 0,-3.449999 -2.7975,-6.247499 -6.2475,-6.247499 H 123.16481 c -3.45,0 -6.2475,2.7975 -6.2475,6.247499 v 21.965628 0.90375 h 199.73438 z"
           id="Fill-40"
           inkscape:connector-curvature="0"
           style="fill:#f6f6f8;fill-rule:nonzero" />
        <path
           d="M 117.85406,107.83213 H 315.71344 V 85.90025 c 0,-2.92875 -2.38125,-5.31 -5.31,-5.31 H 123.16406 c -2.92687,0 -5.31,2.38125 -5.31,5.31 z m 199.73438,1.875 H 115.97906 V 85.90025 c 0,-3.96375 3.22313,-7.185 7.185,-7.185 h 187.23938 c 3.96375,0 7.185,3.22125 7.185,7.185 z"
           id="Fill-42"
           inkscape:connector-curvature="0"
           style="fill:#e1e1e6;fill-rule:nonzero" />
        <path
           d="m 129.45187,109.08631 v 138.21375 c 0,2.79938 2.26688,5.07 5.06438,5.07 H 299.0775 c 2.7975,0 5.06625,-2.27062 5.06625,-5.07 V 109.08631 Z"
           id="Fill-44"
           inkscape:connector-curvature="0"
           style="fill:#f6f6f8;fill-rule:nonzero" />
        <path
           d="m 130.38937,110.02381 v 137.27625 c 0,2.28 1.85063,4.1325 4.12688,4.1325 H 299.0775 c 2.27625,0 4.12875,-1.8525 4.12875,-4.1325 V 110.02381 Z M 299.0775,253.30756 H 134.51625 c -3.30938,0 -6.00188,-2.69625 -6.00188,-6.0075 V 108.14881 h 176.56688 v 139.15125 c 0,3.31125 -2.69438,6.0075 -6.00375,6.0075 z"
           id="Fill-46"
           inkscape:connector-curvature="0"
           style="fill:#e1e1e6;fill-rule:nonzero" />
        <path
           d="m 133.28606,90.323562 c 2.33063,0 4.21875,1.888125 4.21875,4.21875 0,2.32875 -1.88812,4.21875 -4.21875,4.21875 -2.32875,0 -4.21875,-1.89 -4.21875,-4.21875 0,-2.330625 1.89,-4.21875 4.21875,-4.21875"
           id="Fill-48"
           inkscape:connector-curvature="0"
           style="fill:#e1e1e6;fill-rule:nonzero" />
        <path
           d="m 146.89462,90.323562 c 2.32875,0 4.21688,1.888125 4.21688,4.21875 0,2.32875 -1.88813,4.21875 -4.21688,4.21875 -2.33062,0 -4.21875,-1.89 -4.21875,-4.21875 0,-2.330625 1.88813,-4.21875 4.21875,-4.21875"
           id="Fill-50"
           inkscape:connector-curvature="0"
           style="fill:#e1e1e6;fill-rule:nonzero" />
        <path
           d="m 263.85319,99.312125 h -94.09688 c -2.52,0 -4.56562,-2.045625 -4.56562,-4.5675 v -0.405 c 0,-2.52375 2.04562,-4.5675 4.56562,-4.5675 h 94.09688 c 2.52375,0 4.5675,2.04375 4.5675,4.5675 v 0.405 c 0,2.52375 -2.04375,4.5675 -4.5675,4.5675"
           id="Fill-52"
           inkscape:connector-curvature="0"
           style="fill:#e1e1e6;fill-rule:nonzero" />
        <path
           d="m 559.38544,113.18975 c 2.38687,-2.34187 3.70687,-5.72438 3.26625,-9.30188 -0.3675,-2.99437 -1.8975,-5.55937 -4.07625,-7.31062 -2.57813,-27.755625 -25.92,-49.486875 -54.34875,-49.486875 -30.15188,0 -54.59625,24.4425 -54.59625,54.596255 0,30.15187 24.44437,54.59437 54.59625,54.59437 2.66437,0 5.28,-0.19875 7.84312,-0.56625 0.9825,1.36125 2.57438,2.2575 4.38188,2.2575 2.7075,0 4.92937,-1.995 5.32875,-4.59 0.0806,-0.0281 0.16125,-0.0544 0.24187,-0.0806 1.34813,0.4275 2.7825,0.66375 4.27313,0.66375 6.66937,0 12.24187,-4.64624 13.68562,-10.87687 4.4625,-0.74438 7.88063,-4.45313 8.2125,-9.04313 1.37813,-1.8675 2.63625,-3.82687 3.76875,-5.865 5.29125,-1.4025 8.87625,-6.51749 8.19,-12.105 -0.12562,-1.01812 -0.39562,-1.98187 -0.76687,-2.88562"
           id="Fill-54"
           inkscape:connector-curvature="0"
           style="fill:#ff66ed;fill-rule:nonzero" />
        <path
           d="m 552.11981,113.17137 c 2.44875,-1.97812 3.99,-5.02312 3.90188,-8.40937 -0.0713,-2.83688 -1.27125,-5.3775 -3.15,-7.215 0.10875,-26.210625 -19.76625,-48.669375 -46.37063,-51.25125 -28.22062,-2.739375 -53.31937,17.919375 -56.05875,46.138125 -2.7375,28.220625 17.91938,53.317495 46.14,56.056875 2.49188,0.24188 4.95938,0.29062 7.39125,0.18 0.795,1.36312 2.20313,2.3475 3.89625,2.51062 2.53313,0.24563 4.79625,-1.41749 5.40375,-3.81187 0.0788,-0.0187 0.15563,-0.0337 0.23438,-0.0544 1.2225,0.525 2.54437,0.8775 3.93937,1.0125 6.24188,0.60375 11.87813,-3.23812 13.79625,-8.93812 4.245,-0.2925 7.78125,-3.45 8.50688,-7.7175 1.45875,-1.62188 2.81437,-3.34125 4.05937,-5.14687 5.08125,-0.83063 8.90063,-5.29313 8.76563,-10.58438 -0.0263,-0.96375 -0.1875,-1.89 -0.45563,-2.76938"
           id="Fill-56"
           inkscape:connector-curvature="0"
           style="fill:#ff99f9;fill-rule:nonzero" />
        <path
           d="m 480.13912,250.50969 c -13.19624,0 -22.93312,-2.90438 -23.05875,-2.94 -0.49687,-0.15 -0.77437,-0.675 -0.62437,-1.17 0.15,-0.495 0.66938,-0.77438 1.17,-0.62438 0.15563,0.0469 15.82687,4.71375 34.25438,2.03438 18.34312,-2.66438 30.1125,-13.36688 30.22874,-13.47563 0.38438,-0.35062 0.975,-0.32812 1.32563,0.0525 0.35063,0.38063 0.32812,0.97313 -0.0525,1.32375 -0.49125,0.4575 -12.28875,11.20313 -31.23188,13.95563 -4.19062,0.6075 -8.2425,0.84375 -12.01125,0.84375"
           id="Fill-58"
           inkscape:connector-curvature="0"
           style="fill:#ff66ed;fill-rule:nonzero" />
        <path
           d="m 404.47087,230.15019 c 13.74,1.33687 25.96313,-8.71688 27.3,-22.45875 0.4275,-4.3875 -0.35249,-8.6025 -1.95375,-12.3975 -2.04749,-4.84688 -13.39124,11.86125 -18.15187,7.51687 -4.76063,-4.34437 13.78688,-15.18 9.22125,-18.21375 -3.36937,-2.23875 -7.2675,-3.78562 -11.57438,-4.20562 -13.74187,-1.33688 -25.965,8.71687 -27.30187,22.45875 -1.335,13.74187 8.72063,25.96312 22.46062,27.3"
           id="Fill-60"
           inkscape:connector-curvature="0"
           style="fill:#ffc44d;fill-rule:nonzero" />
        <path
           d="m 407.71537,184.73637 c 2.43563,0.23625 4.23938,2.19938 4.02563,4.38375 -0.21187,2.18438 -2.35875,3.76313 -4.79438,3.52688 -2.4375,-0.23813 -4.24125,-2.20125 -4.02937,-4.38375 0.21375,-2.18438 2.36062,-3.76313 4.79812,-3.52688"
           id="Fill-62"
           inkscape:connector-curvature="0"
           style="fill:#ff7700;fill-rule:nonzero" />
        <path
           d="m 389.97806,198.51144 c -1.09125,-2.0925 -0.15,-4.73813 2.10188,-5.91 2.25,-1.17188 4.9575,-0.4275 6.04875,1.665 1.08937,2.09437 0.14812,4.74187 -2.10188,5.91375 -2.25187,1.17187 -4.95937,0.42375 -6.04875,-1.66875"
           id="Fill-64"
           inkscape:connector-curvature="0"
           style="fill:#ff1ad9;fill-rule:nonzero" />
        <path
           d="m 387.87225,212.57206 c 0.0675,-2.35875 2.17687,-4.21125 4.71375,-4.14 2.53688,0.0712 4.53938,2.04188 4.47188,4.40063 -0.0675,2.35687 -2.17688,4.21125 -4.71375,4.14 -2.53688,-0.0712 -4.53751,-2.04188 -4.47188,-4.40063"
           id="Fill-66"
           inkscape:connector-curvature="0"
           style="fill:#6600cc;fill-rule:nonzero" />
        <path
           d="m 402.96019,220.019 c 0.0675,-2.35875 2.61,-4.19813 5.6775,-4.11188 3.06937,0.0881 5.50312,2.06813 5.43562,4.42688 -0.0656,2.35875 -2.60812,4.2 -5.6775,4.11187 -3.0675,-0.0863 -5.50125,-2.06812 -5.43562,-4.42687"
           id="Fill-68"
           inkscape:connector-curvature="0"
           style="fill:#0d96ff;fill-rule:nonzero" />
        <path
           d="m 417.25706,211.13656 c 0.0675,-2.35875 2.17688,-4.21125 4.71563,-4.14 2.535,0.0713 4.5375,2.04188 4.47,4.40063 -0.0675,2.35687 -2.17688,4.21312 -4.71188,4.14 -2.53875,-0.0713 -4.53937,-2.04188 -4.47375,-4.40063"
           id="Fill-70"
           inkscape:connector-curvature="0"
           style="fill:#00d000;fill-rule:nonzero" />
        <path
           d="m 441.29512,100.13056 c -19.09499,6.25875 -51.04875,20.4825 -60.04875,32.18438 -5.5125,7.16625 10.62563,31.56187 19.06313,34.6875 26.56875,9.84 81.79875,10.89 98.03438,-15.9375 16.23749,-26.8275 0.32999,-69.738752 -57.04876,-50.93438"
           id="Fill-72"
           inkscape:connector-curvature="0"
           style="fill:#ffffff;fill-rule:nonzero" />
        <path
           d="M 87.434625,35.14475 H 123.9615 c 0,0 -11.42812,-25.54125 12.83437,-28.846875 C 158.43525,3.35225 166.989,25.58975 166.989,25.58975 c 0,0 2.56687,-12.82875 15.435,-10.374375 12.69,2.41875 22.05937,22.83 22.05937,22.83 H 236.289"
           id="Fill-74"
           inkscape:connector-curvature="0"
           style="fill:#ffffff;fill-rule:nonzero" />
        <g
           id="Group-78"
           transform="translate(86.25)">
          <g
             id="Fill-76-Clipped">
            <g
               id="g75">
              <mask
                 id="mask-4"
                 fill="white">
                <use
                   xlink:href="#path-3"
                   id="use69"
                   x="0"
                   y="0"
                   width="100%"
                   height="100%" />
              </mask>
              <g
                 id="g72" />
              <path
                 d="m 150.66469,32.107062 h -31.8075 c -0.3525,0 -0.67688,-0.19875 -0.83625,-0.51375 -0.0919,-0.181874 -9.31125,-18.151875 -21.395627,-20.456249 -11.821876,-2.2462505 -14.244375,9.149999 -14.341875,9.637499 -0.0825,0.410626 -0.421875,0.71625 -0.838126,0.75 -0.435,0.03187 -0.80625,-0.208125 -0.956249,-0.59625 -0.02063,-0.05437 -2.152501,-5.495624 -6.8325,-10.492499 -6.2025,-6.6206255 -13.72875,-9.3825005 -22.359376,-8.2068755 -6.294375,0.856875 -10.621875,3.339375 -12.868125,7.3725 -4.518749,8.1168745 0.710625,20.0437495 0.763126,20.1618755 0.129374,0.290624 0.104999,0.626249 -0.06938,0.894375 -0.1725,0.264374 -0.46875,0.425625 -0.785626,0.425625 H 1.8103125 c -0.5175,0 -0.9375,-0.420001 -0.9375,-0.9375 0,-0.517501 0.42,-0.9375 0.9375,-0.9375 H 36.949688 c -1.308751,-3.498751 -4.24875,-13.162501 -0.161251,-20.5125005 2.54625,-4.5825 7.342501,-7.381875 14.255626,-8.323125 17.925,-2.454375 27.238125,11.9962495 30.16125,17.6699995 1.531875,-3.800625 5.74875,-10.6593745 15.770624,-8.7468745 11.938123,2.2762495 20.788123,17.8274995 22.449373,20.9362505 h 31.23938 c 0.5175,0 0.9375,0.419999 0.9375,0.9375 0,0.517499 -0.42,0.937499 -0.9375,0.937499"
                 id="Fill-76"
                 mask="url(#mask-4)"
                 inkscape:connector-curvature="0"
                 style="fill:#e1e1e6;fill-rule:nonzero" />
            </g>
          </g>
        </g>
        <path
           d="M 237.96562,38.685875 H 87.429375 c -1.036875,0 -1.875,-0.838125 -1.875,-1.875 0,-1.036875 0.838125,-1.875 1.875,-1.875 H 237.96562 c 1.03688,0 1.875,0.838125 1.875,1.875 0,1.036875 -0.83812,1.875 -1.875,1.875"
           id="Fill-79"
           inkscape:connector-curvature="0"
           style="fill:#ffffff;fill-rule:nonzero" />
        <path
           d="m 468.48637,248.7665 c 0.46875,0.0619 0.95063,0.12 1.44563,0.17812 0.255,0.03 0.4875,0.165 0.64125,0.37125 1.97812,2.64938 4.23375,4.31813 5.77687,5.25188 0.27751,0.16687 0.45,0.46687 0.45375,0.79125 0.002,0.3225 -0.15937,0.62625 -0.435,0.80062 -0.195,0.12563 -0.43312,0.35438 -0.43875,0.72188 -0.004,0.25125 0.0881,0.4875 0.26063,0.66938 0.17437,0.17812 0.40875,0.28125 0.65813,0.28499 l 0.34499,0.002 c 2.84438,0 17.85563,-0.36563 33.96188,-7.58438 3.8925,-1.7475 7.66313,-3.9375 11.20125,-6.51 0.15562,-0.1125 0.34125,-0.17437 0.53438,-0.17812 8.22749,-0.15938 15.14249,-1.99875 20.55374,-5.46375 13.11563,-8.40188 14.16188,-18.98813 13.94813,-23.41875 -2.41688,2.4825 -7.88625,6.5325 -16.91812,5.06062 -0.27563,-0.0431 -0.51751,-0.20812 -0.65813,-0.44812 -0.1425,-0.24188 -0.16875,-0.5325 -0.075,-0.795 4.57312,-12.66375 1.10062,-22.5375 -0.80063,-26.50125 -1.47562,3.97125 -5.85937,12.11062 -17.61,15.34125 -0.30562,0.0788 -0.62625,0.0112 -0.86249,-0.195 -2.61938,-2.26313 -5.78813,-4.17375 -9.42188,-5.6775 -17.67938,-7.31813 -40.65375,4.26562 -42.92437,5.45625 -0.82126,1.17 -5.32126,8.35687 0.82687,16.94812 0.19687,0.27188 0.23062,0.62813 0.0919,0.93188 -1.23938,2.7375 -2.02501,5.74125 -2.33438,8.9325 -0.50063,5.16562 0.37312,9.75 2.59687,13.62562 0.17625,0.30938 0.16313,0.69375 -0.0356,0.98813 -0.17625,0.2625 -0.46875,0.41625 -0.77813,0.41625 z m 8.7075,10.94625 -0.29812,-0.002 c -0.83062,-0.0131 -1.53188,-0.31874 -2.05313,-0.85875 -0.52125,-0.54187 -0.80062,-1.2525 -0.7875,-2.0025 0.008,-0.46687 0.13313,-0.90937 0.36,-1.29937 -1.51312,-1.02938 -3.38624,-2.58375 -5.09812,-4.79063 -6.94688,-0.8325 -11.52,-2.14125 -12.02812,-2.28937 -0.99938,-0.30188 -1.56188,-1.35188 -1.26188,-2.34188 0.3,-0.98625 1.35,-1.54687 2.33625,-1.2525 0.0375,0.0131 3.25312,0.96938 8.45812,1.76625 -1.78499,-3.84375 -2.45062,-8.235 -1.98187,-13.08375 0.31125,-3.20812 1.07625,-6.24562 2.27812,-9.0375 -6.91687,-10.16625 -0.43687,-18.81 -0.37125,-18.89625 0.0806,-0.10312 0.18,-0.1875 0.29438,-0.25125 1.02562,-0.55875 25.36313,-13.64812 44.72437,-5.63625 3.64126,1.50563 6.84938,3.41063 9.54188,5.66063 13.9575,-4.08563 16.44187,-15.87375 16.46625,-15.99188 0.0731,-0.37125 0.36188,-0.66375 0.73313,-0.73875 0.36937,-0.075 0.75187,0.0825 0.96187,0.39375 0.3375,0.49875 8.00437,12.13125 2.41688,28.98563 10.46062,1.18125 15.19875,-5.84438 15.40125,-6.15375 0.20812,-0.31875 0.58312,-0.48375 0.95437,-0.41063 0.37125,0.0675 0.6675,0.3525 0.74812,0.72 0.0337,0.15938 3.285,16.065 -14.53312,27.47625 -5.64,3.615 -12.78375,5.55 -21.23438,5.75438 -3.57375,2.57625 -7.37437,4.77187 -11.30062,6.53063 -16.45125,7.37624 -31.815,7.74937 -34.72688,7.74937 z"
           id="Fill-81"
           inkscape:connector-curvature="0"
           style="fill:#ff1ad9;fill-rule:nonzero" />
        <path
           d="m 500.55169,116.78225 c 0,0 9.99187,27.0375 -5.0325,59.69812 -14.77125,32.11313 -11.295,66.36 -15.53063,78.36375 -4.23562,12.00001 -58.64812,7.88625 -65.655,0.705 -16.545,-16.95187 1.20188,-73.0275 64.31438,-91.06125 18.90187,-5.40187 21.90375,-47.70562 21.90375,-47.70562"
           id="Fill-83"
           inkscape:connector-curvature="0"
           style="fill:#ffffff;fill-rule:nonzero" />
        <path
           d="m 495.15019,183.689 c 0,0 -7.8,12.60375 -9,27.00375 -1.2,14.40187 -4.8,46.20562 -4.8,46.20562 0,0 -3.6,3.6 -16.80188,6 -13.20187,2.40001 -37.20562,0 -42.60562,-1.8 -5.40188,-1.79999 -2.925,-4.125 -2.925,-4.125 0,0 -5.025,-5.85 6.975,-0.45 12.00187,5.40188 31.35375,2.175 40.95562,-12.82687 9.6,-15.00188 7.2,-32.40375 28.20188,-60.0075"
           id="Fill-85"
           inkscape:connector-curvature="0"
           style="fill:#e1e1e6;fill-rule:nonzero" />
        <path
           d="m 482.79975,244.00212 c 0,0 -1.46438,22.005 -4.90875,32.31563 -3.44438,10.3125 -7.56563,15.50625 -9.38812,14.06625 -1.8225,-1.43625 -0.51188,-33.69938 -0.51188,-33.69938 z"
           id="Fill-87"
           inkscape:connector-curvature="0"
           style="fill:#e1e1e6;fill-rule:nonzero" />
        <path
           d="m 410.24044,242.79725 c 0,0 3.30187,22.20187 15.10125,35.96437 7.07625,8.25188 11.475,12.87938 12.84,11.0025 1.36687,-1.87687 -8.6175,-32.58374 -8.6175,-32.58374 z"
           id="Fill-89"
           inkscape:connector-curvature="0"
           style="fill:#ffffff;fill-rule:nonzero" />
        <path
           d="m 427.57144,115.484 c 1.11937,0 2.02687,0.9075 2.02687,2.02688 v 4.54687 c 0,1.11938 -0.9075,2.02875 -2.02687,2.02875 -1.11938,0 -2.02688,-0.90937 -2.02688,-2.02875 v -4.54687 c -0.009,-1.11938 0.9,-2.02688 2.02688,-2.02688"
           id="Fill-91"
           inkscape:connector-curvature="0"
           style="fill:#535a80;fill-rule:nonzero" />
        <path
           d="m 433.04269,129.55569 c -0.60938,0 -1.20563,-0.29625 -1.56563,-0.84 -0.0713,-0.105 -1.38937,-1.9725 -3.90562,-1.9725 -2.55563,0 -3.88313,1.93687 -3.89625,1.9575 -0.5625,0.86812 -1.725,1.1175 -2.59313,0.55312 -0.87,-0.56437 -1.1175,-1.725 -0.55312,-2.59312 0.0975,-0.15 2.43187,-3.6675 7.0425,-3.6675 4.61062,0 6.945,3.5175 7.0425,3.6675 0.56437,0.86812 0.31687,2.02875 -0.55313,2.59312 -0.315,0.20438 -0.6675,0.30188 -1.01812,0.30188"
           id="Fill-93"
           inkscape:connector-curvature="0"
           style="fill:#e1e1e6;fill-rule:nonzero" />
        <path
           d="m 463.19644,115.484 c 1.11937,0 2.02687,0.9075 2.02687,2.02688 v 4.54687 c 0,1.11938 -0.9075,2.02875 -2.02687,2.02875 -1.11938,0 -2.02688,-0.90937 -2.02688,-2.02875 v -4.54687 c -0.009,-1.11938 0.9,-2.02688 2.02688,-2.02688"
           id="Fill-95"
           inkscape:connector-curvature="0"
           style="fill:#535a80;fill-rule:nonzero" />
        <path
           d="m 468.66769,129.55569 c -0.60938,0 -1.20563,-0.29625 -1.56563,-0.84 -0.0713,-0.105 -1.38937,-1.9725 -3.90562,-1.9725 -2.55563,0 -3.88313,1.93687 -3.89625,1.9575 -0.56438,0.86812 -1.725,1.1175 -2.59313,0.55312 -0.87,-0.56437 -1.1175,-1.725 -0.55312,-2.59312 0.0975,-0.15 2.43187,-3.6675 7.0425,-3.6675 4.61062,0 6.945,3.5175 7.0425,3.6675 0.56437,0.86812 0.31687,2.02875 -0.55313,2.59312 -0.315,0.20438 -0.6675,0.30188 -1.01812,0.30188"
           id="Fill-97"
           inkscape:connector-curvature="0"
           style="fill:#e1e1e6;fill-rule:nonzero" />
        <path
           d="m 499.61981,43.258062 c 6.10313,-0.748125 11.65688,3.58875 12.40688,9.691875 0.75187,6.103126 -3.58875,11.658751 -9.69188,12.408751 -6.10312,0.75 -11.65687,-3.588751 -12.40687,-9.691876 -0.75,-6.103125 3.58875,-11.65875 9.69187,-12.40875"
           id="Fill-99"
           inkscape:connector-curvature="0"
           style="fill:#ff99f9;fill-rule:nonzero" />
        <path
           d="m 448.14506,175.06662 c -20.37187,0 -42.99375,-3.5475 -50.55,-7.32375 -14.27437,-7.13812 -19.14375,-29.81437 -19.3425,-30.77437 -0.21375,-1.01438 0.43688,-2.00813 1.45125,-2.21813 1.01063,-0.22125 2.00438,0.43688 2.21813,1.45125 0.045,0.21938 4.70437,21.86438 17.35125,28.18688 8.625,4.3125 45.78937,9.5625 68.51625,5.45625 1.02937,-0.18187 1.99312,0.495 2.17875,1.51125 0.18187,1.02 -0.49313,1.995 -1.51313,2.18062 -5.94187,1.0725 -12.98062,1.53 -20.31,1.53"
           id="Fill-101"
           inkscape:connector-curvature="0"
           style="fill:#e1e1e6;fill-rule:nonzero" />
        <path
           d="m 398.43375,166.06512 c 0,0 35.57625,9.56438 60,5.31188 15.26062,-2.655 20.11875,-7.695 31.91625,-19.49063 3.6,-3.6 5.38875,9.43688 -1.2,15.60188 -13.84125,12.9525 -81.26438,6.22687 -90.71625,-1.42313"
           id="Fill-103"
           inkscape:connector-curvature="0"
           style="fill:#e1e1e6;fill-rule:nonzero" />
        <path
           d="m 402.59025,117.71975 c -0.32062,0 -0.63375,-0.165 -0.81,-0.46312 -0.26062,-0.44626 -0.11063,-1.02 0.33563,-1.28438 2.01749,-1.18125 49.7475,-28.905 78.62624,-19.4325 0.48938,0.16125 0.75938,0.69 0.59625,1.183125 -0.15937,0.49125 -0.69187,0.759375 -1.18312,0.59625 C 452.08837,89.1185 403.554,117.3035 403.06462,117.59225 c -0.14812,0.0862 -0.31125,0.1275 -0.47437,0.1275"
           id="Fill-105"
           inkscape:connector-curvature="0"
           style="fill:#e1e1e6;fill-rule:nonzero" />
        <path
           d="m 481.95,96.679062 c 0,0 -4.05188,14.553748 9.75,31.355628 5.94938,7.24125 10.5675,12.24375 10.05187,25.65187 -0.59999,15.60188 -7.80187,25.20375 -7.80187,25.20375 l 3.6,-3.60187 c 0,0 14.40187,-25.65188 10.20187,-48.00563 C 503.0775,102.40156 481.95,96.679062 481.95,96.679062"
           id="Fill-107"
           inkscape:connector-curvature="0"
           style="fill:#e1e1e6;fill-rule:nonzero" />
        <path
           d="m 514.68375,127.00325 c 0,6.60187 -5.35125,11.95312 -11.95313,11.95312 -6.60187,0 -11.95312,-5.35125 -11.95312,-11.95312 0,-6.60187 5.35125,-11.95313 11.95312,-11.95313 6.60188,0 11.95313,5.35126 11.95313,11.95313"
           id="Fill-109"
           inkscape:connector-curvature="0"
           style="fill:#e1e1e6;fill-rule:nonzero" />
        <path
           d="m 360.44137,108.18537 c -2.80874,-0.71249 -5.01375,-2.91749 -5.72625,-5.72624 -0.0675,-0.27188 -0.41812,-0.27188 -0.48562,0 -0.7125,2.80875 -2.9175,5.01375 -5.72813,5.72624 -0.27375,0.0675 -0.27375,0.42 0,0.48938 2.81063,0.71062 5.01563,2.91375 5.72813,5.72437 0.0675,0.27376 0.41812,0.27376 0.48562,0 0.7125,-2.81062 2.91751,-5.01375 5.72625,-5.72437 0.27375,-0.0694 0.27375,-0.42187 0,-0.48938"
           id="Fill-111"
           inkscape:connector-curvature="0"
           style="fill:#ffc44d;fill-rule:nonzero" />
        <path
           d="m 380.30456,119.80344 c -4.9575,-1.25813 -8.85937,-5.16 -10.1175,-10.11563 -0.12562,-0.47625 -0.74062,-0.47625 -0.85875,0 -1.24875,4.95563 -5.15062,8.8575 -10.11562,10.10625 -0.47813,0.12563 -0.47813,0.7425 0,0.85875 4.9575,1.25813 8.85937,5.16 10.11562,10.1175 0.1275,0.47813 0.7425,0.47813 0.85875,0 1.25813,-4.9575 5.16,-8.85937 10.1175,-10.1175 0.47813,-0.11625 0.47813,-0.73312 0,-0.84937"
           id="Fill-113"
           inkscape:connector-curvature="0"
           style="fill:#ffaa00;fill-rule:nonzero" />
        <path
           d="m 363.39844,135.21725 c -7.41375,-1.87313 -13.24688,-7.71562 -15.12938,-15.12938 -0.17625,-0.71249 -1.09312,-0.71249 -1.27875,0 -1.87312,7.41376 -7.7175,13.24688 -15.13125,15.12938 -0.7125,0.17625 -0.7125,1.09312 0,1.27875 7.41375,1.87312 13.24688,7.71562 15.13125,15.12937 0.17438,0.7125 1.09125,0.7125 1.27875,0 1.87125,-7.41375 7.71563,-13.24687 15.12938,-15.12937 0.7125,-0.18563 0.7125,-1.1025 0,-1.27875"
           id="Fill-115"
           inkscape:connector-curvature="0"
           style="fill:#ffc44d;fill-rule:nonzero" />
        <path
           d="m 475.94794,95.329625 c 0,0 6.0825,-8.57625 16.65375,-9.001875 12.465,-0.49875 21.18375,11.87625 21.2775,20.97938 0.19687,18.52875 13.27875,19.27687 13.27875,19.27687 0,0 -15.65438,9.25125 -32.30813,-0.20062 -14.91,-8.46188 -18.90187,-31.053755 -18.90187,-31.053755"
           id="Fill-117"
           inkscape:connector-curvature="0"
           style="fill:#ff99f9;fill-rule:nonzero" />
        <path
           d="m 483.60169,223.48138 c -0.0581,0 -0.11813,-0.006 -0.17813,-0.0169 -0.50812,-0.0975 -0.84187,-0.58875 -0.74437,-1.09688 6.24937,-32.58187 19.72875,-63.3525 19.86562,-63.66 0.20813,-0.4725 0.75563,-0.69 1.23563,-0.47812 0.4725,0.21 0.68812,0.76125 0.47812,1.23562 -0.135,0.30563 -13.53,30.89063 -19.73812,63.255 -0.0863,0.45001 -0.48,0.76126 -0.91875,0.76126"
           id="Fill-119"
           inkscape:connector-curvature="0"
           style="fill:#e1e1e6;fill-rule:nonzero" />
        <path
           d="m 486.43425,193.55656 c 0,0 43.26937,-19.2975 45.38812,-23.53312 2.11876,-4.2375 0.2925,-3.53063 -1.61812,-4.00125 -1.9125,-0.47063 -30.82875,6.83625 -46.59375,10.59 z"
           id="Fill-121"
           inkscape:connector-curvature="0"
           style="fill:#ffffff;fill-rule:nonzero" />
        <path
           d="m 421.98487,150.35469 c -2.51625,-0.56438 -5.14687,-1.31438 -7.79062,-2.07 2.6325,0.735 5.27437,1.50562 7.79062,2.07 2.4975,0.60937 4.88813,0.9525 6.90563,1.36687 -2.0175,-0.41437 -4.42875,-0.74625 -6.90563,-1.36687 m -21.99562,-7.2825 c 1.91625,0.75937 4.125,1.79437 6.54,2.65125 -2.43188,-0.8625 -4.62375,-1.89188 -6.54,-2.65125 m 38.055,10.3425 c -0.7725,-0.315 -1.55625,-0.6 -2.32125,-0.87938 -1.1325,-0.42375 -2.27062,-0.83062 -3.38625,-1.25062 l -5.77688,-1.96125 c -3.84937,-1.28625 -7.73812,-2.44688 -11.60812,-3.67125 -3.9075,-1.09875 -7.79625,-2.25938 -11.7225,-3.29625 l -5.90437,-1.52438 c -1.14938,-0.25875 -2.29126,-0.53062 -3.43688,-0.79125 -0.0131,-0.007 -0.0356,-0.0206 -0.045,-0.0281 -0.825,-0.19313 -1.64062,-0.36938 -2.47125,-0.54938 -0.0937,-0.0281 -0.2025,-0.007 -0.31313,0.0244 -0.32249,0.11062 -0.5025,0.48187 -0.39749,0.81937 l 0.23062,0.765 c 0.52875,1.75688 1.12125,3.30938 1.78687,4.66688 0.64126,1.38187 1.32938,2.60812 2.05313,3.77625 1.425,2.295 2.99625,4.14375 4.63312,5.79 0.44813,0.43875 0.91688,0.79875 1.37813,1.1925 0.29062,-0.0956 0.57562,-0.15 0.85312,-0.18375 -0.29062,0.06 -0.58312,0.11062 -0.8775,0.21 0.015,0.006 0.0113,0.0206 0.0263,0.0263 -0.015,-0.006 -0.0206,0.0112 -0.0375,0.006 2.87437,2.45625 5.95875,4.14375 9.26625,5.14688 0.045,0.015 0.10312,0.0488 0.14999,0.0619 l 0.0169,0.006 0.015,0.004 c 0.0469,0.015 0.11438,0.0188 0.15937,0.03 3.31688,0.975 6.82125,1.25437 10.57125,0.77625 -0.0113,-0.0206 -0.0113,-0.0206 -0.0281,-0.0244 0.0169,0.004 0.0169,0.004 0.0375,-0.007 0.6,-0.075 1.17562,-0.12375 1.78687,-0.23062 2.2575,-0.50063 4.58251,-1.16625 7.05376,-2.3175 1.22812,-0.585 2.47499,-1.23375 3.79124,-2.0475 1.28625,-0.7725 2.65125,-1.76063 4.0575,-2.94 l 0.61688,-0.53063 c 0.075,-0.0788 0.15,-0.15937 0.18375,-0.26625 0.12375,-0.30562 -0.0375,-0.67687 -0.34125,-0.80062"
           id="Fill-123"
           inkscape:connector-curvature="0"
           style="fill:#535a80;fill-rule:nonzero" />
        <path
           d="m 394.75894,136.81025 c 0.5175,-0.48563 7.9125,1.42125 8.14312,1.76625 0.23063,0.34687 -1.38,8.0625 -1.92562,8.4975 -0.54563,0.43125 -4.485,-1.86 -4.72313,-2.32688 -0.24,-0.46687 -1.9875,-7.4775 -1.49437,-7.93687"
           id="Fill-125"
           inkscape:connector-curvature="0"
           style="fill:#ffffff;fill-rule:nonzero" />
        <path
           d="m 406.64794,139.13581 c 0.5175,-0.48562 10.26375,1.965 10.49437,2.31188 0.23063,0.34687 -5.925,7.35 -7.5,8.02687 -0.64125,0.27375 -5.16187,-0.735 -5.40187,-1.20187 -0.23813,-0.46688 1.91437,-8.6775 2.4075,-9.13688"
           id="Fill-127"
           inkscape:connector-curvature="0"
           style="fill:#ffffff;fill-rule:nonzero" />
        <path
           d="m 551.358,157.22656 c 0,0 -0.009,0.0431 -0.0337,0.12375 -0.0206,0.0825 -0.0581,0.20063 -0.105,0.3525 -0.0488,0.15375 -0.11625,0.33 -0.18938,0.54375 -0.0825,0.20438 -0.17062,0.44813 -0.27937,0.70688 -0.43688,1.03687 -1.13625,2.41875 -2.12812,3.885 -0.98813,1.47 -2.265,3.03187 -3.78751,4.50562 -0.75937,0.74063 -1.58437,1.45313 -2.445,2.15063 -0.42562,0.35437 -0.86624,0.69562 -1.30312,1.04812 -0.4425,0.34125 -0.88125,0.69188 -1.33312,1.02563 -0.89625,0.6825 -1.81501,1.33312 -2.72813,1.96312 -0.91312,0.63 -1.83188,1.22625 -2.73187,1.785 -1.80188,1.12313 -3.55125,2.08125 -5.09813,2.8425 -1.54875,0.76125 -2.89687,1.32188 -3.86813,1.68188 -0.48562,0.17625 -0.87375,0.30937 -1.14187,0.39375 -0.27,0.0844 -0.41812,0.12375 -0.41812,0.12375 -1.52813,0.41625 -3.10313,-0.48938 -3.51938,-2.0175 -0.19875,-0.7425 -0.0881,-1.5 0.25312,-2.12625 0,0 0.0731,-0.13313 0.2175,-0.37688 0.14438,-0.24187 0.36563,-0.58875 0.65063,-1.01812 0.57375,-0.86063 1.43437,-2.04188 2.53687,-3.3675 1.10063,-1.3275 2.44126,-2.80688 3.9525,-4.2975 0.75563,-0.74438 1.54688,-1.5 2.37188,-2.23875 0.82875,-0.74063 1.67625,-1.48125 2.54625,-2.19188 0.43125,-0.36375 0.87562,-0.70875 1.31062,-1.06125 0.4425,-0.34125 0.87938,-0.69187 1.32375,-1.02187 0.87938,-0.67313 1.76438,-1.31063 2.66063,-1.875 1.78687,-1.13813 3.60375,-2.01188 5.265,-2.6325 1.65563,-0.62063 3.165,-0.97875 4.275,-1.16063 0.27375,-0.0488 0.5325,-0.0769 0.75,-0.10875 0.22687,-0.0206 0.41437,-0.0469 0.57562,-0.0563 0.1575,-0.0131 0.27938,-0.0187 0.36563,-0.0225 0.0825,-0.004 0.12937,-0.004 0.12937,-0.004 1.10626,0.015 1.98938,0.9225 1.97438,2.02688 -0.002,0.1425 -0.0187,0.28875 -0.0488,0.41812"
           id="Fill-129"
           inkscape:connector-curvature="0"
           style="fill:#cc7700;fill-rule:nonzero" />
        <path
           d="m 536.07787,160.13787 c 0.69938,2.88375 2.37563,5.48813 4.7475,7.36688 0.69938,0.555 1.44938,1.03313 2.23313,1.43812 0.62062,-0.52125 1.21688,-1.05187 1.7775,-1.5975 0.70875,-0.68812 1.36312,-1.39312 1.96312,-2.1 -2.97749,-0.88687 -5.39812,-3.36187 -6.06187,-6.47437 -0.0975,-0.46313 -0.15938,-0.9375 -0.17813,-1.4175 -0.825,0.41437 -1.65937,0.885 -2.48812,1.41375 -0.67125,0.42 -1.33312,0.88312 -1.99313,1.37062"
           id="Fill-131"
           inkscape:connector-curvature="0"
           style="fill:#994c00;fill-rule:nonzero" />
        <path
           d="m 546.7035,158.25744 c 2.60813,2.94375 10.75687,2.61375 14.19187,-9.38063 0.29813,-1.04062 -0.78937,-1.94625 -1.75312,-1.455 -1.61812,0.82313 -3.98812,1.60125 -6.98812,1.41938 -6,-0.3675 -9.07313,5.32312 -5.45063,9.41625"
           id="Fill-133"
           inkscape:connector-curvature="0"
           style="fill:#ffc899;fill-rule:nonzero" />
        <path
           d="m 552.04106,149.09862 c 1.6875,1.3125 0.14438,1.75688 1.13625,3.69188 1.14,2.21812 4.1925,-1.12125 5.40938,1.56937 0.88125,-1.46062 1.66875,-3.25875 2.29875,-5.44687 0.30375,-1.05188 -0.80063,-1.96688 -1.7775,-1.47375 -1.62,0.8175 -3.97688,1.5825 -6.95438,1.40062 -0.15,-0.009 -0.29812,-0.015 -0.44437,-0.015 0.10875,0.0937 0.2175,0.18563 0.33187,0.27375"
           id="Fill-135"
           inkscape:connector-curvature="0"
           style="fill:#00d000;fill-rule:nonzero" />
        <path
           d="m 529.69856,169.96344 c -2.11312,0.95062 0.5025,9.54562 5.775,10.04625 5.27625,0.5025 8.28938,-3.76688 8.54063,-6.2775 0.25125,-2.5125 -9.2925,-6.02813 -14.31563,-3.76875"
           id="Fill-137"
           inkscape:connector-curvature="0"
           style="fill:#ffffff;fill-rule:nonzero" />
        <path
           d="m 416.43131,194.96825 c 0,0 -9.73312,3.58875 -11.4525,6.21937 -1.85812,2.84625 -1.94812,7.30688 0.1725,7.53375 4.37625,0.46875 13.43813,-7.65562 13.43813,-7.65562 z"
           id="Fill-139"
           inkscape:connector-curvature="0"
           style="fill:#e1e1e6;fill-rule:nonzero" />
        <path
           d="m 477.77888,72.754625 c 0,6.148125 -4.98376,11.131875 -11.13188,11.131875 -6.15,0 -11.13375,-4.98375 -11.13375,-11.131875 0,-6.148125 4.98375,-11.131875 11.13375,-11.131875 6.14812,0 11.13188,4.98375 11.13188,11.131875"
           id="Fill-141"
           inkscape:connector-curvature="0"
           style="fill:#ff99f9;fill-rule:nonzero" />
        <path
           d="m 488.36063,61.184187 c 0,6.148125 -4.98376,11.131875 -11.13188,11.131875 -6.15,0 -11.13375,-4.98375 -11.13375,-11.131875 0,-6.148125 4.98375,-11.131875 11.13375,-11.131875 6.14812,0 11.13188,4.98375 11.13188,11.131875"
           id="Fill-143"
           inkscape:connector-curvature="0"
           style="fill:#ff99f9;fill-rule:nonzero" />
        <path
           d="m 455.27888,90.471875 c -2.98876,0 -5.41126,-2.4225 -5.41126,-5.413125 0,-2.986875 2.4225,-5.41125 5.41126,-5.41125 2.99062,0 5.41312,2.424375 5.41312,5.41125 0,2.990625 -2.4225,5.413125 -5.41312,5.413125"
           id="Fill-145"
           inkscape:connector-curvature="0"
           style="fill:#ff99f9;fill-rule:nonzero" />
        <path
           d="m 485.93081,108.863 c -6.13875,0.32063 -11.37562,-4.39875 -11.69625,-10.5375 -0.31875,-6.1425 4.39875,-11.3775 10.53938,-11.69625 6.13875,-0.320625 11.37562,4.396875 11.69625,10.539375 0.32062,6.138745 -4.39875,11.375625 -10.53938,11.694375"
           id="Fill-147"
           inkscape:connector-curvature="0"
           style="fill:#ff99f9;fill-rule:nonzero" />
        <path
           d="m 509.61919,117.32056 c 6.10312,-0.74812 11.65875,3.58875 12.40687,9.69188 0.75188,6.10312 -3.58875,11.65875 -9.69,12.40875 -6.10312,0.75 -11.65875,-3.58875 -12.40875,-9.69188 -0.74812,-6.10312 3.58875,-11.65875 9.69188,-12.40875"
           id="Fill-149"
           inkscape:connector-curvature="0"
           style="fill:#ff99f9;fill-rule:nonzero" />
        <path
           d="m 459.26325,98.285 c -2.98875,0 -5.41125,-2.424375 -5.41125,-5.413125 0,-2.98875 2.4225,-5.41125 5.41125,-5.41125 2.99062,0 5.41312,2.4225 5.41312,5.41125 0,2.98875 -2.4225,5.413125 -5.41312,5.413125"
           id="Fill-151"
           inkscape:connector-curvature="0"
           style="fill:#ff99f9;fill-rule:nonzero" />
        <path
           d="m 499.15106,203.88369 c 6.10313,-0.75 11.65688,3.58875 12.40688,9.69187 0.75187,6.10313 -3.58875,11.65875 -9.69188,12.40688 -6.10312,0.75187 -11.65687,-3.58875 -12.40687,-9.69188 -0.75,-6.10125 3.58875,-11.65687 9.69187,-12.40687"
           id="Fill-153"
           inkscape:connector-curvature="0"
           style="fill:#ff99f9;fill-rule:nonzero" />
        <path
           d="m 521.54662,215.36262 c 0,5.48063 -4.44187,9.9225 -9.92062,9.9225 -5.48063,0 -9.9225,-4.44187 -9.9225,-9.9225 0,-5.47875 4.44187,-9.92062 9.9225,-9.92062 5.47875,0 9.92062,4.44187 9.92062,9.92062"
           id="Fill-155"
           inkscape:connector-curvature="0"
           style="fill:#ff99f9;fill-rule:nonzero" />
        <path
           d="m 556.52887,82.129625 c 0,6.148125 -4.98375,11.131875 -11.13187,11.131875 -6.15,0 -11.13375,-4.98375 -11.13375,-11.131875 0,-6.148125 4.98375,-11.131875 11.13375,-11.131875 6.14812,0 11.13187,4.98375 11.13187,11.131875"
           id="Fill-157"
           inkscape:connector-curvature="0"
           style="fill:#ff99f9;fill-rule:nonzero" />
        <path
           d="m 533.56012,57.754625 c 0,6.148125 -4.98375,11.131875 -11.13187,11.131875 -6.15,0 -11.13375,-4.98375 -11.13375,-11.131875 0,-6.148125 4.98375,-11.131875 11.13375,-11.131875 6.14812,0 11.13187,4.98375 11.13187,11.131875"
           id="Fill-159"
           inkscape:connector-curvature="0"
           style="fill:#ff99f9;fill-rule:nonzero" />
        <path
           d="M 405.28012,30.056187 H 425.592 c 0,0 -6.35625,-14.203124 7.13812,-16.042499 12.03375,-1.636875 16.79063,10.728749 16.79063,10.728749 0,0 1.425,-7.134375 8.58375,-5.769375 7.0575,1.34625 12.26625,12.695625 12.26625,12.695625 h 17.68687"
           id="Fill-161"
           inkscape:connector-curvature="0"
           style="fill:#ffffff;fill-rule:nonzero" />
        <path
           d="M 426.21638,27.871812 H 405.9045 c -0.5175,0 -0.9375,-0.42 -0.9375,-0.9375 0,-0.5175 0.42,-0.9375 0.9375,-0.9375 h 18.95062 c -0.79125,-2.338125 -2.02312,-7.306875 0.13688,-11.19375 1.48312,-2.668124 4.2525,-4.295624 8.235,-4.8374995 9.48375,-1.29375 14.7225,5.6587505 16.77187,9.2606255 1.27125,-2.553751 4.02563,-5.23125 8.90625,-4.295625 6.53813,1.246874 11.42438,8.780624 12.63,10.801874 H 488.682 c 0.51937,0 0.9375,0.420001 0.9375,0.9375 0,0.519375 -0.41813,0.9375 -0.9375,0.9375 h -17.68688 c -0.34312,0 -0.65625,-0.185624 -0.82312,-0.48375 -0.0488,-0.09188 -5.085,-9.105 -11.61938,-10.351875 -6.17812,-1.181249 -7.43812,4.779375 -7.48875,5.032501 -0.0825,0.408749 -0.42375,0.714374 -0.83812,0.75 -0.4425,0.02812 -0.80625,-0.208126 -0.95625,-0.596251 -0.18375,-0.47625 -4.65375,-11.643749 -15.78938,-10.136249 -3.36375,0.459375 -5.66812,1.768125 -6.84937,3.894375 -2.41313,4.340624 0.4125,10.771875 0.44062,10.835624 0.12938,0.28875 0.105,0.62625 -0.0675,0.890625 -0.17437,0.268126 -0.46875,0.429375 -0.78749,0.429375"
           id="Fill-163"
           inkscape:connector-curvature="0"
           style="fill:#e1e1e6;fill-rule:nonzero" />
        <path
           d="m 489.36769,33.634062 h -83.715 c -1.03688,0 -1.875,-0.838125 -1.875,-1.875 0,-1.036875 0.83812,-1.875 1.875,-1.875 h 83.715 c 1.03687,0 1.875,0.838125 1.875,1.875 0,1.036875 -0.83813,1.875 -1.875,1.875"
           id="Fill-165"
           inkscape:connector-curvature="0"
           style="fill:#ffffff;fill-rule:nonzero" />
        <path
           d="m 482.62931,74.246938 c -0.92812,0 -1.73437,-0.684376 -1.85437,-1.629375 -0.37125,-2.910001 0.85312,-9.2925 8.1525,-12.626251 6.9375,-3.166874 12.04125,0.793126 13.76625,3.331876 0.58312,0.856875 0.36187,2.023124 -0.495,2.604374 -0.85875,0.585001 -2.025,0.360001 -2.60625,-0.494999 -0.33,-0.470625 -3.45188,-4.618126 -9.10875,-2.028751 -6.5475,2.990625 -6.01313,8.52 -5.98688,8.7525 0.11438,1.023751 -0.61875,1.955625 -1.64062,2.075625 -0.0769,0.0094 -0.15188,0.015 -0.22688,0.015"
           id="Fill-167"
           inkscape:connector-curvature="0"
           style="fill:#ff66ed;fill-rule:nonzero" />
        <path
           d="m 497.27606,62.542812 c -0.0487,0 -0.0994,-0.0037 -0.15,-0.01125 -0.51187,-0.0825 -0.85875,-0.564374 -0.77812,-1.074374 0.0113,-0.05813 1.01437,-5.846251 7.995,-6.847501 5.26312,-0.753749 7.88625,2.87625 8.535,4.899375 0.15937,0.493125 -0.11063,1.021875 -0.60375,1.179375 -0.48938,0.163125 -1.02,-0.110625 -1.17938,-0.605624 -0.0562,-0.170625 -1.51687,-4.323751 -6.48562,-3.616875 -5.62875,0.806249 -6.40313,5.2425 -6.40875,5.287499 -0.075,0.46125 -0.4725,0.789375 -0.92438,0.789375"
           id="Fill-169"
           inkscape:connector-curvature="0"
           style="fill:#ff66ed;fill-rule:nonzero" />
        <path
           d="m 525.888,138.158 c -2.07187,0 -3.8025,-0.89063 -4.72312,-1.67438 -0.39376,-0.33562 -0.44063,-0.92812 -0.105,-1.32187 0.33937,-0.39563 0.93374,-0.43875 1.32187,-0.105 0.14062,0.11812 3.55313,2.9025 7.41937,-0.32625 4.32751,-3.60938 2.74313,-7.69875 2.67375,-7.86937 -0.19312,-0.47813 0.0356,-1.02376 0.51188,-1.22063 0.47812,-0.2025 1.02188,0.0281 1.22062,0.50438 0.0225,0.0544 2.21063,5.50687 -3.20437,10.02374 -1.76438,1.47375 -3.53813,1.98938 -5.115,1.98938"
           id="Fill-171"
           inkscape:connector-curvature="0"
           style="fill:#ff66ed;fill-rule:nonzero" />
        <path
           d="m 474.14981,65.666562 c -0.0487,0 -0.10125,-0.0056 -0.15187,-0.01313 -0.51,-0.08437 -0.855,-0.5625 -0.77438,-1.070624 0.009,-0.05813 1.0125,-5.846251 7.99313,-6.847501 5.2575,-0.759375 7.88437,2.874375 8.535,4.899375 0.15937,0.493125 -0.11063,1.021875 -0.60375,1.179375 -0.48938,0.16125 -1.02,-0.112499 -1.17938,-0.605624 -0.0563,-0.1725 -1.51687,-4.335 -6.48562,-3.616875 -5.57625,0.800624 -6.37688,5.107499 -6.40875,5.291249 -0.0788,0.4575 -0.47438,0.78375 -0.92438,0.78375"
           id="Fill-173"
           inkscape:connector-curvature="0"
           style="fill:#ff66ed;fill-rule:nonzero" />
        <path
           d="m 533.10056,127.82525 c -2.5725,0 -4.78312,-0.93563 -6.05437,-1.83187 -0.84563,-0.59625 -1.04813,-1.76625 -0.45188,-2.61188 0.6,-0.8475 1.76813,-1.04812 2.61375,-0.45187 0.4725,0.32437 4.84875,3.10312 9.24188,-1.30313 5.15062,-5.16937 2.56125,-10.23563 2.535,-10.28438 -0.48563,-0.91499 -0.135,-2.05124 0.78,-2.53499 0.91875,-0.48563 2.04937,-0.13313 2.535,0.78 1.37062,2.59312 2.46937,9 -3.19313,14.68687 -2.65687,2.66437 -5.50312,3.55125 -8.00625,3.55125"
           id="Fill-175"
           inkscape:connector-curvature="0"
           style="fill:#ff66ed;fill-rule:nonzero" />
        <path
           d="m 488.59125,196.53387 c -0.0469,0 -0.0937,-0.004 -0.14063,-0.0113 -0.51375,-0.0769 -0.86437,-0.55312 -0.7875,-1.065 0.99,-6.61312 23.65313,-14.96812 26.23313,-15.9 0.49312,-0.16874 1.02375,0.0788 1.20187,0.56438 0.17438,0.4875 -0.0769,1.02562 -0.56437,1.20187 -9.34125,3.36938 -24.39563,10.26188 -25.01813,14.41125 -0.0694,0.46501 -0.46875,0.79875 -0.92437,0.79875"
           id="Fill-177"
           inkscape:connector-curvature="0"
           style="fill:#e1e1e6;fill-rule:nonzero" />
        <path
           d="m 414.37313,196.6895 c -0.3225,0 -0.63376,-0.165 -0.81,-0.45938 -0.2625,-0.44625 -0.11438,-1.02187 0.32999,-1.28625 0.15563,-0.09 15.66563,-9.18937 36.03375,-14.42999 0.5025,-0.12938 1.0125,0.17249 1.14188,0.67312 0.12937,0.5025 -0.1725,1.0125 -0.67313,1.14375 -20.10187,5.17125 -35.39437,14.13937 -35.54625,14.22937 -0.15,0.0881 -0.315,0.12938 -0.47624,0.12938"
           id="Fill-179"
           inkscape:connector-curvature="0"
           style="fill:#ffffff;fill-rule:nonzero" />
        <path
           d="m 203.70112,177.10812 c 0,-8.09062 6.55875,-14.6475 14.6475,-14.6475 8.0925,0 14.64938,6.55688 14.64938,14.6475 0,8.08875 -6.55688,14.6475 -14.64938,14.6475 -8.08875,0 -14.6475,-6.55875 -14.6475,-14.6475 m 48.82875,-4.8825 H 242.2755 c -0.55688,-3.12562 -1.7175,-6.10875 -3.41813,-8.79 l 7.32375,-7.32375 c 1.62001,-2.15812 1.18125,-5.21812 -0.975,-6.83625 -1.73625,-1.30125 -4.12312,-1.30125 -5.85937,0 l -7.32563,7.32375 c -2.6775,-1.70062 -5.66437,-2.86125 -8.78812,-3.41812 v -10.2525 c 0,-2.69813 -2.18625,-4.88438 -4.88438,-4.88438 -2.69437,0 -4.88062,2.18625 -4.88062,4.88438 v 10.2525 c -3.12375,0.55687 -6.11063,1.7175 -8.79,3.41812 l -6.83625,-7.32375 c -2.02125,-2.02312 -5.30063,-2.02312 -7.32375,0 -2.02125,2.02125 -2.02125,5.30063 0,7.32375 l 7.32375,6.83625 c -1.69875,2.68125 -2.85938,5.66438 -3.41625,8.79 h -10.25438 c -2.69625,0 -4.88437,2.18625 -4.88437,4.8825 0,2.69625 2.18812,4.8825 4.88437,4.8825 h 10.25438 c 0.55687,3.12563 1.7175,6.10875 3.41625,8.78813 l -7.32375,6.83812 c -2.15813,1.61625 -2.595,4.67813 -0.97688,6.83438 1.62,2.15625 4.67813,2.595 6.83625,0.97687 0.37125,-0.2775 0.69938,-0.6075 0.97688,-0.97687 l 6.83625,-7.32375 c 2.67937,1.69875 5.66437,2.85937 8.78812,3.41812 v 10.74188 c 0,2.69625 2.18625,4.8825 4.88438,4.8825 2.69625,0 4.88062,-2.18625 4.88062,-4.8825 v -10.25438 c 3.12563,-0.55687 6.11063,-1.7175 8.79,-3.41625 l 7.32375,7.32375 c 2.15813,1.61625 5.21813,1.18125 6.83625,-0.97875 1.30313,-1.73625 1.30313,-4.12125 0,-5.85937 l -7.32375,-7.32375 c 1.87125,-2.64 3.19875,-5.62875 3.90563,-8.78813 h 10.25437 c 2.69625,0 4.8825,-2.18625 4.8825,-4.8825 0,-2.69625 -2.18625,-4.8825 -4.8825,-4.8825"
           id="Fill-181"
           inkscape:connector-curvature="0"
           style="fill:#e1e1e6;fill-rule:nonzero" />
        <path
           d="m 436.69556,290.97969 c -1.43812,0 -3.91687,-1.40438 -9.13875,-7.88813 -9.24,-11.47125 -18.9375,-33.83062 -20.18812,-39.76875 -1.245,-5.92125 1.90312,-26.76 11.7525,-38.90812 7.71,-9.51 24.60187,-23.76188 30.36,-28.52625 -9.09,-0.21563 -39.39188,-1.21875 -47.82938,-5.02875 -9.81937,-4.43625 -17.20875,-12.28125 -20.80687,-22.09688 -3.4875,-9.50812 -3.89063,-12.50625 -0.3375,-17.02687 3.28875,-4.18125 13.35937,-13.06125 22.96312,-18.18375 9.4425,-5.03438 29.96438,-14.163753 43.93125,-18.198753 0.49125,-0.146249 1.01625,0.144375 1.16063,0.64125 0.1425,0.496875 -0.1425,1.01625 -0.64125,1.160625 -13.84313,4.001248 -34.19813,13.053748 -43.5675,18.052498 -9.38063,5.0025 -19.18125,13.63125 -22.3725,17.68688 -2.93813,3.74062 -2.8575,5.73187 0.62437,15.225 3.42375,9.33562 10.46063,16.80375 19.81875,21.02812 9.39938,4.24875 49.22813,4.91438 49.6275,4.91813 0.39375,0.006 0.74438,0.25875 0.87188,0.63187 0.12937,0.375 0.009,0.7875 -0.29625,1.035 -0.22688,0.18563 -22.845,18.50813 -32.04938,29.86125 -9.34125,11.52188 -12.52875,31.84688 -11.37375,37.3425 1.2225,5.80875 10.73438,27.71063 19.81313,38.97938 6.16875,7.65937 7.75312,7.18687 7.76812,7.17 0.0994,-0.0394 0.35625,-0.56625 0.25688,-1.81875 -0.165,-2.03063 -4.54313,-17.24438 -6.2175,-22.93688 -0.09,-0.3 -0.0206,-0.62625 0.18187,-0.86625 0.19875,-0.24187 0.52875,-0.35625 0.81938,-0.33 0.0581,0.008 5.69625,0.61875 15.21187,0.61875 9.48938,0 20.04188,-1.84125 20.14875,-1.86 0.27188,-0.0431 0.54938,0.0263 0.76125,0.2025 0.21188,0.17438 0.33563,0.435 0.33938,0.71063 0.1275,11.355 0.89625,23.7975 1.98562,26.12437 1.51125,-1.03875 4.30125,-6.51 7.1175,-15.76125 2.16,-7.10437 5.31,-37.39125 6.21375,-47.62125 0.89063,-10.11562 5.55938,-30.15 7.68188,-32.97937 1.92,-2.56125 24.13125,-13.00875 28.5675,-15.07688 0.465,-0.21937 1.02375,-0.0187 1.245,0.45375 0.21937,0.46875 0.015,1.02563 -0.45563,1.245 -10.09687,4.71375 -26.59125,12.8175 -27.855,14.50125 -1.64062,2.18625 -6.3375,20.92125 -7.31625,32.01938 -0.675,7.6425 -3.91125,40.19625 -6.28687,48.00375 -1.48688,4.8825 -5.31938,16.33125 -8.79563,17.19937 -0.3975,0.0956 -0.78937,0.009 -1.11937,-0.2475 -2.21438,-1.70812 -2.72625,-18.47812 -2.84438,-26.74875 -2.97187,0.47063 -11.5275,1.71 -19.3875,1.71 -6.885,0 -11.77687,-0.31687 -14.02687,-0.5025 1.41187,4.83563 5.71312,19.695 5.89875,21.99 0.2025,2.51625 -0.6675,3.40875 -1.43063,3.7125 -0.22687,0.0919 -0.48187,0.15188 -0.78375,0.15188"
           id="Fill-183"
           inkscape:connector-curvature="0"
           style="fill:#c8c8cc;fill-rule:nonzero" />
        <path
           d="m 277.58419,89.765 c -0.39375,0 -0.7125,0.31875 -0.7125,0.7125 v 8.53875 c 0,0.391875 0.31875,0.70875 0.7125,0.70875 0.39187,0 0.71062,-0.316875 0.71062,-0.70875 V 90.4775 c 0,-0.39375 -0.31875,-0.7125 -0.71062,-0.7125 m 9.88875,9.035625 -2.84625,-7.824375 c -0.13688,-0.375 -0.55125,-0.564375 -0.92438,-0.4275 -0.375,0.136875 -0.56437,0.55125 -0.4275,0.924375 l 2.84625,7.82625 c 0.09,0.283125 0.34313,0.481875 0.64125,0.49875 h 0.21375 c 0.38438,-0.08062 0.63,-0.459375 0.54938,-0.84375 -0.0131,-0.0525 -0.03,-0.103125 -0.0525,-0.15375 M 281.85169,90.4775 c -0.39375,0 -0.7125,0.31875 -0.7125,0.710625 v 7.828125 c 0,0.391875 0.31875,0.70875 0.7125,0.70875 0.39375,0 0.7125,-0.316875 0.7125,-0.70875 v -7.828125 c 0,-0.391875 -0.31875,-0.710625 -0.7125,-0.710625 m -2.13375,0.710625 c -0.39188,0 -0.71063,0.31875 -0.71063,0.7125 v 7.115625 c 0,0.391875 0.31875,0.70875 0.71063,0.70875 0.39375,0 0.7125,-0.316875 0.7125,-0.70875 v -7.115625 c 0,-0.39375 -0.31875,-0.7125 -0.7125,-0.7125"
           id="Fill-185"
           inkscape:connector-curvature="0"
           style="fill:#8000ff;fill-rule:nonzero" />
        <path
           d="m 425.907,252.08619 c -5.62875,0 -11.09625,-0.61688 -16.39875,-1.8525 -32.685,-7.61625 -58.59937,-37.65938 -79.22813,-91.85063 -16.24874,-42.68062 -38.42812,-56.03437 -38.64937,-56.16562 -0.45,-0.26063 -0.6,-0.83438 -0.3375,-1.28063 0.26062,-0.45 0.83625,-0.59812 1.2825,-0.3375 0.93188,0.54375 22.97625,13.8225 39.45563,57.11813 20.39062,53.56125 45.87187,83.2275 77.90062,90.69 33.9675,7.9125 74.98688,-10.21688 121.93125,-53.88375 0.37875,-0.35438 0.97125,-0.33 1.32563,0.0469 0.35062,0.37875 0.33187,0.97313 -0.0488,1.32563 -40.1625,37.3575 -76.14187,56.19 -107.23312,56.19"
           id="Fill-187"
           inkscape:connector-curvature="0"
           style="fill:#e1e1e6;fill-rule:nonzero" />
        <path
           d="m 429.50494,265.67806 c -10.7475,0 -22.19063,-1.58062 -34.19438,-5.37187 -40.13625,-12.67313 -58.18687,-58.25438 -72.69,-94.87875 -8.2575,-20.85 -15.38812,-38.85563 -24.75,-47.27063 -0.77062,-0.69187 -0.83437,-1.87875 -0.1425,-2.6475 0.69563,-0.76875 1.88063,-0.82875 2.6475,-0.1425 10.02,9.00375 17.29875,27.39 25.73063,48.68063 14.2125,35.88562 31.8975,80.54625 70.33125,92.685 69.87187,22.05562 120.43687,-33.30563 120.9375,-33.86813 0.69187,-0.77062 1.87875,-0.83812 2.6475,-0.14812 0.7725,0.68812 0.84,1.87312 0.15,2.64562 -0.43125,0.48375 -36.74063,40.31625 -90.6675,40.31625"
           id="Fill-189"
           inkscape:connector-curvature="0"
           style="fill:#e1e1e6;fill-rule:nonzero" />
        <path
           d="m 441.36656,238.79637 -4.785,-1.38187 c -0.65812,-0.19125 -1.34812,0.1875 -1.54125,0.84938 -0.19125,0.65999 0.19125,1.35187 0.85125,1.54124 l 4.78313,1.38188 c 0.66,0.19125 1.35187,-0.18938 1.54125,-0.84938 0.19125,-0.66 -0.18938,-1.35 -0.84938,-1.54125 z m 8.55563,-2.70937 -11.95688,-3.4575 c -0.66,-0.19125 -1.35,0.18937 -1.54125,0.85125 -0.19125,0.66 0.18938,1.35 0.84938,1.54125 l 11.95875,3.45562 c 0.66,0.19313 1.35,-0.18937 1.54125,-0.84937 0.19125,-0.66188 -0.18938,-1.35 -0.85125,-1.54125 z m 1.38375,-4.78313 -11.95875,-3.4575 c -0.66,-0.18937 -1.35,0.19125 -1.53938,0.84938 -0.19312,0.66188 0.1875,1.35187 0.84938,1.54312 l 11.95875,3.45563 c 0.65812,0.19125 1.34812,-0.1875 1.53937,-0.84938 0.19125,-0.66 -0.18937,-1.35187 -0.84937,-1.54125 z m 1.38187,-4.78312 -11.95687,-3.4575 c -0.66,-0.18938 -1.35188,0.19125 -1.54125,0.85125 -0.19313,0.66 0.1875,1.35 0.84937,1.54125 l 11.95875,3.4575 c 0.65813,0.18937 1.35,-0.19125 1.54125,-0.85125 0.19125,-0.66 -0.18937,-1.35 -0.85125,-1.54125 z m -0.24187,23.25187 c -0.3825,1.32188 -1.7625,2.08313 -3.0825,1.70063 l -19.1325,-5.52938 c -1.32375,-0.3825 -2.08313,-1.7625 -1.7025,-3.08437 l 6.915,-23.91563 c 0.38062,-1.32 1.76062,-2.08125 3.08062,-1.70062 l 19.13438,5.53125 c 1.32187,0.38062 2.08312,1.7625 1.70062,3.0825 z m 8.98687,-31.09125 -23.9175,-6.91312 c -2.64,-0.76313 -5.40187,0.75937 -6.165,3.40125 l -8.29687,28.69875 c -0.76313,2.64187 0.76125,5.40375 3.40312,6.16687 l 23.91563,6.91313 c 2.64187,0.76312 5.40187,-0.75938 6.165,-3.40125 l 8.29687,-28.69875 c 0.76313,-2.64188 -0.75937,-5.40188 -3.40125,-6.16688 z"
           id="Fill-191"
           inkscape:connector-curvature="0"
           style="fill:#00d000;fill-rule:nonzero" />
        <path
           d="m 313.06631,159.85606 c -0.48187,0.1575 -0.885,0.50063 -1.11562,0.9525 l -4.185,7.95938 -7.77563,-4.245 c -0.50625,-0.27375 -1.10812,-0.30938 -1.64437,-0.0937 -1.0125,0.33 -1.56375,1.4175 -1.23375,2.42812 0.15375,0.47063 0.48187,0.86438 0.91687,1.10063 l 7.96125,4.18687 1.6875,0.885 c 0.93375,0.48 2.0775,0.12563 2.57625,-0.79875 l 0.88875,-1.68937 4.185,-7.9575 c 0.48563,-0.94688 0.1125,-2.1075 -0.83437,-2.595 -0.44063,-0.225 -0.95063,-0.27375 -1.42688,-0.13313 m -1.6425,20.68688 c -8.13,2.52562 -16.76812,-2.0175 -19.29375,-10.1475 l -2.2875,-7.35938 c -0.63187,-2.0325 0.50438,-4.1925 2.53688,-4.82437 l 22.08,-6.85875 c 2.03437,-0.63188 4.1925,0.5025 4.82437,2.535 l 2.2875,7.36125 c 2.52563,8.13 -2.0175,16.77 -10.1475,19.29375"
           id="Fill-193"
           inkscape:connector-curvature="0"
           style="fill:#e63821;fill-rule:nonzero" />
        <path
           d="m 532.46344,218.50644 c -1.32563,-0.71813 -2.98313,-0.25688 -3.74813,1.04437 -3.05437,5.6025 -9.51187,8.43188 -15.70312,6.8775 -4.28438,-1.08187 -7.78688,-4.155 -9.4125,-8.265 l 5.41875,1.42313 c 1.49625,0.39375 3.02625,-0.50063 3.41812,-1.995 0.39375,-1.49625 -0.49875,-3.03 -1.995,-3.42188 l -10.83375,-2.84437 c -1.49625,-0.39375 -3.02812,0.50062 -3.42187,1.995 l -2.84438,10.83562 c -0.39187,1.49625 0.50063,3.02625 1.99688,3.42 1.49625,0.39188 3.02625,-0.5025 3.42,-1.99875 l 0.78187,-2.9775 c 5.025,9.41438 16.72875,12.97313 26.145,7.95 3.47063,-1.8525 6.29438,-4.72312 8.09063,-8.22375 0.70687,-1.37437 0.165,-3.06375 -1.21125,-3.77062 -0.0338,-0.015 -0.0656,-0.0319 -0.10125,-0.0488 m 5.33625,-20.31188 c -1.49625,-0.39375 -3.02813,0.50063 -3.42188,1.995 l -0.78187,2.97938 c -5.02313,-9.4125 -16.72688,-12.97313 -26.14313,-7.94813 -3.47062,1.8525 -6.29437,4.72125 -8.09062,8.22188 -0.70688,1.37625 -0.165,3.06375 1.21125,3.77062 0.0337,0.0169 0.0656,0.0319 0.10125,0.0487 l 0.54187,0.1425 c 1.29938,0.36938 2.67938,-0.24375 3.2775,-1.455 3.12938,-5.46937 9.52875,-8.175 15.63188,-6.6075 4.28437,1.07813 7.78687,4.155 9.41062,8.26313 l -5.41687,-1.42313 c -1.49625,-0.39187 -3.02625,0.50063 -3.41813,1.99688 -0.39375,1.49625 0.49875,3.02625 1.995,3.42 l 10.83375,2.84625 c 1.49625,0.39187 3.02813,-0.5025 3.42188,-1.99688 l 2.84437,-10.83562 c 0.39188,-1.49625 -0.50062,-3.02625 -1.99687,-3.41813"
           id="Fill-195"
           inkscape:connector-curvature="0"
           style="fill:#2bb0cc;fill-rule:nonzero" />
        <path
           d="m 354.20662,182.30844 c -5.23687,-1.93688 -11.11312,-0.8625 -15.32437,2.80312 l 1.81313,-4.8225 c 0.18562,-0.49312 -0.0638,-1.04437 -0.55876,-1.22812 -0.49312,-0.18563 -1.04437,0.0637 -1.22812,0.55687 l -3.35625,8.93063 c -0.18563,0.495 0.0637,1.04437 0.55875,1.23 l 8.93062,3.35625 c 0.49313,0.18562 1.04438,-0.0656 1.23,-0.55688 0.18375,-0.49312 -0.0656,-1.04437 -0.55875,-1.23 l -5.53687,-2.08125 c 4.15312,-4.76625 11.38688,-5.26125 16.155,-1.10625 4.76625,4.15688 5.25937,11.38875 1.10625,16.155 -4.15688,4.76625 -11.39063,5.26313 -16.15688,1.10625 -2.49937,-2.17875 -3.93,-5.33625 -3.92437,-8.65125 0.007,-1.06687 -0.85125,-1.93687 -1.92,-1.94437 -1.06688,-0.007 -1.93688,0.85312 -1.94438,1.91812 0.0975,8.43188 7.01063,15.1875 15.44063,15.09 8.43375,-0.0975 15.1875,-7.00875 15.09,-15.44062 -0.0712,-6.26438 -3.96375,-11.85 -9.81563,-14.085 z m -9.28125,18.73312 4.91438,-2.22937 c 0.23625,-0.1425 0.39937,-0.37875 0.44625,-0.64875 l 2.68687,-7.14375 c 0.18376,-0.495 -0.0637,-1.04438 -0.55874,-1.23 -0.49313,-0.18563 -1.04438,0.0637 -1.22813,0.55687 l -2.55188,6.7875 -4.60125,1.94063 c -0.47249,0.22125 -0.68062,0.77437 -0.47062,1.25062 l 1.25063,0.46875 z"
           id="Fill-197"
           inkscape:connector-curvature="0"
           style="fill:#ffaa00;fill-rule:nonzero" />
        <path
           d="m 370.06894,257.96394 8.36812,3.15187 c 2.47875,0.82313 5.15813,-0.52125 5.97938,-3 0.006,-0.0169 0.0112,-0.0337 0.0169,-0.0506 l -11.33812,-3.9825 z m -10.5825,9.135 c -1.6275,0.4875 -3.34125,-0.43688 -3.82875,-2.06438 -0.48563,-1.6275 0.43875,-3.34125 2.06437,-3.82875 1.6275,-0.48562 3.34125,0.43688 3.82875,2.06438 0.0225,0.0731 0.0412,0.14625 0.0562,0.21937 0.45938,1.5 -0.3825,3.08813 -1.8825,3.5475 -0.0788,0.0244 -0.1575,0.0431 -0.23812,0.0619 z m -4.11188,-13.58438 c -1.5825,0.615 -3.36375,-0.17062 -3.98062,-1.75312 -0.615,-1.5825 0.16875,-3.36563 1.75312,-3.98063 1.58063,-0.615 3.36563,0.16875 3.98063,1.75313 0.0263,0.0694 0.0525,0.14062 0.075,0.21375 0.57562,1.45875 -0.13688,3.10687 -1.59375,3.68437 -0.0769,0.0319 -0.15563,0.0581 -0.23438,0.0825 z m 23.76188,-12.135 c -2.04188,-1.63125 -5.01938,-1.2975 -6.64875,0.74438 -0.0112,0.015 -0.0225,0.0281 -0.0337,0.0412 l -6.84188,9.24 -5.26312,-1.86938 -0.20438,-0.67875 c -0.53812,-1.78312 -1.88625,-3.20437 -3.63375,-3.84187 l -1.0275,-3.3975 -4.52812,1.37062 0.75187,2.49188 c -2.925,1.45312 -4.11562,5.0025 -2.66062,7.9275 1.45312,2.925 5.00437,4.1175 7.92937,2.66062 0.91875,-0.45562 1.7025,-1.14562 2.27438,-1.99687 l 3.33562,1.215 -2.48437,3.22312 c -3.16313,-0.8175 -6.39,1.08375 -7.20563,4.24688 -0.8175,3.16125 1.08375,6.38812 4.245,7.20375 3.16313,0.8175 6.39,-1.08375 7.20563,-4.245 0.27937,-1.07813 0.2475,-2.2125 -0.0919,-3.27188 -0.075,-0.38812 -0.18937,-0.76875 -0.34125,-1.13437 z m 2.41312,4.70625 4.52813,-1.36875 -1.36875,-4.52812 -4.52813,1.36875 z m 2.05688,6.79313 c 2.50125,-0.7575 3.915,-3.3975 3.15562,-5.89875 l -4.52812,1.37062 z m -4.11375,-13.58438 4.52812,-1.37062 -1.36875,-4.53 -4.52812,1.3725 z m -5.68875,-10.63687 -4.52813,1.3725 1.37063,4.52812 4.52812,-1.3725 z m -13.58438,4.11187 -4.52812,1.37063 1.37062,4.52812 4.52813,-1.36875 z m 15.8475,-4.79625 1.3725,4.52813 4.52813,-1.37063 c -0.75938,-2.50125 -3.39938,-3.91312 -5.90063,-3.1575 z m -9.05625,2.74125 -4.52812,1.36875 1.3725,4.53 4.52812,-1.37062 z m -13.58437,4.11 c -2.50125,0.7575 -3.915,3.39938 -3.1575,5.90063 l 4.52812,-1.3725 z"
           id="Fill-199"
           inkscape:connector-curvature="0"
           style="fill:#95e100;fill-rule:nonzero" />
        <path
           d="m 318.18975,117.749 -4.215,2.5425 c -0.84375,0.53437 -1.96125,0.28125 -2.49375,-0.5625 -0.5325,-0.84562 -0.28313,-1.96125 0.5625,-2.49375 l 4.07625,-2.57437 c -0.6525,-0.52313 -1.41375,-0.89438 -2.22938,-1.08938 -3.07312,-0.63937 -6.08249,1.3275 -6.72562,4.40063 -0.19688,0.94687 -0.15188,1.9275 0.135,2.85187 l -10.7025,6.75938 c -0.71437,0.32062 -1.035,1.16062 -0.71437,1.87687 0.32062,0.71625 1.16249,1.03687 1.87687,0.71625 0.12375,-0.0544 0.23625,-0.1275 0.33938,-0.21563 l 10.70249,-6.75937 c 0.71813,0.70688 1.61063,1.21125 2.58375,1.45875 3.06188,0.69188 6.105,-1.23 6.79688,-4.29187 0.20625,-0.86063 0.20812,-1.75688 0.007,-2.61938"
           id="Fill-201"
           inkscape:connector-curvature="0"
           style="fill:#f218cd;fill-rule:nonzero" />
        <g
           id="Group-205"
           transform="translate(114.375,278.375)">
          <g
             id="Fill-203-Clipped">
            <g
               id="g147">
              <mask
                 id="mask-6"
                 fill="white">
                <use
                   xlink:href="#path-5"
                   id="use141"
                   x="0"
                   y="0"
                   width="100%"
                   height="100%" />
              </mask>
              <g
                 id="g144" />
              <path
                 d="m 0.6555,9.5870625 c 0,-5.05875 45.324375,-9.16125 101.23313,-9.16125 55.90874,0 101.23124,4.1025 101.23124,9.16125 0,5.0606255 -45.3225,9.1631245 -101.23124,9.1631245 -55.908755,0 -101.23313,-4.102499 -101.23313,-9.1631245"
                 id="Fill-203"
                 mask="url(#mask-6)"
                 inkscape:connector-curvature="0"
                 style="fill:#ededf2;fill-rule:nonzero" />
            </g>
          </g>
        </g>
        <path
           d="m 186.1065,265.26256 c -0.53813,-0.11062 -1.065,0.23813 -1.17563,0.77625 -0.43687,2.14875 -1.04062,4.455 -2.04187,6.45563 -0.26438,-0.90188 -0.63563,-1.78125 -0.93,-2.48438 -0.1125,-0.26625 -0.21938,-0.51937 -0.26063,-0.64312 -0.17249,-0.52125 -0.73875,-0.80063 -1.26,-0.62625 -0.52312,0.1725 -0.80437,0.73687 -0.63,1.26 0.0637,0.19312 0.1725,0.45375 0.31313,0.78187 0.3,0.71438 0.75375,1.7925 0.98062,2.77125 0.24375,1.04625 0.11438,1.50188 -0.002,1.60313 -0.0544,0.0525 -0.105,0.10687 -0.14625,0.165 -1.00125,1.05187 -2.2425,1.8525 -3.795,2.2575 l -2.44313,-14.99813 c -0.36,-2.1975 -2.43,-3.68812 -4.62749,-3.33 -2.19751,0.35625 -3.68813,2.43 -3.33001,4.6275 l 4.2825,26.28 c 0.35625,2.1975 8.31375,0.90188 7.95563,-1.29562 l -1.51688,-9.3075 c 2.13188,-0.51375 3.78188,-1.60875 5.07,-3.02625 0.0319,-0.0356 0.0637,-0.0694 0.0937,-0.10688 2.46375,-2.77875 3.57938,-6.74437 4.24125,-9.98437 0.11063,-0.54 -0.23812,-1.065 -0.77812,-1.17563"
           id="Fill-206"
           inkscape:connector-curvature="0"
           style="fill:#de9b59;fill-rule:nonzero" />
        <path
           d="m 189.3915,241.06137 c -0.5325,-0.3825 -1.08938,-0.71062 -1.66125,-0.98624 0.31875,-0.33188 0.61875,-0.69001 0.89625,-1.07251 3.15,-4.38 2.15625,-10.485 -2.22375,-13.63875 -4.36125,-3.13875 -10.43063,-2.16374 -13.59562,2.16563 -0.53063,-1.34813 -1.43813,-2.565 -2.70188,-3.47438 -3.50063,-2.52 -8.38313,-1.725 -10.905,1.77563 -0.36,0.5025 -0.65063,1.03312 -0.8775,1.58062 -4.22063,-1.28062 -8.96813,0.17438 -11.68875,3.95438 -3.14438,4.36875 -2.48625,10.31625 1.32562,13.91062 -2.18625,0.64125 -4.18312,1.98751 -5.61937,3.97875 -3.42188,4.755 -2.34188,11.38688 2.41312,14.81063 2.40938,1.7325 5.29688,2.31 8.00438,1.84125 -0.13688,2.15813 0.80437,4.335 2.68875,5.6925 2.91187,2.09625 6.97312,1.43625 9.06937,-1.4775 0.2925,-0.405 0.53063,-0.8325 0.71438,-1.275 0.045,0.0337 0.0862,0.0675 0.13312,0.10125 4.66688,3.36 11.17688,2.30062 14.53688,-2.37 1.14375,-1.58813 1.77375,-3.39 1.92562,-5.20688 3.82125,0.3375 7.7175,-1.28625 10.11938,-4.6275 3.62625,-5.03437 2.4825,-12.05625 -2.55375,-15.6825"
           id="Fill-208"
           inkscape:connector-curvature="0"
           style="fill:#a5f894;fill-rule:nonzero" />
        <path
           d="m 153.76837,264.78087 -0.075,1.18688 c -0.12187,1.92375 0.73876,3.74625 2.30063,4.87125 2.48625,1.78875 5.97187,1.22437 7.76062,-1.26375 0.24563,-0.34125 0.45,-0.70687 0.61125,-1.08937 l 0.465,-1.11001 0.96188,0.72188 c 2.16937,1.56937 4.67812,2.16562 7.1775,1.75125 2.49937,-0.40688 4.68937,-1.7625 6.16687,-3.8175 1.005,-1.395 1.6125,-3.03188 1.755,-4.73812 l 0.0787,-0.9375 0.9375,0.0825 c 3.62063,0.3075 7.16438,-1.30875 9.27563,-4.24124 3.31875,-4.60875 2.26875,-11.05688 -2.34,-14.37376 -0.47625,-0.34312 -0.98625,-0.64687 -1.52063,-0.90562 l -1.16437,-0.56063 0.89625,-0.93187 c 0.28875,-0.30188 0.56062,-0.6225 0.81187,-0.97125 2.8425,-3.95063 1.9425,-9.48375 -2.01187,-12.32813 -3.92438,-2.82937 -9.43875,-1.94812 -12.29063,1.9575 l -1.005,1.37438 -0.62437,-1.58438 c -0.48375,-1.22812 -1.30688,-2.28562 -2.3775,-3.05812 -3.075,-2.2125 -7.38188,-1.51313 -9.59625,1.56375 -0.3075,0.4275 -0.56813,0.89625 -0.7725,1.39125 l -0.32625,0.78562 -0.81375,-0.2475 c -3.95063,-1.2 -8.23875,0.24938 -10.65188,3.60563 -2.82375,3.92062 -2.30437,9.37125 1.20563,12.67875 l 1.19062,1.12312 -1.56937,0.45938 c -2.07938,0.60937 -3.85313,1.86375 -5.1225,3.62812 -1.50938,2.09625 -2.10938,4.65563 -1.695,7.20563 0.41625,2.55187 1.79812,4.785 3.89437,6.29438 2.12438,1.52999 4.70813,2.1225 7.2975,1.68 z m 5.46375,8.9775 c -1.50562,0 -3.0225,-0.45375 -4.33312,-1.39687 -1.785,-1.28625 -2.88375,-3.24562 -3.06563,-5.39438 -2.715,0.2175 -5.38687,-0.52875 -7.6275,-2.14312 -5.16562,-3.71812 -6.345,-10.94625 -2.62687,-16.11563 1.22625,-1.70062 2.84437,-3.0075 4.73062,-3.82875 -3.2625,-3.98437 -3.51375,-9.7875 -0.43687,-14.06062 2.72625,-3.78563 7.43438,-5.54063 11.93438,-4.515 0.1875,-0.35438 0.39937,-0.6975 0.63187,-1.02 2.82,-3.915 8.29687,-4.80563 12.21375,-1.99125 0.95437,0.68812 1.75125,1.5525 2.35875,2.54437 3.63187,-3.74062 9.5925,-4.36125 13.93875,-1.23562 4.7925,3.45 5.88562,10.15687 2.4375,14.94937 -0.0637,0.0863 -0.12563,0.1725 -0.19125,0.25688 0.25312,0.15563 0.5025,0.32062 0.7425,0.49125 5.44687,3.92437 6.68812,11.54625 2.76937,16.99312 -2.28937,3.18 -6.01125,5.05875 -9.90562,5.05875 h -0.15563 c -0.28312,1.7175 -0.96187,3.3525 -1.9875,4.77563 -1.77187,2.46 -4.395,4.08563 -7.3875,4.57313 -2.69437,0.44062 -5.38875,-0.0881 -7.69125,-1.48501 -0.0956,0.15563 -0.19687,0.30751 -0.30187,0.45563 -1.45313,2.01562 -3.735,3.08812 -6.04688,3.08812 z"
           id="Fill-210"
           inkscape:connector-curvature="0"
           style="fill:#00b300;fill-rule:nonzero" />
        <path
           d="m 171.47831,278.28312 c -0.13687,0.0225 -0.28125,0.0169 -0.4275,-0.0244 -5.07375,-1.40063 -11.895,-4.07812 -12.55125,-11.09438 -0.0506,-0.5475 0.3525,-1.03312 0.9,-1.08562 0.54938,-0.0506 1.03313,0.3525 1.08563,0.90187 0.53437,5.7225 6.21187,8.00625 11.1,9.35626 0.53062,0.14624 0.84187,0.69562 0.69375,1.22625 -0.10688,0.38812 -0.42938,0.65999 -0.80063,0.71999"
           id="Fill-212"
           inkscape:connector-curvature="0"
           style="fill:#cc7700;fill-rule:nonzero" />
        <path
           d="m 174.77962,236.86831 c 1.06313,-0.3525 2.20688,0.21938 2.55938,1.28438 l 1.42875,4.3125 c 0.3525,1.065 -0.77813,0.52312 -1.84125,0.87562 -1.065,0.3525 -1.65188,1.455 -2.0025,0.3975 l -1.42875,-4.3125 c -0.3525,-1.06312 0.22875,-2.20687 1.28437,-2.5575"
           id="Fill-214"
           inkscape:connector-curvature="0"
           style="fill:#009900;fill-rule:nonzero" />
        <path
           d="m 175.45162,244.74556 c -0.22125,0.0731 -0.47624,0.0262 -0.65062,-0.15375 -0.24938,-0.25312 -0.24188,-0.6525 0.002,-0.9 1.07625,-1.06312 2.53875,-1.57312 4.00875,-1.39125 0.34875,0.0431 0.59438,0.36 0.55125,0.70688 -0.0431,0.35062 -0.35624,0.59625 -0.70687,0.55312 -1.08375,-0.135 -2.15813,0.24 -2.95688,1.02375 -0.0712,0.0769 -0.15187,0.12938 -0.2475,0.16125"
           id="Fill-216"
           inkscape:connector-curvature="0"
           style="fill:#00d000;fill-rule:nonzero" />
        <path
           d="m 157.34062,242.64894 c 1.06313,-0.3525 2.20688,0.22125 2.5575,1.28625 l 1.43063,4.31062 c 0.3525,1.065 -0.77813,0.52313 -1.84313,0.87563 -1.065,0.35437 -1.65,1.45687 -2.00062,0.39937 l -1.43063,-4.3125 c -0.3525,-1.065 0.23063,-2.20875 1.28625,-2.55937"
           id="Fill-218"
           inkscape:connector-curvature="0"
           style="fill:#009900;fill-rule:nonzero" />
        <path
           d="m 158.01263,250.52619 c -0.22313,0.0731 -0.47626,0.0262 -0.65251,-0.15375 -0.24937,-0.25313 -0.24187,-0.6525 0.002,-0.9 1.07812,-1.06125 2.53875,-1.57125 4.00875,-1.39125 0.35062,0.045 0.59437,0.36 0.55312,0.70875 -0.0431,0.34875 -0.35812,0.59437 -0.70875,0.55125 -1.08375,-0.13313 -2.15812,0.24 -2.95687,1.02375 -0.0712,0.0769 -0.15938,0.13125 -0.24562,0.16125"
           id="Fill-220"
           inkscape:connector-curvature="0"
           style="fill:#00d000;fill-rule:nonzero" />
        <path
           d="m 181.60763,246.93537 c -0.41813,0.0956 -0.83063,0.20438 -1.23563,0.31313 -0.10125,0.0694 -0.37875,0.24 -0.81,0.48 -0.5625,0.27375 -1.3275,0.7575 -2.295,1.185 -0.97312,0.41812 -2.08875,0.99 -3.31687,1.45875 -1.22438,0.50437 -2.55376,0.96375 -3.89063,1.42312 -1.3425,0.41813 -2.69063,0.8475 -3.97313,1.17563 -1.27687,0.3525 -2.50125,0.56625 -3.53062,0.80812 -1.03313,0.23625 -1.94063,0.31688 -2.55,0.42375 -0.48938,0.0637 -0.82313,0.0956 -0.9375,0.0994 -0.40313,0.15937 -0.79688,0.32625 -1.2,0.49312 -0.0487,0.0169 -0.0881,0.0581 -0.12563,0.10313 -0.10312,0.14063 -0.0694,0.35062 0.075,0.46125 l 0.32063,0.255 c 0.74062,0.58312 1.44562,1.06312 2.12438,1.43812 0.67874,0.39188 1.32749,0.70501 1.97624,0.98438 1.27501,0.5475 2.47875,0.86062 3.65063,1.0725 0.31875,0.0525 0.6225,0.0656 0.93187,0.0956 1.15875,-1.55624 3.38063,-0.70499 5.24625,-1.32375 1.87313,-0.62062 3.15,-2.62312 5.01188,-2.05875 0.23062,-0.20812 0.4575,-0.39937 0.6825,-0.6225 0.80437,-0.87562 1.58625,-1.83937 2.2875,-3.05062 0.345,-0.6075 0.67875,-1.24688 0.99187,-1.97625 0.31313,-0.70313 0.59813,-1.52063 0.84188,-2.43 l 0.105,-0.405 c 0.007,-0.0544 0.0169,-0.11063 -0.002,-0.16688 -0.0356,-0.16312 -0.21375,-0.27375 -0.37874,-0.23625"
           id="Fill-222"
           inkscape:connector-curvature="0"
           style="fill:#009900;fill-rule:nonzero" />
        <path
           d="m 162.55556,253.77987 c 1.02938,-0.24375 2.26313,-0.4575 3.53063,-0.81 1.2825,-0.32625 2.62312,-0.75375 3.97312,-1.17562 1.32563,-0.465 2.66625,-0.91875 3.89063,-1.42125 1.23375,-0.47812 2.34375,-1.04062 3.31687,-1.46063 0.9675,-0.42562 1.74375,-0.90375 2.295,-1.185 0.43125,-0.23812 0.70875,-0.40875 0.81,-0.47812 -0.6,0.15562 -1.2,0.31875 -1.7925,0.47062 l -3.0075,0.87188 c -1.99687,0.5925 -3.975,1.24687 -5.9625,1.87125 -1.96687,0.68812 -3.945,1.3425 -5.9025,2.0625 l -2.9325,1.095 c -0.56625,0.2325 -1.13625,0.45562 -1.70062,0.68812 0.10875,-0.0112 0.44625,-0.0319 0.93562,-0.0994 0.60563,-0.1125 1.51313,-0.19313 2.54625,-0.42938"
           id="Fill-224"
           inkscape:connector-curvature="0"
           style="fill:#009900;fill-rule:nonzero" />
        <path
           d="m 177.10687,255.82887 c 0.008,-0.004 0.008,-0.004 0.0131,-0.015 -1.85813,-0.555 -3.50063,0.3675 -5.28375,1.21501 l -0.006,0.002 -0.009,0.004 c -1.935,0.38438 -3.81188,0.62625 -4.96313,2.18062 0.009,-0.004 0.0112,0.006 0.0187,0.002 -0.007,0.004 -0.006,0.009 -0.0131,0.0131 1.93125,0.18938 3.72562,-0.007 5.41312,-0.55875 0.0244,-0.007 0.0563,-0.009 0.0806,-0.0188 l 0.009,-0.002 0.007,-0.002 c 0.0225,-0.009 0.0525,-0.0281 0.0769,-0.0356 1.68,-0.56438 3.23812,-1.4775 4.67438,-2.7825 -0.0113,-0.006 -0.0113,-0.006 -0.0188,-0.002"
           id="Fill-226"
           inkscape:connector-curvature="0"
           style="fill:#00d000;fill-rule:nonzero" />
        <path
           d="m 339.60206,165.47 c -0.39375,0 -0.7575,-0.24938 -0.89062,-0.64125 l -1.24875,-3.75 c -0.16313,-0.49125 0.10312,-1.02188 0.59437,-1.18688 0.49313,-0.16312 1.02188,0.10313 1.18688,0.59438 l 1.24875,3.75 c 0.16312,0.49125 -0.10313,1.02187 -0.59438,1.18687 -0.0994,0.0319 -0.19687,0.0469 -0.29625,0.0469"
           id="Fill-228"
           inkscape:connector-curvature="0"
           style="fill:#e1e1e6;fill-rule:nonzero" />
        <path
           d="m 343.35206,224.22125 c -0.34312,0 -0.67312,-0.19125 -0.83812,-0.5175 l -2.49938,-5.00063 c -0.23062,-0.46312 -0.045,-1.0275 0.41813,-1.25812 0.46312,-0.2325 1.02562,-0.045 1.25812,0.41812 l 2.49938,5.00063 c 0.23062,0.46312 0.045,1.0275 -0.41813,1.25812 -0.13687,0.0675 -0.27937,0.0994 -0.42,0.0994"
           id="Fill-230"
           inkscape:connector-curvature="0"
           style="fill:#e1e1e6;fill-rule:nonzero" />
        <path
           d="m 400.22831,269.22125 c -0.0994,0 -0.19687,-0.015 -0.29625,-0.0469 l -5.625,-1.875 c -0.49125,-0.165 -0.7575,-0.69562 -0.59437,-1.18687 0.16687,-0.49125 0.69937,-0.75563 1.18687,-0.59438 l 5.625,1.875 c 0.49125,0.16501 0.7575,0.69563 0.59438,1.18688 -0.13313,0.39187 -0.49875,0.64125 -0.89063,0.64125"
           id="Fill-232"
           inkscape:connector-curvature="0"
           style="fill:#e1e1e6;fill-rule:nonzero" />
        <path
           d="m 371.47706,217.97 c -0.26812,0 -0.53437,-0.11625 -0.72,-0.3375 l -6.24937,-7.5 c -0.33188,-0.3975 -0.2775,-0.98813 0.12,-1.32 0.39562,-0.33188 0.98625,-0.27938 1.32,0.12 l 6.24937,7.5 c 0.33188,0.3975 0.2775,0.98812 -0.12,1.32 -0.17437,0.14625 -0.38812,0.2175 -0.6,0.2175"
           id="Fill-234"
           inkscape:connector-curvature="0"
           style="fill:#e1e1e6;fill-rule:nonzero" />
        <path
           d="m 523.97831,195.47 c -0.25125,0 -0.50437,-0.10125 -0.68812,-0.3 -0.3525,-0.37875 -0.32813,-0.97313 0.0506,-1.32562 l 8.80688,-8.16001 c 0.38062,-0.34687 0.97312,-0.33 1.32562,0.0525 0.3525,0.37875 0.32813,0.97125 -0.0506,1.32563 l -8.80688,8.15812 c -0.18187,0.16688 -0.40875,0.24938 -0.6375,0.24938"
           id="Fill-236"
           inkscape:connector-curvature="0"
           style="fill:#e1e1e6;fill-rule:nonzero" />
        <path
           d="m 305.22769,134.84562 c -0.28313,0 -0.56625,-0.12937 -0.75,-0.375 l -1.875,-2.49937 c -0.30938,-0.41438 -0.22688,-1.00125 0.1875,-1.3125 0.4125,-0.30938 1.00125,-0.22688 1.3125,0.1875 l 1.875,2.49937 c 0.30937,0.41438 0.22687,1.00125 -0.1875,1.3125 -0.16875,0.1275 -0.3675,0.1875 -0.5625,0.1875"
           id="Fill-238"
           inkscape:connector-curvature="0"
           style="fill:#e1e1e6;fill-rule:nonzero" />
        <path
           d="m 437.37487,89.439125 c -6.11437,-3.118125 0.82125,24.030005 6.74438,25.246875 5.91938,1.215 11.7225,-4.99687 10.96313,-11.32312 -0.75563,-6.326255 -6.90938,-8.415005 -17.70751,-13.923755"
           id="Fill-240"
           inkscape:connector-curvature="0"
           style="fill:#ffc44d;fill-rule:nonzero" />
      </g>
      <g
         id="Group-245"
         transform="translate(434.125,89.78)">
        <g
           id="Fill-243-Clipped">
          <g
             id="g176">
            <mask
               id="mask-8"
               fill="white">
              <use
                 xlink:href="#path-7"
                 id="use170"
                 x="0"
                 y="0"
                 width="100%"
                 height="100%" />
            </mask>
            <g
               id="g173" />
            <path
               d="m -3.34375,-8.168625 c -6.114375,-3.12 0.943125,23.54625 6.744375,25.246875 6.31875,1.8525 13.520625,-4.1475 10.965,-11.323125 -2.1375,-6.00375 -6.91125,-8.415 -17.709375,-13.92375"
               id="Fill-243"
               mask="url(#mask-8)"
               inkscape:connector-curvature="0"
               style="fill:#ffaa00;fill-rule:nonzero" />
          </g>
        </g>
      </g>
      <path
         d="m 434.45062,81.860375 c -4.34437,-3.4125 -3.08062,19.108125 1.41001,20.988755 4.48874,1.88062 10.03499,-2.12625 10.41937,-7.24313 0.38437,-5.113125 -4.15313,-7.7175 -11.82938,-13.745625"
         id="Fill-246"
         inkscape:connector-curvature="0"
         style="fill:#ffc44d;fill-rule:nonzero" />
      <g
         id="Group-250"
         transform="translate(431.25,81.405)">
        <g
           id="Fill-248-Clipped">
          <g
             id="g187">
            <mask
               id="mask-10"
               fill="white">
              <use
                 xlink:href="#path-9"
                 id="use181"
                 x="0"
                 y="0"
                 width="100%"
                 height="100%" />
            </mask>
            <g
               id="g184" />
            <path
               d="M -0.670125,-7.3688125 C -5.0145,-10.779438 -3.628875,11.474937 0.738,13.619938 c 5.2575,2.583749 11.4075,-1.916251 10.419375,-7.2412505 -0.93375,-5.041875 -4.153125,-7.7175 -11.8275,-13.7475"
               id="Fill-248"
               mask="url(#mask-10)"
               inkscape:connector-curvature="0"
               style="fill:#ffaa00;fill-rule:nonzero" />
          </g>
        </g>
      </g>
      <path
         d="m 433.88119,75.010437 c -2.61188,-3.476249 -6.21375,13.908751 -3.18188,16.24875 3.03188,2.338125 8.06438,0.41625 9.39375,-3.397499 1.3275,-3.811875 -1.59562,-6.712501 -6.21187,-12.851251"
         id="Fill-251"
         inkscape:connector-curvature="0"
         style="fill:#ffc44d;fill-rule:nonzero" />
      <g
         id="Group-255"
         transform="translate(429.375,73.905)">
        <g
           id="Fill-253-Clipped">
          <g
             id="g198">
            <mask
               id="mask-12"
               fill="white">
              <use
                 xlink:href="#path-11"
                 id="use192"
                 x="0"
                 y="0"
                 width="100%"
                 height="100%" />
            </mask>
            <g
               id="g195" />
            <path
               d="m 3.1475625,-5.6310625 c -2.61375,-3.47625 -5.9175,13.5675 -3.181875,16.2506255 3.553125,3.483749 9.705,0.63375 9.391875,-3.3975005 -0.31125,-4.025625 -1.59375,-6.7125 -6.21,-12.853125"
               id="Fill-253"
               mask="url(#mask-12)"
               inkscape:connector-curvature="0"
               style="fill:#ffaa00;fill-rule:nonzero" />
          </g>
        </g>
      </g>
      <g
         id="Group-274"
         transform="translate(402.25,67.28)"
         style="fill-rule:nonzero">
        <path
           d="m 32.367312,2.077875 c -1.5525,-3.1575 -7.033125,10.119375 -4.974375,12.436875 2.056875,2.315625 6.345,1.543125 7.976251,-1.288125 1.631249,-2.829375 -0.256875,-5.5725 -3.001876,-11.14875"
           id="Fill-256"
           inkscape:connector-curvature="0"
           style="fill:#ffc44d" />
        <path
           d="m 40.84325,47.881687 c -0.403125,0 -0.81,-0.129374 -1.15125,-0.3975 -0.2925,-0.226875 -7.155,-5.68125 -10.755,-16.64625 -5.109375,-15.560624 0.05438,-28.2299995 0.275625,-28.7606245 0.3975,-0.9525 1.48875,-1.39875 2.450625,-1.006875 0.9525,0.3975 1.40625,1.494375 1.010625,2.450625 -0.04875,0.118125 -4.831875,11.9662505 -0.1725,26.1487495 3.245625,9.8925 9.435,14.810625 9.496875,14.859375 0.8175,0.637501 0.961875,1.816876 0.324375,2.630625 -0.369375,0.474376 -0.920625,0.721875 -1.479375,0.721875"
           id="Fill-258"
           inkscape:connector-curvature="0"
           style="fill:#ffaa00" />
        <path
           d="m 96.662937,107.25375 c -0.131249,0 -0.268125,-0.0281 -0.395624,-0.0881 -0.46875,-0.2175 -0.67125,-0.77438 -0.45375,-1.245 0.03937,-0.0863 4.066875,-8.78063 6.213747,-14.913755 2.13188,-6.08625 3.69,-18.125625 3.705,-18.245625 0.0656,-0.51375 0.54188,-0.885 1.04813,-0.811875 0.51562,0.06562 0.8775,0.53625 0.81187,1.048125 -0.0637,0.5025 -1.59937,12.358125 -3.795,18.628125 -2.17687,6.223125 -6.241873,14.998125 -6.284998,15.086255 -0.1575,0.34124 -0.496874,0.54187 -0.849375,0.54187"
           id="Fill-260"
           inkscape:connector-curvature="0"
           style="fill:#c8c8cc" />
        <path
           d="m 90.724812,109.12875 c -0.41625,0 -0.795,-0.2775 -0.905625,-0.6975 -0.133124,-0.5025 0.165001,-1.01437 0.665626,-1.14563 0.166874,-0.045 16.644377,-4.39312 22.224377,-5.63437 5.62125,-1.24687 13.74187,-3.121875 13.74375,-3.121875 l 0.42,1.826255 c 0,0 -8.13,1.875 -13.75875,3.12562 -5.5425,1.23375 -21.984378,5.5725 -22.149378,5.61562 -0.08062,0.0225 -0.16125,0.0319 -0.24,0.0319"
           id="Fill-262"
           inkscape:connector-curvature="0"
           style="fill:#c8c8cc" />
        <path
           d="m 134.89906,114.58706 c -0.58312,0 -1.19062,-0.0487 -1.8225,-0.15 -2.39437,-0.3825 -4.19812,-1.45125 -5.3625,-3.18 -2.22937,-3.31125 -1.2225,-7.815 -1.17937,-8.00437 0.11812,-0.50438 0.63,-0.80813 1.12312,-0.70313 0.50438,0.11813 0.81938,0.61875 0.705,1.125 -0.009,0.0375 -0.86437,3.915 0.91125,6.54188 0.8625,1.27687 2.24063,2.07187 4.09875,2.36812 2.08688,0.33 3.79688,0.008 5.06813,-0.96937 2.07187,-1.59375 2.38687,-4.4475 2.39062,-4.4775 0.0525,-0.51188 0.48375,-0.86813 1.02563,-0.83813 0.51187,0.0506 0.89062,0.50813 0.84,1.02188 -0.015,0.15 -0.38438,3.66937 -3.0975,5.7675 -1.29,0.9975 -2.865,1.49812 -4.70063,1.49812"
           id="Fill-264"
           inkscape:connector-curvature="0"
           style="fill:#c8c8cc" />
        <path
           d="m 5.049875,142.56375 c -0.27375,0 -0.545625,-0.0225 -0.81375,-0.0694 -1.284375,-0.225 -2.3175,-0.98625 -3.0675,-2.26312 -0.7575,-1.28625 -0.9075,-2.62688 -0.451875,-3.98813 1.385625,-4.11187 8.116875,-6.92437 8.401875,-7.0425 0.48375,-0.19875 1.0275,0.03 1.2225,0.51 0.19875,0.47625 -0.03,1.02375 -0.508125,1.2225 -1.72875,0.71438 -6.418125,3.16688 -7.336875,5.90813 -0.28125,0.83625 -0.1875,1.63125 0.286875,2.4375 0.466875,0.795 1.048125,1.24125 1.7775,1.36875 2.563125,0.45 6.51,-2.85563 8.64375,-4.62563 0.525,-0.43875 0.97875,-0.81375 1.335,-1.08 2.499375,-1.87312 20.31,-15.31125 20.31,-15.31125 l 1.126875,1.49625 c 0,0 -17.814375,13.43813 -20.31375,15.315 -0.335625,0.25125 -0.763125,0.60938 -1.261875,1.02188 -2.4825,2.06437 -6.136875,5.1 -9.350625,5.1"
           id="Fill-266"
           inkscape:connector-curvature="0"
           style="fill:#c8c8cc" />
        <path
           d="m 46.349187,48.504375 c -0.391875,0 -0.755625,-0.2475 -0.88875,-0.639375 -0.165,-0.49125 0.10125,-1.021875 0.590625,-1.186875 0.241875,-0.0825 5.923125,-2.071875 5.923125,-7.861875 0,-5.9625 -6.151874,-9.721875 -6.213749,-9.7575 -0.140625,-0.0825 -0.255001,-0.2025 -0.333751,-0.34125 -0.015,-0.02438 -1.417499,-2.47875 -3.178125,-4.2375 -1.756875,-1.75875 -3.84375,-2.9625 -3.864374,-2.971875 -0.243751,-0.1425 -0.414375,-0.384375 -0.459375,-0.661875 -0.0038,-0.01875 -0.315001,-1.846875 -1.215001,-4.545 -0.65625,-1.9725 -1.39875,-2.1375 -1.40625,-2.139375 -0.26625,0.0019 -0.493125,-0.105 -0.680625,-0.313125 -0.183749,-0.20625 -0.221249,-0.481875 -0.183749,-0.755625 0.01125,-0.07313 1.012499,-7.395 -2.653126,-10.27875 -0.405,-0.31875 -0.47625,-0.909375 -0.155625,-1.31625 0.320625,-0.405 0.913125,-0.474375 1.318126,-0.155625 3.759374,2.95875 3.613124,9.08625 3.431249,11.251875 0.65625,0.380625 1.483125,1.231875 2.11125,3.114375 0.697501,2.0925 1.05375,3.673125 1.2,4.396875 0.733126,0.455625 2.3925,1.55625 3.885,3.046875 1.648125,1.65 2.9625,3.763125 3.358125,4.4325 1.205625,0.78 6.915,4.820625 6.915,11.23125 0,7.155 -7.1325,9.616875 -7.20375,9.64125 -0.09938,0.03187 -0.196874,0.04687 -0.29625,0.04687"
           id="Fill-268"
           inkscape:connector-curvature="0"
           style="fill:#ffaa00" />
        <path
           d="m 108.97681,73.891875 c -4.785,0 -7.335,-1.89375 -8.91562,-3.47625 -1.948128,-1.948125 -2.953127,-5.949375 -3.271878,-7.434375 -1.955625,-0.658125 -8.576249,-3.225 -13.359375,-9.204375 -4.378125,-5.47125 -5.508749,-11.56125 -5.761874,-13.39875 -1.353751,-0.669375 -5.071876,-2.728125 -6.245626,-5.58 -2.371875,-5.75625 0.328125,-9.2325 0.444375,-9.380625 0.324375,-0.399375 0.913126,-0.466875 1.318126,-0.14625 0.403125,0.3225 0.46875,0.909375 0.149999,1.314375 -0.08625,0.110625 -2.11125,2.814375 -0.179999,7.5 0.939374,2.27625 4.475624,4.243125 5.759999,4.809375 0.313125,0.13875 0.526875,0.435 0.556875,0.77625 0.0056,0.06938 0.67125,6.995625 5.4225,12.93375 5.165626,6.4575 12.885001,8.72625 12.961876,8.74875 0.346875,0.09563 0.605624,0.384375 0.667499,0.736875 0.249375,1.39875 1.245001,5.38125 2.863123,6.999375 1.82438,1.82625 4.75688,3.76875 11.355,2.55375 0.51563,-0.0825 0.9975,0.241875 1.09313,0.751875 0.0937,0.51 -0.24375,0.9975 -0.75375,1.093125 -1.52625,0.28125 -2.88938,0.403125 -4.10438,0.403125"
           id="Fill-270"
           inkscape:connector-curvature="0"
           style="fill:#f218cd" />
        <path
           d="m 120.659,178.9395 c -0.28313,0 -0.56625,-0.12938 -0.74812,-0.375 -0.31125,-0.41438 -0.22875,-1.00125 0.18562,-1.31063 9,-6.76125 12.87562,-14.40187 12.915,-14.47875 0.22875,-0.465 0.79687,-0.65625 1.25625,-0.42187 0.46312,0.23062 0.65062,0.79312 0.42187,1.25625 -0.16312,0.32812 -4.08937,8.10187 -13.46812,15.14062 -0.16875,0.12938 -0.3675,0.18938 -0.5625,0.18938"
           id="Fill-272"
           inkscape:connector-curvature="0"
           style="fill:#f218cd" />
      </g>
    </g>
  </g>
</svg>
