<svg xmlns="http://www.w3.org/2000/svg" xmlns:xlink="http://www.w3.org/1999/xlink" width="688.999" height="297.03" viewBox="0 0 688.99908 297.03049">
  <title>
    artistic-unicorn
  </title>
  <defs>
    <path id="a" d="M.655.426h122.73V18.75H.655z"/>
    <path id="c" d="M151.602 32.107H.872V.095h150.73z"/>
    <path id="e" d="M.655.426H203.12V18.75H.655z"/>
    <path d="M4.057 17.418C1.1 9.963-.473.188 2.367.188c.257 0 .552.082.882.25 4.835 2.468 8.74 4.25 11.645 6.032v10.948z" id="g"/>
    <path d="M1.275 14.37C.045 8.133.242.103 2.365.104c.252 0 .53.113.836.353 3.325 2.61 6.06 4.578 8.063 6.386v7.527z" id="i"/>
    <path d="M.18 12.187C.332 7.223 2.112.647 3.78.647c.246 0 .49.144.728.46 2.013 2.678 3.704 4.74 4.86 6.53v4.55z" id="k"/>
  </defs>
  <g fill="none" fill-rule="evenodd">
    <path d="M587.85 20.025l101.15.01"/>
    <path d="M588.745 134.72h-113.79c-1.037 0-1.875-.838-1.875-1.875s.838-1.875 1.875-1.875h113.79c1.037 0 1.875.838 1.875 1.875s-.838 1.875-1.875 1.875M569.55 125.552h-50.38c-.52 0-.938-.42-.938-.938 0-.517.418-.937.937-.937h50.38c.516 0 .936.42.936.937 0 .518-.42.938-.937.938M584.354 142.015H413.107c-.518 0-.938-.42-.938-.938 0-.517.42-.937.937-.937h171.247c.518 0 .938.42.938.937 0 .518-.42.938-.938.938" fill="#e1e1e6" fill-rule="nonzero"/>
    <path d="M467.02 206.102s-6.684 8.634 1.097 18.8c9.18 11.993 24.63 8.695 33.175 1.744 17.4-14.153 28.217-2.556 28.217-2.556s.6-15.647-18.573-23.582c-19.176-7.938-43.916 5.594-43.916 5.594" fill="#ff66ed" fill-rule="nonzero"/>
    <g transform="translate(408.75 278.28)">
      <mask id="b" fill="#fff">
        <use xlink:href="#a" width="100%" height="100%"/>
      </mask>
      <path d="M.655 9.587c0-5.06 27.475-9.16 61.367-9.16 33.89 0 61.363 4.1 61.363 9.16 0 5.06-27.472 9.163-61.363 9.163C28.13 18.75.655 14.648.655 9.587" mask="url(#b)" fill="#ededf2" fill-rule="nonzero"/>
    </g>
    <path d="M499.265 241.03s-8.1-7.32-2.235-18.7c6.92-13.422 22.71-12.9 32.35-7.562 19.618 10.862 28.222-2.458 28.222-2.458s3.35 15.294-14.122 26.486c-17.475 11.192-44.215 2.235-44.215 2.235" fill="#ff66ed" fill-rule="nonzero"/>
    <path d="M477.798 256.51s-14.207-5.274-12.495-22.957c2.02-20.856 22.64-28.303 37.804-26.38 30.876 3.912 35.117-17.68 35.117-17.68s12.182 17.99-4.588 41.4c-16.767 23.41-55.838 25.616-55.838 25.616" fill="#ff99f9" fill-rule="nonzero"/>
    <path d="M409.785 88.564h-113.79c-1.038 0-1.876-.838-1.876-1.875s.837-1.876 1.874-1.876h113.79c1.038 0 1.876.84 1.876 1.875 0 1.036-.838 1.874-1.875 1.874M394.412 80.02h-28.545c-.518 0-.938-.42-.938-.94 0-.516.42-.936.937-.936h28.545c.517 0 .937.42.937.937 0 .52-.42.94-.938.94M368.535 95.857h-171.25c-.516 0-.936-.42-.936-.937 0-.518.42-.938.936-.938h171.25c.517 0 .937.42.937.938 0 .517-.42.937-.938.937" fill="#e1e1e6" fill-rule="nonzero"/>
    <path d="M501.1 41.206c-.53 0-1.065.034-1.594.098-2.86.35-5.52 1.65-7.565 3.678-3.92.726-7.754 1.898-11.424 3.49-1.033-.26-2.098-.39-3.172-.39-6.452 0-11.97 4.85-12.87 11.17-.26.256-.518.51-.77.768-5.8 1.4-9.95 6.62-9.95 12.64 0 .42.027.847.077 1.312-.75 1.535-1.422 3.092-2.003 4.642-2.284 1.28-3.718 3.688-3.718 6.35 0 1.323.36 2.598 1.05 3.732-.18 1.08-.318 2.096-.423 3.09-.574 3.278-.866 6.576-.866 9.806 0 31.137 25.334 56.47 56.472 56.47 2.334 0 4.712-.15 7.088-.448 1.355 1.355 3.206 2.14 5.137 2.14 2.953 0 5.513-1.74 6.65-4.332 1.05.215 2.12.324 3.194.324 7.05 0 13.137-4.536 15.2-11.167 4.573-1.263 7.95-5.165 8.516-9.937 1.15-1.592 2.23-3.26 3.214-4.978 5.803-1.937 9.543-7.774 8.79-13.913-.092-.744-.252-1.485-.48-2.218 2.347-2.765 3.425-6.335 2.98-9.97-.382-3.104-1.846-5.92-4.147-8.017-.388-3.64-1.145-7.275-2.253-10.818.193-.907.29-1.81.29-2.696 0-4.865-2.758-9.347-7.072-11.565-4.27-6.447-9.904-12.042-16.356-16.246-1.53-5.59-6.682-9.572-12.547-9.572-2.127 0-4.22.527-6.1 1.53-2.134-.617-4.297-1.098-6.454-1.44-2.404-2.253-5.61-3.536-8.89-3.536m0 1.875c3.1 0 5.96 1.3 8.008 3.425 2.6.38 5.128.958 7.575 1.702 1.705-1.057 3.707-1.68 5.862-1.68 5.373 0 9.855 3.807 10.9 8.87 6.7 4.23 12.406 9.886 16.716 16.533 3.825 1.76 6.485 5.62 6.485 10.104 0 .958-.133 1.883-.36 2.77 1.206 3.735 2.033 7.64 2.408 11.677 2.178 1.754 3.707 4.32 4.076 7.314.438 3.577-.88 6.96-3.27 9.3.374.905.642 1.87.77 2.887.686 5.587-2.9 10.704-8.192 12.106-1.133 2.038-2.39 3.998-3.767 5.865-.33 4.59-3.75 8.3-8.212 9.044-1.445 6.23-7.016 10.877-13.687 10.877-1.49 0-2.924-.235-4.27-.665-.08.03-.162.055-.242.08-.4 2.598-2.623 4.593-5.33 4.593-1.808 0-3.398-.896-4.383-2.26-2.56.37-5.18.57-7.843.57-30.152 0-54.596-24.444-54.596-54.596 0-3.258.302-6.446.85-9.55.132-1.274.318-2.532.54-3.775-.71-.917-1.152-2.053-1.152-3.302 0-2.256 1.382-4.187 3.343-5 .7-1.953 1.52-3.843 2.436-5.673-.08-.534-.133-1.076-.133-1.633 0-5.425 3.885-9.938 9.024-10.926.523-.546 1.057-1.077 1.605-1.598.485-5.7 5.258-10.18 11.084-10.18 1.153 0 2.27.177 3.317.503 3.858-1.735 7.953-3.003 12.21-3.74 1.73-1.9 4.116-3.217 6.865-3.556.46-.055.915-.083 1.365-.083" fill="#f218cd" fill-rule="nonzero"/>
    <path d="M525.605 103.524c-.054 0-.11-.004-.165-.015-5.33-.942-12.5-8.062-12.8-8.363-.366-.366-.366-.96 0-1.326.365-.365.96-.365 1.325 0 .07.07 7.052 7.006 11.8 7.844.51.09.85.576.76 1.086-.08.453-.476.774-.92.774" fill="#ff1ad9" fill-rule="nonzero"/>
    <path d="M450.16 181.327s-42.735 15.713-45.184 19.767c-2.46 4.083 1.414 4.237 1.414 4.237 1.412.706 46.594-7.06 46.594-7.06z" fill="#e1e1e6" fill-rule="nonzero"/>
    <path d="M476.723 258.68c-.193 0-.313-.002-.36-.002-1.035-.018-1.86-.873-1.84-1.908.018-1.034.895-1.915 1.908-1.842.17-.002 16.317.188 33.104-7.335 16.624-7.455 24.887-20.737 24.97-20.868.54-.885 1.698-1.16 2.576-.625.883.54 1.166 1.69.626 2.575-.355.585-8.908 14.39-26.638 22.338-16.377 7.34-31.753 7.667-34.345 7.667" fill="#ff66ed" fill-rule="nonzero"/>
    <path d="M115.665 148.617H1.875c-1.037 0-1.875-.838-1.875-1.875 0-1.036.838-1.875 1.875-1.875h113.79c1.037 0 1.875.84 1.875 1.875 0 1.037-.838 1.875-1.875 1.875M45.792 140.074H17.245c-.517 0-.937-.42-.937-.938 0-.517.42-.937.937-.937h28.547c.517 0 .937.42.937.936 0 .518-.42.938-.938.938M214.372 155.912H43.124c-.517 0-.937-.42-.937-.937 0-.518.42-.938.937-.938h171.248c.517 0 .937.42.937.938 0 .517-.42.937-.938.937" fill="#e1e1e6" fill-rule="nonzero"/>
    <path d="M116.916 108.675V260.24c0 2.995 2.595 5.425 5.793 5.425h188.15c3.2 0 5.79-2.43 5.79-5.426V108.674z" fill="#f6f6f8" fill-rule="nonzero"/>
    <path d="M117.853 109.612V260.24c0 2.472 2.18 4.487 4.856 4.487h188.15c2.676 0 4.853-2.015 4.853-4.488V109.61zm193.007 156.99H122.71c-3.713 0-6.732-2.855-6.732-6.363V107.736h201.61V260.24c0 3.507-3.02 6.362-6.728 6.362z" fill="#e1e1e6" fill-rule="nonzero"/>
    <path d="M316.65 107.77V85.805c0-3.45-2.797-6.248-6.247-6.248h-187.24c-3.45 0-6.247 2.798-6.247 6.248v22.869H316.65z" fill="#f6f6f8" fill-rule="nonzero"/>
    <path d="M117.853 107.737h197.86v-21.93c0-2.93-2.382-5.31-5.31-5.31h-187.24c-2.927 0-5.31 2.38-5.31 5.31zm199.735 1.875h-201.61V85.806c0-3.964 3.223-7.185 7.185-7.185h187.24c3.963 0 7.185 3.222 7.185 7.186z" fill="#e1e1e6" fill-rule="nonzero"/>
    <path d="M129.45 108.992v138.213c0 2.8 2.268 5.07 5.065 5.07h164.562c2.797 0 5.066-2.27 5.066-5.07V108.992z" fill="#f6f6f8" fill-rule="nonzero"/>
    <path d="M130.388 109.93v137.275c0 2.28 1.85 4.133 4.127 4.133h164.562c2.276 0 4.128-1.853 4.128-4.133V109.93zm168.69 143.283H134.514c-3.31 0-6.002-2.696-6.002-6.008v-139.15H305.08v139.15c0 3.312-2.694 6.008-6.003 6.008zM133.285 90.23c2.33 0 4.22 1.887 4.22 4.218 0 2.328-1.89 4.218-4.22 4.218s-4.22-1.89-4.22-4.218c0-2.33 1.89-4.22 4.22-4.22M146.894 90.23c2.328 0 4.217 1.887 4.217 4.218 0 2.328-1.888 4.218-4.216 4.218-2.33 0-4.22-1.89-4.22-4.218 0-2.33 1.89-4.22 4.22-4.22M263.852 99.217h-94.097c-2.52 0-4.565-2.045-4.565-4.567v-.405c0-2.524 2.045-4.568 4.565-4.568h94.097c2.524 0 4.568 2.044 4.568 4.568v.405c0 2.524-2.044 4.567-4.568 4.567" fill="#e1e1e6" fill-rule="nonzero"/>
    <path d="M559.385 113.095c2.386-2.342 3.706-5.724 3.266-9.302-.367-2.994-1.897-5.56-4.075-7.31-2.58-27.756-25.92-49.487-54.35-49.487-30.15 0-54.595 24.442-54.595 54.596 0 30.152 24.444 54.594 54.596 54.594 2.664 0 5.28-.198 7.843-.566.98 1.36 2.573 2.258 4.38 2.258 2.708 0 4.93-1.995 5.33-4.59.08-.03.16-.055.24-.08 1.35.426 2.784.663 4.275.663 6.67 0 12.24-4.646 13.685-10.876 4.463-.745 7.88-4.453 8.213-9.043 1.378-1.867 2.636-3.826 3.768-5.864 5.293-1.403 8.878-6.518 8.19-12.105-.124-1.017-.394-1.98-.765-2.885" fill="#ff66ed" fill-rule="nonzero"/>
    <path d="M552.12 113.077c2.448-1.978 3.99-5.023 3.9-8.41-.07-2.837-1.27-5.377-3.15-7.215.11-26.21-19.765-48.67-46.37-51.25-28.22-2.74-53.32 17.918-56.06 46.137-2.736 28.22 17.92 53.317 46.14 56.056 2.493.242 4.96.29 7.393.18.795 1.363 2.203 2.348 3.896 2.51 2.532.246 4.795-1.417 5.403-3.81.078-.02.155-.035.234-.056 1.223.525 2.544.878 3.94 1.013 6.24.604 11.878-3.238 13.796-8.938 4.245-.293 7.78-3.45 8.507-7.718 1.458-1.622 2.814-3.34 4.06-5.147 5.08-.83 8.9-5.293 8.765-10.584-.027-.964-.188-1.89-.456-2.77" fill="#ff99f9" fill-rule="nonzero"/>
    <path d="M480.138 250.415c-13.196 0-22.933-2.904-23.06-2.94-.495-.15-.773-.675-.623-1.17.15-.495.67-.774 1.17-.624.156.048 15.827 4.714 34.254 2.035 18.343-2.664 30.112-13.367 30.228-13.476.385-.35.975-.33 1.326.052.35.38.328.973-.053 1.324-.49.457-12.287 11.203-31.23 13.955-4.19.61-8.243.845-12.012.845" fill="#ff66ed" fill-rule="nonzero"/>
    <path d="M404.47 230.055c13.74 1.337 25.963-8.716 27.3-22.458.427-4.388-.353-8.603-1.954-12.398-2.047-4.848-13.39 11.86-18.152 7.516-4.76-4.344 13.787-15.18 9.222-18.214-3.37-2.238-7.268-3.785-11.575-4.205-13.74-1.337-25.964 8.717-27.3 22.458-1.336 13.742 8.72 25.964 22.46 27.3" fill="#ffc44d" fill-rule="nonzero"/>
    <path d="M407.714 184.642c2.436.236 4.24 2.2 4.026 4.383-.212 2.185-2.36 3.764-4.794 3.527-2.438-.238-4.242-2.2-4.03-4.383.214-2.186 2.36-3.765 4.798-3.528" fill="#f70" fill-rule="nonzero"/>
    <path d="M389.977 198.417c-1.09-2.093-.15-4.738 2.102-5.91 2.25-1.172 4.957-.428 6.048 1.665 1.09 2.094.148 4.742-2.102 5.913-2.252 1.172-4.96.424-6.05-1.668" fill="#ff1ad9" fill-rule="nonzero"/>
    <path d="M387.87 212.477c.07-2.358 2.178-4.21 4.715-4.14 2.537.072 4.54 2.042 4.472 4.4-.068 2.358-2.177 4.212-4.714 4.14-2.537-.07-4.537-2.04-4.472-4.4" fill="#60c" fill-rule="nonzero"/>
    <path d="M402.96 219.924c.067-2.358 2.61-4.198 5.677-4.112 3.07.09 5.503 2.07 5.435 4.427-.065 2.358-2.608 4.2-5.677 4.11-3.068-.085-5.5-2.067-5.436-4.426" fill="#0d96ff" fill-rule="nonzero"/>
    <path d="M417.256 211.042c.068-2.36 2.177-4.21 4.716-4.14 2.535.07 4.537 2.042 4.47 4.4-.068 2.357-2.177 4.214-4.712 4.14-2.54-.07-4.54-2.04-4.474-4.4" fill="#00d000" fill-rule="nonzero"/>
    <path d="M441.294 100.036c-19.095 6.26-51.05 20.482-60.05 32.184-5.51 7.166 10.627 31.562 19.065 34.688 26.567 9.84 81.797 10.89 98.033-15.938 16.237-26.827.33-69.74-57.05-50.934M87.434 35.05h36.527S112.533 9.51 136.796 6.203c21.64-2.945 30.193 19.292 30.193 19.292s2.567-12.83 15.435-10.374c12.69 2.42 22.06 22.83 22.06 22.83h31.805" fill="#fff" fill-rule="nonzero"/>
    <g transform="translate(86.25 -.095)">
      <mask id="d" fill="#fff">
        <use xlink:href="#c" width="100%" height="100%"/>
      </mask>
      <path d="M150.665 32.107h-31.808c-.352 0-.677-.2-.836-.514-.09-.182-9.31-18.152-21.395-20.456-11.822-2.246-14.244 9.15-14.342 9.638-.082.41-.42.716-.838.75-.435.03-.806-.21-.956-.597-.022-.054-2.153-5.495-6.833-10.492-6.203-6.62-13.73-9.383-22.36-8.207-6.294.856-10.622 3.338-12.868 7.37-4.52 8.118.71 20.045.762 20.163.13.29.105.627-.07.895-.172.264-.468.425-.785.425H1.81c-.517 0-.937-.42-.937-.937 0-.518.42-.938.937-.938h35.14c-1.31-3.498-4.25-13.162-.162-20.512C39.335 4.113 44.13 1.314 51.044.373c17.925-2.455 27.238 11.996 30.16 17.67 1.533-3.8 5.75-10.66 15.772-8.747 11.938 2.276 20.788 17.827 22.45 20.936h31.24c.516 0 .936.42.936.938 0 .517-.42.937-.937.937" mask="url(#d)" fill="#e1e1e6" fill-rule="nonzero"/>
    </g>
    <path d="M237.965 38.59H87.428c-1.036 0-1.875-.837-1.875-1.874 0-1.037.84-1.875 1.875-1.875h150.537c1.037 0 1.875.84 1.875 1.876 0 1.037-.838 1.875-1.875 1.875" fill="#fff" fill-rule="nonzero"/>
    <path d="M468.485 248.672c.47.062.95.12 1.446.178.256.03.49.165.642.37 1.978 2.65 4.234 4.32 5.777 5.253.277.167.45.467.453.79.002.324-.16.628-.435.802-.195.126-.433.354-.44.722-.003.25.09.487.262.67.174.177.41.28.658.284l.345.003c2.844 0 17.856-.365 33.962-7.584 3.892-1.75 7.663-3.94 11.2-6.51.157-.114.342-.176.535-.18 8.228-.16 15.143-1.998 20.554-5.463 13.116-8.402 14.162-18.988 13.948-23.42-2.417 2.484-7.886 6.534-16.918 5.062-.275-.044-.517-.21-.658-.45-.142-.24-.17-.532-.075-.794 4.574-12.664 1.102-22.538-.8-26.502-1.475 3.972-5.86 12.11-17.61 15.342-.305.078-.626.01-.862-.195-2.62-2.262-5.788-4.173-9.422-5.677-17.68-7.318-40.654 4.266-42.924 5.456-.822 1.17-5.322 8.356.827 16.948.195.27.23.628.09.93-1.24 2.74-2.025 5.743-2.334 8.934-.5 5.166.373 9.75 2.597 13.626.176.31.163.693-.036.988-.176.262-.468.416-.778.416zm8.708 10.946l-.298-.002c-.83-.013-1.532-.32-2.053-.86-.522-.54-.8-1.25-.788-2 .008-.468.133-.91.36-1.3-1.513-1.03-3.386-2.584-5.098-4.79-6.947-.834-11.52-2.142-12.028-2.29-1-.302-1.562-1.352-1.262-2.342.3-.987 1.35-1.547 2.336-1.253.038.014 3.253.97 8.458 1.767-1.785-3.843-2.45-8.235-1.98-13.083.31-3.21 1.075-6.246 2.277-9.038-6.917-10.166-.437-18.81-.372-18.896.08-.103.18-.188.295-.25 1.025-.56 25.363-13.65 44.724-5.638 3.64 1.506 6.85 3.41 9.542 5.66 13.958-4.085 16.442-15.873 16.466-15.99.073-.372.362-.665.733-.74.37-.075.752.083.962.394.338.5 8.005 12.13 2.417 28.986 10.46 1.18 15.2-5.845 15.4-6.154.21-.32.585-.484.956-.41.37.067.667.352.748.72.034.16 3.285 16.064-14.533 27.476-5.64 3.615-12.784 5.55-21.235 5.754-3.573 2.576-7.374 4.772-11.3 6.53-16.45 7.377-31.815 7.75-34.727 7.75z" fill="#ff1ad9" fill-rule="nonzero"/>
    <path d="M500.55 116.688s9.993 27.037-5.032 59.698c-14.77 32.113-11.295 66.36-15.53 78.363-4.236 12-58.648 7.886-65.655.704-16.545-16.95 1.202-73.027 64.314-91.06 18.902-5.403 21.904-47.706 21.904-47.706" fill="#fff" fill-rule="nonzero"/>
    <path d="M495.15 183.594s-7.8 12.604-9 27.004c-1.2 14.402-4.8 46.206-4.8 46.206s-3.6 3.6-16.803 6c-13.2 2.4-37.205 0-42.605-1.8-5.402-1.8-2.925-4.125-2.925-4.125s-5.025-5.85 6.975-.45c12.002 5.4 31.354 2.174 40.955-12.828 9.6-15.002 7.2-32.404 28.202-60.008" fill="#e1e1e6" fill-rule="nonzero"/>
    <path d="M482.8 243.907s-1.466 22.005-4.91 32.316c-3.444 10.313-7.566 15.506-9.388 14.066-1.823-1.437-.512-33.7-.512-33.7z" fill="#e1e1e6" fill-rule="nonzero"/>
    <path d="M410.24 242.703s3.3 22.2 15.1 35.964c7.077 8.252 11.476 12.88 12.84 11.002 1.368-1.877-8.617-32.584-8.617-32.584z" fill="#fff" fill-rule="nonzero"/>
    <path d="M427.57 115.39c1.12 0 2.027.907 2.027 2.026v4.547c0 1.12-.907 2.03-2.026 2.03-1.12 0-2.026-.91-2.026-2.03v-4.547c-.01-1.12.9-2.027 2.027-2.027" fill="#535a80" fill-rule="nonzero"/>
    <path d="M433.042 129.46c-.61 0-1.206-.295-1.566-.84-.07-.104-1.39-1.972-3.905-1.972-2.555 0-3.883 1.937-3.896 1.958-.562.868-1.725 1.117-2.593.553-.87-.565-1.116-1.726-.552-2.594.098-.15 2.432-3.668 7.043-3.668 4.61 0 6.946 3.518 7.043 3.668.564.868.317 2.03-.553 2.593-.315.203-.668.3-1.018.3" fill="#e1e1e6" fill-rule="nonzero"/>
    <path d="M463.196 115.39c1.12 0 2.026.907 2.026 2.026v4.547c0 1.12-.907 2.03-2.026 2.03-1.12 0-2.027-.91-2.027-2.03v-4.547c-.01-1.12.9-2.027 2.026-2.027" fill="#535a80" fill-rule="nonzero"/>
    <path d="M468.667 129.46c-.61 0-1.206-.295-1.566-.84-.07-.104-1.388-1.972-3.904-1.972-2.556 0-3.884 1.937-3.897 1.958-.565.868-1.726 1.117-2.594.553-.87-.565-1.117-1.726-.553-2.594.098-.15 2.432-3.668 7.043-3.668 4.61 0 6.945 3.518 7.042 3.668.564.868.317 2.03-.553 2.593-.315.203-.668.3-1.018.3" fill="#e1e1e6" fill-rule="nonzero"/>
    <path d="M499.62 43.163c6.102-.748 11.656 3.59 12.406 9.692.752 6.103-3.59 11.66-9.692 12.41-6.103.75-11.657-3.59-12.407-9.693s3.59-11.66 9.692-12.41" fill="#ff99f9" fill-rule="nonzero"/>
    <path d="M448.144 174.972c-20.372 0-42.994-3.548-50.55-7.324-14.274-7.138-19.144-29.814-19.342-30.774-.214-1.015.437-2.008 1.45-2.218 1.012-.222 2.005.437 2.22 1.45.044.22 4.703 21.865 17.35 28.188 8.625 4.312 45.79 9.562 68.517 5.456 1.028-.182 1.992.495 2.177 1.51.182 1.02-.493 1.996-1.513 2.182-5.942 1.072-12.98 1.53-20.31 1.53" fill="#e1e1e6" fill-rule="nonzero"/>
    <path d="M398.433 165.97s35.576 9.565 60 5.312c15.26-2.655 20.12-7.695 31.916-19.49 3.6-3.6 5.388 9.437-1.2 15.602-13.842 12.952-81.265 6.226-90.717-1.424M402.59 117.625c-.32 0-.634-.165-.81-.463-.26-.446-.11-1.02.335-1.284 2.017-1.182 49.747-28.905 78.626-19.433.49.16.76.69.597 1.183-.16.49-.69.76-1.183.596-28.067-9.2-76.6 18.985-77.09 19.274-.148.086-.312.127-.475.127" fill="#e1e1e6" fill-rule="nonzero"/>
    <path d="M481.95 96.584s-4.053 14.554 9.75 31.356c5.948 7.24 10.567 12.244 10.05 25.652-.6 15.602-7.8 25.204-7.8 25.204l3.6-3.602s14.4-25.652 10.2-48.006c-4.673-24.88-25.8-30.604-25.8-30.604" fill="#e1e1e6" fill-rule="nonzero"/>
    <path d="M514.683 126.91c0 6.6-5.35 11.952-11.953 11.952-6.602 0-11.953-5.352-11.953-11.953 0-6.603 5.35-11.955 11.953-11.955 6.602 0 11.953 5.352 11.953 11.954" fill="#e1e1e6" fill-rule="nonzero"/>
    <path d="M360.44 108.09c-2.808-.712-5.013-2.917-5.726-5.726-.067-.27-.418-.27-.485 0-.714 2.81-2.92 5.014-5.73 5.727-.273.068-.273.42 0 .49 2.81.71 5.016 2.914 5.73 5.724.066.274.417.274.484 0 .713-2.81 2.918-5.013 5.726-5.724.274-.07.274-.422 0-.49" fill="#ffc44d" fill-rule="nonzero"/>
    <path d="M380.304 119.71c-4.958-1.26-8.86-5.16-10.118-10.117-.125-.476-.74-.476-.86 0-1.247 4.956-5.15 8.858-10.114 10.106-.478.125-.478.742 0 .858 4.957 1.258 8.86 5.16 10.115 10.118.128.478.743.478.86 0 1.257-4.958 5.16-8.86 10.117-10.118.478-.116.478-.733 0-.85" fill="#fa0" fill-rule="nonzero"/>
    <path d="M363.398 135.123c-7.414-1.874-13.247-7.716-15.13-15.13-.176-.712-1.093-.712-1.28 0-1.872 7.414-7.716 13.247-15.13 15.13-.712.176-.712 1.093 0 1.278 7.414 1.874 13.247 7.717 15.13 15.13.176.713 1.093.713 1.28 0 1.87-7.413 7.716-13.246 15.13-15.13.712-.184.712-1.1 0-1.277" fill="#ffc44d" fill-rule="nonzero"/>
    <path d="M475.947 95.235s6.083-8.576 16.654-9.002c12.466-.5 21.185 11.876 21.278 20.98.197 18.528 13.28 19.276 13.28 19.276s-15.655 9.25-32.31-.2c-14.91-8.463-18.9-31.055-18.9-31.055" fill="#ff99f9" fill-rule="nonzero"/>
    <path d="M483.6 223.387c-.057 0-.117-.006-.177-.017-.508-.098-.842-.59-.745-1.097 6.25-32.582 19.73-63.353 19.866-63.66.208-.473.756-.69 1.236-.478.472.21.688.76.478 1.235-.135.306-13.53 30.89-19.738 63.255-.087.45-.48.762-.92.762" fill="#e1e1e6" fill-rule="nonzero"/>
    <path d="M486.433 193.462s43.27-19.298 45.388-23.533c2.12-4.24.294-3.532-1.617-4.003-1.912-.47-30.828 6.837-46.593 10.59z" fill="#fff" fill-rule="nonzero"/>
    <path d="M421.984 150.26c-2.516-.564-5.147-1.314-7.79-2.07 2.632.735 5.274 1.506 7.79 2.07 2.497.61 4.888.952 6.906 1.367-2.018-.415-4.43-.746-6.906-1.367m-21.996-7.283c1.917.76 4.125 1.795 6.54 2.652-2.432-.864-4.623-1.893-6.54-2.653m38.055 10.343c-.772-.315-1.556-.6-2.32-.88-1.133-.423-2.272-.83-3.387-1.25l-5.777-1.96c-3.85-1.288-7.74-2.448-11.61-3.673-3.907-1.098-7.795-2.26-11.722-3.296l-5.904-1.523c-1.15-.26-2.29-.53-3.437-.79-.013-.008-.036-.022-.045-.03-.825-.193-1.64-.37-2.47-.55-.095-.027-.204-.006-.314.026-.323.11-.503.48-.398.82l.23.764c.53 1.757 1.122 3.31 1.788 4.667.64 1.382 1.33 2.608 2.053 3.776 1.426 2.295 2.997 4.144 4.634 5.79.448.44.917.8 1.378 1.193.29-.096.576-.15.853-.184-.29.06-.583.11-.877.21.015.005.01.02.026.025-.015-.006-.02.01-.038.006 2.875 2.457 5.96 4.145 9.267 5.148.045.015.103.05.15.062l.017.006.015.004c.047.015.114.02.16.03 3.316.975 6.82 1.254 10.57.776-.01-.02-.01-.02-.028-.024.017.004.017.004.038-.007.6-.075 1.175-.124 1.787-.23 2.257-.502 4.582-1.167 7.053-2.318 1.228-.585 2.475-1.234 3.792-2.048 1.286-.773 2.65-1.762 4.057-2.94l.617-.532c.076-.078.15-.16.185-.266.123-.305-.038-.677-.342-.8" fill="#535a80" fill-rule="nonzero"/>
    <path d="M394.758 136.716c.518-.486 7.913 1.42 8.143 1.766.232.347-1.38 8.062-1.924 8.497-.546.43-4.485-1.86-4.724-2.328-.24-.466-1.987-7.477-1.494-7.936M406.647 139.04c.518-.485 10.264 1.966 10.494 2.313.232.347-5.924 7.35-7.5 8.027-.64.274-5.16-.735-5.4-1.202-.24-.467 1.914-8.678 2.407-9.137" fill="#fff" fill-rule="nonzero"/>
    <path d="M551.357 157.132s-.01.043-.034.124c-.02.082-.058.2-.105.352-.048.154-.116.33-.19.544-.082.204-.17.448-.278.707-.437 1.036-1.137 2.417-2.13 3.884-.987 1.47-2.264 3.032-3.786 4.505-.76.74-1.584 1.452-2.445 2.15-.427.354-.867.696-1.304 1.048-.443.34-.88.692-1.333 1.026-.897.682-1.815 1.333-2.728 1.963-.914.63-1.832 1.226-2.732 1.785-1.802 1.123-3.552 2.08-5.098 2.842-1.55.762-2.897 1.322-3.87 1.682-.484.176-.872.31-1.14.394-.27.084-.42.124-.42.124-1.527.416-3.102-.49-3.518-2.018-.2-.742-.088-1.5.253-2.126 0 0 .073-.133.218-.377.144-.242.365-.59.65-1.018.574-.86 1.435-2.042 2.537-3.368 1.1-1.327 2.44-2.806 3.953-4.297.755-.744 1.547-1.5 2.372-2.24.828-.74 1.676-1.48 2.546-2.19.43-.364.875-.71 1.31-1.062.443-.34.88-.692 1.324-1.022.88-.673 1.765-1.31 2.66-1.875 1.788-1.137 3.605-2.01 5.266-2.63 1.655-.622 3.165-.98 4.275-1.162.275-.05.533-.077.75-.11.228-.02.415-.046.576-.055.158-.013.28-.02.366-.022.083-.003.13-.003.13-.003 1.106.015 1.99.922 1.974 2.026-.002.143-.02.29-.05.42" fill="#c70" fill-rule="nonzero"/>
    <path d="M536.077 160.043c.7 2.884 2.376 5.488 4.747 7.367.7.555 1.45 1.033 2.234 1.438.62-.52 1.216-1.052 1.777-1.597.71-.687 1.363-1.392 1.963-2.1-2.977-.886-5.398-3.36-6.062-6.474-.097-.463-.16-.937-.178-1.417-.825.413-1.66.884-2.488 1.413-.67.42-1.333.883-1.993 1.37" fill="#994c00" fill-rule="nonzero"/>
    <path d="M546.703 158.163c2.608 2.943 10.756 2.613 14.19-9.38.3-1.042-.788-1.947-1.752-1.456-1.617.823-3.987 1.6-6.987 1.42-6-.368-9.073 5.323-5.45 9.416" fill="#ffc899" fill-rule="nonzero"/>
    <path d="M552.04 149.004c1.688 1.312.145 1.757 1.136 3.692 1.14 2.218 4.193-1.12 5.41 1.57.88-1.46 1.67-3.26 2.3-5.448.302-1.052-.802-1.967-1.78-1.473-1.62.817-3.976 1.582-6.953 1.4-.15-.01-.298-.015-.445-.015.11.094.218.186.332.274" fill="#00d000" fill-rule="nonzero"/>
    <path d="M529.698 169.87c-2.113.95.502 9.544 5.775 10.045 5.276.502 8.29-3.767 8.54-6.278.252-2.512-9.292-6.028-14.315-3.768" fill="#fff" fill-rule="nonzero"/>
    <path d="M416.43 194.874s-9.733 3.588-11.452 6.22c-1.858 2.845-1.948 7.306.172 7.533 4.377.468 13.44-7.656 13.44-7.656z" fill="#e1e1e6" fill-rule="nonzero"/>
    <path d="M477.778 72.66c0 6.148-4.984 11.132-11.132 11.132-6.15 0-11.134-4.984-11.134-11.132s4.984-11.132 11.134-11.132c6.148 0 11.132 4.984 11.132 11.132" fill="#ff99f9" fill-rule="nonzero"/>
    <path d="M488.36 61.09c0 6.148-4.984 11.13-11.132 11.13-6.15 0-11.134-4.982-11.134-11.13 0-6.15 4.984-11.132 11.134-11.132 6.148 0 11.132 4.983 11.132 11.13M455.278 90.377c-2.99 0-5.41-2.422-5.41-5.413 0-2.987 2.42-5.41 5.41-5.41s5.413 2.423 5.413 5.41c0 2.99-2.42 5.413-5.412 5.413M485.93 108.768c-6.14.32-11.376-4.398-11.696-10.537-.32-6.142 4.398-11.377 10.54-11.695 6.138-.32 11.375 4.396 11.695 10.54.32 6.138-4.4 11.375-10.54 11.693M509.618 117.226c6.103-.748 11.66 3.59 12.407 9.692.752 6.103-3.59 11.658-9.69 12.408-6.103.75-11.66-3.588-12.41-9.69-.747-6.105 3.59-11.66 9.693-12.41" fill="#ff99f9" fill-rule="nonzero"/>
    <path d="M459.262 98.19c-2.988 0-5.41-2.424-5.41-5.413 0-2.99 2.422-5.41 5.41-5.41 2.99 0 5.413 2.42 5.413 5.41s-2.422 5.413-5.413 5.413M499.15 203.79c6.103-.75 11.657 3.588 12.407 9.69.752 6.104-3.59 11.66-9.692 12.408-6.103.752-11.657-3.59-12.407-9.692-.75-6.1 3.59-11.657 9.692-12.407" fill="#ff99f9" fill-rule="nonzero"/>
    <path d="M521.546 215.268c0 5.48-4.442 9.922-9.92 9.922-5.482 0-9.923-4.44-9.923-9.922 0-5.48 4.44-9.92 9.922-9.92 5.48 0 9.92 4.44 9.92 9.92M556.528 82.035c0 6.148-4.984 11.132-11.132 11.132-6.15 0-11.134-4.984-11.134-11.132s4.984-11.132 11.134-11.132c6.148 0 11.132 4.984 11.132 11.132M533.56 57.66c0 6.148-4.985 11.132-11.133 11.132-6.15 0-11.133-4.984-11.133-11.132s4.983-11.132 11.133-11.132c6.148 0 11.132 4.984 11.132 11.132" fill="#ff99f9" fill-rule="nonzero"/>
    <path d="M405.28 29.96h20.31s-6.355-14.202 7.14-16.04c12.033-1.638 16.79 10.728 16.79 10.728s1.425-7.135 8.584-5.77c7.057 1.347 12.266 12.696 12.266 12.696h17.687" fill="#fff" fill-rule="nonzero"/>
    <path d="M426.215 27.777h-20.31c-.52 0-.94-.42-.94-.937 0-.518.42-.938.94-.938h18.95c-.792-2.338-2.024-7.307.136-11.194 1.484-2.668 4.254-4.295 8.236-4.837 9.484-1.293 14.723 5.66 16.772 9.26 1.27-2.552 4.026-5.23 8.906-4.294 6.538 1.247 11.425 8.78 12.63 10.802h17.147c.52 0 .94.42.94.937 0 .52-.42.938-.94.938h-17.686c-.343 0-.656-.186-.823-.484-.048-.093-5.084-9.106-11.618-10.353-6.178-1.18-7.438 4.78-7.49 5.033-.082.408-.423.714-.837.75-.443.028-.806-.21-.956-.597-.185-.476-4.655-11.643-15.79-10.136-3.365.46-5.67 1.768-6.85 3.894-2.413 4.342.412 10.773.44 10.837.13.29.105.626-.067.89-.174.27-.47.43-.788.43" fill="#e1e1e6" fill-rule="nonzero"/>
    <path d="M489.367 33.54h-83.715c-1.037 0-1.875-.84-1.875-1.876 0-1.037.838-1.875 1.875-1.875h83.715c1.037 0 1.875.837 1.875 1.874 0 1.037-.838 1.875-1.875 1.875" fill="#fff" fill-rule="nonzero"/>
    <path d="M482.628 74.152c-.928 0-1.734-.684-1.854-1.63-.37-2.91.853-9.292 8.153-12.625 6.937-3.167 12.04.793 13.766 3.33.583.858.362 2.025-.495 2.606-.86.585-2.025.36-2.606-.495-.33-.47-3.452-4.618-9.11-2.03-6.547 2.992-6.012 8.52-5.986 8.754.114 1.023-.62 1.955-1.64 2.075-.078.01-.153.015-.228.015" fill="#ff66ed" fill-rule="nonzero"/>
    <path d="M497.275 62.448c-.05 0-.1-.004-.15-.01-.512-.084-.86-.566-.778-1.076.01-.058 1.014-5.846 7.995-6.847 5.263-.754 7.886 2.876 8.535 4.9.16.492-.11 1.02-.604 1.18-.49.162-1.02-.112-1.18-.607-.055-.17-1.516-4.324-6.485-3.617-5.628.807-6.403 5.244-6.408 5.29-.075.46-.473.788-.925.788M525.887 138.063c-2.072 0-3.802-.89-4.723-1.674-.394-.337-.44-.93-.105-1.323.338-.396.933-.44 1.32-.105.14.118 3.554 2.903 7.42-.326 4.328-3.61 2.743-7.7 2.674-7.87-.193-.478.036-1.023.512-1.22.478-.203 1.022.028 1.22.504.023.055 2.21 5.507-3.204 10.024-1.764 1.474-3.538 1.99-5.115 1.99M474.15 65.572c-.05 0-.102-.006-.153-.013-.51-.086-.855-.564-.774-1.072.01-.058 1.012-5.846 7.993-6.847 5.257-.76 7.884 2.875 8.535 4.9.16.493-.11 1.022-.603 1.18-.49.16-1.02-.113-1.18-.606-.056-.173-1.516-4.335-6.485-3.617-5.576.8-6.377 5.107-6.41 5.29-.078.46-.473.785-.923.785" fill="#ff66ed" fill-rule="nonzero"/>
    <path d="M533.1 127.73c-2.573 0-4.783-.935-6.055-1.83-.845-.598-1.048-1.768-.452-2.613.6-.848 1.77-1.048 2.614-.452.473.324 4.85 3.103 9.242-1.303 5.15-5.17 2.56-10.236 2.534-10.285-.486-.915-.135-2.05.78-2.535.92-.485 2.05-.133 2.535.78 1.37 2.594 2.468 9-3.194 14.687-2.657 2.664-5.503 3.55-8.006 3.55" fill="#ff66ed" fill-rule="nonzero"/>
    <path d="M488.59 196.44c-.047 0-.093-.005-.14-.012-.514-.077-.865-.553-.788-1.065.99-6.613 23.653-14.968 26.233-15.9.493-.17 1.024.08 1.202.564.175.488-.077 1.026-.564 1.202-9.34 3.37-24.396 10.26-25.018 14.41-.07.465-.47.8-.925.8" fill="#e1e1e6" fill-rule="nonzero"/>
    <path d="M414.372 196.595c-.322 0-.634-.165-.81-.46-.262-.446-.114-1.02.33-1.286.156-.09 15.666-9.19 36.034-14.43.502-.13 1.012.172 1.142.672.13.503-.173 1.013-.673 1.144-20.102 5.17-35.395 14.14-35.547 14.23-.15.088-.315.13-.476.13" fill="#fff" fill-rule="nonzero"/>
    <path d="M203.7 177.013c0-8.09 6.56-14.647 14.648-14.647 8.092 0 14.65 6.557 14.65 14.647s-6.558 14.648-14.65 14.648c-8.09 0-14.648-6.558-14.648-14.647m48.83-4.882h-10.255c-.557-3.125-1.718-6.108-3.42-8.79l7.325-7.323c1.62-2.158 1.18-5.218-.975-6.836-1.736-1.3-4.123-1.3-5.86 0l-7.325 7.325c-2.677-1.7-5.664-2.862-8.788-3.418v-10.253c0-2.698-2.186-4.884-4.884-4.884-2.695 0-4.88 2.186-4.88 4.884v10.253c-3.125.556-6.112 1.717-8.79 3.418l-6.837-7.324c-2.02-2.022-5.3-2.022-7.323 0-2.02 2.022-2.02 5.302 0 7.325l7.324 6.836c-1.698 2.682-2.86 5.665-3.415 8.79H184.17c-2.696 0-4.884 2.187-4.884 4.883 0 2.697 2.188 4.883 4.884 4.883h10.255c.556 3.126 1.717 6.11 3.416 8.788l-7.323 6.838c-2.158 1.616-2.595 4.678-.977 6.835 1.62 2.156 4.678 2.595 6.836.976.372-.277.7-.607.977-.976l6.837-7.324c2.68 1.7 5.664 2.86 8.788 3.418v10.743c0 2.696 2.186 4.882 4.884 4.882 2.696 0 4.88-2.186 4.88-4.882v-10.255c3.126-.556 6.11-1.717 8.79-3.416l7.324 7.324c2.16 1.616 5.22 1.18 6.837-.98 1.303-1.735 1.303-4.12 0-5.858l-7.324-7.324c1.87-2.64 3.198-5.63 3.905-8.788h10.254c2.695 0 4.88-2.186 4.88-4.883 0-2.696-2.185-4.882-4.88-4.882" fill="#e1e1e6" fill-rule="nonzero"/>
    <path d="M436.695 290.885c-1.438 0-3.917-1.404-9.14-7.888-9.24-11.47-18.937-33.83-20.187-39.77-1.245-5.92 1.903-26.76 11.752-38.907 7.71-9.51 24.602-23.762 30.36-28.526-9.09-.216-39.392-1.22-47.83-5.03-9.818-4.435-17.208-12.28-20.806-22.096-3.487-9.508-3.89-12.506-.337-17.027 3.288-4.18 13.36-13.06 22.963-18.183 9.442-5.034 29.964-14.163 43.93-18.198.492-.148 1.017.143 1.162.64.142.497-.143 1.016-.642 1.16-13.843 4.002-34.198 13.054-43.567 18.053-9.38 5.003-19.18 13.63-22.373 17.687-2.938 3.74-2.857 5.732.625 15.225 3.423 9.336 10.46 16.804 19.818 21.028 9.4 4.25 49.23 4.914 49.628 4.918.395.007.745.26.873.633.13.375.01.788-.296 1.035-.227.186-22.845 18.508-32.05 29.86-9.34 11.523-12.53 31.848-11.374 37.344 1.223 5.81 10.735 27.71 19.814 38.98 6.168 7.66 7.753 7.186 7.768 7.17.1-.04.356-.567.257-1.82-.165-2.03-4.544-17.244-6.218-22.936-.09-.3-.02-.627.182-.867.2-.243.53-.357.82-.33.057.007 5.696.618 15.21.618 9.49 0 20.043-1.84 20.15-1.86.272-.043.55.026.76.203.213.175.337.436.34.71.128 11.356.897 23.8 1.986 26.126 1.51-1.04 4.3-6.51 7.118-15.762 2.16-7.104 5.31-37.39 6.213-47.62.89-10.117 5.56-30.15 7.682-32.98 1.92-2.562 24.132-13.01 28.568-15.077.465-.22 1.024-.02 1.245.454.22.47.015 1.026-.456 1.246-10.097 4.713-26.59 12.817-27.855 14.5-1.64 2.187-6.337 20.922-7.316 32.02-.674 7.643-3.91 40.196-6.286 48.004-1.487 4.882-5.32 16.33-8.796 17.2-.397.095-.79.008-1.12-.248-2.213-1.708-2.725-18.478-2.843-26.75-2.972.472-11.528 1.71-19.388 1.71-6.885 0-11.777-.316-14.027-.5 1.412 4.834 5.713 19.694 5.9 21.99.202 2.515-.668 3.407-1.432 3.71-.226.093-.48.153-.783.153" fill="#c8c8cc" fill-rule="nonzero"/>
    <path d="M277.583 89.67c-.393 0-.712.32-.712.713v8.54c0 .39.32.707.713.707.392 0 .71-.317.71-.708v-8.54c0-.393-.318-.712-.71-.712m9.89 9.036l-2.847-7.824c-.137-.375-.55-.565-.925-.428-.374.137-.563.55-.426.924l2.846 7.827c.09.283.343.482.64.498h.215c.385-.08.63-.46.55-.843-.014-.053-.03-.103-.053-.154m-5.62-8.323c-.395 0-.714.32-.714.71v7.83c0 .39.32.707.713.707.395 0 .713-.317.713-.708v-7.83c0-.39-.318-.71-.712-.71m-2.133.71c-.392 0-.71.32-.71.714v7.116c0 .39.318.708.71.708.394 0 .713-.317.713-.708v-7.116c0-.394-.32-.713-.713-.713" fill="#8000ff" fill-rule="nonzero"/>
    <path d="M425.906 251.99c-5.63 0-11.096-.615-16.4-1.85-32.684-7.617-58.598-37.66-79.227-91.852-16.25-42.68-38.43-56.034-38.65-56.165-.45-.26-.6-.835-.338-1.28.26-.45.837-.6 1.283-.338.932.543 22.976 13.822 39.455 57.118 20.39 53.56 45.872 83.227 77.9 90.69 33.97 7.912 74.988-10.217 121.932-53.884.38-.355.972-.33 1.326.046.35.38.332.973-.05 1.326-40.16 37.357-76.14 56.19-107.232 56.19" fill="#e1e1e6" fill-rule="nonzero"/>
    <path d="M429.504 265.583c-10.747 0-22.19-1.58-34.194-5.372-40.137-12.672-58.187-58.253-72.69-94.877-8.258-20.85-15.388-38.856-24.75-47.27-.77-.693-.835-1.88-.143-2.648.696-.77 1.88-.83 2.648-.143 10.02 9.004 17.298 27.39 25.73 48.68 14.213 35.886 31.898 80.547 70.332 92.686 69.87 22.055 120.436-33.306 120.937-33.868.692-.77 1.88-.84 2.648-.15.772.69.84 1.875.15 2.647-.432.484-36.74 40.316-90.668 40.316" fill="#e1e1e6" fill-rule="nonzero"/>
    <path d="M441.366 238.702l-4.785-1.382c-.657-.19-1.347.187-1.54.85-.192.66.19 1.35.85 1.54l4.784 1.382c.66.192 1.352-.19 1.54-.85.192-.66-.188-1.35-.848-1.54zm8.555-2.71l-11.956-3.457c-.66-.19-1.35.19-1.54.85-.192.66.19 1.35.85 1.542l11.957 3.456c.66.193 1.35-.19 1.543-.85.19-.66-.19-1.35-.852-1.54zm1.385-4.783l-11.96-3.458c-.66-.19-1.35.19-1.538.85-.193.66.187 1.35.85 1.542l11.958 3.456c.658.19 1.348-.188 1.54-.85.19-.66-.19-1.35-.85-1.54zm1.382-4.784l-11.957-3.457c-.66-.19-1.352.19-1.54.85-.194.66.186 1.35.848 1.54l11.96 3.46c.657.188 1.35-.193 1.54-.853.19-.66-.19-1.35-.85-1.54zm-.242 23.252c-.382 1.322-1.762 2.083-3.082 1.7l-19.133-5.53c-1.324-.38-2.083-1.76-1.702-3.083l6.915-23.916c.38-1.32 1.76-2.082 3.08-1.7l19.135 5.53c1.32.38 2.083 1.762 1.7 3.082zm8.987-31.09l-23.918-6.914c-2.64-.764-5.4.76-6.165 3.4l-8.297 28.7c-.764 2.64.76 5.403 3.403 6.166l23.915 6.914c2.643.763 5.403-.76 6.166-3.402l8.297-28.698c.763-2.642-.76-5.402-3.4-6.167z" fill="#00d000" fill-rule="nonzero"/>
    <path d="M313.065 159.76c-.48.16-.885.502-1.115.954l-4.185 7.96-7.776-4.246c-.507-.274-1.11-.31-1.645-.093-1.013.33-1.564 1.417-1.234 2.428.155.47.483.864.918 1.1l7.96 4.187 1.69.885c.932.48 2.076.126 2.575-.8l.89-1.688 4.184-7.957c.485-.947.112-2.108-.835-2.595-.44-.225-.95-.274-1.427-.134m-1.642 20.688c-8.13 2.526-16.768-2.017-19.294-10.147l-2.288-7.36c-.632-2.03.504-4.19 2.537-4.823l22.08-6.86c2.033-.63 4.19.504 4.823 2.536l2.287 7.362c2.526 8.13-2.017 16.77-10.147 19.293" fill="#e63821" fill-rule="nonzero"/>
    <path d="M532.463 218.412c-1.326-.718-2.984-.257-3.75 1.044-3.053 5.603-9.51 8.432-15.702 6.878-4.283-1.082-7.786-4.155-9.41-8.265l5.418 1.422c1.496.393 3.026-.5 3.418-1.995.393-1.497-.5-3.03-1.995-3.422l-10.833-2.845c-1.496-.393-3.028.5-3.422 1.995l-2.844 10.836c-.39 1.497.5 3.027 1.998 3.42 1.496.393 3.026-.5 3.42-1.998l.78-2.977c5.026 9.414 16.73 12.973 26.146 7.95 3.47-1.853 6.295-4.723 8.09-8.224.708-1.373.166-3.063-1.21-3.77-.034-.015-.066-.03-.1-.048m5.335-20.312c-1.497-.394-3.03.5-3.423 1.995l-.782 2.98c-5.023-9.413-16.727-12.974-26.143-7.95-3.47 1.854-6.294 4.722-8.09 8.223-.708 1.376-.166 3.064 1.21 3.77l.102.05.542.142c1.3.37 2.68-.244 3.277-1.455 3.13-5.47 9.53-8.175 15.632-6.608 4.284 1.078 7.787 4.155 9.41 8.263l-5.416-1.423c-1.497-.392-3.027.5-3.42 1.997-.393 1.496.5 3.026 1.996 3.42l10.833 2.846c1.496.392 3.028-.502 3.42-1.996l2.846-10.836c.392-1.496-.5-3.026-1.997-3.418" fill="#2bb0cc" fill-rule="nonzero"/>
    <path d="M354.206 182.214c-5.237-1.937-11.113-.863-15.325 2.803l1.814-4.823c.186-.493-.063-1.044-.558-1.228-.493-.185-1.045.064-1.228.557l-3.357 8.93c-.184.496.065 1.045.56 1.23l8.93 3.357c.494.186 1.045-.066 1.23-.557.184-.493-.065-1.044-.558-1.23l-5.537-2.08c4.153-4.767 11.387-5.262 16.155-1.107 4.766 4.156 5.26 11.388 1.106 16.155-4.157 4.767-11.39 5.264-16.157 1.107-2.5-2.18-3.93-5.336-3.925-8.65.007-1.068-.85-1.938-1.92-1.946-1.067-.006-1.937.854-1.944 1.92.098 8.43 7.01 15.187 15.44 15.09 8.435-.098 15.19-7.01 15.09-15.44-.07-6.266-3.962-11.85-9.814-14.086zm-9.282 18.733l4.915-2.23c.235-.142.398-.378.445-.648l2.687-7.145c.184-.495-.064-1.044-.56-1.23-.492-.186-1.043.064-1.227.557l-2.552 6.787-4.6 1.94c-.474.22-.682.774-.472 1.25l1.252.47z" fill="#fa0" fill-rule="nonzero"/>
    <path d="M370.068 257.87l8.368 3.15c2.48.824 5.158-.52 5.98-3l.016-.05-11.338-3.982zm-10.582 9.134c-1.628.488-3.342-.437-3.83-2.064-.485-1.628.44-3.34 2.065-3.83 1.63-.485 3.342.438 3.83 2.065.022.074.04.147.056.22.46 1.5-.382 3.088-1.882 3.547-.08.025-.158.043-.24.062zm-4.112-13.584c-1.583.615-3.364-.17-3.98-1.753-.616-1.583.168-3.366 1.752-3.98 1.58-.616 3.366.168 3.98 1.752.027.07.053.14.076.213.575 1.46-.137 3.107-1.594 3.684-.077.032-.156.058-.234.083zm23.762-12.135c-2.042-1.63-5.02-1.298-6.65.744-.01.014-.022.027-.033.04l-6.842 9.24-5.262-1.87-.204-.678c-.538-1.783-1.887-3.204-3.634-3.842l-1.028-3.397-4.528 1.37.752 2.492c-2.925 1.454-4.115 5.003-2.66 7.928 1.453 2.925 5.004 4.117 7.93 2.66.918-.455 1.7-1.145 2.273-1.996l3.335 1.215-2.484 3.223c-3.163-.818-6.39 1.084-7.205 4.247-.818 3.16 1.084 6.388 4.245 7.203 3.163.818 6.39-1.083 7.206-4.245.28-1.078.247-2.212-.092-3.27-.075-.39-.19-.77-.342-1.136zm2.413 4.706l4.527-1.368-1.37-4.528-4.527 1.37zm2.056 6.794c2.5-.757 3.915-3.397 3.155-5.9l-4.527 1.372zm-4.114-13.584l4.528-1.37-1.37-4.53-4.527 1.372zm-5.69-10.637l-4.527 1.372 1.37 4.53 4.53-1.374zm-13.583 4.112l-4.53 1.37 1.37 4.53 4.53-1.37zm15.846-4.796l1.373 4.527 4.527-1.37c-.76-2.502-3.4-3.914-5.9-3.158zm-9.056 2.74l-4.528 1.37 1.372 4.53 4.528-1.372zm-13.584 4.11c-2.502.757-3.915 3.4-3.158 5.9l4.528-1.372z" fill="#95e100" fill-rule="nonzero"/>
    <path d="M318.19 117.654l-4.216 2.543c-.844.534-1.96.28-2.494-.563-.532-.845-.283-1.96.563-2.493l4.076-2.574c-.654-.523-1.415-.894-2.23-1.09-3.074-.64-6.083 1.328-6.726 4.4-.197.948-.152 1.93.135 2.853l-10.704 6.76c-.714.32-1.035 1.16-.714 1.876.32.716 1.162 1.036 1.877.716.123-.055.235-.128.338-.216l10.703-6.76c.72.708 1.61 1.212 2.584 1.46 3.062.69 6.105-1.23 6.797-4.292.208-.86.21-1.757.008-2.62" fill="#f218cd" fill-rule="nonzero"/>
    <g transform="translate(114.374 278.28)">
      <mask id="f" fill="#fff">
        <use xlink:href="#e" width="100%" height="100%"/>
      </mask>
      <path d="M.655 9.587c0-5.06 45.325-9.16 101.234-9.16 55.907 0 101.23 4.1 101.23 9.16 0 5.06-45.323 9.163-101.23 9.163C45.98 18.75.654 14.648.654 9.587" mask="url(#f)" fill="#ededf2" fill-rule="nonzero"/>
    </g>
    <path d="M186.106 265.168c-.54-.11-1.065.238-1.176.776-.437 2.15-1.04 4.455-2.042 6.456-.264-.902-.636-1.782-.93-2.485-.112-.266-.22-.52-.26-.643-.173-.52-.74-.8-1.26-.626-.524.172-.805.737-.63 1.26.063.193.172.454.313.782.3.714.754 1.792.98 2.77.245 1.047.116 1.503 0 1.604-.055.053-.106.107-.147.165-1 1.052-2.243 1.853-3.795 2.258l-2.443-14.998c-.36-2.198-2.43-3.69-4.628-3.33-2.197.356-3.688 2.43-3.33 4.627l4.283 26.28c.356 2.198 8.314.902 7.955-1.296l-1.516-9.307c2.13-.513 3.78-1.608 5.07-3.025.03-.036.062-.07.092-.107 2.464-2.78 3.58-6.745 4.242-9.985.11-.54-.24-1.065-.78-1.175" fill="#de9b59" fill-rule="nonzero"/>
    <path d="M189.39 240.967c-.532-.383-1.09-.71-1.66-.987.318-.33.618-.69.896-1.072 3.15-4.38 2.156-10.485-2.224-13.64-4.36-3.138-10.43-2.163-13.596 2.167-.53-1.348-1.438-2.565-2.702-3.475-3.5-2.52-8.383-1.725-10.905 1.776-.36.503-.65 1.033-.878 1.58-4.22-1.28-8.968.175-11.69 3.955-3.143 4.37-2.485 10.317 1.327 13.912-2.188.64-4.184 1.987-5.62 3.978-3.423 4.755-2.343 11.387 2.412 14.81 2.41 1.734 5.297 2.31 8.005 1.842-.137 2.158.804 4.335 2.69 5.693 2.91 2.096 6.972 1.436 9.068-1.478.292-.405.53-.832.714-1.275.044.034.086.068.132.102 4.667 3.36 11.177 2.3 14.537-2.37 1.143-1.59 1.773-3.39 1.925-5.207 3.82.337 7.717-1.287 10.12-4.628 3.626-5.035 2.482-12.057-2.554-15.683" fill="#a5f894" fill-rule="nonzero"/>
    <path d="M153.767 264.686l-.075 1.187c-.12 1.924.74 3.746 2.3 4.87 2.487 1.79 5.973 1.226 7.762-1.262.245-.34.45-.706.61-1.09l.466-1.11.962.723c2.17 1.57 4.678 2.166 7.177 1.75 2.5-.406 4.69-1.76 6.166-3.816 1.005-1.395 1.613-3.032 1.755-4.738l.08-.94.937.084c3.62.307 7.165-1.31 9.276-4.242 3.32-4.608 2.27-11.056-2.34-14.373-.476-.344-.986-.648-1.52-.907l-1.165-.56.896-.932c.29-.3.56-.622.812-.97 2.843-3.95 1.943-9.484-2.012-12.33-3.924-2.828-9.438-1.947-12.29 1.96l-1.005 1.373-.626-1.584c-.483-1.23-1.307-2.287-2.377-3.06-3.075-2.212-7.382-1.513-9.596 1.564-.307.428-.568.897-.772 1.392l-.326.785-.814-.246c-3.95-1.2-8.24.25-10.652 3.605-2.824 3.92-2.304 9.37 1.206 12.678l1.19 1.123-1.57.46c-2.078.61-3.852 1.864-5.12 3.63-1.51 2.095-2.11 4.654-1.696 7.204.416 2.552 1.798 4.785 3.894 6.295 2.124 1.53 4.708 2.12 7.297 1.68zm5.464 8.978c-1.504 0-3.02-.454-4.332-1.397-1.785-1.286-2.884-3.246-3.066-5.395-2.715.218-5.386-.528-7.627-2.143-5.166-3.72-6.345-10.947-2.627-16.116 1.226-1.7 2.844-3.008 4.73-3.83-3.262-3.983-3.513-9.787-.436-14.06 2.726-3.785 7.434-5.54 11.934-4.515.188-.355.4-.698.632-1.02 2.82-3.916 8.297-4.806 12.214-1.992.954.688 1.75 1.553 2.36 2.544 3.63-3.74 9.59-4.36 13.937-1.235 4.792 3.45 5.885 10.157 2.437 14.95-.064.085-.126.172-.19.256.252.156.5.32.74.49 5.448 3.926 6.69 11.548 2.77 16.994-2.29 3.18-6.01 5.06-9.905 5.06h-.156c-.283 1.717-.962 3.352-1.987 4.775-1.773 2.46-4.396 4.085-7.39 4.573-2.693.44-5.388-.088-7.69-1.485-.096.156-.197.307-.302.456-1.453 2.015-3.735 3.088-6.047 3.088z" fill="#00b300" fill-rule="nonzero"/>
    <path d="M171.477 278.188c-.136.023-.28.017-.427-.024-5.074-1.4-11.895-4.078-12.55-11.094-.052-.548.35-1.033.9-1.086.548-.05 1.032.353 1.084.902.535 5.722 6.212 8.006 11.1 9.356.53.146.842.696.694 1.226-.107.39-.43.66-.8.72" fill="#c70" fill-rule="nonzero"/>
    <path d="M174.78 236.774c1.062-.353 2.206.22 2.558 1.284l1.43 4.312c.35 1.065-.78.524-1.842.876-1.065.353-1.652 1.455-2.003.398l-1.43-4.313c-.35-1.062.23-2.206 1.286-2.556" fill="#090" fill-rule="nonzero"/>
    <path d="M175.45 244.65c-.22.074-.476.027-.65-.153-.25-.253-.242-.652.002-.9 1.076-1.063 2.54-1.573 4.01-1.39.348.042.593.36.55.706-.043.35-.356.596-.707.553-1.084-.135-2.158.24-2.957 1.024-.07.077-.152.13-.247.16" fill="#00d000" fill-rule="nonzero"/>
    <path d="M157.34 242.554c1.063-.352 2.207.22 2.557 1.286l1.43 4.31c.353 1.066-.777.524-1.842.877-1.065.354-1.65 1.457-2 .4l-1.432-4.313c-.352-1.065.23-2.21 1.287-2.56" fill="#090" fill-rule="nonzero"/>
    <path d="M158.012 250.43c-.223.075-.477.028-.653-.152-.25-.253-.243-.653 0-.9 1.08-1.062 2.54-1.572 4.01-1.392.35.045.594.36.553.71-.043.348-.358.594-.71.55-1.082-.133-2.157.24-2.956 1.024-.07.077-.16.13-.245.16" fill="#00d000" fill-rule="nonzero"/>
    <path d="M181.607 246.84c-.418.096-.83.205-1.236.314-.1.07-.378.24-.81.48-.56.274-1.326.757-2.294 1.185-.973.417-2.09.99-3.317 1.458-1.225.504-2.555.963-3.89 1.423-1.344.42-2.692.848-3.975 1.176-1.276.353-2.5.567-3.53.808-1.033.237-1.94.317-2.55.424-.49.064-.823.096-.938.1-.403.16-.797.326-1.2.493-.048.018-.088.06-.125.104-.103.14-.07.35.075.46l.32.256c.74.583 1.446 1.063 2.125 1.438.678.392 1.327.705 1.976.985 1.275.547 2.48.86 3.65 1.072.32.053.623.066.932.096 1.16-1.556 3.38-.704 5.247-1.323 1.873-.62 3.15-2.623 5.012-2.06.23-.207.456-.398.68-.62.805-.877 1.587-1.84 2.29-3.052.344-.607.677-1.247.99-1.976.314-.704.6-1.522.842-2.43l.105-.406c.007-.055.017-.11-.002-.167-.035-.163-.213-.274-.378-.236" fill="#090" fill-rule="nonzero"/>
    <path d="M162.555 253.685c1.03-.244 2.263-.457 3.53-.81 1.283-.326 2.623-.754 3.973-1.175 1.326-.465 2.667-.92 3.89-1.422 1.235-.478 2.345-1.04 3.318-1.46.967-.426 1.744-.904 2.295-1.185.432-.238.71-.41.81-.478-.6.155-1.2.318-1.792.47l-3.007.872c-1.996.593-3.974 1.247-5.962 1.87-1.966.69-3.945 1.344-5.902 2.064l-2.933 1.096c-.566.232-1.136.455-1.7.688.11-.01.446-.032.935-.1.606-.112 1.514-.193 2.547-.43" fill="#090" fill-rule="nonzero"/>
    <path d="M177.106 255.734c.008-.004.008-.004.013-.015-1.86-.556-3.502.367-5.285 1.214l-.006.002-.01.004c-1.935.385-3.812.626-4.963 2.18.01-.003.01.007.02.003-.008.004-.007.01-.014.013 1.93.19 3.725-.007 5.413-.56.024-.006.056-.008.08-.018l.01-.002.006-.002c.023-.01.053-.028.077-.035 1.68-.566 3.237-1.48 4.674-2.784-.012-.006-.012-.006-.02-.002" fill="#00d000" fill-rule="nonzero"/>
    <path d="M339.6 165.375c-.393 0-.756-.25-.89-.64l-1.248-3.75c-.163-.492.103-1.023.594-1.188.493-.163 1.022.103 1.187.595l1.25 3.75c.162.49-.104 1.02-.596 1.186-.1.032-.196.047-.296.047M343.35 224.127c-.342 0-.672-.192-.837-.518l-2.5-5.002c-.23-.463-.044-1.027.42-1.258.462-.232 1.024-.045 1.257.418l2.5 5c.23.464.044 1.03-.42 1.26-.136.067-.278.1-.42.1M400.227 269.127c-.1 0-.196-.015-.296-.047l-5.624-1.875c-.49-.165-.757-.696-.594-1.187.167-.49.7-.756 1.187-.595l5.624 1.875c.49.165.757.696.594 1.187-.133.392-.5.642-.89.642M371.476 217.875c-.268 0-.534-.116-.72-.337l-6.25-7.5c-.33-.398-.277-.988.12-1.32.396-.332.987-.28 1.32.12l6.25 7.5c.332.397.278.988-.12 1.32-.174.146-.388.217-.6.217M523.977 195.375c-.25 0-.504-.1-.688-.3-.353-.378-.33-.973.05-1.325l8.807-8.16c.38-.347.973-.33 1.325.052.353.38.328.97-.05 1.326l-8.807 8.158c-.182.167-.41.25-.638.25M305.227 134.75c-.283 0-.566-.128-.75-.374l-1.875-2.5c-.31-.414-.227-1 .187-1.312.412-.31 1-.227 1.312.188l1.875 2.5c.31.413.227 1-.188 1.31-.17.13-.368.19-.563.19" fill="#e1e1e6" fill-rule="nonzero"/>
    <path d="M437.374 89.344c-6.114-3.118.82 24.03 6.744 25.247 5.92 1.216 11.723-4.996 10.963-11.322-.754-6.326-6.908-8.415-17.706-13.924" fill="#ffc44d" fill-rule="nonzero"/>
    <g>
      <g transform="translate(434.124 88.905)">
        <mask id="h" fill="#fff">
          <use xlink:href="#g" width="100%" height="100%"/>
        </mask>
        <path d="M-3.344-8.17C-9.458-11.29-2.4 15.38 3.4 17.08 9.72 18.93 16.92 12.93 14.367 5.755 12.228-.25 7.454-2.66-3.344-8.17" mask="url(#h)" fill="#fa0" fill-rule="nonzero"/>
      </g>
    </g>
    <path d="M434.45 80.986c-4.345-3.413-3.08 19.108 1.41 20.988 4.488 1.88 10.035-2.126 10.42-7.243.383-5.112-4.154-7.716-11.83-13.744" fill="#ffc44d" fill-rule="nonzero"/>
    <g>
      <g transform="translate(431.25 80.53)">
        <mask id="j" fill="#fff">
          <use xlink:href="#i" width="100%" height="100%"/>
        </mask>
        <path d="M-.67-7.37C-5.015-10.78-3.63 11.476.738 13.62c5.258 2.584 11.408-1.916 10.42-7.24C10.223 1.336 7.003-1.34-.67-7.37" mask="url(#j)" fill="#fa0" fill-rule="nonzero"/>
      </g>
    </g>
    <path d="M433.88 74.136c-2.612-3.477-6.213 13.908-3.182 16.248 3.032 2.34 8.065.417 9.394-3.397 1.328-3.812-1.595-6.713-6.212-12.85" fill="#ffc44d" fill-rule="nonzero"/>
    <g>
      <g transform="translate(429.374 73.03)">
        <mask id="l" fill="#fff">
          <use xlink:href="#k" width="100%" height="100%"/>
        </mask>
        <path d="M3.148-5.63C.534-9.108-2.77 7.935-.034 10.62c3.553 3.483 9.705.633 9.392-3.398C9.046 3.196 7.764.51 3.148-5.63" mask="url(#l)" fill="#fa0" fill-rule="nonzero"/>
      </g>
    </g>
    <g fill-rule="nonzero">
      <path d="M434.616 68.483c-1.552-3.157-7.033 10.12-4.974 12.437 2.057 2.316 6.345 1.543 7.976-1.288 1.63-2.83-.257-5.573-3.002-11.15" fill="#ffc44d"/>
      <path d="M443.092 114.287c-.403 0-.81-.13-1.15-.398-.293-.227-7.156-5.682-10.756-16.647-5.11-15.56.054-28.23.276-28.76.397-.953 1.488-1.4 2.45-1.007.953.397 1.407 1.494 1.01 2.45-.048.118-4.83 11.967-.172 26.15 3.246 9.892 9.435 14.81 9.497 14.858.818.638.962 1.817.325 2.63-.37.475-.92.723-1.48.723" fill="#fa0"/>
      <path d="M498.912 173.66c-.13 0-.268-.03-.396-.09-.468-.217-.67-.773-.453-1.244.04-.086 4.067-8.78 6.213-14.914 2.132-6.086 3.69-18.125 3.705-18.245.067-.514.543-.885 1.05-.812.515.065.877.536.81 1.048-.062.502-1.598 12.358-3.794 18.628-2.176 6.224-6.242 15-6.285 15.087-.156.34-.495.542-.848.542" fill="#c8c8cc"/>
      <path d="M492.974 175.534c-.416 0-.795-.277-.906-.697-.133-.503.165-1.015.666-1.146.167-.044 16.644-4.392 22.224-5.633 5.622-1.247 13.742-3.122 13.744-3.122l.42 1.826s-8.13 1.876-13.76 3.127c-5.54 1.233-21.983 5.572-22.148 5.615-.08.023-.16.032-.24.032M537.148 180.992c-.583 0-1.19-.048-1.822-.15-2.395-.382-4.198-1.45-5.363-3.18-2.23-3.31-1.222-7.815-1.18-8.004.12-.504.63-.808 1.124-.703.504.118.82.62.705 1.125-.01.037-.864 3.915.91 6.542.864 1.277 2.242 2.072 4.1 2.368 2.087.33 3.797.008 5.068-.97 2.072-1.593 2.387-4.447 2.39-4.477.053-.512.484-.868 1.026-.838.512.05.89.508.84 1.022-.015.15-.384 3.67-3.097 5.767-1.29.998-2.866 1.498-4.702 1.498M407.3 208.97c-.275 0-.547-.023-.815-.07-1.284-.225-2.317-.987-3.067-2.263-.758-1.287-.908-2.627-.452-3.99 1.385-4.11 8.117-6.923 8.402-7.04.483-.2 1.027.03 1.222.51.2.475-.03 1.023-.508 1.22-1.73.716-6.418 3.168-7.337 5.91-.28.836-.187 1.63.287 2.437.467.795 1.048 1.24 1.778 1.37 2.563.45 6.51-2.857 8.643-4.627.525-.44.98-.814 1.335-1.08 2.5-1.873 20.31-15.31 20.31-15.31l1.127 1.495s-17.814 13.438-20.314 15.315c-.334.25-.762.61-1.26 1.022-2.483 2.063-6.137 5.1-9.35 5.1" fill="#c8c8cc"/>
      <path d="M448.598 114.91c-.392 0-.755-.248-.89-.64-.164-.49.103-1.022.592-1.187.242-.082 5.923-2.07 5.923-7.86 0-5.964-6.152-9.723-6.213-9.76-.14-.08-.256-.2-.334-.34-.015-.025-1.418-2.48-3.178-4.238-1.757-1.758-3.844-2.962-3.865-2.972-.244-.142-.414-.384-.46-.66-.003-.02-.314-1.848-1.214-4.546-.657-1.973-1.4-2.138-1.407-2.14-.267.002-.494-.105-.68-.313-.185-.206-.222-.482-.185-.756.012-.073 1.013-7.395-2.653-10.278-.405-.32-.476-.91-.156-1.317.32-.405.913-.474 1.318-.155 3.76 2.96 3.613 9.086 3.43 11.252.657.38 1.484 1.232 2.112 3.114.698 2.093 1.054 3.673 1.2 4.397.733.457 2.393 1.557 3.885 3.048 1.648 1.65 2.963 3.763 3.358 4.432 1.206.78 6.915 4.82 6.915 11.232 0 7.155-7.132 9.616-7.204 9.64-.1.033-.196.048-.296.048" fill="#fa0"/>
      <path d="M511.226 140.297c-4.785 0-7.335-1.894-8.916-3.476-1.948-1.947-2.953-5.948-3.272-7.433-1.955-.66-8.576-3.225-13.36-9.205-4.377-5.47-5.508-11.56-5.76-13.4-1.355-.668-5.073-2.727-6.247-5.58-2.37-5.755.33-9.23.446-9.38.324-.4.913-.466 1.318-.145.403.322.47.91.15 1.314-.086.112-2.11 2.815-.18 7.5.94 2.277 4.476 4.244 5.76 4.81.313.14.527.435.557.777.006.07.672 6.995 5.423 12.933 5.166 6.458 12.885 8.727 12.962 8.75.347.095.606.383.668.736.25 1.4 1.245 5.38 2.863 7 1.824 1.826 4.757 3.768 11.355 2.553.517-.083.998.24 1.094.75.094.51-.244.998-.754 1.094-1.526.28-2.89.403-4.104.403M522.908 245.345c-.283 0-.566-.13-.748-.375-.31-.415-.23-1 .186-1.31 9-6.762 12.875-14.403 12.915-14.48.23-.465.797-.656 1.257-.42.463.23.65.792.422 1.255-.164.328-4.09 8.102-13.47 15.14-.168.13-.367.19-.562.19" fill="#f218cd"/>
    </g>
  </g>
</svg>