
<svg width="44px" height="48px" viewBox="0 0 44 48" version="1.1" xmlns="http://www.w3.org/2000/svg" xmlns:xlink="http://www.w3.org/1999/xlink">
    <!-- Generator: Sketch 44.1 (41455) - http://www.bohemiancoding.com/sketch -->
    <desc>Created with Sketch.</desc>
    <defs>
        <path d="M12.6601849,22.476 L10.5409353,22.476 C9.990762,21.56795 9.18058131,21.1393846 8.37784615,21.1393846 C7.03458749,21.1393846 6.29804524,21.7903688 5.66625817,22.476 L0.640420278,22.476 C0.0274558457,21.2626814 0.131076923,19.788 0.131076923,19.788 L0.123692308,14.2744615 C0.123692308,13.6596923 0.324,13.0947692 0.653538462,12.6304615 C1.15938462,11.9178462 1.98092308,11.4498462 2.91415385,11.4498462 L9.74307692,11.4498462 C9.74307692,11.4498462 12.1772308,11.0298462 12.1772308,9.31107692 C12.1772308,7.59323077 9.74307692,7.48061538 9.74307692,4.27846154 C9.74307692,3.03612479 10.1480157,1.22441282 12.6601849,0.482488886 L12.6601849,22.476 L12.6601849,22.476 Z" id="path-1"></path>
        <path d="M9.31187822,0.68678209 C7.31479611,1.51913761 6.97384615,3.13850058 6.97384615,4.27846154 C6.97384615,6.22129129 7.86989798,7.02681143 8.57468588,7.74357862 C9.40482285,6.55477126 9.89076923,5.10912294 9.89076923,3.54923077 C9.89076923,2.5336165 9.68463444,1.56628417 9.31187822,0.68678209 L9.31187822,0.68678209 Z M4.92184615,21.202395 C3.99626263,21.38158 3.41186396,21.9172864 2.8970274,22.476 L0.18,22.476 L0.18,20.0603077 L4.91815385,20.0603077 L4.91815385,17.3556923 L0.18,17.3556923 L0.18,11.4498462 L4.92184615,11.4498462 L4.92184615,21.202395 L4.92184615,21.202395 Z" id="path-3"></path>
        <path d="M7.35332308,15.0913846 L0.118246154,15.0913846 L0.118246154,0.688707692 L4.34026195,0.688707692 C4.00634946,1.04138295 3.768,1.41191222 3.768,1.92646154 C3.768,3.64523077 6.20307692,4.06523077 6.20307692,4.06523077 L7.35332308,4.06523077 L7.35332308,15.0913846 L7.35332308,15.0913846 Z" id="path-5"></path>
        <path d="M9.00381467,14.1683077 L0.313601868,14.1683077 L0.313601868,0.436031487 L4.80077629,0.436031487 C4.730893,0.60683349 4.69107692,0.79307984 4.69107692,1.00338462 C4.69107692,2.72215385 7.12615385,3.14215385 7.12615385,3.14215385 L9.00381467,3.14215385 L9.00381467,14.1683077 L9.00381467,14.1683077 Z" id="path-7"></path>
        <path d="M18.0605538,19.7067692 L1.31016608,19.7067692 C1.07624188,19.320682 0.795313443,19.0212762 0.487938462,18.804638 L0.487938462,8.68061538 L0.512307692,8.68061538 C0.512307692,8.68061538 2.94646154,8.26061538 2.94646154,6.54184615 C2.94646154,4.824 0.512307692,4.71138462 0.512307692,1.50923077 C0.512307692,1.08758005 0.558953904,0.600341145 0.718800384,0.1116 L11.7182068,0.1116 C11.9009035,0.600341145 11.9630769,1.08758005 11.9630769,1.50923077 C11.9630769,4.71138462 9.30646154,4.824 9.30646154,6.54184615 C9.30646154,8.26061538 11.7415385,8.68061538 11.7415385,8.68061538 L18.0605538,8.68061538 L18.0605538,19.7067692 L18.0605538,19.7067692 Z" id="path-9"></path>
        <path d="M0.71874001,0.111784615 C0.558942158,0.600463843 0.512307692,1.08763314 0.512307692,1.50923077 C0.512307692,4.71138462 2.94646154,4.824 2.94646154,6.54184615 C2.94646154,8.26061538 0.512307692,8.68061538 0.512307692,8.68061538 L0.487938462,8.68061538 L0.487938462,18.804638 C0.795313443,19.0212762 1.07624188,19.320682 1.31016608,19.7067692 L4.98609231,19.7067692 L4.98609231,0.111784615 L0.71874001,0.111784615 Z" id="path-11"></path>
        <polygon id="path-13" points="5.13747692 11.3990769 0.639323077 11.3990769 0.639323077 0.372923077 5.13747692 0.372923077 5.13747692 11.3990769"></polygon>
        <path d="M28.1529231,21.7635692 L28.1529231,18.7144615 L28.1529231,11.844 C28.1529231,11.844 28.4344615,9.26030769 30.1504615,9.26030769 C31.8683077,9.26030769 31.6846154,11.9926154 34.8886154,11.9926154 C36.4855385,11.9926154 39.2418462,11.172 39.2418462,6.22984615 C39.2418462,1.28307692 36.4855385,0.689538462 34.8886154,0.689538462 C31.6846154,0.689538462 31.8683077,3.27138462 30.1504615,3.27138462 C29.0049231,3.27138462 28.5009231,2.08984615 28.2904615,1.30246154 L0.197630769,1.30246154 L0.197630769,6.27558845 C0.216864664,6.27586229 0.236218263,6.276 0.255692308,6.276 C2.41015385,6.276 2.54030769,3.37015385 5.37876923,3.37015385 C6.79107692,3.37015385 8.22923077,4.69753846 8.22923077,7.63292308 C8.22923077,10.5664615 6.79107692,12.0406154 5.37876923,12.0406154 C2.54030769,12.0406154 2.41015385,9.14123077 0.255692308,9.14123077 C0.236218233,9.14123077 0.216864634,9.14136361 0.197630769,9.14162778 L0.197630769,21.7635692 L13.5694322,21.7635692 C13.5729843,21.6973166 13.5747879,21.6295738 13.5747692,21.5603077 C13.5747692,19.4030769 10.7658462,19.0033846 10.7658462,16.1630769 C10.7658462,14.7516923 12.3332308,13.0052308 15.2695385,13.0052308 C18.2058462,13.0052308 19.9467692,14.7516923 19.9467692,16.1630769 C19.9467692,19.0033846 17.2246154,19.4030769 17.2246154,21.5603077 C17.2246154,21.6295738 17.2264384,21.6973166 17.2300106,21.7635692 L28.1529231,21.7635692 Z" id="path-15"></path>
        <polygon id="path-17" points="15.5186772 23.2947692 0.838061538 23.2947692 0.838061538 0.365538462 15.5186772 0.365538462 15.5186772 23.2947692"></polygon>
        <path d="M0.411691999,11.4906914 C1.29040804,12.6873332 2.52441982,13.6050731 3.96184615,14.0916923 L3.96184615,20.9464615 L8.7,20.9464615 L8.7,23.2947692 L8.70369231,23.2947692 L8.70369231,14.088 C9.77630769,13.7215385 10.7381538,13.1132308 11.5218462,12.3295385 C12.852,11.0012308 13.6726154,9.16615385 13.6726154,7.14 C13.6726154,4.11507692 11.8421538,1.51938462 9.22984615,0.395076923 C9.18276923,0.374769231 9.13476923,0.365538462 9.08676923,0.365538462 C8.98892308,0.365538462 8.89476923,0.406153846 8.82738462,0.474461538 C8.76184615,0.54 8.72030769,0.630461538 8.71938462,0.733846154 L8.72030769,6.35446154 C8.71938462,6.65723077 8.59661538,6.93138462 8.39815385,7.12984615 C8.19876923,7.32830769 7.92461538,7.452 7.62184615,7.452 L5.04276923,7.452 C4.43630769,7.452 3.94615385,6.96 3.94615385,6.35446154 L3.94615385,0.733846154 C3.94615385,0.522461538 3.77169231,0.366461538 3.57692308,0.366461538 C3.52984615,0.366461538 3.48,0.374769231 3.43107692,0.396 C2.57076923,0.766153846 1.79446154,1.29784615 1.14276923,1.95046154 C0.878097425,2.21494942 0.633582279,2.49952066 0.411691999,2.80169975 L0.411691999,11.4906914 L0.411691999,11.4906914 Z" id="path-19"></path>
        <polygon id="path-21" points="0.759784615 0.638769231 4.08461538 0.638769231 4.08461538 2.98707692 4.08830769 2.98707692 4.08830769 0.6384 0.759784615 0.6384 0.759784615 0.638769231"></polygon>
        <polygon id="path-23" points="0.264 2.98707692 5.00769231 2.98707692 5.00769231 0.6384 0.264 0.6384 0.264 2.98707692"></polygon>
        <polygon id="path-25" points="7.44166154 12.2178462 0.206584615 12.2178462 0.206584615 0.587353846 7.44166154 0.587353846 7.44166154 12.2178462"></polygon>
        <polygon id="path-27" points="9.09265965 11.2947692 0.402446386 11.2947692 0.402446386 0.334585334 9.09265965 0.334585334 9.09265965 11.2947692"></polygon>
        <polygon id="path-29" points="18.1488923 16.8332308 0.576276923 16.8332308 0.576276923 0.0101538462 18.1488923 0.0101538462 18.1488923 16.8332308"></polygon>
        <polygon id="path-31" points="0.576276923 16.8332308 5.07443077 16.8332308 5.07443077 0.0103384615 0.576276923 0.0103384615 0.576276923 16.8332308"></polygon>
        <polygon id="path-33" points="5.22581538 16.8332308 0.727661538 16.8332308 0.727661538 0.0101538462 5.22581538 0.0101538462 5.22581538 16.8332308"></polygon>
    </defs>
    <g id="Screens" stroke="none" stroke-width="1" fill="none" fill-rule="evenodd">
        <g id="Extension-Detail---1366px" transform="translate(-523.000000, -39.000000)">
            <g id="Group-14-Copy-4" transform="translate(523.000000, 39.000000)">
                <g id="Page-1">
                    <path d="M32.0761846,44.4638769 L32.0761846,41.3152615 L32.0761846,34.4448 C32.0761846,34.4448 32.3577231,31.8620308 34.0737231,31.8620308 C35.7915692,31.8620308 35.6078769,34.5934154 38.8109538,34.5934154 C40.4088,34.5934154 43.1651077,33.7728 43.1651077,28.8306462 C43.1651077,23.8838769 40.4088,23.2912615 38.8109538,23.2903385 C35.6078769,23.2912615 35.7915692,25.8721846 34.0737231,25.8721846 C32.3577231,25.8721846 32.0761846,23.2174154 32.0761846,23.2174154 L32.0761846,19.1060308 C32.0761846,17.5460308 30.8281846,16.2814154 29.2848,16.2814154 L21.8955692,16.2814154 C21.8955692,16.2814154 19.4604923,15.8614154 19.4604923,14.1426462 C19.4604923,12.4257231 22.1171077,12.3121846 22.1171077,9.11095385 C22.1171077,7.51403077 21.2254154,4.97926154 16.2804923,4.97926154 C11.3346462,4.97926154 10.6663385,7.51403077 10.6663385,9.11095385 C10.6663385,12.3121846 13.0995692,12.4257231 13.0995692,14.1426462 C13.0995692,15.8614154 10.6663385,16.2814154 10.6663385,16.2814154 L3.83649231,16.2814154 C2.90326154,16.2814154 2.08264615,16.7503385 1.5768,17.4629538 C1.24726154,17.9263385 1.04695385,18.4912615 1.04695385,19.1060308 L1.05433846,24.6204923 C1.05433846,24.6204923 0.754338462,28.8768 4.17803077,28.8768 C6.33341538,28.8768 6.46356923,25.9709538 9.30110769,25.9709538 C10.7134154,25.9709538 12.1506462,27.2992615 12.1506462,30.2346462 C12.1506462,33.1681846 10.7134154,34.6414154 9.30110769,34.6414154 C6.46356923,34.6414154 6.33341538,31.7420308 4.17803077,31.7420308 C0.754338462,31.7420308 1.05433846,35.8488 1.05433846,35.8488 L1.04695385,44.4638769 C1.04695385,46.0220308 2.29587692,47.2866462 3.83649231,47.2866462 L13.0478769,47.2866462 C13.0478769,47.2866462 17.4980308,47.5848 17.4980308,44.1611077 C17.4980308,42.0048 14.6891077,41.6051077 14.6891077,38.7648 C14.6891077,37.3534154 16.2555692,35.6069538 19.1928,35.6069538 C22.1291077,35.6069538 23.8700308,37.3534154 23.8700308,38.7648 C23.8700308,41.6051077 21.1469538,42.0048 21.1469538,44.1611077 C21.1469538,47.5848 25.6008,47.2866462 25.6008,47.2866462 L29.2848,47.2866462 C30.8281846,47.2866462 32.0761846,46.0220308 32.0761846,44.4638769" id="Fill-1" fill="#5FBF00"></path>
                    <g id="Group-30" transform="translate(0.923077, 4.831938)">
                        <g id="Group-5">
                            <mask id="mask-2" fill="white">
                                <use xlink:href="#path-1"></use>
                            </mask>
                            <g id="Clip-4"></g>
                            <path d="M7.69126154,23.8142769 L7.69126154,10.4970462 C8.7648,10.1305846 9.72572308,9.5232 10.5103385,8.73858462 C11.8386462,7.41027692 12.6601846,5.57612308 12.6601846,3.54904615 C12.6601846,0.525046154 10.8306462,-2.07156923 8.21833846,-3.19587692 C8.17126154,-3.21618462 8.12233846,-3.22541538 8.07433846,-3.22541538 C7.97649231,-3.22541538 7.88233846,-3.18572308 7.81495385,-3.11741538 C7.74849231,-3.05095385 7.70787692,-2.96049231 7.70787692,-2.85710769 L7.70787692,2.76350769 C7.70787692,3.06627692 7.58418462,3.34043077 7.38572308,3.53889231 C7.18726154,3.73735385 6.91310769,3.86012308 6.61033846,3.86012308 L4.03033846,3.86104615 C3.4248,3.86012308 2.93372308,3.36996923 2.93372308,2.76350769 L2.93372308,-2.85710769 C2.93372308,-3.06849231 2.75926154,-3.22449231 2.56541538,-3.22449231 C2.51741538,-3.22449231 2.46849231,-3.21526154 2.41956923,-3.19495385 C1.55833846,-2.82387692 0.783876923,-2.29310769 0.130338462,-1.64049231 C-1.19704615,-0.313107692 -2.01858462,1.52104615 -2.01950769,3.54627692 C-2.02043077,6.78535385 0.0518769231,9.51950769 2.94941538,10.5007385 L2.94941538,17.3555077 L7.68756923,17.3555077 L7.68756923,20.0610462 L2.94941538,20.0610462 L2.94941538,23.8179692 C1.87587692,24.1835077 0.914953846,24.7918154 0.130338462,25.5764308 C-1.19796923,26.9047385 -2.01950769,28.7388923 -2.01950769,30.7659692 C-2.01950769,33.7899692 -0.189969231,36.3865846 2.42233846,37.5108923 C2.47033846,37.5312 2.51833846,37.5413538 2.56633846,37.5413538 C2.66510769,37.5413538 2.75833846,37.4998154 2.82572308,37.4315077 C2.89126154,37.3668923 2.93372308,37.2755077 2.93372308,37.1712 L2.93372308,31.5515077 C2.93372308,31.2487385 3.05649231,30.9745846 3.25495385,30.7761231 C3.45341538,30.5776615 3.72756923,30.4539692 4.03126154,30.4539692 L6.61033846,30.4539692 C7.21587692,30.4539692 7.70787692,30.9459692 7.70787692,31.5515077 L7.70787692,37.1712 C7.70787692,37.3835077 7.88141538,37.5404308 8.07526154,37.5404308 C8.12418462,37.5404308 8.17310769,37.5302769 8.22110769,37.5090462 C9.08233846,37.1388923 9.85772308,36.6081231 10.5103385,35.9555077 C11.8377231,34.6272 12.6601846,32.7939692 12.6601846,30.7678154 C12.6611077,27.5296615 10.5897231,24.7955077 7.69126154,23.8142769" id="Fill-3" fill="#006811" mask="url(#mask-2)"></path>
                        </g>
                        <g id="Group-11" transform="translate(2.769231, 0.000000)">
                            <g id="Group-8">
                                <mask id="mask-4" fill="white">
                                    <use xlink:href="#path-3"></use>
                                </mask>
                                <g id="Clip-7"></g>
                                <path d="M6.34181538,23.8142769 L6.34181538,10.4970462 C7.41443077,10.1305846 8.37627692,9.5232 9.16089231,8.73858462 C10.4882769,7.41027692 11.3107385,5.57612308 11.3107385,3.54904615 C11.3107385,0.525046154 9.48027692,-2.07156923 6.86796923,-3.19587692 C6.82089231,-3.21618462 6.77196923,-3.22541538 6.72489231,-3.22541538 C6.62612308,-3.22541538 6.53289231,-3.18572308 6.46550769,-3.11741538 C6.39904615,-3.05095385 6.35750769,-2.96049231 6.35750769,-2.85710769 L6.35750769,2.76350769 C6.35750769,3.06627692 6.23473846,3.34043077 6.03535385,3.53889231 C5.83689231,3.73735385 5.56273846,3.86012308 5.25996923,3.86012308 L2.68089231,3.86104615 C2.07535385,3.86012308 1.58427692,3.36996923 1.58427692,2.76350769 L1.58427692,-2.85710769 C1.58427692,-3.06849231 1.40889231,-3.22449231 1.21504615,-3.22449231 C1.16796923,-3.22449231 1.11812308,-3.21526154 1.0692,-3.19495385 C0.208892308,-2.82387692 -0.566492308,-2.29310769 -1.21910769,-1.64049231 C-2.54741538,-0.313107692 -3.36895385,1.52104615 -3.36987692,3.54627692 C-3.36987692,6.78535385 -1.29849231,9.51950769 1.59904615,10.5007385 L1.59904615,17.3555077 L6.33812308,17.3555077 L6.33812308,20.0610462 L1.59904615,20.0610462 L1.59904615,23.8179692 C0.526430769,24.1835077 -0.435415385,24.7918154 -1.21910769,25.5764308 C-2.54833846,26.9047385 -3.36987692,28.7388923 -3.36987692,30.7659692 C-3.36987692,33.7899692 -1.53941538,36.3865846 1.07289231,37.5108923 C1.12089231,37.5312 1.16889231,37.5413538 1.21596923,37.5413538 C1.31473846,37.5413538 1.40796923,37.4998154 1.47627692,37.4315077 C1.54181538,37.3668923 1.58427692,37.2755077 1.58427692,37.1712 L1.58427692,31.5515077 C1.58427692,31.2487385 1.70704615,30.9745846 1.90458462,30.7761231 C2.10304615,30.5776615 2.37812308,30.4539692 2.68089231,30.4539692 L5.25996923,30.4539692 C5.86550769,30.4539692 6.35750769,30.9459692 6.35750769,31.5515077 L6.35750769,37.1712 C6.35750769,37.3835077 6.53104615,37.5404308 6.72581538,37.5404308 C6.77381538,37.5404308 6.82273846,37.5302769 6.87166154,37.5090462 C7.73196923,37.1388923 8.50827692,36.6081231 9.16089231,35.9555077 C10.4882769,34.6272 11.3098154,32.7939692 11.3107385,30.7678154 C11.3116615,27.5296615 9.23935385,24.7955077 6.34181538,23.8142769" id="Fill-6" fill="#006811" mask="url(#mask-4)"></path>
                            </g>
                            <polygon id="Fill-9" fill="#006811" points="6.33821538 20.0606769 6.33821538 17.3560615 1.59913846 17.3560615 1.5936 17.3560615 1.5936 20.0606769 1.59913846 20.0606769"></polygon>
                        </g>
                        <g id="Group-29" transform="translate(2.769231, 2.769231)">
                            <polygon id="Fill-12" fill="#006811" points="4.91843077 17.2914462 4.91843077 14.5868308 0.180276923 14.5868308 0.174738462 14.5868308 0.174738462 17.2914462 0.180276923 17.2914462"></polygon>
                            <g id="Group-16" transform="translate(12.000000, 4.615385)">
                                <mask id="mask-6" fill="white">
                                    <use xlink:href="#path-5"></use>
                                </mask>
                                <g id="Clip-15"></g>
                                <path d="M0.118246154,27.9185538 L0.118246154,2.68624615 C0.118246154,1.58316923 1.01270769,0.688707692 2.11486154,0.688707692 L5.35578462,0.688707692 C6.45886154,0.688707692 7.35332308,1.58316923 7.35332308,2.68624615 L7.35332308,27.9185538 C7.35332308,29.0216308 6.45886154,29.9160923 5.35578462,29.9160923 L2.11486154,29.9160923 C1.01270769,29.9160923 0.118246154,29.0216308 0.118246154,27.9185538" id="Fill-14" fill="#006811" mask="url(#mask-6)"></path>
                            </g>
                            <g id="Group-19" transform="translate(11.076923, 5.538462)">
                                <mask id="mask-8" fill="white">
                                    <use xlink:href="#path-7"></use>
                                </mask>
                                <g id="Clip-18"></g>
                                <path d="M1.31446154,4.77 L8.54953846,1.83830769 C8.92153846,1.68784615 9.10153846,1.26323077 8.95015385,0.890307692 C8.79876923,0.518307692 8.37507692,0.338307692 8.00215385,0.489692308 L0.768,3.42138462 C0.395076923,3.57276923 0.216,3.99646154 0.367384615,4.36938462 C0.404307692,4.46261538 0.458769231,4.54292308 0.526153846,4.61030769 C0.726461538,4.81061538 1.03476923,4.88353846 1.31446154,4.77 M1.31446154,7.58353846 L8.54953846,4.65184615 C8.92153846,4.50046154 9.10153846,4.07676923 8.95015385,3.70384615 C8.79876923,3.33184615 8.37507692,3.15276923 8.00215385,3.30323077 L0.768,6.23492308 C0.395076923,6.38538462 0.216,6.81 0.367384615,7.18292308 C0.404307692,7.27523077 0.458769231,7.35646154 0.526153846,7.42384615 C0.726461538,7.62415385 1.03476923,7.69707692 1.31446154,7.58353846 M1.31446154,10.3970769 L8.54953846,7.46538462 C8.92153846,7.314 9.10153846,6.89030769 8.95015385,6.51830769 C8.79876923,6.14538462 8.37507692,5.96538462 8.00215385,6.11676923 L0.768,9.04846154 C0.395076923,9.19892308 0.216,9.62353846 0.367384615,9.99646154 C0.404307692,10.0896923 0.458769231,10.1709231 0.526153846,10.2373846 C0.726461538,10.4376923 1.03476923,10.5106154 1.31446154,10.3970769 M1.31446154,18.8376923 L8.54953846,15.906 C8.92153846,15.7546154 9.10153846,15.33 8.95015385,14.958 C8.79876923,14.586 8.37507692,14.406 8.00215385,14.5573846 L0.768,17.4890769 C0.395076923,17.6395385 0.216,18.0641538 0.367384615,18.4361538 C0.404307692,18.5293846 0.458769231,18.6106154 0.526153846,18.6770769 C0.726461538,18.8783077 1.03476923,18.9512308 1.31446154,18.8376923 M1.31446154,21.6512308 L8.54953846,18.7195385 C8.92153846,18.5681538 9.10153846,18.1444615 8.95015385,17.7715385 C8.79876923,17.3995385 8.37507692,17.2195385 8.00215385,17.37 L0.768,20.3026154 C0.395076923,20.4530769 0.216,20.8776923 0.367384615,21.2506154 C0.405230769,21.3429231 0.458769231,21.4241538 0.526153846,21.4915385 C0.726461538,21.6918462 1.03476923,21.7647692 1.31446154,21.6512308 M1.31446154,24.4647692 L8.54953846,21.5330769 C8.92153846,21.3816923 9.10153846,20.958 8.95015385,20.5850769 C8.79876923,20.2121538 8.37507692,20.0330769 8.00215385,20.1835385 L0.768,23.1161538 C0.395076923,23.2666154 0.216,23.6912308 0.367384615,24.0632308 C0.404307692,24.1564615 0.458769231,24.2376923 0.526153846,24.3050769 C0.726461538,24.5053846 1.03476923,24.5773846 1.31446154,24.4647692 M0.526153846,27.1176923 C0.458769231,27.0512308 0.404307692,26.97 0.367384615,26.8767692 C0.216,26.5038462 0.395076923,26.0801538 0.768,25.9287692 L8.00215385,22.998 C8.37507692,22.8466154 8.79876923,23.0256923 8.95015385,23.3986154 C9.10153846,23.7706154 8.92153846,24.1952308 8.54953846,24.3466154 L1.31446154,27.2783077 C1.03476923,27.3909231 0.726461538,27.3189231 0.526153846,27.1176923" id="Fill-17" fill="#006811" mask="url(#mask-8)"></path>
                            </g>
                            <g id="Group-22" transform="translate(6.461538, 0.000000)">
                                <mask id="mask-10" fill="white">
                                    <use xlink:href="#path-9"></use>
                                </mask>
                                <g id="Clip-21"></g>
                                <path d="M18.0605538,5.69713846 L18.0605538,2.10913846 C18.0605538,1.00606154 17.1660923,0.1116 16.0630154,0.1116 L2.48455385,0.1116 C1.3824,0.1116 0.487938462,1.00606154 0.487938462,2.10913846 L0.487938462,5.69713846 C0.487938462,6.80021538 1.3824,7.69467692 2.48455385,7.69467692 L16.0630154,7.69467692 C17.1660923,7.69467692 18.0605538,6.80021538 18.0605538,5.69713846 M16.0630154,21.6516 L2.48455385,21.6516 C1.3824,21.6516 0.487938462,20.7571385 0.487938462,19.6549846 L0.487938462,16.0660615 C0.487938462,14.9629846 1.3824,14.0694462 2.48455385,14.0694462 L16.0630154,14.0694462 C17.1660923,14.0694462 18.0605538,14.9629846 18.0605538,16.0660615 L18.0605538,19.6549846 C18.0605538,20.7571385 17.1660923,21.6516 16.0630154,21.6516" id="Fill-20" fill="#006811" mask="url(#mask-10)"></path>
                            </g>
                            <g id="Group-25" transform="translate(6.461538, 0.000000)">
                                <mask id="mask-12" fill="white">
                                    <use xlink:href="#path-11"></use>
                                </mask>
                                <g id="Clip-24"></g>
                                <path d="M4.98609231,0.111784615 L2.48455385,0.111784615 C1.3824,0.111784615 0.487938462,1.00624615 0.487938462,2.10932308 L0.487938462,5.69732308 C0.487938462,6.8004 1.3824,7.69393846 2.48455385,7.69393846 L4.98609231,7.69393846 L4.98609231,0.111784615 Z M4.98609231,21.6508615 L2.48455385,21.6508615 C1.3824,21.6508615 0.487938462,20.7573231 0.487938462,19.6542462 L0.487938462,16.0662462 C0.487938462,14.9631692 1.3824,14.0696308 2.48455385,14.0696308 L4.98609231,14.0696308 L4.98609231,21.6508615 Z" id="Fill-23" fill="#006811" mask="url(#mask-12)"></path>
                            </g>
                            <g id="Group-28" transform="translate(19.384615, 8.307692)">
                                <mask id="mask-14" fill="white">
                                    <use xlink:href="#path-13"></use>
                                </mask>
                                <g id="Clip-27"></g>
                                <path d="M5.13747692,-2.61055385 L5.13747692,-6.19855385 C5.13747692,-7.30163077 4.24301538,-8.19609231 3.13993846,-8.19609231 L0.639323077,-8.19609231 L0.639323077,-0.613015385 L3.13993846,-0.613015385 C4.24301538,-0.613015385 5.13747692,-1.50747692 5.13747692,-2.61055385 M3.13993846,13.3439077 L0.639323077,13.3439077 L0.639323077,5.76175385 L3.13993846,5.76175385 C4.24301538,5.76175385 5.13747692,6.65529231 5.13747692,7.75836923 L5.13747692,11.3472923 C5.13747692,12.4494462 4.24301538,13.3439077 3.13993846,13.3439077" id="Fill-26" fill="#006811" mask="url(#mask-14)"></path>
                            </g>
                        </g>
                    </g>
                    <path d="M38.5810154,23.0600308 C35.3770154,23.0600308 35.5616308,25.6418769 33.8428615,25.6418769 C32.6973231,25.6418769 32.1924,24.4603385 31.9828615,23.6738769 L0.822553846,23.6738769 L0.823476923,24.3892615 C0.823476923,24.3892615 0.5244,28.6455692 3.94716923,28.6455692 C6.10255385,28.6455692 6.23270769,25.7406462 9.07024615,25.7406462 C10.4834769,25.7406462 11.9207077,27.0689538 11.9207077,30.0034154 C11.9207077,32.9369538 10.4834769,34.4111077 9.07024615,34.4101846 C6.23270769,34.4101846 6.10255385,31.5108 3.94716923,31.5108 C0.5244,31.5117231 0.8244,35.6175692 0.8244,35.6175692 L0.817015385,44.2326462 C0.817015385,45.7908 2.06593846,47.0563385 3.60563077,47.0563385 L12.8170154,47.0563385 C12.8170154,47.0563385 17.2680923,47.3535692 17.2671692,43.9308 C17.2671692,41.7735692 14.4582462,41.3748 14.4582462,38.5344923 C14.4582462,37.1221846 16.0247077,35.3766462 18.9619385,35.3766462 C21.8982462,35.3766462 23.6391692,37.1221846 23.6391692,38.5344923 C23.6391692,41.3738769 20.9170154,41.7735692 20.9170154,43.9308 C20.9170154,47.3535692 25.3699385,47.0563385 25.3699385,47.0563385 L29.0539385,47.0563385 C30.5982462,47.0563385 31.8453231,45.7908 31.8453231,44.2326462 L31.8453231,41.0849538 L31.8453231,34.2144923 C31.8453231,34.2144923 32.1268615,31.6317231 33.8428615,31.6317231 C35.5616308,31.6317231 35.3770154,34.3631077 38.5810154,34.3631077 C40.1779385,34.3631077 42.9342462,33.5424923 42.9342462,28.6003385 C42.9342462,23.6526462 40.1779385,23.0600308 38.5810154,23.0600308" id="Fill-31" fill="#95E100"></path>
                    <g id="Group-35" transform="translate(3.692308, 22.370400)">
                        <mask id="mask-16" fill="white">
                            <use xlink:href="#path-15"></use>
                        </mask>
                        <g id="Clip-34"></g>
                        <path d="M41.8902462,-9.45027692 L41.8902462,20.1020308 C41.8902462,21.0158769 41.1416308,21.7635692 40.2277846,21.7635692 L1.85916923,21.7635692 C0.945323077,21.7635692 0.197630769,21.0158769 0.197630769,20.1020308 L0.197630769,-9.45027692 C0.197630769,-10.3641231 0.945323077,-11.1118154 1.85916923,-11.1118154 L40.2277846,-11.1118154 C41.1416308,-11.1118154 41.8902462,-10.3641231 41.8902462,-9.45027692" id="Fill-33" fill="#D9FF1A" mask="url(#mask-16)"></path>
                    </g>
                    <g id="Group-38" transform="translate(0.000000, 0.216554)">
                        <mask id="mask-18" fill="white">
                            <use xlink:href="#path-17"></use>
                        </mask>
                        <g id="Clip-37"></g>
                        <path d="M10.5497538,27.4052308 L10.5497538,14.088 C11.6223692,13.7215385 12.5842154,13.1141538 13.3688308,12.3295385 C14.6971385,11.0012308 15.5186769,9.16707692 15.5186769,7.14 C15.5186769,4.116 13.6882154,1.51938462 11.0759077,0.395076923 C11.0297538,0.374769231 10.9808308,0.365538462 10.9328308,0.365538462 C10.8349846,0.365538462 10.7408308,0.405230769 10.6734462,0.473538462 C10.6069846,0.54 10.5663692,0.630461538 10.5654462,0.733846154 L10.5663692,6.35446154 C10.5654462,6.65723077 10.4426769,6.93138462 10.2442154,7.12984615 C10.0448308,7.32830769 9.77067692,7.45107692 9.46790769,7.45107692 L6.88883077,7.45107692 C6.28329231,7.45107692 5.79221538,6.96 5.79221538,6.35446154 L5.79221538,0.733846154 C5.79221538,0.522461538 5.61775385,0.366461538 5.42298462,0.366461538 C5.37590769,0.366461538 5.32606154,0.375692308 5.27713846,0.396 C4.41683077,0.767076923 3.64144615,1.29784615 2.98883077,1.95046154 C1.66052308,3.27784615 0.838984615,5.112 0.838061538,7.13723077 C0.838061538,10.3763077 2.91036923,13.1104615 5.80698462,14.0916923 L5.80698462,20.9464615 L10.5460615,20.9464615 L10.5460615,23.652 L5.80698462,23.652 L5.80698462,27.4089231 C4.73436923,27.7744615 3.77252308,28.3827692 2.98883077,29.1673846 C1.66052308,30.4956923 0.838061538,32.3298462 0.838061538,34.3569231 C0.838061538,37.3809231 2.66852308,39.9775385 5.28083077,41.1018462 C5.32883077,41.1221538 5.37683077,41.1313846 5.42390769,41.1313846 C5.5236,41.1313846 5.61590769,41.0907692 5.68421538,41.0224615 C5.74975385,40.9578462 5.79221538,40.8664615 5.79221538,40.7621538 L5.79221538,35.1424615 C5.79221538,34.8396923 5.91498462,34.5655385 6.11252308,34.3670769 C6.31190769,34.1676923 6.58606154,34.0449231 6.88883077,34.0449231 L9.46790769,34.0449231 C10.0734462,34.0449231 10.5663692,34.5369231 10.5663692,35.1424615 L10.5663692,40.7621538 C10.5663692,40.9744615 10.7389846,41.1313846 10.9337538,41.1313846 C10.9817538,41.1313846 11.0306769,41.1212308 11.0796,41.1 C11.9399077,40.7298462 12.7162154,40.1990769 13.3688308,39.5464615 C14.6962154,38.2181538 15.5177538,36.3849231 15.5186769,34.3587692 C15.5196,31.1206154 13.4482154,28.3864615 10.5497538,27.4052308" id="Fill-36" fill="#C8C8CC" mask="url(#mask-18)"></path>
                    </g>
                    <g id="Group-45" transform="translate(1.846154, 0.216554)">
                        <g id="Group-41">
                            <mask id="mask-20" fill="white">
                                <use xlink:href="#path-19"></use>
                            </mask>
                            <g id="Clip-40"></g>
                            <path d="M10.1224615,27.4052308 L10.1224615,14.088 C11.196,13.7215385 12.1569231,13.1141538 12.9415385,12.3295385 C14.2698462,11.0012308 15.0913846,9.16707692 15.0913846,7.14 C15.0913846,4.116 13.2618462,1.51938462 10.6495385,0.395076923 C10.6024615,0.374769231 10.5535385,0.365538462 10.5055385,0.365538462 C10.4076923,0.365538462 10.3135385,0.405230769 10.2461538,0.473538462 C10.1796923,0.54 10.1390769,0.630461538 10.1390769,0.733846154 L10.1390769,6.35446154 C10.1390769,6.65723077 10.0163077,6.93138462 9.81692308,7.12984615 C9.61846154,7.32830769 9.34430769,7.45107692 9.04153846,7.45107692 L6.46246154,7.45107692 C5.856,7.45107692 5.36492308,6.96 5.36492308,6.35446154 L5.36492308,0.733846154 C5.36492308,0.522461538 5.19046154,0.366461538 4.99661538,0.366461538 C4.94861538,0.366461538 4.89969231,0.375692308 4.85076923,0.396 C3.98953846,0.767076923 3.21507692,1.29784615 2.56153846,1.95046154 C1.23415385,3.27784615 0.412615385,5.112 0.411692308,7.13723077 C0.410769231,10.3763077 2.48307692,13.1104615 5.38061538,14.0916923 L5.38061538,20.9464615 L10.1196923,20.9464615 L10.1196923,23.652 L5.38061538,23.652 L5.38061538,27.4089231 C4.308,27.7744615 3.34615385,28.3827692 2.56153846,29.1673846 C1.23323077,30.4956923 0.411692308,32.3298462 0.411692308,34.3569231 C0.411692308,37.3809231 2.24123077,39.9775385 4.85353846,41.1018462 C4.90153846,41.1221538 4.94953846,41.1313846 4.99753846,41.1313846 C5.09630769,41.1313846 5.18953846,41.0907692 5.25692308,41.0224615 C5.32338462,40.9578462 5.36492308,40.8664615 5.36492308,40.7621538 L5.36492308,35.1424615 C5.36492308,34.8396923 5.48769231,34.5655385 5.68615385,34.3670769 C5.88461538,34.1676923 6.15969231,34.0449231 6.46246154,34.0449231 L9.04153846,34.0449231 C9.64707692,34.0449231 10.1390769,34.5369231 10.1390769,35.1424615 L10.1390769,40.7621538 C10.1390769,40.9744615 10.3126154,41.1313846 10.5064615,41.1313846 C10.5553846,41.1313846 10.6043077,41.1212308 10.6523077,41.1 C11.5135385,40.7298462 12.2889231,40.1990769 12.9415385,39.5464615 C14.2698462,38.2181538 15.0913846,36.3849231 15.0913846,34.3587692 C15.0923077,31.1206154 13.0209231,28.3864615 10.1224615,27.4052308" id="Fill-39" fill="#F6F6F8" mask="url(#mask-20)"></path>
                        </g>
                        <g id="Group-44" transform="translate(4.615385, 20.307692)">
                            <mask id="mask-22" fill="white">
                                <use xlink:href="#path-21"></use>
                            </mask>
                            <g id="Clip-43"></g>
                            <polygon id="Fill-42" fill="#F6F6F8" mask="url(#mask-22)" points="5.5044 3.34393846 5.5044 0.6384 0.765323077 0.6384 0.759784615 0.6384 0.759784615 3.34393846 0.765323077 3.34393846"></polygon>
                        </g>
                    </g>
                    <g id="Group-64" transform="translate(5.538462, 6.678092)">
                        <g id="Group-48" transform="translate(0.000000, 13.846154)">
                            <mask id="mask-24" fill="white">
                                <use xlink:href="#path-23"></use>
                            </mask>
                            <g id="Clip-47"></g>
                            <polygon id="Fill-46" fill="#737EB3" mask="url(#mask-24)" points="5.00769231 3.34393846 5.00769231 0.6384 0.268615385 0.6384 0.264 0.6384 0.264 3.34393846 0.268615385 3.34393846"></polygon>
                        </g>
                        <g id="Group-51" transform="translate(12.000000, 4.615385)">
                            <mask id="mask-26" fill="white">
                                <use xlink:href="#path-25"></use>
                            </mask>
                            <g id="Clip-50"></g>
                            <path d="M0.206584615,27.8172 L0.206584615,2.58489231 C0.206584615,1.48089231 1.10104615,0.587353846 2.20412308,0.587353846 L5.44504615,0.587353846 C6.5472,0.587353846 7.44166154,1.48181538 7.44166154,2.58489231 L7.44166154,27.8172 C7.44166154,28.9202769 6.5472,29.8138154 5.44504615,29.8138154 L2.20412308,29.8138154 C1.10104615,29.8138154 0.206584615,28.9202769 0.206584615,27.8172" id="Fill-49" fill="#C8C8CC" mask="url(#mask-26)"></path>
                        </g>
                        <g id="Group-54" transform="translate(11.076923, 5.538462)">
                            <mask id="mask-28" fill="white">
                                <use xlink:href="#path-27"></use>
                            </mask>
                            <g id="Clip-53"></g>
                            <path d="M1.40372308,4.66855385 L8.63787692,1.73686154 C9.0108,1.5864 9.1908,1.16178462 9.03849231,0.788861538 C8.88803077,0.416861538 8.46341538,0.236861538 8.09141538,0.388246154 L0.856338462,3.31993846 C0.484338462,3.47132308 0.305261538,3.89501538 0.455723077,4.26701538 C0.493569231,4.36116923 0.548030769,4.44147692 0.615415385,4.50886154 C0.815723077,4.70916923 1.12403077,4.78209231 1.40372308,4.66855385 M1.40372308,7.48209231 L8.63787692,4.5504 C9.0108,4.39901538 9.1908,3.97532308 9.03849231,3.6024 C8.88803077,3.2304 8.46341538,3.05132308 8.09141538,3.20178462 L0.856338462,6.13347692 C0.484338462,6.28393846 0.305261538,6.70855385 0.455723077,7.08055385 C0.493569231,7.17378462 0.548030769,7.25501538 0.615415385,7.3224 C0.815723077,7.52270769 1.12403077,7.59563077 1.40372308,7.48209231 M1.40372308,10.2956308 L8.63787692,7.36393846 C9.0108,7.21255385 9.1908,6.78886154 9.03849231,6.41593846 C8.88803077,6.04393846 8.46341538,5.86393846 8.09141538,6.0144 L0.856338462,8.94701538 C0.484338462,9.09747692 0.305261538,9.52209231 0.455723077,9.89501538 C0.493569231,9.98824615 0.548030769,10.0685538 0.615415385,10.1359385 C0.815723077,10.3362462 1.12403077,10.4091692 1.40372308,10.2956308 M1.40372308,18.7362462 L8.63787692,15.8036308 C9.0108,15.6531692 9.1908,15.2285538 9.03849231,14.8565538 C8.88803077,14.4836308 8.46341538,14.3045538 8.09141538,14.4559385 L0.856338462,17.3867077 C0.484338462,17.5380923 0.305261538,17.9627077 0.455723077,18.3347077 C0.493569231,18.4279385 0.548030769,18.5091692 0.615415385,18.5756308 C0.815723077,18.7768615 1.12403077,18.8488615 1.40372308,18.7362462 M1.40372308,21.5497846 L8.63787692,18.6180923 C9.0108,18.4667077 9.1908,18.0420923 9.03849231,17.6700923 C8.88803077,17.2980923 8.46341538,17.1180923 8.09141538,17.2685538 L0.856338462,20.2011692 C0.484338462,20.3516308 0.305261538,20.7762462 0.455723077,21.1482462 C0.493569231,21.2414769 0.548030769,21.3227077 0.615415385,21.3900923 C0.815723077,21.5904 1.12403077,21.6633231 1.40372308,21.5497846 M1.40372308,24.3633231 L8.63787692,21.4316308 C9.0108,21.2802462 9.1908,20.8565538 9.03849231,20.4836308 C8.88803077,20.1107077 8.46341538,19.9316308 8.09141538,20.0820923 L0.856338462,23.0147077 C0.484338462,23.1651692 0.305261538,23.5897846 0.455723077,23.9617846 C0.493569231,24.0550154 0.548030769,24.1362462 0.615415385,24.2036308 C0.815723077,24.4039385 1.12403077,24.4759385 1.40372308,24.3633231 M0.615415385,27.0162462 C0.548030769,26.9497846 0.493569231,26.8685538 0.455723077,26.7753231 C0.305261538,26.4024 0.484338462,25.9787077 0.856338462,25.8273231 L8.09141538,22.8956308 C8.46341538,22.7451692 8.88803077,22.9242462 9.03849231,23.2971692 C9.1908,23.6691692 9.0108,24.0937846 8.63787692,24.2451692 L1.40372308,27.1768615 C1.12403077,27.2894769 0.815723077,27.2174769 0.615415385,27.0162462" id="Fill-52" fill="#737EB3" mask="url(#mask-28)"></path>
                        </g>
                        <g id="Group-57" transform="translate(6.461538, 0.000000)">
                            <mask id="mask-30" fill="white">
                                <use xlink:href="#path-29"></use>
                            </mask>
                            <g id="Clip-56"></g>
                            <path d="M18.1488923,5.59569231 L18.1488923,2.00769231 C18.1488923,0.904615385 17.2544308,0.0101538462 16.1522769,0.0101538462 L2.57381538,0.0101538462 C1.47073846,0.0101538462 0.576276923,0.904615385 0.576276923,2.00769231 L0.576276923,5.59569231 C0.576276923,6.69876923 1.47073846,7.59323077 2.57381538,7.59230769 L16.1522769,7.59323077 C17.2544308,7.59323077 18.1488923,6.69876923 18.1488923,5.59569231 M16.1522769,21.5501538 L2.57381538,21.5501538 C1.47073846,21.5501538 0.576276923,20.6556923 0.576276923,19.5526154 L0.576276923,15.9646154 C0.576276923,14.8615385 1.47073846,13.968 2.57381538,13.968 L16.1522769,13.968 C17.2544308,13.968 18.1488923,14.8615385 18.1488923,15.9646154 L18.1488923,19.5526154 C18.1488923,20.6556923 17.2544308,21.5501538 16.1522769,21.5501538" id="Fill-55" fill="#C8C8CC" mask="url(#mask-30)"></path>
                        </g>
                        <g id="Group-60" transform="translate(6.461538, 0.000000)">
                            <mask id="mask-32" fill="white">
                                <use xlink:href="#path-31"></use>
                            </mask>
                            <g id="Clip-59"></g>
                            <path d="M5.07443077,0.0103384615 L2.57381538,0.0103384615 C1.47073846,0.0103384615 0.576276923,0.9048 0.576276923,2.00787692 L0.576276923,5.59587692 C0.576276923,6.69895385 1.47073846,7.59249231 2.57381538,7.59249231 L5.07443077,7.59249231 L5.07443077,0.0103384615 Z M5.07443077,21.5494154 L2.57381538,21.5494154 C1.47073846,21.5494154 0.576276923,20.6558769 0.576276923,19.5528 L0.576276923,15.9648 C0.576276923,14.8617231 1.47073846,13.9681846 2.57381538,13.9681846 L5.07443077,13.9681846 L5.07443077,21.5494154 Z" id="Fill-58" fill="#737EB3" mask="url(#mask-32)"></path>
                        </g>
                        <g id="Group-63" transform="translate(19.384615, 0.000000)">
                            <mask id="mask-34" fill="white">
                                <use xlink:href="#path-33"></use>
                            </mask>
                            <g id="Clip-62"></g>
                            <path d="M5.22581538,5.59569231 L5.22581538,2.00769231 C5.22581538,0.904615385 4.33135385,0.0101538462 3.2292,0.0101538462 L0.727661538,0.0101538462 L0.727661538,7.59323077 L3.2292,7.59323077 C4.33135385,7.59323077 5.22581538,6.69876923 5.22581538,5.59569231 M3.2292,21.5501538 L0.727661538,21.5501538 L0.727661538,13.968 L3.2292,13.968 C4.33135385,13.968 5.22581538,14.8615385 5.22581538,15.9646154 L5.22581538,19.5526154 C5.22581538,20.6556923 4.33135385,21.5501538 3.2292,21.5501538" id="Fill-61" fill="#F6F6F8" mask="url(#mask-34)"></path>
                        </g>
                    </g>
                </g>
            </g>
        </g>
    </g>
</svg>
