<svg width="21px" height="24px" viewBox="0 0 21 24" version="1.1" xmlns="http://www.w3.org/2000/svg" xmlns:xlink="http://www.w3.org/1999/xlink">
    <!-- Generator: Sketch 44.1 (41455) - http://www.bohemiancoding.com/sketch -->
    <desc>Created with Sketch.</desc>
    <defs></defs>
    <g id="Symbols" stroke="none" stroke-width="1" fill="none" fill-rule="evenodd">
        <g id="Block/Footer" transform="translate(-61.000000, -91.000000)" fill-rule="nonzero" fill="#FFFFFF">
            <g id="Group-16" transform="translate(48.000000, 79.000000)">
                <g id="Icon/Globe/White" transform="translate(12.000000, 12.000000)">
                    <circle id="Oval" cx="11" cy="10" r="7"></circle>
                    <path d="M22,10 C22,7.4 21.1,4.9 19.4,3 L20.7,1.7 C21.1,1.3 21.1,0.7 20.7,0.3 C20.3,-0.1 19.7,-0.1 19.3,0.3 L18,1.6 C17.7,1.3 17.3,1 16.9,0.8 C16.4,0.5 15.8,0.6 15.5,1.1 C15.2,1.6 15.3,2.2 15.8,2.5 C18.5,4.1 20,6.9 20,10 C20,15 16,19 11,19 C7.9,19 5,17.4 3.4,14.8 C3.1,14.3 2.5,14.2 2,14.5 C1.5,14.8 1.4,15.4 1.7,15.9 C2,16.3 2.2,16.7 2.6,17 L1.3,18.3 C0.9,18.7 0.9,19.3 1.3,19.7 C1.5,19.9 1.7,20 2,20 C2.3,20 2.5,19.9 2.7,19.7 L4,18.4 C5.7,19.8 7.8,20.7 10,20.9 L10,22 L7,22 C6.4,22 6,22.4 6,23 C6,23.6 6.4,24 7,24 L15,24 C15.6,24 16,23.6 16,23 C16,22.4 15.6,22 15,22 L12,22 L12,20.9 C17.6,20.4 22,15.7 22,10 Z" id="Shape"></path>
                </g>
            </g>
        </g>
    </g>
</svg>
