<svg width="16px" height="16px" viewBox="0 0 16 16" version="1.1" xmlns="http://www.w3.org/2000/svg" xmlns:xlink="http://www.w3.org/1999/xlink">
    <!-- Generator: Sketch 46.2 (44496) - http://www.bohemiancoding.com/sketch -->
    <desc>Created with Sketch.</desc>
    <defs></defs>
    <g id="Specs" stroke="none" stroke-width="1" fill="none" fill-rule="evenodd">
        <g id="Header-Revised" transform="translate(-1112.000000, -678.000000)" fill-rule="nonzero" fill="#000000">
            <g id="Group-Copy-11" transform="translate(1100.000000, 670.000000)">
                <g id="Icon/Search/Black" transform="translate(12.000000, 8.000000)">
                    <path d="M10.9234032,9.50890701 C12.737938,6.95888863 12.2955018,3.44377439 9.90564952,1.42294873 C7.51579721,-0.597876924 3.97603357,-0.45005508 1.76298925,1.76298925 C-0.45005508,3.97603357 -0.597876924,7.51579721 1.42294873,9.90564952 C3.44377439,12.2955018 6.95888863,12.737938 9.50890701,10.9234032 L14.3442769,15.758773 C14.7423023,16.0996333 15.3356221,16.0767159 15.706169,15.706169 C16.0767159,15.3356221 16.0996333,14.7423023 15.758773,14.3442769 L10.9234032,9.50890701 Z M6.01781012,10.0405971 C3.8016267,10.0405971 2.00505507,8.24402543 2.00505507,6.02784201 C2.00505507,3.81165859 3.8016267,2.01508696 6.01781012,2.01508696 C8.23399354,2.01508696 10.0305652,3.81165859 10.0305652,6.02784201 C10.0305652,7.09209082 9.60779398,8.11275077 8.85525643,8.86528832 C8.10271888,9.61782587 7.08205893,10.0405971 6.01781012,10.0405971 Z" id="Shape-Copy"></path>
                </g>
            </g>
        </g>
    </g>
</svg>
