<svg xmlns="http://www.w3.org/2000/svg" xmlns:xlink="http://www.w3.org/1999/xlink" width="648.259" height="298.702" viewBox="0 0 648.25861 298.70166">
  <title>
    multitasking-octopus
  </title>
  <defs>
    <path d="M15.166 86.802c.117-.148.183-.343.162-.554l-1.21-11.78c-.065-.634.136-1.236.517-1.695.38-.455.938-.77 1.583-.836l5.487-.547c1.287-.13 2.438.797 2.57 2.067l1.208 11.778c.045.445.448.735.862.696.103-.01.205-.04.302-.096 1.753-.96 3.286-2.235 4.538-3.74 2.538-3.066 3.892-7.08 3.456-11.328-.694-6.788-5.688-12.08-12.063-13.52l-2.863-27.912c2.204-.994 4.12-2.473 5.62-4.284 2.537-3.062 3.89-7.083 3.455-11.328-.65-6.34-5.1-11.394-10.9-13.195-.08-.025-.156-.037-.233-.037-.026 0-.053 0-.08.004-.208.02-.4.126-.528.284-.127.148-.196.348-.175.566l1.208 11.78c.066.633-.138 1.236-.515 1.693-.38.457-.94.774-1.583.836L10.5 16.2c-1.29.13-2.44-.796-2.57-2.068L6.72 2.357c-.045-.444-.45-.737-.862-.696-.102.01-.207.043-.304.098-1.75.958-3.288 2.234-4.535 3.74-.18.217-.353.437-.52.662v18.26c2.2 2.962 5.43 5.09 9.126 5.925l2.864 27.913c-2.203.993-4.12 2.473-5.62 4.28-2.54 3.066-3.89 7.087-3.457 11.333.622 6.05 4.702 10.932 10.115 12.932h1.638z" id="a"/>
    <path id="c" d="M8.027 7.306L7.342.63H.292v6.676z"/>
  </defs>
  <g fill="none" fill-rule="evenodd">
    <path d="M305.12 25.415c15.533 0 15.533-8.38 31.066-8.38 15.536 0 15.536 8.38 31.073 8.38s15.537-8.38 31.074-8.38c15.536 0 15.536 8.38 31.07 8.38 15.54 0 15.54-8.38 31.076-8.38" stroke="#e1e1e6" stroke-width="2" stroke-linecap="round" stroke-linejoin="round"/>
    <path d="M335.192 5.578c7.768 0 11.653 2.096 15.536 4.192 3.884 2.096 7.767 4.192 15.535 4.192 7.77 0 11.655-2.096 15.538-4.192 3.885-2.096 7.77-4.192 15.54-4.192" stroke="#e1e1e6" stroke-linecap="round" stroke-linejoin="round"/>
    <path d="M398.074 29.028c7.768 0 11.65 2.095 15.536 4.19 3.882 2.097 7.767 4.193 15.533 4.193 7.77 0 11.653-2.095 15.536-4.19 3.884-2.097 7.767-4.192 15.534-4.192" stroke="#737eb3" stroke-linecap="round" stroke-linejoin="round"/>
    <path d="M100.5 27.333v139.693c0 2.76 2.396 5.002 5.353 5.002H279.77c2.957 0 5.355-2.242 5.355-5.003V27.333z" fill="#f6f6f8" fill-rule="nonzero"/>
    <path d="M100.5 27.333v139.693c0 2.76 2.396 5.002 5.353 5.002H279.77c2.957 0 5.355-2.242 5.355-5.003V27.333z" stroke="#e1e1e6"/>
    <path d="M285.124 26.5V6.257c0-3.18-2.584-5.756-5.774-5.756H106.275c-3.19 0-5.775 2.577-5.775 5.756v21.079h184.624z" fill="#f6f6f8" fill-rule="nonzero"/>
    <path d="M285.124 26.5V6.257c0-3.18-2.584-5.756-5.774-5.756H106.275c-3.19 0-5.775 2.577-5.775 5.756v21.079h184.624z" stroke="#e1e1e6"/>
    <path d="M112.073 27.627v127.388c0 2.58 2.097 4.673 4.683 4.673H268.87c2.584 0 4.68-2.092 4.68-4.673V27.627z" fill="#f6f6f8" fill-rule="nonzero"/>
    <path d="M112.073 27.627v127.388c0 2.58 2.097 4.673 4.683 4.673H268.87c2.584 0 4.68-2.092 4.68-4.673V27.627z" stroke="#e1e1e6"/>
    <path d="M115.61 10.096c2.153 0 3.9 1.74 3.9 3.888 0 2.148-1.747 3.89-3.9 3.89-2.152 0-3.898-1.742-3.898-3.89 0-2.15 1.746-3.888 3.9-3.888M128.19 10.096c2.15 0 3.897 1.74 3.897 3.888 0 2.148-1.746 3.89-3.898 3.89-2.154 0-3.9-1.742-3.9-3.89 0-2.15 1.746-3.888 3.9-3.888M236.302 18.38h-86.98c-2.33 0-4.22-1.884-4.22-4.207v-.376c0-2.325 1.89-4.208 4.22-4.208h86.98c2.33 0 4.22 1.882 4.22 4.207v.376c0 2.323-1.89 4.207-4.22 4.207M257.436 10.096c2.153 0 3.898 1.74 3.898 3.888 0 2.148-1.745 3.89-3.898 3.89s-3.9-1.742-3.9-3.89c0-2.15 1.747-3.888 3.9-3.888M270.014 10.096c2.152 0 3.898 1.74 3.898 3.888 0 2.148-1.746 3.89-3.898 3.89-2.155 0-3.9-1.742-3.9-3.89 0-2.15 1.745-3.888 3.9-3.888" fill="#e1e1e6" fill-rule="nonzero"/>
    <path d="M367.36 118.996c15.54 0 15.54 8.382 31.076 8.382 15.54 0 15.54-8.382 31.08-8.382 15.535 0 15.535 8.382 31.07 8.382 15.542 0 15.542-8.382 31.08-8.382 15.545 0 15.545 8.382 31.084 8.382 15.543 0 15.543-8.382 31.09-8.382 15.54 0 15.54 8.382 31.084 8.382" stroke="#e1e1e6" stroke-width="2" stroke-linecap="round" stroke-linejoin="round"/>
    <path d="M430.19 108.085c7.767 0 11.652 2.096 15.537 4.192 3.885 2.096 7.77 4.192 15.537 4.192 7.77 0 11.655-2.097 15.54-4.193 3.885-2.096 7.77-4.192 15.54-4.192 7.767 0 11.65 2.096 15.535 4.192 3.882 2.096 7.765 4.192 15.532 4.192 7.772 0 11.657-2.097 15.542-4.193 3.885-2.096 7.77-4.192 15.54-4.192s11.656 2.096 15.543 4.192c3.885 2.096 7.77 4.192 15.54 4.192 7.773 0 11.658-2.097 15.544-4.193 3.886-2.096 7.77-4.192 15.545-4.192 7.77 0 11.658 2.096 15.543 4.192 3.887 2.096 7.772 4.192 15.543 4.192" stroke="#e1e1e6" stroke-linecap="round" stroke-linejoin="round"/>
    <path d="M369.716 49.966v139.69c0 2.76 2.398 5.002 5.355 5.002h173.917c2.958 0 5.354-2.24 5.354-5.003V49.967z" fill="#f6f6f8" fill-rule="nonzero"/>
    <path d="M369.716 49.966v139.69c0 2.76 2.398 5.002 5.355 5.002h173.917c2.958 0 5.354-2.24 5.354-5.003V49.967z" stroke="#e1e1e6"/>
    <path d="M554.342 49.132V28.887c0-3.18-2.585-5.756-5.775-5.756H375.492c-3.19 0-5.775 2.578-5.775 5.757v21.079h184.625z" fill="#f6f6f8" fill-rule="nonzero"/>
    <path d="M554.342 49.132V28.887c0-3.18-2.585-5.756-5.775-5.756H375.492c-3.19 0-5.775 2.578-5.775 5.757v21.079h184.625z" stroke="#e1e1e6"/>
    <path d="M381.29 50.257v127.388c0 2.58 2.097 4.673 4.684 4.673h152.11c2.587 0 4.684-2.092 4.684-4.673V50.257z" fill="#f6f6f8" fill-rule="nonzero"/>
    <path d="M381.29 50.257v127.388c0 2.58 2.097 4.673 4.684 4.673h152.11c2.587 0 4.684-2.092 4.684-4.673V50.257z" stroke="#e1e1e6"/>
    <path d="M384.828 32.727c2.153 0 3.898 1.74 3.898 3.89 0 2.146-1.745 3.886-3.898 3.886s-3.9-1.74-3.9-3.887c0-2.15 1.747-3.89 3.9-3.89M397.406 32.727c2.152 0 3.898 1.74 3.898 3.89 0 2.146-1.746 3.886-3.898 3.886-2.155 0-3.9-1.74-3.9-3.887 0-2.15 1.745-3.89 3.9-3.89M505.518 41.01H418.54c-2.33 0-4.22-1.884-4.22-4.207v-.376c0-2.325 1.89-4.207 4.22-4.207h86.978c2.33 0 4.222 1.882 4.222 4.207v.376c0 2.323-1.892 4.208-4.222 4.208M526.652 32.727c2.153 0 3.9 1.74 3.9 3.89 0 2.146-1.747 3.886-3.9 3.886-2.153 0-3.9-1.74-3.9-3.887 0-2.15 1.747-3.89 3.9-3.89M539.23 32.727c2.154 0 3.9 1.74 3.9 3.89 0 2.146-1.746 3.886-3.9 3.886s-3.9-1.74-3.9-3.887c0-2.15 1.746-3.89 3.9-3.89M488.448 147.83V126.768s.592-5.43 4.212-5.43c3.62 0 3.235 5.745 9.988 5.745 3.37-.002 9.18-1.726 9.18-12.118 0-10.4-5.81-11.646-9.18-11.646-6.753 0-6.368 5.426-9.988 5.426-3.618 0-4.212-5.583-4.212-5.583v-8.64c0-3.28-2.632-5.938-5.888-5.938h-15.578s-5.135-.884-5.135-4.498c0-3.61 5.602-3.848 5.602-10.58 0-3.356-1.883-8.685-12.308-8.685-10.428 0-11.837 5.328-11.837 8.685 0 6.73 5.13 6.967 5.128 10.58.002 3.613-5.128 4.497-5.128 4.497h-14.4c-1.97 0-3.7.984-4.768 2.48-.694.977-1.115 2.165-1.115 3.457l.016 11.593s-.633 8.946 6.586 8.946c4.545 0 4.82-6.108 10.8-6.106 2.98-.002 6.01 2.79 6.01 8.962 0 6.167-3.03 9.265-6.01 9.265-5.98 0-6.255-6.095-10.8-6.095-7.22 0-6.586 8.634-6.586 8.634l-.016 18.11c0 3.277 2.634 5.938 5.88 5.938h19.424s9.384.625 9.384-6.57c0-4.537-5.923-5.377-5.923-11.348 0-2.968 3.303-6.64 9.494-6.64 6.194 0 9.865 3.672 9.865 6.64 0 5.97-5.742 6.81-5.742 11.347 0 7.196 9.39 6.57 9.39 6.57h7.767c3.256 0 5.888-2.66 5.888-5.936" fill="#e1e1e6" fill-rule="nonzero"/>
    <path d="M215.614 287.694c0-6.08 52.17-11.01 116.526-11.01 64.357 0 116.53 4.93 116.53 11.01s-52.173 11.008-116.53 11.008c-64.355 0-116.526-4.928-116.526-11.008" fill="#ededf2" fill-rule="nonzero"/>
    <path d="M164.503 242.138c15.533 0 15.533 8.38 31.07 8.38 15.534 0 15.534-8.38 31.07-8.38 15.535 0 15.535 8.38 31.073 8.38 15.537 0 15.537-8.38 31.073-8.38 15.533 0 15.533 8.38 31.066 8.38 15.538 0 15.538-8.38 31.073-8.38 15.533 0 15.533 8.38 31.067 8.38" stroke="#e1e1e6" stroke-width="2" stroke-linecap="round" stroke-linejoin="round"/>
    <path d="M227.838 229.442c7.768 0 11.65 2.096 15.534 4.192 3.885 2.096 7.768 4.19 15.535 4.19 7.768 0 11.653-2.094 15.536-4.19 3.883-2.096 7.768-4.192 15.535-4.192 7.768 0 11.653 2.096 15.536 4.192 3.885 2.096 7.768 4.19 15.538 4.19 7.767 0 11.65-2.094 15.537-4.19 3.882-2.096 7.767-4.192 15.535-4.192" stroke="#e1e1e6" stroke-linecap="round" stroke-linejoin="round"/>
    <path d="M450.643 92.198c-1.028-2.696-4.05-4.048-6.754-3.024l-.758.288-.446.168c-.29.113-.733.27-1.29.505l-2.06.868c-.404.178-.842.36-1.303.572-.456.22-.94.452-1.452.7-2.04 1.006-4.538 2.27-7.253 4.05-2.735 1.757-5.79 3.95-8.823 6.908-3.023 2.946-6.07 6.664-8.505 11.28-2.438 4.596-4.192 10.083-4.826 15.825-.09.736-.142 1.554-.205 2.34l-.073 1.004-.052.89-.027.44-.002.06c.027.46.006.155.01.27l-.003.096-.008.192-.03.773c-.024.514-.022 1.034-.07 1.54-.116 2.054-.384 4.068-.704 6.026-.617 3.92-1.832 7.54-3.354 10.487-.773 1.47-1.654 2.757-2.592 3.832-.937 1.078-1.93 1.923-2.897 2.645-1.96 1.403-3.93 2.19-6.04 2.602-1.056.163-2.15.35-3.255.262-1.098-.067-2.24-.16-3.334-.48-2.207-.577-4.317-1.693-6.065-3.2-.878-.748-1.67-1.582-2.378-2.463-.707-.88-1.3-1.822-1.844-2.746-.236-.482-.518-.925-.73-1.398-.108-.235-.232-.462-.355-.684l-.33-.677c-.115-.222-.238-.436-.345-.655-.097-.223-.21-.436-.32-.646-.22-.422-.43-.836-.628-1.237-.43-.788-.773-1.55-1.154-2.193-.148-.282-.317-.546-.47-.794-.178-2.152-.318-4.42-.414-6.812 10.475-2.56 18.25-11.985 18.25-23.222 0-7.49-3.456-14.173-8.863-18.557.064-1.013.1-2.03.1-3.058 0-27.168-22.088-49.192-49.335-49.192-27.246 0-49.335 22.024-49.335 49.192 0 1.027.035 2.045.1 3.058-5.408 4.384-8.864 11.068-8.864 18.557 0 11.252 7.793 20.686 18.29 23.236-.293 9.664-1.097 17.81-2.416 24.77-1.176 1.115-2.542 2.13-4.09 2.983-.895.5-1.852.908-2.853 1.284-1.002.363-2.057.64-3.15.874.52.008.124.004.23.006l-.038.006-.075.008-.152.017-.3.03-.6.065-.544.062-.32.047-.325.053c-.106.02-.218.04-.368.045l-.845.054c-1.123.033-2.267.023-3.402-.11-2.27-.245-4.533-.833-6.64-1.736-1.058-.446-2.084-.96-3.047-1.55-.98-.573-1.886-1.23-2.754-1.906-1.712-1.38-3.212-2.91-4.415-4.496-1.21-1.582-2.157-3.19-2.88-4.693-.73-1.5-1.215-2.898-1.564-4.072-.082-.297-.164-.577-.24-.84-.064-.267-.123-.517-.177-.752-.11-.468-.205-.87-.253-1.197-.12-.663-.18-1.014-.18-1.014l-.054-.295c-.28-1.57-1.582-2.83-3.254-2.99-2.015-.192-3.8 1.28-3.996 3.286l-.123 1.277c-.046.42-.074.933-.095 1.544l-.04.988c.005.352.007.726.01 1.122.024 1.584.145 3.528.546 5.744.39 2.218 1.04 4.713 2.09 7.35 1.04 2.636 2.51 5.39 4.436 8.113.975 1.35 2.05 2.703 3.268 3.992 1.205 1.306 2.544 2.554 3.998 3.735 2.898 2.374 6.292 4.44 10.04 6.01 1.875.79 3.84 1.42 5.86 1.95l1.525.354c.155.04.326.072.503.105-1.062 1.002-2.098 2.033-3.098 3.083-1.985 2.067-3.89 4.21-5.75 6.365-3.723 4.31-7.32 8.685-10.98 12.514-1.826 1.917-3.666 3.697-5.507 5.238-1.84 1.55-3.682 2.858-5.502 3.885-.91.524-1.816.94-2.717 1.325-.9.355-1.796.666-2.685.887-1.777.464-3.543.613-5.242.57-1.697-.05-3.318-.325-4.77-.684-1.46-.346-2.733-.833-3.794-1.23-1.05-.44-1.887-.804-2.443-1.093-.565-.272-.866-.42-.866-.42l-.295-.145c-1.87-.908-4.187-.503-5.627 1.13-1.726 1.958-1.536 4.94.428 6.664l.882.77c.566.515 1.442 1.23 2.596 2.124 1.184.864 2.638 1.923 4.494 2.956 1.847 1.046 4.068 2.11 6.7 2.952 2.625.834 5.67 1.453 8.947 1.56 1.64.064 3.32-.01 5.027-.173 1.692-.195 3.418-.47 5.107-.878 3.39-.803 6.703-2.01 9.83-3.44 3.138-1.42 6.106-3.06 8.924-4.757 5.633-3.402 10.682-7.03 15.187-10.063 2.253-1.525 4.357-2.9 6.278-4.044 1.65-.994 3.138-1.778 4.455-2.39-.91 4.136-1.418 8.25-1.627 12.225-.12 2.12-.16 4.194-.142 6.232l.02 1.52.013.756.012.378c.007-.055-.015.192.015-.113v.135l-.004.176-.03 2.58c.005.697-.022 1.505-.047 2.293-.037.78-.07 1.567-.127 2.333-.09 1.55-.257 3.063-.44 4.543-.192 1.48-.42 2.93-.712 4.32-.282 1.398-.6 2.752-.983 4.047-.388 1.29-.81 2.53-1.27 3.718-.463 1.19-.996 2.295-1.543 3.362-.55 1.066-1.147 2.065-1.783 2.993-.63.94-1.29 1.82-1.98 2.623-.696.798-1.395 1.56-2.117 2.24-.72.677-1.446 1.294-2.16 1.853-1.433 1.106-2.813 1.977-3.993 2.62-1.177.647-2.148 1.082-2.777 1.356-.63.28-.91.388-.75.388-3.018 0-5.463 2.437-5.463 5.444 0 3.006 2.445 5.443 5.462 5.443.317-.016 2.63.496 6.666.25 2.012-.13 4.457-.45 7.21-1.192 1.38-.36 2.835-.83 4.334-1.436 1.5-.606 3.065-1.314 4.628-2.193 1.565-.874 3.157-1.88 4.722-3.032 1.56-1.165 3.096-2.467 4.585-3.895 1.492-1.43 2.897-3.01 4.242-4.68 1.347-1.67 2.605-3.452 3.753-5.32 2.316-3.723 4.28-7.754 5.81-11.907.776-2.076 1.463-4.186 2.06-6.3.312-1.06.565-2.12.836-3.186.248-1.06.507-2.105.725-3.27l.588-2.996.033-.17.015-.088.01-.043c.034-.332.015-.114.025-.2l.077-.32.148-.638.3-1.268c.405-1.67.802-3.283 1.224-4.81.837-3.07 1.733-5.817 2.676-8.163.48-1.16.94-2.234 1.39-3.218.46-.966.903-1.847 1.33-2.657.67-1.212 1.284-2.27 1.903-3.222.617.953 1.232 2.01 1.904 3.22.424.81.868 1.69 1.33 2.658.45.984.906 2.057 1.39 3.218.942 2.346 1.838 5.092 2.675 8.162.42 1.528.817 3.14 1.224 4.81l.298 1.27.15.637.076.32c.01.086-.008-.132.025.2l.01.043.015.087.034.17.585 2.997c.22 1.165.478 2.207.725 3.27.27 1.066.524 2.125.837 3.185.594 2.115 1.28 4.225 2.06 6.3 1.53 4.154 3.493 8.185 5.807 11.91 1.148 1.866 2.407 3.648 3.754 5.32 1.345 1.67 2.748 3.25 4.24 4.678 1.488 1.43 3.027 2.73 4.584 3.895 1.567 1.152 3.157 2.158 4.724 3.03 1.563.88 3.128 1.588 4.628 2.194 1.5.605 2.955 1.075 4.333 1.436 2.754.743 5.2 1.062 7.21 1.192 4.036.246 6.348-.266 6.667-.25 3.015 0 5.46-2.436 5.46-5.442 0-3.007-2.445-5.444-5.46-5.444.16 0-.122-.107-.753-.388-.63-.274-1.6-.71-2.777-1.357-1.178-.643-2.558-1.514-3.99-2.62-.715-.558-1.44-1.175-2.163-1.852-.722-.68-1.42-1.44-2.115-2.24-.693-.805-1.35-1.684-1.98-2.623-.636-.928-1.234-1.927-1.785-2.993-.544-1.067-1.08-2.173-1.543-3.36-.46-1.19-.882-2.43-1.27-3.72-.382-1.294-.7-2.648-.982-4.046-.294-1.39-.52-2.84-.714-4.32-.183-1.48-.35-2.992-.438-4.543-.055-.766-.09-1.554-.127-2.334-.025-.79-.052-1.597-.048-2.293l-.03-2.58-.003-.178v-.09l-.002-.045c.033.303.01.058.017.113l.012-.377.012-.754.02-1.52c.017-2.04-.02-4.114-.142-6.233-.22-4.225-.775-8.605-1.797-12.998-.052-.22-.113-.437-.167-.654.37-.023.75-.044 1.152-.06 1.267-.044 2.674-.015 4.206.113 1.528.132 3.17.386 4.917.83 1.743.443 3.597 1.054 5.534 1.943.97.427 1.958.947 2.97 1.494 1.008.575 2.04 1.186 3.085 1.875 2.09 1.37 4.246 2.98 6.473 4.763 2.232 1.78 4.533 3.73 7.012 5.728 2.474 1.992 5.154 4.053 8.23 5.883 3.043 1.823 6.677 3.383 10.435 3.967 1.867.29 3.728.37 5.458.22 1.724-.154 3.336-.453 4.765-.88 2.892-.832 5.128-2.02 6.98-3.107 1.844-1.104 3.27-2.177 4.42-3.062 1.132-.904 1.988-1.624 2.545-2.133l.866-.766c1.56-1.387 2.067-3.692 1.088-5.645-1.17-2.334-4.017-3.283-6.36-2.115l-.22.11-.89.445c-.576.3-1.43.69-2.505 1.162-1.078.443-2.384.963-3.834 1.363-1.444.388-3.044.708-4.545.67-1.516-.016-2.847-.33-4.046-.99-1.205-.65-2.433-1.635-3.838-3.14-1.398-1.487-2.897-3.402-4.49-5.597-1.595-2.19-3.29-4.625-5.145-7.148-1.856-2.52-3.882-5.127-6.128-7.67-1.12-1.274-2.31-2.524-3.532-3.747-1.244-1.213-2.513-2.404-3.854-3.524-1.14-.974-2.326-1.892-3.53-2.77.2-.015.4-.027.6-.044 1.776-.18 3.563-.46 5.328-.904 1.775-.408 3.513-1.015 5.218-1.714 3.385-1.438 6.616-3.357 9.444-5.702 2.83-2.34 5.332-5.03 7.364-7.935 2.027-2.907 3.644-5.98 4.907-9.08 2.52-6.215 3.675-12.48 4.076-18.392.18-2.958.175-5.855.025-8.654-.02-.707-.09-1.39-.14-2.083-.043-.573-.088-1.14-.134-1.71l-.07-.88-.038-.438c-.006-.086-.008-.133-.008-.166l-.004-.126c-.006-.34-.038-.628-.044-1.013-.047-3.256.334-6.223 1.206-9.012.43-1.396 1-2.73 1.614-4.043.62-1.313 1.33-2.58 2.104-3.792.763-1.216 1.627-2.354 2.468-3.462.84-1.108 1.715-2.146 2.58-3.117 1.74-1.933 3.38-3.637 4.81-5.015 1.434-1.368 2.59-2.486 3.392-3.228.814-.74 1.248-1.137 1.248-1.137 1.52-1.405 2.13-3.65 1.35-5.702" fill="#67f84a" fill-rule="nonzero"/>
    <path d="M264.855 280.777c-.066-5.36 6.433-6.777 11.725-8.83 8.758-3.396 13.597-12.714 14.245-30.673.648-17.96.092-21.842 3.428-40.135s21.682-69.288 21.682-69.288l35.576 64.853s-23.347-9.977-32.24 6.098c-6.34 11.455-5.003 45.452-12.787 58.202-7.46 12.22-16.084 19.987-30.02 21.617-9.967 1.167-11.608-1.845-11.608-1.845" fill="#a5f894" fill-rule="nonzero"/>
    <path d="M264.855 280.777c-.066-5.36 6.433-6.777 11.725-8.83 8.758-3.396 13.597-12.714 14.245-30.673.648-17.96.092-21.842 3.428-40.135s21.682-69.288 21.682-69.288l35.576 64.853s-23.347-9.977-32.24 6.098c-6.34 11.455-5.003 45.452-12.787 58.202-7.46 12.22-16.084 19.987-30.02 21.617-9.967 1.167-11.608-1.845-11.608-1.845z" stroke="#a5f894"/>
    <path d="M374.862 113.282c0 24.338-19.79 44.067-44.198 44.067s-44.195-19.73-44.195-44.068c0-24.338 19.786-44.067 44.194-44.067 24.41 0 44.198 19.73 44.198 44.067" fill="#a5f894" fill-rule="nonzero"/>
    <path d="M329.543 113.547c0 13.77-11.195 24.934-25.006 24.934-13.81 0-25.005-11.162-25.005-24.933 0-13.77 11.196-24.934 25.005-24.934 13.81 0 25.006 11.165 25.006 24.934" fill="#a5f894" fill-rule="nonzero"/>
    <path d="M372.293 90.9c0 23.534-19.136 42.613-42.74 42.613-23.603 0-42.737-19.08-42.737-42.613 0-23.537 19.134-42.616 42.737-42.616 23.604 0 42.74 19.08 42.74 42.616" fill="#a5f894" fill-rule="nonzero"/>
    <path d="M382.275 112.994c0 13.77-11.195 24.934-25.006 24.934-13.81 0-25.006-11.163-25.006-24.934 0-13.77 11.196-24.934 25.005-24.934 13.81 0 25.005 11.165 25.005 24.934" fill="#a5f894" fill-rule="nonzero"/>
    <path d="M305.358 107.077c1.16 0 2.105.94 2.105 2.1v4.704c0 1.16-.944 2.1-2.105 2.1-1.162 0-2.106-.94-2.106-2.1v-4.703c-.008-1.16.936-2.1 2.106-2.1M357.642 107.077c1.162 0 2.106.94 2.106 2.1v4.704c0 1.16-.944 2.1-2.106 2.1s-2.106-.94-2.106-2.1v-4.703c0-1.16.936-2.1 2.106-2.1" fill="#535a80" fill-rule="nonzero"/>
    <path d="M363.32 92.507s-1.893-2.91-5.68-2.91c-3.782 0-5.674 2.91-5.674 2.91M311.034 102.22s-1.892-2.91-5.677-2.91c-3.784 0-5.676 2.91-5.676 2.91" stroke="#48d92b" stroke-width="2" stroke-linecap="round" stroke-linejoin="round"/>
    <path d="M297.588 136.84s-2.958 16.728-7.226 24.39c-2.782 4.99-9.755 11.01-19.76 8.793-11.397-2.525-21.228-11.12-21.3-18.456-.08-8.075-7.22-11.068-8.375-.98-1.156 10.087 13.56 35.04 38.872 35.586 25.572.555 36.69-12.193 45.03-38.247 8.337-26.053-27.242-11.087-27.242-11.087" fill="#a5f894" fill-rule="nonzero"/>
    <path d="M297.588 136.84s-2.958 16.728-7.226 24.39c-2.782 4.99-9.755 11.01-19.76 8.793-11.397-2.525-21.228-11.12-21.3-18.456-.08-8.075-7.22-11.068-8.375-.98-1.156 10.087 13.56 35.04 38.872 35.586 25.572.555 36.69-12.193 45.03-38.247 8.337-26.053-27.242-11.087-27.242-11.087z" stroke="#a5f894"/>
    <path d="M323.16 195.598s5.333-3.406 11.675 2.216c5.004 4.434 9.867 20.765 12.3 37.746 2.276 15.877 11.05 33.76 21.61 39.302 10.565 5.543 25.08 9.056 25.604 5.916.525-3.144-.838-4.177-10.038-10.348-9.2-6.175-15.55-11.24-16.113-36.94-.566-25.7 1.66-47.87-7.793-68.933-9.45-21.066-27.795-22.728-27.795-22.728z" fill="#a5f894" fill-rule="nonzero"/>
    <path d="M323.16 195.598s5.333-3.406 11.675 2.216c5.004 4.434 9.867 20.765 12.3 37.746 2.276 15.877 11.05 33.76 21.61 39.302 10.565 5.543 25.08 9.056 25.604 5.916.525-3.144-.838-4.177-10.038-10.348-9.2-6.175-15.55-11.24-16.113-36.94-.566-25.7 1.66-47.87-7.793-68.933-9.45-21.066-27.795-22.728-27.795-22.728z" stroke="#a5f894"/>
    <path d="M364.854 133.513s-1.11 11.642 1.112 17.183c2.224 5.544 8.564 14.21 21.906 13.1 13.342-1.107 17.174-12.547 18.842-25.852 1.668-13.302 1.503-16.07 5.95-26.048 4.447-9.977 25.016-23.282 32.245-24.39 7.225-1.107 7.02 2.177 5.732 4.692-1.286 2.515-14.073 4.73-19.632 14.155-5.56 9.422-6.672 13.302-6.672 21.062 0 7.76.65 26.636-6.162 36.825-6.79 10.155-18.298 19.162-41.09 18.054-20.576-1.002-42.806-9.98-50.59-21.62-7.783-11.64 17.79-28.822 17.79-28.822z" fill="#a5f894" fill-rule="nonzero"/>
    <path d="M364.854 133.513s-1.11 11.642 1.112 17.183c2.224 5.544 8.564 14.21 21.906 13.1 13.342-1.107 17.174-12.547 18.842-25.852 1.668-13.302 1.503-16.07 5.95-26.048 4.447-9.977 25.016-23.282 32.245-24.39 7.225-1.107 7.02 2.177 5.732 4.692-1.286 2.515-14.073 4.73-19.632 14.155-5.56 9.422-6.672 13.302-6.672 21.062 0 7.76.65 26.636-6.162 36.825-6.79 10.155-18.298 19.162-41.09 18.054-20.576-1.002-42.806-9.98-50.59-21.62-7.783-11.64 17.79-28.822 17.79-28.822z" stroke="#a5f894"/>
    <path d="M394.32 191.163l-13.9 1.108s17.233 19.957 24.462 26.608c7.227 6.652 17.79 12.193 28.352 7.76 10.563-4.434 13.027-4.143 13.027-4.143s-.243-1.72-7.467-1.56c-7.227.16-18.9-.947-28.352-14.806-9.45-13.86-16.12-14.967-16.12-14.967" fill="#a5f894" fill-rule="nonzero"/>
    <path d="M394.32 191.163l-13.9 1.108s17.233 19.957 24.462 26.608c7.227 6.652 17.79 12.193 28.352 7.76 10.563-4.434 13.027-4.143 13.027-4.143s-.243-1.72-7.467-1.56c-7.227.16-18.9-.947-28.352-14.806-9.45-13.86-16.12-14.967-16.12-14.967z" stroke="#a5f894" stroke-linecap="round" stroke-linejoin="round"/>
    <path d="M218.884 125.513V104.45s.592-5.43 4.212-5.43c3.622 0 3.234 5.744 9.988 5.744 3.37-.002 9.18-1.725 9.18-12.118 0-10.4-5.81-11.646-9.18-11.646-6.754 0-6.366 5.426-9.988 5.426-3.62 0-4.212-5.583-4.212-5.583V72.2c0-3.277-2.632-5.935-5.888-5.935h-15.578s-5.135-.885-5.135-4.5c0-3.608 5.602-3.847 5.602-10.577 0-3.358-1.882-8.687-12.31-8.687-10.425 0-11.836 5.33-11.836 8.688 0 6.73 5.13 6.967 5.13 10.578 0 3.614-5.13 4.5-5.13 4.5h-14.4c-1.968 0-3.698.983-4.767 2.48-.694.975-1.115 2.163-1.115 3.455l.016 11.595s-.633 8.946 6.586 8.946c4.545 0 4.817-6.106 10.802-6.104 2.978-.002 6.008 2.79 6.008 8.962 0 6.167-3.03 9.265-6.008 9.265-5.983 0-6.257-6.096-10.802-6.096-7.22 0-6.586 8.634-6.586 8.634l-.016 18.113c0 3.276 2.634 5.937 5.882 5.937h19.42s9.386.625 9.386-6.57c0-4.536-5.923-5.377-5.923-11.348 0-2.968 3.303-6.64 9.494-6.64 6.19 0 9.864 3.672 9.864 6.64 0 5.97-5.74 6.812-5.74 11.347 0 7.195 9.39 6.57 9.39 6.57h7.766c3.256 0 5.888-2.66 5.888-5.937" fill="#e1e1e6" fill-rule="nonzero"/>
    <path d="M273.127 191.163l8.895 3.326s1.668 2.77-6.115 10.53c-7.782 7.76-20.013 21.063-32.8 22.17-12.785 1.11-29.218-5.716-29.218-5.716s1.422-4.26 5.312-3.705c3.893.552 14.56 6.177 23.123 3.365 8.565-2.813 16.633-14.204 30.802-29.972" fill="#a5f894" fill-rule="nonzero"/>
    <path d="M273.127 191.163l8.895 3.326s1.668 2.77-6.115 10.53c-7.782 7.76-20.013 21.063-32.8 22.17-12.785 1.11-29.218-5.716-29.218-5.716s1.422-4.26 5.312-3.705c3.893.552 14.56 6.177 23.123 3.365 8.565-2.813 16.633-14.204 30.802-29.972z" stroke="#a5f894" stroke-linecap="round" stroke-linejoin="round"/>
    <path d="M431.337 131.8c-.004-.175-.013-.338-.023-.507-.01-.155-.018-.314-.022-.497-.046-3.186.333-6.012 1.164-8.64.456-1.47 1.075-2.848 1.565-3.887.566-1.194 1.253-2.425 2.05-3.66.734-1.16 1.58-2.267 2.42-3.366.732-.962 1.56-1.956 2.524-3.03 1.663-1.827 3.31-3.53 4.76-4.92l1.272-1.206c.853-.81 1.56-1.483 2.106-1.98l1.25-1.133c1.773-1.626 2.413-4.062 1.716-6.31.804-1.75.85-3.248.064-4.327-1.062-1.45-3.345-1.886-6.973-1.33-7.183 1.09-28.346 14.428-32.986 24.756-1.7 3.783-2.736 6.525-3.456 9.193-1.018 3.033-1.758 6.187-2.114 9.378-.068.564-.115 1.18-.162 1.787l-.2 3.08.012.198-.063 1.57c-.007.3-.018.6-.047.93-1.546 12.216-4.792 23.658-17.893 24.774-.998-.06-2.053-.144-3.065-.437-2.07-.54-4.033-1.566-5.68-2.975-.79-.665-1.547-1.448-2.25-2.31-.574-.713-1.117-1.52-1.73-2.55-.11-.222-.228-.434-.346-.646-.132-.236-.262-.47-.375-.72-.12-.256-.255-.502-.366-.696l-.474-.943c-.068-.127-.136-.25-.185-.348-.098-.22-.207-.435-.35-.7-.215-.413-.422-.816-.634-1.24-.18-.33-.344-.65-.502-.958-.226-.445-.442-.866-.642-1.2-.107-.205-.224-.4-.384-.655-.15-1.81-.27-3.727-.36-5.716 10.767-2.97 18.218-12.633 18.218-23.768 0-7.293-3.213-14.132-8.834-18.84.044-.862.07-1.727.07-2.603 0-27.44-22.568-49.76-50.31-49.76-27.738 0-50.306 22.32-50.306 49.76 0 .875.026 1.74.07 2.602-5.62 4.708-8.834 11.547-8.834 18.84 0 11.16 7.47 20.833 18.264 23.787-.3 9.03-1.06 16.675-2.316 23.347-1.107 1.007-2.34 1.882-3.67 2.606-.736.41-1.6.794-2.706 1.21-.847.302-1.783.56-2.945.812h-.627l-.002.1-2.605.285c-1.293.044-2.28.008-3.208-.095-5.444-1.204-10.563-3.845-14.325-7.043-.7-.71-1.345-1.444-1.925-2.203-1.072-1.394-2.007-2.902-2.775-4.49-.582-1.18-1.065-2.433-1.482-3.815-.046-2.022-.53-3.82-1.307-5.216-.053-.112-.107-.225-.17-.33-.037-.06-.078-.112-.117-.172-.12-.183-.25-.36-.4-.524-.872-1.09-1.968-1.784-3.198-1.846-.446-.035-1.376.035-2.334.757-.315.154-.617.334-.893.56-.953.78-1.545 1.88-1.66 3.098l-.122 1.25c-.053.433-.08.972-.105 1.607l-.037 1.023.008 1.12.002.03c0 .016 0 .03.002.045.037 2.022.218 3.917.556 5.776.454 2.538 1.174 5.053 2.14 7.473 1.12 2.812 2.65 5.587 4.556 8.258 1.134 1.558 2.23 2.888 3.342 4.05 1.21 1.304 2.59 2.583 4.095 3.8 3.065 2.488 6.526 4.54 10.28 6.1 1.79.752 3.75 1.4 6.018 1.99l.277.063c-.62.607-1.232 1.224-1.832 1.847-1.732 1.787-3.57 3.808-5.782 6.352-.978 1.12-1.945 2.245-2.908 3.365-2.756 3.202-5.357 6.228-8.04 9.013-1.978 2.057-3.75 3.73-5.43 5.125-1.784 1.488-3.553 2.728-5.268 3.697-5.96 1.89-13.223-.51-18.04-2.104-1.915-.634-3.43-1.137-4.552-1.296-3.6-.497-5.67 2.428-6.314 4.176-1.917 2.337-1.66 5.78.646 7.786l.868.752c.566.51 1.434 1.217 2.684 2.177 1.195.863 2.682 1.938 4.583 2.988 2.278 1.28 4.53 2.263 6.885 3.01 3.04.955 6.138 1.49 9.204 1.59 1.578.062 3.266.005 5.175-.175 1.926-.22 3.635-.513 5.223-.895 3.24-.76 6.61-1.925 10.008-3.468 2.82-1.27 5.774-2.83 9.026-4.774 4.193-2.51 8.134-5.195 11.61-7.557 1.244-.85 2.45-1.67 3.622-2.452 2.515-1.69 4.494-2.956 6.234-3.986.806-.483 1.596-.92 2.375-1.33-.158 1.338-.286 2.605-.395 3.843-.285 2.092-.514 4.21-.627 6.366-.12 2.032-.164 4.078-.144 6.25l.046 2.62-.055.925.06.004-.006.45c-.053 1.804-.113 3.75-.19 5.916-.095 1.594-.274 3.14-.433 4.435-.21 1.608-.44 2.984-.7 4.218-.306 1.492-.62 2.78-.963 3.928-.386 1.275-.806 2.492-1.246 3.615-.482 1.236-1.056 2.385-1.498 3.246-.523 1.004-1.103 1.968-1.73 2.872-.62.92-1.26 1.766-1.903 2.506-.813.925-1.446 1.59-2.05 2.154-.7.65-1.402 1.242-2.09 1.778-.44.337-.9.646-1.358.958-.652.245-1.314.485-1.983.724-4.72 1.677-10.066 3.58-10.017 8.793l-.002.013v.012l.005.24.027.05c.162 3.366 2.96 6.06 6.4 6.06h.002c.07.004.19.02.356.043.932.12 3.11.405 6.376.203 2.538-.162 4.96-.558 7.392-1.21 1.51-.394 3.01-.887 4.452-1.463 1.77-.706 3.32-1.436 4.74-2.228 1.696-.94 3.32-1.974 4.828-3.08 1.617-1.196 3.19-2.522 4.675-3.938 1.41-1.34 2.826-2.886 4.326-4.734 1.37-1.682 2.656-3.49 3.822-5.37 2.355-3.76 4.338-7.795 5.892-11.983.77-2.036 1.473-4.165 2.082-6.317.25-.84.463-1.677.675-2.517l.325-1.315c.204-.86.408-1.72.585-2.66l.586-2.97.598-2.664c.403-1.647.798-3.236 1.218-4.744.837-3.05 1.727-5.737 2.637-7.984.474-1.137.926-2.19 1.368-3.144.455-.95.89-1.807 1.304-2.585.39-.697.732-1.296 1.05-1.826.316.528.657 1.122 1.04 1.81.42.792.858 1.652 1.308 2.59.446.964.9 2.018 1.37 3.15.915 2.252 1.803 4.94 2.64 7.993.42 1.504.815 3.093 1.218 4.735l.298 1.254.31 1.77.06-.004.515 2.615c.18.944.385 1.805.59 2.665l.306 1.262c.218.857.436 1.715.688 2.557.613 2.162 1.313 4.29 2.082 6.323 1.56 4.198 3.542 8.232 5.894 11.988 1.167 1.884 2.454 3.69 3.822 5.373 1.493 1.838 2.908 3.387 4.327 4.734 1.49 1.42 3.064 2.746 4.68 3.943 1.504 1.1 3.128 2.135 4.823 3.072 1.42.794 2.972 1.524 4.74 2.228 1.445.578 2.942 1.07 4.444 1.463 2.44.654 4.862 1.05 7.404 1.213.805.052 1.543.07 2.214.07 2.046 0 3.457-.18 4.16-.273.167-.02.286-.038.356-.042 3.486 0 6.318-2.76 6.413-6.185l.006-.018c.645-3.832-1.486-5.25-10.455-11.22-8.445-5.623-15.115-10.065-15.685-35.866 0-.04 0-.08-.002-.122l.037-2.106c.017-2.06-.03-4.097-.137-6.055-.01-2.036-.015-4.062-.017-6.043 0-2.26-.005-4.508-.02-6.738.776.013 1.562.044 2.368.112 1.608.14 3.21.406 4.76.796 1.914.485 3.67 1.096 5.38 1.877.898.392 1.81.86 2.883 1.44.992.557 2.004 1.152 3.033 1.826 1.89 1.226 3.985 2.754 6.402 4.67 1.18.936 2.38 1.92 3.618 2.93 1.098.9 2.223 1.822 3.39 2.753 2.472 1.974 5.197 4.056 8.337 5.91 2.487 1.476 6.378 3.38 10.788 4.06 1.974.308 3.89.384 5.695.228 1.797-.16 3.465-.465 4.95-.91 3.015-.86 5.333-2.086 7.21-3.177 1.852-1.102 3.304-2.18 4.53-3.114 1.15-.914 2.022-1.642 2.583-2.145l.866-.762c1.88-1.656 2.425-4.344 1.374-6.59-.056-.232-.19-.486-.438-.742-1.57-2.34-4.687-3.232-7.297-1.943l-.904.45c-7.478.135-18.367-1.254-27.31-14.267-6.192-9.006-11.252-12.71-14.143-14.225-.397-.33-.796-.66-1.224-.995 1.28-.18 2.475-.412 3.612-.697 1.644-.373 3.4-.945 5.38-1.75 3.576-1.506 6.835-3.46 9.684-5.8 2.925-2.4 5.46-5.115 7.542-8.065 1.968-2.8 3.653-5.894 5.01-9.195 2.293-5.61 3.686-11.848 4.144-18.546.175-2.86.185-5.788.027-8.67-.015-.492-.052-.972-.09-1.453l-.293-3.668" stroke="#00b300" stroke-linecap="round" stroke-linejoin="round"/>
    <path d="M359.786 177.34s15.084 10.673 33.088 7.762" stroke="#67f84a" stroke-width="2" stroke-linecap="round" stroke-linejoin="round"/>
    <path d="M391.894 224.645c2.666 1.943 5.68 2.35 6.732.914 1.053-1.44-.253-4.18-2.92-6.122-2.664-1.94-5.68-2.35-6.732-.91-1.053 1.436.253 4.174 2.92 6.117m45.71 11.617c2.845-1.665 4.42-4.262 3.516-5.797-.905-1.535-3.945-1.426-6.79.24-2.848 1.666-4.422 4.262-3.517 5.798.905 1.535 3.943 1.428 6.79-.24m.148-132.553c-2.404 2.257-3.362 5.135-2.138 6.43 1.224 1.298 4.165.522 6.57-1.734 2.403-2.258 3.358-5.136 2.138-6.433-1.224-1.296-4.165-.52-6.57 1.737m-12.193 47.626c-.838 3.183-.12 6.13 1.606 6.583 1.73.453 3.807-1.76 4.648-4.944.84-3.183.122-6.133-1.603-6.585-1.728-.453-3.81 1.76-4.65 4.946M411.81 179.01c-2.652 1.956-3.945 4.704-2.886 6.135 1.06 1.434 4.076 1.007 6.73-.95 2.655-1.956 3.948-4.702 2.885-6.132-1.06-1.432-4.073-1.007-6.73.947m.717 58.506c3.063 1.226 6.086.883 6.752-.77.664-1.65-1.278-3.985-4.342-5.214-3.063-1.226-6.086-.883-6.75.77-.667 1.65 1.275 3.985 4.34 5.214m-139.32-14.31c-1.054-1.435-4.07-1.028-6.735.913-2.667 1.942-3.973 4.682-2.918 6.12 1.053 1.436 4.066 1.03 6.732-.914 2.667-1.943 3.975-4.68 2.92-6.12m-41.838 15.38c.904-1.536-.67-4.133-3.516-5.802-2.848-1.667-5.888-1.774-6.793-.24-.904 1.535.67 4.13 3.518 5.8 2.846 1.667 5.888 1.776 6.79.24m19.345-58.963c1.653-.674 1.98-3.69.726-6.737-1.25-3.045-3.605-4.966-5.256-4.292-1.652.674-1.977 3.692-.726 6.737 1.25 3.047 3.605 4.968 5.255 4.294m70.23 56.995c-1.68-.602-3.946 1.425-5.06 4.524-1.112 3.098-.653 6.096 1.03 6.696 1.678.602 3.944-1.424 5.057-4.524 1.113-3.1.654-6.095-1.027-6.697m-13.876 32.506c-1.27-1.25-4.18-.365-6.5 1.98-2.32 2.343-3.167 5.256-1.896 6.506 1.272 1.252 4.18.365 6.5-1.978 2.318-2.346 3.168-5.257 1.897-6.507m-57.413-30.564c-3.063 1.226-6.086.883-6.75-.77-.67-1.65 1.275-3.985 4.34-5.213 3.062-1.227 6.085-.883 6.75.768.666 1.653-1.276 3.987-4.34 5.216" fill="#ef9" fill-rule="nonzero"/>
    <path d="M288.26 190.44s5.35-.97 12.163-4.368c4.48-2.233 9.732-8.247 9.732-8.247" stroke="#67f84a" stroke-width="2" stroke-linecap="round" stroke-linejoin="round"/>
    <path d="M218.28 233.573l-2.824-27.856c2.176-.994 4.062-2.47 5.54-4.275 2.506-3.06 3.84-7.07 3.41-11.31-.64-6.325-5.028-11.37-10.746-13.168-.105-.033-.21-.043-.31-.033-.206.022-.393.127-.52.284-.124.15-.192.35-.17.567l1.19 11.757c.065.633-.136 1.233-.51 1.69-.373.457-.924.773-1.558.835l-5.41.548c-1.272.128-2.407-.798-2.535-2.065l-1.193-11.755c-.045-.442-.442-.734-.85-.693-.1.01-.203.043-.3.095-1.727.957-3.24 2.23-4.47 3.736-2.504 3.057-3.84 7.064-3.41 11.305.682 6.772 5.608 12.055 11.895 13.493l2.823 27.858c-2.172.992-4.06 2.467-5.542 4.274-2.503 3.058-3.837 7.07-3.407 11.31.643 6.327 5.03 11.37 10.748 13.17.106.032.21.04.31.032.207-.02.394-.128.522-.283.123-.15.19-.35.17-.57l-1.192-11.755c-.064-.633.135-1.233.51-1.69.374-.457.925-.77 1.56-.835l5.41-.547c1.27-.128 2.406.797 2.534 2.065l1.193 11.754c.045.444.442.733.85.692.1-.01.203-.04.3-.095 1.727-.957 3.24-2.23 4.47-3.736 2.506-3.055 3.84-7.063 3.41-11.3-.684-6.776-5.61-12.057-11.897-13.497" fill="#c8c8cc" fill-rule="nonzero"/>
    <g>
      <g transform="translate(196.118 177.11)">
        <mask id="b" fill="#fff">
          <use xlink:href="#a" width="100%" height="100%"/>
        </mask>
        <path d="M25.595 56.943l-2.863-27.91c2.206-.994 4.12-2.472 5.62-4.282 2.54-3.063 3.893-7.083 3.457-11.33-.653-6.34-5.1-11.394-10.9-13.196-.107-.033-.21-.04-.314-.033-.21.022-.4.13-.527.285-.127.15-.196.352-.175.57l1.208 11.777c.065.636-.138 1.235-.517 1.695-.38.457-.937.772-1.58.837l-5.488.548c-1.288.126-2.44-.8-2.57-2.07L9.74 2.055c-.045-.444-.447-.734-.86-.693-.102.01-.207.042-.306.097-1.75.958-3.286 2.234-4.533 3.74C1.5 8.263.146 12.278.58 16.525c.694 6.786 5.69 12.08 12.064 13.522l1.474 14.367L24.2 43.408l.582 5.67-10.08 1.005.806 7.873c-2.203.994-4.117 2.472-5.62 4.284C7.35 65.304 6 69.322 6.434 73.57c.65 6.34 5.1 11.393 10.9 13.195.105.033.21.043.31.033.212-.02.4-.126.53-.284.126-.15.195-.35.173-.567l-1.208-11.78c-.065-.634.136-1.235.517-1.693.38-.46.938-.774 1.58-.84l5.488-.545c1.29-.13 2.44.798 2.57 2.068l1.21 11.777c.045.444.448.734.862.695.1-.012.205-.043.302-.096 1.753-.958 3.288-2.234 4.536-3.743 2.54-3.06 3.894-7.078 3.458-11.325-.694-6.786-5.69-12.08-12.065-13.522" mask="url(#b)" fill="#e1e1e6" fill-rule="nonzero"/>
      </g>
      <g transform="translate(209.933 219.888)">
        <mask id="d" fill="#fff">
          <use xlink:href="#c" width="100%" height="100%"/>
        </mask>
        <path mask="url(#d)" fill="#f6f6f8" fill-rule="nonzero" d="M.302 1.636l-.01.002.583 5.668h.01L10.965 6.3l-.58-5.67"/>
      </g>
    </g>
    <g>
      <path d="M442.667 108.43l-16.573-50.44c-.724-2.203.476-4.58 2.684-5.303l6.48-2.127c2.205-.724 4.58.476 5.304 2.68l16.572 50.44c.725 2.204-.476 4.58-2.683 5.302l-6.48 2.13c-2.204.723-4.58-.477-5.303-2.683" fill="#c8c8cc" fill-rule="nonzero"/>
      <path d="M428.616 63.822l12.542-10.61c.647-.546.727-1.51.18-2.156-.545-.647-1.51-.726-2.158-.18l-12.544 10.61c-.645.545-.725 1.51-.18 2.157.137.16.3.287.48.38.53.267 1.196.21 1.68-.2m1.847 5.623l12.543-10.608c.647-.548.727-1.515.18-2.16-.545-.644-1.51-.726-2.158-.18l-12.543 10.61c-.647.548-.726 1.515-.18 2.16.136.16.3.287.478.376.53.27 1.197.212 1.68-.198m1.848 5.625l12.544-10.61c.645-.545.726-1.51.18-2.157-.546-.645-1.513-.726-2.158-.18l-12.543 10.61c-.647.547-.726 1.512-.18 2.157.136.16.3.29.476.38.533.267 1.196.21 1.68-.2m5.545 16.872l12.542-10.608c.647-.548.727-1.515.18-2.16-.547-.644-1.513-.726-2.158-.18l-12.545 10.61c-.645.547-.727 1.515-.18 2.16.137.16.3.287.48.376.53.27 1.196.212 1.68-.198m1.848 5.625l12.542-10.61c.647-.546.727-1.51.18-2.158-.545-.646-1.51-.726-2.158-.18l-12.544 10.61c-.645.546-.727 1.51-.18 2.156.137.163.3.29.48.38.53.267 1.196.21 1.68-.2m1.847 5.625l12.543-10.61c.645-.547.727-1.512.18-2.157-.545-.646-1.513-.726-2.158-.18l-12.543 10.61c-.647.547-.726 1.513-.18 2.16.136.16.3.285.478.376.53.27 1.197.21 1.68-.2m.166 5.824c-.177-.09-.34-.218-.476-.38-.546-.644-.467-1.61.18-2.157l12.543-10.61c.645-.546 1.612-.464 2.158.18.55.646.468 1.613-.18 2.16l-12.544 10.608c-.483.41-1.146.467-1.68.2" fill="#737eb3" fill-rule="nonzero"/>
      <path d="M449.847 46.642l-2.357-7.172c-.725-2.207-3.1-3.407-5.305-2.682l-27.156 8.914c-2.208.724-3.407 3.098-2.684 5.302l2.357 7.172c.725 2.205 3.1 3.405 5.306 2.68l27.153-8.912c2.208-.724 3.407-3.098 2.684-5.302m6.484 33.203l-27.155 8.915c-2.206.722-4.582-.478-5.305-2.683l-2.357-7.174c-.724-2.202.476-4.578 2.682-5.302l27.156-8.913c2.206-.723 4.582.477 5.307 2.682l2.357 7.17c.723 2.205-.476 4.58-2.683 5.305" fill="#95a2e6" fill-rule="nonzero"/>
      <path d="M420.03 44.06l-5 1.642c-2.206.724-3.407 3.098-2.684 5.302l2.357 7.174c.724 2.203 3.1 3.403 5.306 2.678l5-1.64zm14.148 43.056l-5.002 1.643c-2.207.722-4.58-.478-5.306-2.683l-2.357-7.174c-.723-2.202.476-4.578 2.683-5.302l5-1.64z" fill="#737eb3" fill-rule="nonzero"/>
      <path d="M449.847 46.642l-2.357-7.172c-.725-2.207-3.1-3.407-5.305-2.682l-5.003 1.64 4.98 15.157 5-1.64c2.21-.725 3.408-3.1 2.685-5.303m6.484 33.203l-5 1.64-4.98-15.155 5-1.643c2.206-.723 4.582.477 5.307 2.682l2.357 7.17c.723 2.205-.476 4.58-2.683 5.305" fill="#c8c8cc" fill-rule="nonzero"/>
      <path d="M458.503 85.652c-2.914-.97-14.897 3.237-14.25 10.035.65 6.797 11.658 8.74 17.165 5.18 5.436-3.52 4.857-12.624-2.915-15.215" fill="#67f84a" fill-rule="nonzero"/>
      <path d="M489.835 224.715l-9.533 1.934-11-54.158c-.897-4.406 1.782-8.712 6.043-9.914.34-.096.686.108.764.45z" fill="#c8c8cc" fill-rule="nonzero"/>
      <path d="M499.92 168.258c.235-.276.653-.294.915-.04 3.183 3.062 3.517 8.107.66 11.572l-35.16 42.648-7.506-6.184z" fill="#e1e1e6" fill-rule="nonzero"/>
      <path d="M446.03 217.565c2.164-2.628 5.527-3.89 8.366-3.147.84.22 1.603.606 2.263 1.152 2.24 1.845 2.795 5.088 1.657 8.09-.482 1.02-1.18 2.145-2.178 3.357-.02.02-.032.045-.05.064-2.153 2.145-5.155 3.12-7.727 2.446-.842-.22-1.603-.608-2.264-1.15-1.375-1.134-2.164-2.84-2.224-4.806-.068-2.11.698-4.242 2.153-6.005m-7.87 6.18c.112 3.637 1.642 6.848 4.304 9.04 1.303 1.076 2.8 1.837 4.45 2.27 5.032 1.32 10.618-.66 14.228-5.04.262-.318.505-.642.736-.972l11.375-13.797c.484-.585.713-1.338.64-2.092-.073-.754-.444-1.45-1.027-1.932l-4.68-3.852c-.32-.266-.694-.454-1.09-.557-.323-.086-.66-.115-1-.082-.755.075-1.45.442-1.933 1.03l-3.254 3.945c-.197-.186-.4-.37-.615-.548-1.304-1.074-2.802-1.835-4.45-2.268-5.032-1.32-10.617.66-14.23 5.04-2.336 2.834-3.562 6.32-3.455 9.816M494.468 225.19c2.83.74 5.09 3.36 5.765 6.672.912 4.483-1.397 8.748-5.143 9.51-.886.18-1.79.152-2.683-.083-2.557-.67-4.654-2.875-5.528-5.742-.005-.03-.007-.058-.015-.09-.31-1.537-.4-2.858-.344-3.988.406-3.18 2.42-5.784 5.267-6.36.884-.18 1.788-.154 2.68.08m-17.18-8.158l3.56 17.522c.05.4.11.8.193 1.202 1.102 5.43 4.996 9.773 9.92 11.063 1.746.455 3.518.507 5.267.152 6.837-1.387 11.15-8.676 9.61-16.248-1.103-5.43-4.997-9.773-9.92-11.062-1.746-.457-3.518-.51-5.27-.154-.27.056-.535.122-.797.196l-1.018-5.014c-.226-1.105-1.057-1.93-2.08-2.197-.41-.11-.848-.126-1.29-.035l-5.94 1.204c-.744.154-1.396.59-1.814 1.222-.42.635-.57 1.406-.42 2.148" fill="#737eb3" fill-rule="nonzero"/>
      <path d="M479.28 196.09c1.74-.168 3.288 1.106 3.458 2.848.167 1.74-1.108 3.288-2.85 3.455-1.742.17-3.29-1.107-3.458-2.847-.17-1.74 1.108-3.288 2.85-3.457" fill="#c8c8cc" fill-rule="nonzero"/>
      <path d="M437.433 226.223c2.217 1.798 15.18 2.678 17.416-3.26 2.974-7.898-8.966-12.128-14.87-9.84-3.378 1.31-8.455 8.303-2.547 13.1" fill="#a5f894" fill-rule="nonzero"/>
      <path d="M198.636 133.343c2.07.843 4.51.425 7.074-1.012 10.27-2.47 27.72.583 39.345 3.22.35.448.773.786 1.267.988.773.314 1.653.266 2.584-.084 4.834 1.177 7.972 2.096 7.972 2.096l1.193-2.935 4.297-10.56 2.724-6.694 1.194-2.934s-3.07-1.627-7.577-4.298c-.393-.625-.894-1.08-1.508-1.332-.333-.134-.687-.2-1.054-.206-10.495-6.395-26.08-16.978-31.357-26.244-.263-.676-.57-1.292-.918-1.843-.8-1.26-1.817-2.177-3.057-2.68-6.585-2.677-16.89 7.358-23.013 22.414-6.125 15.056-5.75 29.43.834 32.106M265.28 140.112l7.173 2.915c2.375.965 6.088-2.65 8.295-8.08 2.208-5.426 2.073-10.605-.3-11.57l-7.175-2.916z" fill="#95a2e6" fill-rule="nonzero"/>
      <path d="M218.863 83.62c5.425 2.207 5.734 14.048.688 26.455-5.047 12.406-13.536 20.676-18.963 18.47-5.425-2.205-5.732-14.05-.686-26.455 5.047-12.406 13.538-20.676 18.963-18.47" fill="#535a80" fill-rule="nonzero"/>
      <path d="M213.284 107.53c-2.498 6.14-2.652 11.882-.342 12.822.292.118.61.155.947.114 2.095-2.907 4.052-6.438 5.66-10.39 1.608-3.953 2.67-7.847 3.2-11.393-.215-.262-.467-.458-.76-.58-2.31-.937-6.207 3.284-8.706 9.427" fill="#737eb3" fill-rule="nonzero"/>
      <path d="M237.444 158.03c-.056.683-.074 1.273-.066 1.768.008.496.035.894.064 1.172l.04.318.02.113.07.424c.393 2.305 2.583 3.855 4.89 3.463.808-.136 1.536-.505 2.107-1.014l.098-.087.273-.266c.234-.235.552-.593.908-1.067.357-.47.748-1.064 1.133-1.746.382-.683.753-1.456 1.083-2.274.33-.816.612-1.672.944-2.49.164-.41.335-.808.51-1.196.18-.386.365-.76.557-1.124.194-.356.398-.704.614-1.04.22-.332.455-.654.698-.97.25-.313.51-.624.794-.927.037-.043.066-.07.096-.1l.09-.09c.063-.063.096-.103.22-.224l.315-.31.04-.04.008-.01c.017-.015-.113.12-.05.057l.02-.022.09-.086.18-.17c.933-.92 1.82-1.838 2.628-2.718.39-.425.777-.847 1.162-1.264.37-.404.717-.783 1.047-1.13.66-.688 1.238-1.247 1.663-1.585.21-.17.385-.295.507-.37.125-.083.2-.116.24-.14.083-.042.073-.057.184-.083.1-.02.296-.017.5.012.105.016.208.03.303.052.045.01.09.018.13.028.024.006.05.006.07.01l.018-.006.01.002.02.013c.03.01.057.024.08.03.05.02.093.032.126.044l.103.03c.25.083.5.145.753.188l.284.116c3.23 1.316 8.283-3.607 11.287-10.99 3.004-7.385 2.82-14.435-.41-15.748l-9.762-3.968-6.933-2.818c3.23 1.315 3.41 8.365.407 15.747-3.004 7.384-8.058 12.305-11.287 10.994l2.28.927c-.203.23-.403.458-.597.685-.37.432-.742.873-1.12 1.314-.73.858-1.422 1.684-2.125 2.453l-.626.69c-.08.087-.24.27-.373.425l-.207.24c-.068.078-.138.158-.194.232-.483.584-.938 1.198-1.367 1.82-.422.63-.812 1.275-1.168 1.922-.35.65-.666 1.296-.95 1.933-.28.636-.523 1.257-.736 1.86-.21.597-.4 1.176-.565 1.722-.163.544-.313 1.068-.443 1.554-.134.49-.25.947-.34 1.386-.186.87-.287 1.643-.348 2.327" fill="#747eb3" fill-rule="nonzero"/>
      <path d="M236.464 148.57c1.277 2.55 12.72 8.698 17.21 4.21 5.97-5.965-3.162-14.743-9.482-15.095-3.618-.2-11.132 4.08-7.728 10.884M204.596 226.393c2.63 1.11 15.322-1.656 15.816-7.98.655-8.415-11.99-9.15-17.023-5.31-2.88 2.2-5.807 10.332 1.206 13.29" fill="#a5f894" fill-rule="nonzero"/>
      <path d="M368.03 202.543s.73 3.884.73 11.653M294.44 191.376s-9.96 3.156-25.99-1.457M385.52 189.92s7.042 1.213 13.114 0M292.495 202.786s-.448 1.995-1.68 15.564M295.167 141.123s-4.13.97-7.772-.486M364.388 141.366s4.615 0 8.987-1.457M200.2 219.05s-.362 9.39 11.416 6.8c4.048-.89 8.258-3.48 8.583-8.983M235.904 142.822s-2.26 8.076 7.287 10.196c6.56 1.457 11.647.606 12.625-5.643M437.737 214.196s-7.044 9.468 2.186 12.867M445.266 91.598s-4.13 8.01 5.83 10.44" stroke="#00b300" stroke-linecap="round" stroke-linejoin="round"/>
    </g>
  </g>
</svg>