
<svg width="549px" height="299px" viewBox="0 0 549 299" version="1.1" xmlns="http://www.w3.org/2000/svg" xmlns:xlink="http://www.w3.org/1999/xlink">
    <!-- Generator: Sketch 44.1 (41455) - http://www.bohemiancoding.com/sketch -->
    <desc>Created with Sketch.</desc>
    <defs>
        <path d="M15.1655571,86.8018372 C15.2829797,86.6537065 15.3491642,86.458971 15.32811,86.2477778 L14.1182416,74.4683333 C14.05311,73.8344444 14.2544258,73.2316667 14.6353469,72.7727778 C15.0142943,72.3177778 15.5728469,72.0027778 16.2182416,71.9366667 L21.7050837,71.3902778 C22.9919258,71.26 24.1425837,72.1875 24.2748206,73.4572222 L25.4827153,85.2347222 C25.52811,85.68 25.9307416,85.9697222 26.3452153,85.9308333 C26.4478469,85.9191667 26.5504785,85.89 26.647189,85.8336111 C28.3998206,84.875 29.9333732,83.5994444 31.184689,82.0925 C33.7228469,79.0280556 35.0767943,75.0147222 34.64061,70.7661111 C33.9458732,63.9780556 28.9524522,58.6872222 22.5774522,57.2463889 L19.7136364,29.3338889 C21.9182416,28.3402778 23.8327153,26.8605556 25.3327153,25.0502778 C27.8708732,21.9877778 29.2248206,17.9666667 28.7886364,13.7219444 C28.1392943,7.38305556 23.6886364,2.3275 17.8899522,0.526944444 C17.8110048,0.501666667 17.7340311,0.49 17.6570574,0.49 C17.6313995,0.49 17.6037679,0.49 17.57811,0.493888889 C17.3688995,0.515277778 17.1774522,0.620277778 17.0491627,0.777777778 C16.9228469,0.925555556 16.8537679,1.12583333 16.8754785,1.34361111 L18.0833732,13.1230556 C18.1485048,13.7569444 17.9452153,14.3597222 17.5682416,14.8166667 C17.1873206,15.2736111 16.6287679,15.5905556 15.9853469,15.6527778 L10.5004785,16.2011111 C9.209689,16.3313889 8.0590311,15.4038889 7.92876794,14.1322222 L6.71889952,2.35666667 C6.67547847,1.91333333 6.27087321,1.61972222 5.85837321,1.66055556 C5.75574163,1.67027778 5.65113636,1.70333333 5.55442584,1.75777778 C3.80376794,2.71638889 2.26626794,3.99194444 1.01889952,5.49888889 C0.840244146,5.71458842 0.667455876,5.93498917 0.500745326,6.15984296 L0.500745326,24.4185416 C2.70001598,27.3816428 5.9313695,29.5099344 9.62613636,30.345 L12.4899522,58.2575 C10.2873206,59.2511111 8.37087321,60.7308333 6.87087321,62.5391667 C4.33074163,65.6036111 2.97876794,69.6247222 3.41297847,73.8713889 C4.03461415,79.9214181 8.11541574,84.8024106 13.5275757,86.8018372 L15.1655581,86.8018372 L15.1655571,86.8018372 Z" id="path-1"></path>
        <polygon id="path-3" points="8.0267463 7.30566667 7.34186441 0.630388889 0.292583732 0.630388889 0.292583732 7.30566667 8.0267463 7.30566667"></polygon>
    </defs>
    <g id="Screens" stroke="none" stroke-width="1" fill="none" fill-rule="evenodd">
        <g id="Extensions---1366px" transform="translate(-134.000000, -211.000000)">
            <g id="Page-1" transform="translate(134.000000, 211.000000)">
                <g id="Group-118">
                    <path d="M205.592251,25.5774875 C221.12587,25.5774875 221.12587,17.1957209 236.65949,17.1957209 C252.195056,17.1957209 252.195056,25.5774875 267.732568,25.5774875 C283.27008,25.5774875 283.27008,17.1957209 298.807592,17.1957209 C314.343158,17.1957209 314.343158,25.5774875 329.878723,25.5774875 C345.416235,25.5774875 345.416235,17.1957209 360.953748,17.1957209" id="Stroke-1" stroke="#E1E1E6" stroke-width="2" stroke-linecap="round" stroke-linejoin="round"></path>
                    <path d="M235.665307,5.74051063 C243.43309,5.74051063 247.317955,7.83643743 251.200873,9.93236423 C255.085737,12.028291 258.968656,14.1242178 266.736439,14.1242178 C274.506168,14.1242178 278.391032,12.028291 282.273951,9.93236423 C286.158815,7.83643743 290.04368,5.74051063 297.813409,5.74051063" id="Stroke-3" stroke="#E1E1E6" stroke-linecap="round" stroke-linejoin="round"></path>
                    <path d="M298.547368,29.189662 C306.315151,29.189662 310.198069,31.2855888 314.082934,33.3815156 C317.965852,35.4774424 321.850717,37.5733692 329.616553,37.5733692 C337.386283,37.5733692 341.269201,35.4774424 345.152119,33.3815156 C349.036984,31.2855888 352.919902,29.189662 360.687685,29.189662" id="Stroke-5" stroke="#737EB3" stroke-linecap="round" stroke-linejoin="round"></path>
                    <path d="M0.973551741,27.4954545 L0.973551741,27.7884962 L0.973551741,167.187035 C0.973551741,169.948613 3.36947776,172.19009 6.32594536,172.19009 L180.243704,172.19009 C183.200172,172.19009 185.598044,169.948613 185.598044,167.187035 L185.598044,27.7884962 L185.598044,27.4954545 L0.973551741,27.4954545 Z" id="Fill-7" fill="#F6F6F8"></path>
                    <path d="M0.973551741,27.4954545 L0.973551741,27.7884962 L0.973551741,167.187035 C0.973551741,169.948613 3.36947776,172.19009 6.32594536,172.19009 L180.243704,172.19009 C183.200172,172.19009 185.598044,169.948613 185.598044,167.187035 L185.598044,27.7884962 L185.598044,27.4954545 L0.973551741,27.4954545 Z" id="Stroke-9" stroke="#E1E1E6"></path>
                    <path d="M185.597849,26.663294 L185.597849,6.41819362 C185.597849,3.23937131 183.01313,0.662157615 179.823103,0.662157615 L6.74810324,0.662157615 C3.55807664,0.662157615 0.973357108,3.23937131 0.973357108,6.41819362 L0.973357108,26.663294 L0.973357108,27.4958427 L185.597849,27.4958427 L185.597849,26.663294 Z" id="Fill-11" fill="#F6F6F8"></path>
                    <path d="M185.597849,26.663294 L185.597849,6.41819362 C185.597849,3.23937131 183.01313,0.662157615 179.823103,0.662157615 L6.74810324,0.662157615 C3.55807664,0.662157615 0.973357108,3.23937131 0.973357108,6.41819362 L0.973357108,26.663294 L0.973357108,27.4958427 L185.597849,27.4958427 L185.597849,26.663294 Z" id="Stroke-13" stroke="#E1E1E6"></path>
                    <path d="M12.5467892,27.7890784 L12.5467892,155.176792 C12.5467892,157.757887 14.6429811,159.849933 17.229647,159.849933 L169.342727,159.849933 C171.927447,159.849933 174.023639,157.757887 174.023639,155.176792 L174.023639,27.7890784 L12.5467892,27.7890784 Z" id="Fill-15" fill="#F6F6F8"></path>
                    <path d="M12.5467892,27.7890784 L12.5467892,155.176792 C12.5467892,157.757887 14.6429811,159.849933 17.229647,159.849933 L169.342727,159.849933 C171.927447,159.849933 174.023639,157.757887 174.023639,155.176792 L174.023639,27.7890784 L12.5467892,27.7890784 Z" id="Stroke-17" stroke="#E1E1E6"></path>
                    <path d="M16.0840401,10.2585914 C18.2366755,10.2585914 19.982529,11.9974343 19.982529,14.1457593 C19.982529,16.2940843 18.2366755,18.0348679 16.0840401,18.0348679 C13.9314047,18.0348679 12.1855513,16.2940843 12.1855513,14.1457593 C12.1855513,11.9974343 13.9314047,10.2585914 16.0840401,10.2585914" id="Fill-19" fill="#E1E1E6"></path>
                    <path d="M28.6619705,10.2585914 C30.8146059,10.2585914 32.5604594,11.9974343 32.5604594,14.1457593 C32.5604594,16.2940843 30.8146059,18.0348679 28.6619705,18.0348679 C26.5093351,18.0348679 24.7634816,16.2940843 24.7634816,14.1457593 C24.7634816,11.9974343 26.5093351,10.2585914 28.6619705,10.2585914" id="Fill-21" fill="#E1E1E6"></path>
                    <path d="M136.775261,18.542548 L49.7959454,18.542548 C47.4642481,18.542548 45.5763129,16.6581545 45.5763129,14.335169 L45.5763129,13.9586784 C45.5763129,11.6337522 47.4642481,9.75129944 49.7959454,9.75129944 L136.775261,9.75129944 C139.105012,9.75129944 140.994894,11.6337522 140.994894,13.9586784 L140.994894,14.335169 C140.994894,16.6581545 139.105012,18.542548 136.775261,18.542548" id="Fill-23" fill="#E1E1E6"></path>
                    <path d="M157.909236,10.2585914 C160.061871,10.2585914 161.807725,11.9974343 161.807725,14.1457593 C161.807725,16.2940843 160.061871,18.0348679 157.909236,18.0348679 C155.756601,18.0348679 154.008801,16.2940843 154.008801,14.1457593 C154.008801,11.9974343 155.756601,10.2585914 157.909236,10.2585914" id="Fill-25" fill="#E1E1E6"></path>
                    <path d="M170.487166,10.2585914 C172.639802,10.2585914 174.385655,11.9974343 174.385655,14.1457593 C174.385655,16.2940843 172.639802,18.0348679 170.487166,18.0348679 C168.332585,18.0348679 166.586731,16.2940843 166.586731,14.1457593 C166.586731,11.9974343 168.332585,10.2585914 170.487166,10.2585914" id="Fill-27" fill="#E1E1E6"></path>
                    <path d="M267.83475,119.158096 C283.372262,119.158096 283.372262,127.539863 298.909774,127.539863 C314.449232,127.539863 314.449232,119.158096 329.990637,119.158096 C345.524257,119.158096 345.524257,127.539863 361.057876,127.539863 C376.601227,127.539863 376.601227,119.158096 392.140685,119.158096 C407.684037,119.158096 407.684037,127.539863 423.223495,127.539863 C438.766846,127.539863 438.766846,119.158096 454.312143,119.158096 C469.853548,119.158096 469.853548,127.539863 485.396899,127.539863" id="Stroke-29" stroke="#E1E1E6" stroke-width="2" stroke-linecap="round" stroke-linejoin="round"></path>
                    <path d="M330.662703,108.247439 C338.430486,108.247439 342.315351,110.343366 346.200215,112.439292 C350.08508,114.535219 353.969944,116.631146 361.737727,116.631146 C369.507456,116.631146 373.392321,114.535219 377.277186,112.439292 C381.16205,110.343366 385.046915,108.247439 392.816644,108.247439 C400.584427,108.247439 404.467345,110.343366 408.35221,112.439292 C412.235128,114.535219 416.118046,116.631146 423.885829,116.631146 C431.657505,116.631146 435.542369,114.535219 439.427234,112.439292 C443.312099,110.343366 447.196963,108.247439 454.968639,108.247439 C462.738368,108.247439 466.623233,110.343366 470.510044,112.439292 C474.394908,114.535219 478.281719,116.631146 486.051448,116.631146 C493.823124,116.631146 497.707988,114.535219 501.594799,112.439292 C505.479664,110.343366 509.364529,108.247439 517.13815,108.247439 C524.909826,108.247439 528.796637,110.343366 532.681501,112.439292 C536.568312,114.535219 540.453177,116.631146 548.224853,116.631146" id="Stroke-31" stroke="#E1E1E6" stroke-linecap="round" stroke-linejoin="round"></path>
                    <path d="M270.189803,50.1277767 L270.189803,50.4188777 L270.189803,189.817417 C270.189803,192.578994 272.587675,194.820472 275.544143,194.820472 L449.459955,194.820472 C452.418369,194.820472 454.814295,192.580935 454.814295,189.817417 L454.814295,50.4188777 L454.814295,50.1277767 L270.189803,50.1277767 Z" id="Fill-33" fill="#F6F6F8"></path>
                    <path d="M270.189803,50.1277767 L270.189803,50.4188777 L270.189803,189.817417 C270.189803,192.578994 272.587675,194.820472 275.544143,194.820472 L449.459955,194.820472 C452.418369,194.820472 454.814295,192.580935 454.814295,189.817417 L454.814295,50.4188777 L454.814295,50.1277767 L270.189803,50.1277767 Z" id="Stroke-35" stroke="#E1E1E6"></path>
                    <path d="M454.815074,49.2938695 L454.815074,29.0487692 C454.815074,25.8699469 452.230354,23.2927332 449.040328,23.2927332 L275.965328,23.2927332 C272.775301,23.2927332 270.190581,25.8699469 270.190581,29.0487692 L270.190581,49.2938695 L270.190581,50.1283589 L454.815074,50.1283589 L454.815074,49.2938695 Z" id="Fill-37" fill="#F6F6F8"></path>
                    <path d="M454.815074,49.2938695 L454.815074,29.0487692 C454.815074,25.8699469 452.230354,23.2927332 449.040328,23.2927332 L275.965328,23.2927332 C272.775301,23.2927332 270.190581,25.8699469 270.190581,29.0487692 L270.190581,49.2938695 L270.190581,50.1283589 L454.815074,50.1283589 L454.815074,49.2938695 Z" id="Stroke-39" stroke="#E1E1E6"></path>
                    <path d="M281.764014,50.4196539 L281.764014,177.807368 C281.764014,180.388463 283.860206,182.480508 286.446871,182.480508 L438.558005,182.480508 C441.144671,182.480508 443.240863,180.388463 443.240863,177.807368 L443.240863,50.4196539 L281.764014,50.4196539 Z" id="Fill-41" fill="#F6F6F8"></path>
                    <path d="M281.764014,50.4196539 L281.764014,177.807368 C281.764014,180.388463 283.860206,182.480508 286.446871,182.480508 L438.558005,182.480508 C441.144671,182.480508 443.240863,180.388463 443.240863,177.807368 L443.240863,50.4196539 L281.764014,50.4196539 Z" id="Stroke-43" stroke="#E1E1E6"></path>
                    <path d="M285.301265,32.8891669 C287.4539,32.8891669 289.199753,34.6280099 289.199753,36.7782755 C289.199753,38.9246598 287.4539,40.6654435 285.301265,40.6654435 C283.148629,40.6654435 281.400829,38.9246598 281.400829,36.7782755 C281.400829,34.6280099 283.148629,32.8891669 285.301265,32.8891669" id="Fill-45" fill="#E1E1E6"></path>
                    <path d="M297.879195,32.8891669 C300.03183,32.8891669 301.777684,34.6280099 301.777684,36.7782755 C301.777684,38.9246598 300.03183,40.6654435 297.879195,40.6654435 C295.724613,40.6654435 293.97876,38.9246598 293.97876,36.7782755 C293.97876,34.6280099 295.724613,32.8891669 297.879195,32.8891669" id="Fill-47" fill="#E1E1E6"></path>
                    <path d="M405.991512,41.1729295 L319.014143,41.1729295 C316.682446,41.1729295 314.792564,39.288536 314.792564,36.9655505 L314.792564,36.5890599 C314.792564,34.2641337 316.682446,32.3816809 319.014143,32.3816809 L405.991512,32.3816809 C408.321263,32.3816809 410.213091,34.2641337 410.213091,36.5890599 L410.213091,36.9655505 C410.213091,39.288536 408.321263,41.1729295 405.991512,41.1729295" id="Fill-49" fill="#E1E1E6"></path>
                    <path d="M427.125487,32.8891669 C429.278123,32.8891669 431.025922,34.6280099 431.025922,36.7782755 C431.025922,38.9246598 429.278123,40.6654435 427.125487,40.6654435 C424.972852,40.6654435 423.225052,38.9246598 423.225052,36.7782755 C423.225052,34.6280099 424.972852,32.8891669 427.125487,32.8891669" id="Fill-51" fill="#E1E1E6"></path>
                    <path d="M439.704391,32.8891669 C441.857026,32.8891669 443.60288,34.6280099 443.60288,36.7782755 C443.60288,38.9246598 441.857026,40.6654435 439.704391,40.6654435 C437.549809,40.6654435 435.803956,38.9246598 435.803956,36.7782755 C435.803956,34.6280099 437.549809,32.8891669 439.704391,32.8891669" id="Fill-53" fill="#E1E1E6"></path>
                    <path d="M388.921269,147.993391 L388.921269,141.373756 L388.921269,126.929327 C388.921269,126.929327 389.512952,121.499324 393.133117,121.499324 C396.753281,121.499324 396.367909,127.243716 403.121656,127.243716 C406.490745,127.241775 412.302471,125.518458 412.302471,115.126154 C412.302471,104.726088 406.490745,103.480176 403.121656,103.480176 C396.367909,103.480176 396.753281,108.906297 393.133117,108.906297 C389.514898,108.906297 388.921269,103.322981 388.921269,103.322981 L388.921269,94.6811644 C388.921269,91.4033678 386.289838,88.7446458 383.033636,88.7446458 L367.455251,88.7446458 C367.455251,88.7446458 362.320846,87.8596989 362.320846,84.2461659 C362.320846,80.6365142 367.922369,80.3978114 367.922369,73.6675576 C367.922369,70.3101933 366.040273,64.9811054 355.615757,64.9811054 C345.187348,64.9811054 343.778208,70.3101933 343.778208,73.6675576 C343.778208,80.3978114 348.908721,80.6345735 348.906775,84.2461659 C348.908721,87.8596989 343.778208,88.7446458 343.778208,88.7446458 L329.37735,88.7446458 C327.409616,88.7446458 325.679333,89.728567 324.6108,91.2248259 C323.915962,92.2009844 323.495556,93.3886762 323.495556,94.6811644 L323.511127,106.274745 C323.511127,106.274745 322.878571,115.221247 330.09749,115.221247 C334.642159,115.221247 334.916591,109.113949 340.897647,109.11589 C343.877471,109.113949 346.907899,111.906578 346.907899,118.077918 C346.907899,124.245376 343.877471,127.34269 340.897647,127.34269 C334.916591,127.34269 334.642159,121.247037 330.09749,121.247037 C322.878571,121.247037 323.511127,129.881091 323.511127,129.881091 L323.495556,147.993391 C323.495556,151.269247 326.128934,153.92991 329.375404,153.92991 L348.799727,153.92991 C348.799727,153.92991 358.182959,154.554807 358.182959,147.358791 C358.182959,142.823439 352.260293,141.983127 352.260293,136.011677 C352.260293,133.044388 355.563206,129.372634 361.754466,129.372634 C367.947672,129.372634 371.618441,133.044388 371.618441,136.011677 C371.618441,141.983127 365.876782,142.823439 365.876782,147.358791 C365.876782,154.554807 375.2678,153.92991 375.2678,153.92991 L383.033636,153.92991 C386.289838,153.92991 388.921269,151.269247 388.921269,147.993391" id="Fill-55" fill="#E1E1E6"></path>
                    <g id="Group-59" transform="translate(115.969536, 276.711924)" fill="#EDEDF2">
                        <path d="M0.117458897,11.1444089 C0.117458897,5.06428055 52.2886992,0.134971222 116.643934,0.134971222 C181.001115,0.134971222 233.172355,5.06428055 233.172355,11.1444089 C233.172355,17.2245373 181.001115,22.151906 116.643934,22.151906 C52.2886992,22.151906 0.117458897,17.2245373 0.117458897,11.1444089" id="Fill-57"></path>
                    </g>
                    <path d="M64.9759176,242.299812 C80.509537,242.299812 80.509537,250.681578 96.0451028,250.681578 C111.580669,250.681578 111.580669,242.299812 127.116234,242.299812 C142.6518,242.299812 142.6518,250.681578 158.189312,250.681578 C173.726824,250.681578 173.726824,242.299812 189.26239,242.299812 C204.796009,242.299812 204.796009,250.681578 220.329629,250.681578 C235.867141,250.681578 235.867141,242.299812 251.402707,242.299812 C266.936326,242.299812 266.936326,250.681578 282.469946,250.681578" id="Stroke-60" stroke="#E1E1E6" stroke-width="2" stroke-linecap="round" stroke-linejoin="round"></path>
                    <path d="M128.311472,229.603929 C136.079255,229.603929 139.962174,231.699856 143.845092,233.795783 C147.729956,235.89171 151.612875,237.987637 159.380658,237.987637 C167.148441,237.987637 171.033305,235.89171 174.916223,233.795783 C178.799142,231.699856 182.684006,229.603929 190.451789,229.603929 C198.219572,229.603929 202.104437,231.699856 205.987355,233.795783 C209.87222,235.89171 213.755138,237.987637 221.524867,237.987637 C229.29265,237.987637 233.175568,235.89171 237.062379,233.795783 C240.945297,231.699856 244.830162,229.603929 252.597945,229.603929" id="Stroke-62" stroke="#E1E1E6" stroke-linecap="round" stroke-linejoin="round"></path>
                    <path d="M351.116243,92.3601195 C350.088583,89.6645248 347.065941,88.3118757 344.362495,89.3365511 L343.605375,89.6237707 C343.605375,89.6237707 343.453561,89.6819909 343.159666,89.7926092 C342.869664,89.9051682 342.425902,90.0623628 341.869253,90.2971842 C341.310658,90.5320056 340.619712,90.8231066 339.808095,91.164665 C339.405206,91.3432069 338.967282,91.5256302 338.506003,91.7371635 C338.050563,91.9564596 337.565928,92.1893403 337.054045,92.4358058 C335.014296,93.4430151 332.515215,94.7063932 329.800092,96.4879309 C327.065505,98.24424 324.009775,100.4372 320.977401,103.394786 C317.954758,106.340728 314.906813,110.059057 312.471961,114.675918 C310.035162,119.271432 308.281523,124.757714 307.647021,130.500165 C307.55749,131.23568 307.50494,132.054644 307.442657,132.838676 L307.370643,133.843945 L307.318092,134.732773 L307.290844,135.175246 L307.288897,135.233467 C307.316146,135.693406 307.294736,135.38872 307.300575,135.50322 L307.296683,135.600254 L307.288897,135.79238 L307.259703,136.564768 C307.2344,137.079047 307.236347,137.599147 307.187689,138.105663 C307.072855,140.158895 306.804263,142.173313 306.485065,144.131452 C305.866134,148.051612 304.651627,151.670967 303.129601,154.618849 C302.35691,156.089879 301.475225,157.376545 300.537096,158.451678 C299.600914,159.530692 298.606342,160.374885 297.640965,161.096815 C295.681015,162.499922 293.711335,163.285894 291.599572,163.699258 C290.544664,163.862274 289.450829,164.048579 288.345317,163.961249 C287.247589,163.895266 286.105097,163.802113 285.011262,163.481902 C282.80413,162.905522 280.694313,161.789635 278.946514,160.283673 C278.068721,159.534573 277.276567,158.700084 276.568104,157.819019 C275.861588,156.937953 275.267959,155.996727 274.724935,155.072966 C274.487483,154.589739 274.205266,154.147265 273.993117,153.673741 C273.886069,153.43892 273.761504,153.211861 273.638885,152.990624 C273.525999,152.759684 273.417004,152.534566 273.30801,152.313329 C273.193177,152.090152 273.070559,151.876678 272.963511,151.657382 C272.866194,151.434205 272.753308,151.220731 272.644313,151.011138 C272.422432,150.590012 272.214176,150.176648 272.01565,149.774929 C271.585513,148.987016 271.242959,148.226272 270.86148,147.581969 C270.713559,147.300571 270.544229,147.03664 270.392415,146.788233 C270.213353,144.636027 270.073218,142.36738 269.977848,139.976471 C280.452969,137.414783 288.226591,127.990875 288.226591,116.754379 C288.226591,109.265322 284.771864,102.581644 279.364973,98.1976638 C279.427256,97.1846325 279.464236,96.1657792 279.464236,95.1391632 C279.464236,67.9716824 257.375394,45.9469849 230.128791,45.9469849 C202.882188,45.9469849 180.793346,67.9716824 180.793346,95.1391632 C180.793346,96.1657792 180.82838,97.1846325 180.892609,98.1976638 C175.485718,102.581644 172.029045,109.265322 172.029045,116.754379 C172.029045,128.006401 179.82213,137.440012 190.318661,139.990056 C190.026712,149.654607 189.22288,157.799612 187.903271,164.760806 C186.727691,165.874752 185.361371,166.891665 183.812096,167.74362 C182.918733,168.242373 181.961141,168.649914 180.96073,169.026405 C179.958373,169.389311 178.903465,169.664886 177.811576,169.899708 C178.331245,169.90747 177.934195,169.903589 178.041243,169.90553 L178.002316,169.911352 L177.928356,169.919115 L177.776543,169.936581 L177.476809,169.967631 L176.87734,170.031674 L176.332369,170.093775 L176.013172,170.140351 L175.688136,170.19469 C175.583034,170.216037 175.470147,170.235444 175.32028,170.239326 L174.475575,170.293664 C173.352546,170.326656 172.208107,170.316952 171.073399,170.184987 C168.803985,169.938521 166.540409,169.350497 164.432539,168.448084 C163.375684,168.00173 162.349971,167.487451 161.38654,166.897487 C160.405592,166.324988 159.500551,165.669041 158.63249,164.991746 C156.921671,163.611927 155.421054,162.080736 154.218225,160.495207 C153.009558,158.913558 152.061697,157.30474 151.339611,155.802659 C150.607793,154.302519 150.123158,152.903294 149.774765,151.729187 C149.691074,151.432264 149.609328,151.152807 149.533421,150.890816 C149.469192,150.623003 149.410803,150.372656 149.356306,150.137835 C149.245365,149.670133 149.151941,149.268414 149.103283,148.94044 C148.984558,148.27867 148.922275,147.927409 148.922275,147.927409 L148.869724,147.632426 C148.589454,146.060481 147.287362,144.800984 145.615469,144.641849 C143.601023,144.449723 141.814296,145.920753 141.619664,147.927409 C141.619664,147.927409 141.576845,148.371823 141.497045,149.204371 C141.450334,149.623557 141.423085,150.137835 141.401676,150.749147 C141.389998,151.055773 141.376373,151.385688 141.362749,151.73695 C141.366642,152.088211 141.368588,152.462761 141.370534,152.858659 C141.395837,154.442248 141.516509,156.386802 141.917452,158.60305 C142.308663,160.819299 142.958735,163.315004 144.005858,165.950438 C145.047142,168.587813 146.518564,171.341628 148.443479,174.064392 C149.418588,175.41316 150.492959,176.767749 151.711359,178.056356 C152.916134,179.362429 154.255206,180.610282 155.70911,181.792152 C158.607188,184.165595 162.001579,186.230471 165.750201,187.800475 C167.624512,188.59227 169.5903,189.222988 171.608639,189.752792 L173.134558,190.105995 C173.288317,190.144808 173.459594,190.1778 173.636709,190.210791 C172.574016,191.214119 171.538571,192.244616 170.53816,193.29452 C168.552909,195.361337 166.649403,197.505781 164.788716,199.659928 C161.065397,203.968222 157.468588,208.344439 153.809497,212.173387 C151.981898,214.090772 150.142621,215.870369 148.301397,217.411263 C146.46212,218.961861 144.618951,220.269875 142.799137,221.296491 C141.888257,221.820472 140.983216,222.235776 140.082067,222.62197 C139.182865,222.977113 138.287556,223.287621 137.398085,223.508858 C135.62109,223.972679 133.855774,224.12211 132.156632,224.077475 C130.459437,224.028958 128.838148,223.753383 127.38619,223.394358 C125.926446,223.048918 124.653549,222.561809 123.592802,222.163971 C122.543733,221.723439 121.706813,221.360533 121.150164,221.071372 C120.58573,220.799678 120.28405,220.650246 120.28405,220.650246 L119.988208,220.506637 C118.119736,219.598402 115.801663,220.004002 114.361383,221.636108 C112.634993,223.594247 112.825733,226.577062 114.789574,228.300379 C114.789574,228.300379 115.095147,228.570133 115.67126,229.072767 C116.23764,229.587045 117.113486,230.301213 118.267657,231.195863 C119.451023,232.059463 120.904927,233.11907 122.761721,234.151508 C124.608784,235.197531 126.829541,236.26296 129.460972,237.103272 C132.086564,237.937761 135.130617,238.556836 138.408228,238.663573 C140.047033,238.727615 141.728658,238.65387 143.435585,238.490853 C145.126941,238.296786 146.853332,238.023151 148.542742,237.613669 C151.93324,236.81023 155.245885,235.605072 158.373629,234.174796 C161.511105,232.752283 164.47925,231.112414 167.297529,229.416266 C172.930193,226.014267 177.97896,222.387149 182.484703,219.353877 C184.736601,217.828508 186.840578,216.454512 188.761601,215.309514 C190.410138,214.31589 191.899076,213.531858 193.216738,212.920546 C192.307805,217.05612 191.797868,221.168406 191.589611,225.144845 C191.468939,227.26406 191.430012,229.338639 191.447529,231.376346 L191.466992,232.897834 L191.480617,233.652755 L191.492294,234.029246 C191.50008,233.974907 191.47867,234.221372 191.507865,233.916687 L191.507865,233.961322 L191.507865,234.050593 L191.503972,234.227195 L191.474778,236.80829 C191.47867,237.504991 191.451422,238.312311 191.426119,239.100224 C191.389139,239.880375 191.356052,240.668288 191.299608,241.434854 C191.208131,242.985452 191.042693,244.497236 190.859739,245.977969 C190.667053,247.458703 190.439333,248.906445 190.147384,250.297907 C189.865167,251.695192 189.54597,253.049782 189.16449,254.34421 C188.775225,255.634758 188.354819,256.874848 187.89354,258.06254 C187.430314,259.250232 186.897021,260.356415 186.350104,261.423785 C185.80124,262.489215 185.203719,263.488661 184.56727,264.416303 C183.938607,265.355589 183.278803,266.236654 182.587858,267.040093 C181.891074,267.83771 181.192343,268.600394 180.470256,269.27963 C179.750116,269.956924 179.024137,270.574058 178.309836,271.132972 C176.87734,272.237215 175.497396,273.108577 174.317923,273.75094 C173.140397,274.399125 172.16918,274.833836 171.540517,275.10747 C170.911854,275.388868 170.629637,275.495605 170.789236,275.495605 C167.772432,275.495605 165.327848,277.93309 165.327848,280.939193 C165.327848,283.945295 167.772432,286.38278 170.789236,286.38278 C171.106487,286.365314 173.418721,286.877652 177.455399,286.631187 C179.467899,286.501161 181.912483,286.182891 184.666533,285.439613 C186.044531,285.078648 187.500382,284.609005 188.999052,284.003515 C190.499669,283.398025 192.064514,282.68968 193.627413,281.810555 C195.192258,280.937252 196.784352,279.931983 198.349197,278.779224 C199.908204,277.61482 201.4458,276.312628 202.934739,274.884293 C204.425624,273.455958 205.83087,271.874309 207.175781,270.205331 C208.522638,268.534411 209.779964,266.752873 210.928295,264.885946 C213.244422,261.161795 215.208264,257.131017 216.738075,252.977977 C217.514659,250.901457 218.201712,248.791945 218.797287,246.676612 C219.110646,245.617004 219.363668,244.557397 219.634207,243.491967 C219.88139,242.430419 220.140251,241.386337 220.35824,240.221933 L220.94603,237.225534 L220.979118,237.054755 L220.994688,236.967425 L221.002473,236.92473 C221.037507,236.592875 221.018044,236.81023 221.027776,236.724841 L221.105629,236.40463 L221.253549,235.766148 L221.553283,234.498889 C221.958119,232.827969 222.355169,231.21527 222.777522,229.68796 C223.614441,226.617816 224.509751,223.871764 225.453719,221.52549 C225.934461,220.364968 226.391847,219.291775 226.843395,218.307854 C227.304674,217.341399 227.746489,216.460334 228.172735,215.651073 C228.844217,214.440093 229.457309,213.382426 230.07624,212.429556 C230.693225,213.382426 231.308264,214.438152 231.979746,215.651073 C232.404045,216.460334 232.847807,217.339458 233.309086,218.307854 C233.760633,219.291775 234.216074,220.364968 234.698762,221.52549 C235.64273,223.871764 236.538039,226.617816 237.374959,229.68796 C237.795365,231.21527 238.192415,232.827969 238.599197,234.498889 L238.896985,235.766148 L239.046852,236.40463 L239.122759,236.724841 C239.13249,236.81023 239.114973,236.592875 239.148061,236.92473 L239.157793,236.967425 L239.173363,237.054755 L239.206451,237.225534 L239.792294,240.221933 C240.012229,241.386337 240.27109,242.428478 240.518274,243.491967 C240.786867,244.557397 241.041835,245.617004 241.355193,246.676612 C241.948823,248.791945 242.635875,250.901457 243.414405,252.977977 C244.944217,257.131017 246.908059,261.161795 249.222239,264.885946 C250.370571,266.752873 251.629843,268.534411 252.9767,270.205331 C254.32161,271.87625 255.724911,273.455958 257.217742,274.884293 C258.704734,276.314569 260.244277,277.61482 261.801337,278.779224 C263.368129,279.931983 264.958276,280.937252 266.525068,281.810555 C268.087967,282.68968 269.652812,283.398025 271.153428,284.003515 C272.652099,284.609005 274.10795,285.078648 275.485948,285.439613 C278.239998,286.182891 280.684582,286.501161 282.697082,286.631187 C286.731813,286.877652 289.044047,286.365314 289.363245,286.38278 C292.378102,286.38278 294.822686,283.945295 294.822686,280.939193 C294.822686,277.93309 292.378102,275.495605 289.363245,275.495605 C289.522843,275.495605 289.240626,275.388868 288.610017,275.10747 C287.981354,274.833836 287.010138,274.399125 285.832611,273.75094 C284.655085,273.108577 283.27514,272.237215 281.842645,271.132972 C281.128344,270.574058 280.402365,269.956924 279.680278,269.27963 C278.958191,268.600394 278.259461,267.83965 277.564623,267.040093 C276.871731,266.234714 276.213873,265.355589 275.58521,264.416303 C274.948762,263.488661 274.35124,262.489215 273.80043,261.423785 C273.255459,260.356415 272.72022,259.250232 272.256995,258.06254 C271.797662,256.874848 271.375309,255.632817 270.987991,254.34421 C270.604565,253.049782 270.287314,251.695192 270.005097,250.297907 C269.711202,248.906445 269.485428,247.458703 269.290795,245.977969 C269.107841,244.497236 268.942403,242.985452 268.852872,241.434854 C268.798375,240.668288 268.763341,239.880375 268.726361,239.100224 C268.701059,238.312311 268.67381,237.504991 268.677703,236.80829 L268.646562,234.227195 L268.644616,234.050593 L268.644616,233.961322 L268.642669,233.916687 C268.675757,234.219432 268.652401,233.974907 268.660186,234.029246 L268.671864,233.652755 L268.685488,232.897834 L268.704952,231.376346 C268.722469,229.338639 268.683542,227.26406 268.56287,225.144845 C268.342935,220.92 267.788233,216.539901 266.766412,212.146218 C266.713861,211.926921 266.653525,211.709566 266.599028,211.492211 C266.96883,211.468923 267.350309,211.447575 267.751252,211.43205 C269.01831,211.387414 270.425503,211.416524 271.957261,211.544609 C273.485126,211.676575 275.127824,211.930803 276.873677,212.373276 C278.615638,212.81769 280.470486,213.429002 282.407079,214.317831 C283.378295,214.744779 284.365082,215.264879 285.377171,215.812149 C286.385368,216.386588 287.41692,216.9979 288.462096,217.686839 C290.554396,219.056954 292.708977,220.667713 294.935573,222.44925 C297.168008,224.228847 299.468564,226.181164 301.948182,228.178117 C304.421961,230.169247 307.10205,232.230242 310.177244,234.060297 C313.221296,235.884529 316.855085,237.44483 320.613438,238.028973 C322.479964,238.320074 324.34065,238.399641 326.070933,238.248269 C327.795377,238.094956 329.406934,237.796092 330.835537,237.367203 C333.727776,236.536595 335.964103,235.348903 337.817004,234.262127 C339.660174,233.157884 341.084884,232.084692 342.237108,231.199745 C343.367923,230.295391 344.224306,229.575401 344.780955,229.066945 C345.347336,228.568192 345.64707,228.300379 345.64707,228.300379 C347.206076,226.914739 347.714067,224.609219 346.735065,222.656902 C345.565324,220.322273 342.717851,219.373284 340.374475,220.541569 L340.154541,220.652187 C340.154541,220.652187 339.845075,220.807441 339.26507,221.096601 C338.688958,221.395465 337.834521,221.787481 336.76015,222.259064 C335.681886,222.701538 334.375902,223.221638 332.92589,223.621417 C331.481717,224.009551 329.881838,224.329762 328.381221,224.29289 C326.865034,224.275424 325.533748,223.961035 324.334811,223.303146 C323.130036,222.653021 321.901905,221.667159 320.496659,220.163138 C319.099197,218.674641 317.600527,216.759197 316.006487,214.564296 C314.412447,212.375217 312.717198,209.939672 310.86235,207.416798 C309.007502,204.895863 306.981378,202.28954 304.735319,199.745317 C303.616182,198.472236 302.425031,197.222442 301.202739,195.999818 C299.959038,194.786898 298.690034,193.595325 297.349016,192.475556 C296.20847,191.501339 295.023158,190.5834 293.818382,189.706216 C294.018854,189.690691 294.219325,189.679047 294.417851,189.661581 C296.194845,189.483039 297.981572,189.201641 299.746888,188.757227 C301.521937,188.349686 303.260005,187.742255 304.964985,187.043613 C308.349645,185.605574 311.580544,183.686249 314.408554,181.341916 C317.240457,179.001464 319.741485,176.311691 321.773448,173.406504 C323.799572,170.499376 325.416968,167.42535 326.680133,164.326095 C329.198677,158.11206 330.354794,151.847568 330.755737,145.934337 C330.934799,142.976752 330.930907,140.079327 330.78104,137.280877 C330.75963,136.574472 330.689562,135.891355 330.640904,135.198535 C330.598085,134.626036 330.55332,134.057419 330.506608,133.488802 L330.43654,132.607736 L330.39956,132.171085 C330.393721,132.085695 330.391775,132.039119 330.391775,132.006128 L330.387882,131.879984 C330.382043,131.538425 330.348956,131.251206 330.343117,130.866952 C330.296405,127.610503 330.677884,124.643214 331.549838,121.854467 C331.978029,120.459123 332.548303,119.125881 333.163341,117.812045 C333.782273,116.49821 334.494628,115.232891 335.267319,114.01997 C336.030278,112.803169 336.894446,111.665934 337.735259,110.55781 C338.574125,109.449686 339.449971,108.411426 340.314139,107.441089 C342.0561,105.508179 343.696852,103.804268 345.125455,102.42639 C346.559896,101.058216 347.714067,99.9403881 348.517899,99.1990511 C349.331463,98.457714 349.765493,98.0618167 349.765493,98.0618167 C351.285573,96.6567695 351.896719,94.4114109 351.116243,92.3601195" id="Fill-64" fill="#67F84A"></path>
                    <path d="M165.328627,280.938999 C165.262452,275.57886 171.761231,274.162169 177.053288,272.108937 C185.81175,268.712759 190.650314,259.395588 191.298441,241.436601 C191.946567,223.475672 191.389918,219.594326 194.725919,201.301543 C198.06192,183.00876 216.407979,132.013696 216.407979,132.013696 L251.984853,196.867105 C251.984853,196.867105 228.636738,186.890106 219.742033,202.9647 C213.404799,214.420492 214.739978,248.417201 206.956625,261.167423 C199.496361,273.385899 190.872195,281.154413 176.936509,282.784579 C166.969379,283.950923 165.328627,280.938999 165.328627,280.938999" id="Fill-66" fill="#A5F894"></path>
                    <path d="M165.328627,280.938999 C165.262452,275.57886 171.761231,274.162169 177.053288,272.108937 C185.81175,268.712759 190.650314,259.395588 191.298441,241.436601 C191.946567,223.475672 191.389918,219.594326 194.725919,201.301543 C198.06192,183.00876 216.407979,132.013696 216.407979,132.013696 L251.984853,196.867105 C251.984853,196.867105 228.636738,186.890106 219.742033,202.9647 C213.404799,214.420492 214.739978,248.417201 206.956625,261.167423 C199.496361,273.385899 190.872195,281.154413 176.936509,282.784579 C166.969379,283.950923 165.328627,280.938999 165.328627,280.938999 Z" id="Stroke-68" stroke="#A5F894"></path>
                    <path d="M275.334913,113.443979 C275.334913,137.781958 255.546627,157.51084 231.137766,157.51084 C206.728905,157.51084 186.942565,137.781958 186.942565,113.443979 C186.942565,89.1059991 206.728905,69.3771178 231.137766,69.3771178 C255.546627,69.3771178 275.334913,89.1059991 275.334913,113.443979" id="Fill-70" fill="#A5F894"></path>
                    <path d="M230.016488,113.709269 C230.016488,127.480284 218.821227,138.643035 205.010105,138.643035 C191.20093,138.643035 180.005669,127.480284 180.005669,113.709269 C180.005669,99.9401941 191.20093,88.7755025 205.010105,88.7755025 C218.821227,88.7755025 230.016488,99.9401941 230.016488,113.709269" id="Fill-72" fill="#A5F894"></path>
                    <path d="M272.766153,91.0618093 C272.766153,114.59635 253.629886,133.675106 230.026804,133.675106 C206.423721,133.675106 187.2894,114.59635 187.2894,91.0618093 C187.2894,67.5253276 206.423721,48.4465717 230.026804,48.4465717 C253.629886,48.4465717 272.766153,67.5253276 272.766153,91.0618093" id="Fill-74" fill="#A5F894"></path>
                    <path d="M282.748659,113.155983 C282.748659,126.926998 271.553398,138.089749 257.742276,138.089749 C243.933101,138.089749 232.73784,126.926998 232.73784,113.155983 C232.73784,99.3869082 243.933101,88.2222166 257.742276,88.2222166 C271.553398,88.2222166 282.748659,99.3869082 282.748659,113.155983" id="Fill-76" fill="#A5F894"></path>
                    <path d="M205.83087,107.239259 C206.992826,107.239259 207.936794,108.180486 207.936794,109.339067 L207.936794,114.043259 C207.936794,115.20184 206.992826,116.143067 205.83087,116.143067 C204.668914,116.143067 203.724947,115.20184 203.724947,114.043259 L203.724947,109.339067 C203.717162,108.180486 204.661129,107.239259 205.83087,107.239259" id="Fill-78" fill="#535A80"></path>
                    <path d="M258.115581,107.239259 C259.277537,107.239259 260.221505,108.180486 260.221505,109.339067 L260.221505,114.043259 C260.221505,115.20184 259.277537,116.143067 258.115581,116.143067 C256.953625,116.143067 256.009658,115.20184 256.009658,114.043259 L256.009658,109.339067 C256.009658,108.180486 256.94584,107.239259 258.115581,107.239259" id="Fill-80" fill="#535A80"></path>
                    <path d="M263.792038,92.6688806 C263.792038,92.6688806 261.90021,89.7578712 258.114608,89.7578712 C254.330953,89.7578712 252.439125,92.6688806 252.439125,92.6688806" id="Stroke-82" stroke="#48D92B" stroke-width="2" stroke-linecap="round" stroke-linejoin="round"></path>
                    <path d="M211.507327,102.381755 C211.507327,102.381755 209.615499,99.4707453 205.829897,99.4707453 C202.046242,99.4707453 200.154414,102.381755 200.154414,102.381755" id="Stroke-84" stroke="#48D92B" stroke-width="2" stroke-linecap="round" stroke-linejoin="round"></path>
                    <path d="M198.061725,137.001226 C198.061725,137.001226 195.103311,153.729827 190.835021,161.391603 C188.053722,166.381074 181.08004,172.401041 171.073983,170.184793 C159.678251,167.659977 149.847363,159.064737 149.775349,151.728993 C149.69555,143.653853 142.554484,140.661335 141.400313,150.748953 C140.244196,160.836571 154.960359,185.787803 180.272315,186.335073 C205.845079,186.890106 216.962487,174.141825 225.302489,148.08829 C233.640545,122.034756 198.061725,137.001226 198.061725,137.001226" id="Fill-86" fill="#A5F894"></path>
                    <path d="M198.061725,137.001226 C198.061725,137.001226 195.103311,153.729827 190.835021,161.391603 C188.053722,166.381074 181.08004,172.401041 171.073983,170.184793 C159.678251,167.659977 149.847363,159.064737 149.775349,151.728993 C149.69555,143.653853 142.554484,140.661335 141.400313,150.748953 C140.244196,160.836571 154.960359,185.787803 180.272315,186.335073 C205.845079,186.890106 216.962487,174.141825 225.302489,148.08829 C233.640545,122.034756 198.061725,137.001226 198.061725,137.001226 Z" id="Stroke-88" stroke="#A5F894"></path>
                    <path d="M223.633905,195.759757 C223.633905,195.759757 228.966835,192.353876 235.307962,197.976006 C240.311963,202.410443 245.175829,218.741206 247.608735,235.722095 C249.883989,251.59874 258.658022,269.482042 269.218781,275.024604 C279.783433,280.567166 294.297178,284.079784 294.822686,280.939775 C295.348194,277.795885 293.985766,276.763447 284.785488,270.592107 C275.58521,264.416885 269.234352,259.351729 268.671864,233.651397 C268.10743,207.953005 270.332079,185.780817 260.880725,164.718693 C251.429371,143.652688 233.085259,141.991472 233.085259,141.991472 L223.633905,195.759757 Z" id="Fill-90" fill="#A5F894"></path>
                    <path d="M223.633905,195.759757 C223.633905,195.759757 228.966835,192.353876 235.307962,197.976006 C240.311963,202.410443 245.175829,218.741206 247.608735,235.722095 C249.883989,251.59874 258.658022,269.482042 269.218781,275.024604 C279.783433,280.567166 294.297178,284.079784 294.822686,280.939775 C295.348194,277.795885 293.985766,276.763447 284.785488,270.592107 C275.58521,264.416885 269.234352,259.351729 268.671864,233.651397 C268.10743,207.953005 270.332079,185.780817 260.880725,164.718693 C251.429371,143.652688 233.085259,141.991472 233.085259,141.991472 L223.633905,195.759757 Z" id="Stroke-92" stroke="#A5F894"></path>
                    <path d="M265.327689,133.675106 C265.327689,133.675106 264.216337,145.317203 266.43904,150.857825 C268.66369,156.402327 275.00287,165.069373 288.344927,163.959308 C301.686985,162.851184 305.519299,151.410916 307.187299,138.105663 C308.8553,124.80429 308.689862,122.03495 313.137215,112.05795 C317.584567,102.08095 338.153329,88.7756966 345.38198,87.6675723 C352.608685,86.5613887 352.402374,89.8450074 351.115853,92.3601195 C349.829333,94.8752317 337.041978,97.0914802 331.483274,106.515388 C325.92457,115.937355 324.811272,119.816761 324.811272,127.577512 C324.811272,135.338263 325.461344,154.213248 318.649207,164.401781 C311.858479,174.557323 300.351806,183.563986 277.558395,182.455862 C256.983794,181.454475 234.75287,172.476921 226.969516,160.836765 C219.186163,149.196609 244.758926,132.01389 244.758926,132.01389 L265.327689,133.675106 Z" id="Fill-94" fill="#A5F894"></path>
                    <path d="M265.327689,133.675106 C265.327689,133.675106 264.216337,145.317203 266.43904,150.857825 C268.66369,156.402327 275.00287,165.069373 288.344927,163.959308 C301.686985,162.851184 305.519299,151.410916 307.187299,138.105663 C308.8553,124.80429 308.689862,122.03495 313.137215,112.05795 C317.584567,102.08095 338.153329,88.7756966 345.38198,87.6675723 C352.608685,86.5613887 352.402374,89.8450074 351.115853,92.3601195 C349.829333,94.8752317 337.041978,97.0914802 331.483274,106.515388 C325.92457,115.937355 324.811272,119.816761 324.811272,127.577512 C324.811272,135.338263 325.461344,154.213248 318.649207,164.401781 C311.858479,174.557323 300.351806,183.563986 277.558395,182.455862 C256.983794,181.454475 234.75287,172.476921 226.969516,160.836765 C219.186163,149.196609 244.758926,132.01389 244.758926,132.01389 L265.327689,133.675106 Z" id="Stroke-96" stroke="#A5F894"></path>
                    <path d="M294.792518,191.324931 L280.893812,192.433056 C280.893812,192.433056 298.126573,212.388996 305.355224,219.039682 C312.581928,225.692309 323.144634,231.23293 333.707339,226.800433 C344.270045,222.365995 346.734092,222.657096 346.734092,222.657096 C346.734092,222.657096 346.490801,220.935719 339.266043,221.096795 C332.039339,221.257871 320.365282,220.149747 310.913928,206.291401 C301.462574,192.433056 294.792518,191.324931 294.792518,191.324931" id="Fill-98" fill="#A5F894"></path>
                    <path d="M294.792518,191.324931 L280.893812,192.433056 C280.893812,192.433056 298.126573,212.388996 305.355224,219.039682 C312.581928,225.692309 323.144634,231.23293 333.707339,226.800433 C344.270045,222.365995 346.734092,222.657096 346.734092,222.657096 C346.734092,222.657096 346.490801,220.935719 339.266043,221.096795 C332.039339,221.257871 320.365282,220.149747 310.913928,206.291401 C301.462574,192.433056 294.792518,191.324931 294.792518,191.324931 Z" id="Stroke-100" stroke="#A5F894" stroke-linecap="round" stroke-linejoin="round"></path>
                    <path d="M119.35721,125.675652 L119.35721,119.056017 L119.35721,104.611588 C119.35721,104.611588 119.948893,99.181585 123.569057,99.181585 C127.191168,99.181585 126.803849,104.925977 133.557597,104.925977 C136.926685,104.924036 142.736465,103.200719 142.736465,92.808415 C142.736465,82.4083486 136.926685,81.1624365 133.557597,81.1624365 C126.803849,81.1624365 127.191168,86.5885581 123.569057,86.5885581 C119.948893,86.5885581 119.35721,81.005242 119.35721,81.005242 L119.35721,72.3634253 C119.35721,69.0856287 116.725779,66.4269067 113.469577,66.4269067 L97.891192,66.4269067 C97.891192,66.4269067 92.7567868,65.5419599 92.7567868,61.9284268 C92.7567868,58.3187751 98.35831,58.0800723 98.35831,51.3498185 C98.35831,47.9924543 96.4762137,42.6633663 86.049751,42.6633663 C75.6232882,42.6633663 74.2122026,47.9924543 74.2122026,51.3498185 C74.2122026,58.0800723 79.3446615,58.3168344 79.3446615,61.9284268 C79.3446615,65.5419599 74.2122026,66.4269067 74.2122026,66.4269067 L59.8132906,66.4269067 C57.8455561,66.4269067 56.1152732,67.4108279 55.0467408,68.9070868 C54.3519028,69.8832453 53.9314966,71.0709371 53.9314966,72.3634253 L53.9470672,83.9570056 C53.9470672,83.9570056 53.3145116,92.903508 60.5334309,92.903508 C65.0780996,92.903508 65.3505851,86.7962102 71.3355343,86.7981508 C74.3134115,86.7962102 77.3438395,89.5888385 77.3438395,95.7601786 C77.3438395,101.927637 74.3134115,105.024951 71.3355343,105.024951 C65.3525314,105.024951 65.0780996,98.9292975 60.5334309,98.9292975 C53.3145116,98.9292975 53.9470672,107.563352 53.9470672,107.563352 L53.9314966,125.675652 C53.9314966,128.951508 56.5648743,131.612171 59.8132906,131.612171 L79.233721,131.612171 C79.233721,131.612171 88.6188999,132.237068 88.6188999,125.041052 C88.6188999,120.5057 82.6962331,119.665388 82.6962331,113.693937 C82.6962331,110.726648 85.9991465,107.054895 92.1904062,107.054895 C98.3816659,107.054895 102.054381,110.726648 102.054381,113.693937 C102.054381,119.665388 96.3127224,120.5057 96.3127224,125.041052 C96.3127224,132.237068 105.70374,131.612171 105.70374,131.612171 L113.469577,131.612171 C116.725779,131.612171 119.35721,128.951508 119.35721,125.675652" id="Fill-102" fill="#E1E1E6"></path>
                    <path d="M173.600508,191.324931 L182.495213,194.651245 C182.495213,194.651245 184.163213,197.422526 176.37986,205.183277 C168.598453,212.942088 156.367747,226.245401 143.580392,227.353525 C130.794983,228.46359 114.362162,221.636302 114.362162,221.636302 C114.362162,221.636302 115.784925,217.376525 119.675629,217.931558 C123.568279,218.484649 134.234139,224.10872 142.797969,221.296685 C151.363745,218.484649 159.431262,207.092899 173.600508,191.324931" id="Fill-104" fill="#A5F894"></path>
                    <path d="M173.600508,191.324931 L182.495213,194.651245 C182.495213,194.651245 184.163213,197.422526 176.37986,205.183277 C168.598453,212.942088 156.367747,226.245401 143.580392,227.353525 C130.794983,228.46359 114.362162,221.636302 114.362162,221.636302 C114.362162,221.636302 115.784925,217.376525 119.675629,217.931558 C123.568279,218.484649 134.234139,224.10872 142.797969,221.296685 C151.363745,218.484649 159.431262,207.092899 173.600508,191.324931 Z" id="Stroke-106" stroke="#A5F894" stroke-linecap="round" stroke-linejoin="round"></path>
                    <path d="M331.810646,131.96188 C331.806753,131.78722 331.797021,131.624203 331.78729,131.455365 C331.777558,131.300111 331.769773,131.140976 331.76588,130.958552 C331.719168,127.771967 332.098702,124.946347 332.929782,122.316736 C333.385222,120.849587 334.004154,119.469768 334.494628,118.431508 C335.059062,117.237994 335.746115,116.007608 336.542162,114.77334 C337.277872,113.612817 338.122577,112.504693 338.96339,111.406272 C339.695208,110.443698 340.524342,109.450074 341.487773,108.376882 C343.149935,106.548768 344.798472,104.844857 346.248484,103.457276 L347.519434,102.250177 C348.371925,101.440916 349.080387,100.767503 349.625358,100.270691 L350.876845,99.1373377 C352.648,97.5110537 353.288341,95.0755091 352.591557,92.8262692 C353.395389,91.0757822 353.440155,89.5795233 352.655786,88.5005091 C351.593092,87.0508264 349.310053,86.614175 345.682103,87.1692075 C338.500164,88.2598657 317.337773,101.598111 312.697735,111.926372 C310.996647,115.708744 309.961202,118.450915 309.241061,121.11934 C308.223133,124.152612 307.48353,127.306206 307.127353,130.496672 C307.059231,131.061408 307.012519,131.676601 306.965808,132.284032 L306.765336,135.36388 L306.777014,135.561829 L306.714732,137.131833 C306.706946,137.430697 306.695268,137.733442 306.666074,138.061415 C305.120691,150.277952 301.874221,161.720159 288.773508,162.836046 C287.775044,162.775885 286.720135,162.692437 285.708046,162.399395 C283.639103,161.859888 281.675261,160.833272 280.02867,159.424343 C279.238462,158.758692 278.481342,157.976601 277.778719,157.113002 C277.204553,156.400775 276.661528,155.595396 276.048436,154.562957 C275.937495,154.341721 275.820716,154.130187 275.70199,153.918654 C275.571586,153.681892 275.441182,153.449011 275.328295,153.198664 C275.20957,152.942496 275.073327,152.69603 274.962386,152.501963 L274.489429,151.558796 C274.421308,151.432652 274.353187,151.308449 274.304529,151.211415 C274.205266,150.992119 274.096272,150.776705 273.95419,150.510832 C273.738148,150.09941 273.531838,149.69575 273.319688,149.270742 C273.13868,148.942769 272.975189,148.622558 272.817536,148.313991 C272.591763,147.869576 272.375721,147.44845 272.175249,147.114655 C272.068201,146.908943 271.951422,146.714876 271.791823,146.458707 C271.641956,144.65 271.521284,142.732615 271.431753,140.743425 C282.198823,137.772255 289.649354,128.109644 289.649354,116.974063 C289.649354,109.681014 286.435972,102.842082 280.814985,98.1340097 C280.859751,97.2723509 280.885053,96.4068108 280.885053,95.5315673 C280.885053,68.0923923 258.317415,45.7707718 230.576446,45.7707718 C202.837423,45.7707718 180.269785,68.0923923 180.269785,95.5315673 C180.269785,96.4068108 180.295087,97.2723509 180.339853,98.1340097 C174.718866,102.842082 171.505484,109.681014 171.505484,116.974063 C171.505484,128.134873 178.975479,137.807187 189.769797,140.760891 C189.468117,149.790843 188.70905,157.437094 187.45367,164.109128 C186.346211,165.116337 185.114188,165.991581 183.784848,166.715452 C183.047191,167.124934 182.183022,167.509187 181.07751,167.924491 C180.230858,168.227236 179.294676,168.485345 178.13272,168.737633 L177.506003,168.737633 L177.504057,168.838548 L174.897928,169.121886 C173.605568,169.166522 172.618781,169.129649 171.690384,169.026793 C166.246514,167.823576 161.127679,165.18232 157.365433,161.984091 C156.664756,161.273805 156.020522,160.54023 155.440517,159.781427 C154.368092,158.388024 153.433856,156.880121 152.665058,155.29071 C152.083107,154.110781 151.600418,152.859047 151.183905,151.477287 C151.137193,149.455106 150.652558,147.656102 149.875974,146.260759 C149.823424,146.15014 149.768926,146.037581 149.706644,145.930844 C149.669664,145.872624 149.628791,145.820226 149.589865,145.760065 C149.469192,145.577642 149.338789,145.40104 149.190868,145.236083 C148.316968,144.145425 147.221187,143.452605 145.99111,143.390503 C145.545401,143.355571 144.615058,143.425435 143.657466,144.147366 C143.342162,144.300679 143.040481,144.481161 142.764103,144.70628 C141.810404,145.488371 141.218721,146.586792 141.101941,147.805534 L140.981269,149.055328 C140.928719,149.488098 140.90147,150.027605 140.876168,150.662205 L140.839188,151.684939 L140.846973,152.804708 C140.846973,152.814411 140.848919,152.824115 140.848919,152.833818 C140.848919,152.851284 140.848919,152.864869 140.850866,152.880394 C140.887846,154.902575 141.068854,156.796672 141.407515,158.655837 C141.861008,161.194237 142.581148,163.709349 143.548472,166.129368 C144.667609,168.941403 146.19742,171.716566 148.102872,174.386932 C149.23758,175.945292 150.333361,177.274653 151.444712,178.437116 C152.655326,179.741249 154.035271,181.020152 155.53978,182.236954 C158.605242,184.724897 162.065808,186.778129 165.820268,188.33843 C167.608941,189.08947 169.56889,189.737655 171.838305,190.325679 L172.114683,190.389721 C171.493806,190.997152 170.88266,191.614286 170.283191,192.237242 C168.550962,194.024602 166.713632,196.044842 164.50066,198.589064 C163.523605,199.708833 162.556281,200.834423 161.592851,201.954191 C158.836854,205.156302 156.236564,208.181811 153.552582,210.966677 C151.575116,213.02379 149.802014,214.698591 148.122336,216.091994 C146.339502,217.58049 144.570293,218.82058 142.85558,219.788976 C136.893987,221.679191 129.632249,219.280519 124.815094,217.685286 C122.899911,217.050686 121.38567,216.548052 120.26264,216.388917 C116.663885,215.892104 114.592996,218.816699 113.948762,220.565245 C112.031632,222.901815 112.290493,226.344569 114.594942,228.351225 L115.463003,229.104206 C116.029383,229.614603 116.897444,230.321008 118.146985,231.281641 C119.342029,232.145241 120.829021,233.220373 122.73058,234.270277 C125.00778,235.549181 127.259678,236.533102 129.614732,237.280261 C132.654891,238.235072 135.753441,238.770698 138.818902,238.871613 C140.397372,238.931774 142.084836,238.875494 143.99418,238.695012 C145.919096,238.475716 147.627969,238.182674 149.21617,237.800362 C152.456801,237.041558 155.82589,235.875214 159.224173,234.332379 C162.044398,233.063179 164.996973,231.502878 168.249282,229.558323 C172.441666,227.047093 176.382974,224.363142 179.85911,222.001343 C181.102812,221.153269 182.309533,220.332364 183.481221,219.550273 C185.995873,217.859947 187.975285,216.594628 189.7153,215.564131 C190.521078,215.080903 191.311286,214.644252 192.089816,214.23477 C191.932164,215.571893 191.803706,216.839153 191.694712,218.077302 C191.410549,220.169348 191.180882,222.288563 191.067996,224.44271 C190.94927,226.474594 190.904504,228.520063 190.923968,230.691677 L190.968733,233.311585 L190.914236,234.237286 L190.972626,234.241167 L190.966787,234.691403 C190.914236,236.496229 190.8539,238.440784 190.776047,240.608515 C190.682623,242.201808 190.503561,243.746584 190.343963,245.042953 C190.131813,246.64983 189.904093,248.025767 189.643286,249.260035 C189.337713,250.752413 189.022408,252.04102 188.679855,253.187957 C188.294483,254.46298 187.874076,255.679782 187.434207,256.803431 C186.951518,258.037699 186.377353,259.186578 185.935537,260.048236 C185.411975,261.051564 184.831971,262.016079 184.205254,262.920432 C183.586323,263.840311 182.944035,264.686445 182.301748,265.425841 C181.490131,266.351542 180.857575,267.015252 180.252268,267.579988 C179.553537,268.230114 178.850914,268.822019 178.163861,269.357645 C177.723992,269.695322 177.262713,270.003889 176.805326,270.316337 C176.153308,270.560862 175.491557,270.801505 174.822021,271.040208 C170.10413,272.71695 164.757575,274.62075 164.806233,279.833397 C164.806233,279.837279 164.804287,279.84116 164.804287,279.845041 L164.804287,279.848923 L164.804287,279.856685 L164.808179,280.095388 L164.835428,280.145846 C164.996973,283.512913 167.793842,286.206567 171.234944,286.206567 L171.236891,286.206567 C171.306958,286.210449 171.425684,286.227915 171.593068,286.249262 C172.525358,286.369584 174.703295,286.654863 177.969229,286.453033 C180.507236,286.290016 182.928465,285.894119 185.361371,285.242053 C186.871719,284.848096 188.370389,284.355165 189.812616,283.778785 C191.581825,283.07238 193.133046,282.342687 194.551917,281.550893 C196.249113,280.611607 197.872348,279.577228 199.38075,278.472986 C200.998146,277.27559 202.570776,275.950111 204.055822,274.533419 C205.466908,273.194355 206.881886,271.647639 208.382502,269.800118 C209.752715,268.117555 211.039236,266.310788 212.205085,264.430276 C214.560138,260.669252 216.543443,256.634593 218.09661,252.44662 C218.867355,250.410854 219.569978,248.281936 220.179178,246.12973 C220.428308,245.289419 220.642403,244.452988 220.854553,243.612677 L221.177643,242.296901 C221.382007,241.437183 221.586371,240.575524 221.763486,239.638179 L222.34933,236.667009 L222.946852,234.002465 C223.349741,232.354833 223.744845,230.765422 224.165251,229.257519 C225.002171,226.208722 225.891642,223.52089 226.802522,221.273591 C227.277425,220.136356 227.728972,219.084512 228.170788,218.1297 C228.626228,217.180711 229.062205,216.322934 229.474826,215.544724 C229.864091,214.848022 230.206644,214.248354 230.523895,213.718551 C230.841146,214.246414 231.181753,214.84026 231.565179,215.529199 C231.985585,216.320993 232.423508,217.180711 232.873109,218.118056 C233.318818,219.082571 233.772311,220.136356 234.243322,221.267769 C235.158095,223.52089 236.045619,226.208722 236.884485,229.261401 C237.302945,230.765422 237.698049,232.354833 238.100938,233.996643 L238.398726,235.250317 L238.710138,237.022152 L238.770474,237.01827 L239.284304,239.632357 C239.463366,240.575524 239.66773,241.437183 239.872094,242.296901 L240.179613,243.558338 C240.397602,244.416116 240.61559,245.273893 240.866666,246.116145 C241.479758,248.278055 242.180435,250.406973 242.949234,252.438858 C244.50824,256.636533 246.491545,260.671192 248.842706,264.426395 C250.0105,266.310788 251.297021,268.117555 252.665288,269.800118 C254.158119,271.637935 255.573097,273.186592 256.991968,274.533419 C258.482853,275.953992 260.05743,277.279472 261.67288,278.476867 C263.177389,279.577228 264.800624,280.611607 266.495873,281.548952 C267.91669,282.342687 269.467911,283.07238 271.235174,283.776845 C272.681294,284.355165 274.178017,284.848096 275.68058,285.240112 C278.121272,285.894119 280.5425,286.290016 283.0844,286.453033 C283.888233,286.50349 284.62589,286.522897 285.297372,286.522897 C287.342959,286.522897 288.754045,286.340474 289.456668,286.249262 C289.624052,286.227915 289.742778,286.210449 289.812846,286.206567 C293.298714,286.206567 296.130617,283.44693 296.225986,280.021643 C296.227933,280.015821 296.229879,280.009999 296.231825,280.004177 C296.878005,276.171347 294.746779,274.752715 285.778114,268.783205 C277.33301,263.161076 270.662955,258.718875 270.092681,232.917628 C270.092681,232.876874 270.092681,232.838061 270.090735,232.795366 L270.127715,230.689736 C270.145232,228.628741 270.09852,226.592975 269.991472,224.634836 C269.981741,222.59907 269.975902,220.573008 269.973956,218.591581 C269.972009,216.330697 269.968117,214.083397 269.952546,211.853564 C270.72913,211.867149 271.515445,211.8982 272.321223,211.966123 C273.928888,212.105852 275.530713,212.371724 277.079988,212.761799 C278.995172,213.246967 280.750757,213.858279 282.461576,214.63843 C283.358832,215.030446 284.269712,215.500089 285.344084,216.078409 C286.334763,216.635382 287.346852,217.231169 288.376458,217.904582 C290.266339,219.131088 292.360585,220.658397 294.777921,222.575782 C295.95934,223.511187 297.158276,224.495108 298.396139,225.506198 C299.493866,226.40473 300.618842,227.32655 301.784691,228.258073 C304.25847,230.231737 306.983324,232.314079 310.122747,234.167422 C312.61015,235.644274 316.500853,237.548074 320.911226,238.22731 C322.884799,238.535877 324.799983,238.611563 326.606173,238.456309 C328.402631,238.297174 330.070631,237.990548 331.555677,237.546133 C334.570534,236.686415 336.888607,235.45991 338.766811,234.369252 C340.617766,233.26695 342.069724,232.189876 343.295909,231.254472 C344.446187,230.340415 345.318141,229.612662 345.878682,229.110028 L346.744797,228.347344 C348.624947,226.69195 349.169918,224.004117 348.118902,221.756818 C348.062459,221.525878 347.930109,221.27165 347.680979,221.015481 C346.110295,218.67503 342.994229,217.784261 340.384207,219.072867 L339.479166,219.521163 C332.001385,219.65701 321.111697,218.267488 312.168334,205.255276 C305.977074,196.248613 300.91663,192.545809 298.026337,191.030143 C297.629287,190.700229 297.23029,190.370314 296.802099,190.034578 C298.08278,189.854095 299.277824,189.623155 300.414478,189.337876 C302.059122,188.965267 303.814707,188.392769 305.79412,187.587389 C309.371465,186.081427 312.629613,184.12911 315.479033,181.786718 C318.404359,179.388046 320.940421,176.673045 323.021042,173.723222 C324.988777,170.922831 326.674294,167.827457 328.030882,164.526372 C330.323653,158.915887 331.717222,152.678564 332.174608,145.981302 C332.349778,143.12075 332.359509,140.194215 332.201857,137.312316 C332.188233,136.819385 332.151252,136.340038 332.112326,135.858751 L331.820377,132.19088" id="Stroke-108" stroke="#00B300" stroke-linecap="round" stroke-linejoin="round"></path>
                    <path d="M260.259458,177.501518 C260.259458,177.501518 275.343477,188.175219 293.346983,185.26421" id="Stroke-110" stroke="#67F84A" stroke-width="2" stroke-linecap="round" stroke-linejoin="round"></path>
                    <path d="M292.367203,224.807168 C295.033668,226.749782 298.046579,227.157323 299.099541,225.721225 C300.152502,224.281246 298.846518,221.542956 296.180053,219.600342 C293.515534,217.659669 290.500677,217.250187 289.447715,218.690167 C288.394753,220.126265 289.700737,222.864554 292.367203,224.807168 M338.076644,236.424036 C340.922171,234.758939 342.498694,232.162318 341.593653,230.627246 C340.688612,229.092174 337.648453,229.200852 334.802926,230.865949 C331.955452,232.532987 330.380875,235.129607 331.285916,236.66468 C332.190957,238.199752 335.229171,238.093015 338.076644,236.424036 M338.224565,103.872192 C335.818907,106.129194 334.861315,109.007212 336.085554,110.303582 C337.309792,111.599951 340.250689,110.823682 342.6544,108.56862 C345.058112,106.309677 346.013757,103.431659 344.793412,102.135289 C343.569173,100.83892 340.628276,101.615189 338.224565,103.872192 M326.030839,151.498247 C325.191973,154.68095 325.910167,157.628833 327.636557,158.081009 C329.364894,158.535127 331.443569,156.320819 332.284381,153.138115 C333.123247,149.955412 332.405053,147.005589 330.680609,146.553412 C328.952273,146.099295 326.871651,148.313602 326.030839,151.498247 M312.283946,179.172243 C309.631105,181.128442 308.338745,183.876434 309.397546,185.30671 C310.458293,186.740868 313.47315,186.31392 316.127938,184.357721 C318.782725,182.401523 320.075085,179.655471 319.012391,178.225195 C317.95359,176.792978 314.940679,177.217986 312.283946,179.172243 M313.000193,237.677711 C316.063709,238.904216 319.086352,238.560717 319.751995,236.909205 C320.417638,235.257692 318.475206,232.923062 315.41169,231.694616 C312.348175,230.468111 309.325532,230.81161 308.659889,232.463123 C307.994246,234.114635 309.936678,236.449265 313.000193,237.677711 M173.680307,223.369129 C172.627345,221.933031 169.612488,222.340573 166.946023,224.281246 C164.279558,226.223859 162.973574,228.964089 164.028482,230.402128 C165.081443,231.838226 168.094354,231.430685 170.76082,229.488071 C173.427285,227.545457 174.735215,224.807168 173.680307,223.369129 M131.842106,238.747022 C132.747147,237.21195 131.17257,234.615329 128.327043,232.94635 C125.47957,231.279312 122.43941,231.172575 121.534369,232.707648 C120.629328,234.240779 122.203905,236.8374 125.051378,238.506378 C127.896905,240.173416 130.939011,240.282094 131.842106,238.747022 M151.18663,179.783555 C152.839059,179.108201 153.166042,176.092395 151.912609,173.045539 C150.663068,170.000623 148.308015,168.079357 146.657531,168.75277 C145.005102,169.426184 144.680065,172.44393 145.931552,175.488846 C147.181093,178.535702 149.536146,180.456969 151.18663,179.783555 M221.415873,236.777239 C219.736194,236.17563 217.470672,238.201693 216.357374,241.300947 C215.244076,244.400202 215.703409,247.398542 217.385034,247.99821 C219.064712,248.599818 221.330235,246.573756 222.443532,243.474501 C223.55683,240.375246 223.097498,237.378847 221.415873,236.777239 M207.540522,269.283511 C206.269572,268.031777 203.359816,268.916724 201.041743,271.261057 C198.721724,273.60539 197.873126,276.51834 199.144076,277.768133 C200.415027,279.019867 203.324782,278.13298 205.642855,275.790587 C207.960928,273.444314 208.811472,270.533304 207.540522,269.283511 M150.127829,238.717912 C147.064313,239.944417 144.041671,239.600918 143.376028,237.947465 C142.708438,236.297893 144.652817,233.963263 147.716332,232.734817 C150.779848,231.508312 153.80249,231.851811 154.468133,233.503323 C155.133777,235.154836 153.191344,237.489466 150.127829,238.717912" id="Fill-112" fill="#EEFF99"></path>
                    <path d="M188.732016,190.60106 C188.732016,190.60106 194.08441,189.630724 200.896547,186.234546 C205.376987,184.000832 210.628172,177.986686 210.628172,177.986686" id="Stroke-114" stroke="#67F84A" stroke-width="2" stroke-linecap="round" stroke-linejoin="round"></path>
                    <path d="M118.753654,233.735428 L115.929537,205.879008 C118.105528,204.885384 119.991517,203.410472 121.470724,201.603706 C123.975644,198.545205 125.310823,194.533834 124.880685,190.295404 C124.238398,183.968811 119.851382,178.925001 114.133079,177.125998 C114.027978,177.093006 113.924822,177.083303 113.823613,177.093006 C113.617303,177.114354 113.430456,177.21915 113.303945,177.376344 C113.17938,177.525776 113.111258,177.725666 113.132668,177.943021 L114.323819,189.699618 C114.388048,190.332277 114.187576,190.931945 113.813882,191.389944 C113.440187,191.846002 112.889377,192.162332 112.254875,192.224433 L106.844092,192.771703 C105.573142,192.899787 104.438434,191.974086 104.309977,190.706827 L103.11688,178.952171 C103.072114,178.509697 102.675064,178.218597 102.268282,178.259351 C102.167073,178.269054 102.063918,178.302045 101.966602,178.354444 C100.240212,179.311195 98.7259707,180.584277 97.4958934,182.090239 C94.9929195,185.146799 93.6577406,189.154289 94.0859321,193.394659 C94.7690921,200.167608 99.6952406,205.45012 105.98187,206.888158 L108.805988,234.746519 C106.633889,235.738202 104.745954,237.213114 103.264801,239.01988 C100.75988,242.078381 99.4266477,246.089752 99.8567855,250.330122 C100.499073,256.656716 104.886089,261.700525 110.604392,263.499529 C110.709493,263.532521 110.812649,263.540283 110.913858,263.532521 C111.120168,263.511173 111.307015,263.404436 111.435473,263.249182 C111.558091,263.09781 111.626213,262.897921 111.604803,262.680565 L110.413652,250.923968 C110.349423,250.291309 110.547949,249.691641 110.923589,249.233642 C111.297284,248.777584 111.848094,248.463195 112.482596,248.399153 L117.893379,247.851883 C119.164329,247.723799 120.299037,248.6495 120.427494,249.916759 L121.620591,261.671415 C121.665357,262.115829 122.062407,262.40499 122.471135,262.364236 C122.570398,262.354532 122.673553,262.323481 122.768923,262.269143 C124.497259,261.312391 126.0115,260.039309 127.241578,258.533347 C129.746498,255.476787 131.081677,251.469298 130.651539,247.230868 C129.966433,240.455978 125.040284,235.175407 118.753654,233.735428" id="Fill-116" fill="#C8C8CC"></path>
                </g>
                <g id="Group-125" transform="translate(96.590909, 177.272727)">
                    <g id="Group-121">
                        <mask id="mask-2" fill="white">
                            <use xlink:href="#path-1"></use>
                        </mask>
                        <g id="Clip-120"></g>
                        <path d="M25.5954127,56.94325 L22.7315969,29.0326944 C24.9381758,28.0390833 26.8506758,26.5613056 28.3506758,24.7510278 C30.8908074,21.6865833 32.2447548,17.6674167 31.8085706,13.4188056 C31.1572548,7.07991667 26.7085706,2.02630556 20.9098864,0.223805556 C20.8033074,0.19075 20.6987022,0.182972222 20.5960706,0.19075 C20.38686,0.212138889 20.1973864,0.319083333 20.0690969,0.474638889 C19.9427811,0.626305556 19.8737022,0.826583333 19.8954127,1.04436111 L21.1033074,12.8218611 C21.168439,13.4576944 20.9651495,14.0565833 20.5862022,14.5174167 C20.2072548,14.9743611 19.6487022,15.2893611 19.0052811,15.3535278 L13.518439,15.9018611 C12.2296232,16.02825 11.0789653,15.1026944 10.9487022,13.8329722 L9.73883373,2.05352778 C9.693439,1.61019444 9.29080742,1.32047222 8.87830742,1.36130556 C8.77567584,1.37102778 8.67107057,1.40213889 8.57238636,1.45658333 C6.82172847,2.41519444 5.28620215,3.69075 4.03883373,5.19769444 C1.50067584,8.26213889 0.146728469,12.2774167 0.580938995,16.5240833 C1.27370215,23.3101944 6.26909689,28.6029722 12.6440969,30.04575 L14.118439,44.41325 L24.2000179,43.4079722 L24.7822548,49.0779722 L14.7006758,50.08325 L15.5079127,57.9563056 C13.3052811,58.9499167 11.3908074,60.4276944 9.88883373,62.2399167 C7.34870215,65.3043611 5.99672847,69.3215833 6.43291268,73.5701944 C7.08422847,79.9090833 11.5329127,84.9626944 17.3315969,86.7651944 C17.4381758,86.79825 17.5427811,86.8079722 17.643439,86.79825 C17.8546232,86.7768611 18.0440969,86.6718611 18.17436,86.5143611 C18.2987022,86.3646389 18.3677811,86.1643611 18.3460706,85.9465833 L17.1381758,74.1671389 C17.0730443,73.53325 17.27436,72.9324167 17.6552811,72.4735278 C18.0342285,72.0146389 18.5927811,71.6996389 19.2362022,71.6354722 L24.7230443,71.0890833 C26.01186,70.96075 27.1625179,71.88825 27.2927811,73.1579722 L28.5026495,84.9354722 C28.5480443,85.3788056 28.9506758,85.6685278 29.3651495,85.6296389 C29.4658074,85.6179722 29.5704127,85.5868611 29.6671232,85.5343611 C31.4197548,84.57575 32.9552811,83.3001944 34.2026495,81.7913056 C36.7427811,78.7288056 38.0967285,74.7115833 37.6605443,70.4649167 C36.9658074,63.6788056 31.9704127,58.3860278 25.5954127,56.94325" id="Fill-119" fill="#E1E1E6" mask="url(#mask-2)"></path>
                    </g>
                    <g id="Group-124" transform="translate(13.815789, 42.777778)">
                        <mask id="mask-4" fill="white">
                            <use xlink:href="#path-3"></use>
                        </mask>
                        <g id="Clip-123"></g>
                        <polygon id="Fill-122" fill="#F6F6F8" mask="url(#mask-4)" points="10.9662679 6.30038889 10.3840311 0.630388889 0.302452153 1.63566667 0.292583732 1.63761111 0.874820574 7.30566667 0.884688995 7.30566667"></polygon>
                    </g>
                </g>
                <g id="Group-184" transform="translate(93.181818, 36.363636)">
                    <path d="M249.958108,72.2271405 L233.385907,21.787595 C232.661152,19.5851983 233.861952,17.2099504 236.069247,16.4855289 L242.549291,14.358876 C244.754643,13.6344545 247.12904,14.8347025 247.853794,17.0390413 L264.425995,67.4785868 C265.15075,69.6829256 263.94995,72.0581736 261.742655,72.7806529 L255.262612,74.9092479 C253.057259,75.6336694 250.68092,74.4334215 249.958108,72.2271405" id="Fill-126" fill="#C8C8CC"></path>
                    <path d="M235.907198,27.6202562 L248.449531,17.0102975 C249.096564,16.4645537 249.176228,15.4993058 248.630234,14.8545124 C248.084239,14.2077769 247.118547,14.1281488 246.471514,14.6738926 L233.927238,25.2838512 C233.282149,25.829595 233.202484,26.794843 233.748479,27.4415785 C233.884491,27.6027769 234.047707,27.7290165 234.226467,27.8202975 C234.75886,28.088314 235.42338,28.0300496 235.907198,27.6202562 M237.75503,33.244719 L250.297363,22.6367025 C250.944396,22.0890165 251.024061,21.1218264 250.478066,20.4770331 C249.932071,19.8322397 248.96638,19.7506694 248.319347,20.2964132 L235.777014,30.9063719 C235.129981,31.4540579 235.050316,32.4212479 235.596311,33.0660413 C235.732324,33.2272397 235.895539,33.3534793 236.074299,33.4428182 C236.60475,33.7127769 237.271213,33.6545124 237.75503,33.244719 M239.602863,38.8691818 L252.145196,28.2592231 C252.790285,27.7134793 252.871893,26.7482314 252.325899,26.1014959 C251.779904,25.4567025 250.812269,25.3751322 250.167179,25.9228182 L237.624846,36.5327769 C236.977814,37.0785207 236.898149,38.0437686 237.444144,38.688562 C237.580156,38.8497603 237.743372,38.9779421 237.920189,39.067281 C238.454525,39.3352975 239.117102,39.2789752 239.602863,38.8691818 M245.14636,55.7406281 L257.688693,45.1326116 C258.335726,44.5849256 258.415391,43.6177355 257.869396,42.9729421 C257.321458,42.3281488 256.355767,42.2465785 255.710677,42.7923223 L243.166401,53.402281 C242.521311,53.9499669 242.439703,54.917157 242.987641,55.5619504 C243.123654,55.7231488 243.286869,55.8493884 243.465629,55.9387273 C243.998023,56.208686 244.662543,56.1504215 245.14636,55.7406281 M246.994193,61.3650909 L259.536526,50.7551322 C260.183559,50.2093884 260.263223,49.2441405 259.717229,48.597405 C259.171234,47.9526116 258.205542,47.8729835 257.558509,48.4187273 L245.014233,59.028686 C244.369144,59.5744298 244.287536,60.5396777 244.835473,61.1844711 C244.971486,61.3476116 245.134702,61.4738512 245.313462,61.5631901 C245.843912,61.8312066 246.510375,61.7748843 246.994193,61.3650909 M248.842025,66.9895537 L261.384358,56.379595 C262.029448,55.8319091 262.111056,54.8666612 261.565061,54.2218678 C261.019066,53.5751322 260.051432,53.4955041 259.406342,54.0412479 L246.864009,64.6512066 C246.216976,65.1988926 246.137311,66.1641405 246.683306,66.810876 C246.819319,66.9720744 246.982534,67.0963719 247.161294,67.1876529 C247.691745,67.4576116 248.358208,67.3993471 248.842025,66.9895537 M249.007184,72.8121157 C248.830367,72.7227769 248.667151,72.594595 248.531138,72.4333967 C247.985144,71.7886033 248.064809,70.8214132 248.711841,70.2756694 L261.254174,59.6657107 C261.899264,59.1199669 262.866899,59.2015372 263.412894,59.8463306 C263.960831,60.491124 263.879223,61.458314 263.232191,62.0040579 L250.687915,72.6140165 C250.204097,73.0238099 249.54152,73.0801322 249.007184,72.8121157" id="Fill-128" fill="#737EB3"></path>
                    <path d="M257.13823,10.4405909 L254.78132,3.26823554 C254.056566,1.06195455 251.680226,-0.138293388 249.476817,0.586128099 L222.320868,9.50059091 C220.113573,10.2250124 218.914717,12.5983182 219.637528,14.802657 L221.994437,21.9750124 C222.719192,24.1793512 225.093589,25.3795992 227.300884,24.6551777 L254.454889,15.742657 C256.662184,15.0182355 257.861041,12.6449298 257.13823,10.4405909 M263.622159,43.6435661 L236.466211,52.5580289 C234.260859,53.2805083 231.884519,52.0802603 231.161707,49.8759215 L228.804798,42.701624 C228.080043,40.4992273 229.280843,38.1239793 231.486195,37.3995579 L258.642144,28.485095 C260.847496,27.7626157 263.223836,28.9628636 263.94859,31.1672025 L266.305499,38.3395579 C267.028311,40.5438967 265.829454,42.9191446 263.622159,43.6435661" id="Fill-130" fill="#95A2E6"></path>
                    <path d="M227.321869,7.85733884 L222.32048,9.50039669 C220.115128,10.2248182 218.914328,12.598124 219.637139,14.8024628 L221.994049,21.9767603 C222.718803,24.179157 225.095143,25.379405 227.300495,24.6549835 L232.301884,23.0158099 L227.321869,7.85733884 Z M241.469154,50.9147769 L236.467765,52.5578347 C234.26047,53.280314 231.886073,52.0800661 231.161319,49.8757273 L228.804409,42.7014298 C228.081598,40.4990331 229.280455,38.1237851 231.48775,37.3993636 L236.487196,35.7582479 L241.469154,50.9147769 Z" id="Fill-132" fill="#737EB3"></path>
                    <path d="M257.13823,10.4405909 L254.78132,3.26823554 C254.056566,1.06195455 251.680226,-0.138293388 249.476817,0.586128099 L244.473485,2.2272438 L249.4535,17.3837727 L254.454889,15.742657 C256.662184,15.0182355 257.861041,12.6449298 257.13823,10.4405909 M263.622159,43.6435661 L258.62077,45.2846818 L253.640755,30.1281529 L258.642144,28.485095 C260.847496,27.7626157 263.223836,28.9628636 263.94859,31.1672025 L266.305499,38.3395579 C267.028311,40.5438967 265.829454,42.9191446 263.622159,43.6435661" id="Fill-134" fill="#C8C8CC"></path>
                    <path d="M265.794674,49.4503967 C262.880112,48.4793223 250.897374,52.6879587 251.544407,59.4854793 C252.193383,66.283 263.202656,68.2251488 268.709236,64.6651901 C274.145866,61.1460165 273.56684,52.0412231 265.794674,49.4503967" id="Fill-136" fill="#67F84A"></path>
                    <path d="M297.126218,188.513298 L287.593657,190.447678 L276.592156,136.29086 C275.696413,131.884124 278.375868,127.57838 282.636958,126.37619 C282.975047,126.281025 283.322851,126.48495 283.400573,126.826769 L297.126218,188.513298 Z" id="Fill-138" fill="#C8C8CC"></path>
                    <path d="M307.211575,132.056198 C307.446684,131.780413 307.864437,131.762934 308.126748,132.015413 C311.30945,135.078182 311.643653,140.123884 308.787382,143.588678 L273.626103,186.236322 L266.120133,180.052521 L307.211575,132.056198 Z" id="Fill-140" fill="#E1E1E6"></path>
                    <path d="M253.320542,181.363083 C255.48509,178.735355 258.848495,177.472959 261.687278,178.216802 C262.528615,178.436264 263.290288,178.822752 263.950922,179.368496 C266.191249,181.213537 266.746958,184.456926 265.608336,187.457545 C265.126462,188.479116 264.42891,189.60362 263.430187,190.815521 C263.412699,190.836884 263.399098,190.86019 263.381611,190.879612 C261.228721,193.023744 258.226721,193.998702 255.654134,193.324777 C254.812797,193.105314 254.051125,192.716884 253.390491,192.173083 C252.016761,191.04081 251.227886,189.333661 251.167652,187.368207 C251.099645,185.259033 251.865203,183.126554 253.320542,181.363083 M245.451223,187.544942 C245.56392,191.180645 247.093093,194.391017 249.75506,196.583702 C251.058841,197.659653 252.554983,198.420975 254.204625,198.854074 C259.237103,200.172793 264.823347,198.193744 268.433519,193.812256 C268.695829,193.495686 268.938709,193.171347 269.169931,192.841182 L280.544496,179.044157 C281.028314,178.45957 281.257593,177.706017 281.183757,176.952463 C281.111864,176.198909 280.740744,175.50362 280.157831,175.020025 L275.478987,171.168744 C275.156442,170.902669 274.783378,170.714281 274.386998,170.611347 C274.064453,170.525893 273.726364,170.49676 273.386331,170.529777 C272.632431,170.603579 271.936822,170.970645 271.454948,171.557174 L268.200354,175.50362 C268.004106,175.317174 267.800087,175.132669 267.586352,174.955934 C266.282572,173.881926 264.784487,173.120603 263.136787,172.687504 C258.10431,171.368785 252.520008,173.347835 248.907894,177.729322 C246.570415,180.562917 245.344356,184.049074 245.451223,187.544942" id="Fill-142" fill="#737EB3"></path>
                    <path d="M301.759984,188.989318 C304.589052,189.729277 306.850753,192.347293 307.524988,195.660599 C308.436275,200.143079 306.127941,204.408037 302.381757,205.16936 C301.49573,205.349979 300.592216,205.322789 299.698417,205.087789 C297.141374,204.417748 295.044832,202.213409 294.170464,199.346798 C294.166578,199.315723 294.164635,199.288533 294.156862,199.257459 C293.845976,197.719277 293.756596,196.398616 293.812944,195.268285 C294.217097,192.087045 296.230088,189.484566 299.078587,188.907748 C299.96267,188.727128 300.866185,188.754318 301.759984,188.989318 M284.579611,180.830351 L288.139263,198.352417 C288.189782,198.7525 288.250016,199.152583 288.331624,199.554607 C289.433328,204.984855 293.327184,209.3275 298.250851,210.617087 C299.997645,211.073492 301.769699,211.12593 303.518436,210.770517 C310.356,209.383822 314.667609,202.094938 313.12872,194.5225 C312.025072,189.092252 308.131217,184.749607 303.209493,183.460021 C301.462699,183.003616 299.690645,182.951178 297.939964,183.306591 C297.669881,183.362913 297.403685,183.428946 297.141374,183.502748 L296.12322,178.48812 C295.897828,177.383037 295.066206,176.559566 294.042223,176.29155 C293.632241,176.182789 293.195057,176.16531 292.752043,176.256591 L286.814108,177.460723 C286.069924,177.614153 285.417062,178.051136 284.999308,178.682335 C284.579611,179.317417 284.428053,180.08845 284.579611,180.830351" id="Fill-144" fill="#737EB3"></path>
                    <path d="M286.570451,159.887384 C288.311416,159.72036 289.86002,160.994409 290.029065,162.736517 C290.196167,164.476682 288.921531,166.024574 287.178623,166.191599 C285.437658,166.360566 283.889054,165.084574 283.721952,163.344409 C283.552908,161.604244 284.829486,160.056351 286.570451,159.887384" id="Fill-146" fill="#C8C8CC"></path>
                    <path d="M244.724914,190.021182 C246.941925,191.819612 259.903955,192.699405 262.140396,186.760314 C265.115192,178.863537 253.175202,174.633537 247.272242,176.921388 C243.893293,178.230397 238.816125,185.224074 244.724914,190.021182" id="Fill-148" fill="#A5F894"></path>
                    <path d="M5.92705387,97.141219 C7.99833614,97.9841116 10.4387963,97.5665496 13.0016681,96.1293595 C23.2706425,93.6589463 40.7210985,96.7120041 52.3463159,99.3475 C52.6960634,99.7961364 53.1196465,100.13407 53.613179,100.336054 C54.3865095,100.650682 55.2667074,100.602128 56.1974242,100.252541 C61.0317116,101.429483 64.1697236,102.34812 64.1697236,102.34812 L65.3627511,99.4135331 L69.6588159,88.8540702 L72.3829602,82.1594835 L73.5759877,79.2248967 C73.5759877,79.2248967 70.504039,77.597376 65.9981257,74.9269215 C65.6056313,74.3015496 65.1043266,73.8451446 64.4903255,73.5946074 C64.1580654,73.4605992 63.8044318,73.3945661 63.437197,73.3887397 C52.9428297,66.9932438 37.3576936,56.4104752 32.0803928,47.1444835 C31.8180822,46.4686157 31.5110816,45.8529545 31.1632772,45.3013843 C30.3646871,44.0428719 29.3465334,43.1242355 28.1068729,42.621219 C21.5219052,39.944938 11.2179559,49.9800207 5.09348906,65.0355579 C-1.03097783,80.091095 -0.657913861,94.464938 5.92705387,97.141219" id="Fill-150" fill="#95A2E6"></path>
                    <path d="M72.5712409,103.910384 L79.7449502,106.82555 C82.1193469,107.790798 85.8324993,104.174517 88.0397945,98.7462107 C90.2470896,93.3198471 90.1130198,88.1401364 87.738623,87.1748884 L80.5649137,84.2597231 L72.5712409,103.910384 Z" id="Fill-152" fill="#95A2E6"></path>
                    <path d="M26.1545048,47.4191033 C31.5794767,49.6253843 31.8884203,61.4666653 26.8423415,73.8731116 C21.7943196,86.2795579 13.3051712,94.5492273 7.87825617,92.3429463 C2.45328423,90.1386074 2.14628367,78.2934421 7.19236251,65.888938 C12.2384414,53.4824917 20.7295328,45.2128223 26.1545048,47.4191033" id="Fill-154" fill="#535A80"></path>
                    <path d="M20.5758382,71.3281198 C18.0770868,77.4691942 17.9235866,83.210186 20.2338629,84.150186 C20.5253192,84.268657 20.843978,84.3055579 21.1801242,84.2647727 C23.276666,81.357376 25.2333088,77.8265496 26.8421472,73.8742769 C28.4490425,69.9220041 29.5118862,66.0279959 30.0423366,62.4816322 C29.826659,62.2194421 29.5740636,62.0232851 29.2826073,61.9028719 C26.9723309,60.964814 23.0745896,65.1851033 20.5758382,71.3281198" id="Fill-156" fill="#737EB3"></path>
                    <path d="M44.7358109,121.827678 C44.6794627,122.511314 44.6619753,123.101727 44.6697475,123.596975 C44.6775196,124.092223 44.7047222,124.490364 44.7338678,124.768091 C44.7513552,124.905983 44.7649565,125.014744 44.7727287,125.086603 C44.78633,125.160405 44.7921591,125.199248 44.7921591,125.199248 L44.8640516,125.622636 C45.256546,127.927967 47.4463538,129.477802 49.7527441,129.085488 C50.5610494,128.949537 51.28969,128.580529 51.8609442,128.071686 C51.8609442,128.071686 51.8959189,128.042554 51.9600393,127.984289 C52.0222166,127.924083 52.1135396,127.834744 52.2320651,127.718215 C52.4652301,127.483215 52.7838889,127.12586 53.1394655,126.651975 C53.4969851,126.180033 53.8875365,125.587678 54.2722587,124.905983 C54.6530948,124.222347 55.0242158,123.449372 55.3545328,122.631727 C55.6848499,121.816025 55.9665909,120.959537 56.298851,120.141893 C56.4620665,119.732099 56.6330542,119.333959 56.8098709,118.945529 C56.9886308,118.559041 57.1732197,118.186149 57.3655808,117.821025 C57.559885,117.465612 57.7639043,117.117967 57.9795819,116.781975 C58.1991456,116.449868 58.4342536,116.127471 58.6771338,115.810901 C58.9277862,115.498215 59.1881538,115.187471 59.4718378,114.884496 C59.5087556,114.841769 59.5379012,114.814579 59.5670469,114.785446 L59.6564268,114.694165 C59.7205471,114.632017 59.7535788,114.591231 59.8779335,114.470818 L60.1927062,114.160074 L60.2315671,114.121231 L60.2393392,114.111521 C60.2568266,114.095983 60.1266428,114.229992 60.1888201,114.167843 L60.2101936,114.146479 L60.2995735,114.061025 L60.4783333,113.890116 C61.4129363,112.969537 62.3009063,112.052843 63.1072685,111.17305 C63.4978199,110.747719 63.8844851,110.326273 64.2692074,109.908711 C64.6383852,109.504744 64.9861897,109.126025 65.3165067,108.780322 C65.9751978,108.09086 66.5542242,107.531521 66.9797503,107.193587 C67.1895988,107.022678 67.3644725,106.89838 67.4868841,106.824579 C67.6112388,106.741066 67.6850744,106.70805 67.7278213,106.682802 C67.809429,106.642017 67.7997138,106.626479 67.9104672,106.601231 C68.0115053,106.58181 68.2077525,106.583752 68.4117719,106.612884 C68.5166961,106.628421 68.6196773,106.643959 68.7148864,106.665322 C68.7595763,106.675033 68.8042663,106.682802 68.8431271,106.692512 C68.8683866,106.698339 68.8936462,106.698339 68.9150196,106.702223 L68.932507,106.696397 L68.9402792,106.698339 L68.9616526,106.711934 C68.9907983,106.721645 69.0180008,106.73524 69.0413173,106.743008 C69.0918364,106.760488 69.1345833,106.774083 69.167615,106.785736 C69.2356215,106.807099 69.2705962,106.81681 69.2705962,106.81681 C69.5212486,106.89838 69.771901,106.960529 70.0244964,107.003256 L70.3081804,107.119785 C73.5375154,108.43462 78.5913664,103.511273 81.5953086,96.1272231 C84.5992508,88.7431736 84.4146619,81.6931736 81.1853269,80.380281 L71.4234863,76.4124711 L64.4907141,73.5944132 C67.7200491,74.9092479 67.902695,81.9592479 64.8987528,89.3413554 C61.8948106,96.725405 56.8409596,101.64681 53.6116246,100.33586 L55.8927553,101.262264 C55.688736,101.491438 55.4886027,101.720612 55.2942985,101.947843 C54.9251207,102.380942 54.5520567,102.82181 54.1751066,103.262678 C53.444523,104.121107 52.7528002,104.946521 52.0494192,105.715612 L51.4237598,106.407017 C51.3421521,106.492471 51.1828227,106.676975 51.0506958,106.830405 L50.8447334,107.069289 C50.776727,107.148917 50.7067775,107.228545 50.6504293,107.302347 C50.168555,107.886934 49.7138833,108.500653 49.2844711,109.124083 C48.8628311,109.753339 48.4722797,110.398132 48.1167031,111.044868 C47.7669557,111.693545 47.4502399,112.340281 47.1665558,112.977306 C46.8867579,113.614331 46.6438777,114.235818 46.4301431,114.837884 C46.2202946,115.436066 46.0318196,116.014826 45.8666611,116.56057 C45.7034456,117.104372 45.5538314,117.628752 45.4236476,118.114289 C45.2895777,118.605653 45.1749383,119.062058 45.0836153,119.500983 C44.8970833,120.371066 44.7960452,121.144041 44.7358109,121.827678" id="Fill-158" fill="#747EB3"></path>
                    <path d="M43.7557407,112.367471 C45.032319,114.919455 56.4768336,121.066355 60.9652595,116.579992 C66.9362262,110.613711 57.803931,101.835198 51.4832169,101.483669 C47.8652736,101.283628 40.351532,105.562182 43.7557407,112.367471" id="Fill-160" fill="#A5F894"></path>
                    <path d="M11.8871395,190.191897 C14.5180177,191.300864 27.2099649,188.535244 27.7034975,182.211607 C28.3583025,173.796277 15.7129882,173.062145 10.6805107,176.901773 C7.80092312,179.100285 4.87470258,187.234004 11.8871395,190.191897" id="Fill-162" fill="#A5F894"></path>
                    <path d="M175.322774,166.341727 C175.322774,166.341727 176.051415,170.226025 176.051415,177.99462" id="Stroke-164" stroke="#00B300" stroke-linecap="round" stroke-linejoin="round"></path>
                    <path d="M101.730076,155.174372 C101.730076,155.174372 91.7719886,158.330364 75.741896,153.71776" id="Stroke-166" stroke="#00B300" stroke-linecap="round" stroke-linejoin="round"></path>
                    <path d="M192.810148,153.71776 C192.810148,153.71776 199.853674,154.931603 205.925678,153.71776" id="Stroke-168" stroke="#00B300" stroke-linecap="round" stroke-linejoin="round"></path>
                    <path d="M99.7870349,166.584496 C99.7870349,166.584496 99.3381923,168.579083 98.106304,182.148876" id="Stroke-170" stroke="#00B300" stroke-linecap="round" stroke-linejoin="round"></path>
                    <path d="M102.458717,104.921273 C102.458717,104.921273 98.3297538,105.892347 94.6865509,104.435736" id="Stroke-172" stroke="#00B300" stroke-linecap="round" stroke-linejoin="round"></path>
                    <path d="M171.679571,105.164041 C171.679571,105.164041 176.294295,105.164041 180.666138,103.70743" id="Stroke-174" stroke="#00B300" stroke-linecap="round" stroke-linejoin="round"></path>
                    <path d="M7.49256243,182.849992 C7.49256243,182.849992 7.12921366,192.238339 18.9079314,189.647512 C22.9552869,188.758008 27.1658579,186.167182 27.4903458,180.665074" id="Stroke-176" stroke="#00B300" stroke-linecap="round" stroke-linejoin="round"></path>
                    <path d="M43.1959505,106.620653 C43.1959505,106.620653 40.9361932,114.696107 50.4823562,116.816934 C57.0401214,118.273545 62.1289471,117.422884 63.106297,111.17305" id="Stroke-178" stroke="#00B300" stroke-linecap="round" stroke-linejoin="round"></path>
                    <path d="M245.028418,177.99462 C245.028418,177.99462 237.984892,187.462595 247.214339,190.861355" id="Stroke-180" stroke="#00B300" stroke-linecap="round" stroke-linejoin="round"></path>
                    <path d="M252.557703,55.3964793 C252.557703,55.3964793 248.42874,63.407843 258.386828,65.8355289" id="Stroke-182" stroke="#00B300" stroke-linecap="round" stroke-linejoin="round"></path>
                </g>
            </g>
        </g>
    </g>
</svg>
