<?xml version="1.0" encoding="UTF-8" standalone="no"?>
<svg
   xmlns:dc="http://purl.org/dc/elements/1.1/"
   xmlns:cc="http://creativecommons.org/ns#"
   xmlns:rdf="http://www.w3.org/1999/02/22-rdf-syntax-ns#"
   xmlns:svg="http://www.w3.org/2000/svg"
   xmlns="http://www.w3.org/2000/svg"
   xmlns:xlink="http://www.w3.org/1999/xlink"
   xmlns:sodipodi="http://sodipodi.sourceforge.net/DTD/sodipodi-0.dtd"
   xmlns:inkscape="http://www.inkscape.org/namespaces/inkscape"
   width="648.25861"
   height="298.70166"
   viewBox="0 0 648.25861 298.70166"
   version="1.1"
   id="svg127"
   sodipodi:docname="multitasking-octopus.svg"
   inkscape:version="0.92.2 5c3e80d, 2017-08-06">
  <metadata
     id="metadata131">
    <rdf:RDF>
      <cc:Work
         rdf:about="">
        <dc:format>image/svg+xml</dc:format>
        <dc:type
           rdf:resource="http://purl.org/dc/dcmitype/StillImage" />
        <dc:title>multitasking-octopus</dc:title>
      </cc:Work>
    </rdf:RDF>
  </metadata>
  <sodipodi:namedview
     pagecolor="#ffffff"
     bordercolor="#666666"
     borderopacity="1"
     objecttolerance="10"
     gridtolerance="10"
     guidetolerance="10"
     inkscape:pageopacity="0"
     inkscape:pageshadow="2"
     inkscape:window-width="1680"
     inkscape:window-height="1001"
     id="namedview129"
     showgrid="false"
     fit-margin-top="0"
     fit-margin-left="100"
     fit-margin-right="0"
     fit-margin-bottom="0"
     inkscape:zoom="2.3138914"
     inkscape:cx="284.41913"
     inkscape:cy="217.52673"
     inkscape:window-x="0"
     inkscape:window-y="391"
     inkscape:window-maximized="1"
     inkscape:current-layer="svg127" />
  <!-- Generator: Sketch 46.2 (44496) - http://www.bohemiancoding.com/sketch -->
  <title
     id="title10">multitasking-octopus</title>
  <desc
     id="desc12">Created with Sketch.</desc>
  <defs
     id="defs16">
    <path
       d="m 15.165557,86.801837 c 0.117423,-0.148131 0.183607,-0.342866 0.162553,-0.554059 L 14.118242,74.468333 c -0.06513,-0.633889 0.136184,-1.236666 0.517105,-1.695555 0.378947,-0.455 0.9375,-0.77 1.582895,-0.836111 l 5.486842,-0.546389 c 1.286842,-0.130278 2.4375,0.797222 2.569737,2.066944 l 1.207894,11.7775 c 0.0454,0.445278 0.448027,0.735 0.8625,0.696111 0.102632,-0.01167 0.205263,-0.04083 0.301974,-0.09722 1.752632,-0.958611 3.286184,-2.234167 4.5375,-3.741111 2.538158,-3.064444 3.892105,-7.077778 3.455921,-11.326389 C 33.945873,63.978056 28.952452,58.687222 22.577452,57.246389 l -2.863816,-27.9125 c 2.204606,-0.993611 4.119079,-2.473333 5.619079,-4.283611 2.538158,-3.0625 3.892106,-7.083611 3.455921,-11.328334 C 28.139294,7.3830556 23.688636,2.3275 17.889952,0.52694444 17.811005,0.50166667 17.734031,0.49 17.657057,0.49 c -0.02566,0 -0.05329,0 -0.07895,0.003889 C 17.368897,0.5152779 17.177449,0.62027789 17.04916,0.77777789 16.922844,0.92555567 16.853765,1.1258334 16.875475,1.3436112 L 18.08337,13.123056 c 0.06513,0.633888 -0.138158,1.236666 -0.515131,1.693611 -0.380921,0.456944 -0.939474,0.773889 -1.582895,0.836111 l -5.484868,0.548333 C 9.209689,16.331389 8.0590311,15.403889 7.9287679,14.132222 L 6.7188995,2.3566667 C 6.6754785,1.9133333 6.2708732,1.6197222 5.8583732,1.6605556 5.7557416,1.6702778 5.6511364,1.7033333 5.5544258,1.7577778 3.8037679,2.7163889 2.2662679,3.9919444 1.0188995,5.4988889 0.84024415,5.7145884 0.66745588,5.9349892 0.50074533,6.159843 V 24.418542 C 2.700016,27.381643 5.9313695,29.509934 9.6261364,30.345 l 2.8638156,27.9125 c -2.202631,0.993611 -4.1190788,2.473333 -5.6190788,4.281667 -2.5401316,3.064444 -3.8921053,7.085555 -3.4578947,11.332222 0.6216357,6.050029 4.7024372,10.931022 10.1145975,12.930448 h 1.637982 z"
       id="path-1"
       inkscape:connector-curvature="0" />
    <polygon
       id="path-3"
       points="8.0267463,7.3056667 7.3418644,0.63038889 0.29258373,0.63038889 0.29258373,7.3056667 " />
  </defs>
  <g
     id="Page-1"
     style="fill:none;fill-rule:evenodd;stroke:none;stroke-width:1"
     transform="translate(99.526643,-0.16215761)">
    <g
       id="multitasking-octopus"
       transform="translate(-101)">
      <g
         id="Group-118"
         transform="translate(101)">
        <path
           d="m 205.59225,25.577487 c 15.53362,0 15.53362,-8.381766 31.06724,-8.381766 15.53557,0 15.53557,8.381766 31.07308,8.381766 15.53751,0 15.53751,-8.381766 31.07502,-8.381766 15.53557,0 15.53557,8.381766 31.07113,8.381766 15.53751,0 15.53751,-8.381766 31.07503,-8.381766"
           id="Stroke-1"
           inkscape:connector-curvature="0"
           style="stroke:#e1e1e6;stroke-width:2;stroke-linecap:round;stroke-linejoin:round" />
        <path
           d="m 235.66531,5.7405106 c 7.76778,0 11.65264,2.0959268 15.53556,4.1918536 3.88487,2.0959268 7.76779,4.1918538 15.53557,4.1918538 7.76973,0 11.65459,-2.095927 15.53751,-4.1918538 3.88486,-2.0959268 7.76973,-4.1918536 15.53946,-4.1918536"
           id="Stroke-3"
           inkscape:connector-curvature="0"
           style="stroke:#e1e1e6;stroke-linecap:round;stroke-linejoin:round" />
        <path
           d="m 298.54737,29.189662 c 7.76778,0 11.6507,2.095927 15.53556,4.191854 3.88292,2.095926 7.76779,4.191853 15.53362,4.191853 7.76973,0 11.65265,-2.095927 15.53557,-4.191853 3.88486,-2.095927 7.76778,-4.191854 15.53556,-4.191854"
           id="Stroke-5"
           inkscape:connector-curvature="0"
           style="stroke:#737eb3;stroke-linecap:round;stroke-linejoin:round" />
        <path
           d="m 0.97355174,27.495454 v 0.293042 139.398534 c 0,2.76158 2.39592606,5.00306 5.35239366,5.00306 H 180.2437 c 2.95647,0 5.35434,-2.24148 5.35434,-5.00306 V 27.788496 27.495454 Z"
           id="Fill-7"
           inkscape:connector-curvature="0"
           style="fill:#f6f6f8;fill-rule:nonzero" />
        <path
           d="m 0.97355174,27.495454 v 0.293042 139.398534 c 0,2.76158 2.39592606,5.00306 5.35239366,5.00306 H 180.2437 c 2.95647,0 5.35434,-2.24148 5.35434,-5.00306 V 27.788496 27.495454 Z"
           id="Stroke-9"
           inkscape:connector-curvature="0"
           style="stroke:#e1e1e6" />
        <path
           d="M 185.59785,26.663294 V 6.4181936 c 0,-3.1788223 -2.58472,-5.75603599 -5.77475,-5.75603599 H 6.7481032 c -3.1900266,0 -5.77474609,2.57721369 -5.77474609,5.75603599 V 26.663294 27.495843 H 185.59785 Z"
           id="Fill-11"
           inkscape:connector-curvature="0"
           style="fill:#f6f6f8;fill-rule:nonzero" />
        <path
           d="M 185.59785,26.663294 V 6.4181936 c 0,-3.1788223 -2.58472,-5.75603599 -5.77475,-5.75603599 H 6.7481032 c -3.1900266,0 -5.77474609,2.57721369 -5.77474609,5.75603599 V 26.663294 27.495843 H 185.59785 Z"
           id="Stroke-13"
           inkscape:connector-curvature="0"
           style="stroke:#e1e1e6" />
        <path
           d="M 12.546789,27.789078 V 155.17679 c 0,2.5811 2.096192,4.67314 4.682858,4.67314 H 169.34273 c 2.58472,0 4.68091,-2.09204 4.68091,-4.67314 V 27.789078 Z"
           id="Fill-15"
           inkscape:connector-curvature="0"
           style="fill:#f6f6f8;fill-rule:nonzero" />
        <path
           d="M 12.546789,27.789078 V 155.17679 c 0,2.5811 2.096192,4.67314 4.682858,4.67314 H 169.34273 c 2.58472,0 4.68091,-2.09204 4.68091,-4.67314 V 27.789078 Z"
           id="Stroke-17"
           inkscape:connector-curvature="0"
           style="stroke:#e1e1e6" />
        <path
           d="m 16.08404,10.258591 c 2.152635,0 3.898489,1.738843 3.898489,3.887168 0,2.148325 -1.745854,3.889109 -3.898489,3.889109 -2.152635,0 -3.898489,-1.740784 -3.898489,-3.889109 0,-2.148325 1.745854,-3.887168 3.898489,-3.887168"
           id="Fill-19"
           inkscape:connector-curvature="0"
           style="fill:#e1e1e6;fill-rule:nonzero" />
        <path
           d="m 28.66197,10.258591 c 2.152636,0 3.898489,1.738843 3.898489,3.887168 0,2.148325 -1.745853,3.889109 -3.898489,3.889109 -2.152635,0 -3.898488,-1.740784 -3.898488,-3.889109 0,-2.148325 1.745853,-3.887168 3.898488,-3.887168"
           id="Fill-21"
           inkscape:connector-curvature="0"
           style="fill:#e1e1e6;fill-rule:nonzero" />
        <path
           d="M 136.77526,18.542548 H 49.795945 c -2.331697,0 -4.219632,-1.884394 -4.219632,-4.207379 v -0.376491 c 0,-2.324926 1.887935,-4.2073786 4.219632,-4.2073786 h 86.979315 c 2.32975,0 4.21963,1.8824526 4.21963,4.2073786 v 0.376491 c 0,2.322985 -1.88988,4.207379 -4.21963,4.207379"
           id="Fill-23"
           inkscape:connector-curvature="0"
           style="fill:#e1e1e6;fill-rule:nonzero" />
        <path
           d="m 157.90924,10.258591 c 2.15263,0 3.89848,1.738843 3.89848,3.887168 0,2.148325 -1.74585,3.889109 -3.89848,3.889109 -2.15264,0 -3.90044,-1.740784 -3.90044,-3.889109 0,-2.148325 1.7478,-3.887168 3.90044,-3.887168"
           id="Fill-25"
           inkscape:connector-curvature="0"
           style="fill:#e1e1e6;fill-rule:nonzero" />
        <path
           d="m 170.48717,10.258591 c 2.15263,0 3.89849,1.738843 3.89849,3.887168 0,2.148325 -1.74586,3.889109 -3.89849,3.889109 -2.15459,0 -3.90044,-1.740784 -3.90044,-3.889109 0,-2.148325 1.74585,-3.887168 3.90044,-3.887168"
           id="Fill-27"
           inkscape:connector-curvature="0"
           style="fill:#e1e1e6;fill-rule:nonzero" />
        <path
           d="m 267.83475,119.1581 c 15.53751,0 15.53751,8.38176 31.07502,8.38176 15.53946,0 15.53946,-8.38176 31.08087,-8.38176 15.53362,0 15.53362,8.38176 31.06724,8.38176 15.54335,0 15.54335,-8.38176 31.08281,-8.38176 15.54335,0 15.54335,8.38176 31.08281,8.38176 15.54335,0 15.54335,-8.38176 31.08864,-8.38176 15.54141,0 15.54141,8.38176 31.08476,8.38176"
           id="Stroke-29"
           inkscape:connector-curvature="0"
           style="stroke:#e1e1e6;stroke-width:2;stroke-linecap:round;stroke-linejoin:round" />
        <path
           d="m 330.6627,108.24744 c 7.76779,0 11.65265,2.09593 15.53752,4.19185 3.88486,2.09593 7.76972,4.19186 15.53751,4.19186 7.76973,0 11.65459,-2.09593 15.53946,-4.19186 3.88486,-2.09592 7.76973,-4.19185 15.53945,-4.19185 7.76779,0 11.65071,2.09593 15.53557,4.19185 3.88292,2.09593 7.76584,4.19186 15.53362,4.19186 7.77168,0 11.65654,-2.09593 15.5414,-4.19186 3.88487,-2.09592 7.76973,-4.19185 15.54141,-4.19185 7.76973,0 11.65459,2.09593 15.5414,4.19185 3.88487,2.09593 7.77168,4.19186 15.54141,4.19186 7.77167,0 11.65654,-2.09593 15.54335,-4.19186 3.88486,-2.09592 7.76973,-4.19185 15.54335,-4.19185 7.77168,0 11.65849,2.09593 15.54335,4.19185 3.88681,2.09593 7.77168,4.19186 15.54335,4.19186"
           id="Stroke-31"
           inkscape:connector-curvature="0"
           style="stroke:#e1e1e6;stroke-linecap:round;stroke-linejoin:round" />
        <path
           d="m 270.1898,50.127777 v 0.291101 139.398542 c 0,2.76157 2.39787,5.00305 5.35434,5.00305 h 173.91581 c 2.95842,0 5.35435,-2.23954 5.35435,-5.00305 V 50.418878 50.127777 Z"
           id="Fill-33"
           inkscape:connector-curvature="0"
           style="fill:#f6f6f8;fill-rule:nonzero" />
        <path
           d="m 270.1898,50.127777 v 0.291101 139.398542 c 0,2.76157 2.39787,5.00305 5.35434,5.00305 h 173.91581 c 2.95842,0 5.35435,-2.23954 5.35435,-5.00305 V 50.418878 50.127777 Z"
           id="Stroke-35"
           inkscape:connector-curvature="0"
           style="stroke:#e1e1e6" />
        <path
           d="m 454.81507,49.293869 v -20.2451 c 0,-3.178822 -2.58472,-5.756036 -5.77474,-5.756036 h -173.075 c -3.19003,0 -5.77475,2.577214 -5.77475,5.756036 v 20.2451 0.83449 h 184.62449 z"
           id="Fill-37"
           inkscape:connector-curvature="0"
           style="fill:#f6f6f8;fill-rule:nonzero" />
        <path
           d="m 454.81507,49.293869 v -20.2451 c 0,-3.178822 -2.58472,-5.756036 -5.77474,-5.756036 h -173.075 c -3.19003,0 -5.77475,2.577214 -5.77475,5.756036 v 20.2451 0.83449 h 184.62449 z"
           id="Stroke-39"
           inkscape:connector-curvature="0"
           style="stroke:#e1e1e6" />
        <path
           d="M 281.76401,50.419654 V 177.80737 c 0,2.58109 2.0962,4.67314 4.68286,4.67314 H 438.558 c 2.58667,0 4.68286,-2.09205 4.68286,-4.67314 V 50.419654 Z"
           id="Fill-41"
           inkscape:connector-curvature="0"
           style="fill:#f6f6f8;fill-rule:nonzero" />
        <path
           d="M 281.76401,50.419654 V 177.80737 c 0,2.58109 2.0962,4.67314 4.68286,4.67314 H 438.558 c 2.58667,0 4.68286,-2.09205 4.68286,-4.67314 V 50.419654 Z"
           id="Stroke-43"
           inkscape:connector-curvature="0"
           style="stroke:#e1e1e6" />
        <path
           d="m 285.30126,32.889167 c 2.15264,0 3.89849,1.738843 3.89849,3.889108 0,2.146385 -1.74585,3.887169 -3.89849,3.887169 -2.15263,0 -3.90043,-1.740784 -3.90043,-3.887169 0,-2.150265 1.7478,-3.889108 3.90043,-3.889108"
           id="Fill-45"
           inkscape:connector-curvature="0"
           style="fill:#e1e1e6;fill-rule:nonzero" />
        <path
           d="m 297.87919,32.889167 c 2.15264,0 3.89849,1.738843 3.89849,3.889108 0,2.146385 -1.74585,3.887169 -3.89849,3.887169 -2.15458,0 -3.90043,-1.740784 -3.90043,-3.887169 0,-2.150265 1.74585,-3.889108 3.90043,-3.889108"
           id="Fill-47"
           inkscape:connector-curvature="0"
           style="fill:#e1e1e6;fill-rule:nonzero" />
        <path
           d="m 405.99151,41.17293 h -86.97737 c -2.33169,0 -4.22158,-1.884394 -4.22158,-4.20738 v -0.37649 c 0,-2.324926 1.88989,-4.207379 4.22158,-4.207379 h 86.97737 c 2.32975,0 4.22158,1.882453 4.22158,4.207379 v 0.37649 c 0,2.322986 -1.89183,4.20738 -4.22158,4.20738"
           id="Fill-49"
           inkscape:connector-curvature="0"
           style="fill:#e1e1e6;fill-rule:nonzero" />
        <path
           d="m 427.12549,32.889167 c 2.15263,0 3.90043,1.738843 3.90043,3.889108 0,2.146385 -1.7478,3.887169 -3.90043,3.887169 -2.15264,0 -3.90044,-1.740784 -3.90044,-3.887169 0,-2.150265 1.7478,-3.889108 3.90044,-3.889108"
           id="Fill-51"
           inkscape:connector-curvature="0"
           style="fill:#e1e1e6;fill-rule:nonzero" />
        <path
           d="m 439.70439,32.889167 c 2.15264,0 3.89849,1.738843 3.89849,3.889108 0,2.146385 -1.74585,3.887169 -3.89849,3.887169 -2.15458,0 -3.90043,-1.740784 -3.90043,-3.887169 0,-2.150265 1.74585,-3.889108 3.90043,-3.889108"
           id="Fill-53"
           inkscape:connector-curvature="0"
           style="fill:#e1e1e6;fill-rule:nonzero" />
        <path
           d="m 388.92127,147.99339 v -6.61963 -14.44443 c 0,0 0.59168,-5.43001 4.21185,-5.43001 3.62016,0 3.23479,5.7444 9.98854,5.7444 3.36908,-0.002 9.18081,-1.72526 9.18081,-12.11757 0,-10.40006 -5.81173,-11.64597 -9.18081,-11.64597 -6.75375,0 -6.36838,5.42612 -9.98854,5.42612 -3.61822,0 -4.21185,-5.58332 -4.21185,-5.58332 v -8.641816 c 0,-3.277796 -2.63143,-5.936518 -5.88763,-5.936518 h -15.57839 c 0,0 -5.1344,-0.884947 -5.1344,-4.49848 0,-3.609652 5.60152,-3.848355 5.60152,-10.578608 0,-3.357365 -1.8821,-8.686453 -12.30661,-8.686453 -10.42841,0 -11.83755,5.329088 -11.83755,8.686453 0,6.730253 5.13051,6.967016 5.12856,10.578608 0.002,3.613533 -5.12856,4.49848 -5.12856,4.49848 h -14.40086 c -1.96773,0 -3.69802,0.983921 -4.76655,2.48018 -0.69484,0.976158 -1.11524,2.16385 -1.11524,3.456338 l 0.0156,11.593576 c 0,0 -0.63256,8.94651 6.58636,8.94651 4.54467,0 4.8191,-6.1073 10.80016,-6.10536 2.97982,-0.002 6.01025,2.79069 6.01025,8.96203 0,6.16746 -3.03043,9.26477 -6.01025,9.26477 -5.98106,0 -6.25549,-6.09565 -10.80016,-6.09565 -7.21892,0 -6.58636,8.63405 -6.58636,8.63405 l -0.0156,18.1123 c 0,3.27586 2.63337,5.93652 5.87984,5.93652 h 19.42433 c 0,0 9.38323,0.6249 9.38323,-6.57112 0,-4.53535 -5.92267,-5.37566 -5.92267,-11.34711 0,-2.96729 3.30292,-6.63905 9.49418,-6.63905 6.1932,0 9.86397,3.67176 9.86397,6.63905 0,5.97145 -5.74166,6.81176 -5.74166,11.34711 0,7.19602 9.39102,6.57112 9.39102,6.57112 h 7.76584 c 3.2562,0 5.88763,-2.66066 5.88763,-5.93652"
           id="Fill-55"
           inkscape:connector-curvature="0"
           style="fill:#e1e1e6;fill-rule:nonzero" />
        <g
           id="Group-59"
           transform="translate(115.96954,276.71192)"
           style="fill:#ededf2;fill-rule:nonzero">
          <path
             d="m 0.1174589,11.144409 c 0,-6.0801284 52.1712401,-11.00943778 116.5264711,-11.00943778 64.35718,0 116.52842,4.92930938 116.52842,11.00943778 0,6.080128 -52.17124,11.007497 -116.52842,11.007497 -64.355231,0 -116.5264711,-4.927369 -116.5264711,-11.007497"
             id="Fill-57"
             inkscape:connector-curvature="0" />
        </g>
        <path
           d="m 64.975918,242.29981 c 15.533619,0 15.533619,8.38177 31.069185,8.38177 15.535567,0 15.535567,-8.38177 31.071127,-8.38177 15.53557,0 15.53557,8.38177 31.07308,8.38177 15.53751,0 15.53751,-8.38177 31.07308,-8.38177 15.53362,0 15.53362,8.38177 31.06724,8.38177 15.53751,0 15.53751,-8.38177 31.07308,-8.38177 15.53362,0 15.53362,8.38177 31.06724,8.38177"
           id="Stroke-60"
           inkscape:connector-curvature="0"
           style="stroke:#e1e1e6;stroke-width:2;stroke-linecap:round;stroke-linejoin:round" />
        <path
           d="m 128.31147,229.60393 c 7.76778,0 11.6507,2.09593 15.53362,4.19185 3.88487,2.09593 7.76778,4.19186 15.53557,4.19186 7.76778,0 11.65265,-2.09593 15.53556,-4.19186 3.88292,-2.09592 7.76779,-4.19185 15.53557,-4.19185 7.76778,0 11.65265,2.09593 15.53556,4.19185 3.88487,2.09593 7.76779,4.19186 15.53752,4.19186 7.76778,0 11.6507,-2.09593 15.53751,-4.19186 3.88292,-2.09592 7.76778,-4.19185 15.53556,-4.19185"
           id="Stroke-62"
           inkscape:connector-curvature="0"
           style="stroke:#e1e1e6;stroke-linecap:round;stroke-linejoin:round" />
        <path
           d="m 351.11624,92.360119 c -1.02766,-2.695594 -4.0503,-4.048243 -6.75374,-3.023568 l -0.75713,0.28722 c 0,0 -0.15181,0.05822 -0.4457,0.168838 -0.29001,0.112559 -0.73377,0.269754 -1.29042,0.504575 -0.55859,0.234822 -1.24954,0.525923 -2.06116,0.867481 -0.40288,0.178542 -0.84081,0.360965 -1.30209,0.572498 -0.45544,0.219297 -0.94007,0.452177 -1.45196,0.698643 -2.03974,1.007209 -4.53883,2.270587 -7.25395,4.052125 -2.73459,1.756309 -5.79032,3.949269 -8.82269,6.906859 -3.02264,2.94594 -6.07059,6.66427 -8.50544,11.28113 -2.4368,4.59551 -4.19044,10.08179 -4.82494,15.82424 -0.0895,0.73552 -0.14208,1.55448 -0.20436,2.33852 l -0.072,1.00526 -0.0525,0.88883 -0.0272,0.44248 -0.002,0.0582 c 0.0272,0.45994 0.006,0.15525 0.0117,0.26975 l -0.004,0.097 -0.008,0.19213 -0.0292,0.77239 c -0.0253,0.51428 -0.0233,1.03438 -0.072,1.54089 -0.11484,2.05323 -0.38343,4.06765 -0.70262,6.02579 -0.61894,3.92016 -1.83344,7.53952 -3.35547,10.4874 -0.77269,1.47103 -1.65437,2.75769 -2.5925,3.83283 -0.93619,1.07901 -1.93076,1.9232 -2.89614,2.64513 -1.95995,1.40311 -3.92962,2.18908 -6.04139,2.60245 -1.05491,0.16301 -2.14874,0.34932 -3.25425,0.26199 -1.09773,-0.066 -2.24022,-0.15914 -3.33406,-0.47935 -2.20713,-0.57638 -4.31695,-1.69227 -6.06475,-3.19823 -0.87779,-0.7491 -1.66994,-1.58359 -2.37841,-2.46465 -0.70651,-0.88107 -1.30014,-1.82229 -1.84316,-2.74605 -0.23746,-0.48323 -0.51967,-0.92571 -0.73182,-1.39923 -0.10705,-0.23482 -0.23162,-0.46188 -0.35423,-0.68312 -0.11289,-0.23094 -0.22189,-0.45605 -0.33088,-0.67729 -0.11483,-0.22318 -0.23745,-0.43665 -0.3445,-0.65595 -0.0973,-0.22318 -0.2102,-0.43665 -0.3192,-0.64624 -0.22188,-0.42113 -0.43013,-0.83449 -0.62866,-1.23621 -0.43014,-0.78791 -0.77269,-1.54866 -1.15417,-2.19296 -0.14792,-0.2814 -0.31725,-0.54533 -0.46906,-0.79374 -0.17907,-2.1522 -0.3192,-4.42085 -0.41457,-6.81176 10.47512,-2.56169 18.24874,-11.98559 18.24874,-23.22209 0,-7.48906 -3.45473,-14.17274 -8.86162,-18.556716 0.0623,-1.013031 0.0993,-2.031885 0.0993,-3.058501 0,-27.167481 -22.08885,-49.192178 -49.33545,-49.192178 -27.2466,0 -49.33544,22.024697 -49.33544,49.192178 0,1.026616 0.035,2.04547 0.0993,3.058501 -5.40689,4.383976 -8.86357,11.067656 -8.86357,18.556716 0,11.25202 7.79309,20.68563 18.28962,23.23568 -0.29195,9.66455 -1.09578,17.80955 -2.41539,24.77075 -1.17558,1.11394 -2.5419,2.13085 -4.09117,2.98281 -0.89337,0.49875 -1.85096,0.90629 -2.85137,1.28278 -1.00236,0.36291 -2.05727,0.63849 -3.14915,0.87331 0.51966,0.008 0.12261,0.004 0.22966,0.006 l -0.0389,0.006 -0.074,0.008 -0.15182,0.0175 -0.29973,0.0311 -0.59947,0.064 -0.54497,0.0621 -0.3192,0.0466 -0.32503,0.0543 c -0.10511,0.0213 -0.21799,0.0408 -0.36786,0.0446 l -0.84471,0.0543 c -1.12302,0.033 -2.26746,0.0233 -3.40217,-0.10867 -2.26942,-0.24647 -4.53299,-0.83449 -6.64086,-1.73691 -1.05686,-0.44635 -2.08257,-0.96063 -3.046,-1.55059 -0.98095,-0.5725 -1.88599,-1.22845 -2.75405,-1.90574 -1.71082,-1.37982 -3.21144,-2.91101 -4.41427,-4.49654 -1.20866,-1.58165 -2.15652,-3.19047 -2.87861,-4.69255 -0.73182,-1.50014 -1.21645,-2.89937 -1.56485,-4.07347 -0.0837,-0.29693 -0.16543,-0.57638 -0.24134,-0.83837 -0.0642,-0.26782 -0.12262,-0.51816 -0.17711,-0.75299 -0.11095,-0.4677 -0.20437,-0.86942 -0.25303,-1.19739 -0.11872,-0.66177 -0.181,-1.01303 -0.181,-1.01303 l -0.0526,-0.29498 c -0.28027,-1.57195 -1.58236,-2.83145 -3.25425,-2.99058 -2.01445,-0.19213 -3.80117,1.2789 -3.99581,3.28556 0,0 -0.0428,0.44441 -0.12261,1.27696 -0.0467,0.41919 -0.074,0.93346 -0.0954,1.54478 -0.0117,0.30662 -0.0253,0.63654 -0.0389,0.9878 0.004,0.35126 0.006,0.72581 0.008,1.12171 0.0253,1.58359 0.14598,3.52814 0.54692,5.74439 0.39121,2.21625 1.04128,4.71195 2.08841,7.34739 1.04128,2.63737 2.5127,5.39119 4.43762,8.11395 0.97511,1.34877 2.04948,2.70336 3.26788,3.99197 1.20477,1.30607 2.54385,2.55392 3.99775,3.73579 2.89808,2.37344 6.29247,4.43832 10.04109,6.00832 1.87431,0.7918 3.8401,1.42252 5.85844,1.95232 l 1.52592,0.3532 c 0.15376,0.0388 0.32503,0.0718 0.50215,0.1048 -1.06269,1.00333 -2.09814,2.03383 -3.09855,3.08373 -1.98525,2.06682 -3.88876,4.21126 -5.74944,6.36541 -3.72332,4.30829 -7.32013,8.68451 -10.97922,12.51346 -1.8276,1.91738 -3.66688,3.69698 -5.5081,5.23787 -1.83928,1.5506 -3.68245,2.85862 -5.50226,3.88523 -0.91088,0.52398 -1.81592,0.93929 -2.71707,1.32548 -0.89921,0.35514 -1.79451,0.66565 -2.68399,0.88689 -1.77699,0.46382 -3.54231,0.61325 -5.24145,0.56861 -1.69719,-0.0485 -3.31848,-0.32409 -4.77044,-0.68311 -1.45974,-0.34544 -2.73264,-0.83255 -3.79339,-1.23039 -1.04907,-0.44053 -1.88599,-0.80344 -2.44264,-1.0926 -0.56443,-0.27169 -0.86611,-0.42112 -0.86611,-0.42112 l -0.29584,-0.14361 c -1.86847,-0.90824 -4.18655,-0.50264 -5.62683,1.12947 -1.72639,1.95814 -1.53565,4.94095 0.42819,6.66427 0,0 0.30558,0.26975 0.88169,0.77239 0.56638,0.51427 1.44223,1.22844 2.5964,2.12309 1.18336,0.8636 2.63727,1.92321 4.49406,2.95565 1.84706,1.04602 4.06782,2.11145 6.69925,2.95176 2.62559,0.83449 5.66965,1.45357 8.94726,1.5603 1.6388,0.064 3.32043,-0.01 5.02735,-0.17272 1.69136,-0.19406 3.41775,-0.4677 5.10716,-0.87718 3.3905,-0.80344 6.70314,-2.0086 9.83089,-3.43887 3.13747,-1.42252 6.10562,-3.06239 8.9239,-4.75853 5.63266,-3.402 10.68143,-7.02912 15.18717,-10.06239 2.2519,-1.52537 4.35588,-2.89937 6.2769,-4.04437 1.64854,-0.99362 3.13748,-1.77765 4.45514,-2.38896 -0.90894,4.13557 -1.41887,8.24786 -1.62713,12.22429 -0.12067,2.11922 -0.1596,4.1938 -0.14208,6.23151 l 0.0195,1.52148 0.0136,0.75493 0.0117,0.37649 c 0.008,-0.0543 -0.0136,0.19212 0.0156,-0.11256 v 0.0446 0.0893 l -0.004,0.1766 -0.0292,2.5811 c 0.004,0.6967 -0.0234,1.50402 -0.0487,2.29193 -0.037,0.78015 -0.0701,1.56807 -0.12651,2.33463 -0.0915,1.5506 -0.25692,3.06239 -0.43987,4.54312 -0.19269,1.48073 -0.42041,2.92847 -0.71236,4.31994 -0.28221,1.39728 -0.60141,2.75187 -0.98289,4.0463 -0.38927,1.29055 -0.80967,2.53064 -1.27095,3.71833 -0.46323,1.18769 -0.99652,2.29388 -1.54344,3.36124 -0.54886,1.06543 -1.14638,2.06488 -1.78283,2.99252 -0.62866,0.93929 -1.28847,1.82035 -1.97941,2.62379 -0.69679,0.79762 -1.39552,1.5603 -2.1176,2.23954 -0.72014,0.67729 -1.44612,1.29443 -2.16042,1.85334 -1.4325,1.10424 -2.81244,1.97561 -3.99192,2.61797 -1.17752,0.64819 -2.14874,1.0829 -2.7774,1.35653 -0.62867,0.2814 -0.91088,0.38813 -0.75128,0.38813 -3.01681,0 -5.46139,2.43749 -5.46139,5.44359 0,3.0061 2.44458,5.44359 5.46139,5.44359 0.31725,-0.0175 2.62948,0.49487 6.66616,0.24841 2.0125,-0.13003 4.45708,-0.4483 7.21113,-1.19158 1.378,-0.36096 2.83385,-0.8306 4.33252,-1.4361 1.50062,-0.60548 3.06546,-1.31383 4.62836,-2.19295 1.56485,-0.87331 3.15694,-1.87858 4.72179,-3.03134 1.559,-1.1644 3.0966,-2.46659 4.58554,-3.89493 1.49088,-1.42833 2.89613,-3.00998 4.24104,-4.67896 1.34686,-1.67092 2.60418,-3.45246 3.75251,-5.31938 2.31613,-3.72416 4.27997,-7.75493 5.80978,-11.90797 0.77659,-2.07652 1.46364,-4.18604 2.05922,-6.30137 0.31336,-1.05961 0.56638,-2.11921 0.83692,-3.18464 0.24718,-1.06155 0.50604,-2.10563 0.72403,-3.27004 l 0.58779,-2.9964 0.0331,-0.17078 0.0156,-0.0873 0.008,-0.0427 c 0.035,-0.33186 0.0156,-0.1145 0.0253,-0.19989 l 0.0778,-0.32021 0.14792,-0.63848 0.29973,-1.26726 c 0.40484,-1.67092 0.80189,-3.28362 1.22424,-4.81093 0.83692,-3.07014 1.73223,-5.8162 2.6762,-8.16247 0.48074,-1.16052 0.93813,-2.23372 1.38967,-3.21764 0.46128,-0.96645 0.9031,-1.84752 1.32934,-2.65678 0.67149,-1.21098 1.28458,-2.26864 1.90351,-3.22151 0.61698,0.95287 1.23202,2.00859 1.90351,3.22151 0.42429,0.80926 0.86806,1.68839 1.32934,2.65678 0.45154,0.98392 0.90698,2.05712 1.38967,3.21764 0.94397,2.34627 1.83928,5.09233 2.6762,8.16247 0.4204,1.52731 0.81745,3.14001 1.22424,4.81093 l 0.29778,1.26726 0.14987,0.63848 0.0759,0.32021 c 0.01,0.0854 -0.008,-0.13197 0.0253,0.19989 l 0.01,0.0427 0.0156,0.0873 0.0331,0.17078 0.58584,2.9964 c 0.21994,1.16441 0.4788,2.20655 0.72598,3.27004 0.2686,1.06543 0.52356,2.12503 0.83692,3.18464 0.59363,2.11533 1.28068,4.22485 2.05921,6.30137 1.52982,4.15304 3.49366,8.18381 5.80784,11.90797 1.14833,1.86692 2.4076,3.64846 3.75446,5.31938 1.34491,1.67092 2.74821,3.25063 4.24104,4.67896 1.48699,1.43028 3.02654,2.73053 4.5836,3.89493 1.56679,1.15276 3.15694,2.15803 4.72373,3.03134 1.5629,0.87912 3.12774,1.58747 4.62836,2.19295 1.49867,0.6055 2.95452,1.07514 4.33252,1.4361 2.75405,0.74328 5.19863,1.06155 7.21113,1.19158 4.03473,0.24646 6.34697,-0.26588 6.66616,-0.24841 3.01486,0 5.45945,-2.43749 5.45945,-5.44359 0,-3.0061 -2.44459,-5.44359 -5.45945,-5.44359 0.1596,0 -0.12261,-0.10673 -0.75322,-0.38813 -0.62867,-0.27363 -1.59988,-0.70834 -2.77741,-1.35653 -1.17753,-0.64236 -2.55747,-1.51373 -3.98997,-2.61797 -0.7143,-0.55891 -1.44028,-1.17605 -2.16236,-1.85334 -0.72209,-0.67924 -1.42082,-1.43998 -2.11566,-2.23954 -0.69289,-0.80538 -1.35075,-1.6845 -1.97941,-2.62379 -0.63645,-0.92764 -1.23397,-1.92709 -1.78478,-2.99252 -0.54497,-1.06736 -1.08021,-2.17355 -1.54343,-3.36124 -0.45934,-1.18769 -0.88169,-2.42972 -1.26901,-3.71833 -0.38343,-1.29443 -0.70068,-2.64902 -0.98289,-4.0463 -0.2939,-1.39147 -0.51967,-2.83921 -0.71431,-4.31994 -0.18295,-1.48073 -0.34839,-2.99252 -0.43792,-4.54312 -0.0545,-0.76656 -0.0895,-1.55448 -0.12651,-2.33463 -0.0253,-0.78791 -0.0525,-1.59523 -0.0487,-2.29193 l -0.0311,-2.5811 -0.002,-0.1766 v -0.0893 l -0.002,-0.0446 c 0.0331,0.30274 0.01,0.0582 0.0175,0.11256 l 0.0117,-0.37649 0.0136,-0.75493 0.0195,-1.52148 c 0.0175,-2.03771 -0.0214,-4.11229 -0.14208,-6.23151 -0.21994,-4.22484 -0.77464,-8.60494 -1.79646,-12.99862 -0.0525,-0.2193 -0.11289,-0.43665 -0.16738,-0.65401 0.3698,-0.0233 0.75128,-0.0446 1.15222,-0.0602 1.26706,-0.0446 2.67425,-0.0155 4.20601,0.11256 1.52787,0.13197 3.17056,0.38619 4.91642,0.82867 1.74196,0.44441 3.59681,1.05572 5.5334,1.94455 0.97121,0.42695 1.958,0.94705 2.97009,1.49432 1.0082,0.57444 2.03975,1.18575 3.08493,1.87469 2.0923,1.37011 4.24688,2.98087 6.47347,4.76241 2.23244,1.7796 4.53299,3.73191 7.01261,5.72887 2.47378,1.99113 5.15387,4.05212 8.22906,5.88218 3.04406,1.82423 6.67784,3.38453 10.4362,3.96867 1.86652,0.2911 3.72721,0.37067 5.45749,0.2193 1.72445,-0.15331 3.336,-0.45218 4.76461,-0.88107 2.89224,-0.83061 5.12856,-2.0183 6.98146,-3.10507 1.84317,-1.10425 3.26788,-2.17744 4.42011,-3.06239 1.13081,-0.90435 1.9872,-1.62434 2.54384,-2.1328 0.56639,-0.49875 0.86612,-0.76656 0.86612,-0.76656 1.55901,-1.38564 2.067,-3.69116 1.088,-5.64348 -1.16975,-2.33463 -4.01722,-3.28362 -6.36059,-2.11533 l -0.21994,0.11062 c 0,0 -0.30947,0.15525 -0.88947,0.44441 -0.57611,0.29886 -1.43055,0.69088 -2.50492,1.16246 -1.07826,0.44248 -2.38425,0.96258 -3.83426,1.36236 -1.44417,0.38813 -3.04405,0.70834 -4.54467,0.67147 -1.51619,-0.0175 -2.84747,-0.33186 -4.04641,-0.98974 -1.20477,-0.65013 -2.43291,-1.63599 -3.83815,-3.14001 -1.39746,-1.4885 -2.89613,-3.40394 -4.49017,-5.59884 -1.59404,-2.18908 -3.28929,-4.62463 -5.14414,-7.1475 -1.85485,-2.52094 -3.88097,-5.12726 -6.12703,-7.67148 -1.11914,-1.27308 -2.31029,-2.52288 -3.53258,-3.7455 -1.2437,-1.21292 -2.51271,-2.4045 -3.85372,-3.52426 -1.14055,-0.97422 -2.32586,-1.89216 -3.53064,-2.76934 0.20047,-0.0155 0.40095,-0.0272 0.59947,-0.0446 1.77699,-0.17854 3.56372,-0.45994 5.32904,-0.90435 1.77505,-0.40754 3.51311,-1.01498 5.2181,-1.71362 3.38465,-1.43804 6.61555,-3.35736 9.44356,-5.70169 2.83191,-2.34046 5.33293,-5.03023 7.3649,-7.93542 2.02612,-2.90712 3.64352,-5.98115 4.90668,-9.08041 2.51855,-6.21403 3.67466,-12.47852 4.07561,-18.39175 0.17906,-2.95759 0.17517,-5.85501 0.0253,-8.65346 -0.0214,-0.70641 -0.0915,-1.38953 -0.14014,-2.08235 -0.0428,-0.57249 -0.0876,-1.14111 -0.13429,-1.70973 l -0.0701,-0.88106 -0.037,-0.43666 c -0.006,-0.0854 -0.008,-0.13196 -0.008,-0.16495 l -0.004,-0.12615 c -0.006,-0.34156 -0.0389,-0.62877 -0.0448,-1.01303 -0.0467,-3.25645 0.33476,-6.22374 1.20672,-9.01248 0.42819,-1.39535 0.99846,-2.72859 1.6135,-4.04243 0.61893,-1.31383 1.33129,-2.57915 2.10398,-3.79207 0.76296,-1.2168 1.62713,-2.35404 2.46794,-3.46216 0.83886,-1.10812 1.71471,-2.14638 2.57888,-3.11672 1.74196,-1.93291 3.38271,-3.63682 4.81131,-5.0147 1.43445,-1.36817 2.58862,-2.486002 3.39245,-3.227339 0.81356,-0.741337 1.24759,-1.137234 1.24759,-1.137234 1.52008,-1.405048 2.13123,-3.650406 1.35075,-5.701698"
           id="Fill-64"
           inkscape:connector-curvature="0"
           style="fill:#67f84a;fill-rule:nonzero" />
        <path
           d="m 165.32863,280.939 c -0.0662,-5.36014 6.4326,-6.77683 11.72466,-8.83006 8.75846,-3.39618 13.59702,-12.71335 14.24515,-30.67234 0.64813,-17.96093 0.0915,-21.84227 3.42748,-40.13506 3.336,-18.29278 21.68206,-69.28784 21.68206,-69.28784 l 35.57687,64.8534 c 0,0 -23.34811,-9.97699 -32.24282,6.0976 -6.33723,11.45579 -5.00205,45.4525 -12.78541,58.20272 -7.46026,12.21848 -16.08443,19.98699 -30.02011,21.61716 -9.96713,1.16634 -11.60788,-1.84558 -11.60788,-1.84558"
           id="Fill-66"
           inkscape:connector-curvature="0"
           style="fill:#a5f894;fill-rule:nonzero" />
        <path
           d="m 165.32863,280.939 c -0.0662,-5.36014 6.4326,-6.77683 11.72466,-8.83006 8.75846,-3.39618 13.59702,-12.71335 14.24515,-30.67234 0.64813,-17.96093 0.0915,-21.84227 3.42748,-40.13506 3.336,-18.29278 21.68206,-69.28784 21.68206,-69.28784 l 35.57687,64.8534 c 0,0 -23.34811,-9.97699 -32.24282,6.0976 -6.33723,11.45579 -5.00205,45.4525 -12.78541,58.20272 -7.46026,12.21848 -16.08443,19.98699 -30.02011,21.61716 -9.96713,1.16634 -11.60788,-1.84558 -11.60788,-1.84558 z"
           id="Stroke-68"
           inkscape:connector-curvature="0"
           style="stroke:#a5f894" />
        <path
           d="m 275.33491,113.44398 c 0,24.33798 -19.78828,44.06686 -44.19714,44.06686 -24.40887,0 -44.19521,-19.72888 -44.19521,-44.06686 0,-24.337981 19.78634,-44.066862 44.19521,-44.066862 24.40886,0 44.19714,19.728881 44.19714,44.066862"
           id="Fill-70"
           inkscape:connector-curvature="0"
           style="fill:#a5f894;fill-rule:nonzero" />
        <path
           d="m 230.01649,113.70927 c 0,13.77101 -11.19526,24.93376 -25.00639,24.93376 -13.80917,0 -25.00443,-11.16275 -25.00443,-24.93376 0,-13.769076 11.19526,-24.933767 25.00443,-24.933767 13.81113,0 25.00639,11.164691 25.00639,24.933767"
           id="Fill-72"
           inkscape:connector-curvature="0"
           style="fill:#a5f894;fill-rule:nonzero" />
        <path
           d="m 272.76615,91.061809 c 0,23.534541 -19.13626,42.613301 -42.73935,42.613301 -23.60308,0 -42.7374,-19.07876 -42.7374,-42.613301 0,-23.536481 19.13432,-42.615237 42.7374,-42.615237 23.60309,0 42.73935,19.078756 42.73935,42.615237"
           id="Fill-74"
           inkscape:connector-curvature="0"
           style="fill:#a5f894;fill-rule:nonzero" />
        <path
           d="m 282.74866,113.15598 c 0,13.77102 -11.19526,24.93377 -25.00638,24.93377 -13.80918,0 -25.00444,-11.16275 -25.00444,-24.93377 0,-13.769072 11.19526,-24.933763 25.00444,-24.933763 13.81112,0 25.00638,11.164691 25.00638,24.933763"
           id="Fill-76"
           inkscape:connector-curvature="0"
           style="fill:#a5f894;fill-rule:nonzero" />
        <path
           d="m 205.83087,107.23926 c 1.16196,0 2.10592,0.94123 2.10592,2.09981 v 4.70419 c 0,1.15858 -0.94396,2.09981 -2.10592,2.09981 -1.16196,0 -2.10592,-0.94123 -2.10592,-2.09981 v -4.70419 c -0.008,-1.15858 0.93618,-2.09981 2.10592,-2.09981"
           id="Fill-78"
           inkscape:connector-curvature="0"
           style="fill:#535a80;fill-rule:nonzero" />
        <path
           d="m 258.11558,107.23926 c 1.16196,0 2.10592,0.94123 2.10592,2.09981 v 4.70419 c 0,1.15858 -0.94396,2.09981 -2.10592,2.09981 -1.16196,0 -2.10592,-0.94123 -2.10592,-2.09981 v -4.70419 c 0,-1.15858 0.93618,-2.09981 2.10592,-2.09981"
           id="Fill-80"
           inkscape:connector-curvature="0"
           style="fill:#535a80;fill-rule:nonzero" />
        <path
           d="m 263.79204,92.668881 c 0,0 -1.89183,-2.91101 -5.67743,-2.91101 -3.78366,0 -5.67549,2.91101 -5.67549,2.91101"
           id="Stroke-82"
           inkscape:connector-curvature="0"
           style="stroke:#48d92b;stroke-width:2;stroke-linecap:round;stroke-linejoin:round" />
        <path
           d="m 211.50733,102.38175 c 0,0 -1.89183,-2.911005 -5.67743,-2.911005 -3.78366,0 -5.67549,2.911005 -5.67549,2.911005"
           id="Stroke-84"
           inkscape:connector-curvature="0"
           style="stroke:#48d92b;stroke-width:2;stroke-linecap:round;stroke-linejoin:round" />
        <path
           d="m 198.06172,137.00123 c 0,0 -2.95841,16.7286 -7.2267,24.39037 -2.7813,4.98947 -9.75498,11.00944 -19.76104,8.79319 -11.39573,-2.52481 -21.22662,-11.12005 -21.29863,-18.4558 -0.0798,-8.07514 -7.22087,-11.06766 -8.37504,-0.98004 -1.15611,10.08762 13.56005,35.03885 38.872,35.58612 25.57277,0.55504 36.69018,-12.19325 45.03018,-38.24678 8.33805,-26.05353 -27.24077,-11.08706 -27.24077,-11.08706"
           id="Fill-86"
           inkscape:connector-curvature="0"
           style="fill:#a5f894;fill-rule:nonzero" />
        <path
           d="m 198.06172,137.00123 c 0,0 -2.95841,16.7286 -7.2267,24.39037 -2.7813,4.98947 -9.75498,11.00944 -19.76104,8.79319 -11.39573,-2.52481 -21.22662,-11.12005 -21.29863,-18.4558 -0.0798,-8.07514 -7.22087,-11.06766 -8.37504,-0.98004 -1.15611,10.08762 13.56005,35.03885 38.872,35.58612 25.57277,0.55504 36.69018,-12.19325 45.03018,-38.24678 8.33805,-26.05353 -27.24077,-11.08706 -27.24077,-11.08706 z"
           id="Stroke-88"
           inkscape:connector-curvature="0"
           style="stroke:#a5f894" />
        <path
           d="m 223.6339,195.75976 c 0,0 5.33293,-3.40588 11.67406,2.21625 5.004,4.43443 9.86787,20.7652 12.30077,37.74608 2.27526,15.87665 11.04929,33.75995 21.61005,39.30251 10.56465,5.54257 25.0784,9.05518 25.60391,5.91517 0.5255,-3.14389 -0.83692,-4.17632 -10.0372,-10.34766 -9.20028,-6.17523 -15.55114,-11.24038 -16.11363,-36.94071 -0.56443,-25.6984 1.66022,-47.87058 -7.79114,-68.93271 -9.45135,-21.066 -27.79546,-22.72722 -27.79546,-22.72722 z"
           id="Fill-90"
           inkscape:connector-curvature="0"
           style="fill:#a5f894;fill-rule:nonzero" />
        <path
           d="m 223.6339,195.75976 c 0,0 5.33293,-3.40588 11.67406,2.21625 5.004,4.43443 9.86787,20.7652 12.30077,37.74608 2.27526,15.87665 11.04929,33.75995 21.61005,39.30251 10.56465,5.54257 25.0784,9.05518 25.60391,5.91517 0.5255,-3.14389 -0.83692,-4.17632 -10.0372,-10.34766 -9.20028,-6.17523 -15.55114,-11.24038 -16.11363,-36.94071 -0.56443,-25.6984 1.66022,-47.87058 -7.79114,-68.93271 -9.45135,-21.066 -27.79546,-22.72722 -27.79546,-22.72722 z"
           id="Stroke-92"
           inkscape:connector-curvature="0"
           style="stroke:#a5f894" />
        <path
           d="m 265.32769,133.67511 c 0,0 -1.11135,11.64209 1.11135,17.18271 2.22465,5.54451 8.56383,14.21155 21.90589,13.10149 13.34205,-1.10813 17.17437,-12.54839 18.84237,-25.85365 1.668,-13.30137 1.50256,-16.07071 5.94992,-26.04771 4.44735,-9.977 25.01611,-23.282253 32.24476,-24.390378 7.2267,-1.106183 7.02039,2.177435 5.73387,4.692547 -1.28652,2.515113 -14.07387,4.731361 -19.63258,14.155271 -5.5587,9.42196 -6.672,13.30137 -6.672,21.06212 0,7.76075 0.65007,26.63574 -6.16206,36.82427 -6.79073,10.15554 -18.2974,19.16221 -41.09081,18.05408 -20.57461,-1.00139 -42.80553,-9.97894 -50.58888,-21.61909 -7.78336,-11.64016 17.78941,-28.82288 17.78941,-28.82288 z"
           id="Fill-94"
           inkscape:connector-curvature="0"
           style="fill:#a5f894;fill-rule:nonzero" />
        <path
           d="m 265.32769,133.67511 c 0,0 -1.11135,11.64209 1.11135,17.18271 2.22465,5.54451 8.56383,14.21155 21.90589,13.10149 13.34205,-1.10813 17.17437,-12.54839 18.84237,-25.85365 1.668,-13.30137 1.50256,-16.07071 5.94992,-26.04771 4.44735,-9.977 25.01611,-23.282253 32.24476,-24.390378 7.2267,-1.106183 7.02039,2.177435 5.73387,4.692547 -1.28652,2.515113 -14.07387,4.731361 -19.63258,14.155271 -5.5587,9.42196 -6.672,13.30137 -6.672,21.06212 0,7.76075 0.65007,26.63574 -6.16206,36.82427 -6.79073,10.15554 -18.2974,19.16221 -41.09081,18.05408 -20.57461,-1.00139 -42.80553,-9.97894 -50.58888,-21.61909 -7.78336,-11.64016 17.78941,-28.82288 17.78941,-28.82288 z"
           id="Stroke-96"
           inkscape:connector-curvature="0"
           style="stroke:#a5f894" />
        <path
           d="m 294.79252,191.32493 -13.89871,1.10813 c 0,0 17.23276,19.95594 24.46141,26.60662 7.22671,6.65263 17.78941,12.19325 28.35212,7.76075 10.5627,-4.43444 13.02675,-4.14333 13.02675,-4.14333 0,0 -0.24329,-1.72138 -7.46805,-1.56031 -7.2267,0.16108 -18.90076,-0.94704 -28.35211,-14.80539 -9.45136,-13.85834 -16.12141,-14.96647 -16.12141,-14.96647"
           id="Fill-98"
           inkscape:connector-curvature="0"
           style="fill:#a5f894;fill-rule:nonzero" />
        <path
           d="m 294.79252,191.32493 -13.89871,1.10813 c 0,0 17.23276,19.95594 24.46141,26.60662 7.22671,6.65263 17.78941,12.19325 28.35212,7.76075 10.5627,-4.43444 13.02675,-4.14333 13.02675,-4.14333 0,0 -0.24329,-1.72138 -7.46805,-1.56031 -7.2267,0.16108 -18.90076,-0.94704 -28.35211,-14.80539 -9.45136,-13.85834 -16.12141,-14.96647 -16.12141,-14.96647 z"
           id="Stroke-100"
           inkscape:connector-curvature="0"
           style="stroke:#a5f894;stroke-linecap:round;stroke-linejoin:round" />
        <path
           d="m 119.35721,125.67565 v -6.61963 -14.44443 c 0,0 0.59168,-5.430005 4.21185,-5.430005 3.62211,0 3.23479,5.744395 9.98854,5.744395 3.36908,-0.002 9.17886,-1.72526 9.17886,-12.117565 0,-10.400066 -5.80978,-11.645979 -9.17886,-11.645979 -6.75375,0 -6.36643,5.426122 -9.98854,5.426122 -3.62017,0 -4.21185,-5.583316 -4.21185,-5.583316 v -8.641817 c 0,-3.277796 -2.63143,-5.936518 -5.88763,-5.936518 H 97.891192 c 0,0 -5.134405,-0.884947 -5.134405,-4.49848 0,-3.609652 5.601523,-3.848355 5.601523,-10.578609 0,-3.357364 -1.882096,-8.686452 -12.308559,-8.686452 -10.426463,0 -11.837548,5.329088 -11.837548,8.686452 0,6.730254 5.132458,6.967016 5.132458,10.578609 0,3.613533 -5.132458,4.49848 -5.132458,4.49848 H 59.813291 c -1.967735,0 -3.698018,0.983921 -4.76655,2.48018 -0.694838,0.976158 -1.115244,2.16385 -1.115244,3.456338 l 0.01557,11.593581 c 0,0 -0.632555,8.946502 6.586364,8.946502 4.544669,0 4.817154,-6.107298 10.802103,-6.105357 2.977877,-0.0019 6.008306,2.790687 6.008306,8.962028 0,6.167461 -3.030429,9.264771 -6.008306,9.264771 -5.983003,0 -6.257434,-6.095652 -10.802103,-6.095652 -7.218919,0 -6.586364,8.634052 -6.586364,8.634052 l -0.01557,18.1123 c 0,3.27586 2.633377,5.93652 5.881794,5.93652 h 19.42043 c 0,0 9.385179,0.6249 9.385179,-6.57112 0,-4.53535 -5.922667,-5.37566 -5.922667,-11.34711 0,-2.96729 3.302913,-6.63904 9.494173,-6.63904 6.19126,0 9.863974,3.67175 9.863974,6.63904 0,5.97145 -5.741658,6.81176 -5.741658,11.34711 0,7.19602 9.391018,6.57112 9.391018,6.57112 h 7.76584 c 3.2562,0 5.88763,-2.66066 5.88763,-5.93652"
           id="Fill-102"
           inkscape:connector-curvature="0"
           style="fill:#e1e1e6;fill-rule:nonzero" />
        <path
           d="m 173.60051,191.32493 8.8947,3.32631 c 0,0 1.668,2.77129 -6.11535,10.53204 -7.78141,7.75881 -20.01211,21.06212 -32.79947,22.17024 -12.78541,1.11007 -29.21823,-5.71722 -29.21823,-5.71722 0,0 1.42277,-4.25978 5.31347,-3.70474 3.89265,0.55309 14.55851,6.17716 23.12234,3.36512 8.56577,-2.81203 16.63329,-14.20378 30.80254,-29.97175"
           id="Fill-104"
           inkscape:connector-curvature="0"
           style="fill:#a5f894;fill-rule:nonzero" />
        <path
           d="m 173.60051,191.32493 8.8947,3.32631 c 0,0 1.668,2.77129 -6.11535,10.53204 -7.78141,7.75881 -20.01211,21.06212 -32.79947,22.17024 -12.78541,1.11007 -29.21823,-5.71722 -29.21823,-5.71722 0,0 1.42277,-4.25978 5.31347,-3.70474 3.89265,0.55309 14.55851,6.17716 23.12234,3.36512 8.56577,-2.81203 16.63329,-14.20378 30.80254,-29.97175 z"
           id="Stroke-106"
           inkscape:connector-curvature="0"
           style="stroke:#a5f894;stroke-linecap:round;stroke-linejoin:round" />
        <path
           d="m 331.81065,131.96188 c -0.004,-0.17466 -0.0136,-0.33768 -0.0234,-0.50652 -0.01,-0.15525 -0.0175,-0.31438 -0.0214,-0.49681 -0.0467,-3.18658 0.33282,-6.0122 1.1639,-8.64181 0.45544,-1.46715 1.07437,-2.84697 1.56485,-3.88523 0.56443,-1.19352 1.25148,-2.4239 2.04753,-3.65817 0.73571,-1.16052 1.58042,-2.26865 2.42123,-3.36707 0.73182,-0.96257 1.56095,-1.9562 2.52438,-3.02939 1.66217,-1.82811 3.3107,-3.53202 4.76071,-4.9196 l 1.27095,-1.2071 c 0.85249,-0.80926 1.56096,-1.48268 2.10593,-1.97949 l 1.25148,-1.133352 c 1.77116,-1.626284 2.4115,-4.061829 1.71472,-6.311069 0.80383,-1.750487 0.84859,-3.246746 0.0642,-4.32576 -1.0627,-1.449683 -3.34574,-1.886334 -6.97369,-1.331302 -7.18194,1.090659 -28.34433,14.428903 -32.98436,24.757163 -1.70109,3.78237 -2.73654,6.52454 -3.45668,9.19297 -1.01793,3.03327 -1.75753,6.18687 -2.11371,9.37733 -0.0681,0.56474 -0.11483,1.17993 -0.16154,1.78736 l -0.20047,3.07985 0.0117,0.19795 -0.0623,1.57 c -0.008,0.29887 -0.0195,0.60161 -0.0487,0.92958 -1.54538,12.21654 -4.79185,23.65875 -17.89256,24.77464 -0.99847,-0.0602 -2.05337,-0.14361 -3.06546,-0.43666 -2.06895,-0.5395 -4.03279,-1.56612 -5.67938,-2.97505 -0.79021,-0.66565 -1.54733,-1.44774 -2.24995,-2.31134 -0.57417,-0.71223 -1.11719,-1.5176 -1.73028,-2.55004 -0.11094,-0.22124 -0.22772,-0.43277 -0.34645,-0.64431 -0.1304,-0.23676 -0.26081,-0.46964 -0.37369,-0.71999 -0.11873,-0.25616 -0.25497,-0.50263 -0.36591,-0.6967 l -0.47296,-0.94316 c -0.0681,-0.12615 -0.13624,-0.25035 -0.1849,-0.34739 -0.0993,-0.21929 -0.20826,-0.43471 -0.35034,-0.70058 -0.21604,-0.41142 -0.42235,-0.81508 -0.6345,-1.24009 -0.18101,-0.32797 -0.3445,-0.64818 -0.50215,-0.95675 -0.22578,-0.44441 -0.44182,-0.86554 -0.64229,-1.19934 -0.10705,-0.20571 -0.22383,-0.39977 -0.38343,-0.65594 -0.14986,-1.80871 -0.27054,-3.7261 -0.36007,-5.71529 10.76707,-2.97117 18.2176,-12.63378 18.2176,-23.76936 0,-7.29305 -3.21338,-14.13198 -8.83437,-18.84005 0.0448,-0.861659 0.0701,-1.727199 0.0701,-2.602443 0,-27.439175 -22.56764,-49.760795 -50.3086,-49.760795 -27.73903,0 -50.30666,22.32162 -50.30666,49.760795 0,0.875244 0.0253,1.740784 0.0701,2.602443 -5.62098,4.70807 -8.83437,11.547 -8.83437,18.84005 0,11.16081 7.47,20.83313 18.26432,23.78683 -0.30168,9.02995 -1.06075,16.6762 -2.31613,23.34824 -1.10746,1.00721 -2.33948,1.88245 -3.66882,2.60632 -0.73766,0.40948 -1.60183,0.79374 -2.70734,1.20904 -0.84665,0.30275 -1.78283,0.56085 -2.94479,0.81314 h -0.6267 l -0.002,0.10092 -2.60613,0.28334 c -1.29236,0.0446 -2.27915,0.008 -3.20755,-0.0951 -5.44387,-1.20321 -10.5627,-3.84447 -14.32495,-7.0427 -0.70067,-0.71029 -1.34491,-1.44386 -1.92491,-2.20266 -1.07243,-1.39341 -2.00666,-2.90131 -2.77546,-4.49072 -0.58195,-1.17993 -1.06464,-2.43166 -1.48116,-3.81342 -0.0467,-2.02218 -0.53134,-3.82119 -1.30793,-5.21653 -0.0525,-0.11062 -0.10704,-0.22318 -0.16933,-0.32992 -0.037,-0.0582 -0.0778,-0.11061 -0.11678,-0.17078 -0.12067,-0.18242 -0.25107,-0.35902 -0.39899,-0.52398 -0.8739,-1.09066 -1.96968,-1.78348 -3.19976,-1.84558 -0.44571,-0.0349 -1.37605,0.0349 -2.33364,0.75687 -0.31531,0.15331 -0.61699,0.33379 -0.89337,0.55891 -0.9537,0.78209 -1.54538,1.88051 -1.66216,3.09925 l -0.12067,1.2498 c -0.0525,0.43277 -0.0798,0.97227 -0.1051,1.60687 l -0.037,1.02274 0.008,1.11977 c 0,0.01 0.002,0.0194 0.002,0.0291 0,0.0175 0,0.031 0.002,0.0466 0.037,2.02219 0.21798,3.91628 0.55664,5.77545 0.4535,2.5384 1.17364,5.05351 2.14096,7.47353 1.11914,2.81203 2.64895,5.5872 4.5544,8.25756 1.13471,1.55836 2.23049,2.88772 3.34184,4.05019 1.21062,1.30413 2.59056,2.58303 4.09507,3.79983 3.06546,2.48795 6.52603,4.54118 10.28049,6.10148 1.78867,0.75104 3.74862,1.39922 6.01803,1.98725 l 0.27638,0.064 c -0.62087,0.60743 -1.23202,1.22457 -1.83149,1.84752 -1.73223,1.78736 -3.56956,3.8076 -5.78253,6.35182 -0.97706,1.11977 -1.94438,2.24536 -2.90781,3.36513 -2.756,3.20211 -5.35629,6.22762 -8.04027,9.01249 -1.97746,2.05711 -3.75057,3.73191 -5.43024,5.12531 -1.78284,1.4885 -3.55205,2.72859 -5.26676,3.69699 -5.96159,1.89021 -13.22333,-0.50846 -18.04049,-2.10369 -1.91518,-0.6346 -3.42942,-1.13724 -4.55245,-1.29637 -3.59876,-0.49682 -5.66964,2.42778 -6.31388,4.17632 -1.91713,2.33657 -1.65827,5.77933 0.64618,7.78598 l 0.86806,0.75299 c 0.56638,0.51039 1.43444,1.2168 2.68399,2.17743 1.19504,0.8636 2.68203,1.93873 4.58359,2.98864 2.2772,1.2789 4.5291,2.26282 6.88415,3.00998 3.04016,0.95481 6.13871,1.49044 9.20417,1.59135 1.57847,0.0602 3.26594,0.004 5.17528,-0.1766 1.92492,-0.21929 3.63379,-0.51234 5.22199,-0.89465 3.24063,-0.7588 6.60972,-1.92515 10.008,-3.46798 2.82023,-1.2692 5.7728,-2.8295 9.02511,-4.77406 4.19239,-2.51123 8.13369,-5.19518 11.60983,-7.55698 1.2437,-0.84807 2.45042,-1.66898 3.62211,-2.45107 2.51465,-1.69032 4.49407,-2.95564 6.23408,-3.98614 0.80578,-0.48323 1.59599,-0.91988 2.37452,-1.32936 -0.15766,1.33712 -0.28611,2.60438 -0.39511,3.84253 -0.28416,2.09205 -0.51383,4.21126 -0.62671,6.36541 -0.11873,2.03188 -0.1635,4.07735 -0.14403,6.24897 l 0.0448,2.6199 -0.0545,0.92571 0.0584,0.004 -0.006,0.45023 c -0.0525,1.80483 -0.11289,3.74938 -0.19074,5.91711 -0.0934,1.5933 -0.27249,3.13807 -0.43209,4.43444 -0.21215,1.60688 -0.43987,2.98282 -0.70067,4.21708 -0.30558,1.49238 -0.62088,2.78099 -0.96344,3.92793 -0.38537,1.27502 -0.80577,2.49182 -1.24564,3.61547 -0.48269,1.23427 -1.05686,2.38315 -1.49867,3.24481 -0.52357,1.00332 -1.10357,1.96784 -1.73029,2.87219 -0.61893,0.91988 -1.26121,1.76601 -1.9035,2.50541 -0.81162,0.9257 -1.44418,1.58941 -2.04948,2.15415 -0.69873,0.65012 -1.40136,1.24203 -2.08841,1.77765 -0.43987,0.33768 -0.90115,0.64625 -1.35853,0.9587 -0.65202,0.24452 -1.31377,0.48517 -1.98331,0.72387 -4.71789,1.67674 -10.06445,3.58054 -10.01579,8.79319 0,0.004 -0.002,0.008 -0.002,0.0116 v 0.004 0.008 l 0.004,0.2387 0.0273,0.0505 c 0.16154,3.36706 2.95841,6.06072 6.39951,6.06072 h 0.002 c 0.0701,0.004 0.18879,0.0213 0.35618,0.0427 0.93229,0.12032 3.11022,0.4056 6.37616,0.20377 2.53801,-0.16301 4.95923,-0.55891 7.39214,-1.21098 1.51035,-0.39395 3.00902,-0.88689 4.45125,-1.46326 1.7692,-0.70641 3.32043,-1.4361 4.7393,-2.2279 1.69719,-0.93928 3.32043,-1.97366 4.82883,-3.0779 1.6174,-1.1974 3.19003,-2.52288 4.67507,-3.93957 1.41109,-1.33907 2.82607,-2.88578 4.32668,-4.7333 1.37021,-1.68257 2.65674,-3.48933 3.82258,-5.36984 2.35506,-3.76103 4.33836,-7.79569 5.89153,-11.98366 0.77074,-2.03577 1.47337,-4.16468 2.08257,-6.31689 0.24913,-0.84031 0.46322,-1.67674 0.67537,-2.51705 l 0.32309,-1.31578 c 0.20437,-0.85972 0.40873,-1.72138 0.58585,-2.65872 l 0.58584,-2.97117 0.59752,-2.66455 c 0.40289,-1.64763 0.79799,-3.23704 1.2184,-4.74494 0.83692,-3.0488 1.72639,-5.73663 2.63727,-7.98393 0.4749,-1.13723 0.92645,-2.18908 1.36827,-3.14389 0.45544,-0.94899 0.89141,-1.80677 1.30404,-2.58498 0.38926,-0.6967 0.73181,-1.29637 1.04906,-1.82617 0.31726,0.52786 0.65786,1.12171 1.04129,1.81065 0.4204,0.79179 0.85833,1.65151 1.30793,2.58886 0.44571,0.96451 0.8992,2.0183 1.37021,3.14971 0.91477,2.25312 1.8023,4.94095 2.64116,7.99363 0.41846,1.50402 0.81357,3.09343 1.21646,4.73524 l 0.29779,1.25368 0.31141,1.77183 0.0603,-0.004 0.51383,2.61409 c 0.17907,0.94316 0.38343,1.80482 0.58779,2.66454 l 0.30752,1.26144 c 0.21799,0.85778 0.43598,1.71555 0.68706,2.5578 0.61309,2.16191 1.31376,4.29083 2.08256,6.32272 1.55901,4.19767 3.54231,8.23233 5.89348,11.98754 1.16779,1.88439 2.45431,3.69115 3.82258,5.37372 1.49283,1.83782 2.90781,3.38647 4.32668,4.7333 1.49088,1.42057 3.06546,2.74605 4.68091,3.94345 1.50451,1.10036 3.12774,2.13474 4.82299,3.07208 1.42082,0.79374 2.97204,1.52343 4.7393,2.22789 1.44612,0.57832 2.94285,1.07126 4.44541,1.46327 2.44069,0.65401 4.86192,1.04991 7.40382,1.21292 0.80383,0.0505 1.54149,0.0699 2.21297,0.0699 2.04559,0 3.45668,-0.18243 4.1593,-0.27364 0.16738,-0.0213 0.28611,-0.0388 0.35618,-0.0427 3.48586,0 6.31777,-2.75964 6.41314,-6.18493 0.002,-0.006 0.004,-0.0116 0.006,-0.0175 0.64617,-3.83283 -1.48505,-5.25146 -10.45372,-11.22098 -8.4451,-5.62212 -15.11516,-10.06432 -15.68543,-35.86557 0,-0.0408 0,-0.0796 -0.002,-0.12226 l 0.037,-2.10563 c 0.0175,-2.061 -0.0292,-4.09677 -0.13625,-6.0549 -0.01,-2.03577 -0.0156,-4.06183 -0.0175,-6.04326 -0.002,-2.26088 -0.006,-4.50818 -0.0214,-6.73802 0.77658,0.0136 1.56289,0.0446 2.36867,0.11256 1.60767,0.13973 3.20949,0.4056 4.75877,0.79568 1.91518,0.48517 3.67077,1.09648 5.38159,1.87663 0.89725,0.39202 1.80813,0.86166 2.8825,1.43998 0.99068,0.55697 2.00277,1.15276 3.03238,1.82617 1.88988,1.22651 3.98413,2.75382 6.40146,4.6712 1.18142,0.93541 2.38036,1.91933 3.61822,2.93042 1.09773,0.89853 2.2227,1.82035 3.38855,2.75187 2.47378,1.97367 5.19863,4.05601 8.33806,5.90935 2.4874,1.47685 6.3781,3.38065 10.78848,4.05989 1.97357,0.30857 3.88875,0.38425 5.69494,0.229 1.79646,-0.15914 3.46446,-0.46576 4.94951,-0.91018 3.01485,-0.85972 5.33293,-2.08622 7.21113,-3.17688 1.85096,-1.1023 3.30291,-2.17937 4.5291,-3.11478 1.15028,-0.91406 2.02223,-1.64181 2.58277,-2.14444 l 0.86612,-0.76269 c 1.88015,-1.65539 2.42512,-4.34322 1.3741,-6.59052 -0.0564,-0.23094 -0.18879,-0.48517 -0.43792,-0.74134 -1.57069,-2.34045 -4.68675,-3.23122 -7.29677,-1.94261 l -0.90504,0.44829 c -7.47778,0.13585 -18.36747,-1.25367 -27.31084,-14.26588 -6.19126,-9.00667 -11.2517,-12.70947 -14.14199,-14.22514 -0.39705,-0.32991 -0.79605,-0.65983 -1.22424,-0.99556 1.28068,-0.18049 2.47572,-0.41143 3.61238,-0.6967 1.64464,-0.37261 3.40023,-0.94511 5.37964,-1.75049 3.57734,-1.50596 6.83549,-3.45828 9.68491,-5.80067 2.92533,-2.39867 5.46139,-5.11368 7.54201,-8.0635 1.96774,-2.80039 3.65325,-5.89576 5.00984,-9.19685 2.29277,-5.61048 3.68634,-11.84781 4.14373,-18.54507 0.17517,-2.86055 0.1849,-5.78708 0.0273,-8.66898 -0.0136,-0.49294 -0.0506,-0.97228 -0.0895,-1.45357 l -0.29195,-3.66787"
           id="Stroke-108"
           inkscape:connector-curvature="0"
           style="stroke:#00b300;stroke-linecap:round;stroke-linejoin:round" />
        <path
           d="m 260.25946,177.50152 c 0,0 15.08402,10.6737 33.08752,7.76269"
           id="Stroke-110"
           inkscape:connector-curvature="0"
           style="stroke:#67f84a;stroke-width:2;stroke-linecap:round;stroke-linejoin:round" />
        <path
           d="m 292.3672,224.80717 c 2.66647,1.94261 5.67938,2.35015 6.73234,0.91405 1.05296,-1.43997 -0.25302,-4.17826 -2.91949,-6.12088 -2.66452,-1.94067 -5.67937,-2.35015 -6.73233,-0.91017 -1.05297,1.43609 0.25302,4.17438 2.91948,6.117 m 45.70944,11.61687 c 2.84553,-1.6651 4.42205,-4.26172 3.51701,-5.79679 -0.90504,-1.53508 -3.9452,-1.4264 -6.79072,0.2387 -2.84748,1.66704 -4.42206,4.26366 -3.51701,5.79873 0.90504,1.53507 3.94325,1.42833 6.79072,-0.24064 m 0.14792,-132.55185 c -2.40565,2.257 -3.36325,5.13502 -2.13901,6.43139 1.22424,1.29637 4.16514,0.5201 6.56885,-1.73496 2.40371,-2.25894 3.35936,-5.13696 2.13901,-6.43333 -1.22424,-1.29637 -4.16513,-0.5201 -6.56885,1.7369 m -12.19372,47.62606 c -0.83887,3.1827 -0.12067,6.13058 1.60572,6.58276 1.72833,0.45412 3.80701,-1.76019 4.64782,-4.9429 0.83887,-3.1827 0.12067,-6.13252 -1.60377,-6.5847 -1.72834,-0.45412 -3.80896,1.76019 -4.64977,4.94484 m -13.74689,27.67399 c -2.65285,1.9562 -3.9452,4.70419 -2.8864,6.13447 1.06074,1.43416 4.0756,1.00721 6.73039,-0.94899 2.65479,-1.9562 3.94714,-4.70225 2.88445,-6.13252 -1.0588,-1.43222 -4.07171,-1.00721 -6.72844,0.94704 m 0.71624,58.50547 c 3.06352,1.22651 6.08616,0.88301 6.75181,-0.76851 0.66564,-1.65151 -1.27679,-3.98614 -4.34031,-5.21458 -3.06351,-1.22651 -6.08616,-0.88301 -6.7518,0.7685 -0.66564,1.65151 1.27679,3.98614 4.3403,5.21459 M 173.68031,223.36913 c -1.05297,-1.4361 -4.06782,-1.02856 -6.73429,0.91212 -2.66646,1.94261 -3.97245,4.68284 -2.91754,6.12088 1.05296,1.4361 4.06587,1.02855 6.73234,-0.91406 2.66646,-1.94261 3.97439,-4.6809 2.91949,-6.11894 m -41.8382,15.37789 c 0.90504,-1.53507 -0.66954,-4.13169 -3.51507,-5.80067 -2.84747,-1.66704 -5.88763,-1.77378 -6.79267,-0.2387 -0.90504,1.53313 0.66954,4.12975 3.51701,5.79873 2.84553,1.66704 5.88763,1.77571 6.79073,0.24064 m 19.34452,-58.96347 c 1.65243,-0.67535 1.97941,-3.69116 0.72598,-6.73801 -1.24954,-3.04492 -3.6046,-4.96618 -5.25508,-4.29277 -1.65243,0.67341 -1.97746,3.69116 -0.72598,6.73608 1.24954,3.04685 3.6046,4.96812 5.25508,4.2947 m 70.22924,56.99369 c -1.67968,-0.60161 -3.9452,1.42445 -5.0585,4.52371 -1.11329,3.09925 -0.65396,6.09759 1.02766,6.69726 1.67968,0.60161 3.9452,-1.42445 5.0585,-4.52371 1.1133,-3.09925 0.65397,-6.09565 -1.02766,-6.69726 m -13.87535,32.50627 c -1.27095,-1.25173 -4.1807,-0.36679 -6.49878,1.97755 -2.32002,2.34433 -3.16861,5.25728 -1.89766,6.50707 1.27095,1.25174 4.1807,0.36485 6.49877,-1.97754 2.31808,-2.34628 3.16862,-5.25729 1.89767,-6.50708 m -57.41269,-30.5656 c -3.06352,1.22651 -6.08616,0.88301 -6.7518,-0.77045 -0.66759,-1.64957 1.27679,-3.9842 4.3403,-5.21264 3.06352,-1.22651 6.08616,-0.88301 6.7518,0.7685 0.66565,1.65152 -1.27679,3.98615 -4.3403,5.21459"
           id="Fill-112"
           inkscape:connector-curvature="0"
           style="fill:#eeff99;fill-rule:nonzero" />
        <path
           d="m 188.73202,190.60106 c 0,0 5.35239,-0.97034 12.16453,-4.36651 4.48044,-2.23372 9.73162,-8.24786 9.73162,-8.24786"
           id="Stroke-114"
           inkscape:connector-curvature="0"
           style="stroke:#67f84a;stroke-width:2;stroke-linecap:round;stroke-linejoin:round" />
        <path
           d="m 118.75365,233.73543 -2.82411,-27.85642 c 2.17599,-0.99363 4.06198,-2.46854 5.54118,-4.2753 2.50492,-3.05851 3.8401,-7.06988 3.40997,-11.30831 -0.64229,-6.32659 -5.02931,-11.3704 -10.74761,-13.1694 -0.1051,-0.033 -0.20826,-0.0427 -0.30947,-0.033 -0.20631,0.0213 -0.39315,0.12614 -0.51966,0.28333 -0.12457,0.14944 -0.19269,0.34933 -0.17128,0.56668 l 1.19115,11.7566 c 0.0642,0.63266 -0.13624,1.23233 -0.50994,1.69032 -0.37369,0.45606 -0.9245,0.77239 -1.55901,0.83449 l -5.41078,0.54727 c -1.27095,0.12809 -2.40566,-0.79761 -2.53411,-2.06487 l -1.1931,-11.75466 c -0.0448,-0.44247 -0.44182,-0.73357 -0.8486,-0.69282 -0.10121,0.01 -0.20436,0.0427 -0.30168,0.0951 -1.72639,0.95675 -3.240629,2.22984 -4.470707,3.7358 -2.502974,3.05656 -3.838152,7.06405 -3.409961,11.30442 0.68316,6.77295 5.609309,12.05546 11.895938,13.4935 l 2.82412,27.85836 c -2.1721,0.99168 -4.06004,2.46659 -5.54119,4.27336 -2.50492,3.0585 -3.838152,7.06987 -3.408015,11.31024 0.642285,6.3266 5.029305,11.37041 10.747605,13.16941 0.1051,0.033 0.20826,0.0408 0.30947,0.033 0.20631,-0.0213 0.39316,-0.12808 0.52161,-0.28334 0.12262,-0.15137 0.19074,-0.35126 0.16933,-0.56862 l -1.19115,-11.75659 c -0.0642,-0.63266 0.1343,-1.23233 0.50994,-1.69033 0.37369,-0.45606 0.9245,-0.77044 1.55901,-0.83449 l 5.41078,-0.54727 c 1.27095,-0.12808 2.40566,0.79762 2.53411,2.06488 l 1.1931,11.75466 c 0.0448,0.44441 0.44182,0.73357 0.85055,0.69282 0.0993,-0.01 0.20241,-0.0408 0.29778,-0.0951 1.72834,-0.95675 3.24258,-2.22983 4.47266,-3.73579 2.50492,-3.05656 3.8401,-7.06405 3.40996,-11.30248 -0.68511,-6.77489 -5.61126,-12.05546 -11.89789,-13.49544"
           id="Fill-116"
           inkscape:connector-curvature="0"
           style="fill:#c8c8cc;fill-rule:nonzero" />
      </g>
      <g
         id="Group-125"
         transform="translate(197.59091,177.27273)">
        <g
           id="Group-121">
          <g
             id="Fill-119-Clipped">
            <mask
               id="mask-2"
               fill="white">
              <use
                 xlink:href="#path-1"
                 id="use78"
                 x="0"
                 y="0"
                 width="100%"
                 height="100%" />
            </mask>
            <g
               id="g81" />
            <path
               d="M 25.595413,56.94325 22.731597,29.032694 c 2.206579,-0.993611 4.119079,-2.471388 5.619079,-4.281666 2.540131,-3.064445 3.894079,-7.083611 3.457895,-11.332222 C 31.157255,7.0799167 26.708571,2.0263056 20.909886,0.22380556 20.803307,0.19075 20.698702,0.18297222 20.596071,0.19075 20.38686,0.21213889 20.197386,0.31908333 20.069097,0.47463889 19.942781,0.62630556 19.873702,0.82658333 19.895413,1.0443611 l 1.207894,11.7774999 c 0.06513,0.635833 -0.138158,1.234722 -0.517105,1.695556 -0.378947,0.456944 -0.9375,0.771944 -1.580921,0.836111 l -5.486842,0.548333 C 12.229623,16.02825 11.078965,15.102694 10.948702,13.832972 L 9.7388337,2.0535278 C 9.693439,1.6101944 9.2908074,1.3204722 8.8783074,1.3613056 8.7756758,1.3710278 8.6710706,1.4021389 8.5723864,1.4565833 6.8217285,2.4151944 5.2862021,3.69075 4.0388337,5.1976944 1.5006758,8.2621389 0.14672847,12.277417 0.58093899,16.524083 1.2737022,23.310194 6.2690969,28.602972 12.644097,30.04575 l 1.474342,14.3675 10.081579,-1.005278 0.582237,5.67 -10.081579,1.005278 0.807237,7.873056 c -2.202632,0.993611 -4.117106,2.471388 -5.6190793,4.283611 -2.5401316,3.064444 -3.8921052,7.081666 -3.455921,11.330277 0.6513158,6.338889 5.1000003,11.3925 10.8986843,13.195 0.106579,0.03306 0.211184,0.04278 0.311842,0.03306 0.211184,-0.02139 0.400658,-0.126389 0.530921,-0.283889 0.124342,-0.149722 0.193421,-0.35 0.171711,-0.567778 L 17.138176,74.167139 c -0.06513,-0.633889 0.136184,-1.234722 0.517105,-1.693611 0.378947,-0.458889 0.9375,-0.773889 1.580921,-0.838056 l 5.486842,-0.546389 c 1.288816,-0.128333 2.439474,0.799167 2.569737,2.068889 l 1.209868,11.7775 c 0.04539,0.443334 0.448027,0.733056 0.8625,0.694167 0.100658,-0.01167 0.205264,-0.04278 0.301974,-0.09528 1.752632,-0.958611 3.288158,-2.234167 4.535526,-3.743055 2.540132,-3.0625 3.894079,-7.079723 3.457895,-11.326389 C 36.965807,63.678806 31.970413,58.386028 25.595413,56.94325"
               id="Fill-119"
               mask="url(#mask-2)"
               inkscape:connector-curvature="0"
               style="fill:#e1e1e6;fill-rule:nonzero" />
          </g>
        </g>
        <g
           id="Group-124"
           transform="translate(13.815789,42.777778)">
          <g
             id="Fill-122-Clipped">
            <mask
               id="mask-4"
               fill="white">
              <use
                 xlink:href="#path-3"
                 id="use86"
                 x="0"
                 y="0"
                 width="100%"
                 height="100%" />
            </mask>
            <g
               id="g89" />
            <polygon
               id="Fill-122"
               mask="url(#mask-4)"
               points="0.30245215,1.6356667 0.29258373,1.6376111 0.87482057,7.3056667 0.88468899,7.3056667 10.966268,6.3003889 10.384031,0.63038889 "
               style="fill:#f6f6f8;fill-rule:nonzero" />
          </g>
        </g>
      </g>
      <g
         id="Group-184"
         transform="translate(194.18182,36.363636)">
        <path
           d="m 249.95811,72.227141 -16.5722,-50.439546 c -0.72476,-2.202397 0.47604,-4.577645 2.68334,-5.302066 l 6.48004,-2.126653 c 2.20535,-0.724421 4.57975,0.475827 5.3045,2.680165 l 16.5722,50.439546 c 0.72476,2.204339 -0.47604,4.579587 -2.68333,5.302066 l -6.48005,2.128595 c -2.20535,0.724421 -4.58169,-0.475827 -5.3045,-2.682107"
           id="Fill-126"
           inkscape:connector-curvature="0"
           style="fill:#c8c8cc;fill-rule:nonzero" />
        <path
           d="m 235.9072,27.620256 12.54233,-10.609959 c 0.64703,-0.545743 0.7267,-1.510991 0.1807,-2.155785 -0.54599,-0.646735 -1.51168,-0.726363 -2.15872,-0.180619 l -12.54427,10.609958 c -0.64509,0.545744 -0.72476,1.510992 -0.17876,2.157727 0.13601,0.161199 0.29923,0.287438 0.47799,0.378719 0.53239,0.268017 1.19691,0.209753 1.68073,-0.200041 m 1.84783,5.624463 12.54233,-10.608017 c 0.64704,-0.547686 0.7267,-1.514876 0.18071,-2.159669 -0.546,-0.644793 -1.51169,-0.726364 -2.15872,-0.18062 l -12.54234,10.609959 c -0.64703,0.547686 -0.72669,1.514876 -0.1807,2.159669 0.13601,0.161199 0.29923,0.287438 0.47799,0.376777 0.53045,0.269959 1.19691,0.211694 1.68073,-0.198099 m 1.84783,5.624463 12.54234,-10.609959 c 0.64508,-0.545744 0.72669,-1.510992 0.1807,-2.157727 -0.546,-0.644794 -1.51363,-0.726364 -2.15872,-0.178678 l -12.54233,10.609959 c -0.64704,0.545744 -0.7267,1.510992 -0.18071,2.155785 0.13602,0.161198 0.29923,0.28938 0.47605,0.378719 0.53433,0.268017 1.19691,0.211694 1.68267,-0.198099 m 5.5435,16.871446 12.54233,-10.608016 c 0.64704,-0.547686 0.7267,-1.514876 0.18071,-2.15967 -0.54794,-0.644793 -1.51363,-0.726364 -2.15872,-0.18062 L 243.1664,53.402281 c -0.64509,0.547686 -0.7267,1.514876 -0.17876,2.159669 0.13601,0.161199 0.29923,0.287438 0.47799,0.376777 0.53239,0.269959 1.19691,0.211694 1.68073,-0.198099 m 1.84783,5.624463 12.54234,-10.609959 c 0.64703,-0.545744 0.72669,-1.510992 0.1807,-2.157727 -0.546,-0.644793 -1.51169,-0.724422 -2.15872,-0.178678 l -12.54428,10.609959 c -0.64509,0.545744 -0.72669,1.510992 -0.17876,2.155785 0.13602,0.163141 0.29923,0.28938 0.47799,0.378719 0.53045,0.268017 1.19691,0.211694 1.68073,-0.198099 m 1.84783,5.624463 12.54234,-10.609959 c 0.64509,-0.547686 0.7267,-1.512934 0.1807,-2.157727 -0.54599,-0.646736 -1.51363,-0.726364 -2.15872,-0.18062 l -12.54233,10.609959 c -0.64703,0.547686 -0.7267,1.512934 -0.1807,2.159669 0.13601,0.161198 0.29922,0.285496 0.47798,0.376777 0.53045,0.269959 1.19692,0.211694 1.68073,-0.198099 m 0.16516,5.822562 c -0.17681,-0.08934 -0.34003,-0.217521 -0.47604,-0.378719 -0.546,-0.644794 -0.46633,-1.611984 0.1807,-2.157728 l 12.54233,-10.609958 c 0.64509,-0.545744 1.61273,-0.464174 2.15872,0.18062 0.54794,0.644793 0.46633,1.611983 -0.1807,2.157727 l -12.54428,10.609959 c -0.48381,0.409793 -1.14639,0.466115 -1.68073,0.198099"
           id="Fill-128"
           inkscape:connector-curvature="0"
           style="fill:#737eb3;fill-rule:nonzero" />
        <path
           d="m 257.13823,10.440591 -2.35691,-7.1723555 c -0.72475,-2.206281 -3.10109,-3.40652889 -5.3045,-2.6821074 l -27.15595,8.9144628 c -2.2073,0.7244211 -3.40615,3.0977271 -2.68334,5.3020661 l 2.35691,7.172355 c 0.72475,2.204339 3.09915,3.404587 5.30644,2.680166 l 27.15401,-8.912521 c 2.20729,-0.724422 3.40615,-3.097727 2.68334,-5.302066 m 6.48393,33.202975 -27.15595,8.914463 c -2.20535,0.722479 -4.58169,-0.477769 -5.3045,-2.682108 l -2.35691,-7.174297 c -0.72476,-2.202397 0.47604,-4.577645 2.68139,-5.302066 l 27.15595,-8.914463 c 2.20536,-0.722479 4.5817,0.477769 5.30645,2.682107 l 2.35691,7.172356 c 0.72281,2.204339 -0.47605,4.579587 -2.68334,5.304008"
           id="Fill-130"
           inkscape:connector-curvature="0"
           style="fill:#95a2e6;fill-rule:nonzero" />
        <path
           d="m 227.32187,7.8573388 -5.00139,1.6430579 c -2.20535,0.7244213 -3.40615,3.0977273 -2.68334,5.3020663 l 2.35691,7.174297 c 0.72475,2.202397 3.10109,3.402645 5.30644,2.678223 l 5.00139,-1.639173 z m 14.14728,43.0574382 -5.00138,1.643058 c -2.2073,0.722479 -4.5817,-0.477769 -5.30645,-2.682108 l -2.35691,-7.174297 c -0.72281,-2.202397 0.47604,-4.577645 2.68334,-5.302066 l 4.99945,-1.641116 z"
           id="Fill-132"
           inkscape:connector-curvature="0"
           style="fill:#737eb3;fill-rule:nonzero" />
        <path
           d="m 257.13823,10.440591 -2.35691,-7.1723555 c -0.72475,-2.206281 -3.10109,-3.40652889 -5.3045,-2.6821074 l -5.00334,1.6411157 4.98002,15.1565292 5.00139,-1.641116 c 2.20729,-0.724422 3.40615,-3.097727 2.68334,-5.302066 m 6.48393,33.202975 -5.00139,1.641116 -4.98001,-15.156529 5.00138,-1.643058 c 2.20536,-0.722479 4.5817,0.477769 5.30645,2.682107 l 2.35691,7.172356 c 0.72281,2.204339 -0.47605,4.579587 -2.68334,5.304008"
           id="Fill-134"
           inkscape:connector-curvature="0"
           style="fill:#c8c8cc;fill-rule:nonzero" />
        <path
           d="m 265.79467,49.450397 c -2.91456,-0.971075 -14.8973,3.237562 -14.25026,10.035082 0.64897,6.797521 11.65825,8.73967 17.16483,5.179711 5.43663,-3.519173 4.8576,-12.623967 -2.91457,-15.214793"
           id="Fill-136"
           inkscape:connector-curvature="0"
           style="fill:#67f84a;fill-rule:nonzero" />
        <path
           d="m 297.12622,188.5133 -9.53256,1.93438 -11.0015,-54.15682 c -0.89575,-4.40674 1.78371,-8.71248 6.0448,-9.91467 0.33809,-0.0952 0.68589,0.10876 0.76361,0.45058 z"
           id="Fill-138"
           inkscape:connector-curvature="0"
           style="fill:#c8c8cc;fill-rule:nonzero" />
        <path
           d="m 307.21157,132.0562 c 0.23511,-0.27579 0.65287,-0.29327 0.91518,-0.0408 3.1827,3.06277 3.5169,8.10847 0.66063,11.57327 l -35.16128,42.64764 -7.50597,-6.1838 z"
           id="Fill-140"
           inkscape:connector-curvature="0"
           style="fill:#e1e1e6;fill-rule:nonzero" />
        <path
           d="m 253.32054,181.36308 c 2.16455,-2.62773 5.52796,-3.89012 8.36674,-3.14628 0.84133,0.21946 1.60301,0.60595 2.26364,1.1517 2.24033,1.84504 2.79604,5.08843 1.65742,8.08904 -0.48188,1.02158 -1.17943,2.14608 -2.17815,3.35798 -0.0175,0.0214 -0.0311,0.0447 -0.0486,0.0641 -2.15289,2.14413 -5.15489,3.11909 -7.72748,2.44517 -0.84133,-0.21947 -1.603,-0.6079 -2.26364,-1.1517 -1.37373,-1.13227 -2.1626,-2.83942 -2.22284,-4.80487 -0.068,-2.10918 0.69755,-4.24166 2.15289,-6.00513 m -7.86932,6.18186 c 0.1127,3.6357 1.64187,6.84608 4.30384,9.03876 1.30378,1.07595 2.79992,1.83727 4.44956,2.27037 5.03248,1.31872 10.61873,-0.66033 14.2289,-5.04181 0.26231,-0.31657 0.50519,-0.64091 0.73641,-0.97108 l 11.37457,-13.79702 c 0.48381,-0.58459 0.71309,-1.33814 0.63926,-2.0917 -0.0719,-0.75355 -0.44302,-1.44884 -1.02593,-1.93244 l -4.67884,-3.85128 c -0.32255,-0.26607 -0.69561,-0.45446 -1.09199,-0.55739 -0.32255,-0.0855 -0.66064,-0.11459 -1.00067,-0.0816 -0.7539,0.0738 -1.44951,0.44086 -1.93138,1.02739 l -3.2546,3.94645 c -0.19624,-0.18645 -0.40026,-0.37095 -0.614,-0.54769 -1.30378,-1.074 -2.80186,-1.83533 -4.44956,-2.26843 -5.03248,-1.31872 -10.61678,0.66033 -14.2289,5.04182 -2.33748,2.8336 -3.56353,6.31975 -3.45667,9.81562"
           id="Fill-142"
           inkscape:connector-curvature="0"
           style="fill:#737eb3;fill-rule:nonzero" />
        <path
           d="m 301.75998,188.98932 c 2.82907,0.73996 5.09077,3.35797 5.76501,6.67128 0.91129,4.48248 -1.39705,8.74744 -5.14323,9.50876 -0.88603,0.18062 -1.78954,0.15343 -2.68334,-0.0816 -2.55705,-0.67004 -4.65359,-2.87438 -5.52796,-5.74099 -0.004,-0.0311 -0.006,-0.0583 -0.0136,-0.0893 -0.31088,-1.53818 -0.40026,-2.85884 -0.34392,-3.98918 0.40416,-3.18124 2.41715,-5.78371 5.26565,-6.36053 0.88408,-0.18062 1.78759,-0.15343 2.68139,0.0816 m -17.18037,-8.15897 3.55965,17.52207 c 0.0505,0.40008 0.11076,0.80016 0.19236,1.20219 1.10171,5.43024 4.99556,9.77289 9.91923,11.06248 1.74679,0.4564 3.51885,0.50884 5.26759,0.15343 6.83756,-1.3867 11.14917,-8.67558 9.61028,-16.24802 -1.10365,-5.43025 -4.9975,-9.77289 -9.91923,-11.06248 -1.74679,-0.4564 -3.51884,-0.50884 -5.26953,-0.15343 -0.27008,0.0563 -0.53628,0.12236 -0.79859,0.19616 l -1.01815,-5.01463 c -0.22539,-1.10508 -1.05701,-1.92855 -2.081,-2.19657 -0.40998,-0.10876 -0.84716,-0.12624 -1.29018,-0.035 l -5.93793,1.20413 c -0.74419,0.15343 -1.39705,0.59042 -1.8148,1.22161 -0.4197,0.63509 -0.57126,1.40612 -0.4197,2.14802"
           id="Fill-144"
           inkscape:connector-curvature="0"
           style="fill:#737eb3;fill-rule:nonzero" />
        <path
           d="m 286.57045,159.88738 c 1.74097,-0.16702 3.28957,1.10703 3.45861,2.84914 0.16711,1.74016 -1.10753,3.28805 -2.85044,3.45508 -1.74096,0.16897 -3.28957,-1.10703 -3.45667,-2.84719 -0.16904,-1.74017 1.10754,-3.28806 2.8485,-3.45703"
           id="Fill-146"
           inkscape:connector-curvature="0"
           style="fill:#c8c8cc;fill-rule:nonzero" />
        <path
           d="m 244.72491,190.02118 c 2.21701,1.79843 15.17904,2.67823 17.41549,-3.26087 2.97479,-7.89677 -8.9652,-12.12677 -14.86816,-9.83892 -3.37895,1.30901 -8.45612,8.30268 -2.54733,13.09979"
           id="Fill-148"
           inkscape:connector-curvature="0"
           style="fill:#a5f894;fill-rule:nonzero" />
        <path
           d="m 5.9270539,97.141219 c 2.0712822,0.842893 4.5117421,0.425331 7.0746141,-1.011859 10.268974,-2.470414 27.71943,0.582644 39.344648,3.21814 0.349747,0.448636 0.773331,0.78657 1.266863,0.98855 0.773331,0.31463 1.653528,0.26608 2.584245,-0.0835 4.834288,1.17694 7.9723,2.09558 7.9723,2.09558 l 1.193027,-2.934587 4.296065,-10.559463 2.724144,-6.694587 1.193028,-2.934586 c 0,0 -3.071949,-1.627521 -7.577862,-4.297975 C 65.605631,74.30155 65.104327,73.845145 64.490325,73.594607 64.158065,73.460599 63.804432,73.394566 63.437197,73.38874 52.94283,66.993244 37.357694,56.410475 32.080393,47.144483 31.818082,46.468616 31.511082,45.852955 31.163277,45.301384 30.364687,44.042872 29.346533,43.124235 28.106873,42.621219 21.521905,39.944938 11.217956,49.980021 5.0934891,65.035558 -1.0309778,80.091095 -0.65791386,94.464938 5.9270539,97.141219"
           id="Fill-150"
           inkscape:connector-curvature="0"
           style="fill:#95a2e6;fill-rule:nonzero" />
        <path
           d="m 72.571241,103.91038 7.173709,2.91517 c 2.374397,0.96525 6.087549,-2.65103 8.294844,-8.079339 2.207296,-5.426364 2.073226,-10.606075 -0.301171,-11.571323 l -7.173709,-2.915165 z"
           id="Fill-152"
           inkscape:connector-curvature="0"
           style="fill:#95a2e6;fill-rule:nonzero" />
        <path
           d="m 26.154505,47.419103 c 5.424972,2.206281 5.733915,14.047562 0.687836,26.454009 C 21.79432,86.279558 13.305171,94.549227 7.8782562,92.342946 2.4532842,90.138607 2.1462837,78.293442 7.1923625,65.888938 12.238441,53.482492 20.729533,45.212822 26.154505,47.419103"
           id="Fill-154"
           inkscape:connector-curvature="0"
           style="fill:#535a80;fill-rule:nonzero" />
        <path
           d="m 20.575838,71.32812 c -2.498751,6.141074 -2.652251,11.882066 -0.341975,12.822066 0.291456,0.118471 0.610115,0.155372 0.946261,0.114587 2.096542,-2.907397 4.053185,-6.438223 5.662023,-10.390496 1.606895,-3.952273 2.669739,-7.846281 3.20019,-11.392645 -0.215678,-0.26219 -0.468273,-0.458347 -0.75973,-0.57876 -2.310276,-0.938058 -6.208017,3.282231 -8.706769,9.425248"
           id="Fill-156"
           inkscape:connector-curvature="0"
           style="fill:#737eb3;fill-rule:nonzero" />
        <path
           d="m 44.735811,121.82768 c -0.05635,0.68363 -0.07384,1.27405 -0.06606,1.7693 0.0078,0.49524 0.03497,0.89338 0.06412,1.17111 0.01749,0.13789 0.03109,0.24665 0.03886,0.31851 0.0136,0.0738 0.01943,0.11265 0.01943,0.11265 l 0.07189,0.42339 c 0.392494,2.30533 2.582302,3.85516 4.888692,3.46285 0.808305,-0.13595 1.536946,-0.50496 2.1082,-1.0138 0,0 0.03497,-0.0291 0.09909,-0.0874 0.06218,-0.0602 0.153501,-0.14955 0.272026,-0.26607 0.233165,-0.235 0.551824,-0.59236 0.9074,-1.06625 0.35752,-0.47194 0.748072,-1.06429 1.132794,-1.74599 0.380836,-0.68363 0.751957,-1.45661 1.082274,-2.27425 0.330317,-0.81571 0.612058,-1.67219 0.944318,-2.48984 0.163215,-0.40979 0.334203,-0.80793 0.51102,-1.19636 0.17876,-0.38649 0.363349,-0.75938 0.55571,-1.1245 0.194304,-0.35542 0.398323,-0.70306 0.614001,-1.03905 0.219564,-0.33211 0.454672,-0.65451 0.697552,-0.97108 0.250652,-0.31268 0.51102,-0.62343 0.794704,-0.9264 0.03692,-0.0427 0.06606,-0.0699 0.09521,-0.0991 l 0.08938,-0.0913 c 0.06412,-0.0621 0.09715,-0.10293 0.221506,-0.22334 l 0.314773,-0.31075 0.03886,-0.0388 0.0078,-0.01 c 0.01749,-0.0155 -0.112696,0.11847 -0.05052,0.0563 l 0.02137,-0.0214 0.08938,-0.0854 0.17876,-0.17091 c 0.934603,-0.92058 1.822573,-1.83728 2.628936,-2.71707 0.390551,-0.42533 0.777216,-0.84678 1.161938,-1.26434 0.369178,-0.40397 0.716983,-0.78268 1.0473,-1.12839 0.658691,-0.68946 1.237717,-1.2488 1.663243,-1.58673 0.209849,-0.17091 0.384723,-0.29521 0.507134,-0.36901 0.124355,-0.0835 0.19819,-0.11653 0.240937,-0.14178 0.08161,-0.0408 0.07189,-0.0563 0.182646,-0.0816 0.101038,-0.0194 0.297285,-0.0175 0.501305,0.0117 0.104924,0.0155 0.207905,0.0311 0.303114,0.0524 0.04469,0.01 0.08938,0.0175 0.128241,0.0272 0.02526,0.006 0.05052,0.006 0.07189,0.01 l 0.01749,-0.006 0.0078,0.002 0.02137,0.0136 c 0.02914,0.01 0.05635,0.0233 0.07966,0.0311 0.05052,0.0175 0.09327,0.0311 0.126298,0.0427 0.06801,0.0214 0.102981,0.0311 0.102981,0.0311 0.250653,0.0816 0.501305,0.14372 0.7539,0.18645 l 0.283684,0.11652 c 3.229335,1.31484 8.283186,-3.60851 11.287129,-10.992557 3.003942,-7.384049 2.819353,-14.434049 -0.409982,-15.746942 l -9.761841,-3.96781 -6.932772,-2.818058 c 3.229335,1.314835 3.411981,8.364835 0.408039,15.746942 -3.003942,7.38405 -8.057793,12.305455 -11.287128,10.994505 l 2.28113,0.9264 c -0.204019,0.22918 -0.404152,0.45835 -0.598457,0.68558 -0.369177,0.4331 -0.742241,0.87397 -1.119191,1.31484 -0.730584,0.85843 -1.422307,1.68384 -2.125688,2.45293 l -0.625659,0.69141 c -0.08161,0.0854 -0.240937,0.26996 -0.373064,0.42339 l -0.205963,0.23888 c -0.06801,0.0796 -0.137956,0.15925 -0.194304,0.23306 -0.481874,0.58458 -0.936546,1.1983 -1.365958,1.82173 -0.42164,0.62926 -0.812191,1.27405 -1.167768,1.92079 -0.349747,0.64868 -0.666463,1.29541 -0.950147,1.93244 -0.279798,0.63702 -0.522678,1.25851 -0.736413,1.86057 -0.209848,0.59819 -0.398323,1.17695 -0.563482,1.72269 -0.163215,0.5438 -0.31283,1.06818 -0.443013,1.55372 -0.13407,0.49136 -0.24871,0.94777 -0.340033,1.38669 -0.186532,0.87009 -0.28757,1.64306 -0.347804,2.3267"
           id="Fill-158"
           inkscape:connector-curvature="0"
           style="fill:#747eb3;fill-rule:nonzero" />
        <path
           d="m 43.755741,112.36747 c 1.276578,2.55199 12.721093,8.69889 17.209519,4.21252 5.970966,-5.96628 -3.161329,-14.74479 -9.482043,-15.09632 -3.617943,-0.20004 -11.131685,4.07851 -7.727476,10.8838"
           id="Fill-160"
           inkscape:connector-curvature="0"
           style="fill:#a5f894;fill-rule:nonzero" />
        <path
           d="m 11.88714,190.1919 c 2.630878,1.10896 15.322825,-1.65666 15.816357,-7.98029 0.654805,-8.41533 -11.990509,-9.14947 -17.022986,-5.30984 -2.8795879,2.19852 -5.8058084,10.33223 1.206629,13.29013"
           id="Fill-162"
           inkscape:connector-curvature="0"
           style="fill:#a5f894;fill-rule:nonzero" />
        <path
           d="m 175.32277,166.34173 c 0,0 0.72864,3.88429 0.72864,11.65289"
           id="Stroke-164"
           inkscape:connector-curvature="0"
           style="stroke:#00b300;stroke-linecap:round;stroke-linejoin:round" />
        <path
           d="m 101.73008,155.17437 c 0,0 -9.958091,3.15599 -25.988184,-1.45661"
           id="Stroke-166"
           inkscape:connector-curvature="0"
           style="stroke:#00b300;stroke-linecap:round;stroke-linejoin:round" />
        <path
           d="m 192.81015,153.71776 c 0,0 7.04352,1.21384 13.11553,0"
           id="Stroke-168"
           inkscape:connector-curvature="0"
           style="stroke:#00b300;stroke-linecap:round;stroke-linejoin:round" />
        <path
           d="m 99.787035,166.5845 c 0,0 -0.448843,1.99458 -1.680731,15.56438"
           id="Stroke-170"
           inkscape:connector-curvature="0"
           style="stroke:#00b300;stroke-linecap:round;stroke-linejoin:round" />
        <path
           d="m 102.45872,104.92127 c 0,0 -4.128966,0.97108 -7.772169,-0.48553"
           id="Stroke-172"
           inkscape:connector-curvature="0"
           style="stroke:#00b300;stroke-linecap:round;stroke-linejoin:round" />
        <path
           d="m 171.67957,105.16404 c 0,0 4.61472,0 8.98657,-1.45661"
           id="Stroke-174"
           inkscape:connector-curvature="0"
           style="stroke:#00b300;stroke-linecap:round;stroke-linejoin:round" />
        <path
           d="m 7.4925624,182.84999 c 0,0 -0.3633487,9.38835 11.4153686,6.79752 4.047356,-0.8895 8.257927,-3.48033 8.582415,-8.98244"
           id="Stroke-176"
           inkscape:connector-curvature="0"
           style="stroke:#00b300;stroke-linecap:round;stroke-linejoin:round" />
        <path
           d="m 43.195951,106.62065 c 0,0 -2.259758,8.07546 7.286405,10.19628 6.557765,1.45662 11.646591,0.60595 12.623941,-5.64388"
           id="Stroke-178"
           inkscape:connector-curvature="0"
           style="stroke:#00b300;stroke-linecap:round;stroke-linejoin:round" />
        <path
           d="m 245.02842,177.99462 c 0,0 -7.04353,9.46797 2.18592,12.86673"
           id="Stroke-180"
           inkscape:connector-curvature="0"
           style="stroke:#00b300;stroke-linecap:round;stroke-linejoin:round" />
        <path
           d="m 252.5577,55.396479 c 0,0 -4.12896,8.011364 5.82913,10.43905"
           id="Stroke-182"
           inkscape:connector-curvature="0"
           style="stroke:#00b300;stroke-linecap:round;stroke-linejoin:round" />
      </g>
    </g>
  </g>
</svg>
