<?xml version="1.0" encoding="UTF-8"?>
<svg width="15px" height="16px" viewBox="0 0 15 16" version="1.1" xmlns="http://www.w3.org/2000/svg" xmlns:xlink="http://www.w3.org/1999/xlink">
    <!-- Generator: Sketch 46.2 (44496) - http://www.bohemiancoding.com/sketch -->
    <title>Shape</title>
    <desc>Created with Sketch.</desc>
    <defs></defs>
    <g id="Screens" stroke="none" stroke-width="1" fill="none" fill-rule="evenodd">
        <g id="Extension-Detail---1366px" transform="translate(-402.000000, -465.000000)" fill-rule="nonzero" fill="#000000">
            <g id="Group-130" transform="translate(389.000000, 456.000000)">
                <path d="M20.5,23 C17.5,23 15,20.5 15,17.5 C15,14.5 17.5,12 20.5,12 C21.7,12 22.7,12.4 23.7,13 L21,13 L21,15 L27,15 L27,9 L25,9 L25,11.5 C23.7,10.5 22.2,10 20.5,10 C16.4,10 13,13.4 13,17.5 C13,21.6 16.4,25 20.5,25 C24.6,25 28,21.6 28,17.5 L26,17.5 C26,20.5 23.5,23 20.5,23 Z" id="Shape"></path>
            </g>
        </g>
    </g>
</svg>