<?xml version="1.0" encoding="UTF-8"?>
<svg width="15px" height="16px" viewBox="0 0 15 16" version="1.1" xmlns="http://www.w3.org/2000/svg" xmlns:xlink="http://www.w3.org/1999/xlink">
    <!-- Generator: Sketch 46.2 (44496) - http://www.bohemiancoding.com/sketch -->
    <title>Shape</title>
    <desc>Created with Sketch.</desc>
    <defs></defs>
    <g id="Screens" stroke="none" stroke-width="1" fill="none" fill-rule="evenodd">
        <g id="Extension-Detail---1366px" transform="translate(-243.000000, -414.000000)" fill-rule="nonzero" fill="#FFE900">
            <g id="Group-63" transform="translate(230.000000, 405.000000)">
                <path d="M21.28,9.21333333 L22.0266667,16.04 L24.2666667,13.8 C26.2933333,15.8266667 26.2933333,19.24 24.2666667,21.2666667 C23.3066667,22.3333333 21.92,22.8666667 20.5333333,22.8666667 C19.1466667,22.8666667 17.76,22.3333333 16.8,21.2666667 C14.7733333,19.24 14.7733333,15.8266667 16.8,13.8 C17.44,13.16 18.2933333,12.6266667 19.2533333,12.4133333 L18.6133333,10.3866667 C17.3333333,10.7066667 16.16,11.3466667 15.2,12.3066667 C12.32,15.1866667 12.32,19.88 15.2,22.8666667 C16.5866667,24.2533333 18.5066667,25 20.4266667,25 C22.4533333,25 24.2666667,24.2533333 25.6533333,22.8666667 C28.5333333,19.9866667 28.5333333,15.2933333 25.6533333,12.3066667 L28,9.96 L21.28,9.21333333 Z" id="Shape"></path>
            </g>
        </g>
    </g>
</svg>