<svg width="64" height="64" xmlns="http://www.w3.org/2000/svg" xmlns:xlink="http://www.w3.org/1999/xlink"><defs><rect id="a" x="0" y="0" width="64" height="64" rx="4"/></defs><g fill="none" fill-rule="evenodd"><g><use fill="#F9F9FA" xlink:href="#a"/><rect stroke="#EBEBEB" x=".5" y=".5" width="63" height="63" rx="4"/></g><g fill="#D7D7DB" fill-rule="nonzero"><path d="M38.594 35.837c-1.988 1.168-4.223 1.873-6.634 1.873-2.411 0-4.646-.705-6.634-1.873-6.986.459-12.533 6.274-12.533 13.373v3.316l1.332.427c.257.08 6.408 2.007 17.835 2.007s17.578-1.926 17.835-2.007l1.332-.427V49.21c0-7.1-5.547-12.914-12.533-13.373ZM31.96 33.877c6.476 0 11.5-7.213 11.5-13.417 0-6.342-5.158-11.5-11.5-11.5s-11.5 5.158-11.5 11.5c0 6.204 5.024 13.417 11.5 13.417Z"/></g></g></svg>