<svg xmlns="http://www.w3.org/2000/svg" width="36" height="32" viewBox="0 0 36 32">
  <g fill="#0060DF">
    <path d="M11.4285714 8L11.4285714 32 34.2857143 32C34.9171429 32 35.4285714 31.4885714 35.4285714 30.8571429L35.4285714 8 11.4285714 8zM10.2857143 8L-3.46389584e-14 8-3.46389584e-14 30.8571429C-3.46389584e-14 31.4885714.511428571 32 1.14285714 32L10.2857143 32 10.2857143 8zM34.2857143 1.30118138e-13L1.14285714 1.30118138e-13C.511428571 1.30118138e-13 6.39488462e-14.511428571 6.39488462e-14 1.14285714L6.39488462e-14 6.85714286 35.4285714 6.85714286 35.4285714 1.14285714C35.4285714.511428571 34.9171429 1.30118138e-13 34.2857143 1.30118138e-13zM3.42857143 4.57142857C2.79714286 4.57142857 2.28571429 4.06 2.28571429 3.42857143 2.28571429 2.79714286 2.79714286 2.28571429 3.42857143 2.28571429 4.06 2.28571429 4.57142857 2.79714286 4.57142857 3.42857143 4.57142857 4.06 4.06 4.57142857 3.42857143 4.57142857zM7.42857143 4.57142857C6.79714286 4.57142857 6.28571429 4.06 6.28571429 3.42857143 6.28571429 2.79714286 6.79714286 2.28571429 7.42857143 2.28571429 8.06 2.28571429 8.57142857 2.79714286 8.57142857 3.42857143 8.57142857 4.06 8.06 4.57142857 7.42857143 4.57142857zM11.4285714 4.57142857C10.7971429 4.57142857 10.2857143 4.06 10.2857143 3.42857143 10.2857143 2.79714286 10.7971429 2.28571429 11.4285714 2.28571429 12.06 2.28571429 12.5714286 2.79714286 12.5714286 3.42857143 12.5714286 4.06 12.06 4.57142857 11.4285714 4.57142857z"/>
  </g>
</svg>
