<svg width="16" height="15" xmlns="http://www.w3.org/2000/svg"><g fill="#0A84FF" fill-rule="nonzero"><path d="M13.577 0H2.423A2.426 2.426 0 0 0 0 2.423v6.154A2.426 2.426 0 0 0 2.423 11H8.26l2.966 3.633A1 1 0 0 0 13 14v-3h.577A2.426 2.426 0 0 0 16 8.577V2.423A2.426 2.426 0 0 0 13.577 0ZM14 8.577a.423.423 0 0 1-.423.423H12a1 1 0 0 0-1 1v1.194L9.509 9.367A1 1 0 0 0 8.734 9H2.423A.423.423 0 0 1 2 8.577V2.423C2 2.189 2.19 2 2.423 2h11.154c.234 0 .423.19.423.423v6.154Z"/><path d="M11.5 4h-7a.5.5 0 0 0 0 1h7a.5.5 0 1 0 0-1Zm0 2h-7a.5.5 0 0 0 0 1h7a.5.5 0 1 0 0-1Z"/></g></svg>