<svg xmlns="http://www.w3.org/2000/svg" width="16" height="16">
  <path d="M6.035 1.25c-1 0-1.812.812-1.812 1.813h1.5c0-.173.14-.313.312-.313h5.95c.172 0 .313.14.313.313v7.65c0 .172-.14.312-.313.312v1.5c1 0 1.813-.812 1.813-1.813v-7.65c0-1-.812-1.812-1.813-1.812z"/>
  <path fill-rule="evenodd" d="M3.063 4.225A1.813 1.813 0 0 0 1.25 6.038v7.65c0 1 .812 1.812 1.813 1.812h5.95c1 0 1.812-.812 1.812-1.812v-7.65a1.813 1.813 0 0 0-1.813-1.813h-5.95zM2.75 6.038c0-.173.14-.313.313-.313h5.95c.172 0 .312.14.312.313v7.65c0 .172-.14.312-.313.312h-5.95a.313.313 0 0 1-.312-.312z" clip-rule="evenodd"/>
</svg>
