<svg width="10" height="9" xmlns="http://www.w3.org/2000/svg"><g fill="#0F1126" fill-rule="nonzero"><path d="M2.666 0h-.667C.895 0 0 .863 0 1.929V7.07C0 8.137.895 9 2 9h5.33c1.105 0 2-.863 2-1.929V6.43a.655.655 0 0 0-.666-.643.655.655 0 0 0-.667.643v.642a.655.655 0 0 1-.666.643H1.999a.655.655 0 0 1-.666-.643V1.93c0-.355.298-.643.666-.643h.667a.655.655 0 0 0 .666-.643A.655.655 0 0 0 2.666 0Z"/><path d="M9.287.397A.667.667 0 0 0 8.672 0H5.34a.655.655 0 0 0-.667.643c0 .355.299.643.667.643h1.723L4.868 3.403a.628.628 0 0 0-.181.625c.06.225.243.4.476.459a.683.683 0 0 0 .648-.175l2.194-2.117v1.662c0 .355.299.643.667.643a.655.655 0 0 0 .666-.643V.643a.623.623 0 0 0-.051-.246Z"/></g></svg>