<svg width="24" height="22" xmlns="http://www.w3.org/2000/svg" xmlns:xlink="http://www.w3.org/1999/xlink"><defs><path d="M21.95 2.051A6.957 6.957 0 0 0 17 0c-1.87 0-3.627.729-4.949 2.05L12 2.102A6.957 6.957 0 0 0 7 0C5.13 0 3.373.729 2.05 2.051A6.948 6.948 0 0 0 0 7c0 1.87.728 3.627 2.05 4.949l9.95 9.95 9.95-9.95A6.952 6.952 0 0 0 24 7a6.954 6.954 0 0 0-2.05-4.949Z" id="a"/></defs><g fill-rule="nonzero" fill="none"><use fill="#FFF" fill-rule="evenodd" xlink:href="#a"/><path stroke="#FFF" stroke-width="4" d="M13.45 3.479 12 5.015l-1.454-1.54A4.957 4.957 0 0 0 7 2a4.957 4.957 0 0 0-3.536 1.466A4.948 4.948 0 0 0 2 7c0 1.34.517 2.588 1.464 3.535L12 19.07l8.536-8.536A4.952 4.952 0 0 0 22 7a4.954 4.954 0 0 0-1.464-3.535A4.957 4.957 0 0 0 17 2a4.926 4.926 0 0 0-3.493 1.42l-.042.044-.014.015Z"/></g></svg>