<svg xmlns="http://www.w3.org/2000/svg" width="16" height="16"><defs><radialGradient id="b" cx="392.807" cy="61.16" r="554.146" fx="392.807" fy="61.16" gradientTransform="matrix(.03577 0 0 .0291 -.515 0)" gradientUnits="userSpaceOnUse"><stop offset=".13" stop-color="#ffbd4f"/><stop offset=".28" stop-color="#ff980e"/><stop offset=".47" stop-color="#ff3750"/><stop offset=".78" stop-color="#eb0878"/><stop offset=".86" stop-color="#e50080"/></radialGradient><radialGradient id="c" cx="226.563" cy="290.178" r="554.146" fx="226.563" fy="290.178" gradientTransform="matrix(.03577 0 0 .0291 -.515 0)" gradientUnits="userSpaceOnUse"><stop offset=".3" stop-color="#960e18"/><stop offset=".35" stop-color="#b11927" stop-opacity=".74"/><stop offset=".43" stop-color="#db293d" stop-opacity=".34"/><stop offset=".5" stop-color="#f5334b" stop-opacity=".09"/><stop offset=".53" stop-color="#ff3750" stop-opacity="0"/></radialGradient><radialGradient id="d" cx="395.444" cy="-17.973" r="210.21" fx="395.444" fy="-17.973" gradientTransform="matrix(.02476 0 0 .04203 -.515 0)" gradientUnits="userSpaceOnUse"><stop offset=".13" stop-color="#fff44f"/><stop offset=".53" stop-color="#ff980e"/></radialGradient><radialGradient id="e" cx="206.271" cy="373.24" r="223.497" fx="206.271" fy="373.24" gradientTransform="matrix(.03081 0 0 .03377 -.515 0)" gradientUnits="userSpaceOnUse"><stop offset=".35" stop-color="#3a8ee6"/><stop offset=".67" stop-color="#9059ff"/><stop offset="1" stop-color="#c139e6"/></radialGradient><radialGradient id="f" cx="271.621" cy="200.902" r="131.863" fx="271.621" fy="200.902" gradientTransform="matrix(.03081 0 0 .03377 -.515 0)" gradientUnits="userSpaceOnUse"><stop offset=".21" stop-color="#9059ff" stop-opacity="0"/><stop offset=".97" stop-color="#6e008b" stop-opacity=".6"/></radialGradient><radialGradient id="g" cx="240.613" cy="36.807" r="170.021" fx="240.613" fy="36.807" gradientTransform="matrix(.0322 0 0 .03232 -.515 0)" gradientUnits="userSpaceOnUse"><stop offset=".1" stop-color="#ffe226"/><stop offset=".79" stop-color="#ff7139"/></radialGradient><radialGradient id="h" cx="362.075" cy="-81.709" r="742.387" fx="362.075" fy="-81.709" gradientTransform="matrix(.0352 0 0 .02956 -.515 0)" gradientUnits="userSpaceOnUse"><stop offset=".11" stop-color="#fff44f"/><stop offset=".46" stop-color="#ff980e"/><stop offset=".72" stop-color="#ff3647"/><stop offset=".9" stop-color="#e31587"/></radialGradient><radialGradient id="i" cx="475.588" cy="-41.588" r="779.909" fx="475.588" fy="-41.588" gradientTransform="matrix(.0222 0 0 .04687 -.515 0)" gradientUnits="userSpaceOnUse"><stop offset="0" stop-color="#fff44f"/><stop offset=".3" stop-color="#ff980e"/><stop offset=".57" stop-color="#ff3647"/><stop offset=".74" stop-color="#e31587"/></radialGradient><radialGradient id="j" cx="239.797" cy="99.006" r="461.114" fx="239.797" fy="99.006" gradientTransform="matrix(.03255 0 0 .03197 -.515 0)" gradientUnits="userSpaceOnUse"><stop offset=".14" stop-color="#fff44f"/><stop offset=".48" stop-color="#ff980e"/><stop offset=".66" stop-color="#ff3647"/><stop offset=".9" stop-color="#e31587"/></radialGradient><radialGradient id="k" cx="343.038" cy="132.012" r="528.893" fx="343.038" fy="132.012" gradientTransform="matrix(.0341 0 0 .03051 -.515 0)" gradientUnits="userSpaceOnUse"><stop offset=".09" stop-color="#fff44f"/><stop offset=".63" stop-color="#ff980e"/></radialGradient><linearGradient id="a" x1="441.984" x2="62.126" y1="75.631" y2="454.269" gradientTransform="matrix(.03173 0 0 .0328 -.515 0)" gradientUnits="userSpaceOnUse"><stop offset=".05" stop-color="#fff44f"/><stop offset=".37" stop-color="#ff980e"/><stop offset=".53" stop-color="#ff3647"/><stop offset=".7" stop-color="#e31587"/></linearGradient><linearGradient id="l" x1="406.611" x2="104.093" y1="68.312" y2="409.866" gradientTransform="matrix(.03173 0 0 .0328 -.515 0)" gradientUnits="userSpaceOnUse"><stop offset=".17" stop-color="#fff44f" stop-opacity=".8"/><stop offset=".6" stop-color="#fff44f" stop-opacity="0"/></linearGradient></defs><path fill="url(#a)" d="M14.927 5.366c-.337-.81-1.02-1.685-1.555-1.962.436.855.688 1.713.785 2.353l.002.013c-.877-2.185-2.363-3.066-3.577-4.984A10 10 0 0 1 10.4.489a2 2 0 0 1-.085-.16 1.4 1.4 0 0 1-.116-.307.02.02 0 0 0-.017-.021.03.03 0 0 0-.015 0l-.004.002-.006.003.003-.004c-1.947 1.14-2.608 3.25-2.669 4.306a3.9 3.9 0 0 0-2.133.822 2 2 0 0 0-.201-.151 3.6 3.6 0 0 1-.022-1.895c-.796.363-1.416.936-1.866 1.442h-.004c-.307-.39-.286-1.673-.268-1.942-.004-.016-.23.118-.259.138a5.7 5.7 0 0 0-.758.649 7 7 0 0 0-.723.868 6.5 6.5 0 0 0-1.04 2.348q-.007.026-.011.052c-.015.068-.067.41-.076.484l-.002.016A7.4 7.4 0 0 0 0 8.21L0 8.249A7.752 7.752 0 0 0 15.394 9.56q.019-.149.035-.299c.154-1.329-.017-2.726-.503-3.895zm-8.935 6.068q.053.026.107.053l.005.003zm8.167-5.662-.001-.008z" style="fill:url(#a);stroke-width:.0322581"/><path fill="url(#b)" d="M14.927 5.366c-.337-.81-1.02-1.685-1.555-1.962.436.855.688 1.713.785 2.353v.007l.002.008c.731 1.983.333 4-.241 5.231-.889 1.907-3.04 3.86-6.406 3.766C3.875 14.666.67 11.967.072 8.432c-.109-.557 0-.84.055-1.293-.067.349-.092.45-.126 1.07v.04a7.752 7.752 0 0 0 15.393 1.31q.019-.148.035-.298c.154-1.33-.017-2.727-.502-3.895z" style="fill:url(#b);stroke-width:.0322581"/><path fill="url(#c)" d="M14.927 5.366c-.337-.81-1.02-1.685-1.555-1.962.436.855.688 1.713.785 2.353v.007l.002.008c.731 1.983.333 4-.241 5.231-.889 1.907-3.04 3.86-6.406 3.766C3.875 14.666.67 11.967.072 8.432c-.109-.557 0-.84.055-1.293-.067.349-.092.45-.126 1.07v.04a7.752 7.752 0 0 0 15.393 1.31q.019-.148.035-.298c.154-1.33-.017-2.727-.502-3.895z" style="fill:url(#c);stroke-width:.0322581"/><path fill="url(#d)" d="m11.16 6.277.048.036a4.2 4.2 0 0 0-.72-.94C8.078 2.965 9.856.15 10.156.007l.003-.004c-1.947 1.14-2.608 3.25-2.669 4.306.09-.006.18-.014.273-.014 1.453 0 2.719.8 3.397 1.984z" style="fill:url(#d);stroke-width:.0322581"/><path fill="url(#e)" d="M7.768 6.759c-.013.192-.694.857-.932.857-2.205 0-2.563 1.334-2.563 1.334.098 1.123.88 2.047 1.826 2.537q.065.032.131.062a4 4 0 0 0 .228.093 3.4 3.4 0 0 0 1.008.195c3.864.18 4.613-4.62 1.824-6.014.715-.124 1.456.163 1.87.454a3.91 3.91 0 0 0-3.397-1.983c-.092 0-.182.008-.272.014a3.9 3.9 0 0 0-2.134.822c.118.1.252.234.533.51.526.519 1.875 1.055 1.878 1.118" style="fill:url(#e);stroke-width:.0322581"/><path fill="url(#f)" d="M7.768 6.759c-.013.192-.694.857-.932.857-2.205 0-2.563 1.334-2.563 1.334.098 1.123.88 2.047 1.826 2.537q.065.032.131.062a4 4 0 0 0 .228.093 3.4 3.4 0 0 0 1.008.195c3.864.18 4.613-4.62 1.824-6.014.715-.124 1.456.163 1.87.454a3.91 3.91 0 0 0-3.397-1.983c-.092 0-.182.008-.272.014a3.9 3.9 0 0 0-2.134.822c.118.1.252.234.533.51.526.519 1.875 1.055 1.878 1.118" style="fill:url(#f);stroke-width:.0322581"/><path fill="url(#g)" d="m4.995 4.872.161.107a3.6 3.6 0 0 1-.022-1.895c-.796.363-1.415.936-1.866 1.442.038-.001 1.162-.021 1.727.346" style="fill:url(#g);stroke-width:.0322581"/><path fill="url(#h)" d="M.073 8.433c.598 3.534 3.802 6.233 7.44 6.336 3.366.095 5.517-1.859 6.405-3.765.574-1.232.973-3.248.241-5.231v-.009l-.002-.007.002.013c.275 1.795-.638 3.535-2.066 4.71l-.004.01c-2.782 2.266-5.444 1.368-5.983 1l-.113-.056C4.37 10.659 3.7 9.18 3.844 7.914c-1.37 0-1.836-1.156-1.836-1.156s1.23-.876 2.85-.114c1.5.706 2.91.114 2.91.114-.002-.063-1.351-.6-1.877-1.118-.282-.276-.415-.41-.533-.51a2 2 0 0 0-.201-.152l-.16-.106c-.566-.368-1.69-.347-1.728-.346h-.004c-.307-.39-.286-1.674-.268-1.942-.004-.017-.23.117-.259.137a5.7 5.7 0 0 0-.757.65 7 7 0 0 0-.724.868 6.5 6.5 0 0 0-1.04 2.348c-.005.017-.28 1.221-.144 1.845z" style="fill:url(#h);stroke-width:.0322581"/><path fill="url(#i)" d="M10.488 5.374a4.2 4.2 0 0 1 .72.939q.065.048.116.095c1.758 1.62.837 3.91.768 4.073 1.428-1.176 2.341-2.916 2.066-4.711-.876-2.185-2.363-3.066-3.576-4.984a10 10 0 0 1-.183-.297 2 2 0 0 1-.085-.16 1.4 1.4 0 0 1-.116-.307A.02.02 0 0 0 10.18 0h-.014l-.004.002-.006.003c-.3.143-2.078 2.958.332 5.367z" style="fill:url(#i);stroke-width:.0322581"/><path fill="url(#j)" d="M11.324 6.408a2 2 0 0 0-.116-.095l-.048-.036c-.414-.29-1.155-.578-1.87-.453 2.789 1.394 2.04 6.194-1.824 6.013a3.4 3.4 0 0 1-1.008-.195 4 4 0 0 1-.228-.093l-.126-.06c.54.368 3.202 1.267 5.984-.998l.004-.01c.068-.163.99-2.454-.768-4.073z" style="fill:url(#j);stroke-width:.0322581"/><path fill="url(#k)" d="M4.273 8.95s.358-1.334 2.563-1.334c.238 0 .92-.665.932-.857.012-.193-1.41.592-2.911-.115-1.62-.762-2.85.115-2.85.115s.467 1.155 1.836 1.155c-.143 1.267.527 2.745 2.149 3.52q.053.027.107.053c-.946-.49-1.728-1.414-1.826-2.537" style="fill:url(#k);stroke-width:.0322581"/><path fill="url(#l)" d="M14.927 5.366c-.337-.81-1.02-1.685-1.555-1.962.436.855.688 1.713.785 2.353l.002.013c-.877-2.185-2.363-3.066-3.577-4.984A10 10 0 0 1 10.4.489a2 2 0 0 1-.085-.16 1.4 1.4 0 0 1-.116-.307.02.02 0 0 0-.017-.021.03.03 0 0 0-.015 0l-.004.002-.006.003.003-.004c-1.947 1.14-2.608 3.25-2.669 4.306.09-.006.18-.014.273-.014 1.453 0 2.719.8 3.396 1.984-.414-.291-1.155-.578-1.869-.454 2.789 1.394 2.04 6.194-1.824 6.013a3.4 3.4 0 0 1-1.009-.195 4 4 0 0 1-.227-.093l-.126-.06-.113-.055q.052.026.108.053c-.947-.49-1.729-1.414-1.827-2.537 0 0 .358-1.334 2.563-1.334.238 0 .92-.665.932-.858-.003-.063-1.352-.6-1.878-1.117-.281-.277-.415-.41-.533-.511a2 2 0 0 0-.2-.152 3.6 3.6 0 0 1-.022-1.894c-.797.362-1.416.936-1.866 1.442h-.004c-.308-.39-.286-1.674-.269-1.942-.004-.016-.229.117-.258.138a5.7 5.7 0 0 0-.758.649 7 7 0 0 0-.724.868 6.5 6.5 0 0 0-1.04 2.348l-.01.052c-.015.068-.08.414-.09.488 0 .006 0-.006 0 0A9 9 0 0 0 .001 8.21v.04A7.752 7.752 0 0 0 15.393 9.56q.019-.149.035-.299c.154-1.33-.017-2.726-.503-3.895zm-.769.398.001.008z" style="fill:url(#l);stroke-width:.0322581"/></svg>
