<svg xmlns="http://www.w3.org/2000/svg" width="16" height="16" fill="none"><g clip-path="url(#a)"><path fill="url(#b)" d="M14.96 5.448c-.327-.785-.988-1.632-1.507-1.9.423.828.667 1.659.76 2.28l.002.012c-.85-2.117-2.289-2.97-3.465-4.829a10 10 0 0 1-.177-.287 2 2 0 0 1-.082-.156 1.4 1.4 0 0 1-.117-.31.02.02 0 0 0-.013-.007h-.014l-.004.002-.005.003.003-.004C8.454 1.357 7.814 3.4 7.756 4.423a3.76 3.76 0 0 0-2.067.797 2 2 0 0 0-.195-.147 3.5 3.5 0 0 1-.02-1.835c-.772.35-1.373.906-1.809 1.396h-.003c-.298-.377-.277-1.62-.26-1.88-.004-.016-.222.113-.25.133a5.5 5.5 0 0 0-.735.628q-.385.391-.7.841l-.001.002v-.002A6.3 6.3 0 0 0 .708 6.632l-.01.05c-.014.065-.065.396-.074.468l-.001.016A7 7 0 0 0 .5 8.202L.5 8.241a7.51 7.51 0 0 0 14.913 1.27l.034-.29c.15-1.287-.017-2.64-.487-3.773m-8.656 5.878q.051.027.104.052l.005.003zm7.912-5.485-.001-.007.001.008"/><path fill="url(#c)" d="M14.96 5.449c-.327-.786-.988-1.633-1.507-1.901.423.828.667 1.659.76 2.28l.002.006.001.008c.709 1.921.323 3.875-.234 5.068-.86 1.847-2.944 3.74-6.205 3.648-3.524-.1-6.628-2.715-7.207-6.139-.106-.54 0-.814.053-1.253-.065.338-.09.436-.122 1.037L.5 8.24a7.51 7.51 0 0 0 14.913 1.27l.034-.29c.15-1.287-.017-2.64-.487-3.772"/><path fill="url(#d)" d="M14.96 5.449c-.327-.786-.988-1.633-1.507-1.901.423.828.667 1.659.76 2.28l.002.006.001.008c.709 1.921.323 3.875-.234 5.068-.86 1.847-2.944 3.74-6.205 3.648-3.524-.1-6.628-2.715-7.207-6.139-.106-.54 0-.814.053-1.253-.065.338-.09.436-.122 1.037L.5 8.24a7.51 7.51 0 0 0 14.913 1.27l.034-.29c.15-1.287-.017-2.64-.487-3.772"/><path fill="url(#e)" d="m11.31 6.331.047.035a4 4 0 0 0-.697-.91c-2.335-2.334-.612-5.061-.322-5.2l.003-.004C8.455 1.357 7.815 3.4 7.756 4.423q.13-.011.264-.013a3.79 3.79 0 0 1 3.29 1.921"/><path fill="url(#f)" d="M8.024 6.797c-.012.187-.672.831-.903.831-2.136 0-2.482 1.292-2.482 1.292.094 1.088.852 1.984 1.769 2.458a3 3 0 0 0 .347.15c.314.112.644.175.977.189 3.743.175 4.469-4.475 1.767-5.825.692-.12 1.41.157 1.811.44A3.79 3.79 0 0 0 8.02 4.41c-.09 0-.177.007-.264.013a3.76 3.76 0 0 0-2.067.797c.114.097.243.226.516.494.51.502 1.816 1.022 1.82 1.083"/><path fill="url(#g)" d="M8.024 6.797c-.012.187-.672.831-.903.831-2.136 0-2.482 1.292-2.482 1.292.094 1.088.852 1.984 1.769 2.458a3 3 0 0 0 .347.15c.314.112.644.175.977.189 3.743.175 4.469-4.475 1.767-5.825.692-.12 1.41.157 1.811.44A3.79 3.79 0 0 0 8.02 4.41c-.09 0-.177.007-.264.013a3.76 3.76 0 0 0-2.067.797c.114.097.243.226.516.494.51.502 1.816 1.022 1.82 1.083"/><path fill="url(#h)" d="m5.339 4.97.155.103a3.5 3.5 0 0 1-.02-1.835c-.772.351-1.372.906-1.808 1.397.036-.001 1.125-.021 1.673.335"/><path fill="url(#i)" d="M.57 8.419c.58 3.424 3.683 6.039 7.207 6.139 3.261.092 5.345-1.801 6.205-3.648.557-1.194.943-3.147.234-5.068l-.001-.008-.001-.007.001.013c.267 1.739-.618 3.424-2.001 4.563l-.005.01c-2.695 2.195-5.274 1.324-5.796.968l-.11-.055c-1.57-.75-2.22-2.182-2.08-3.41-1.327 0-1.78-1.119-1.78-1.119s1.191-.85 2.761-.11c1.455.684 2.82.11 2.82.11-.003-.06-1.31-.58-1.82-1.083-.272-.268-.4-.397-.515-.494a2 2 0 0 0-.195-.147L5.34 4.97c-.548-.356-1.638-.337-1.674-.336h-.003c-.298-.377-.277-1.62-.26-1.88-.003-.017-.222.113-.25.132a5.5 5.5 0 0 0-.735.63q-.385.39-.7.84l-.001.002v-.002A6.3 6.3 0 0 0 .708 6.632C.705 6.648.438 7.814.57 8.419"/><path fill="url(#j)" d="M10.66 5.456c.274.269.508.575.697.91q.063.046.112.092c1.703 1.569.81 3.787.744 3.945 1.384-1.139 2.268-2.824 2.002-4.563-.85-2.117-2.29-2.97-3.465-4.829q-.09-.14-.177-.287a2 2 0 0 1-.083-.156 1.4 1.4 0 0 1-.117-.31.02.02 0 0 0-.012-.007h-.014l-.004.002q-.003 0-.005.003c-.29.139-2.013 2.866.322 5.2"/><path fill="url(#k)" d="M11.47 6.458a2 2 0 0 0-.113-.092l-.047-.035c-.401-.282-1.12-.56-1.81-.44 2.7 1.351 1.975 6.001-1.768 5.826a3.3 3.3 0 0 1-.977-.189 4 4 0 0 1-.347-.15l.005.003c.522.356 3.101 1.227 5.796-.968l.004-.01c.067-.158.959-2.376-.744-3.945"/><path fill="url(#l)" d="M4.639 8.92s.347-1.292 2.482-1.292c.231 0 .891-.644.903-.83.013-.188-1.365.573-2.82-.111-1.57-.739-2.76.11-2.76.11s.452 1.12 1.779 1.12c-.14 1.227.51 2.659 2.08 3.41q.052.026.105.05c-.917-.473-1.674-1.37-1.769-2.457"/><path fill="url(#m)" d="M14.96 5.448c-.327-.785-.988-1.632-1.507-1.9.423.828.667 1.659.76 2.28l.002.012c-.85-2.117-2.29-2.97-3.465-4.829a10 10 0 0 1-.177-.287 2 2 0 0 1-.083-.156 1.4 1.4 0 0 1-.117-.31.02.02 0 0 0-.012-.007h-.014l-.004.002-.005.003.003-.004C8.454 1.357 7.814 3.4 7.755 4.423c.088-.006.175-.013.264-.013a3.79 3.79 0 0 1 3.29 1.921c-.4-.281-1.118-.56-1.81-.44 2.701 1.351 1.976 6.002-1.767 5.826a3.3 3.3 0 0 1-.977-.189 4 4 0 0 1-.347-.15l.005.003-.11-.055q.052.027.105.052c-.918-.474-1.675-1.37-1.77-2.458 0 0 .347-1.292 2.483-1.292.23 0 .89-.644.903-.83-.003-.062-1.31-.582-1.82-1.084-.272-.268-.401-.397-.516-.494a2 2 0 0 0-.194-.147 3.5 3.5 0 0 1-.021-1.836C4.7 3.59 4.1 4.144 3.665 4.634H3.66c-.297-.377-.276-1.62-.26-1.88-.003-.017-.221.113-.25.133a5.5 5.5 0 0 0-.734.628q-.386.391-.701.841v.002-.002A6.3 6.3 0 0 0 .708 6.632l-.01.05a12 12 0 0 0-.086.473c-.001.005 0-.006 0 0A9 9 0 0 0 .5 8.203L.5 8.24a7.51 7.51 0 0 0 14.913 1.27l.034-.29c.15-1.287-.017-2.64-.487-3.773m-.745.386v.008z"/></g><defs><radialGradient id="c" cx="0" cy="0" r="1" gradientTransform="matrix(15.3601 0 0 15.6187 10.894 1.978)" gradientUnits="userSpaceOnUse"><stop offset=".13" stop-color="#FFBD4F"/><stop offset=".28" stop-color="#FF980E"/><stop offset=".47" stop-color="#FF3750"/><stop offset=".78" stop-color="#EB0878"/><stop offset=".86" stop-color="#E50080"/></radialGradient><radialGradient id="d" cx="0" cy="0" r="1" gradientTransform="matrix(15.7441 0 0 15.6187 6.44 8.429)" gradientUnits="userSpaceOnUse"><stop offset=".3" stop-color="#960E18"/><stop offset=".35" stop-color="#B11927" stop-opacity=".74"/><stop offset=".43" stop-color="#DB293D" stop-opacity=".34"/><stop offset=".5" stop-color="#F5334B" stop-opacity=".09"/><stop offset=".53" stop-color="#FF3750" stop-opacity="0"/></radialGradient><radialGradient id="e" cx="0" cy="0" r="1" gradientTransform="matrix(5.04158 0 0 8.55934 9.484 -.482)" gradientUnits="userSpaceOnUse"><stop offset=".13" stop-color="#FFF44F"/><stop offset=".53" stop-color="#FF980E"/></radialGradient><radialGradient id="f" cx="0" cy="0" r="1" gradientTransform="matrix(6.67134 0 0 7.31186 6.157 12.46)" gradientUnits="userSpaceOnUse"><stop offset=".35" stop-color="#3A8EE6"/><stop offset=".67" stop-color="#9059FF"/><stop offset="1" stop-color="#C139E6"/></radialGradient><radialGradient id="g" cx="0" cy="0" r="1" gradientTransform="matrix(3.54248 0 0 4.314 7.297 6.823)" gradientUnits="userSpaceOnUse"><stop offset=".21" stop-color="#9059FF" stop-opacity="0"/><stop offset=".97" stop-color="#6E008B" stop-opacity=".6"/></radialGradient><radialGradient id="h" cx="0" cy="0" r="1" gradientTransform="matrix(5.30376 0 0 5.32261 7.506 1.402)" gradientUnits="userSpaceOnUse"><stop offset=".1" stop-color="#FFE226"/><stop offset=".79" stop-color="#FF7139"/></radialGradient><radialGradient id="i" cx="0" cy="0" r="1" gradientTransform="matrix(25.3212 0 0 21.2557 12.35 -2.09)" gradientUnits="userSpaceOnUse"><stop offset=".11" stop-color="#FFF44F"/><stop offset=".46" stop-color="#FF980E"/><stop offset=".72" stop-color="#FF3647"/><stop offset=".9" stop-color="#E31587"/></radialGradient><radialGradient id="j" cx="0" cy="0" r="1" gradientTransform="rotate(77.395 -1.604 4.304)scale(8.03354 34.752)" gradientUnits="userSpaceOnUse"><stop stop-color="#FFF44F"/><stop offset=".3" stop-color="#FF980E"/><stop offset=".57" stop-color="#FF3647"/><stop offset=".74" stop-color="#E31587"/></radialGradient><radialGradient id="k" cx="0" cy="0" r="1" gradientTransform="matrix(14.5381 0 0 14.2826 7.56 3.317)" gradientUnits="userSpaceOnUse"><stop offset=".14" stop-color="#FFF44F"/><stop offset=".48" stop-color="#FF980E"/><stop offset=".66" stop-color="#FF3647"/><stop offset=".9" stop-color="#E31587"/></radialGradient><radialGradient id="l" cx="0" cy="0" r="1" gradientTransform="matrix(17.4743 0 0 15.6328 11.334 4.152)" gradientUnits="userSpaceOnUse"><stop offset=".09" stop-color="#FFF44F"/><stop offset=".63" stop-color="#FF980E"/></radialGradient><linearGradient id="b" x1="13.588" x2="1.529" y1="2.652" y2="14.285" gradientUnits="userSpaceOnUse"><stop offset=".05" stop-color="#FFF44F"/><stop offset=".37" stop-color="#FF980E"/><stop offset=".53" stop-color="#FF3647"/><stop offset=".7" stop-color="#E31587"/></linearGradient><linearGradient id="m" x1="12.5" x2="2.857" y1="2.42" y2="12.956" gradientUnits="userSpaceOnUse"><stop offset=".17" stop-color="#FFF44F" stop-opacity=".8"/><stop offset=".6" stop-color="#FFF44F" stop-opacity="0"/></linearGradient><clipPath id="a"><path fill="#fff" d="M0 0h16v16H0z"/></clipPath></defs></svg>