<svg width="8px" height="16px" viewBox="0 0 8 16" version="1.1" xmlns="http://www.w3.org/2000/svg" xmlns:xlink="http://www.w3.org/1999/xlink">
    <!-- Generator: Sketch 49 (51002) - http://www.bohemiancoding.com/sketch -->
    <desc>Created with Sketch.</desc>
    <defs></defs>
    <g id="Screens" stroke="none" stroke-width="1" fill="none" fill-rule="evenodd">
        <g id="Extension-Detail---1366px" transform="translate(-811.000000, -257.000000)" fill="#9400FF" fill-rule="nonzero">
            <g id="currency-dollar" transform="translate(811.000000, 257.000000)">
                <path d="M5,7.2 L5,4.1 C5.6,4.3 6,4.9 6,5.5 C6,6.1 6.4,6.5 7,6.5 C7.6,6.5 8,6.1 8,5.5 C8,3.7 6.7,2.3 5,2.1 L5,1 C5,0.4 4.6,0 4,0 C3.4,0 3,0.4 3,1 L3,2.1 C1.3,2.3 0,3.7 0,5.5 C0,7.6 1.6,8.4 3,8.8 L3,11.9 C2.4,11.7 2,11.1 2,10.5 C2,9.9 1.6,9.5 1,9.5 C0.4,9.5 0,9.9 0,10.5 C0,12.3 1.3,13.7 3,13.9 L3,15 C3,15.6 3.4,16 4,16 C4.6,16 5,15.6 5,15 L5,13.9 C6.7,13.7 8,12.2 8,10.5 C8,8.4 6.4,7.6 5,7.2 Z M2,5.5 C2,4.8 2.4,4.3 3,4.1 L3,6.7 C2.3,6.4 2,6.1 2,5.5 Z M5,11.9 L5,9.3 C5.7,9.6 6,9.9 6,10.5 C6,11.2 5.6,11.7 5,11.9 Z" id="Shape"></path>
            </g>
        </g>
    </g>
</svg>
