<svg width="18" height="15" xmlns="http://www.w3.org/2000/svg"><path d="M5.654 15c6.793 0 10.51-5.773 10.51-10.77 0-.163 0-.325-.008-.487A7.652 7.652 0 0 0 18 1.779c-.663.302-1.376.5-2.125.597A3.79 3.79 0 0 0 17.503.28a7.231 7.231 0 0 1-2.348.916A3.647 3.647 0 0 0 12.46 0c-2.037 0-3.694 1.698-3.694 3.787 0 .295.036.583.094.864C5.79 4.497 3.068 2.983 1.246.695A3.856 3.856 0 0 0 .75 2.598c0 1.314.655 2.473 1.64 3.152a3.646 3.646 0 0 1-1.67-.472v.052c0 1.83 1.275 3.366 2.96 3.713-.31.088-.633.133-.972.133-.237 0-.468-.022-.69-.067.467 1.505 1.836 2.598 3.45 2.627a7.294 7.294 0 0 1-4.59 1.624A7.1 7.1 0 0 1 0 13.31 10.322 10.322 0 0 0 5.654 15" fill="#FFF"/></svg>