
<svg width="83px" height="102px" viewBox="55 -3 83 102" version="1.1" xmlns="http://www.w3.org/2000/svg" xmlns:xlink="http://www.w3.org/1999/xlink">
  <!-- Generator: Sketch 41.2 (35397) - http://www.bohemiancoding.com/sketch -->
  <desc>Created with Sketch.</desc>
  <defs></defs>
  <g id="Group-6" stroke="none" stroke-width="1" fill="none" fill-rule="evenodd" transform="translate(58.000000, 0.000000)">
    <path d="M48,60.8 L28.8,60.8 C12.8944,60.8 0,73.6944 0,89.6 L0,89.6 C0,89.6 14.4,96 38.4,96 C62.4,96 76.8,89.6 76.8,89.6 L76.8,89.6 C76.8,73.6944 63.9056,60.8 48,60.8 L48,60.8 Z" id="Shape" stroke="#343a40" stroke-width="6"></path>
    <path d="M16,22.4 C16,10.0288 26.0288,0 38.4,0 C50.7712,0 60.8,10.0288 60.8,22.4 C60.8,34.7712 50.7712,48 38.4,48 C26.0288,48 16,34.7712 16,22.4 L16,22.4 Z" id="Shape" stroke="#343a40" stroke-width="6"></path>
  </g>
</svg>
