<svg xmlns="http://www.w3.org/2000/svg" width="32" height="32" viewBox="0 0 32 32">
  <path fill="#8000D7" d="M800.967742,272 L771.032258,272 C770.461935,272 770,272.461935 770,273.032258 L770,302.967742 C770,303.538065 770.461935,304 771.032258,304 L800.967742,304 C801.538065,304 802,303.538065 802,302.967742 L802,273.032258 C802,272.461935 801.538065,272 800.967742,272 Z M788.064516,299.354839 C786.533161,299.354839 785.261419,298.236387 785.014194,296.774194 L774.645161,296.774194 C774.359742,296.774194 774.129032,296.543484 774.129032,296.258065 C774.129032,295.972645 774.359742,295.741935 774.645161,295.741935 L785.014194,295.741935 C785.260903,294.279742 786.532645,293.16129 788.064516,293.16129 C789.772387,293.16129 791.16129,294.550194 791.16129,296.258065 C791.16129,297.965935 789.772387,299.354839 788.064516,299.354839 Z M791.953032,284.307613 L782.146581,290.501161 C782.062452,290.553806 781.966968,290.580645 781.870968,290.580645 C781.78529,290.580645 781.699613,290.559484 781.622194,290.516645 C781.457032,290.425806 781.354839,290.252387 781.354839,290.064516 L781.354839,277.677419 C781.354839,277.489548 781.457032,277.316129 781.622194,277.22529 C781.786323,277.134452 781.987097,277.140645 782.147097,277.240774 L791.953548,283.434323 C792.10271,283.52929 792.193548,283.693935 792.193548,283.870968 C792.193548,284.048 792.10271,284.212645 791.953032,284.307613 Z M797.354839,296.774194 L793.741935,296.774194 C793.456516,296.774194 793.225806,296.543484 793.225806,296.258065 C793.225806,295.972645 793.456516,295.741935 793.741935,295.741935 L797.354839,295.741935 C797.640258,295.741935 797.870968,295.972645 797.870968,296.258065 C797.870968,296.543484 797.640258,296.774194 797.354839,296.774194 Z" transform="translate(-770 -272)"/>
</svg>
