<svg xmlns="http://www.w3.org/2000/svg" width="32" height="32"><path fill="#8000D7" d="M30.968 0H1.032C.462 0 0 .462 0 1.032v29.936C0 31.538.462 32 1.032 32h29.936c.57 0 1.032-.462 1.032-1.032V1.032C32 .462 31.538 0 30.968 0ZM18.065 27.355a3.1 3.1 0 0 1-3.05-2.58H4.644a.516.516 0 1 1 0-1.033h10.37a3.099 3.099 0 0 1 3.05-2.58 3.1 3.1 0 0 1 3.096 3.096 3.1 3.1 0 0 1-3.096 3.097Zm3.888-15.047L12.147 18.5a.52.52 0 0 1-.525.016.516.516 0 0 1-.267-.452V5.677a.516.516 0 0 1 .792-.436l9.807 6.193a.518.518 0 0 1-.001.874Zm5.402 12.466h-3.613a.516.516 0 1 1 0-1.032h3.613a.516.516 0 1 1 0 1.032Z"/></svg>