<svg xmlns="http://www.w3.org/2000/svg" xmlns:xlink="http://www.w3.org/1999/xlink" width="24" height="24" viewBox="0 0 24 24">
  <defs>
    <path id="bookmarks-a" d="M23.6215971,8.90749087 C23.4308959,8.3374861 22.9453225,7.91627274 22.3540971,7.80799087 L16.2205971,6.71149087 L13.3315971,0.913990871 C13.0524773,0.353956922 12.4805834,-1.2490009e-16 11.8548471,0 C11.2291108,8.32667268e-17 10.6572169,0.353956922 10.3780971,0.913990871 L7.4875971,6.71149087 L1.3660971,7.80499087 C0.769633805,7.90918683 0.278155803,8.33170831 0.085648539,8.90578688 C-0.106858725,9.47986546 0.030533629,10.1132677 0.443597098,10.5559909 L4.8340971,15.2764909 L3.9205971,21.8164909 C3.83471634,22.4291024 4.09871227,23.0382869 4.60444912,23.3945153 C5.11018597,23.7507437 5.77269199,23.794164 6.3205971,23.5069909 L11.8540971,20.6209909 L17.3890971,23.5114909 C17.9370022,23.798664 18.5995082,23.7552437 19.1052451,23.3990153 C19.6109819,23.0427869 19.8749779,22.4336024 19.7890971,21.8209909 L18.8740971,15.2764909 L23.2630971,10.5574909 C23.6762769,10.1149232 23.8138788,9.48160878 23.6215971,8.90749087 Z"/>
  </defs>
  <g fill="none" fill-rule="evenodd">
    <use fill="#000" fill-rule="nonzero" xlink:href="#bookmarks-a"/>
  </g>
</svg>
