<svg xmlns="http://www.w3.org/2000/svg" xmlns:xlink="http://www.w3.org/1999/xlink" width="24" height="24"><defs><path id="a" d="M17.25 3.004h-1.575a3.75 3.75 0 0 0-7.35 0H6.75a3 3 0 0 0-3 3v15a3 3 0 0 0 3 3h10.5a3 3 0 0 0 3-3v-15a3 3 0 0 0-3-3Zm0 10.5a1.5 1.5 0 0 1-1.5 1.5h-7.5a1.5 1.5 0 0 1-1.5-1.5v-6h10.5v6Zm0-7.5H6.75v-1.5h1.575a1.5 1.5 0 0 0 1.47-1.2 2.25 2.25 0 0 1 4.409 0 1.5 1.5 0 0 0 1.47 1.2h1.576v1.5Zm-5.25-3a.75.75 0 1 0 0 1.5.75.75 0 0 0 0-1.5Zm-3 7.5h6a.75.75 0 1 0 0-1.5H9a.75.75 0 0 0 0 1.5Zm0 3h3a.75.75 0 1 0 0-1.5H9a.75.75 0 0 0 0 1.5Z"/></defs><g fill="none" fill-rule="evenodd"><path d="M0 0h24v24H0z"/><mask id="b" fill="#fff"><use xlink:href="#a"/></mask><use fill="#000" fill-rule="nonzero" xlink:href="#a"/><g fill="#0C0C0D" fill-opacity=".8" mask="url(#b)"><path d="M0 0h24v24H0z"/></g></g></svg>