<svg xmlns="http://www.w3.org/2000/svg" width="24" height="24" viewBox="0 0 24 24">
  <g transform="translate(2)">
    <path d="M2.57142857,10.2857143 L18,10.2857143 C19.4068784,10.2855892 20.5526702,11.4161038 20.5714286,12.8228571 L20.5714286,21.3942857 C20.5806015,22.082192 20.3137388,22.7450875 19.8305046,23.2347649 C19.3472704,23.7244422 18.6879674,24.0000612 18,24 L2.57142857,24 C1.15126779,24 1.73919536e-16,22.8487322 0,21.4285714 L0,12.8571429 C2.69663186e-15,11.4369821 1.15126779,10.2857143 2.57142857,10.2857143 Z"/>
    <path d="M10.2857143,0 C6.49861886,-2.31892715e-16 3.42857143,3.07004743 3.42857143,6.85714286 L3.42857143,12 C3.42857143,15.7870954 6.49861886,18.8571429 10.2857143,18.8571429 C14.0728097,18.8571429 17.1428571,15.7870954 17.1428571,12 L17.1428571,6.85714286 C17.1428571,3.07004743 14.0728097,2.31892715e-16 10.2857143,0 Z M13.7142857,13.7142857 C13.7142857,15.6078334 12.179262,17.1428571 10.2857143,17.1428571 C8.39216657,17.1428571 6.85714286,15.6078334 6.85714286,13.7142857 L6.85714286,6.85714286 C6.85714286,4.96359514 8.39216657,3.42857143 10.2857143,3.42857143 C12.179262,3.42857143 13.7142857,4.96359514 13.7142857,6.85714286 L13.7142857,13.7142857 Z"/>
  </g>
</svg>
