<svg xmlns="http://www.w3.org/2000/svg" xmlns:xlink="http://www.w3.org/1999/xlink" width="24" height="24"><defs><path id="a" d="M10.94 19.06a1.5 1.5 0 0 0 2.12 0l7.5-7.5a1.5 1.5 0 0 0-2.12-2.12l-4.94 4.939V1.5a1.5 1.5 0 0 0-3 0v12.879l-4.94-4.94a1.5 1.5 0 0 0-2.12 2.121l7.5 7.5ZM19.5 21h-15a1.5 1.5 0 0 0 0 3h15a1.5 1.5 0 0 0 0-3Z"/></defs><g fill="none" fill-rule="evenodd"><path d="M0 0h24v24H0z"/><mask id="b" fill="#fff"><use xlink:href="#a"/></mask><g fill="#0F1126" mask="url(#b)"><path d="M0 0h24v24H0z"/></g></g></svg>