<svg xmlns="http://www.w3.org/2000/svg" xmlns:xlink="http://www.w3.org/1999/xlink" width="24" height="24"><defs><path id="a" d="M12 1.5c5.799 0 10.5 4.701 10.5 10.5S17.799 22.5 12 22.5 1.5 17.799 1.5 12 6.201 1.5 12 1.5ZM12 6a1.5 1.5 0 1 1 0 3 1.5 1.5 0 0 1 0-3Zm0 4.5a1.5 1.5 0 0 1 1.5 1.5v4.5a1.5 1.5 0 0 1-3 0V12a1.5 1.5 0 0 1 1.5-1.5Z"/></defs><g fill="none" fill-rule="evenodd"><path d="M0 0h24v24H0z"/><mask id="b" fill="#fff"><use xlink:href="#a"/></mask><use fill="#000" xlink:href="#a"/><g fill="#0C0C0D" fill-opacity=".8" mask="url(#b)"><path d="M0 0h24v24H0z"/></g></g></svg>