<svg xmlns="http://www.w3.org/2000/svg" xmlns:xlink="http://www.w3.org/1999/xlink" width="24" height="24"><defs><path id="a" d="M20.366.75A3.639 3.639 0 0 1 24 4.385v9.23a3.639 3.639 0 0 1-3.634 3.635H19.5v4.5a1.5 1.5 0 0 1-2.661.95l-4.449-5.45H3.634A3.639 3.639 0 0 1 0 13.616V4.384A3.639 3.639 0 0 1 3.635.75h16.73ZM21 13.616V4.384a.634.634 0 0 0-.634-.634H3.634A.635.635 0 0 0 3 4.385v9.23a.635.635 0 0 0 .635.635H13.1a1.5 1.5 0 0 1 1.162.55l2.237 2.741V15.75a1.5 1.5 0 0 1 1.5-1.5h2.366a.635.635 0 0 0 .634-.634ZM17.25 6.75a.75.75 0 1 1 0 1.5H6.75a.75.75 0 0 1 0-1.5h10.5Zm0 3a.75.75 0 1 1 0 1.5H6.75a.75.75 0 1 1 0-1.5h10.5Z"/></defs><g fill="none" fill-rule="evenodd"><path d="M0 0h24v24H0z"/><mask id="b" fill="#fff"><use xlink:href="#a"/></mask><g fill="#0F1126" mask="url(#b)"><path d="M0 0h24v24H0z"/></g></g></svg>