<svg xmlns="http://www.w3.org/2000/svg" xmlns:xlink="http://www.w3.org/1999/xlink" width="24" height="24"><defs><path id="a" d="M19.5 1.5H15a1.5 1.5 0 0 0 0 3h4.5A1.5 1.5 0 0 1 21 6v12a1.5 1.5 0 0 1-1.5 1.5h-15A1.5 1.5 0 0 1 3 18v-6a1.5 1.5 0 0 0-3 0v6a4.5 4.5 0 0 0 4.5 4.5h15A4.5 4.5 0 0 0 24 18V6a4.5 4.5 0 0 0-4.5-4.5Z"/></defs><g fill="none" fill-rule="evenodd" transform="translate(0 1)"><use fill="#000" fill-rule="nonzero" transform="matrix(-1 0 0 1 24 0)" xlink:href="#a"/><path fill="#0F1126" stroke="#0F1126" d="M17.25 10.5a5.25 5.25 0 1 1 0-10.5 5.25 5.25 0 0 1 0 10.5Z"/></g></svg>