<svg xmlns="http://www.w3.org/2000/svg" width="24" height="24"><path fill="#0F1126" fill-rule="evenodd" d="M16.8 14.4c-.101 0-.2-.011-.3-.015l-1.403 1.798c-.09.097-.297.217-.472.217-.225 0-.225 0-.625-.4l-.8-.8h-.4l-2.4 2.4H8.8v1.582c0 .245-.4.418-.4.418h-.8v.797c0 .403-.4.403-.4.403h-.8v1.21c0 .39-.4.39-.4.39H4.8v1.2c0 .4-.4.4-.4.4h-4c-.4 0-.4-.4-.4-.4v-2.8L8.8 12c.033-.036.4-.4 0-.8l-.8-.8c-.2-.185-.185-.6 0-.8l1.64-1.64a7.2 7.2 0 1 1 7.16 6.44ZM18.4 4a1.6 1.6 0 1 0 0 3.2 1.6 1.6 0 0 0 0-3.2Z"/></svg>