<svg xmlns="http://www.w3.org/2000/svg" xmlns:xlink="http://www.w3.org/1999/xlink" width="24" height="24"><defs><path id="a" d="M22.5 10.5h-3.15a7.45 7.45 0 0 0-1.098-2.63l2.235-2.234a1.5 1.5 0 0 0-2.121-2.122L16.131 5.75a7.452 7.452 0 0 0-2.631-1.1V1.5a1.5 1.5 0 0 0-3 0v3.15a7.452 7.452 0 0 0-2.63 1.098L5.637 3.513a1.5 1.5 0 0 0-2.121 2.123L5.75 7.87a7.45 7.45 0 0 0-1.1 2.63H1.5a1.5 1.5 0 0 0 0 3h3.15c.194.945.57 1.843 1.106 2.645-.021.019-.048.025-.068.044l-2.175 2.175a1.5 1.5 0 1 0 2.121 2.121l2.175-2.174c.02-.02.027-.047.045-.068.802.537 1.7.913 2.646 1.107v3.15a1.5 1.5 0 0 0 3 0v-3.15a7.452 7.452 0 0 0 2.63-1.098l2.235 2.235a1.5 1.5 0 0 0 2.12-2.121l-2.235-2.235a7.45 7.45 0 0 0 1.1-2.631h3.15a1.5 1.5 0 1 0 0-3ZM7.5 12a4.5 4.5 0 1 1 9 0 4.5 4.5 0 0 1-9 0Z"/></defs><g fill="none" fill-rule="evenodd"><path d="M0 0h24v24H0z"/><mask id="b" fill="#fff"><use xlink:href="#a"/></mask><g fill="#0F1126" mask="url(#b)"><path d="M0 0h24v24H0z"/></g></g></svg>