<svg width="18" height="20" xmlns="http://www.w3.org/2000/svg" xmlns:xlink="http://www.w3.org/1999/xlink"><defs><path d="M19.5 15.825h-15c-.825 0-1.5.675-1.5 1.5v2.925c0 .825.675 1.5 1.5 1.5h15c.825 0 1.5-.675 1.5-1.5v-2.925c0-.825-.675-1.5-1.5-1.5Zm-1.425 4.425c-.825 0-1.5-.675-1.5-1.5s.675-1.5 1.5-1.5 1.5.675 1.5 1.5-.675 1.5-1.5 1.5Zm.675-18H5.25C3.975 2.25 3 3.3 3 4.65v9.975c.45-.225.975-.375 1.5-.375h15c.525 0 1.05.15 1.5.375V4.65c0-1.35-.975-2.4-2.25-2.4Z" id="a"/></defs><g transform="translate(-3 -2)" fill="none" fill-rule="evenodd"><path d="M0 0h24v24H0z"/><mask id="b" fill="#fff"><use xlink:href="#a"/></mask><g mask="url(#b)" fill="#0F1126"><path d="M0 0h24v24H0z"/></g></g></svg>