
<svg width="238px" height="216px" viewBox="80 2661 238 216" version="1.1" xmlns="http://www.w3.org/2000/svg" xmlns:xlink="http://www.w3.org/1999/xlink">
    <!-- Generator: Sketch 39.1 (31720) - http://www.bohemiancoding.com/sketch -->
    <desc>Created with Sketch.</desc>
    <defs>
        <polygon id="path-1" points="0 0.035038914 0 215.589844 237.6605 215.589844 237.6605 0.035038914 0 0.035038914"></polygon>
    </defs>
    <g id="Group-53-Copy-6" stroke="none" stroke-width="1" fill="none" fill-rule="evenodd" transform="translate(80.000000, 2661.000000)">
        <mask id="mask-2" fill="white">
            <use xlink:href="#path-1"></use>
        </mask>
        <g id="Clip-25"></g>
        <path d="M226.533567,112.63408 C226.603938,111.035093 226.646454,109.428776 226.646454,107.812686 C226.646454,106.897862 226.634237,105.985971 226.611757,105.076523 C226.60345,104.752523 226.586834,104.430967 226.576083,104.107455 C226.556047,103.524451 226.538454,102.941446 226.509622,102.360885 C226.489586,101.956252 226.459776,101.554062 226.435341,101.150405 C226.405043,100.656342 226.378165,100.160813 226.341513,99.6687041 C226.307305,99.2152018 226.2643,98.7646317 226.224717,98.3130842 C226.186599,97.8747312 226.151414,97.4358896 226.10792,96.9990027 C226.059052,96.5093376 226.001386,96.0226045 225.946165,95.5353828 C225.901205,95.1415005 225.860156,94.7466407 225.810798,94.3542244 C225.745803,93.8327946 225.672011,93.3142968 225.599685,92.7953104 C225.550328,92.4419891 225.503902,92.0872018 225.451124,91.7348579 C225.368536,91.1831294 225.27764,90.6338443 225.186255,90.0845593 C225.134454,89.7708217 225.085097,89.4561068 225.030364,89.1433466 C224.928717,88.5603421 224.818273,87.9802697 224.707341,87.400686 C224.654563,87.1275095 224.604717,86.8533557 224.549984,86.5811566 C224.427323,85.96541 224.295866,85.3525955 224.162454,84.7402697 C224.112119,84.5100977 224.063739,84.2794371 224.011938,84.0497538 C223.865821,83.4002878 223.711395,82.7537538 223.553549,82.108686 C223.507613,81.9229846 223.463631,81.7363059 223.417205,81.5510932 C223.245187,80.8644869 223.06535,80.18179 222.880626,79.501048 C222.842997,79.3627493 222.806346,79.2244507 222.768228,79.0866407 C222.568355,78.3619167 222.360174,77.6411023 222.145151,76.9222425 C222.119251,76.8342787 222.09335,76.7463149 222.066961,76.6583511 C221.835812,75.8916 221.595377,75.1287584 221.347613,74.3688489 C221.33735,74.3361068 221.326599,74.3033647 221.315848,74.2706226 C207.213296,31.1732471 166.681531,0.035038914 118.868319,0.035038914 C59.3432145,0.035038914 11.0911602,48.2929575 11.0911602,107.812686 C11.0911602,109.540686 11.141495,111.256957 11.2216398,112.964921 C4.90583891,113.753663 -9.77375566e-05,119.182496 -9.77375566e-05,125.712342 C-9.77375566e-05,132.784632 5.73367602,138.619075 12.8059656,138.619075 L15.5255131,138.619075 C26.2859294,174.781971 55.7230154,203.27589 92.7420923,212.497428 C92.7870516,212.508668 92.8329882,212.469084 92.8779475,212.479835 C93.6187982,212.663582 94.362581,212.813609 95.1088072,212.981718 C95.2612778,213.015926 95.4137484,213.036451 95.5667077,213.07017 C96.2176398,213.213844 96.8715041,213.345301 97.5273231,213.477247 C97.7110697,213.513899 97.8943276,213.548107 98.0785629,213.583781 C98.7319385,213.711817 99.3872688,213.831057 100.044554,213.946876 C100.210219,213.976197 100.374907,214.006007 100.540083,214.03484 C101.335667,214.170695 102.133205,214.29922 102.934165,214.41846 C102.951269,214.420903 102.968373,214.423347 102.984988,214.426279 C103.825043,214.550405 104.668029,214.66427 105.514436,214.768849 C105.648825,214.785464 105.784192,214.799148 105.91907,214.815274 C106.595414,214.895908 107.273224,214.972143 107.953966,215.040559 C108.216391,215.066948 108.479305,215.089917 108.742219,215.114351 C109.301278,215.166641 109.860825,215.21551 110.421839,215.259003 C110.721893,215.281971 111.021948,215.303473 111.32249,215.324487 C111.860047,215.361627 112.398092,215.394369 112.937604,215.42369 C113.24059,215.440306 113.543088,215.456921 113.846563,215.471093 C114.41735,215.496994 114.989604,215.51703 115.562346,215.534134 C115.827703,215.541953 116.092572,215.552704 116.358418,215.559057 C117.193097,215.578116 118.029242,215.589844 118.868319,215.589844 C119.726454,215.589844 120.581169,215.577138 121.434418,215.557102 C121.707106,215.550749 121.978816,215.539998 122.251504,215.53169 C122.835975,215.513609 123.419468,215.492595 124.001984,215.465229 C124.314744,215.450568 124.627015,215.433464 124.939287,215.41636 C125.491504,215.385573 126.042255,215.350387 126.592029,215.311292 C126.899902,215.28979 127.207287,215.268288 127.514183,215.244342 C128.111359,215.196939 128.70707,215.142695 129.301803,215.085519 C129.548101,215.061573 129.795377,215.041048 130.041187,215.015636 C130.865604,214.931093 131.687576,214.837265 132.506129,214.734152 C132.712355,214.708252 132.916626,214.677464 133.122364,214.650098 C133.741531,214.568487 134.359233,214.483455 134.97449,214.391093 C135.293604,214.343202 135.611739,214.291401 135.929875,214.240577 C136.433224,214.160433 136.935595,214.078333 137.4365,213.991347 C137.778581,213.931727 138.120174,213.870641 138.461278,213.808089 C138.944101,213.719148 139.425948,213.626297 139.906816,213.531003 C140.2445,213.464541 140.582671,213.398568 140.919866,213.328686 C141.438364,213.220686 141.954907,213.106333 142.470961,212.991003 C142.760264,212.926496 143.051033,212.86541 143.339359,212.79846 C144.090472,212.623998 144.837676,212.441229 145.582436,212.251129 C145.948463,212.15779 146.312047,212.058098 146.677097,211.960849 C147.091504,211.850405 147.505911,211.740451 147.918364,211.62512 C148.320554,211.512722 148.721278,211.396414 149.122002,211.279129 C149.489006,211.172107 149.855522,211.063618 150.221549,210.952197 C150.640355,210.825138 151.058671,210.696125 151.475522,210.564179 C151.808807,210.458623 152.140626,210.349645 152.472445,210.240668 C152.912264,210.096505 153.352572,209.952831 153.790436,209.802804 C154.02354,209.723148 154.255178,209.639093 154.487794,209.557482 C155.540427,209.189012 156.58573,208.805392 157.623214,208.405645 C157.742454,208.359709 157.86316,208.315727 157.9824,208.269301 C158.505296,208.065519 159.024771,207.854405 159.543757,207.642804 C159.743631,207.561193 159.943504,207.481048 160.142889,207.397971 C160.662852,207.18246 161.179884,206.962062 161.695938,206.738243 C161.870889,206.662496 162.045839,206.585772 162.2203,206.509048 C162.768119,206.268125 163.313984,206.02427 163.856916,205.77455 C163.928753,205.741319 164.000101,205.734967 164.07145,205.701736 C192.066907,192.750532 213.561839,167.940342 222.333296,138.130387 L224.854925,138.130387 C231.927214,138.130387 237.6605,132.369736 237.6605,125.297446 C237.6605,118.800342 232.80392,113.463871 226.533567,112.63408" id="Fill-24" fill="#FFCB00" mask="url(#mask-2)"></path>
        <path d="M78.5357919,70.4056887 C77.5085701,70.4056887 76.4872127,69.9829738 75.7517376,69.1541593 C72.9310317,65.9684036 68.8534208,64.1426661 64.5632308,64.1412 L64.55981,64.1412 C60.2681538,64.1412 56.1871222,65.9684036 53.3615294,69.1556253 C52.0000452,70.6881502 49.6533665,70.8313357 48.1144887,69.4703403 C46.5790317,68.1088561 46.4387783,65.7587566 47.8002624,64.2232995 C52.0357195,59.4473538 58.1438281,56.7087475 64.55981,56.7087475 L64.5646968,56.7087475 C70.9811674,56.7107023 77.0858552,59.4507747 81.3164253,64.2252543 C82.6759548,65.7621774 82.5342353,68.1103222 80.9987783,69.4718063 C80.2906697,70.0978154 79.4115204,70.4056887 78.5357919,70.4056887" id="Fill-27" fill="#FF9216" mask="url(#mask-2)"></path>
        <path d="M158.252253,70.4056887 C157.375059,70.4056887 156.493955,70.0978154 155.787801,69.4703403 C154.252344,68.1088561 154.110136,65.7607113 155.47162,64.2252543 C159.703656,59.4473538 165.813719,56.7087475 172.229701,56.7087475 L172.233122,56.7087475 C178.649104,56.7107023 184.755747,59.4507747 188.984851,64.2252543 C190.345846,65.7621774 190.204127,68.1103222 188.66867,69.4718063 C187.136145,70.8298697 184.784579,70.6925484 183.423095,69.1541593 C180.600923,65.9684036 176.523312,64.1426661 172.233122,64.1412 L172.229701,64.1412 C167.93609,64.1412 163.858968,65.9684036 161.032887,69.1541593 C160.297412,69.9829738 159.278009,70.4056887 158.252253,70.4056887" id="Fill-29" fill="#FF9216" mask="url(#mask-2)"></path>
        <path d="M118.911763,166.496367 C102.83931,166.496367 86.7712561,160.967354 74.5389122,149.902974 C72.1712199,147.760567 71.9874733,144.106159 74.1293919,141.737978 C76.2713104,139.370286 79.9262063,139.186539 82.2938986,141.328458 C102.487455,159.589743 135.342424,159.58339 155.539401,141.328458 C157.910514,139.183119 161.571763,139.373707 163.703908,141.737978 C165.845826,144.109091 165.66208,147.763987 163.294387,149.902974 C151.055202,160.963933 134.981283,166.496367 118.911763,166.496367" id="Fill-31" fill="#2B3B47" mask="url(#mask-2)"></path>
        <path d="M80.3519511,96.5250244 C77.3890371,89.8559023 71.3376163,85.7123186 64.5600054,85.7123186 L64.5585394,85.7123186 C57.7794624,85.7123186 51.7275529,89.8539475 48.7631729,96.5250244 C48.5667204,96.9667982 48.4636072,97.4222552 48.4010552,97.8782009 C47.5595348,99.808029 47.9441321,102.115124 49.6051819,103.586563 C51.666467,105.4123 54.8229014,105.223667 56.650105,103.157495 C58.6405303,100.909043 61.5213448,99.6189068 64.5536525,99.616952 L64.5551186,99.616952 C67.5888923,99.616952 70.4726389,100.909043 72.4664851,103.158961 C73.4521683,104.272192 74.8244036,104.839558 76.2034805,104.839558 C77.3792633,104.839558 78.5618878,104.426617 79.5114081,103.585097 C81.1719692,102.114147 81.5551005,99.808029 80.7140688,97.8786896 C80.6515167,97.4222552 80.5484036,96.9667982 80.3519511,96.5250244" id="Fill-33" fill="#2B3B47" mask="url(#mask-2)"></path>
        <path d="M188.385768,97.8818661 C188.323705,97.4239656 188.220592,96.9670425 188.023162,96.523314 C185.058782,89.8541919 179.007361,85.7120742 172.22975,85.7120742 C165.449207,85.7120742 159.397298,89.8541919 156.432918,96.523314 C156.235976,96.9670425 156.132375,97.4234769 156.070311,97.8813774 C155.231234,99.8102281 155.616809,102.117323 157.278348,103.586319 C159.342565,105.418898 162.497533,105.21707 164.323271,103.157251 C166.310275,100.908798 169.19109,99.6186624 172.223397,99.6171964 L172.226818,99.6171964 C175.258637,99.6171964 178.142872,100.908798 180.13623,103.159205 C181.123379,104.271948 182.494148,104.839803 183.87518,104.839803 C185.049008,104.839803 186.229678,104.426862 187.181642,103.584852 C188.839271,102.11488 189.224845,99.8107167 188.385768,97.8818661" id="Fill-35" fill="#2B3B47" mask="url(#mask-2)"></path>
    </g>
</svg>