
<svg width="238px" height="217px" viewBox="423 2661 238 217" version="1.1" xmlns="http://www.w3.org/2000/svg" xmlns:xlink="http://www.w3.org/1999/xlink">
    <!-- Generator: Sketch 39.1 (31720) - http://www.bohemiancoding.com/sketch -->
    <desc>Created with Sketch.</desc>
    <defs>
        <polygon id="path-1" points="118.562156 215.512415 237.124117 215.512415 237.124117 0.374465011 118.562156 0.374465011 0.000195033859 0.374465011 0.000195033859 215.512415 118.562156 215.512415"></polygon>
    </defs>
    <g id="Group-11-Copy-3" stroke="none" stroke-width="1" fill="none" fill-rule="evenodd" transform="translate(423.000000, 2661.000000)">
        <g id="Page-1">
            <g id="Group-3" transform="translate(0.000000, 0.113120)">
                <mask id="mask-2" fill="white">
                    <use xlink:href="#path-1"></use>
                </mask>
                <g id="Clip-2"></g>
                <path d="M226.018597,112.755901 C226.088809,111.160036 226.131229,109.556858 226.131229,107.943928 C226.131229,107.030682 226.119039,106.120849 226.09661,105.212966 C226.088321,104.886284 226.071744,104.561553 226.060529,104.235359 C226.041026,103.657571 226.023473,103.079296 225.994705,102.503946 C225.974227,102.095837 225.944484,101.690655 225.919617,101.284009 C225.889874,100.794474 225.863545,100.303476 225.826976,99.8158916 C225.792845,99.3619503 225.74945,98.9109345 225.709956,98.4589436 C225.671924,98.0230429 225.637306,97.586167 225.593911,97.1517291 C225.545152,96.6626817 225.48713,96.1765598 225.432033,95.6894628 C225.387662,95.2964695 225.346218,94.9025011 225.297459,94.5109707 C225.23261,93.9912054 225.158985,93.4738781 225.086823,92.9560632 C225.037089,92.6030519 224.991256,92.2490655 224.938597,91.8970293 C224.856195,91.3460587 224.765017,90.7980135 224.674326,90.2499684 C224.622154,89.9369391 224.572908,89.6229345 224.518299,89.3108804 C224.416881,88.7282167 224.3062,88.1484786 224.195518,87.5687404 C224.143346,87.2971558 224.093613,87.0250835 224.039003,86.7539865 C223.916619,86.1391422 223.785459,85.5277111 223.651861,84.9167675 C223.60164,84.6866275 223.553369,84.456 223.501685,84.2268352 C223.355897,83.57786 223.201333,82.932298 223.043843,82.2881986 C222.998498,82.1034041 222.954615,81.9181219 222.908294,81.7333273 C222.737152,81.0487585 222.557233,80.3671151 222.372439,79.6874221 C222.334895,79.5494357 222.298814,79.4109616 222.260782,79.2734628 C222.06136,78.5503747 221.853161,77.8306998 221.639112,77.1139503 C221.612782,77.0256975 221.58694,76.9374447 221.56061,76.8491919 C221.329983,76.0851467 221.090579,75.3250023 220.843861,74.5677833 C220.832647,74.5336524 220.821432,74.4990339 220.810218,74.4649029 C206.734624,31.4516479 166.281188,0.374465011 118.561766,0.374465011 C59.1515269,0.374465011 10.9932786,48.5390519 10.9932786,107.943928 C10.9932786,109.557345 11.0444749,111.158573 11.1146871,112.754438 C4.85214989,113.578456 0.000195033859,118.879476 0.000195033859,125.367278 C0.000195033859,132.425553 5.7220009,138.147847 12.7807639,138.147847 L15.3215675,138.147847 C25.0196262,171.352361 50.2828497,197.908659 82.6848,209.375675 C82.6994275,209.381038 82.7140551,209.386402 82.7286826,209.391278 C85.904809,210.513698 89.1482221,211.492767 92.4535585,212.317273 C92.5330348,212.336777 92.6129986,212.355305 92.6924749,212.375296 C93.3994727,212.549851 94.1089084,212.717093 94.8212695,212.877995 C94.9860731,212.915052 95.1513643,212.951133 95.3166555,212.987702 C95.955879,213.128614 96.5970528,213.263675 97.240177,213.392885 C97.4293598,213.430916 97.6185427,213.469436 97.8082131,213.506492 C98.4596262,213.634239 99.1134772,213.754673 99.7692786,213.87023 C99.9321318,213.898998 100.094498,213.929716 100.257838,213.957508 C101.898561,214.239332 103.551473,214.484587 105.216574,214.690835 C105.373089,214.709851 105.531066,214.725941 105.688069,214.744957 C106.34192,214.822971 106.997233,214.896596 107.654498,214.96242 C107.921694,214.989725 108.189865,215.013129 108.457549,215.037995 C109.011933,215.089679 109.567292,215.138438 110.124114,215.181345 C110.423491,215.204749 110.723355,215.226203 111.023707,215.247169 C111.561026,215.284713 112.099319,215.316894 112.639075,215.346637 C112.940403,215.362727 113.24173,215.379792 113.544033,215.393445 C114.115969,215.419774 114.688881,215.439765 115.263256,215.456831 C115.526552,215.464632 115.788872,215.475359 116.052656,215.481698 C116.886913,215.500713 117.723121,215.512415 118.561766,215.512415 C119.417965,215.512415 120.271238,215.499738 121.122561,215.480235 C121.394633,215.473896 121.666218,215.462682 121.93829,215.454393 C122.521929,215.436352 123.104592,215.415386 123.686281,215.388081 C123.997847,215.373454 124.308439,215.356876 124.61903,215.339323 C125.170976,215.308605 125.721459,215.273499 126.270479,215.23498 C126.577658,215.213038 126.884836,215.191585 127.191039,215.167693 C127.78638,215.120397 128.379771,215.066275 128.972674,215.009228 C129.219391,214.985336 129.467572,214.964858 129.713802,214.939503 C130.536358,214.854664 131.355987,214.761535 132.172692,214.658655 C132.37894,214.632325 132.583238,214.601607 132.788511,214.57479 C133.406281,214.492876 134.022588,214.408036 134.636944,214.315883 C134.955337,214.268099 135.272755,214.216415 135.59066,214.166194 C136.092385,214.08623 136.593622,214.003828 137.093396,213.917038 C137.435193,213.857553 137.776502,213.796605 138.117811,213.734194 C138.59857,213.645454 139.078353,213.5533 139.557161,213.458221 C139.895545,213.391422 140.233929,213.325598 140.571337,213.255386 C141.088665,213.14763 141.603066,213.034023 142.116981,212.918953 C142.406118,212.854104 142.696719,212.793643 142.985369,212.726357 C143.734786,212.552289 144.480791,212.369932 145.224358,212.180262 C145.589071,212.087133 145.950859,211.988153 146.314109,211.891124 C146.729044,211.78093 147.143978,211.670248 147.556475,211.555178 C147.956782,211.443521 148.355139,211.327476 148.753495,211.211431 C149.121622,211.103675 149.48926,210.994944 149.855924,210.883287 C150.273784,210.756515 150.690181,210.62828 151.105604,210.496632 C151.438624,210.390826 151.770669,210.282095 152.102227,210.172876 C152.540565,210.029526 152.978904,209.886664 153.414805,209.737463 C153.650795,209.656524 153.884836,209.571196 154.119852,209.488795 C155.167184,209.122131 156.207689,208.74084 157.239906,208.342971 C157.359852,208.29665 157.480773,208.252767 157.600231,208.205959 C158.121947,208.002637 158.639762,207.792488 159.157577,207.581363 C159.357486,207.499449 159.557396,207.418998 159.756818,207.336596 C160.275121,207.121571 160.790985,206.90167 161.304899,206.678844 C161.480917,206.602293 161.65596,206.525743 161.831003,206.448704 C162.377098,206.208325 162.921242,205.965508 163.461974,205.71684 C163.535112,205.683196 163.607762,205.648578 163.680412,205.614447 C191.620475,192.687603 213.072737,168.129914 221.826344,138.147847 L224.343256,138.147847 C231.402019,138.147847 237.124312,132.425553 237.124312,125.367278 C237.124312,118.882402 232.276746,113.584307 226.018597,112.755901" id="Fill-1" fill="#EA385E" mask="url(#mask-2)"></path>
            </g>
            <path d="M77.8225084,105.791583 L52.7952758,105.791583 C49.4948153,105.791583 46.8179756,103.114743 46.8179756,99.8142826 C46.8179756,96.5143097 49.4948153,93.83747 52.7952758,93.83747 L77.8225084,93.83747 C81.1224813,93.83747 83.7998086,96.5143097 83.7998086,99.8142826 C83.7998086,103.114743 81.1224813,105.791583 77.8225084,105.791583" id="Fill-4" fill="#2B3B47"></path>
            <path d="M184.656206,105.791583 L159.627023,105.791583 C156.32705,105.791583 153.651673,103.114743 153.651673,99.8142826 C153.651673,96.5143097 156.32705,93.83747 159.627023,93.83747 L184.656206,93.83747 C187.956179,93.83747 190.631556,96.5143097 190.631556,99.8142826 C190.631556,103.114743 187.956179,105.791583 184.656206,105.791583" id="Fill-6" fill="#2B3B47"></path>
            <path d="M154.018678,150.294214 L84.0102989,150.294214 C80.710326,150.294214 78.0334862,147.618837 78.0334862,144.318864 C78.0334862,141.018404 80.710326,138.343027 84.0102989,138.343027 L154.018678,138.343027 C157.318651,138.343027 159.994028,141.018404 159.994028,144.318864 C159.994028,147.618837 157.318651,150.294214 154.018678,150.294214" id="Fill-8" fill="#2B3B47"></path>
        </g>
    </g>
</svg>