
<svg width="238px" height="216px" viewBox="762 2661 238 216" version="1.1" xmlns="http://www.w3.org/2000/svg" xmlns:xlink="http://www.w3.org/1999/xlink">
    <!-- Generator: Sketch 39.1 (31720) - http://www.bohemiancoding.com/sketch -->
    <desc>Created with Sketch.</desc>
    <defs></defs>
    <g id="Group-12-Copy-3" stroke="none" stroke-width="1" fill="none" fill-rule="evenodd" transform="translate(762.000000, 2661.000000)">
        <path d="M226.53171,112.199587 C226.589864,110.742809 226.642643,109.284076 226.642643,107.813126 C226.642643,79.0079131 215.330986,52.854809 196.91381,33.5272072 C196.952416,33.5892706 196.989068,33.6518226 197.027186,33.713886 C177.376561,12.954429 149.562407,0.00029321267 118.720344,0.00029321267 C59.176181,0.00029321267 10.9084887,48.2743385 10.9084887,107.813126 C10.9084887,109.287986 10.9607783,110.750139 11.0194208,112.210827 C4.80086878,113.08851 0,118.378556 0,124.839497 C0,131.91423 5.73523982,137.648981 12.8094842,137.648981 L15.1229321,137.648981 C28.0668054,182.676673 69.5304977,215.62547 118.720344,215.62547 C118.738425,215.62547 118.756507,215.624981 118.7741,215.624981 C118.793158,215.624981 118.81124,215.62547 118.82981,215.62547 C119.713846,215.62547 120.594462,215.611786 121.473122,215.590773 C121.511729,215.589795 121.549357,215.588329 121.587475,215.587352 C122.481285,215.564872 123.371674,215.529687 124.25962,215.485705 C124.266462,215.485216 124.273303,215.485216 124.280145,215.484728 C171.061738,213.154176 209.965195,181.003406 222.42771,137.648981 L224.851113,137.648981 C231.925357,137.648981 237.660597,131.91423 237.660597,124.839497 C237.660597,118.340927 232.803529,113.030357 226.53171,112.199587" id="Fill-1" fill="#00B89C"></path>
        <path d="M172.757093,86.0562081 L172.747319,86.0562081 C166.329383,86.0527873 160.224695,83.3117376 155.997546,78.5333484 C154.636062,76.995448 154.781202,74.6468145 156.32008,73.2848416 C157.853093,71.9282443 160.202215,72.0636109 161.56712,73.6059095 C164.383917,76.7906878 168.462505,78.6188688 172.75074,78.6203348 L172.757093,78.6203348 C177.051681,78.6203348 181.13369,76.7921538 183.960261,73.6044434 C185.321745,72.0650769 187.674288,71.9282443 189.206813,73.2882624 C190.742758,74.6497466 190.884478,76.9988688 189.522994,78.5348145 C185.286559,83.3151584 179.17503,86.0562081 172.757093,86.0562081" id="Fill-3" fill="#009E83"></path>
        <path d="M51.2265502,62.8207167 C50.350333,62.8207167 49.4697176,62.5123548 48.7611204,61.8848796 C47.2256633,60.5233955 47.0849213,58.1728072 48.4468941,56.6368615 C52.6833285,51.8579837 58.7948579,49.1184 65.2142606,49.1184 L65.2240344,49.1184 C71.6385502,49.1203548 77.7451928,51.8628706 81.9723421,56.6397937 C83.3338262,58.1776941 83.190152,60.5263276 81.6527403,61.8868344 C80.1167946,63.2512507 77.7647403,63.1046443 76.4061882,61.5672326 C73.585971,58.3824543 69.5088489,56.5542733 65.2206136,56.5528072 L65.2157267,56.5528072 C60.9196724,56.5528072 56.8361973,58.3809882 54.0096271,61.5701647 C53.2756181,62.3980018 52.2527946,62.8207167 51.2265502,62.8207167" id="Fill-5" fill="#009E83"></path>
        <path d="M172.402159,129.899028 C168.255643,129.899028 164.128675,128.985671 160.282702,127.159444 C158.288367,126.214322 157.442938,123.829526 158.388548,121.838612 C159.334159,119.847698 161.72482,119.002268 163.709381,119.944458 C169.394775,122.645435 175.973978,122.555028 181.7532,119.683499 C183.727987,118.711987 186.12549,119.509037 187.106286,121.487245 C188.087082,123.461544 187.277327,125.859046 185.302539,126.840331 C181.198051,128.876205 176.790576,129.899028 172.402159,129.899028" id="Fill-7" fill="#009E83"></path>
        <path d="M151.480214,149.10436 C149.502005,147.610442 146.685209,148.010677 145.197643,149.991817 C142.441933,153.650623 138.289553,155.751491 133.804376,155.751491 C129.3192,155.748071 125.169752,153.650623 122.417462,149.991817 C117.951833,144.057681 111.184974,140.653482 103.854168,140.653482 C96.5228742,140.653482 89.7565032,144.057681 85.2923403,149.991817 C83.8018425,151.972957 84.198657,154.783401 86.1797973,156.273899 C88.1609376,157.768306 90.9748018,157.368071 92.4623674,155.38693 C95.2161231,151.727636 99.3689919,149.627256 103.854168,149.627256 C108.33739,149.627256 112.488793,151.72617 115.242548,155.383021 C115.243526,155.383998 115.243526,155.385464 115.244503,155.38693 C119.708177,161.320577 126.473082,164.724776 133.804376,164.724776 L133.807309,164.724776 C141.138603,164.724776 147.901553,161.320577 152.367671,155.38693 C153.858168,153.40579 153.461354,150.594858 151.480214,149.10436" id="Fill-9" fill="#2B3B47"></path>
        <path d="M118.366143,180.103292 C114.219627,180.103292 110.089727,179.189935 106.241799,177.363709 C104.249419,176.418586 103.400568,174.03379 104.347645,172.042876 C105.293256,170.04903 107.674632,169.209953 109.668478,170.148722 C115.362179,172.8497 121.937962,172.755871 127.708876,169.890695 C129.683663,168.906478 132.081166,169.713301 133.061962,171.688089 C134.046179,173.665808 133.239844,176.060378 131.265057,177.044595 C127.160568,179.080469 122.752605,180.103292 118.366143,180.103292" id="Fill-11" fill="#009E83"></path>
        <path d="M65.2087385,72.9681231 C71.747381,72.9681231 77.0481774,78.2689195 77.0481774,84.807562 L77.0481774,111.349662 C77.0481774,117.888304 71.747381,115.406259 65.2087385,115.406259 C58.6700959,115.406259 53.3692995,117.888304 53.3692995,111.349662 L53.3692995,84.807562 C53.3692995,78.2689195 58.6700959,72.9681231 65.2087385,72.9681231" id="Fill-13" fill="#2B3B47"></path>
        <path d="M188.924107,105.385911 C188.862043,104.928011 188.758442,104.470599 188.5615,104.027359 C185.596143,97.3562824 179.542767,93.2131873 172.76027,93.2131873 C165.981193,93.2131873 159.927817,97.3562824 156.96246,104.027359 C156.765519,104.47011 156.662405,104.926545 156.599853,105.383957 C155.759799,107.314273 156.145374,109.621857 157.80789,111.092319 C159.873084,112.923432 163.028541,112.729911 164.854767,110.661296 C166.842749,108.41431 169.724052,107.123196 172.756849,107.12173 L172.76027,107.12173 C175.793555,107.12173 178.678279,108.41431 180.672125,110.664717 C181.659763,111.777948 183.031021,112.345803 184.412052,112.345803 C185.586369,112.345803 186.767528,111.932862 187.719491,111.090852 C189.377609,109.620391 189.763672,107.315251 188.924107,105.385911" id="Fill-15" fill="#2B3B47"></path>
        <path d="M54.4467584,120.722302 C52.9767855,120.722302 51.5635005,119.909126 50.8666317,118.505614 C49.8858353,116.527406 50.6907041,114.133325 52.6674462,113.149108 C60.6501611,109.186827 69.7720072,109.067587 77.6872833,112.829995 C79.6796633,113.775117 80.5280253,116.159913 79.5809484,118.150827 C78.6324054,120.141741 76.2559167,120.986682 74.2601158,120.044492 C68.57179,117.340583 61.9925864,117.437343 56.2197176,120.303008 C55.6489303,120.586936 55.0439348,120.722302 54.4467584,120.722302" id="Fill-17" fill="#009E83"></path>
    </g>
</svg>