
<svg width="103px" height="16px" viewBox="2 58 207 32" version="1.1" xmlns="http://www.w3.org/2000/svg" xmlns:xlink="http://www.w3.org/1999/xlink">
    <!-- Generator: Sketch 40.2 (33826) - http://www.bohemiancoding.com/sketch -->
    <desc>Created with Sketch.</desc>
    <defs></defs>
    <g id="Group-24" stroke="none" stroke-width="1" fill="none" fill-rule="evenodd" transform="translate(2.000000, 59.000000)">
        <path d="M17.0363434,0.643636364 L21.3548889,9.39272727 L31.0101616,10.7963636 C31.9570707,10.9345455 32.3352525,12.0981818 31.6501616,12.7658182 L24.6625252,19.576 L26.3119798,29.1934545 C26.4734343,30.1374545 25.4828889,30.856 24.6363434,30.4109091 L16.0007071,25.8712727 L7.36361615,30.4123636 C6.5170707,30.8574545 5.52652525,30.1374545 5.68797979,29.1934545 L7.33743434,19.576 L0.349797973,12.7658182 C-0.335292936,12.0981818 0.0428888817,10.9330909 0.989797973,10.7963636 L10.6450707,9.39272727 L14.9636162,0.643636364 C15.3883434,-0.214545455 16.6130707,-0.214545455 17.0363434,0.643636364 L17.0363434,0.643636364 Z" id="Shape" fill="#FFCB00"></path>
        <path d="M104.309071,0.643636364 L108.627616,9.39272727 L118.282889,10.7963636 C119.229798,10.9345455 119.60798,12.0981818 118.922889,12.7658182 L111.935253,19.576 L113.584707,29.1934545 C113.746162,30.1374545 112.755616,30.856 111.909071,30.4109091 L103.273434,25.8712727 L94.6363434,30.4123636 C93.789798,30.8574545 92.7992525,30.1374545 92.9607071,29.1934545 L94.6101616,19.576 L87.6225252,12.7658182 C86.9374343,12.0981818 87.3156162,10.9330909 88.2625252,10.7963636 L97.917798,9.39272727 L102.236343,0.643636364 C102.661071,-0.214545455 103.885798,-0.214545455 104.309071,0.643636364 L104.309071,0.643636364 Z" id="Shape-Copy-18" fill="#FFCB00"></path>
        <path d="M60.6727071,0.643636364 L64.9912525,9.39272727 L74.6465252,10.7963636 C75.5934343,10.9345455 75.9716162,12.0981818 75.2865252,12.7658182 L68.2988889,19.576 L69.9483434,29.1934545 C70.109798,30.1374545 69.1192525,30.856 68.2727071,30.4109091 L59.6370707,25.8712727 L50.9999798,30.4123636 C50.1534343,30.8574545 49.1628889,30.1374545 49.3243434,29.1934545 L50.973798,19.576 L43.9861616,12.7658182 C43.3010707,12.0981818 43.6792525,10.9330909 44.6261616,10.7963636 L54.2814343,9.39272727 L58.5999798,0.643636364 C59.0247071,-0.214545455 60.2494343,-0.214545455 60.6727071,0.643636364 L60.6727071,0.643636364 Z" id="Shape-Copy-17" fill="#FFCB00"></path>
        <path d="M147.945434,0.643636364 L152.26398,9.39272727 L161.919253,10.7963636 C162.866162,10.9345455 163.244343,12.0981818 162.559253,12.7658182 L155.571616,19.576 L157.221071,29.1934545 C157.382525,30.1374545 156.39198,30.856 155.545434,30.4109091 L146.909798,25.8712727 L138.272707,30.4123636 C137.426162,30.8574545 136.435616,30.1374545 136.597071,29.1934545 L138.246525,19.576 L131.258889,12.7658182 C130.573798,12.0981818 130.95198,10.9330909 131.898889,10.7963636 L141.554162,9.39272727 L145.872707,0.643636364 C146.297434,-0.214545455 147.522162,-0.214545455 147.945434,0.643636364 L147.945434,0.643636364 Z" id="Shape-Copy-19" fill="#FFCB00"></path>
        <path d="M191.581798,0.643636364 L195.900343,9.39272727 L205.555616,10.7963636 C206.502525,10.9345455 206.880707,12.0981818 206.195616,12.7658182 L199.20798,19.576 L200.857434,29.1934545 C201.018889,30.1374545 200.028343,30.856 199.181798,30.4109091 L190.546162,25.8712727 L181.909071,30.4123636 C181.062525,30.8574545 180.07198,30.1374545 180.233434,29.1934545 L181.882889,19.576 L174.895253,12.7658182 C174.210162,12.0981818 174.588343,10.9330909 175.535253,10.7963636 L185.190525,9.39272727 L189.509071,0.643636364 C189.933798,-0.214545455 191.158525,-0.214545455 191.581798,0.643636364 L191.581798,0.643636364 Z" id="Shape-Copy-20" fill="#EBEBEB"></path>
    </g>
</svg>
