<svg width="30" height="30" viewBox="0 0 30 30" xmlns="http://www.w3.org/2000/svg">
  <path d="M25.835 18c-1.32 4.615-5.598 8-10.683 8-6.137 0-11.11-4.924-11.11-11 0-6.075 4.973-11 11.11-11 3.45 0 6.534 1.557 8.57 4h-4.53c-1.116 0-2.02.895-2.02 2s.904 2 2.02 2h8.082c1.116 0 2.02-.895 2.02-2V2c0-1.105-.904-2-2.02-2-1.117 0-2.02.895-2.02 2v1.836C22.573 1.456 19.037 0 15.15 0 6.784 0 0 6.716 0 15c0 8.284 6.784 15 15.152 15 7.33 0 13.445-5.154 14.848-12h-4.165z" fill="#FFF" fill-rule="evenodd"/>
</svg>
