<svg width="30" height="30" viewBox="0 0 162 152" xmlns="http://www.w3.org/2000/svg" version="1">
    <g style="fill-rule:evenodd;fill:none">
        <path d="M12.6 152C1.5 152-3.1 144.2 2.2 134.5L71.3 8.2C76.6-1.5 85.2-1.5 90.5 8.2L159.6 134.5C164.9 144.1 160.2 152 149.2 152L12.6 152ZM71.8 49.6C71.8 45.2 75.4 41.6 79.8 41.6L81.5 41.6C85.9 41.6 89.5 45.2 89.5 49.6L89.5 96.9C89.5 101.4 85.9 104.9 81.5 104.9L79.8 104.9C75.4 104.9 71.8 101.4 71.8 96.9L71.8 49.6ZM74 120.6C74 124.3 76.9 127.2 80.6 127.2L81.4 127.2C85.1 127.2 88.1 124.3 88.1 120.6 88.1 116.9 85.1 113.9 81.5 113.9L81 113.9 80.6 113.9C76.9 113.9 74 116.9 74 120.6Z" fill="#FFF"/>
    </g>
</svg>
