<svg xmlns="http://www.w3.org/2000/svg" width="16" height="16" viewBox="0 0 16 16">
  <path d="M14.5,8 C13.529,8 13.5,9 12.75,9 C12.3391373,8.99201984 12.0079802,8.66086268 12,8.25 L12,5 C12,4.44771525 11.5522847,4 11,4 L7.75,4 C7.33913732,3.99201984 7.00798016,3.66086268 7,3.25 C7,2.5 8,2.471 8,1.5 C8,0.635 7.1,0 6,0 C4.9,0 4,0.635 4,1.5 C4,2.471 5,2.5 5,3.25 C4.99201984,3.66086268 4.66086268,3.99201984 4.25,4 L1,4 C0.44771525,4 1.52567436e-16,4.44771525 8.49320614e-17,5 L8.49320614e-17,7.25 C0.00798015866,7.66086268 0.339137321,7.99201984 0.75,8 C1.5,8 1.529,7 2.5,7 C3.365,7 4,7.9 4,9 C4,10.1 3.365,11 2.5,11 C1.529,11 1.5,10 0.75,10 C0.339137321,10.0079802 0.00798015866,10.3391373 0,10.75 L0,15 C4.1545134e-17,15.5522847 0.44771525,16 1,16 L4.25,16 C4.66086268,15.9920198 4.99201984,15.6608627 5,15.25 C5,14.5 4,14.471 4,13.5 C4,12.635 4.9,12 6,12 C7.1,12 8,12.635 8,13.5 C8,14.471 7,14.5 7,15.25 C7.00798016,15.6608627 7.33913732,15.9920198 7.75,16 L11,16 C11.5522847,16 12,15.5522847 12,15 L12,11.75 C12.0079802,11.3391373 12.3391373,11.0079802 12.75,11 C13.5,11 13.529,12 14.5,12 C15.365,12 16,11.1 16,10 C16,8.9 15.365,8 14.5,8 Z"/>
</svg>
