<svg width="68.5px" height="64px" viewBox="61 603 143 135" version="1.1" xmlns="http://www.w3.org/2000/svg" xmlns:xlink="http://www.w3.org/1999/xlink">
    <!-- Generator: Sketch 40.2 (33826) - http://www.bohemiancoding.com/sketch -->
    <desc>Created with Sketch.</desc>
    <defs></defs>
    <g id="Group-Copy-4" stroke="none" stroke-width="1" fill="none" fill-rule="evenodd" transform="translate(64.000000, 607.000000)" stroke-linecap="round" stroke-linejoin="round">
        <path d="M118.328889,58.6666667 L136.533333,58.6666667" id="Shape" stroke="#000000" stroke-width="6"></path>
        <path d="M110.364444,29.5822222 L126.065778,20.48" id="Shape" stroke="#000000" stroke-width="6"></path>
        <path d="M110.364444,88.7466667 L126.065778,97.8488889" id="Shape" stroke="#000000" stroke-width="6"></path>
        <path d="M40.0497778,72.8177778 L58.2542222,113.550222 C60.5297778,118.556444 58.2542222,124.472889 53.248,126.748444 L53.248,126.748444 C48.2417778,129.024 42.3253333,126.748444 40.0497778,121.742222 L18.2044444,72.5902222" id="Shape" stroke="#000000" stroke-width="6"></path>
        <path d="M91.0222222,104.675556 L45.5111111,72.8177778 L20.48,72.8177778 C9.10222222,72.8177778 0,63.7155556 0,52.3377778 L0,52.3377778 C0,40.96 9.10222222,31.8577778 20.48,31.8577778 L45.5111111,31.8577778 L91.0222222,0 L91.0222222,104.675556 L91.0222222,104.675556 Z" id="Shape" stroke="#000000" stroke-width="6"></path>
        <path d="M26.6666667,31.8577778 L26.6666667,72.8177778" id="Shape" stroke="#000000" stroke-width="6"></path>
    </g>
</svg>
