<svg xmlns="http://www.w3.org/2000/svg" width="16" height="16"><path d="M174.446 28.071a5.639 5.639 0 0 0 .479-3.983c0 .014.007.028.011.042l-.009-.026s-.1.288-.23.733c-.009-.059-.018-.119-.029-.178a6.442 6.442 0 0 0-.087-1.675 3.38 3.38 0 0 0-1.2-1.878.706.706 0 0 1 .055.046c-.041-.032-.065-.048-.065-.048l.041.221a2.691 2.691 0 0 0-.978-.9s.018.1.048.315a6.84 6.84 0 0 0-9.157.057 3.3 3.3 0 0 1 .209.282 4.205 4.205 0 0 1 1.026-.029 5.87 5.87 0 0 1 7.526.654c.058.058.114.117.169.177a2.281 2.281 0 0 0-1.034-.482 4.092 4.092 0 0 1 1.424 3.584 2.384 2.384 0 0 0-.547-.767 6.375 6.375 0 0 1-.106 2.966 1.727 1.727 0 0 0-.168-.54 4.465 4.465 0 0 1-.431 1.518 1.171 1.171 0 0 1-.766.861c-.125-.021-.04-.141-.063-.258a1.666 1.666 0 0 0-.423.321.763.763 0 0 1-.473.372 1.009 1.009 0 0 0 .176-.246 1.526 1.526 0 0 1-.724.27 3.176 3.176 0 0 1-1.991-.348.873.873 0 0 1 .547.031 2.279 2.279 0 0 0-.884-.242 2.876 2.876 0 0 1-.792-.627 2.81 2.81 0 0 0 2.127-.28 1.771 1.771 0 0 1 1.047-.525.252.252 0 0 0 .233-.438 1.356 1.356 0 0 0-1.367-.379 1.971 1.971 0 0 1-1.948.117 1.108 1.108 0 0 1-.756-1.051.581.581 0 0 1 .28-.479 1.354 1.354 0 0 1 .16.067s-.046-.07-.075-.1l.021-.006a3.648 3.648 0 0 1 .354.14.442.442 0 0 1 .166.126s.029-.018 0-.082a.451.451 0 0 0-.181-.178h.007a1.761 1.761 0 0 1 .209.1.944.944 0 0 0 .039-.423.523.523 0 0 0-.055-.227c-.03-.043.008-.063.055-.023a.585.585 0 0 0-.046-.1.111.111 0 0 1 .018-.037 7.132 7.132 0 0 1 1.126-.732.977.977 0 0 0 .248-.275.766.766 0 0 0 .175-.474.3.3 0 0 0-.231-.172 1 1 0 0 0-.333-.02l.019.009c-.168-.011-.4-.015-.7-.013a.734.734 0 0 1-.614-.339l-.063-.1a1.259 1.259 0 0 1-.06-.122 2.365 2.365 0 0 1 .806-1.223c.025-.021-.1.014-.074-.008a2.391 2.391 0 0 1 .234-.127.466.466 0 0 0-.387-.045.978.978 0 0 0-.338.117c.041-.043.175-.111.143-.1a2.11 2.11 0 0 0-.685.342.276.276 0 0 1 0-.067 1.153 1.153 0 0 0-.411.387.593.593 0 0 0 0-.082 1.506 1.506 0 0 0-.2.224 2.954 2.954 0 0 0-1.641.025 2.589 2.589 0 0 1-.558-.625c-.017-.026-.019.058-.034.031a1.991 1.991 0 0 1-.2-.7v-.067a.593.593 0 0 0-.175.2 1.24 1.24 0 0 0-.117.267c-.021.064-.036.1-.05.138-.005.011.009-.117 0-.107a.889.889 0 0 0-.106.2 1.021 1.021 0 0 0-.05.177.28.28 0 0 0-.008-.076 3.274 3.274 0 0 0-.14.476 2.781 2.781 0 0 0-.075.451 4.235 4.235 0 0 0 0 .669v.111a3.094 3.094 0 0 0-.322.544 7.273 7.273 0 0 0-.6 2.023 4.675 4.675 0 0 1 .344-.778v.016a6.993 6.993 0 0 0-.22 2.551 7.377 7.377 0 0 1 .132-.77 6.417 6.417 0 0 0 .914 2.9 5.935 5.935 0 0 0 1.633 1.848q.171.137.349.263a7.53 7.53 0 0 0 2.953 1.384 1.539 1.539 0 0 1-.571-.305 7.511 7.511 0 0 0 2.074.352.4.4 0 0 1-.329-.18s2.492.141 3.787-.881a1.378 1.378 0 0 0 .537-.7 5.166 5.166 0 0 0 1.217-.9 2.6 2.6 0 0 0 .856-1.714c0 .016-.006.031-.009.046a.739.739 0 0 0-.088-.494Z" transform="translate(-160 -18)" style="fill-rule:evenodd;fill:#4d4d4d"/></svg>