<!-- This Source Code Form is subject to the terms of the Mozilla Public
   - License, v. 2.0. If a copy of the MPL was not distributed with this
   - file, You can obtain one at http://mozilla.org/MPL/2.0/. -->
<svg width="24" height="24" viewBox="0 0 24 24" fill="none" xmlns="http://www.w3.org/2000/svg">
    <path fill-rule="evenodd" clip-rule="evenodd"
          d="M3.215 18.106l6.996-14.004c.737-1.475 2.841-1.475 3.578 0l6.996 14.004A2 2 0 0 1 18.995 21H5.005a2 2 0 0 1-1.79-2.894zM12 9a1 1 0 0 1 1 1v4a1 1 0 1 1-2 0v-4a1 1 0 0 1 1-1zm0 9a1 1 0 1 0 0-2 1 1 0 0 0 0 2z"
          fill="#0C0C0D" fill-opacity=".8"></path>
</svg>