<svg xmlns="http://www.w3.org/2000/svg" width="64" height="64" viewBox="0 0 64 64">
  <g class="two" fill="#0F1126">
    <path d="M19.8940731,58.1084489 C21.7441263,58.1084489 23.2433796,56.6091957 23.2433796,54.7591425 L23.2433796,50.8852459 C23.2433796,49.5257757 24.3454479,48.4237074 25.704918,48.4237074 L46.7692308,48.4237074 L46.7692308,27.6418663 C46.7692308,26.2823962 47.8712991,25.1803279 49.2307692,25.1803279 C50.5902394,25.1803279 51.6923077,26.2823962 51.6923077,27.6418663 L51.6923077,48.4237074 L60.5699874,48.4237074 C61.9294575,48.4237074 63.0315259,49.5257757 63.0315259,50.8852459 L63.0315259,54.7591425 C63.0315259,59.328136 59.328136,63.0315259 54.7591425,63.0315259 L19.8940731,63.0315259 C15.3250797,63.0315259 11.6216898,59.328136 11.6216898,54.7591425 L11.6216898,8.27238335 C11.6216898,6.42233018 10.1224365,4.92307692 8.27238335,4.92307692 L8.27238335,0 L45.074401,0 C49.64154,0 53.3467844,3.72955919 53.3467844,8.29950063 C53.3467844,9.65897078 52.2447161,10.7610391 50.8852459,10.7610391 C49.5257757,10.7610391 48.4237074,9.65897078 48.4237074,8.29950063 C48.4237074,6.44131722 46.9153653,4.92307692 45.074401,4.92307692 L8.27238335,4.92307692 C4.99033207,4.92307692 4.99033207,0 8.27238335,0 C11.6492047,0 14.5532078,2.02290049 15.8387683,4.92307692 C16.2926299,5.94697167 16.5447667,7.08021119 16.5447667,8.27238335 L16.5447667,54.7591425 C16.5447667,56.6091957 18.04402,58.1084489 19.8940731,58.1084489 Z M28.1664565,54.7591425 C28.1664565,55.9513147 27.9143197,57.0845542 27.4604581,58.1084489 L54.7591425,58.1084489 C56.6091957,58.1084489 58.1084489,56.6091957 58.1084489,54.7591425 L58.1084489,53.3467844 L28.1664565,53.3467844 L28.1664565,54.7591425 Z M0,8.27238335 C0,3.70338987 3.70338987,0 8.27238335,0 C12.8413768,0 16.5447667,3.70338987 16.5447667,8.27238335 L16.5447667,12.1462799 C16.5447667,13.5057501 15.4426984,14.6078184 14.0832282,14.6078184 L2.46153846,14.6078184 C1.10206831,14.6078184 0,13.5057501 0,12.1462799 L0,8.27238335 Z M11.6216898,8.27238335 C11.6216898,6.42233018 10.1224365,4.92307692 8.27238335,4.92307692 C6.42233018,4.92307692 4.92307692,6.42233018 4.92307692,8.27238335 L4.92307692,9.68474149 L11.6216898,9.68474149 L11.6216898,8.27238335 Z"/>
  </g>
  <g class="one" fill="#0F1126">
    <path d="M34.8232897,25.0561127 L53.8888572,6.02460502 C55.7069653,4.20649694 58.6536904,4.20649694 60.4717985,6.02460502 C62.2899066,7.8427131 62.2899066,10.7894382 60.4710201,12.608324 L41.4054688,31.6398145 C41.4434971,31.9487967 41.4627995,32.2619417 41.4627995,32.5778562 C41.4627995,34.5991381 40.6726077,36.5062882 39.2428452,37.9360507 C38.0966568,39.0822391 35.9578713,39.8205209 33.0131146,40.3439236 C31.6318082,40.5894378 30.1601819,40.7678562 28.6897481,40.8907421 C27.8078093,40.9644467 27.1191353,41.0034709 26.7182688,41.0180971 C26.0036799,41.0441699 25.4173685,40.4578586 25.4434414,39.7432697 C25.4580679,39.3423955 25.4970983,38.6537136 25.5708212,37.7717661 C25.6937375,36.301318 25.8722103,34.8296768 26.1178098,33.4483538 C26.641395,30.5035573 27.3799785,28.3647052 28.5261047,27.219045 C29.9549905,25.7890041 31.8623175,24.998739 33.8846507,24.998739 C34.2008176,24.998739 34.5141569,25.0180546 34.8232897,25.0561127 Z M40.5674473,28.998306 L58.731228,10.8669758 C59.5880455,10.0101582 59.5880455,8.62199308 58.731228,7.76517556 C57.8744105,6.90835804 56.4862453,6.90835804 55.6286494,7.76595325 L37.4665723,25.8955852 C38.1122563,26.2427822 38.7105475,26.6863956 39.2428452,27.2186933 C39.775853,27.7517011 40.2199955,28.3512111 40.5674473,28.998306 Z M28.4847491,38.4377547 C29.8850999,38.3207257 31.2842583,38.1510933 32.5823508,37.9203696 C35.0439902,37.4828364 36.8321785,36.8655763 37.5022746,36.1954802 C38.470472,35.2272828 39.001261,33.9462086 39.001261,32.5778562 C39.001261,31.2092236 38.4702739,29.9272631 37.5022746,28.9592638 C36.5338068,27.990796 35.2535892,27.4602774 33.8846507,27.4602774 C32.5154128,27.4602774 31.2345154,27.9909932 30.2668499,28.9594407 C29.5964817,29.6295365 28.9790117,31.4176582 28.5413389,33.8792577 C28.3105408,35.1773336 28.1408601,36.5764771 28.0238045,37.9768136 C28.0091398,38.152248 27.9959286,38.3194267 27.9840819,38.4774692 C28.142128,38.4656249 28.3093106,38.4524163 28.4847491,38.4377547 Z"/>
  </g>
</svg>
