<svg xmlns="http://www.w3.org/2000/svg" xmlns:xlink="http://www.w3.org/1999/xlink" width="24" height="24" viewBox="0 0 24 24">
  <defs>
    <path id="clipboard-a" d="M17.25,3.00375942 L15.675,3.00375942 C15.3201057,1.25601644 13.7834112,-2.86879895e-16 12,0 C10.2165888,2.86879895e-16 8.67989435,1.25601644 8.325,3.00375942 L6.75,3.00375942 C5.09314575,3.00375942 3.75,4.34690517 3.75,6.00375942 L3.75,21.0037594 C3.75,22.6606137 5.09314575,24.0037594 6.75,24.0037594 L17.25,24.0037594 C18.9068542,24.0037594 20.25,22.6606137 20.25,21.0037594 L20.25,6.00375942 C20.25,4.34690517 18.9068542,3.00375942 17.25,3.00375942 Z M17.25,13.5037594 C17.25,14.3321865 16.5784271,15.0037594 15.75,15.0037594 L8.25,15.0037594 C7.42157288,15.0037594 6.75,14.3321865 6.75,13.5037594 L6.75,7.50375942 L17.25,7.50375942 L17.25,13.5037594 Z M17.25,6.00375942 L6.75,6.00375942 L6.75,4.50375942 L8.325,4.50375942 C9.03790293,4.50390492 9.65241943,4.0022588 9.795,3.30375942 C10.0094028,2.25685177 10.9306134,1.50518155 11.99925,1.50518155 C13.0678866,1.50518155 13.9890972,2.25685177 14.2035,3.30375942 C14.3460806,4.0022588 14.9605971,4.50390492 15.6735,4.50375942 L17.25,4.50375942 L17.25,6.00375942 Z M12,3.00375942 C11.5857864,3.00375942 11.25,3.33954586 11.25,3.75375942 C11.25,4.16797298 11.5857864,4.50375942 12,4.50375942 C12.4142136,4.50375942 12.75,4.16797298 12.75,3.75375942 C12.75,3.33954586 12.4142136,3.00375942 12,3.00375942 Z M9,10.5037594 L15,10.5037594 C15.4142136,10.5037594 15.75,10.167973 15.75,9.75375942 C15.75,9.33954586 15.4142136,9.00375942 15,9.00375942 L9,9.00375942 C8.58578644,9.00375942 8.25,9.33954586 8.25,9.75375942 C8.25,10.167973 8.58578644,10.5037594 9,10.5037594 Z M9,13.5037594 L12,13.5037594 C12.4142136,13.5037594 12.75,13.167973 12.75,12.7537594 C12.75,12.3395459 12.4142136,12.0037594 12,12.0037594 L9,12.0037594 C8.58578644,12.0037594 8.25,12.3395459 8.25,12.7537594 C8.25,13.167973 8.58578644,13.5037594 9,13.5037594 Z"/>
  </defs>
  <g fill="none" fill-rule="evenodd">
    <rect width="24" height="24"/>
    <mask id="clipboard-b" fill="#fff">
      <use xlink:href="#clipboard-a"/>
    </mask>
    <use fill="#000" fill-rule="nonzero" xlink:href="#clipboard-a"/>
    <g fill="#0C0C0D" fill-opacity=".8" mask="url(#clipboard-b)">
      <rect width="24" height="24"/>
    </g>
  </g>
</svg>
