<svg xmlns="http://www.w3.org/2000/svg" xmlns:xlink="http://www.w3.org/1999/xlink" width="24" height="24" viewBox="0 0 24 24">
  <defs>
    <path id="info-a" d="M12,1.5 C17.7989899,1.5 22.5,6.20101013 22.5,12 C22.5,17.7989899 17.7989899,22.5 12,22.5 C6.20101013,22.5 1.5,17.7989899 1.5,12 C1.5,6.20101013 6.20101013,1.5 12,1.5 Z M12,6 C12.8284271,6 13.5,6.67157288 13.5,7.5 C13.5,8.32842712 12.8284271,9 12,9 C11.1715729,9 10.5,8.32842712 10.5,7.5 C10.5,6.67157288 11.1715729,6 12,6 Z M12,10.5 C12.8284271,10.5 13.5,11.1715729 13.5,12 L13.5,16.5 C13.5,17.3284271 12.8284271,18 12,18 C11.1715729,18 10.5,17.3284271 10.5,16.5 L10.5,12 C10.5,11.1715729 11.1715729,10.5 12,10.5 Z"/>
  </defs>
  <g fill="none" fill-rule="evenodd">
    <rect width="24" height="24"/>
    <mask id="info-b" fill="#fff">
      <use xlink:href="#info-a"/>
    </mask>
    <use fill="#000" xlink:href="#info-a"/>
    <g fill="#0C0C0D" fill-opacity=".8" mask="url(#info-b)">
      <rect width="24" height="24"/>
    </g>
  </g>
</svg>
