<?xml version="1.0" encoding="UTF-8"?>
<svg width="135px" height="135px" viewBox="0 0 135 135" version="1.1" xmlns="http://www.w3.org/2000/svg" xmlns:xlink="http://www.w3.org/1999/xlink">
    <!-- Generator: Sketch 41.2 (35397) - http://www.bohemiancoding.com/sketch -->
    <title>Group 7</title>
    <desc>Created with Sketch.</desc>
    <defs></defs>
    <g id="Page-1" stroke="none" stroke-width="1" fill="none" fill-rule="evenodd">
        <g id="Group-7" transform="translate(3.000000, 3.000000)">
            <g id="Page-1">
                <g id="Group-3" transform="translate(0.000000, 0.344615)" fill="#E5E4DF">
                    <path d="M63.8987487,0.202557265 C99.1906462,0.202557265 127.797552,28.8094632 127.797552,64.1013607 C127.797552,99.3894291 99.1906462,128.000164 63.8987487,128.000164 C28.6068513,128.000164 -5.47008547e-05,99.3894291 -5.47008547e-05,64.1013607 C-5.47008547e-05,28.8094632 28.6068513,0.202557265 63.8987487,0.202557265" id="Fill-1"></path>
                </g>
                <path d="M63.8987487,20.5115077 C88.1602188,20.5115077 107.829005,40.180294 107.829005,64.4417641 C107.829005,88.6994051 88.1602188,108.372021 63.8987487,108.372021 C39.6372786,108.372021 19.9684923,88.6994051 19.9684923,64.4417641 C19.9684923,40.180294 39.6372786,20.5115077 63.8987487,20.5115077" id="Fill-4" fill="#00B1FF"></path>
                <path d="M63.8987487,40.4798906 C77.1297915,40.4798906 87.8610051,51.2067282 87.8610051,64.442147 C87.8610051,77.6770188 77.1297915,88.4038564 63.8987487,88.4038564 C50.667706,88.4038564 39.9364923,77.6770188 39.9364923,64.442147 C39.9364923,51.2067282 50.667706,40.4798906 63.8987487,40.4798906" id="Fill-6" fill="#2B3B47"></path>
                <path d="M81.8702769,40.4798906 C87.3857641,40.4798906 91.8542769,44.9489504 91.8542769,50.4638906 C91.8542769,55.9793778 87.3857641,60.4484376 81.8702769,60.4484376 C76.3547897,60.4484376 71.8862769,55.9793778 71.8862769,50.4638906 C71.8862769,44.9489504 76.3547897,40.4798906 81.8702769,40.4798906" id="Fill-8" fill="#D4EDF7"></path>
                <path d="M87.1858325,58.8907214 C85.5683282,52.085388 81.0675419,46.4063453 75.0209094,43.2315077 C73.1003624,45.0486701 71.8860034,47.6086701 71.8860034,50.4640547 C71.8860034,55.9795419 76.3550632,60.4480547 81.8700034,60.4480547 C83.8310291,60.4480547 85.6443624,59.8649436 87.1858325,58.8907214" id="Fill-10" fill="#D6DBDE"></path>
            </g>
            <path d="M127.5,1.5 L1.16512754,127.834872" id="Line" stroke="#F03E3E" stroke-width="8" stroke-linecap="round"></path>
        </g>
    </g>
</svg>