<?xml version="1.0" encoding="UTF-8"?>
<svg width="84px" height="128px" viewBox="0 0 84 128" version="1.1" xmlns="http://www.w3.org/2000/svg" xmlns:xlink="http://www.w3.org/1999/xlink">
    <!-- Generator: Sketch 41.2 (35397) - http://www.bohemiancoding.com/sketch -->
    <title>Group 21 Copy</title>
    <desc>Created with Sketch.</desc>
    <defs>
        <polygon id="path-1" points="5.04681412 0.138290196 0.0899513725 0.138290196 0.0899513725 19.6627325 5.04681412 19.6627325 5.04681412 0.138290196"></polygon>
        <polygon id="path-3" points="5.06849882 0.138290196 0.112138039 0.138290196 0.112138039 19.6627325 5.06849882 19.6627325 5.06849882 0.138290196"></polygon>
        <polygon id="path-5" points="5.01960784e-05 115.701961 83.2138039 115.701961 83.2138039 0.15116549 5.01960784e-05 0.15116549"></polygon>
    </defs>
    <g id="Page-1" stroke="none" stroke-width="1" fill="none" fill-rule="evenodd">
        <g id="Group-21-Copy">
            <g id="Page-1">
                <g id="Group-3" transform="translate(19.074510, 0.112690)">
                    <mask id="mask-2" fill="white">
                        <use xlink:href="#path-1"></use>
                    </mask>
                    <g id="Clip-2"></g>
                    <path d="M2.56838275,19.6627325 C1.19953569,19.6627325 0.0899513725,18.5531482 0.0899513725,17.1843012 L0.0899513725,2.61664627 C0.0899513725,1.24779922 1.19953569,0.138214902 2.56838275,0.138214902 C3.9372298,0.138214902 5.04681412,1.24779922 5.04681412,2.61664627 L5.04681412,17.1843012 C5.04681412,18.5531482 3.9372298,19.6627325 2.56838275,19.6627325" id="Fill-1" fill="#00B89C" mask="url(#mask-2)"></path>
                </g>
                <g id="Group-6" transform="translate(58.980392, 0.112690)">
                    <mask id="mask-4" fill="white">
                        <use xlink:href="#path-3"></use>
                    </mask>
                    <g id="Clip-5"></g>
                    <path d="M2.59031843,19.6627325 C1.22172235,19.6627325 0.112138039,18.5531482 0.112138039,17.1843012 L0.112138039,2.61664627 C0.112138039,1.24779922 1.22172235,0.138214902 2.59031843,0.138214902 C3.95891451,0.138214902 5.06849882,1.24779922 5.06849882,2.61664627 L5.06849882,17.1843012 C5.06849882,18.5531482 3.95891451,19.6627325 2.59031843,19.6627325" id="Fill-4" fill="#00B89C" mask="url(#mask-4)"></path>
                </g>
                <g id="Group-9" transform="translate(0.000000, 12.159749)">
                    <mask id="mask-6" fill="white">
                        <use xlink:href="#path-5"></use>
                    </mask>
                    <g id="Clip-8"></g>
                    <path d="M60.5317522,43.8272753 C60.5317522,43.8272753 63.8436894,28.4183341 67.5318463,17.8864439 C67.7717835,17.2012675 67.8611325,16.593142 67.8202227,16.0542871 C68.0107169,14.8633851 68.111862,13.5577851 68.111862,12.1294557 C68.111862,7.06015373 62.2477051,0.15116549 58.3552502,0.15116549 C53.5258855,0.15116549 47.4810227,4.26398118 42.9919875,8.05880471 C42.1848345,8.74096941 41.0032188,8.72867137 40.2088659,8.03144784 C35.8945129,4.24415373 30.185211,0.15116549 24.7906384,0.15116549 C20.8981835,0.15116549 15.0335247,7.06015373 15.0335247,12.1294557 C15.0335247,15.5593537 15.6152973,18.2834949 16.6267482,20.3987576 C19.8312659,30.4156361 22.3137129,42.9920125 22.5232816,43.7956518 C22.531062,43.8255184 22.5212737,43.8370635 22.4996894,43.8594008 C16.169462,50.3392125 5.01960784e-05,105.713769 5.01960784e-05,105.713769 C5.01960784e-05,105.713769 7.3216502,115.702036 41.6070776,115.702036 C75.8852267,115.702036 83.2105914,105.717785 83.2138541,105.713769 C83.2110933,105.703479 66.3507325,49.6462557 60.5317522,43.8272753" id="Fill-7" fill="#00D1AE" mask="url(#mask-6)"></path>
                </g>
                <path d="M41.5717647,59.1325616 C28.2780863,59.1325616 22.2219294,57.1370165 21.9295373,57.0516831 C20.6144,56.6704439 21.0079373,51.90784 22.3288471,52.2900831 C22.3946039,52.3096596 29.0686745,54.1754478 41.5717647,54.1754478 C54.0372078,54.1754478 60.2871216,52.3212047 60.3491137,52.3028831 C61.651702,51.9050792 62.1825255,56.6355576 60.8759216,57.0391341 C60.601098,57.1252204 54.8887843,59.1325616 41.5717647,59.1325616" id="Fill-10" fill="#00B89C"></path>
                <path d="M31.3661741,77.2258635 C29.8796173,77.2258635 22.1273349,126.459683 22.1273349,126.459683 L25.9171388,126.829879 C25.9171388,126.829879 32.852731,77.2258635 31.3661741,77.2258635" id="Fill-12" fill="#00B89C"></path>
                <path d="M51.7792878,77.2258635 C53.2658447,77.2258635 61.0181271,126.459683 61.0181271,126.459683 L57.2283231,126.829879 C57.2283231,126.829879 50.292731,77.2258635 51.7792878,77.2258635" id="Fill-14" fill="#00B89C"></path>
                <polyline id="Fill-16" fill="#FFFFFF" points="57.3315263 127.675884 57.06624 125.390205 60.7943027 124.887743 61.1717773 127.861609"></polyline>
                <polyline id="Fill-18" fill="#FFFFFF" points="25.8127561 127.675884 26.0780424 125.390205 22.3499796 124.887743 21.9725051 127.861609"></polyline>
            </g>
        </g>
    </g>
</svg>