<?xml version="1.0" encoding="UTF-8"?>
<svg width="141px" height="128px" viewBox="0 0 141 128" version="1.1" xmlns="http://www.w3.org/2000/svg" xmlns:xlink="http://www.w3.org/1999/xlink">
    <!-- Generator: Sketch 41.2 (35397) - http://www.bohemiancoding.com/sketch -->
    <title>Page 1 Copy 3</title>
    <desc>Created with Sketch.</desc>
    <defs>
        <polygon id="path-1" points="19.3478862 8.92624945 19.3478862 0.27350547 0.196789497 0.27350547 0.196789497 8.92624945 19.3478862 8.92624945"></polygon>
        <polygon id="path-3" points="19.3478862 101.95172 19.3478862 0.27350547 0.19670547 0.27350547 0.19670547 101.95172 19.3478862 101.95172"></polygon>
        <polygon id="path-5" points="34.7084044 59.9387309 0 59.9387309 0 0.0523763676 69.4168088 0.0523763676 69.4168088 59.9387309 34.7084044 59.9387309"></polygon>
    </defs>
    <g id="Page-1" stroke="none" stroke-width="1" fill="none" fill-rule="evenodd">
        <g id="Page-1-Copy-3">
            <path d="M67.0898696,62.1941077 C68.3600665,62.1941077 69.3899484,61.1642258 69.3899484,59.8940289 L69.3899484,25.8348254 C69.3899484,14.1257663 78.9154451,4.60026958 90.6245042,4.60026958 C102.332723,4.60026958 111.85822,14.1257663 111.85822,25.8348254 L111.85822,57.4676306 C111.85822,58.7378276 112.888102,59.7677094 114.158298,59.7677094 C115.428775,59.7677094 116.458377,58.7378276 116.458377,57.4676306 L116.458377,25.8348254 C116.458377,11.5892937 104.869196,0.000112035011 90.6245042,0.000112035011 C76.3792525,0.000112035011 64.7897908,11.5892937 64.7897908,25.8348254 L64.7897908,59.8940289 C64.7897908,61.1642258 65.8196726,62.1941077 67.0898696,62.1941077" id="Fill-1" fill="#BFBCAF"></path>
            <path d="M54.2377453,42.9080648 C55.5079422,42.9080648 56.5378241,41.8781829 56.5378241,40.607986 L56.5378241,25.8344893 C56.5378241,14.1259904 66.0633208,4.60049365 77.7720998,4.60049365 C89.4805987,4.60049365 99.0060954,14.1259904 99.0060954,25.8344893 L99.0060954,40.607986 C99.0060954,41.8781829 100.035977,42.9080648 101.306174,42.9080648 C102.576651,42.9080648 103.606253,41.8781829 103.606253,40.607986 L103.606253,25.8344893 C103.606253,11.5897978 92.0170713,0.000336105033 77.7720998,0.000336105033 C63.5271282,0.000336105033 51.9376665,11.5897978 51.9376665,25.8344893 L51.9376665,40.607986 C51.9376665,41.8781829 52.9675484,42.9080648 54.2377453,42.9080648" id="Fill-3" fill="#D1CFC3"></path>
            <path d="M37.2700429,127.983475 L121.754524,127.983475 L121.754524,26.3052604 L37.2700429,26.3052604 C36.2289575,26.3052604 35.3850538,27.148884 35.3850538,28.1899694 L35.3850538,126.098486 C35.3850538,127.139571 36.2289575,127.983475 37.2700429,127.983475" id="Fill-5" fill="#E5E4DF"></path>
            <g id="Group-9" transform="translate(121.557987, 26.031615)">
                <mask id="mask-2" fill="white">
                    <use xlink:href="#path-1"></use>
                </mask>
                <g id="Clip-8"></g>
                <polygon id="Fill-7" fill="#D1CFC3" mask="url(#mask-2)" points="3.22005427 8.92624945 16.3245094 8.92624945 19.3480543 0.27350547 0.196789497 0.27350547"></polygon>
            </g>
            <g id="Group-12" transform="translate(121.557987, 26.031615)">
                <mask id="mask-4" fill="white">
                    <use xlink:href="#path-3"></use>
                </mask>
                <g id="Clip-11"></g>
                <path d="M19.3479702,0.27350547 L10.1370118,8.92624945 L0.19670547,0.27350547 L0.19670547,101.95172 L17.4629812,101.95172 C18.5040665,101.95172 19.3479702,101.108096 19.3479702,100.067011 L19.3479702,0.27350547 Z" id="Fill-10" fill="#BFBCAF" mask="url(#mask-4)"></path>
            </g>
            <path d="M27.1887685,96.9416823 C28.0828079,96.9416823 28.8079545,96.2168158 28.8079545,95.3224963 L28.8079545,71.3470039 C28.8079545,63.1045882 35.5132499,56.3992928 43.7556656,56.3992928 C51.9975212,56.3992928 58.7028166,63.1045882 58.7028166,71.3470039 L58.7028166,93.6145225 C58.7028166,94.5085619 59.4276832,95.2337085 60.3220026,95.2337085 C61.216042,95.2337085 61.9409085,94.5085619 61.9409085,93.6145225 L61.9409085,71.3470039 C61.9409085,61.3193103 53.7827991,53.1612009 43.7556656,53.1612009 C33.7276919,53.1612009 25.5695825,61.3193103 25.5695825,71.3470039 L25.5695825,95.3224963 C25.5695825,96.2168158 26.2947291,96.9416823 27.1887685,96.9416823" id="Fill-13" fill="#FF6E83"></path>
            <g id="Group-17" transform="translate(0.000000, 68.044744)">
                <mask id="mask-6" fill="white">
                    <use xlink:href="#path-5"></use>
                </mask>
                <g id="Clip-16"></g>
                <path d="M1.51490941,59.9387309 L69.4168088,59.9387309 L69.4168088,0.0523763676 L1.51490941,0.0523763676 C0.678287965,0.0523763676 -8.40262582e-05,0.730468271 -8.40262582e-05,1.56708972 L-8.40262582e-05,58.4237374 C-8.40262582e-05,59.2603589 0.678287965,59.9387309 1.51490941,59.9387309" id="Fill-15" fill="#FFA9BA" mask="url(#mask-6)"></path>
            </g>
            <polygon id="Fill-18" fill="#FFA9BA" points="71.8466801 75.0514136 82.3790915 75.0514136 84.8088508 68.0971204 69.4166407 68.0971204"></polygon>
            <path d="M84.8089908,68.0970643 L77.4059974,75.0513575 L69.4167807,68.0970643 L69.4167807,127.983419 L83.2939974,127.983419 C84.1306188,127.983419 84.8089908,127.305327 84.8089908,126.468705 L84.8089908,68.0970643 Z" id="Fill-20" fill="#FF6E83"></path>
            <path d="M47.2762258,83.9692884 C47.2762258,86.1777786 49.0665453,87.9678179 51.2747554,87.9678179 C53.4832455,87.9678179 55.273565,86.1777786 55.273565,83.9692884 C55.273565,81.7607982 53.4832455,79.9707589 51.2747554,79.9707589 C49.0665453,79.9707589 47.2762258,81.7607982 47.2762258,83.9692884" id="Fill-22" fill="#D32A2A"></path>
            <path d="M14.3631685,83.9692884 C14.3631685,86.1777786 16.153488,87.9678179 18.361698,87.9678179 C20.5701882,87.9678179 22.3605077,86.1777786 22.3605077,83.9692884 C22.3605077,81.7607982 20.5701882,79.9707589 18.361698,79.9707589 C16.153488,79.9707589 14.3631685,81.7607982 14.3631685,83.9692884" id="Fill-24" fill="#D32A2A"></path>
            <path d="M18.1417453,83.3655877 C19.0357847,83.3655877 19.7609313,82.6407212 19.7609313,81.7464018 L19.7609313,71.3467519 C19.7609313,63.1048963 26.4662267,56.3996009 34.7083624,56.3996009 C42.950498,56.3996009 49.6557934,63.1048963 49.6557934,71.3467519 L49.6557934,81.7464018 C49.6557934,82.6407212 50.38066,83.3655877 51.2749794,83.3655877 C52.1690188,83.3655877 52.8938853,82.6407212 52.8938853,81.7464018 L52.8938853,71.3467519 C52.8938853,61.3196184 44.7357759,53.161509 34.7083624,53.161509 C24.6806687,53.161509 16.5225593,61.3196184 16.5225593,71.3467519 L16.5225593,81.7464018 C16.5225593,82.6407212 17.2477059,83.3655877 18.1417453,83.3655877" id="Fill-26" fill="#FFD4DE"></path>
        </g>
    </g>
</svg>