<?xml version="1.0" encoding="UTF-8"?>
<svg width="128px" height="128px" viewBox="0 0 128 128" version="1.1" xmlns="http://www.w3.org/2000/svg" xmlns:xlink="http://www.w3.org/1999/xlink">
    <!-- Generator: Sketch 41.2 (35397) - http://www.bohemiancoding.com/sketch -->
    <title>Page 1 Copy 8</title>
    <desc>Created with Sketch.</desc>
    <defs>
        <polygon id="path-1" points="127.629136 127.741414 0 127.741414 0 0.11227798 127.629136 0.11227798 127.629136 127.741414"></polygon>
    </defs>
    <g id="Page-1" stroke="none" stroke-width="1" fill="none" fill-rule="evenodd">
        <g id="Page-1-Copy-8">
            <g id="Group-3" transform="translate(0.000000, 0.146360)">
                <mask id="mask-2" fill="white">
                    <use xlink:href="#path-1"></use>
                </mask>
                <g id="Clip-2"></g>
                <path d="M63.8145422,0.11227798 C28.5708412,0.11227798 -5.17171717e-05,28.6829123 -5.17171717e-05,63.9268719 C-5.17171717e-05,75.1836315 3.02385131,85.6995426 8.03033212,94.9414012 C14.4290392,106.752569 39.1216614,61.4964234 52.2911806,71.3594053 C65.4606998,81.2226457 21.0136695,113.337199 33.3629543,119.917692 C42.478623,124.774969 52.7662028,127.741466 63.8145422,127.741466 C99.0582432,127.741466 127.629136,99.1705729 127.629136,63.9268719 C127.629136,28.6829123 99.0582432,0.11227798 63.8145422,0.11227798" id="Fill-1" fill="#E5AA6E" mask="url(#mask-2)"></path>
            </g>
            <path d="M110.271922,75.2626036 C113.558032,80.3104582 111.82111,87.2674521 106.392359,90.8015451 C100.963349,94.335638 93.8985244,93.1086481 90.6124154,88.0607935 C87.3263063,83.012939 89.0634861,76.0559451 94.4922376,72.5218521 C99.9209891,68.9877592 106.985813,70.2147491 110.271922,75.2626036" id="Fill-4" fill="#FFD469"></path>
            <path d="M112.14367,39.0171152 C112.556891,45.0261333 107.653068,50.2575838 101.190491,50.7020929 C94.7279127,51.146602 89.1540945,46.6355717 88.7408743,40.6265535 C88.3276541,34.6175354 93.2314764,29.3858263 99.6940541,28.9415758 C106.156632,28.4970667 111.73045,33.008097 112.14367,39.0171152" id="Fill-6" fill="#0074A8"></path>
            <path d="M71.9669269,23.8238772 C72.3801471,29.8328954 66.3765592,35.1401115 58.55744,35.6777115 C50.7383208,36.2155701 44.064737,31.7800469 43.6515168,25.7710287 C43.2382966,19.7620105 49.2418844,14.4547943 57.0610036,13.9171943 C64.8801228,13.3795943 71.5537067,17.814859 71.9669269,23.8238772" id="Fill-8" fill="#FF473E"></path>
            <path d="M37.8346537,49.9276283 C38.2478739,55.9366465 33.3440517,61.168097 26.8814739,61.6126061 C20.4188962,62.0571152 14.845078,57.5460848 14.4318578,51.5370667 C14.0186376,45.5280485 18.9224598,40.2963394 25.3850376,39.8520889 C31.8476154,39.4075798 37.4214335,43.9186101 37.8346537,49.9276283" id="Fill-10" fill="#009B51"></path>
            <path d="M67.3143208,112.06294 C61.0650764,112.06294 55.9991208,107.521138 55.9991208,101.918617 C55.9991208,96.3160954 61.0650764,91.7745519 67.3143208,91.7745519 C73.5635653,91.7745519 78.6295208,96.3160954 78.6295208,101.918617 C78.6295208,107.521138 73.5635653,112.06294 67.3143208,112.06294" id="Fill-12" fill="#FFFFFF"></path>
        </g>
    </g>
</svg>