<svg width="112px" height="129px" viewBox="452 64 112 129" version="1.1" xmlns="http://www.w3.org/2000/svg" xmlns:xlink="http://www.w3.org/1999/xlink">
    <!-- Generator: Sketch 40.3 (33839) - http://www.bohemiancoding.com/sketch -->
    <desc>Created with Sketch.</desc>
    <defs></defs>
    <g id="Group-20" stroke="none" stroke-width="1" fill="none" fill-rule="evenodd" transform="translate(452.000000, 64.000000)">
        <path d="M44.5217391,72.3478261 L2.7826087,72.3478261 C1.2466087,72.3478261 0,71.1012174 0,69.5652174 L0,2.7826087 C0,1.2466087 1.2466087,0 2.7826087,0 L44.5217391,0 C46.0577391,0 47.3043478,1.2466087 47.3043478,2.7826087 L47.3043478,69.5652174 C47.3043478,71.1012174 46.0577391,72.3478261 44.5217391,72.3478261 L44.5217391,72.3478261 Z" id="Shape" fill="#43A6DD"></path>
        <path d="M44.5217391,128 L2.7826087,128 C1.2466087,128 0,126.753391 0,125.217391 L0,91.826087 C0,90.290087 1.2466087,89.0434783 2.7826087,89.0434783 L44.5217391,89.0434783 C46.0577391,89.0434783 47.3043478,90.290087 47.3043478,91.826087 L47.3043478,125.217391 C47.3043478,126.753391 46.0577391,128 44.5217391,128 L44.5217391,128 Z" id="Shape" fill="#EFD358"></path>
        <path d="M108.521739,38.9565217 L66.7826087,38.9565217 C65.2466087,38.9565217 64,37.709913 64,36.173913 L64,2.7826087 C64,1.2466087 65.2466087,0 66.7826087,0 L108.521739,0 C110.057739,0 111.304348,1.2466087 111.304348,2.7826087 L111.304348,36.173913 C111.304348,37.709913 110.057739,38.9565217 108.521739,38.9565217 L108.521739,38.9565217 Z" id="Shape" fill="#E86C60"></path>
        <path d="M108.521739,128 L66.7826087,128 C65.2466087,128 64,126.753391 64,125.217391 L64,58.4347826 C64,56.8987826 65.2466087,55.6521739 66.7826087,55.6521739 L108.521739,55.6521739 C110.057739,55.6521739 111.304348,56.8987826 111.304348,58.4347826 L111.304348,125.217391 C111.304348,126.753391 110.057739,128 108.521739,128 L108.521739,128 Z" id="Shape" fill="#B3B3B3"></path>
    </g>
</svg>
