<?xml version="1.0" encoding="UTF-8"?>
<svg width="122px" height="128px" viewBox="0 0 122 128" version="1.1" xmlns="http://www.w3.org/2000/svg" xmlns:xlink="http://www.w3.org/1999/xlink">
    <!-- Generator: Sketch 41.2 (35397) - http://www.bohemiancoding.com/sketch -->
    <title>Page 1</title>
    <desc>Created with Sketch.</desc>
    <defs>
        <polygon id="path-1" points="121.538555 0.0200391389 0.179275147 0.0200391389 0.179275147 121.52583 121.538555 121.52583 121.538555 0.0200391389"></polygon>
    </defs>
    <g id="Page-1" stroke="none" stroke-width="1" fill="none" fill-rule="evenodd">
        <g>
            <g id="Group-3" transform="translate(0.000000, 0.230450)">
                <mask id="mask-2" fill="white">
                    <use xlink:href="#path-1"></use>
                </mask>
                <g id="Clip-2"></g>
                <path d="M121.538555,60.7729221 C121.538555,94.3257049 94.3712438,121.52583 60.8587898,121.52583 C27.3463358,121.52583 0.179275147,94.3257049 0.179275147,60.7729221 C0.179275147,27.2201393 27.3463358,0.02001409 60.8587898,0.02001409 C94.3712438,0.02001409 121.538555,27.2201393 121.538555,60.7729221" id="Fill-1" fill="#E5E4DF" mask="url(#mask-2)"></path>
            </g>
            <path d="M17.7840845,127.578251 C17.9591765,127.51112 18.1280063,127.428208 18.2875679,127.326009 L45.7256579,113.580161 L16.1726873,93.8844431 L14.0946286,124.539817 C14.0628164,124.723676 14.0515444,124.908787 14.0570552,125.093398 L14.0545503,125.131472 L14.0608125,125.129969 C14.0981354,125.977876 14.5169534,126.797977 15.2771883,127.304467 C16.0366716,127.810956 16.9542137,127.881594 17.750018,127.588772 C17.750018,127.590776 17.75102,127.59278 17.75102,127.59278 L17.7840845,127.578251 Z" id="Fill-4" fill="#E5E4DF"></path>
            <path d="M70.8016595,70.7232313 C70.8016595,72.243701 69.5705049,73.4763585 68.0517886,73.4763585 C66.5333229,73.4763585 65.3021683,72.243701 65.3021683,70.7232313 C65.3021683,69.2027616 66.5333229,67.9701041 68.0517886,67.9701041 C69.5705049,67.9701041 70.8016595,69.2027616 70.8016595,70.7232313" id="Fill-6" fill="#2B3B47"></path>
            <path d="M81.3557479,70.7232313 C81.3557479,72.243701 80.1245933,73.4763585 78.6058771,73.4763585 C77.0874114,73.4763585 75.8562568,72.243701 75.8562568,70.7232313 C75.8562568,69.2027616 77.0874114,67.9701041 78.6058771,67.9701041 C80.1245933,67.9701041 81.3557479,69.2027616 81.3557479,70.7232313" id="Fill-8" fill="#2B3B47"></path>
            <path d="M91.9098364,70.7232313 C91.9098364,72.243701 90.6786818,73.4763585 89.1599656,73.4763585 C87.6414998,73.4763585 86.4103452,72.243701 86.4103452,70.7232313 C86.4103452,69.2027616 87.6414998,67.9701041 89.1599656,67.9701041 C90.6786818,67.9701041 91.9098364,69.2027616 91.9098364,70.7232313" id="Fill-10" fill="#2B3B47"></path>
            <path d="M102.361299,56.7138192 L19.0380587,56.7138192 C17.4857769,56.7138192 16.2270685,55.4553613 16.2270685,53.902829 C16.2270685,52.3502967 17.4857769,51.0918387 19.0380587,51.0918387 L102.361299,51.0918387 C103.913832,51.0918387 105.17254,52.3502967 105.17254,53.902829 C105.17254,55.4553613 103.913832,56.7138192 102.361299,56.7138192" id="Fill-12" fill="#2B3B47"></path>
            <path d="M55.7934215,73.5344971 L19.0381339,73.5344971 C17.4856016,73.5344971 16.2271436,72.2760391 16.2271436,70.7232564 C16.2271436,69.1707241 17.4856016,67.9122661 19.0381339,67.9122661 L55.7934215,67.9122661 C57.3459538,67.9122661 58.6044117,69.1707241 58.6044117,70.7232564 C58.6044117,72.2760391 57.3459538,73.5344971 55.7934215,73.5344971" id="Fill-14" fill="#2B3B47"></path>
        </g>
    </g>
</svg>