<svg width="134px" height="128px" viewBox="442 410 134 128" version="1.1" xmlns="http://www.w3.org/2000/svg" xmlns:xlink="http://www.w3.org/1999/xlink">
    <!-- Generator: Sketch 40.3 (33839) - http://www.bohemiancoding.com/sketch -->
    <desc>Created with Sketch.</desc>
    <defs></defs>
    <g id="ui-color-3_chat-33" stroke="none" stroke-width="1" fill="none" fill-rule="evenodd" transform="translate(442.000000, 410.000000)">
        <g id="Group">
            <path d="M133.818182,78.5454545 C133.818182,57.6930909 111.633455,40.7272727 84.3636364,40.7272727 C57.0938182,40.7272727 34.9090909,57.6930909 34.9090909,78.5454545 C34.9090909,99.3978182 57.0938182,116.363636 84.3636364,116.363636 C87.6189091,116.363636 90.7956364,116.107636 93.8763636,115.645091 L117.972364,127.691636 C118.382545,127.898182 118.827636,128 119.272727,128 C119.805091,128 120.334545,127.854545 120.802909,127.566545 C121.658182,127.034182 122.181818,126.100364 122.181818,125.090909 L122.181818,102.865455 C129.431273,96.2821818 133.818182,87.8021818 133.818182,78.5454545 L133.818182,78.5454545 Z" id="Shape" fill="#BADEFC"></path>
            <path d="M61.0909091,0 C27.4036364,0 0,22.1847273 0,49.4545455 C0,59.936 4.01745455,69.9287273 11.6363636,78.4290909 L11.6363636,107.636364 C11.6363636,108.645818 12.16,109.579636 13.0152727,110.112 C13.4836364,110.4 14.0130909,110.545455 14.5454545,110.545455 C14.9905455,110.545455 15.4356364,110.443636 15.8458182,110.24 L42.9876364,96.6690909 C48.9076364,98.1556364 54.9905455,98.9090909 61.0909091,98.9090909 C94.7781818,98.9090909 122.181818,76.7243636 122.181818,49.4545455 C122.181818,22.1847273 94.7781818,0 61.0909091,0 L61.0909091,0 Z" id="Shape" fill="#43A6DD"></path>
        </g>
    </g>
</svg>
