<svg width="143px" height="128px" viewBox="87 64 143 128" version="1.1" xmlns="http://www.w3.org/2000/svg" xmlns:xlink="http://www.w3.org/1999/xlink">
    <!-- Generator: Sketch 40.3 (33839) - http://www.bohemiancoding.com/sketch -->
    <desc>Created with Sketch.</desc>
    <defs></defs>
    <g id="ui-color-1_eye-ban-18" stroke="none" stroke-width="1" fill="none" fill-rule="evenodd" transform="translate(88.000000, 64.000000)">
        <g id="Group">
            <path d="M70.7364379,114.526316 C28.8417011,114.526316 1.58181053,67.6661221 0.443654737,65.67104 C-0.145145263,64.6397979 -0.148446316,63.3733389 0.437086316,62.3387958 C1.56867368,60.3437474 28.6278737,13.4736842 70.7364379,13.4736842 C112.631175,13.4736842 139.891032,60.3338779 141.029187,62.32896 C141.624589,63.3684547 141.621288,64.6447495 141.022619,65.6809432 C139.87456,67.6759916 112.414046,114.526316 70.7364379,114.526316 L70.7364379,114.526316 Z" id="Shape" fill="#E6E6E6"></path>
            <circle id="Oval" fill="#43A6DD" cx="70.7364379" cy="64" r="37.0526316"></circle>
            <ellipse id="Oval" fill="#444444" cx="70.7364379" cy="64" rx="20.2105263" ry="20.2105263"></ellipse>
            <circle id="Oval" fill="#FFFFFF" cx="55.5785432" cy="52.2105263" r="8.42105263"></circle>
            <path d="M10.1052632,128 C9.24341895,128 8.38157474,127.67104 7.72368842,127.013154 C6.40791579,125.697381 6.40791579,123.565777 7.72368842,122.250004 L128.986846,0.986846316 C130.302619,-0.328926316 132.434223,-0.328926316 133.749996,0.986846316 C135.065768,2.30261895 135.065768,4.43422316 133.749996,5.74999579 L12.4868379,127.013154 C11.8289516,127.67104 10.9671074,128 10.1052632,128 L10.1052632,128 Z" id="Shape" fill="#E86C60"></path>
        </g>
    </g>
</svg>
