<?xml version="1.0" encoding="UTF-8"?>
<svg width="127px" height="128px" viewBox="0 0 127 128" version="1.1" xmlns="http://www.w3.org/2000/svg" xmlns:xlink="http://www.w3.org/1999/xlink">
    <!-- Generator: Sketch 41.2 (35397) - http://www.bohemiancoding.com/sketch -->
    <title>Page 1</title>
    <desc>Created with Sketch.</desc>
    <defs>
        <polygon id="path-1" points="26.048 25.70675 26.048 0.217077792 0.132381865 0.217077792 0.132381865 25.70675 26.048 25.70675"></polygon>
    </defs>
    <g id="Wireframes" stroke="none" stroke-width="1" fill="none" fill-rule="evenodd">
        <g id="Page-1">
            <path d="M99.099225,20.4137 C99.099225,20.34495 92.188975,9.18095 92.188975,9.18095 L34.109225,9.18095 C34.040475,9.18095 26.732475,18.38645 26.732475,18.38645 L26.741225,119.7192 C26.741225,121.78645 36.282975,127.9852 62.915975,127.9852 C89.548725,127.9852 99.089725,121.78645 99.089975,119.7192 L99.099225,20.4137 Z" id="Fill-1" fill="#76DFFF"></path>
            <path d="M52.42535,7.962725 L73.40835,7.962725 C76.6266,7.962725 79.23735,9.928475 79.23735,12.351475 L79.23735,15.283475 C79.23735,17.706725 67.9096,29.925225 64.6911,29.925225 L61.1546,29.925225 C57.94035,29.925225 46.6086,17.706725 46.6086,15.283475 L46.6086,12.355225 C46.59635,9.931975 49.20685,7.962725 52.42535,7.962725" id="Fill-3" fill="#0096D1"></path>
            <path d="M63.807575,29.925225 L63.807575,56.305475 C63.807575,56.668975 63.512575,56.963975 63.149075,56.963975 C62.785575,56.963975 62.490575,56.668975 62.490575,56.305475 L62.490575,29.925225 L63.807575,29.925225 Z" id="Fill-5" fill="#00B1FF"></path>
            <path d="M69.6794,39.115625 C69.6794,40.157625 68.8349,41.002125 67.7929,41.002125 C66.7509,41.002125 65.9064,40.157625 65.9064,39.115625 C65.9064,38.073625 66.7509,37.229125 67.7929,37.229125 C68.8349,37.229125 69.6794,38.073625 69.6794,39.115625" id="Fill-7" fill="#FFFFFF"></path>
            <path d="M69.6794,47.352675 C69.6794,48.394675 68.8349,49.239175 67.7929,49.239175 C66.7509,49.239175 65.9064,48.394675 65.9064,47.352675 C65.9064,46.310675 66.7509,45.466175 67.7929,45.466175 C68.8349,45.466175 69.6794,46.310675 69.6794,47.352675" id="Fill-9" fill="#FFFFFF"></path>
            <path d="M69.6794,55.5897 C69.6794,56.6317 68.8349,57.4762 67.7929,57.4762 C66.7509,57.4762 65.9064,56.6317 65.9064,55.5897 C65.9064,54.5477 66.7509,53.7032 67.7929,53.7032 C68.8349,53.7032 69.6794,54.5477 69.6794,55.5897" id="Fill-11" fill="#FFFFFF"></path>
            <path d="M81.381575,2.530425 C68.581575,-0.835075 57.542075,-0.847325 44.742075,2.517925 C44.334325,2.625175 44.281075,8.550675 44.942325,10.968675 C45.046575,11.346925 45.422075,11.574175 45.781075,11.479925 C57.090575,8.506425 68.976825,8.506425 80.286075,11.480175 C80.646075,11.574675 81.019825,11.346925 81.124075,10.968675 C81.785575,8.550675 81.790325,2.637925 81.381575,2.530425" id="Fill-13" fill="#0074A8"></path>
            <path d="M23.186675,55.8229 C21.886425,57.12315 19.778675,57.12315 18.478425,55.8229 L2.820175,40.16465 C1.520175,38.8644 1.520175,36.75665 2.820175,35.4564 L24.889425,13.38715 C26.189675,12.0869 28.642175,26.3969 29.942425,27.69715 L47.585925,26.7154 C48.885925,28.01565 48.885925,30.12365 47.585925,31.42365 L23.186675,55.8229 Z" id="Fill-15" fill="#76DFFF"></path>
            <g id="Group-19" transform="translate(0.000000, 32.985250)" fill="#00B1FF">
                <path d="M25.74075,20.10625 C25.74075,20.10625 20.53425,17.935 14.05675,11.45775 C7.5795,4.9805 5.44475,0.38075 5.44475,0.38075 C5.33675,0.2755 5.19175,0.2175 5.041,0.2175 C4.91225,0.211 4.7345,0.28 4.62575,0.3935 L0.1635,4.99975 C-0.05975,5.22925 -0.05325,5.59575 0.176,5.818 C0.176,5.818 1.68625,9.619 8.897,16.8295 C16.10775,24.04025 20.4695,25.54175 20.4695,25.54175 C20.57825,25.64775 20.72325,25.70675 20.87475,25.70675 C21.05525,25.6595 21.1815,25.64225 21.29025,25.53075 L25.7525,20.92425 C25.97475,20.69475 25.96925,20.32925 25.74075,20.10625" id="Fill-17"></path>
            </g>
            <path d="M46.371525,21.443325 C46.371525,28.215575 40.881525,33.705575 34.109275,33.705575 C27.336775,33.705575 21.846775,28.215575 21.846775,21.443325 C21.846775,14.671075 27.336775,9.181075 34.109275,9.181075 C40.881525,9.181075 46.371525,14.671075 46.371525,21.443325" id="Fill-20" fill="#76DFFF"></path>
            <path d="M103.111425,55.8229 C104.411675,57.12315 106.519425,57.12315 107.819675,55.8229 L123.477925,40.16465 C124.777925,38.8644 124.777925,36.75665 123.477925,35.4564 L101.408675,13.38715 C100.108425,12.0869 97.655925,26.3969 96.355675,27.69715 L78.712175,26.7154 C77.412175,28.01565 77.412175,30.12365 78.712175,31.42365 L103.111425,55.8229 Z" id="Fill-22" fill="#76DFFF"></path>
            <g id="Group-26" transform="translate(100.250000, 32.985250)">
                <mask id="mask-2" fill="white">
                    <use xlink:href="#path-1"></use>
                </mask>
                <g id="Clip-25"></g>
                <path d="M0.30735,20.10625 C0.30735,20.10625 5.51385,17.935 11.99135,11.45775 C18.4686,4.9805 20.60335,0.38075 20.60335,0.38075 C20.71135,0.2755 20.85635,0.2175 21.0071,0.2175 C21.13585,0.211 21.3136,0.28 21.42235,0.3935 L25.8846,4.99975 C26.10785,5.22925 26.10135,5.59575 25.8721,5.818 C25.8721,5.818 24.36185,9.619 17.1511,16.8295 C9.94035,24.04025 5.5786,25.54175 5.5786,25.54175 C5.46985,25.64775 5.32485,25.70675 5.17335,25.70675 C4.99285,25.6595 4.86685,25.64225 4.75785,25.53075 L0.2956,20.92425 C0.07335,20.69475 0.07885,20.32925 0.30735,20.10625" id="Fill-24" fill="#00B1FF" mask="url(#mask-2)"></path>
            </g>
            <path d="M79.926575,21.443325 C79.926575,28.215575 85.416575,33.705575 92.188825,33.705575 C98.961325,33.705575 104.451325,28.215575 104.451325,21.443325 C104.451325,14.671075 98.961325,9.181075 92.188825,9.181075 C85.416575,9.181075 79.926575,14.671075 79.926575,21.443325" id="Fill-27" fill="#76DFFF"></path>
            <path d="M62.1508,28.401575 L45.38755,2.845825 C45.16905,2.509825 44.7168,2.417825 44.38155,2.636575 C44.38155,2.636575 44.38105,2.637075 44.37955,2.637825 C40.43655,5.276075 39.3323,10.595825 41.9083,14.579825 L54.9423,34.739075 C55.0483,34.900075 55.21305,35.012825 55.40205,35.051825 C55.4513,35.062075 55.50055,35.067575 55.55005,35.067575 C55.69055,35.067575 55.8293,35.026575 55.9483,34.948575 L61.5548,31.270575 C62.51155,30.642825 62.7783,29.358325 62.1508,28.401575" id="Fill-29" fill="#00B1FF"></path>
            <path d="M63.989425,28.401575 L80.752675,2.845825 C80.971175,2.509825 81.423425,2.417825 81.758675,2.636575 C81.758675,2.636575 81.759175,2.637075 81.760675,2.637825 C85.703675,5.276075 86.807925,10.595825 84.231925,14.579825 L71.197925,34.739075 C71.091925,34.900075 70.927175,35.012825 70.738175,35.051825 C70.688925,35.062075 70.639675,35.067575 70.590175,35.067575 C70.449675,35.067575 70.310925,35.026575 70.191925,34.948575 L64.585425,31.270575 C63.628675,30.642825 63.361925,29.358325 63.989425,28.401575" id="Fill-31" fill="#00B1FF"></path>
        </g>
    </g>
</svg>