<svg width="128px" height="129px" viewBox="794 63 128 129" version="1.1" xmlns="http://www.w3.org/2000/svg" xmlns:xlink="http://www.w3.org/1999/xlink">
    <!-- Generator: Sketch 40.3 (33839) - http://www.bohemiancoding.com/sketch -->
    <desc>Created with Sketch.</desc>
    <defs></defs>
    <g id="clothes-color_coat" stroke="none" stroke-width="1" fill="none" fill-rule="evenodd" transform="translate(794.000000, 64.000000)">
        <g id="Group">
            <path d="M122.434783,128 L5.56521739,128 C2.49043478,128 0,125.509565 0,122.434783 L0,22.2608696 C0,19.186087 2.49043478,16.6956522 5.56521739,16.6956522 L122.434783,16.6956522 C125.509565,16.6956522 128,19.186087 128,22.2608696 L128,122.434783 C128,125.509565 125.509565,128 122.434783,128 L122.434783,128 Z" id="Shape" fill="#C6A279"></path>
            <path d="M91.826087,52.8695652 L36.173913,52.8695652 C34.6351304,52.8695652 33.3913043,51.6257391 33.3913043,50.0869565 L33.3913043,2.7826087 C33.3913043,1.24382609 34.6351304,0 36.173913,0 L91.826087,0 C93.3648696,0 94.6086957,1.24382609 94.6086957,2.7826087 L94.6086957,50.0869565 C94.6086957,51.6257391 93.3648696,52.8695652 91.826087,52.8695652 L91.826087,52.8695652 Z" id="Shape" fill="#5E4027"></path>
            <path d="M38.6309565,1.472 C38.1245217,0.528695652 37.2201739,-0.0500869565 36.0542609,0.0027826087 C34.9857391,0.0500869565 34.0368696,0.704 33.6166957,1.68626087 L16.9210435,40.6427826 C16.4090435,41.8365217 16.7902609,43.2250435 17.842087,43.9874783 L53.042087,69.5874783 L64,49.0406957 L38.6309565,1.472 L38.6309565,1.472 Z" id="Shape" fill="#87613E"></path>
            <path d="M111.078957,40.6427826 L94.3833043,1.68626087 C93.9631304,0.701217391 93.0142609,0.0473043478 91.9457391,0.0027826087 C90.8076522,-0.0417391304 89.8754783,0.531478261 89.3690435,1.472 L44.8473043,84.9502609 C44.237913,86.093913 44.4994783,87.5074783 45.4789565,88.3617391 C45.9993043,88.8153043 46.6532174,89.0434783 47.3043478,89.0434783 C47.8775652,89.0434783 48.4507826,88.8681739 48.9405217,88.512 L110.157913,43.9902609 C111.209739,43.2250435 111.590957,41.8365217 111.078957,40.6427826 L111.078957,40.6427826 Z" id="Shape" fill="#A67C52"></path>
            <path d="M44.5217391,128 L44.5217391,86.2608696 C44.5217391,84.722087 45.7655652,83.4782609 47.3043478,83.4782609 C48.8431304,83.4782609 50.0869565,84.722087 50.0869565,86.2608696 L50.0869565,128 L44.5217391,128 L44.5217391,128 Z" id="Shape" fill="#A67C52"></path>
            <ellipse id="Oval" fill="#5E4027" cx="64" cy="105.73913" rx="5.56521739" ry="5.56521739"></ellipse>
        </g>
    </g>
</svg>
