<?xml version="1.0" encoding="UTF-8"?>
<svg width="120px" height="128px" viewBox="0 0 120 128" version="1.1" xmlns="http://www.w3.org/2000/svg" xmlns:xlink="http://www.w3.org/1999/xlink">
    <!-- Generator: Sketch 41.2 (35397) - http://www.bohemiancoding.com/sketch -->
    <title>Page 1</title>
    <desc>Created with Sketch.</desc>
    <defs>
        <polygon id="path-1" points="112.650209 127.738137 112.650209 0.0650732106 0.222128425 0.0650732106 0.222128425 127.738137 112.650209 127.738137"></polygon>
        <polygon id="path-3" points="0 127.738241 119.979452 127.738241 119.979452 0.0649161554 0 0.0649161554"></polygon>
    </defs>
    <g id="Page-1" stroke="none" stroke-width="1" fill="none" fill-rule="evenodd">
        <g>
            <polygon id="Fill-1" fill="#96A9B2" points="0 54.6207673 0 120.867704 51.8509939 124.559287 51.8509939 54.6207673"></polygon>
            <g id="Group-20" transform="translate(0.000000, 0.196843)">
                <g id="Group-4" transform="translate(7.329243, 0.000000)">
                    <mask id="mask-2" fill="white">
                        <use xlink:href="#path-1"></use>
                    </mask>
                    <g id="Clip-3"></g>
                    <path d="M110.384844,20.8018585 L110.027282,20.8018585 L97.0440507,9.58759264 L97.0440507,15.6711264 L97.0469301,20.8018585 L95.6046397,20.8018585 L91.9499648,8.00054969 L91.9499648,2.33033292 C91.9499648,1.07912638 90.9356499,0.0650732106 89.6844434,0.0650732106 L7.73355583,0.0650732106 L7.77857832,120.186922 L0.222128425,127.738137 L97.1097521,127.738137 L105.098889,127.738137 C109.269229,127.738137 112.650366,124.357261 112.650366,120.186922 L112.650366,23.06738 C112.650366,21.8161734 111.636051,20.8018585 110.384844,20.8018585" id="Fill-2" fill="#E5E4DF" mask="url(#mask-2)"></path>
                </g>
                <mask id="mask-4" fill="white">
                    <use xlink:href="#path-3"></use>
                </mask>
                <g id="Clip-6"></g>
                <polygon id="Fill-5" fill="#BFBCAF" mask="url(#mask-4)" points="28.56782 74.812728 69.4958855 74.812728 69.4958855 70.2819468 28.56782 70.2819468"></polygon>
                <path d="M15.1028221,120.186817 C15.1028221,124.357418 11.7219468,127.738294 7.5513456,127.738294 C3.38074438,127.738294 -0.000130879346,124.357418 -0.000130879346,120.186817 C-0.000130879346,116.016216 3.38074438,112.635341 7.5513456,112.635341 C11.7219468,112.635341 15.1028221,116.016216 15.1028221,120.186817" id="Fill-7" fill="#96A9B2" mask="url(#mask-4)"></path>
                <path d="M89.7346487,18.6938634 L30.8334462,18.6938634 C29.5822397,18.6938634 28.5679247,19.7081783 28.5679247,20.9593849 L28.5679247,30.1782642 L28.583892,30.1782642 C28.6660843,31.3546078 29.6364237,32.2864687 30.8334462,32.2864687 L89.7346487,32.2864687 C90.9316712,32.2864687 91.9020106,31.3546078 91.9839411,30.1782642 L91.9999084,30.1782642 L91.9999084,20.9593849 C91.9999084,19.7081783 90.9858552,18.6938634 89.7346487,18.6938634" id="Fill-8" fill="#597B91" mask="url(#mask-4)"></path>
                <path d="M30.7800998,63.4856442 L67.2993636,63.4856442 C68.5212532,63.4856442 69.5114863,62.4951493 69.5114863,61.2735215 L69.5114863,56.6362045 C69.5114863,55.4143149 68.5212532,54.42382 67.2993636,54.42382 L30.7800998,54.42382 C29.5582102,54.42382 28.5679771,55.4143149 28.5679771,56.6362045 L28.5679771,61.2735215 C28.5679771,62.4951493 29.5582102,63.4856442 30.7800998,63.4856442" id="Fill-9" fill="#597B91" mask="url(#mask-4)"></path>
                <polygon id="Fill-10" fill="#BFBCAF" mask="url(#mask-4)" points="28.5832638 86.1398119 69.5113292 86.1398119 69.5113292 81.6090307 28.5832638 81.6090307"></polygon>
                <polygon id="Fill-11" fill="#BFBCAF" mask="url(#mask-4)" points="28.5832638 97.4668957 69.5113292 97.4668957 69.5113292 92.9361145 28.5832638 92.9361145"></polygon>
                <polygon id="Fill-12" fill="#BFBCAF" mask="url(#mask-4)" points="28.5832638 108.794241 69.5113292 108.794241 69.5113292 104.26346 28.5832638 104.26346"></polygon>
                <polygon id="Fill-13" fill="#BFBCAF" mask="url(#mask-4)" points="76.3078937 108.794241 106.371141 108.794241 106.371141 104.26346 76.3078937 104.26346"></polygon>
                <polygon id="Fill-14" fill="#597B91" mask="url(#mask-4)" points="104.101772 54.4239509 78.5674732 54.4239509 76.3077104 56.6889489 76.3077104 95.2015051 78.5674732 97.4670266 104.101772 97.4670266 106.37122 95.2015051 106.37122 56.6889489"></polygon>
                <path d="M80.8386748,56.6893677 C80.8386748,57.9405742 79.8243599,58.9548892 78.5731534,58.9548892 C77.3222086,58.9548892 76.3078937,57.9405742 76.3078937,56.6893677 C76.3078937,55.4381611 77.3222086,54.4238462 78.5731534,54.4238462 C79.8243599,54.4238462 80.8386748,55.4381611 80.8386748,56.6893677" id="Fill-15" fill="#597B91" mask="url(#mask-4)"></path>
                <path d="M106.371167,56.6893677 C106.371167,57.9405742 105.356852,58.9548892 104.105646,58.9548892 C102.854701,58.9548892 101.840386,57.9405742 101.840386,56.6893677 C101.840386,55.4381611 102.854701,54.4238462 104.105646,54.4238462 C105.356852,54.4238462 106.371167,55.4381611 106.371167,56.6893677" id="Fill-16" fill="#597B91" mask="url(#mask-4)"></path>
                <path d="M80.8386748,95.2015836 C80.8386748,96.4527902 79.8243599,97.4671051 78.5731534,97.4671051 C77.3222086,97.4671051 76.3078937,96.4527902 76.3078937,95.2015836 C76.3078937,93.9503771 77.3222086,92.9360622 78.5731534,92.9360622 C79.8243599,92.9360622 80.8386748,93.9503771 80.8386748,95.2015836" id="Fill-17" fill="#597B91" mask="url(#mask-4)"></path>
                <path d="M106.371167,95.2015836 C106.371167,96.4527902 105.356852,97.4671051 104.105646,97.4671051 C102.854701,97.4671051 101.840386,96.4527902 101.840386,95.2015836 C101.840386,93.9503771 102.854701,92.9360622 104.105646,92.9360622 C105.356852,92.9360622 106.371167,93.9503771 106.371167,95.2015836" id="Fill-18" fill="#597B91" mask="url(#mask-4)"></path>
                <polygon id="Fill-19" fill="#BFBCAF" mask="url(#mask-4)" points="119.735257 22.0511804 98.742472 22.0511804 98.742472 0.89688998 119.280844 21.4352622"></polygon>
            </g>
        </g>
    </g>
</svg>