<?xml version="1.0" encoding="UTF-8"?>
<svg width="128px" height="128px" viewBox="0 0 128 128" version="1.1" xmlns="http://www.w3.org/2000/svg" xmlns:xlink="http://www.w3.org/1999/xlink">
    <!-- Generator: Sketch 42 (36781) - http://www.bohemiancoding.com/sketch -->
    <title>Group 47</title>
    <desc>Created with Sketch.</desc>
    <defs></defs>
    <g id="Page-1" stroke="none" stroke-width="1" fill="none" fill-rule="evenodd">
        <g id="Group-47">
            <path d="M38.2415028,30.9364129 L0.487203239,118.338735 C-1.70512065,123.966865 3.89164049,129.493058 9.52338138,127.260542 L95.9194947,89.8192516" id="Fill-1" fill="#FFB636"></path>
            <path d="M2.26743968,125.92849 C11.277966,114.184232 54.2952939,69.9091355 67.543553,60.8505548 L49.9850105,42.9251355 C34.3252211,65.0714581 19.1826138,87.5764903 4.25869474,110.220361 C4.00114008,110.611071 3.74488097,111.002039 3.48732632,111.392748 L0.487099595,118.338813 C-0.647021862,121.250039 0.305982186,124.131329 2.26743968,125.92849" id="Fill-3" fill="#FFD469"></path>
            <path d="M76.7011239,50.7961806 C92.7280713,66.7585032 101.494257,83.9081806 96.2802008,89.1006968 C91.0666623,94.2932129 73.8478121,85.5626323 57.8208648,69.6000516 C41.7939174,53.637729 33.0279903,36.4883097 38.2415287,31.2957935 C43.4550672,26.1030194 60.6741765,34.8338581 76.7011239,50.7961806" id="Fill-5" fill="#A06C33"></path>
            <path d="M19.0102283,39.2490323 C19.0102283,41.772129 16.9565279,43.8178065 14.4232162,43.8178065 C11.8899045,43.8178065 9.83594494,41.772129 9.83594494,39.2490323 C9.83594494,36.7259355 11.8899045,34.6805161 14.4232162,34.6805161 C16.9565279,34.6805161 19.0102283,36.7259355 19.0102283,39.2490323" id="Fill-7" fill="#FF6E83"></path>
            <path d="M38.1506591,82.5738839 C38.1506591,84.1253677 36.8877603,85.3829161 35.3302543,85.3829161 C33.7724891,85.3829161 32.5095903,84.1253677 32.5095903,82.5738839 C32.5095903,81.0224 33.7724891,79.7645935 35.3302543,79.7645935 C36.8877603,79.7645935 38.1506591,81.0224 38.1506591,82.5738839" id="Fill-9" fill="#F8F9AA"></path>
            <path d="M127.90229,53.0481806 C127.90229,55.2745032 126.090079,57.0796645 123.854484,57.0796645 C121.618889,57.0796645 119.806679,55.2745032 119.806679,53.0481806 C119.806679,50.8216 121.618889,49.0166968 123.854484,49.0166968 C126.090079,49.0166968 127.90229,50.8216 127.90229,53.0481806" id="Fill-11" fill="#FFB636"></path>
            <path d="M104.91875,110.762658 C104.91875,112.989239 103.106539,114.794142 100.871203,114.794142 C98.6356081,114.794142 96.8233976,112.989239 96.8233976,110.762658 C96.8233976,108.536077 98.6356081,106.731174 100.871203,106.731174 C103.106539,106.731174 104.91875,108.536077 104.91875,110.762658" id="Fill-13" fill="#FFB636"></path>
            <path d="M110.502504,14.2392258 C110.502504,15.7907097 109.239864,17.0482581 107.682099,17.0482581 C106.124593,17.0482581 104.861435,15.7907097 104.861435,14.2392258 C104.861435,12.6877419 106.124593,11.4301935 107.682099,11.4301935 C109.239864,11.4301935 110.502504,12.6877419 110.502504,14.2392258" id="Fill-15" fill="#59CAFC"></path>
            <path d="M12.6564794,3.91765161 C12.6564794,5.46913548 11.3935806,6.72668387 9.83607449,6.72668387 C8.27830931,6.72668387 7.01541053,5.46913548 7.01541053,3.91765161 C7.01541053,2.36616774 8.27830931,1.10861935 9.83607449,1.10861935 C11.3935806,1.10861935 12.6564794,2.36616774 12.6564794,3.91765161" id="Fill-17" fill="#59CAFC"></path>
            <path d="M106.303611,39.2490323 C106.303611,42.163871 103.930947,44.5272258 101.004049,44.5272258 C98.0774089,44.5272258 95.7047449,42.163871 95.7047449,39.2490323 C95.7047449,36.3341935 98.0774089,33.9710968 101.004049,33.9710968 C103.930947,33.9710968 106.303611,36.3341935 106.303611,39.2490323" id="Fill-19" fill="#FF6E83"></path>
            <path d="M58.9780729,105.484671 C58.9780729,108.39951 56.6054089,110.762606 53.6785101,110.762606 C50.7518704,110.762606 48.3792065,108.39951 48.3792065,105.484671 C48.3792065,102.569574 50.7518704,100.206735 53.6785101,100.206735 C56.6054089,100.206735 58.9780729,102.569574 58.9780729,105.484671" id="Fill-21" fill="#FF6E83"></path>
            <path d="M80.3369066,14.1466946 C83.0698172,14.5490401 84.8157742,16.3315278 84.6040792,17.7571892 C84.3924583,19.1832686 82.2035681,20.3862074 79.4704716,19.9838345 C77.9630994,19.7619156 76.5605038,20.7990541 76.3376864,22.3003481 C76.1148691,23.8016421 77.1562065,25.1985821 78.6635786,25.420501 C84.1375938,26.2263984 89.3503462,23.3616489 90.0627373,18.5609577 C90.7755254,13.7606825 86.6177523,9.51591626 81.1437995,8.71002801 C79.6364274,8.48810913 78.2338317,9.5252476 78.0110144,11.0265416 C77.788197,12.5278356 78.8295344,13.9247757 80.3369066,14.1466946 Z" id="Stroke-23" fill="#BEA4FF" fill-rule="nonzero"></path>
            <path d="M77.7971436,31.2574087 C75.064233,30.8550631 73.318276,29.0725754 73.529971,27.646914 C73.7415919,26.2208347 75.9304821,25.0178958 78.6635786,25.4202688 C80.1709508,25.6421876 81.5735464,24.6050492 81.7963638,23.1037552 C82.0191811,21.6024611 80.9778437,20.2055211 79.4704716,19.9836022 C73.9964565,19.1777048 68.783704,22.0424543 68.0713129,26.8431456 C67.3585248,31.6434207 71.5162979,35.888187 76.9902507,36.6940752 C78.4976228,36.9159941 79.9002185,35.8788556 80.1230358,34.3775616 C80.3458532,32.8762676 79.3045158,31.4793275 77.7971436,31.2574087 Z" id="Stroke-25" fill="#BEA4FF" fill-rule="nonzero"></path>
            <path d="M76.9915203,36.6846042 C79.7244309,37.0869498 81.470388,38.8694375 81.2586929,40.2950989 C81.0470826,41.7211074 78.8580147,42.9241179 76.1251103,42.5217478 C74.6177402,42.2998152 73.215135,43.3369409 72.9923039,44.8382329 C72.7694728,46.3395249 73.8107974,47.7364744 75.3181675,47.958407 C80.7919976,48.7643281 86.0049654,45.8995223 86.7173511,41.0988674 C87.4301391,36.2985922 83.2723661,32.0538259 77.7984133,31.2479377 C76.2910412,31.0260188 74.8884455,32.0631573 74.6656281,33.5644513 C74.4428108,35.0657453 75.4841482,36.4626854 76.9915203,36.6846042 Z" id="Stroke-27" fill="#BEA4FF" fill-rule="nonzero"></path>
            <path d="M74.4515232,53.795322 C71.718742,53.3929701 69.9726451,51.610388 70.1843257,50.1848237 C70.395938,48.7588021 72.5850425,47.5557977 75.3181924,47.9581784 C76.8255645,48.1800973 78.2281602,47.1429589 78.4509775,45.6416648 C78.6737949,44.1403708 77.6324575,42.7434308 76.1250853,42.5215119 C70.6510457,41.7156109 65.4380585,44.5803654 64.7256675,49.3810552 C64.0128886,54.1812688 68.1708073,58.4260686 73.6445804,59.2319812 C75.1519505,59.4539138 76.5545557,58.4167881 76.7773868,56.9154961 C77.0002179,55.4142041 75.9588933,54.0172546 74.4515232,53.795322 Z" id="Stroke-29" fill="#BEA4FF" fill-rule="nonzero"></path>
            <path d="M82.8291792,77.0451918 C88.8045362,72.2402569 94.5782914,70.1796634 100.318612,70.2662036 C104.786217,70.3335566 108.999833,71.6465632 113.655139,74.0468489 C115.040571,74.7611807 119.08742,77.0704792 119.714522,77.3930463 C121.266344,78.1912675 123.174049,77.5854264 123.975502,76.0398623 C124.776955,74.4942982 124.168661,72.5942847 122.61684,71.7960634 C122.152078,71.5570004 118.108782,69.2497294 116.56291,68.4526744 C111.112243,65.6422988 106.008459,64.0519064 100.414339,63.9675703 C93.1675896,63.8583194 85.9616775,66.4300348 78.8559641,72.1439179 C77.4970351,73.2366669 77.28484,75.2197025 78.3820131,76.5731519 C79.4791862,77.9266013 81.4702503,78.1379408 82.8291792,77.0451918 Z" id="Stroke-31" fill="#FF6E83" fill-rule="nonzero"></path>
            <path d="M54.0610255,37.768384 C54.3829428,37.1401033 56.0544876,34.1240975 56.4990639,33.278309 C59.3039792,27.9420696 60.6745336,23.5040505 60.3296083,18.6253196 C59.8757673,12.2060517 56.2543083,6.26026022 49.0175223,0.862110523 C47.6738618,-0.14016871 45.7688124,0.132183323 44.7624753,1.47042581 C43.7561383,2.80866831 44.029593,4.70603605 45.3732534,5.70831528 C51.2699512,10.1068503 53.9434041,14.4961845 54.2654009,19.0506073 C54.5141052,22.5683586 53.4421543,26.0394638 51.1132464,30.4701181 C50.7162399,31.2254072 49.0238986,34.2789365 48.6461227,35.0162354 C47.883061,36.5054901 48.4766446,38.3288591 49.9719287,39.0888439 C51.4672128,39.8488288 53.2979638,39.2576387 54.0610255,37.768384 Z" id="Stroke-33" fill="#59CAFC" fill-rule="nonzero"></path>
        </g>
    </g>
</svg>