<svg width="128px" height="128px" viewBox="794 410 128 128" version="1.1" xmlns="http://www.w3.org/2000/svg" xmlns:xlink="http://www.w3.org/1999/xlink">
    <!-- Generator: Sketch 40.3 (33839) - http://www.bohemiancoding.com/sketch -->
    <desc>Created with Sketch.</desc>
    <defs></defs>
    <g id="weather-color_moon-stars" stroke="none" stroke-width="1" fill="none" fill-rule="evenodd" transform="translate(794.000000, 410.000000)">
        <g id="Group">
            <path d="M114.032609,82.2730977 C113.32337,81.5679346 112.293478,81.2989128 111.331522,81.5557064 C106.660326,82.8315217 101.970109,83.4782609 97.3913043,83.4782609 C68.2391304,83.4782609 44.5217391,59.7608696 44.5217391,30.6086957 C44.5217391,26.0258151 45.1684783,21.3355979 46.445652,16.6671196 C46.7092391,15.7038044 46.4347506,14.6725543 45.7282607,13.9660327 C45.0244563,13.2608696 43.9891303,12.9904893 43.0271738,13.2486414 C17.6929347,20.1684783 0,43.3274457 0,69.5652174 C0,101.786685 26.2146738,128 58.4347826,128 C84.673913,128 107.831522,110.307065 114.75,84.9741849 C115.013587,84.009511 114.73913,82.9796196 114.032609,82.2730977 L114.032609,82.2730977 Z" id="Shape" fill="#EFD358"></path>
            <path d="M91.826087,11.1304348 C87.222826,11.1304348 83.4782609,7.38586963 83.4782609,2.7826087 C83.4782609,1.2459239 82.2336957,0 80.6956522,0 C79.1576086,0 77.9130435,1.2459239 77.9130435,2.7826087 C77.9130435,7.38586963 74.1684783,11.1304348 69.5652174,11.1304348 C68.0271738,11.1304348 66.7826087,12.3763587 66.7826087,13.9130435 C66.7826087,15.4497283 68.0271738,16.6956522 69.5652174,16.6956522 C74.1684783,16.6956522 77.9130435,20.4402173 77.9130435,25.0434783 C77.9130435,26.5801631 79.1576086,27.826087 80.6956522,27.826087 C82.2336957,27.826087 83.4782609,26.5801631 83.4782609,25.0434783 C83.4782609,20.4402173 87.222826,16.6956522 91.826087,16.6956522 C93.3641305,16.6956522 94.6086957,15.4497283 94.6086957,13.9130435 C94.6086957,12.3763587 93.3641305,11.1304348 91.826087,11.1304348 L91.826087,11.1304348 Z" id="Shape" fill="#C6C6C6"></path>
            <path d="M125.217391,44.5217391 C120.61413,44.5217391 116.869565,40.777174 116.869565,36.173913 C116.869565,34.6372282 115.625,33.3913043 114.086957,33.3913043 C112.548913,33.3913043 111.304348,34.6372282 111.304348,36.173913 C111.304348,40.777174 107.559783,44.5217391 102.956522,44.5217391 C101.418478,44.5217391 100.173913,45.767663 100.173913,47.3043478 C100.173913,48.8410326 101.418478,50.0869565 102.956522,50.0869565 C107.559783,50.0869565 111.304348,53.8315217 111.304348,58.4347826 C111.304348,59.9714674 112.548913,61.2173913 114.086957,61.2173913 C115.625,61.2173913 116.869565,59.9714674 116.869565,58.4347826 C116.869565,53.8315217 120.61413,50.0869565 125.217391,50.0869565 C126.755435,50.0869565 128,48.8410326 128,47.3043478 C128,45.767663 126.755435,44.5217391 125.217391,44.5217391 L125.217391,44.5217391 Z" id="Shape" fill="#C6C6C6"></path>
        </g>
    </g>
</svg>
