<?xml version="1.0" encoding="UTF-8"?>
<svg width="128px" height="113px" viewBox="0 0 128 113" version="1.1" xmlns="http://www.w3.org/2000/svg" xmlns:xlink="http://www.w3.org/1999/xlink">
    <!-- Generator: Sketch 41.2 (35397) - http://www.bohemiancoding.com/sketch -->
    <title>Group 36</title>
    <desc>Created with Sketch.</desc>
    <defs>
        <polygon id="path-1" points="22.4046591 0.0576125245 0.180252055 0.0576125245 0.180252055 34.8863624 22.4046591 34.8863624 22.4046591 0.0576125245"></polygon>
        <polygon id="path-3" points="0 32.338181 0 0.0576125245 127.820149 0.0576125245 127.820149 112.720157 0 112.720157 0 32.338181 -2.74080099e-05 112.720168 54.7346127 112.720168 54.7346127 32.338181 -3.38813179e-21 32.338181"></polygon>
        <polygon id="path-5" points="55.1782701 80.3078215 55.1782701 0.0250694852 0.22144191 0.0250694852 0.22144191 80.3078215 55.1782701 80.3078215"></polygon>
    </defs>
    <g id="Wireframes" stroke="none" stroke-width="1" fill="none" fill-rule="evenodd">
        <g id="Group-36">
            <path d="M0.102001576,100.932113 C0.102001576,80.371455 -1.25389666,65.3185548 5.92136753,48.2281751 C8.64969629,41.7172084 10.6989487,36.1994315 18.2496963,33.8130205 C33.9318255,28.85659 62.8217511,39.3919168 52.5930231,52.2888562 C57.739575,58.4869618 27.0250857,100.285349 22.7261894,106.882234 C16.081211,117.0794 0.102001576,113.960308 0.102001576,100.932113" id="Fill-1" fill="#2B3B47"></path>
            <g id="Page-1">
                <g id="Group-3" transform="translate(61.369863, 0.192877)">
                    <mask id="mask-2" fill="white">
                        <use xlink:href="#path-1"></use>
                    </mask>
                    <g id="Clip-2"></g>
                    <path d="M2.72847906,34.8863624 C1.32123053,34.8863624 0.180252055,33.745384 0.180252055,32.3381354 C0.180252055,23.1960297 5.39393503,18.6103233 9.99366888,14.5644211 C13.9185847,11.1121785 17.3082051,8.13060509 17.3082051,2.60581448 C17.3082051,1.19856595 18.4491836,0.0575874755 19.8564321,0.0575874755 C21.2636806,0.0575874755 22.4046591,1.19856595 22.4046591,2.60581448 C22.4046591,10.4351061 17.5990231,14.6618614 13.3592423,18.3911452 C9.02227162,22.2058458 5.27670607,25.5005307 5.27670607,32.3381354 C5.27670607,33.745384 4.13572759,34.8863624 2.72847906,34.8863624" id="Fill-1" fill="#597B91" mask="url(#mask-2)"></path>
                </g>
                <g id="Group-6" transform="translate(0.000000, 0.192877)">
                    <mask id="mask-4" fill="white">
                        <use xlink:href="#path-3"></use>
                    </mask>
                    <g id="Clip-5"></g>
                    <path d="M0.101974168,100.706693 C0.101974168,80.1460352 -1.25392407,65.093135 5.92134012,48.0027554 C8.64966888,41.4917886 10.6989213,35.9740117 18.2496689,33.5876008 C33.931798,28.6311703 62.8217237,39.1664971 52.5929957,52.0634364 C57.7395476,58.2615421 27.0250583,100.05993 22.726162,106.656814 C16.0811836,116.85398 0.101974168,113.734888 0.101974168,100.706693" id="Fill-4" fill="#2B3B47" mask="url(#mask-4)"></path>
                </g>
                <g id="Group-9" transform="translate(72.641879, 32.505988)">
                    <mask id="mask-6" fill="white">
                        <use xlink:href="#path-5"></use>
                    </mask>
                    <g id="Clip-8"></g>
                    <path d="M55.1190043,68.3935812 C55.1190043,47.8329237 56.2098849,32.7800235 49.0346207,15.6896438 C46.3065425,9.1786771 44.2570395,3.6609002 36.7065425,1.27448924 C21.0244133,-3.68194129 -7.86551233,6.85338552 2.36296517,19.7503249 C-2.78358669,25.9484305 28.1959202,67.746818 32.4948164,74.3437025 C39.1397949,84.5408689 55.1190043,81.0788571 55.1190043,68.3935812" id="Fill-7" fill="#2B3B47" mask="url(#mask-6)"></path>
                </g>
                <path d="M99.3973605,74.5571194 L28.3648751,74.5571194 C16.0485699,74.5571194 6.06406888,64.5723679 6.06406888,52.2563131 C6.06406888,39.9400078 16.0485699,29.9552564 28.3648751,29.9552564 L99.3973605,29.9552564 C111.713666,29.9552564 121.698167,39.9400078 121.698167,52.2563131 C121.698167,64.5723679 111.713666,74.5571194 99.3973605,74.5571194" id="Fill-10" fill="#2B3B47"></path>
                <path d="M59.2634239,71.5003491 C59.2634239,79.4228227 52.8411303,85.8451162 44.9186568,85.8451162 C36.9961832,85.8451162 30.5736391,79.4228227 30.5736391,71.5003491 C30.5736391,63.5778755 36.9961832,57.155582 44.9186568,57.155582 C52.8411303,57.155582 59.2634239,63.5778755 59.2634239,71.5003491" id="Fill-12" fill="#2B3B47"></path>
                <path d="M99.3973605,71.5003491 C99.3973605,79.4228227 92.9750669,85.8451162 85.0525933,85.8451162 C77.1301198,85.8451162 70.7075757,79.4228227 70.7075757,71.5003491 C70.7075757,63.5778755 77.1301198,57.155582 85.0525933,57.155582 C92.9750669,57.155582 99.3973605,63.5778755 99.3973605,71.5003491" id="Fill-14" fill="#2B3B47"></path>
                <path d="M44.9185566,85.8452164 C56.7228618,85.8452164 56.8310732,76.4844337 64.4316681,76.4844337 C72.0325135,76.4844337 47.0865409,57.1554317 47.0865409,57.1554317 L44.9185566,85.8452164 Z" id="Fill-16" fill="#2B3B47"></path>
                <path d="M85.0524932,85.8452164 C73.2481879,85.8452164 73.1399765,76.4844337 65.5393816,76.4844337 C57.9385362,76.4844337 82.8845088,57.1554317 82.8845088,57.1554317 L85.0524932,85.8452164 Z" id="Fill-18" fill="#2B3B47"></path>
                <path d="M117.584983,52.9762693 C117.584983,63.2067507 109.291535,71.5004493 99.0608031,71.5004493 C88.8303217,71.5004493 80.5368736,63.2067507 80.5368736,52.9762693 C80.5368736,42.7457879 88.8303217,34.4520892 99.0608031,34.4520892 C109.291535,34.4520892 117.584983,42.7457879 117.584983,52.9762693" id="Fill-20" fill="#131F28"></path>
                <path d="M48.2106865,52.9762693 C48.2106865,63.2067507 39.9172384,71.5004493 29.6865065,71.5004493 C19.456025,71.5004493 11.1625769,63.2067507 11.1625769,52.9762693 C11.1625769,42.7457879 19.456025,34.4520892 29.6865065,34.4520892 C39.9172384,34.4520892 48.2106865,42.7457879 48.2106865,52.9762693" id="Fill-22" fill="#131F28"></path>
                <path d="M59.8140994,61.6139898 L53.6533166,61.6139898 C52.5889879,61.6139898 51.7260524,60.7510544 51.7260524,59.6867256 C51.7260524,58.6223969 52.5889879,57.7594614 53.6533166,57.7594614 L59.8140994,57.7594614 C60.8784282,57.7594614 61.7413636,58.6223969 61.7413636,59.6867256 C61.7413636,60.7510544 60.8784282,61.6139898 59.8140994,61.6139898" id="Fill-24" fill="#597B91"></path>
                <path d="M75.763225,61.6139898 L69.6024423,61.6139898 C68.5381135,61.6139898 67.6751781,60.7510544 67.6751781,59.6867256 C67.6751781,58.6223969 68.5381135,57.7594614 69.6024423,57.7594614 L75.763225,57.7594614 C76.8275538,57.7594614 77.6904892,58.6223969 77.6904892,59.6867256 C77.6904892,60.7510544 76.8275538,61.6139898 75.763225,61.6139898" id="Fill-26" fill="#597B91"></path>
                <path d="M53.5348352,71.5003491 C53.5348352,76.2323413 49.6985926,80.068584 44.9666004,80.068584 C40.2346082,80.068584 36.3983656,76.2323413 36.3983656,71.5003491 C36.3983656,66.7683569 40.2346082,62.9321143 44.9666004,62.9321143 C49.6985926,62.9321143 53.5348352,66.7683569 53.5348352,71.5003491" id="Fill-28" fill="#597B91"></path>
                <path d="M91.7984689,71.5003491 C91.7984689,76.2323413 87.9622262,80.068584 83.2302341,80.068584 C78.4982419,80.068584 74.6619992,76.2323413 74.6619992,71.5003491 C74.6619992,66.7683569 78.4982419,62.9321143 83.2302341,62.9321143 C87.9622262,62.9321143 91.7984689,66.7683569 91.7984689,71.5003491" id="Fill-30" fill="#597B91"></path>
                <path d="M104.322881,62.3815139 C104.322881,65.101827 102.117573,67.3071342 99.3972603,67.3071342 C96.6771977,67.3071342 94.4718904,65.101827 94.4718904,62.3815139 C94.4718904,59.6612008 96.6771977,57.4558935 99.3972603,57.4558935 C102.117573,57.4558935 104.322881,59.6612008 104.322881,62.3815139" id="Fill-32" fill="#00B1FF"></path>
                <path d="M104.322881,43.9350857 C104.322881,46.6553988 102.117573,48.8607061 99.3972603,48.8607061 C96.6771977,48.8607061 94.4718904,46.6553988 94.4718904,43.9350857 C94.4718904,41.2147726 96.6771977,39.0094654 99.3972603,39.0094654 C102.117573,39.0094654 104.322881,41.2147726 104.322881,43.9350857" id="Fill-34" fill="#FFB636"></path>
                <path d="M90.1741464,58.08382 C87.4538333,58.08382 85.248526,55.8785127 85.248526,53.1581996 C85.248526,50.438137 87.4538333,48.2328297 90.1741464,48.2328297 C92.8944595,48.2328297 95.0997667,50.438137 95.0997667,53.1581996 C95.0997667,55.8785127 92.8944595,58.08382 90.1741464,58.08382" id="Fill-36" fill="#FF473E"></path>
                <path d="M108.620575,58.08382 C105.900261,58.08382 103.694954,55.8785127 103.694954,53.1581996 C103.694954,50.438137 105.900261,48.2328297 108.620575,48.2328297 C111.340888,48.2328297 113.546195,50.438137 113.546195,53.1581996 C113.546195,55.8785127 111.340888,58.08382 108.620575,58.08382" id="Fill-38" fill="#00B89C"></path>
                <path d="M23.6727108,49.0067663 L25.6490708,51.3493417 C26.2898223,52.1085746 26.2898223,53.4577096 25.6490708,54.2169425 L23.6727108,56.5595178 C23.4159593,56.8636117 23.0865659,57.0314395 22.7451491,57.0314395 L16.0693605,57.0314395 C15.2918419,57.0314395 14.6613605,56.1782732 14.6613605,55.1257174 L14.6613605,50.4405667 C14.6613605,49.388011 15.2918419,48.5348446 16.0693605,48.5348446 L22.7451491,48.5348446 C23.0865659,48.5348446 23.4159593,48.7024219 23.6727108,49.0067663" id="Fill-40" fill="#597B91"></path>
                <path d="M33.4629824,47.2520141 L31.120407,49.2286247 C30.3611742,49.8691256 29.0120391,49.8691256 28.2528063,49.2286247 L25.9102309,47.2520141 C25.606137,46.9952626 25.4383092,46.6658693 25.4383092,46.3244524 L25.4383092,39.6486638 C25.4383092,38.8711452 26.2914755,38.2406638 27.3440313,38.2406638 L32.029182,38.2406638 C33.0817378,38.2406638 33.9349041,38.8711452 33.9349041,39.6486638 L33.9349041,46.3244524 C33.9349041,46.6658693 33.7673268,46.9952626 33.4629824,47.2520141" id="Fill-42" fill="#597B91"></path>
                <path d="M35.7005276,56.9457973 L33.7241675,54.6032219 C33.083416,53.843989 33.083416,52.494854 33.7241675,51.7356211 L35.7005276,49.3930458 C35.9572791,49.0889519 36.2866724,48.9211241 36.6280892,48.9211241 L43.3038779,48.9211241 C44.0813965,48.9211241 44.7118779,49.7742904 44.7118779,50.8268462 L44.7118779,55.5119969 C44.7118779,56.5645526 44.0813965,57.417719 43.3038779,57.417719 L36.6280892,57.417719 C36.2866724,57.417719 35.9572791,57.2501417 35.7005276,56.9457973" id="Fill-44" fill="#597B91"></path>
                <path d="M25.910256,58.7005245 L28.2528313,56.7241644 C29.0120642,56.0834129 30.3611992,56.0834129 31.1204321,56.7241644 L33.4630074,58.7005245 C33.7671014,58.9572759 33.9349292,59.2866693 33.9349292,59.6280861 L33.9349292,66.3038748 C33.9349292,67.0813933 33.0817628,67.7118748 32.029207,67.7118748 L27.3440564,67.7118748 C26.2915006,67.7118748 25.4383342,67.0813933 25.4383342,66.3038748 L25.4383342,59.6280861 C25.4383342,59.2866693 25.6059115,58.9572759 25.910256,58.7005245" id="Fill-46" fill="#597B91"></path>
            </g>
        </g>
    </g>
</svg>