<?xml version="1.0" encoding="UTF-8"?>
<svg width="128px" height="86px" viewBox="0 0 128 86" version="1.1" xmlns="http://www.w3.org/2000/svg" xmlns:xlink="http://www.w3.org/1999/xlink">
    <!-- Generator: Sketch 41.2 (35397) - http://www.bohemiancoding.com/sketch -->
    <title>Group 41</title>
    <desc>Created with Sketch.</desc>
    <defs>
        <polygon id="path-1" points="21.3444159 85.3333333 42.6637149 85.3333333 42.6637149 0.0558155136 21.3444159 0.0558155136 0.0251169811 0.0558155136 0.0251169811 85.3333333 21.3444159 85.3333333"></polygon>
    </defs>
    <g id="Page-1" stroke="none" stroke-width="1" fill="none" fill-rule="evenodd">
        <g id="Group-41">
            <g id="Page-1">
                <path d="M85.2776252,85.5458616 L2.72916394,85.5458616 C1.22187673,85.5458616 0.000107337526,84.3240922 0.000107337526,82.816805 L0.000107337526,2.99740042 C0.000107337526,1.49011321 1.22187673,0.268343816 2.72916394,0.268343816 L85.2776252,0.268343816 L85.2776252,85.5458616 Z" id="Fill-1" fill="#16B798"></path>
                <g id="Group-5" transform="translate(85.333333, 0.212528)">
                    <mask id="mask-2" fill="white">
                        <use xlink:href="#path-1"></use>
                    </mask>
                    <g id="Clip-4"></g>
                    <path d="M39.9348193,85.3333333 L0.0251169811,85.3333333 L0.0251169811,0.0558155136 L39.9348193,0.0558155136 C41.4421065,0.0558155136 42.6638759,1.27758491 42.6638759,2.78487212 L42.6638759,82.6042767 C42.6638759,84.1115639 41.4421065,85.3333333 39.9348193,85.3333333" id="Fill-3" fill="#19CEAB" mask="url(#mask-2)"></path>
                </g>
                <path d="M74.7399245,19.7818767 C74.7399245,24.7392604 70.7212075,28.757709 65.7640922,28.757709 C60.8067086,28.757709 56.7879916,24.7392604 56.7879916,19.7818767 C56.7879916,14.8244931 60.8067086,10.8060444 65.7640922,10.8060444 C70.7212075,10.8060444 74.7399245,14.8244931 74.7399245,19.7818767" id="Fill-6" fill="#FFFFFF"></path>
                <path d="M112.497053,42.9070491 C112.497053,47.8644327 109.891703,51.8828813 106.677749,51.8828813 C103.463795,51.8828813 100.858445,47.8644327 100.858445,42.9070491 C100.858445,37.9496654 103.463795,33.9312168 106.677749,33.9312168 C109.891703,33.9312168 112.497053,37.9496654 112.497053,42.9070491" id="Fill-8" fill="#FFFFFF"></path>
                <path d="M51.6147522,42.9070491 C51.6147522,47.8644327 47.5960352,51.8828813 42.6389199,51.8828813 C37.6815363,51.8828813 33.6628193,47.8644327 33.6628193,42.9070491 C33.6628193,37.9496654 37.6815363,33.9312168 42.6389199,33.9312168 C47.5960352,33.9312168 51.6147522,37.9496654 51.6147522,42.9070491" id="Fill-10" fill="#FFFFFF"></path>
                <path d="M28.4895799,66.0322214 C28.4895799,70.989605 24.4708629,75.0080537 19.5137476,75.0080537 C14.5563639,75.0080537 10.537647,70.989605 10.537647,66.0322214 C10.537647,61.0748377 14.5563639,57.0563891 19.5137476,57.0563891 C24.4708629,57.0563891 28.4895799,61.0748377 28.4895799,66.0322214" id="Fill-12" fill="#FFFFFF"></path>
            </g>
        </g>
    </g>
</svg>