<svg width="106px" height="128px" viewBox="806 64 106 128" version="1.1" xmlns="http://www.w3.org/2000/svg" xmlns:xlink="http://www.w3.org/1999/xlink">
    <!-- Generator: Sketch 40.3 (33839) - http://www.bohemiancoding.com/sketch -->
    <desc>Created with Sketch.</desc>
    <defs></defs>
    <g id="education-color_book-bookmark" stroke="none" stroke-width="1" fill="none" fill-rule="evenodd" transform="translate(806.000000, 64.000000)">
        <g id="Group">
            <path d="M19.4782609,125.217391 C10.2706087,125.217391 2.7826087,117.729391 2.7826087,108.521739 C2.7826087,99.314087 10.2706087,91.826087 19.4782609,91.826087 L105.73913,91.826087 L105.73913,125.217391 L19.4782609,125.217391 L19.4782609,125.217391 Z" id="Shape" fill="#E6E6E6"></path>
            <path d="M102.956522,0 L13.9130435,0 C6.23026087,0 0,6.23026087 0,13.9130435 L0,108.521739 C0,119.279304 8.72069565,128 19.4782609,128 L102.956522,128 C104.495304,128 105.73913,126.753391 105.73913,125.217391 C105.73913,123.681391 104.495304,122.434783 102.956522,122.434783 L20.0987826,122.434783 C12.8361739,122.434783 6.33878261,117.139478 5.632,109.913043 C4.82226087,101.62087 11.3474783,94.6086957 19.4782609,94.6086957 L102.956522,94.6086957 C104.492522,94.6086957 105.73913,93.362087 105.73913,91.826087 L105.73913,2.7826087 C105.73913,1.2466087 104.492522,0 102.956522,0 L102.956522,0 Z" id="Shape" fill="#43A6DD"></path>
            <path d="M105.73913,111.304348 L16.6956522,111.304348 C15.1568696,111.304348 13.9130435,110.057739 13.9130435,108.521739 C13.9130435,106.985739 15.1568696,105.73913 16.6956522,105.73913 L105.73913,105.73913 L105.73913,111.304348 L105.73913,111.304348 Z" id="Shape" fill="#B3B3B3"></path>
            <path d="M13.9130435,89.0434783 C12.3742609,89.0434783 11.1304348,87.7968696 11.1304348,86.2608696 L11.1304348,8.34782609 C11.1304348,6.81182609 12.3742609,5.56521739 13.9130435,5.56521739 C15.4518261,5.56521739 16.6956522,6.81182609 16.6956522,8.34782609 L16.6956522,86.2608696 C16.6956522,87.7968696 15.4518261,89.0434783 13.9130435,89.0434783 L13.9130435,89.0434783 Z" id="Shape" fill="#458BC4"></path>
            <polygon id="Shape" fill="#9EDB9E" points="89.0434783 0 66.7826087 0 66.7826087 36.173913 77.9130435 30.6086957 89.0434783 36.173913"></polygon>
        </g>
    </g>
</svg>
