<svg width="175px" height="128px" viewBox="71 410 175 128" version="1.1" xmlns="http://www.w3.org/2000/svg" xmlns:xlink="http://www.w3.org/1999/xlink">
    <!-- Generator: Sketch 40.3 (33839) - http://www.bohemiancoding.com/sketch -->
    <desc>Created with Sketch.</desc>
    <defs></defs>
    <g id="nature-color_mountain" stroke="none" stroke-width="1" fill="none" fill-rule="evenodd" transform="translate(72.000000, 410.000000)">
        <g id="Group">
            <path d="M52.7058824,82.8235294 L3.76470588,82.8235294 C2.38603294,82.8235294 1.11766588,82.0698353 0.457712941,80.8566212 C-0.202202353,79.6470588 -0.145242353,78.1728 0.604762353,77.0147012 L42.0165271,13.0128565 C42.7040376,11.9485365 43.8823529,11.3033035 45.15072,11.2941176 C46.3804988,11.1562541 47.6029365,11.9154447 48.3088188,12.9705788 L70.8970541,46.8529318 C71.6470588,47.9760941 71.7353035,49.4172612 71.1323482,50.6249788 L56.0735247,80.7426259 C55.4356706,82.0183718 54.1323671,82.8235294 52.7058824,82.8235294 L52.7058824,82.8235294 Z" id="Shape" fill="#223E49"></path>
            <path d="M117.102946,80.7426635 L102.044122,50.6250165 C101.441167,49.4172988 101.529412,47.9761318 102.279416,46.8529694 L124.867652,12.9706165 C125.573534,11.9154824 126.795972,11.1562918 128.025751,11.2941553 C129.294118,11.3033412 130.472433,11.9485741 131.159944,13.0128941 L172.571708,77.0147388 C173.321713,78.1728376 173.378711,79.6470965 172.718758,80.8566588 C172.058805,82.0698353 170.790438,82.8235294 169.411765,82.8235294 L120.470588,82.8235294 C119.044104,82.8235294 117.7408,82.0183718 117.102946,80.7426635 L117.102946,80.7426635 Z" id="Shape" fill="#223E49"></path>
            <path d="M8.10112,122.238984 C7.37686588,123.400734 7.33824,124.864 8.00184471,126.058842 C8.66544941,127.257336 9.92463059,128 11.2941176,128 L161.882353,128 C163.25184,128 164.511021,127.257336 165.174626,126.058842 C165.838231,124.864 165.799642,123.400772 165.075351,122.238984 L124.017694,56.5478024 L101.647059,41.4117647 L86.5882353,56.4705882 L71.5294118,41.4117647 L49.1587765,56.5478024 L8.10112,122.238984 L8.10112,122.238984 Z" id="Shape" fill="#335262"></path>
            <path d="M71.5294118,41.4117647 L86.5882353,56.4705882 L101.647059,41.4117647 L124.017694,56.5478024 L89.7812329,1.77020235 C88.40256,-0.432 84.7738729,-0.432 83.3952,1.77020235 L49.1587765,56.5478024 L71.5294118,41.4117647 L71.5294118,41.4117647 Z" id="Shape" fill="#B3B3B3"></path>
        </g>
    </g>
</svg>
