<?xml version="1.0" encoding="UTF-8"?>
<svg width="128px" height="128px" viewBox="0 0 128 128" version="1.1" xmlns="http://www.w3.org/2000/svg" xmlns:xlink="http://www.w3.org/1999/xlink">
    <!-- Generator: Sketch 41.2 (35397) - http://www.bohemiancoding.com/sketch -->
    <title>Page 1 Copy 7</title>
    <desc>Created with Sketch.</desc>
    <defs>
        <path d="M0.217886179,67.977626 L83.4695285,67.977626 C85.1863415,67.977626 86.5912195,66.572748 86.5912195,64.8556748 L86.5912195,0.076097561 L0.217886179,0.076097561 L0.217886179,67.977626 L0.217886179,67.977626 Z" id="path-1"></path>
        <path d="M0.156357724,0.174725203 L0.156357724,54.9694959 C0.156357724,56.6865691 1.56123577,58.0914472 3.27830894,58.0914472 L124.835382,58.0914472 C126.552195,58.0914472 127.957073,56.6865691 127.957073,54.9694959 L127.957073,0.174725203 L0.156357724,0.174725203 L0.156357724,0.174725203 Z" id="path-3"></path>
    </defs>
    <g id="Page-1" stroke="none" stroke-width="1" fill="none" fill-rule="evenodd">
        <g id="Page-1-Copy-7">
            <path d="M127.957125,124.678816 C127.957125,126.395889 126.552247,127.800767 124.835174,127.800767 L3.27836098,127.800767 C1.5612878,127.800767 0.156409756,126.395889 0.156409756,124.678816 L0.156409756,3.12200325 C0.156409756,1.40493008 1.5612878,5.20325203e-05 3.27836098,5.20325203e-05 L124.835174,5.20325203e-05 C126.552247,5.20325203e-05 127.957125,1.40493008 127.957125,3.12200325 L127.957125,124.678816 Z" id="Fill-1" fill="#FFAA3B"></path>
            <g id="Group-13" transform="translate(0.000000, 14.294634)">
                <path d="M66.0547382,6.03741138 L73.8962992,0.681443902 C75.5569171,-0.452865041 77.8375024,0.158256911 78.7085268,1.97080976 L82.8214374,10.5301593 C83.4073236,11.7492813 84.6808195,12.4845008 86.0297626,12.3822569 L95.4986407,11.6644683 C97.503974,11.5125333 99.1736976,13.1822569 99.0215024,15.1875902 L98.303974,24.6564683 C98.2017301,26.0054114 98.9369496,27.2789073 100.156072,27.8647935 L108.715421,31.9777041 C110.527974,32.8487285 111.139096,35.1293138 110.004787,36.7899317 L104.64882,44.6314927 C103.885763,45.7483707 103.885763,47.2190699 104.64882,48.335948 L110.004787,56.1775089 C111.139096,57.8381268 110.527974,60.1189724 108.715421,60.9899967 L100.156072,65.1029073 C98.9369496,65.6887935 98.2017301,66.9622894 98.303974,68.3109724 L99.0215024,77.7801106 C99.1736976,79.7851837 97.503974,81.4549073 95.4986407,81.3029724 L86.0297626,80.5851837 C84.6808195,80.4829398 83.4073236,81.2181593 82.8214374,82.4375415 L78.7085268,90.9966309 C77.8375024,92.8091837 75.5569171,93.4205659 73.8962992,92.2862569 L66.0547382,86.9300293 C64.9378602,86.1672325 63.467161,86.1672325 62.3500228,86.9300293 L54.508722,92.2862569 C52.8481041,93.4205659 50.5672585,92.8091837 49.6962341,90.9966309 L45.5833236,82.4375415 C44.9974374,81.2181593 43.7239415,80.4829398 42.3752585,80.5851837 L32.9061203,81.3029724 C30.9010472,81.4549073 29.2313236,79.7851837 29.3832585,77.7801106 L30.1010472,68.3109724 C30.2032911,66.9622894 29.4680715,65.6887935 28.2486894,65.1029073 L19.6896,60.9899967 C17.876787,60.1189724 17.265665,57.8381268 18.399974,56.1775089 L23.7562016,48.335948 C24.5189984,47.2190699 24.5189984,45.7483707 23.7562016,44.6314927 L18.399974,36.7899317 C17.265665,35.1293138 17.876787,32.8487285 19.6896,31.9777041 L28.2486894,27.8647935 C29.4680715,27.2789073 30.2032911,26.0054114 30.1010472,24.6564683 L29.3832585,15.1875902 C29.2313236,13.1822569 30.9010472,11.5125333 32.9061203,11.6644683 L42.3752585,12.3822569 C43.7239415,12.4845008 44.9974374,11.7492813 45.5833236,10.5301593 L49.6962341,1.97080976 C50.5672585,0.158256911 52.8481041,-0.452865041 54.508722,0.681443902 L62.3500228,6.03741138 C63.467161,6.80046829 64.9378602,6.80046829 66.0547382,6.03741138" id="Fill-3" fill="#FFE564"></path>
                <path d="M102.125346,46.4837724 C102.125346,67.4279024 85.1466146,84.4066341 64.2024846,84.4066341 C43.2580943,84.4066341 26.2796228,67.4279024 26.2796228,46.4837724 C26.2796228,25.5396423 43.2580943,8.56091057 64.2024846,8.56091057 C85.1466146,8.56091057 102.125346,25.5396423 102.125346,46.4837724" id="Fill-5" fill="#FFE564"></path>
                <g id="Group-9" transform="translate(41.365854, 45.528455)">
                    <mask id="mask-2" fill="white">
                        <use xlink:href="#path-1"></use>
                    </mask>
                    <g id="Clip-8"></g>
                    <path d="M112.549333,39.6827317 C112.549333,63.6314797 87.4030569,83.0455935 56.3836098,83.0455935 C25.3641626,83.0455935 0.217886179,63.6314797 0.217886179,39.6827317 C0.217886179,21.8961951 25.3641626,0.076097561 56.3836098,0.076097561 C87.4030569,0.076097561 112.549333,15.7339837 112.549333,39.6827317" id="Fill-7" fill="#1D771F" mask="url(#mask-2)"></path>
                </g>
                <g id="Group-12" transform="translate(0.000000, 55.414634)">
                    <mask id="mask-4" fill="white">
                        <use xlink:href="#path-3"></use>
                    </mask>
                    <g id="Clip-11"></g>
                    <path d="M141.125932,71.1889691 C141.125932,71.1889691 117.589802,47.7758959 92.1542244,27.4917984 C71.6013789,11.1015545 45.8226472,0.174725203 17.4875577,0.174725203 C-4.08330407,0.174725203 -28.0424585,25.8657821 -28.8213854,41.5783024 C-30.7403447,80.2889366 16.6844358,123.577132 16.6844358,123.577132 L93.4324033,123.577132 L141.125932,71.1889691 Z" id="Fill-10" fill="#2BA52E" mask="url(#mask-4)"></path>
                </g>
            </g>
        </g>
    </g>
</svg>