<svg width="137px" height="128px" viewBox="440 64 137 128" version="1.1" xmlns="http://www.w3.org/2000/svg" xmlns:xlink="http://www.w3.org/1999/xlink">
    <!-- Generator: Sketch 40.3 (33839) - http://www.bohemiancoding.com/sketch -->
    <desc>Created with Sketch.</desc>
    <defs></defs>
    <g id="media-color-1_camera-20" stroke="none" stroke-width="1" fill="none" fill-rule="evenodd" transform="translate(440.000000, 64.000000)">
        <g id="Group">
            <path d="M26.7906977,8.93023256 L14.8837209,8.93023256 C13.2397247,8.93023256 11.9069767,10.2629805 11.9069767,11.9069767 L11.9069767,20.8372093 L29.7674419,17.8604651 L29.7674419,11.9069767 C29.7674419,10.2629805 28.4347237,8.93023256 26.7906977,8.93023256 L26.7906977,8.93023256 Z" id="Shape" fill="#C6C6C6"></path>
            <path d="M125.023256,17.8604651 L119.069767,17.8604651 L111.786329,3.32683907 C110.776886,1.31247628 108.716919,0.040692093 106.463851,0.040692093 L78.0942884,0.040692093 C75.8411907,0.040692093 73.781254,1.31250605 72.7718102,3.32683907 L65.4883721,17.8604651 L11.9069767,17.8604651 C5.33084279,17.8604651 0,23.1913079 0,29.7674419 L0,113.116279 C0,119.692413 5.33084279,125.023256 11.9069767,125.023256 L125.023256,125.023256 C131.59939,125.023256 136.930233,119.692413 136.930233,113.116279 L136.930233,29.7674419 C136.930233,23.1913079 131.59939,17.8604651 125.023256,17.8604651 L125.023256,17.8604651 Z" id="Shape" fill="#E6E6E6"></path>
            <path d="M125.023256,125.023256 L11.9069767,125.023256 C5.33093209,125.023256 0,119.692324 0,113.116279 L0,53.5813953 L136.930233,53.5813953 L136.930233,113.116279 C136.930233,119.692324 131.5993,125.023256 125.023256,125.023256 L125.023256,125.023256 Z" id="Shape" fill="#666666"></path>
            <path d="M68.4651163,107.162791 C48.7674344,107.162791 32.744186,91.1380837 32.744186,71.4418605 C32.744186,51.7456372 48.7674344,35.7209302 68.4651163,35.7209302 C88.1627981,35.7209302 104.186047,51.7456372 104.186047,71.4418605 C104.186047,91.1380837 88.1627981,107.162791 68.4651163,107.162791 L68.4651163,107.162791 Z" id="Shape" fill="#C6C6C6"></path>
            <ellipse id="Oval" fill="#666666" cx="68.4651163" cy="71.4418605" rx="29.7674419" ry="29.7674419"></ellipse>
            <ellipse id="Oval" fill="#444444" cx="68.4651163" cy="71.4418605" rx="17.8604651" ry="17.8604651"></ellipse>
            <path d="M101.209302,17.8604651 L83.3488372,17.8604651 C81.7048409,17.8604651 80.372093,16.527747 80.372093,14.8837209 L80.372093,11.9069767 C80.372093,10.2629805 81.7048409,8.93023256 83.3488372,8.93023256 L101.209302,8.93023256 C102.853299,8.93023256 104.186047,10.2629805 104.186047,11.9069767 L104.186047,14.8837209 C104.186047,16.527747 102.853299,17.8604651 101.209302,17.8604651 L101.209302,17.8604651 Z" id="Shape" fill="#FFFFFF"></path>
        </g>
    </g>
</svg>
