<?xml version="1.0" encoding="UTF-8"?>
<svg width="158px" height="128px" viewBox="0 0 158 128" version="1.1" xmlns="http://www.w3.org/2000/svg" xmlns:xlink="http://www.w3.org/1999/xlink">
    <!-- Generator: Sketch 41.2 (35397) - http://www.bohemiancoding.com/sketch -->
    <title>Page 1 Copy</title>
    <desc>Created with Sketch.</desc>
    <defs>
        <polygon id="path-1" points="78.7505849 115.457286 157.501106 115.457286 157.501106 0.166592965 6.4321608e-05 0.166592965 6.4321608e-05 115.457286"></polygon>
    </defs>
    <g id="Page-1" stroke="none" stroke-width="1" fill="none" fill-rule="evenodd">
        <g id="Page-1-Copy">
            <path d="M150.510955,21.1467899 C150.510955,21.5079558 150.21797,21.8009407 149.856804,21.8009407 L131.997266,21.8009407 L121.037829,21.8009407 C120.676342,21.8009407 120.383678,21.5079558 120.383678,21.1467899 L120.383678,0.654247236 C120.383678,0.293081407 120.676342,9.64824121e-05 121.037829,9.64824121e-05 L149.856804,9.64824121e-05 C150.21797,9.64824121e-05 150.510955,0.293081407 150.510955,0.654247236 L150.510955,21.1467899 Z" id="Fill-1" fill="#8F9799"></path>
            <g id="Group-5" transform="translate(0.000000, 12.466814)">
                <mask id="mask-2" fill="white">
                    <use xlink:href="#path-1"></use>
                </mask>
                <g id="Clip-4"></g>
                <path d="M150.554436,115.457286 L6.94679799,115.457286 C3.11001407,115.457286 6.4321608e-05,112.347015 6.4321608e-05,108.510553 L6.4321608e-05,7.11332663 C6.4321608e-05,3.27686432 3.11001407,0.166592965 6.94679799,0.166592965 L150.554436,0.166592965 C154.390898,0.166592965 157.50117,3.27686432 157.50117,7.11332663 L157.50117,108.510553 C157.50117,112.347015 154.390898,115.457286 150.554436,115.457286" id="Fill-3" fill="#ADB8BC" mask="url(#mask-2)"></path>
            </g>
            <path d="M149.602766,36.7227497 C149.602766,36.9408 149.370565,37.1176844 149.084012,37.1176844 L126.21961,37.1176844 C125.933057,37.1176844 125.700856,36.9408 125.700856,36.7227497 L125.700856,24.3459859 C125.700856,24.1279357 125.933057,23.9510513 126.21961,23.9510513 L149.084012,23.9510513 C149.370565,23.9510513 149.602766,24.1279357 149.602766,24.3459859 L149.602766,36.7227497 Z" id="Fill-6" fill="#FFFBDE"></path>
            <path d="M149.602766,44.4402171 C149.602766,44.6045588 149.370565,44.7380261 149.084012,44.7380261 L126.21961,44.7380261 C125.933057,44.7380261 125.700856,44.6045588 125.700856,44.4402171 L125.700856,35.1106894 C125.700856,34.9463477 125.933057,34.8128804 126.21961,34.8128804 L149.084012,34.8128804 C149.370565,34.8128804 149.602766,34.9463477 149.602766,35.1106894 L149.602766,44.4402171 Z" id="Fill-8" fill="#1C4C5A"></path>
            <path d="M26.6125829,30.5343678 C26.6125829,35.0918754 22.9179497,38.7865085 18.3604422,38.7865085 C13.8026131,38.7865085 10.1079799,35.0918754 10.1079799,30.5343678 C10.1079799,25.9768603 13.8026131,22.2822271 18.3604422,22.2822271 C22.9179497,22.2822271 26.6125829,25.9768603 26.6125829,30.5343678" id="Fill-10" fill="#FF473E"></path>
            <path d="M123.130404,68.3307417 C123.130404,92.8411337 103.260816,112.7104 78.7507457,112.7104 C54.2403538,112.7104 34.3707658,92.8411337 34.3707658,68.3307417 C34.3707658,43.8203497 54.2403538,23.9510834 78.7507457,23.9510834 C103.260816,23.9510834 123.130404,43.8203497 123.130404,68.3307417" id="Fill-12" fill="#1C4C5A"></path>
            <path d="M78.7505849,40.4521487 C94.1472482,40.4521487 106.629178,52.9366513 106.629178,68.3307417 C106.629178,83.727405 94.1472482,96.2093347 78.7505849,96.2093347 C63.3539216,96.2093347 50.871992,83.727405 50.871992,68.3307417 C50.871992,52.9366513 63.3539216,40.4521487 78.7505849,40.4521487" id="Fill-14" fill="#1C4C5A"></path>
            <path d="M78.7505849,40.4521487 C63.3539216,40.4521487 50.871992,52.9366513 50.871992,68.3307417 C50.871992,83.727405 63.3539216,96.2093347 78.7505849,96.2093347 C94.1472482,96.2093347 106.629178,83.727405 106.629178,68.3307417 C106.629178,52.9366513 94.1498211,40.4521487 78.7505849,40.4521487" id="Fill-16" fill="#F4F3EF"></path>
            <path d="M99.3312804,67.9619216 C99.3312804,79.328193 90.1168884,88.5425849 78.7506171,88.5425849 C67.3843457,88.5425849 58.1699538,79.328193 58.1699538,67.9619216 C58.1699538,56.5956503 67.3843457,47.3812583 78.7506171,47.3812583 C90.1168884,47.3812583 99.3312804,56.5956503 99.3312804,67.9619216" id="Fill-18" fill="#00BEEB"></path>
            <path d="M86.3538492,55.6586452 C89.1518392,55.6586452 91.4227136,57.9295196 91.4227136,60.7275095 C91.4227136,63.5280724 89.1518392,65.7963739 86.3538492,65.7963739 C83.5558593,65.7963739 81.2849849,63.5280724 81.2849849,60.7275095 C81.2849849,57.9269467 83.5558593,55.6586452 86.3538492,55.6586452" id="Fill-20" fill="#FFFFFF"></path>
        </g>
    </g>
</svg>