<svg width="130px" height="129px" viewBox="793 409 130 129" version="1.1" xmlns="http://www.w3.org/2000/svg" xmlns:xlink="http://www.w3.org/1999/xlink">
    <!-- Generator: Sketch 40.3 (33839) - http://www.bohemiancoding.com/sketch -->
    <desc>Created with Sketch.</desc>
    <defs></defs>
    <g id="ui-color-1_send" stroke="none" stroke-width="1" fill="none" fill-rule="evenodd" transform="translate(794.000000, 410.000000)">
        <g id="Group">
            <path d="M30.4761905,121.904762 C29.8601143,121.904762 42.8065524,69.1875048 42.8065524,69.1875048 C43.1220419,68.169661 43.9494095,67.3898971 44.9851124,67.1369143 C46.017859,66.8750019 47.1160686,67.1875048 47.8690438,67.94048 L69.2023771,89.2738133 C69.8273829,89.898819 70.1488152,90.7619048 70.0863086,91.6458362 C70.0238019,92.526781 69.5833295,93.33632 68.8750019,93.8660876 L32.3035733,121.294659 C31.7648762,121.70237 31.1190552,121.904762 30.4761905,121.904762 L30.4761905,121.904762 Z" id="Shape" fill="#7F7F7F"></path>
            <path d="M100.547627,128 C99.898819,128 99.2529981,127.791665 98.7202438,127.389867 L1.22023619,54.2470095 C0.336304762,53.5862857 -0.11904,52.5029486 0.0267885714,51.4107124 C0.169660952,50.3184457 0.892860952,49.3898667 1.9166781,48.9791695 L123.82144,0.217264762 C124.86013,-0.193462857 126.044648,-0.014872381 126.90179,0.705371429 C127.76192,1.41967238 128.160731,2.54762667 127.94048,3.64583619 L103.535726,125.550598 C103.330377,126.577371 102.61312,127.425585 101.63395,127.800594 C101.282743,127.934537 100.913676,128 100.547627,128 L100.547627,128 Z" id="Shape" fill="#E6E6E6"></path>
            <path d="M30.4791771,121.904762 C30.3154895,121.904762 30.1518019,121.892846 29.9881143,121.866057 C28.5119086,121.62499 27.4285714,120.351177 27.4285714,118.857143 L27.4285714,73.1428571 C27.4285714,72.17856 27.8869029,71.2708267 28.6607238,70.6964419 L123.136914,0.60120381 C124.431543,-0.360106667 126.241067,-0.145828571 127.279787,1.07739429 C128.318476,2.30656 128.223238,4.128 127.065509,5.24406857 L43.2717714,85.7933714 L33.3660648,119.82141 C32.9464381,121.08035 31.770819,121.904762 30.4791771,121.904762 L30.4791771,121.904762 Z" id="Shape" fill="#B3B3B3"></path>
        </g>
    </g>
</svg>
