<svg width="132px" height="128px" viewBox="93 410 132 128" version="1.1" xmlns="http://www.w3.org/2000/svg" xmlns:xlink="http://www.w3.org/1999/xlink">
    <!-- Generator: Sketch 40.3 (33839) - http://www.bohemiancoding.com/sketch -->
    <desc>Created with Sketch.</desc>
    <defs></defs>
    <g id="shopping-color_cart" stroke="none" stroke-width="1" fill="none" fill-rule="evenodd" transform="translate(93.000000, 410.000000)">
        <g id="Group">
            <path d="M124.952381,97.5238095 L18.2857143,97.5238095 C17.2007619,97.5238095 16.1950476,96.9447619 15.6495238,96.0060952 C15.104,95.0674286 15.1009524,93.9093333 15.640381,92.9645714 L27.8308571,71.6312381 C28.6598095,70.168381 30.5249524,69.6624762 31.9878095,70.4975238 C33.447619,71.3325714 33.9565714,73.1946667 33.1215238,74.6544762 L23.5398095,91.4285714 L124.952381,91.4285714 C126.637714,91.4285714 128,92.7939048 128,94.4761905 C128,96.1584762 126.637714,97.5238095 124.952381,97.5238095 L124.952381,97.5238095 Z" id="Shape" fill="#B3B3B3"></path>
            <path d="M24.384,21.3333333 C23.2655238,21.3333333 22.1897143,20.7177143 21.6533333,19.648 L16.2255238,8.79238095 L2.45028571,6.03428571 C0.80152381,5.70514286 -0.271238095,4.09904762 0.060952381,2.45028571 C0.387047619,0.79847619 1.9992381,-0.265142857 3.64495238,0.060952381 L18.8830476,3.10857143 C19.8064762,3.29142857 20.5927619,3.89180952 21.0133333,4.73295238 L27.1085714,16.9234286 C27.8613333,18.4289524 27.2518095,20.2605714 25.7462857,21.0133333 C25.3074286,21.2297143 24.8411429,21.3333333 24.384,21.3333333 L24.384,21.3333333 Z" id="Shape" fill="#B3B3B3"></path>
            <path d="M30.4761905,103.619048 C23.744,103.619048 18.2857143,109.077333 18.2857143,115.809524 C18.2857143,122.541714 23.744,128 30.4761905,128 C37.208381,128 42.6666667,122.541714 42.6666667,115.809524 C42.6666667,109.077333 37.208381,103.619048 30.4761905,103.619048 L30.4761905,103.619048 Z" id="Shape" fill="#223E49"></path>
            <path d="M112.761905,103.619048 C106.029714,103.619048 100.571429,109.077333 100.571429,115.809524 C100.571429,122.541714 106.029714,128 112.761905,128 C119.494095,128 124.952381,122.541714 124.952381,115.809524 C124.952381,109.077333 119.494095,103.619048 112.761905,103.619048 L112.761905,103.619048 Z" id="Shape" fill="#223E49"></path>
            <circle id="Oval" fill="#FFFFFF" cx="30.4761905" cy="115.809524" r="6.0952381"></circle>
            <circle id="Oval" fill="#FFFFFF" cx="112.761905" cy="115.809524" r="6.0952381"></circle>
            <path d="M118.857143,76.1904762 L30.4761905,76.1904762 C28.9219048,76.1904762 27.6175238,75.0232381 27.4468571,73.4780952 L21.351619,18.6209524 C21.2510476,17.7127619 21.5619048,16.807619 22.2019048,16.152381 C22.8388571,15.5001905 23.7500952,15.1710476 24.6491429,15.2472381 L128.26819,24.3900952 C129.130667,24.4662857 129.92,24.9051429 130.441143,25.6 C130.959238,26.2918095 131.157333,27.175619 130.989714,28.0228571 L121.846857,73.7371429 C121.560381,75.1664762 120.310857,76.1904762 118.857143,76.1904762 L118.857143,76.1904762 Z" id="Shape" fill="#5A7A84"></path>
        </g>
    </g>
</svg>
