<?xml version="1.0" encoding="UTF-8"?>
<svg width="128px" height="128px" viewBox="0 0 128 128" version="1.1" xmlns="http://www.w3.org/2000/svg" xmlns:xlink="http://www.w3.org/1999/xlink">
    <!-- Generator: Sketch 41.2 (35397) - http://www.bohemiancoding.com/sketch -->
    <title>Group 43</title>
    <desc>Created with Sketch.</desc>
    <defs></defs>
    <g id="Page-1" stroke="none" stroke-width="1" fill="none" fill-rule="evenodd">
        <g id="Group-43">
            <path d="M60,58.5343034 C60,59.3404365 59.3404365,60 58.5343034,60 L1.46569659,60 C0.659563467,60 0,59.3404365 0,58.5343034 L0,1.46569659 C0,0.659563467 0.659563467,0 1.46569659,0 L58.5343034,0 C59.3404365,0 60,0.659563467 60,1.46569659 L60,58.5343034 Z" id="Fill-1-Copy" fill="#009B51"></path>
            <path d="M60,126.534303 C60,127.340437 59.3404365,128 58.5343034,128 L1.46569659,128 C0.659563467,128 0,127.340437 0,126.534303 L0,69.4656966 C0,68.6595635 0.659563467,68 1.46569659,68 L58.5343034,68 C59.3404365,68 60,68.6595635 60,69.4656966 L60,126.534303 Z" id="Fill-1-Copy-3" fill="#0074A8"></path>
            <path d="M128,58.5343034 C128,59.3404365 127.340437,60 126.534303,60 L69.4656966,60 C68.6595635,60 68,59.3404365 68,58.5343034 L68,1.46569659 C68,0.659563467 68.6595635,0 69.4656966,0 L126.534303,0 C127.340437,0 128,0.659563467 128,1.46569659 L128,58.5343034 Z" id="Fill-1-Copy-2" fill="#FF473E"></path>
            <path d="M128,126.534303 C128,127.340437 127.340437,128 126.534303,128 L69.4656966,128 C68.6595635,128 68,127.340437 68,126.534303 L68,69.4656966 C68,68.6595635 68.6595635,68 69.4656966,68 L126.534303,68 C127.340437,68 128,68.6595635 128,69.4656966 L128,126.534303 Z" id="Fill-1-Copy-4" fill="#FFD469"></path>
        </g>
    </g>
</svg>