<svg width="128px" height="128px" viewBox="446 410 128 128" version="1.1" xmlns="http://www.w3.org/2000/svg" xmlns:xlink="http://www.w3.org/1999/xlink">
    <!-- Generator: Sketch 40.3 (33839) - http://www.bohemiancoding.com/sketch -->
    <desc>Created with Sketch.</desc>
    <defs></defs>
    <g id="education-color_ball-soccer" stroke="none" stroke-width="1" fill="none" fill-rule="evenodd" transform="translate(446.000000, 410.000000)">
        <g id="Group">
            <path d="M64,128 C28.7109565,128 0,99.2918261 0,64 C0,28.7081739 28.7109565,0 64,0 C99.2890435,0 128,28.7081739 128,64 C128,99.2918261 99.2890435,128 64,128 L64,128 Z" id="Shape" fill="#E6E6E6"></path>
            <path d="M80.0612174,89.0434783 L47.9387826,89.0434783 C46.733913,89.0434783 45.6653913,88.2671304 45.2925217,87.1206957 L35.3669565,56.5704348 C34.994087,55.4267826 35.4031304,54.1690435 36.3770435,53.4622609 L62.3638261,34.5822609 C63.3405217,33.869913 64.6594783,33.869913 65.6361739,34.5822609 L91.6229565,53.4622609 C92.5996522,54.1690435 93.005913,55.4267826 92.6330435,56.5704348 L82.7074783,87.1206957 C82.3346087,88.2671304 81.266087,89.0434783 80.0612174,89.0434783 L80.0612174,89.0434783 Z" id="Shape" fill="#444444"></path>
            <path d="M45.4455652,4.54956522 L62.3749565,16.7513043 C62.8591304,17.101913 63.4295652,17.2744348 64,17.2744348 C64.5704348,17.2744348 65.1408696,17.101913 65.6250435,16.7513043 L82.5544348,4.54956522 C83.0636522,4.18226087 83.4003478,3.65356522 83.5728696,3.07478261 C77.4010435,1.08521739 70.8257391,0 64,0 C57.1742609,0 50.5989565,1.08521739 44.4271304,3.072 C44.5968696,3.65356522 44.9335652,4.17947826 45.4455652,4.54956522 L45.4455652,4.54956522 Z" id="Shape" fill="#444444"></path>
            <path d="M1.71965217,63.2765217 L18.56,50.944 C19.5255652,50.2372174 19.9318261,48.9906087 19.5645217,47.8497391 L13.197913,28.0041739 C13.005913,27.4086957 12.6135652,26.930087 12.1182609,26.5878261 C4.53843478,37.069913 0.0445217391,49.92 0.0027826087,63.8052174 C0.0250434783,63.8052174 0.0500869565,63.8135652 0.0723478261,63.8135652 C0.653913043,63.8163478 1.23269565,63.6326957 1.71965217,63.2765217 L1.71965217,63.2765217 Z" id="Shape" fill="#444444"></path>
            <path d="M44.0653913,123.005217 L37.5401739,103.181913 C37.1673043,102.043826 36.1043478,101.273043 34.9078261,101.267478 L14.08,101.192348 L14.0716522,101.192348 C13.4455652,101.192348 12.8667826,101.420522 12.3909565,101.787826 C20.2073043,112.434087 31.232,120.576 44.0264348,124.78887 C44.2267826,124.221217 44.2629565,123.600696 44.0653913,123.005217 L44.0653913,123.005217 Z" id="Shape" fill="#444444"></path>
            <path d="M113.917217,101.192348 L93.0893913,101.267478 C91.890087,101.273043 90.829913,102.041043 90.4570435,103.181913 L83.9318261,123.005217 C83.7370435,123.600696 83.7732174,124.221217 83.9735652,124.791652 C96.7707826,120.576 107.792696,112.434087 115.609043,101.790609 C115.130435,101.423304 114.551652,101.19513 113.928348,101.19513 C113.925565,101.192348 113.92,101.192348 113.917217,101.192348 L113.917217,101.192348 Z" id="Shape" fill="#444444"></path>
            <path d="M114.799304,28.0041739 L108.432696,47.8497391 C108.068174,48.9906087 108.471652,50.2372174 109.437217,50.944 L126.277565,63.2765217 C126.764522,63.6326957 127.340522,63.8135652 127.922087,63.8135652 C127.944348,63.8135652 127.969391,63.8052174 127.991652,63.8052174 C127.949913,49.92 123.456,37.069913 115.876174,26.5878261 C115.383652,26.930087 114.991304,27.4114783 114.799304,28.0041739 L114.799304,28.0041739 Z" id="Shape" fill="#444444"></path>
        </g>
    </g>
</svg>
