<?xml version="1.0" encoding="UTF-8"?>
<svg width="128px" height="128px" viewBox="0 0 128 128" version="1.1" xmlns="http://www.w3.org/2000/svg" xmlns:xlink="http://www.w3.org/1999/xlink">
    <!-- Generator: Sketch 41.2 (35397) - http://www.bohemiancoding.com/sketch -->
    <title>Group 6 Copy</title>
    <desc>Created with Sketch.</desc>
    <defs>
        <path d="M22.6831154,0.10648593 C11.5132283,8.93132551 3.358002,21.4117081 0.0401796114,35.7249353 L22.6831154,35.7249353 L22.6831154,0.10648593 L22.6831154,0.10648593 Z" id="path-1"></path>
        <path d="M0.0346885282,0.0814153806 C3.34900027,14.404407 11.5070743,26.8936224 22.6831425,35.7232932 L22.6831425,0.0814153806 L0.0346885282,0.0814153806 L0.0346885282,0.0814153806 Z" id="path-3"></path>
        <path d="M0.0334738068,11.0950097 C7.49593191,14.1691491 15.6656993,15.8655053 24.224203,15.8655053 C30.7404327,15.8655053 37.0313094,14.8821568 42.9562318,13.0560628 L42.9562317,0.072010148 L0.0334748414,0.072010148 L0.0334748414,11.0950167 L0.0334738068,11.0950097 Z" id="path-5"></path>
        <path d="M42.9563942,3.01895051 C37.0314243,1.19282101 30.7404922,0.209454545 24.224203,0.209454545 C15.6656579,0.209454545 7.49585291,1.90582716 0.0333655615,4.98000257 L0.0333665962,15.9762672 L42.9563941,15.9762672 L42.9563941,3.01894948 L42.9563942,3.01895051 Z" id="path-7"></path>
        <path d="M28.3831262,38.4310664 C24.7059286,22.5674903 15.0866295,8.95531448 2.00670861,0.0759881607 L0.184016913,0.0759881607 L0.184016913,38.4310664 L28.3831262,38.4310664 L28.3831262,38.4310664 Z" id="path-9"></path>
        <path d="M2.04100977,38.4365869 C15.1099495,29.5523731 24.7187076,15.9410924 28.3886092,0.0814501062 L0.184043975,0.0814501062 L0.184043975,38.4365869 L2.04100977,38.4365869 L2.04100977,38.4365869 Z" id="path-11"></path>
        <path d="M45.2358224,0.0741872058 C26.1231696,2.88063438 9.74194648,14.2054206 0.0845665962,30.0562304 L0.0845665962,32.905255 L45.2358224,32.905255 L45.2358224,0.0741872058 L45.2358224,0.0741872058 Z" id="path-13"></path>
        <path d="M0.0845665962,3.06750784 C9.74194648,18.9181859 26.1231696,30.2429541 45.2358224,33.0493988 L45.2358224,0.218547146 L0.0845665962,0.218547146 L0.0845665962,3.06750784 L0.0845665962,3.06750784 Z" id="path-15"></path>
        <path d="M3.27457046,40.4566869 C1.16642121,34.1337108 0.0243551797,27.3730365 0.0243551797,20.3506469 C0.0243551797,13.3105315 1.1721587,6.53346798 3.2904551,0.19676261 L25.3451636,0.196762791 L25.3451636,40.4566867 L3.27456872,40.4566867 L3.27457046,40.4566869 Z" id="path-17"></path>
        <path d="M0.0131247357,33.6219704 C18.106147,32.5916787 34.2025724,23.9765631 45.1643805,10.9146825 L45.1643805,0.218547146 L0.0131247357,0.218547146 L0.0131247357,33.6219704 L0.0131247357,33.6219704 Z" id="path-19"></path>
        <path d="M45.1643805,22.750223 C34.2025724,9.68825457 18.106147,1.0731335 0.0131247357,0.0428414596 L0.0131247357,33.4464812 L45.1643805,33.4464812 L45.1643805,22.750223 L45.1643805,22.750223 Z" id="path-21"></path>
        <path d="M27.854865,40.4566869 C29.9630164,34.1337108 31.1050825,27.3730365 31.1050825,20.3506469 C31.1050825,13.3105315 29.9572789,6.53346798 27.8389804,0.19676261 L0.0763940803,0.196762791 L0.0763940803,40.4566867 L27.8548668,40.4566867 L27.854865,40.4566869 Z" id="path-23"></path>
        <path d="M0.0630257928,1.94265861 C0.938964987,1.32932715 1.79883404,0.694543443 2.64186393,0.0390765328 L0.0630257928,0.0390765328 L0.0630257928,1.94265861 L0.0630257928,1.94265861 Z" id="path-25"></path>
    </defs>
    <g id="Page-1" stroke="none" stroke-width="1" fill="none" fill-rule="evenodd">
        <g id="Group-6-Copy">
            <g id="Page-1">
                <path d="M63.7338249,127.817499 C28.6041844,127.817499 0.0241928118,99.237507 0.0241928118,64.1078664 C0.0241928118,28.9779552 28.6041844,0.397963636 63.7338249,0.397963636 C98.8634655,0.397963636 127.443457,28.9779552 127.443457,64.1078664 C127.443457,99.237507 98.8634655,127.817499 63.7338249,127.817499" id="Fill-1" fill="#E5E4DF"></path>
                <g id="Group-123" transform="translate(0.000000, 0.188617)">
                    <g id="Group-5" transform="translate(1.623679, 13.801268)">
                        <mask id="mask-2" fill="white">
                            <use xlink:href="#path-1"></use>
                        </mask>
                        <g id="Clip-4"></g>
                        <path d="M-6.89489725,-2.60226977 C-6.89435603,-2.60226977 -6.8938148,-2.60226977 -6.89327357,-2.60199915 C-6.8938148,-2.60226977 -6.89435603,-2.60226977 -6.89489725,-2.60226977 L-6.89489725,-2.60226977 Z M-7.08107907,30.919929 L9.49992727,30.919929 C9.53673066,30.8568761 9.57596956,30.7954469 9.6181852,30.7361827 L17.7907011,16.5812228 C17.7971958,16.5701277 17.8036905,16.5590326 17.8101852,16.5479374 C17.806126,16.5409015 17.8020668,16.5338655 17.7980076,16.5268296 L9.58950021,2.3085463 C9.56135645,2.26606004 9.53456575,2.22276195 9.50939873,2.1783814 C9.49126765,2.17756956 9.47286596,2.17621649 9.45473488,2.17486342 L-7.07593742,2.17486342 C-7.09731586,2.20923129 -7.11923552,2.24305793 -7.14223763,2.27607273 L-15.3656288,16.5189818 C-15.3707704,16.5289945 -15.3759121,16.5390072 -15.3810537,16.5487493 L-7.10056321,30.8909734 C-7.0940685,30.9007154 -7.08757378,30.9101869 -7.08107907,30.919929 L-7.08107907,30.919929 Z M11.596367,32.1149564 L11.5990732,32.1149564 L11.596367,32.1149564 Z M9.75728034,35.7249353 L-7.26699027,35.7249353 C-8.81895645,35.7249353 -10.2586182,34.9149903 -11.0772228,33.5962926 C-11.1148381,33.5424406 -11.1500178,33.4872355 -11.1827619,33.4304068 L-19.5595907,18.9217556 C-19.5631087,18.9152609 -19.5668973,18.9090368 -19.5704152,18.9025421 L-19.734948,18.6175865 C-19.821003,18.4687493 -19.8900093,18.3120643 -19.941967,18.1502376 C-20.1395146,17.6358021 -20.2396414,17.0983645 -20.2396414,16.5492905 C-20.2396414,15.7363687 -20.0188211,14.9423899 -19.5993708,14.2431256 C-19.5926055,14.2306774 -19.5855696,14.2182292 -19.5785336,14.2060516 L-11.2125294,-0.283927273 C-11.184115,-0.332908245 -11.154077,-0.381077378 -11.1224152,-0.427893446 C-10.3127408,-1.79286596 -8.85873658,-2.63014292 -7.26699027,-2.63014292 L-7.21611501,-2.63014292 L9.62413869,-2.63014292 L9.70207526,-2.63014292 C11.373923,-2.63014292 12.9139822,-1.68651501 13.6841471,-0.208967442 C13.684959,-0.207614376 13.6857708,-0.206261311 13.6863121,-0.205178858 L21.9078089,14.0350241 C22.4157497,14.7832693 22.6831154,15.6495019 22.6831154,16.5492905 C22.6831154,17.4547619 22.4122317,18.3253243 21.8977962,19.0773581 L13.6771112,33.316208 C13.6530266,33.3578825 13.627589,33.3990156 13.6010689,33.439337 C12.8717666,34.7304321 11.5606461,35.5752863 10.0809336,35.7022038 C9.97350021,35.7173581 9.86552558,35.7249353 9.75728034,35.7249353 L9.75728034,35.7249353 Z" id="Fill-3" fill="#BFBCAF" mask="url(#mask-2)"></path>
                    </g>
                    <g id="Group-8" transform="translate(1.623679, 78.207188)">
                        <mask id="mask-4" fill="white">
                            <use xlink:href="#path-3"></use>
                        </mask>
                        <g id="Clip-7"></g>
                        <path d="M-6.88458689,0.110734884 C-6.88404567,0.110734884 -6.88323383,0.111005497 -6.8826926,0.111005497 C-6.88323383,0.111005497 -6.88404567,0.110734884 -6.88458689,0.110734884 L-6.88458689,0.110734884 Z M-7.08105201,33.6315805 L9.49968372,33.6315805 C9.5364871,33.5687983 9.575726,33.5076397 9.61767104,33.4483755 L17.7907281,19.2926038 L17.8102123,19.2593184 C17.8061531,19.2522825 17.8020939,19.2452465 17.7980347,19.2382106 L9.58925666,5.02019789 C9.5611129,4.97744101 9.53459281,4.93414292 9.50942579,4.89003298 C9.49048288,4.88895053 9.47181057,4.88759746 9.45313827,4.8862444 L-7.07591036,4.8862444 C-7.09701818,4.92061226 -7.11920846,4.9544389 -7.14221057,4.9874537 L-15.3656017,19.2306334 C-15.3707433,19.2406461 -15.375885,19.2506588 -15.3810266,19.2606715 L-7.10107738,33.6018131 C-7.09431205,33.6115552 -7.08754672,33.6215679 -7.08105201,33.6315805 L-7.08105201,33.6315805 Z M11.5963941,34.8263374 L11.5991002,34.8263374 L11.5963941,34.8263374 Z M9.7573074,38.4365869 L-7.26696321,38.4365869 C-8.81838816,38.4365869 -10.2577793,37.6271831 -11.0766545,36.3090266 C-11.1142698,36.2546334 -11.1497201,36.1988871 -11.1827349,36.1420584 L-19.5595636,21.6334072 C-19.5641641,21.6255594 -19.5687645,21.617441 -19.5730943,21.6093226 L-19.7346503,21.3295087 C-19.8209759,21.1804008 -19.8902529,21.0231746 -19.9422106,20.8610774 C-20.1397581,20.3466419 -20.2396144,19.8094748 -20.2396144,19.2609421 C-20.2396144,18.4477497 -20.0185235,17.6535002 -19.5990732,16.9542359 C-19.5923078,16.9417877 -19.5855425,16.9296101 -19.5785066,16.9174326 L-11.2125023,2.42772431 C-11.1840879,2.37874334 -11.1540499,2.33057421 -11.1226588,2.28375814 C-10.3086545,0.911749683 -8.856274,0.07122537 -7.24233742,0.0815086681 L-7.21608795,0.0815086681 L9.62416575,0.0815086681 L9.70210233,0.0815086681 C11.3736795,0.0815086681 12.9137387,1.02486596 13.6841742,2.50268414 C13.684986,2.50403721 13.6857979,2.50539027 13.6863391,2.50674334 L21.9075653,16.7466757 C22.4155061,17.4949209 22.6831425,18.3608829 22.6831425,19.2609421 C22.6831425,20.1661429 22.4122588,21.0369759 21.8978233,21.7887391 L13.6768677,36.0278596 C13.6530537,36.0692634 13.6278867,36.1098554 13.6016372,36.1499061 C12.8731467,37.4401894 11.5636499,38.2847729 10.0855611,38.4133142 C9.97677463,38.4287391 9.86690571,38.4365869 9.7573074,38.4365869 L9.7573074,38.4365869 Z" id="Fill-6" fill="#BFBCAF" mask="url(#mask-4)"></path>
                    </g>
                    <path d="M23.6343205,61.506219 L40.2150562,61.506219 C40.251589,61.4434368 40.2908279,61.3822782 40.3330436,61.323014 L48.5055594,47.1675129 C48.5120541,47.1561471 48.5188195,47.145052 48.5253142,47.1339569 C48.521255,47.1269209 48.5171958,47.119885 48.5131366,47.112849 L40.3046292,32.8945658 C40.276756,32.8523501 40.2499653,32.809052 40.2247983,32.7646715 C40.2063966,32.7638596 40.1882655,32.7625066 40.1701345,32.7611535 L23.6394622,32.7611535 C23.6178131,32.7960626 23.5953522,32.8301598 23.5720795,32.8639865 L15.3497708,47.1055425 C15.3446292,47.1152846 15.3392169,47.1252973 15.3340753,47.1353099 L23.6134833,61.4750985 C23.6205192,61.4853818 23.6275552,61.4956651 23.6343205,61.506219 L23.6343205,61.506219 Z M42.311496,62.7012465 L42.3142021,62.7012465 L42.311496,62.7012465 Z M40.4724093,66.3112254 L23.4484093,66.3112254 C21.8969844,66.3112254 20.4581345,65.5020922 19.6395298,64.1847476 C19.6013734,64.1303543 19.5656524,64.0743374 19.5326376,64.0166968 L11.1558089,49.5080457 C11.1520203,49.501551 11.1482317,49.4947856 11.1441725,49.4880203 L10.980181,49.2041471 C10.8943966,49.0555805 10.8253903,48.8988956 10.7731619,48.7370689 C10.5756144,48.2220922 10.4754875,47.6843839 10.4754875,47.1355805 C10.4754875,46.3223882 10.6965784,45.5281387 11.1162994,44.8286038 C11.1230647,44.8164262 11.12983,44.8042486 11.136866,44.7923416 L19.5025996,30.3023628 C19.5312846,30.25257 19.5615932,30.2041302 19.5937962,30.1567729 C20.4032,28.7928829 21.856663,27.9561471 23.4484093,27.9561471 C23.4651873,27.9564178 23.4825066,27.9561471 23.4992846,27.9561471 L40.3392677,27.9561471 L40.4172042,27.9561471 C42.089052,27.9561471 43.6291112,28.8995044 44.3992761,30.377052 C44.4000879,30.3784051 44.4008998,30.3797581 44.4017116,30.3811112 L52.6226672,44.6210436 C53.1308786,45.3692888 53.398515,46.2355214 53.398515,47.1355805 C53.398515,48.0413226 53.1270901,48.9121556 52.6123839,49.6641894 L44.3922402,63.9022275 C44.3681556,63.9439019 44.3429886,63.9847645 44.3167391,64.0245446 C43.587978,65.3159104 42.2773987,66.1607645 40.7982275,66.2882233 C40.6902529,66.3033776 40.5814664,66.3112254 40.4724093,66.3112254 L40.4724093,66.3112254 Z" id="Fill-9" fill="#BFBCAF"></path>
                    <path d="M23.8191763,61.5547129 L23.8208,61.5547129 L23.8191763,61.5547129 L23.8191763,61.5547129 Z M23.6343476,95.0771822 L40.2148127,95.0771822 C40.2516161,95.0144 40.290855,94.9529708 40.3328,94.8939772 L48.5055865,80.7384761 C48.5120812,80.7271104 48.5185759,80.7160152 48.5253412,80.7049201 C48.521282,80.6976135 48.5172228,80.6908482 48.5131636,80.6838123 L40.3043856,66.465529 C40.2765125,66.4230427 40.2497218,66.3797446 40.2245548,66.3356347 C40.2064237,66.3345522 40.1882926,66.3334698 40.1701615,66.3321167 L23.6394892,66.3321167 C23.6178402,66.3670258 23.5951087,66.4016643 23.5715653,66.4352203 L15.3497979,80.6762351 C15.3446562,80.6859772 15.3395146,80.6959899 15.3341023,80.7062732 L23.6135104,95.0460617 C23.6205463,95.056345 23.6275822,95.0666283 23.6343476,95.0771822 L23.6343476,95.0771822 Z M42.311523,96.2719391 L42.3142292,96.2719391 L42.311523,96.2719391 Z M40.4724364,99.8821886 L23.4484364,99.8821886 C21.8970114,99.8821886 20.4584321,99.073326 19.6398275,97.7557108 C19.601671,97.7010469 19.5656795,97.64503 19.5326647,97.58766 L11.1558359,83.0790089 C11.1520474,83.0727848 11.1482588,83.0657488 11.1444702,83.0589835 L10.9804786,82.775381 C10.8944237,82.6262732 10.8248761,82.4693175 10.7729184,82.3072203 C10.5753708,81.7922436 10.4755146,81.2550765 10.4755146,80.7062732 C10.4755146,79.8933514 10.6966055,79.0993725 11.1160558,78.3998376 C11.1228211,78.3873894 11.1298571,78.3752118 11.136893,78.3630342 L19.5026266,63.873326 C19.5313116,63.8232626 19.5621615,63.7745522 19.5943645,63.7269243 C20.4037683,62.3633049 21.8569607,61.5271104 23.4484364,61.5271104 C23.4646732,61.5271104 23.4819924,61.5268397 23.4993116,61.5271104 L40.3392947,61.5271104 C40.3652736,61.5271104 40.3904406,61.5268397 40.4172313,61.5271104 C42.0890791,61.5271104 43.6291383,62.4704677 44.3993032,63.9482858 C44.400115,63.9493683 44.4009268,63.9507214 44.4017387,63.9520744 L52.6226943,78.1917362 C53.1306351,78.940252 53.3985421,79.8064846 53.3985421,80.7062732 C53.3985421,81.6122858 53.1271171,82.4831188 52.612411,83.234882 L44.3919966,97.4729201 C44.3681827,97.5148651 44.3430156,97.5554571 44.3167662,97.5955078 C43.5885463,98.8857911 42.2787789,99.7303746 40.8006901,99.8589159 C40.6919036,99.8743408 40.5820347,99.8821886 40.4724364,99.8821886 L40.4724364,99.8821886 Z" id="Fill-11" fill="#BFBCAF"></path>
                    <path d="M52.8868127,11.1988634 C52.8873539,11.1988634 52.8876245,11.1988634 52.8881658,11.199134 C52.8876245,11.1988634 52.8873539,11.1988634 52.8868127,11.1988634 L52.8868127,11.1988634 Z M52.7014427,44.7210622 L69.2821784,44.7210622 C69.3192524,44.6577387 69.3587619,44.5960389 69.4012482,44.536504 L77.5734934,30.382356 C77.5797175,30.3712609 77.5862123,30.3601658 77.5929776,30.3493412 C77.5886478,30.3423053 77.5845886,30.3349987 77.5805294,30.3279628 L69.3739163,16.1129268 C69.3449607,16.0696288 69.3176288,16.0249776 69.2916499,15.9797852 C69.2735188,15.9787027 69.2553877,15.9776203 69.2375273,15.9762672 L52.7065844,15.9762672 C52.6852059,16.0109057 52.662745,16.045003 52.6394723,16.078559 L44.416893,30.3203856 C44.4117514,30.3301277 44.4066097,30.3401404 44.4014681,30.3501531 L52.6806055,44.6899416 C52.6876414,44.7002249 52.6946774,44.7105082 52.7014427,44.7210622 L52.7014427,44.7210622 Z M71.3788888,45.9163603 L71.3815949,45.9163603 L71.3788888,45.9163603 Z M69.5398021,49.5260685 L52.5155315,49.5260685 C50.9643772,49.5260685 49.5260685,48.7174765 48.7071932,47.4004025 C48.6690368,47.3457387 48.6330452,47.2894512 48.5997598,47.2318106 L40.2229311,32.7228888 C40.2221192,32.7215357 40.2213074,32.7201827 40.2204956,32.718559 C40.2188719,32.7161235 40.2175188,32.7134173 40.2161658,32.7109818 L40.0470326,32.4181784 C39.9617894,32.2704237 39.8930537,32.1148211 39.841096,31.954077 C39.6432778,31.438559 39.5428803,30.9003095 39.5428803,30.3506943 C39.5428803,29.5375019 39.7637006,28.743523 40.183151,28.0442588 C40.1901869,28.0318106 40.1969522,28.0193624 40.2039882,28.0071848 L48.5699924,13.5174765 C48.5984068,13.4679543 48.628986,13.4195146 48.6606478,13.3721573 C49.4703222,12.0079966 50.9240558,11.1712609 52.5155315,11.1712609 L52.5666774,11.1712609 L69.4066605,11.1712609 L69.484597,11.1712609 C71.1545505,11.1712609 72.692986,12.1127239 73.4642334,13.5878359 L73.4691044,13.5962249 L81.6903307,27.8364279 C82.1980008,28.5852144 82.4659078,29.4511763 82.4659078,30.3506943 C82.4659078,31.2558951 82.1947535,32.1264575 81.680318,32.8784913 L73.4593624,47.1173412 C73.4352778,47.1595569 73.4095696,47.2012313 73.3827789,47.2415526 C72.6537471,48.5321066 71.3426266,49.3764195 69.8631848,49.503337 C69.756022,49.5184913 69.6480474,49.5260685 69.5398021,49.5260685 L69.5398021,49.5260685 Z" id="Fill-13" fill="#BFBCAF"></path>
                    <g id="Group-17" transform="translate(39.509514, 111.763214)">
                        <mask id="mask-6" fill="white">
                            <use xlink:href="#path-5"></use>
                        </mask>
                        <g id="Clip-16"></g>
                        <path d="M13.1920372,33.622082 L29.7727729,33.622082 C29.8095763,33.5590292 29.8493564,33.4973294 29.8913015,33.4380651 L38.0638173,19.2831053 C38.0703121,19.2722808 38.0768068,19.2611856 38.0830309,19.2500905 C38.0792423,19.2430545 38.0749125,19.2360186 38.0711239,19.2287121 L29.8628871,5.01124059 C29.8344727,4.96875433 29.807682,4.92518562 29.782515,4.88080507 C29.7635721,4.87972262 29.7448998,4.87836956 29.7262275,4.87701649 L13.1971789,4.87701649 C13.1758004,4.91111374 13.1538808,4.94466977 13.1308786,4.97768457 L4.90748753,19.2211349 C4.90234588,19.2311476 4.89720423,19.2408896 4.89179197,19.2511729 L13.1703882,33.5898791 C13.1776947,33.6007036 13.1850013,33.6112575 13.1920372,33.622082 L13.1920372,33.622082 Z M31.8694833,34.8171095 L31.8719188,34.8171095 L31.8694833,34.8171095 Z M30.0303966,38.4270884 L13.006126,38.4270884 C11.4555129,38.4270884 10.0174748,37.6190376 9.19859958,36.3025049 C9.1599019,36.2475704 9.12391036,36.1907416 9.09035433,36.1328304 L0.714878647,21.6266148 C0.711901903,21.6214732 0.709195772,21.6166021 0.706219027,21.6114605 L0.537356448,21.3183865 C0.452113319,21.1709023 0.38337759,21.0155704 0.331961099,20.8550968 C0.133601691,20.3395789 0.0334748414,19.8013294 0.0334748414,19.2514436 C0.0334748414,18.4387924 0.254024524,17.6448135 0.673474841,16.9452786 C0.680510782,16.9328304 0.687546723,16.9203822 0.694582664,16.907934 L9.06031628,2.41822579 C9.08873066,2.36951543 9.1184981,2.32161691 9.15015983,2.27507146 C9.95956364,0.909557717 11.4138385,0.072010148 13.006126,0.072010148 C13.022904,0.072010148 13.0402233,0.0722807611 13.0572719,0.072010148 L29.8969844,0.072010148 L29.9751915,0.072010148 C31.6459569,0.072010148 33.1854748,1.0145556 33.9559104,2.49102072 C33.9569928,2.49318562 33.9583459,2.49535053 33.9594283,2.49724482 L42.1806545,16.7371772 C42.6885953,17.485693 42.9562317,18.351655 42.9562317,19.2514436 C42.9562317,20.1566444 42.685348,21.0274774 42.1711831,21.7792406 L33.9499569,36.0183611 C33.9256017,36.0603061 33.9001641,36.1014393 33.8739146,36.1417607 C33.1446123,37.4328558 31.8334918,38.2777099 30.3535087,38.4043569 C30.2463459,38.4195112 30.1383712,38.4270884 30.0303966,38.4270884 L30.0303966,38.4270884 Z" id="Fill-15" fill="#BFBCAF" mask="url(#mask-6)"></path>
                    </g>
                    <g id="Group-20" transform="translate(39.509514, 0.000000)">
                        <mask id="mask-8" fill="white">
                            <use xlink:href="#path-7"></use>
                        </mask>
                        <g id="Clip-19"></g>
                        <path d="M13.3772989,-22.3512085 C13.3778402,-22.3512085 13.3781108,-22.3512085 13.378652,-22.3509378 C13.3781108,-22.3512085 13.3778402,-22.3512085 13.3772989,-22.3512085 L13.3772989,-22.3512085 Z M13.1921996,11.1712609 L29.7726647,11.1712609 C29.8097387,11.1079374 29.8489776,11.0465082 29.8911932,10.987244 L38.0639797,-3.16771586 C38.0702038,-3.17881099 38.0766985,-3.18990613 38.0834638,-3.20073066 C38.079134,-3.2077666 38.0750748,-3.21507315 38.0710156,-3.22210909 L29.8644025,-17.437145 C29.8354469,-17.4804431 29.808115,-17.5250943 29.7821362,-17.5702867 C29.7640051,-17.5713691 29.745874,-17.5724516 29.7277429,-17.5738047 L13.1970706,-17.5738047 C13.1756922,-17.5394368 13.1535019,-17.5056101 13.1304998,-17.4723247 L4.90792051,-3.23076871 C4.90277886,-3.22048541 4.8973666,-3.21020211 4.89195433,-3.19991882 L13.1710918,11.1398698 C13.1781277,11.1501531 13.1851636,11.160707 13.1921996,11.1712609 L13.1921996,11.1712609 Z M31.8693751,12.3662884 L31.8720812,12.3662884 L31.8693751,12.3662884 Z M30.0302884,15.9762672 L13.0060178,15.9762672 C11.455134,15.9762672 10.0165548,15.1674047 9.19767949,13.8503307 C9.15952304,13.7956668 9.1235315,13.7393793 9.09024609,13.6817387 L0.713417336,-0.827183087 L0.70935814,-0.833948414 C0.7085463,-0.835572093 0.707734461,-0.837195772 0.706922622,-0.838548837 L0.537789429,-1.13135222 C0.4525463,-1.27937759 0.383539958,-1.43525074 0.331582241,-1.59599493 C0.133764059,-2.1115129 0.0333665962,-2.64976237 0.0333665962,-3.19937759 C0.0333665962,-4.01175814 0.253916279,-4.80546638 0.67282537,-5.50446004 C0.679861311,-5.51717886 0.687167865,-5.53016829 0.694474419,-5.5428871 L9.06047865,-20.0325953 C9.08889302,-20.0818469 9.11893108,-20.1300161 9.15059281,-20.1768321 C9.96026723,-21.5418047 11.4140008,-22.378811 13.0060178,-22.378811 L13.0571636,-22.378811 L29.8971467,-22.378811 L29.9750833,-22.378811 C31.6450368,-22.378811 33.1834723,-21.437348 33.9547197,-19.9622359 C33.9563433,-19.9595298 33.957967,-19.9565531 33.9595907,-19.9538469 L42.1808169,-5.71364397 C42.6884871,-4.96485751 42.9563941,-4.09889556 42.9563941,-3.19937759 C42.9563941,-2.29417674 42.6852397,-1.42361438 42.1708042,-0.67158055 L33.9498486,13.5672693 C33.9257641,13.609485 33.9003264,13.6506182 33.8735357,13.6909395 C33.1450452,14.9809522 31.8350072,15.8255357 30.3563772,15.9532651 C30.2484025,15.9684195 30.1390748,15.9762672 30.0302884,15.9762672 L30.0302884,15.9762672 Z" id="Fill-18" fill="#BFBCAF" mask="url(#mask-8)"></path>
                    </g>
                    <path d="M52.8972584,78.317923 C52.8977996,78.317923 52.8983408,78.317923 52.898882,78.3181937 C52.8983408,78.317923 52.8977996,78.317923 52.8972584,78.317923 L52.8972584,78.317923 Z M52.7018757,111.838769 L69.2820702,111.838769 C69.3188736,111.775445 69.3586537,111.714016 69.4008693,111.654481 L77.5733852,97.499792 C77.5796093,97.4886968 77.5863746,97.4776017 77.5928693,97.4667772 C77.5888101,97.4594706 77.5844803,97.4524347 77.5804211,97.4453987 L69.373808,83.2303628 C69.345123,83.1867941 69.3175205,83.1424135 69.2918123,83.0972211 C69.2728693,83.0961387 69.254197,83.0947856 69.2355247,83.0934326 L52.7067467,83.0934326 C52.6853683,83.128071 52.6629074,83.1624389 52.6396347,83.1957243 L44.4170554,97.4378216 C44.4119137,97.4478342 44.4067721,97.4578469 44.4013598,97.4678596 L52.679956,111.806295 L52.7018757,111.838769 Z M71.3787805,113.033526 L71.3814867,113.033526 L71.3787805,113.033526 Z M69.5399645,116.643775 L52.5156939,116.643775 C50.9650808,116.643775 49.5270427,115.835454 48.7081674,114.519192 C48.6694698,114.463986 48.6334782,114.407158 48.5999222,114.349247 L40.2230934,99.8405953 C40.2201167,99.8357243 40.2174106,99.8305827 40.2144338,99.8259822 L40.0474655,99.535885 C39.9619518,99.3878596 39.8929455,99.2319865 39.8409877,99.0707011 C39.6428989,98.5554537 39.5427721,98.0174748 39.5427721,97.4681302 C39.5427721,96.6549378 39.763863,95.8606884 40.1835839,95.1614241 C40.1900786,95.1489759 40.1971146,95.1367983 40.2041505,95.1246207 L48.5698841,80.6349125 C48.5985691,80.5853903 48.6288778,80.5369505 48.6608101,80.4898638 C49.470214,79.1251619 50.9239476,78.2886968 52.5156939,78.2886968 C52.5322013,78.2886968 52.5495205,78.2884262 52.5668397,78.2886968 L69.4065522,78.2886968 L69.4844888,78.2886968 C71.1544423,78.2886968 72.6931484,79.2301598 73.4641252,80.7052719 C73.4657488,80.7082486 73.4673725,80.7109548 73.4689962,80.7139315 L81.690493,94.9541345 C82.1981632,95.7026503 82.4657996,96.5686123 82.4657996,97.4681302 C82.4657996,98.3733311 82.1949159,99.2438934 81.680751,99.9959273 L73.4595247,114.235048 C73.4351696,114.276722 73.4097319,114.317855 73.3834825,114.358177 C72.654992,115.647919 71.3457658,116.492232 69.8679476,116.620502 C69.7591611,116.635927 69.6495628,116.643775 69.5399645,116.643775 L69.5399645,116.643775 Z" id="Fill-21" fill="#BFBCAF"></path>
                    <path d="M81.7446427,61.506219 L98.3253784,61.506219 C98.3621818,61.4428956 98.4016913,61.3814664 98.443907,61.3222021 L106.615882,47.1675129 C106.622376,47.1561471 106.628871,47.145052 106.635636,47.1336863 C106.631577,47.1269209 106.627518,47.119885 106.623729,47.112849 L98.4165751,32.8978131 C98.3881607,32.854515 98.3605581,32.8098638 98.3348499,32.7646715 C98.3167188,32.7638596 98.2985877,32.7625066 98.280186,32.7611535 L81.7497844,32.7611535 C81.7281353,32.795792 81.705945,32.8296186 81.6829429,32.8626334 L73.4614461,47.103107 C73.4557632,47.1136609 73.4500803,47.1244854 73.4443975,47.1353099 L81.7238055,61.4750985 C81.7308414,61.4853818 81.7378774,61.4956651 81.7446427,61.506219 L81.7446427,61.506219 Z M100.422089,62.7012465 L100.424524,62.7012465 L100.422089,62.7012465 Z M98.5830021,66.3112254 L81.5587315,66.3112254 C80.0075772,66.3112254 78.5687273,65.5023628 77.749852,64.1850182 C77.7119662,64.1303543 77.6762452,64.0743374 77.6429598,64.0166968 L69.2661311,49.5080457 C69.2626131,49.5018216 69.2588245,49.4955975 69.2555772,49.4893734 L69.0902326,49.2033353 C69.0049894,49.0555805 68.9359831,48.8997074 68.884296,48.7386926 C68.6859366,48.222904 68.5858097,47.6846545 68.5858097,47.1355805 C68.5858097,46.3237412 68.8060888,45.5308448 69.2244567,44.8321218 C69.2320338,44.8185911 69.2393404,44.8056017 69.2469175,44.7923416 L77.6129218,30.3023628 C77.6416068,30.2531112 77.6713742,30.2052127 77.7030359,30.158126 C78.5127104,28.7934241 79.9667146,27.9561471 81.5587315,27.9561471 L81.6098774,27.9561471 L98.4495899,27.9561471 L98.527797,27.9561471 C100.19748,27.9561471 101.736186,28.8976101 102.507433,30.3727222 C102.508786,30.3754283 102.51041,30.3784051 102.512034,30.3811112 L110.73326,44.6213142 C111.241201,45.36983 111.508837,46.2360626 111.508837,47.1355805 C111.508837,48.0415932 111.237412,48.9124262 110.722706,49.66446 L102.502562,63.9022275 C102.478478,63.9441725 102.45277,63.9853057 102.42652,64.0256271 C101.697488,65.316181 100.38745,66.1607645 98.9085497,66.2882233 C98.8005751,66.3033776 98.6917886,66.3112254 98.5830021,66.3112254 L98.5830021,66.3112254 Z" id="Fill-23" fill="#BFBCAF"></path>
                    <path d="M81.9299044,61.5547129 C81.9304457,61.5547129 81.9312575,61.5547129 81.9317987,61.5549835 C81.9312575,61.5547129 81.9304457,61.5547129 81.9299044,61.5547129 L81.9299044,61.5547129 Z M81.7445345,95.0771822 L98.3252702,95.0771822 C98.3620736,95.0138588 98.4015831,94.9524296 98.4437987,94.8928947 L106.616044,80.7384761 C106.622268,80.7271104 106.629033,80.7157446 106.635799,80.7046495 C106.631469,80.6976135 106.62768,80.6908482 106.623621,80.6838123 L98.417008,66.4687763 C98.3880524,66.4252076 98.3607205,66.3808271 98.3347416,66.3356347 C98.3166106,66.3345522 98.2984795,66.3334698 98.2803484,66.3321167 L81.7496761,66.3321167 C81.7282977,66.3667552 81.7061074,66.4008524 81.6828347,66.4341378 L73.4610672,80.6740702 C73.455655,80.6846241 73.4499721,80.695178 73.4445598,80.7062732 L81.7236973,95.0460617 C81.7310038,95.056345 81.7377691,95.0666283 81.7445345,95.0771822 L81.7445345,95.0771822 Z M100.421981,96.2719391 L100.424687,96.2719391 L100.421981,96.2719391 Z M98.5828939,99.8821886 L81.5588939,99.8821886 C80.0077395,99.8821886 78.5688896,99.073326 77.750285,97.7559814 C77.7118579,97.7013175 77.676137,97.64503 77.6428516,97.58766 L69.2660228,83.0790089 C69.2625049,83.0727848 69.2589869,83.0665607 69.2554689,83.0603366 L69.0906655,82.7748397 C69.0048812,82.6262732 68.9356042,82.4701294 68.8839171,82.3085734 C68.6860989,81.7930554 68.5857015,81.2553471 68.5857015,80.7062732 C68.5857015,79.8947044 68.8062512,79.1020786 69.224619,78.403085 C69.2319256,78.3898249 69.2392321,78.3762943 69.2470799,78.3630342 L77.6130841,63.873326 C77.6414985,63.8238038 77.6720778,63.7756347 77.7037395,63.7282774 C78.5174732,62.3568101 79.9833844,61.5087087 81.5835197,61.5271104 L81.6097691,61.5271104 L98.4497522,61.5271104 L98.5276888,61.5271104 C100.197642,61.5271104 101.736078,62.4685734 102.507325,63.9436854 C102.508949,63.9463915 102.510573,63.9493683 102.512196,63.9520744 L110.733422,78.1922774 C111.241093,78.9410638 111.509,79.8070258 111.509,80.7062732 C111.509,81.6122858 111.237575,82.4833894 110.722598,83.2351526 L102.502454,97.4729201 C102.47864,97.5151357 102.452932,97.5562689 102.426412,97.5965903 C101.698192,98.8860617 100.388695,99.7303746 98.9111476,99.8589159 C98.8023611,99.8743408 98.6924922,99.8821886 98.5828939,99.8821886 L98.5828939,99.8821886 Z" id="Fill-25" fill="#BFBCAF"></path>
                    <g id="Group-29" transform="translate(97.420719, 11.095137)">
                        <mask id="mask-10" fill="white">
                            <use xlink:href="#path-9"></use>
                        </mask>
                        <g id="Clip-28"></g>
                        <path d="M13.5271374,0.103590698 C13.5276786,0.103590698 13.5282199,0.103590698 13.5287611,0.103861311 C13.5282199,0.103590698 13.5276786,0.103590698 13.5271374,0.103590698 L13.5271374,0.103590698 Z M13.3428499,33.62606 L29.9235856,33.62606 C29.9601184,33.5632778 29.9993573,33.5023899 30.0410317,33.4433962 L38.21463,19.2873539 C38.2208541,19.2762588 38.2273488,19.2651636 38.2341142,19.2540685 C38.2297844,19.2470326 38.2257252,19.2399966 38.221666,19.2329607 L30.0131586,5.01467738 C29.9850148,4.97219112 29.9584947,4.92889302 29.9330571,4.88451247 C29.914926,4.88370063 29.8965243,4.88234757 29.8786638,4.8809945 L13.3479915,4.8809945 C13.3260719,4.91671543 13.3033404,4.95135391 13.2795264,4.98572178 L5.05667653,19.2275484 L5.04233404,19.2548803 L13.3209302,33.5935865 C13.3285074,33.6041404 13.3355433,33.6149649 13.3428499,33.62606 L13.3428499,33.62606 Z M32.0200254,34.8210875 L32.0227315,34.8210875 L32.0200254,34.8210875 Z M30.1809387,38.4310664 L13.1569387,38.4310664 C11.606055,38.4310664 10.1680169,37.6230156 9.34941226,36.3067535 C9.31071459,36.2515484 9.27445243,36.1947197 9.24089641,36.1365378 L0.864067653,21.6278867 C0.86027907,21.6216626 0.857031712,21.6151679 0.853243129,21.6086732 L0.688710359,21.3237175 C0.602384778,21.1746097 0.533107822,21.0176541 0.481420719,20.8555569 C0.28387315,20.3411214 0.184016913,19.8039543 0.184016913,19.2554216 C0.184016913,18.4414173 0.405649049,17.6466266 0.825640592,16.9465505 C0.832135307,16.9349142 0.838630021,16.9235484 0.845395349,16.9121827 L9.21112896,2.42220381 C9.24008457,2.37186977 9.27093446,2.32261818 9.30394926,2.27444905 C10.1133531,0.911641438 11.5660042,0.0759881607 13.1569387,0.0759881607 C13.1737167,0.0762587738 13.1910359,0.0762587738 13.207814,0.0759881607 L30.047797,0.0759881607 L30.1257336,0.0759881607 C31.7975814,0.0759881607 33.3376406,1.01961607 34.1078055,2.49716364 L34.110241,2.50095222 L42.3311966,16.7408846 C42.8391374,17.4894004 43.1070444,18.3553624 43.1070444,19.2554216 C43.1070444,20.160893 42.8358901,21.0314554 42.3214545,21.7834892 L34.1004989,36.0223391 C34.076685,36.0637429 34.0517886,36.1043349 34.0252685,36.144115 C33.2962368,37.436022 31.9845751,38.2814173 30.5043214,38.4083349 C30.3971586,38.4234892 30.2889133,38.4310664 30.1809387,38.4310664 L30.1809387,38.4310664 Z" id="Fill-27" fill="#BFBCAF" mask="url(#mask-10)"></path>
                    </g>
                    <g id="Group-32" transform="translate(97.420719, 78.207188)">
                        <mask id="mask-12" fill="white">
                            <use xlink:href="#path-11"></use>
                        </mask>
                        <g id="Clip-31"></g>
                        <path d="M13.5377184,0.110464271 C13.5382596,0.110464271 13.5388008,0.110734884 13.5393421,0.110734884 C13.5388008,0.110734884 13.5382596,0.110464271 13.5377184,0.110464271 L13.5377184,0.110464271 Z M13.342877,33.6315805 L29.9236127,33.6315805 C29.9601455,33.5690689 29.9991137,33.508181 30.0407882,33.4491873 L38.2143865,19.2926038 C38.2208812,19.2815087 38.2273759,19.2704135 38.2341412,19.259589 C38.2298114,19.2522825 38.2254816,19.2452465 38.221693,19.2382106 L30.0131856,5.02019789 C29.9850419,4.97744101 29.9585218,4.93414292 29.9330841,4.89003298 C29.9144118,4.88895053 29.8954689,4.88759746 29.8767966,4.8862444 L13.3482892,4.8862444 C13.3263696,4.92169471 13.3033674,4.95660381 13.2795535,4.99097167 L5.05697421,19.2327983 C5.05237378,19.2419992 5.04723214,19.2512 5.0423611,19.2606715 L13.3204161,33.5977539 C13.3282638,33.6091197 13.3355704,33.6202148 13.342877,33.6315805 L13.342877,33.6315805 Z M32.0200524,34.8263374 L32.0227586,34.8263374 L32.0200524,34.8263374 Z M30.1809658,38.4365869 L13.1569658,38.4365869 C11.6066233,38.4365869 10.169397,37.6290774 9.35025116,36.3133564 C9.31128288,36.2578808 9.27475011,36.2005108 9.24092347,36.1420584 L0.864094715,21.6334072 C0.859494292,21.6252888 0.854623256,21.6171704 0.84975222,21.6082402 L0.689008034,21.3295087 C0.602411839,21.1801302 0.532864271,21.0226334 0.481177167,20.8602655 C0.283900211,20.3461006 0.184043975,19.8092042 0.184043975,19.2609421 C0.184043975,18.4466672 0.40567611,17.6518765 0.825667653,16.9518004 C0.832432981,16.9404347 0.838657082,16.9290689 0.84542241,16.9174326 L9.21115603,2.42772431 C9.24011163,2.37739027 9.27096152,2.32786808 9.30370571,2.28024017 C10.1174393,0.909855391 11.5733378,0.0733902748 13.1815915,0.0815086681 L13.207841,0.0815086681 L30.0478241,0.0815086681 L30.1257607,0.0815086681 C31.7976085,0.0815086681 33.3376677,1.02486596 34.1081032,2.50268414 C34.108915,2.50403721 34.1094562,2.50539027 34.1099975,2.50647273 L42.3312237,16.7464051 C42.8391645,17.4946503 43.1070715,18.3608829 43.1070715,19.2609421 C43.1070715,20.1661429 42.8361877,21.0367053 42.3217522,21.7887391 L34.100526,36.0278596 C34.0767121,36.0687222 34.0520863,36.1090436 34.0258368,36.1488237 C33.2978875,37.4393776 31.9875789,38.2847729 30.5092195,38.4133142 C30.4001624,38.4287391 30.2905641,38.4365869 30.1809658,38.4365869 L30.1809658,38.4365869 Z" id="Fill-30" fill="#BFBCAF" mask="url(#mask-12)"></path>
                    </g>
                    <g id="Group-35" transform="translate(9.200846, 0.811839)">
                        <mask id="mask-14" fill="white">
                            <use xlink:href="#path-13"></use>
                        </mask>
                        <g id="Clip-34"></g>
                        <polygon id="Fill-33" fill="#464A4C" mask="url(#mask-14)" points="12.5498182 32.905255 10.3472981 31.5933226 0.0845665962 13.81783 0.272642706 11.4069378 10.3115772 -5.98076617 12.6107061 -7.35466892 32.81874 -7.35466892 35.1968879 -5.8863222 45.2358224 11.5016524 45.1890063 14.1295763 35.1855222 31.4561218 32.9784017 32.905255"></polygon>
                    </g>
                    <path d="M24.2610334,31.2067247 C24.2610334,32.5930757 23.1371772,33.7172025 21.7505556,33.7172025 C20.3642047,33.7172025 19.2403484,32.5930757 19.2403484,31.2067247 C19.2403484,29.8203738 20.3642047,28.6962469 21.7505556,28.6962469 C23.1371772,28.6962469 24.2610334,29.8203738 24.2610334,31.2067247" id="Fill-36" fill="#464A4C"></path>
                    <path d="M44.614197,31.2067247 C44.614197,32.5930757 43.4903408,33.7172025 42.1037192,33.7172025 C40.7173683,33.7172025 39.5935121,32.5930757 39.5935121,31.2067247 C39.5935121,29.8203738 40.7173683,28.6962469 42.1037192,28.6962469 C43.4903408,28.6962469 44.614197,29.8203738 44.614197,31.2067247" id="Fill-38" fill="#464A4C"></path>
                    <path d="M54.8077057,13.5893784 C54.8077057,14.9757294 53.6838495,16.0998562 52.2972279,16.0998562 C50.910877,16.0998562 49.7870207,14.9757294 49.7870207,13.5893784 C49.7870207,12.2030275 50.910877,11.0789006 52.2972279,11.0789006 C53.6838495,11.0789006 54.8077057,12.2030275 54.8077057,13.5893784" id="Fill-40" fill="#464A4C"></path>
                    <g id="Group-46" transform="translate(9.200846, 93.902748)">
                        <mask id="mask-16" fill="white">
                            <use xlink:href="#path-15"></use>
                        </mask>
                        <g id="Clip-45"></g>
                        <polygon id="Fill-44" fill="#464A4C" mask="url(#mask-16)" points="12.5498182 40.478471 10.3472981 39.1665387 0.0845665962 21.3910461 0.272642706 18.9801539 10.3115772 1.59244989 12.6107061 0.218547146 32.81874 0.218547146 35.1968879 1.68689387 45.2358224 19.0748685 45.1890063 21.7027924 35.1855222 39.0293378 32.9784017 40.478471"></polygon>
                    </g>
                    <path d="M24.2610334,96.6315298 C24.2610334,98.0178808 23.1371772,99.1420076 21.7505556,99.1420076 C20.3642047,99.1420076 19.2403484,98.0178808 19.2403484,96.6315298 C19.2403484,95.2451789 20.3642047,94.121052 21.7505556,94.121052 C23.1371772,94.121052 24.2610334,95.2451789 24.2610334,96.6315298" id="Fill-47" fill="#464A4C"></path>
                    <path d="M44.623885,96.6315298 C44.623885,98.0178808 43.5000288,99.1420076 42.1134072,99.1420076 C40.7270562,99.1420076 39.6032,98.0178808 39.6032,96.6315298 C39.6032,95.2451789 40.7270562,94.121052 42.1134072,94.121052 C43.5000288,94.121052 44.623885,95.2451789 44.623885,96.6315298" id="Fill-49" fill="#464A4C"></path>
                    <path d="M54.8077057,114.253504 C54.8077057,115.639855 53.6838495,116.763981 52.2972279,116.763981 C50.910877,116.763981 49.7870207,115.639855 49.7870207,114.253504 C49.7870207,112.867153 50.910877,111.743026 52.2972279,111.743026 C53.6838495,111.743026 54.8077057,112.867153 54.8077057,114.253504" id="Fill-51" fill="#464A4C"></path>
                    <g id="Group-57" transform="translate(0.000000, 43.568710)">
                        <mask id="mask-18" fill="white">
                            <use xlink:href="#path-17"></use>
                        </mask>
                        <g id="Clip-56"></g>
                        <polygon id="Fill-55" fill="#464A4C" mask="url(#mask-18)" points="-7.34084059 40.4566867 -9.54336068 39.1447543 -19.8060922 21.3692617 -19.6180161 18.9583696 -9.57908161 1.57066554 -7.27995264 0.196762791 12.9280812 0.196762791 15.3062292 1.66510951 25.3451636 19.0530841 25.2983476 21.681008 15.2948634 39.0075535 13.0877429 40.4566867"></polygon>
                    </g>
                    <path d="M15.5226926,81.5150275 C15.5226926,82.9013784 14.3988364,84.0255053 13.0122148,84.0255053 C11.6258638,84.0255053 10.5020076,82.9013784 10.5020076,81.5150275 C10.5020076,80.1286765 11.6258638,79.0045497 13.0122148,79.0045497 C14.3988364,79.0045497 15.5226926,80.1286765 15.5226926,81.5150275" id="Fill-58" fill="#464A4C"></path>
                    <path d="M15.5323805,46.2757074 C15.5323805,47.6620584 14.4085243,48.7861852 13.0219027,48.7861852 C11.6355518,48.7861852 10.5116956,47.6620584 10.5116956,46.2757074 C10.5116956,44.8893564 11.6355518,43.7652296 13.0219027,43.7652296 C14.4085243,43.7652296 15.5323805,44.8893564 15.5323805,46.2757074" id="Fill-60" fill="#464A4C"></path>
                    <path d="M25.7162013,63.8976812 C25.7162013,65.2840321 24.592345,66.408159 23.2057235,66.408159 C21.8193725,66.408159 20.6955163,65.2840321 20.6955163,63.8976812 C20.6955163,62.5113302 21.8193725,61.3872034 23.2057235,61.3872034 C24.592345,61.3872034 25.7162013,62.5113302 25.7162013,63.8976812" id="Fill-62" fill="#464A4C"></path>
                    <g id="Group-66" transform="translate(67.382664, 93.902748)">
                        <mask id="mask-20" fill="white">
                            <use xlink:href="#path-19"></use>
                        </mask>
                        <g id="Clip-65"></g>
                        <polygon id="Fill-64" fill="#464A4C" mask="url(#mask-20)" points="12.4783763 40.478471 10.2758562 39.1665387 0.0131247357 21.3910461 0.201200846 18.9801539 10.2401353 1.59244989 12.5392643 0.218547146 32.7472981 0.218547146 35.1254461 1.68689387 45.1643805 19.0748685 45.1175645 21.7027924 35.1140803 39.0293378 32.9069598 40.478471"></polygon>
                    </g>
                    <path d="M82.3714097,96.6315298 C82.3714097,98.0178808 81.2475535,99.1420076 79.8609319,99.1420076 C78.474581,99.1420076 77.3507247,98.0178808 77.3507247,96.6315298 C77.3507247,95.2451789 78.474581,94.121052 79.8609319,94.121052 C81.2475535,94.121052 82.3714097,95.2451789 82.3714097,96.6315298" id="Fill-67" fill="#464A4C"></path>
                    <path d="M102.734261,96.6315298 C102.734261,98.0178808 101.610405,99.1420076 100.223784,99.1420076 C98.8374326,99.1420076 97.7135763,98.0178808 97.7135763,96.6315298 C97.7135763,95.2451789 98.8374326,94.121052 100.223784,94.121052 C101.610405,94.121052 102.734261,95.2451789 102.734261,96.6315298" id="Fill-69" fill="#464A4C"></path>
                    <path d="M72.1972499,114.253504 C72.1972499,115.639855 71.0733937,116.763981 69.6867721,116.763981 C68.3004211,116.763981 67.1765649,115.639855 67.1765649,114.253504 C67.1765649,112.867153 68.3004211,111.743026 69.6867721,111.743026 C71.0733937,111.743026 72.1972499,112.867153 72.1972499,114.253504" id="Fill-73" fill="#464A4C"></path>
                    <g id="Group-77" transform="translate(67.382664, 0.270613)">
                        <mask id="mask-22" fill="white">
                            <use xlink:href="#path-21"></use>
                        </mask>
                        <g id="Clip-76"></g>
                        <polygon id="Fill-75" fill="#464A4C" mask="url(#mask-22)" points="12.4783763 33.4464812 10.2758562 32.1345488 0.0131247357 14.3590562 0.201200846 11.9481641 10.2401353 -5.43953996 12.5392643 -6.81344271 32.7472981 -6.81344271 35.1254461 -5.34509598 45.1643805 12.0428786 45.1175645 14.6708025 35.1140803 31.997348 32.9069598 33.4464812"></polygon>
                    </g>
                    <path d="M82.3714097,31.2067247 C82.3714097,32.5930757 81.2475535,33.7172025 79.8609319,33.7172025 C78.474581,33.7172025 77.3507247,32.5930757 77.3507247,31.2067247 C77.3507247,29.8203738 78.474581,28.6962469 79.8609319,28.6962469 C81.2475535,28.6962469 82.3714097,29.8203738 82.3714097,31.2067247" id="Fill-78" fill="#464A4C"></path>
                    <path d="M102.724573,31.2067247 C102.724573,32.5930757 101.600717,33.7172025 100.214096,33.7172025 C98.8277446,33.7172025 97.7038884,32.5930757 97.7038884,31.2067247 C97.7038884,29.8203738 98.8277446,28.6962469 100.214096,28.6962469 C101.600717,28.6962469 102.724573,29.8203738 102.724573,31.2067247" id="Fill-80" fill="#464A4C"></path>
                    <path d="M72.1972499,13.5893784 C72.1972499,14.9757294 71.0733937,16.0998562 69.6867721,16.0998562 C68.3004211,16.0998562 67.1765649,14.9757294 67.1765649,13.5893784 C67.1765649,12.2030275 68.3004211,11.0789006 69.6867721,11.0789006 C71.0733937,11.0789006 72.1972499,12.2030275 72.1972499,13.5893784" id="Fill-84" fill="#464A4C"></path>
                    <polygon id="Fill-86" fill="#464A4C" points="49.9691163 85.7029006 47.5831205 84.2816406 36.4652516 65.0248118 36.6690233 62.4131247 47.5441522 43.5762875 50.0351459 42.0879154 71.9272051 42.0879154 74.5031712 43.6785793 85.3788414 62.5156871 85.3282368 65.362537 74.4912643 84.133074 72.1001268 85.7029006"></polygon>
                    <path d="M52.6886698,44.8074148 C52.6886698,46.3093175 51.4711814,47.5270765 49.969008,47.5270765 C48.4671053,47.5270765 47.2496169,46.3093175 47.2496169,44.8074148 C47.2496169,43.3055121 48.4671053,42.0877531 49.969008,42.0877531 C51.4711814,42.0877531 52.6886698,43.3055121 52.6886698,44.8074148" id="Fill-88" fill="#464A4C"></path>
                    <path d="M52.6886698,82.9833471 C52.6886698,84.4852499 51.4711814,85.7030089 49.969008,85.7030089 C48.4671053,85.7030089 47.2496169,84.4852499 47.2496169,82.9833471 C47.2496169,81.4814444 48.4671053,80.2636854 49.969008,80.2636854 C51.4711814,80.2636854 52.6886698,81.4814444 52.6886698,82.9833471" id="Fill-90" fill="#464A4C"></path>
                    <path d="M74.7379281,82.9833471 C74.7379281,84.4852499 73.5204397,85.7030089 72.0182664,85.7030089 C70.5163636,85.7030089 69.2988753,84.4852499 69.2988753,82.9833471 C69.2988753,81.4814444 70.5163636,80.2636854 72.0182664,80.2636854 C73.5204397,80.2636854 74.7379281,81.4814444 74.7379281,82.9833471" id="Fill-92" fill="#464A4C"></path>
                    <path d="M74.7484008,44.8074148 C74.7484008,46.3093175 73.5309125,47.5270765 72.0287391,47.5270765 C70.5268364,47.5270765 69.309348,46.3093175 69.309348,44.8074148 C69.309348,43.3055121 70.5268364,42.0877531 72.0287391,42.0877531 C73.5309125,42.0877531 74.7484008,43.3055121 74.7484008,44.8074148" id="Fill-94" fill="#464A4C"></path>
                    <path d="M85.7809184,63.8978977 C85.7809184,65.3998004 84.56343,66.6175594 83.0612567,66.6175594 C81.5593539,66.6175594 80.3418655,65.3998004 80.3418655,63.8978977 C80.3418655,62.3959949 81.5593539,61.1782359 83.0612567,61.1782359 C84.56343,61.1782359 85.7809184,62.3959949 85.7809184,63.8978977" id="Fill-96" fill="#464A4C"></path>
                    <path d="M41.666652,63.8978977 C41.666652,65.3998004 40.4491636,66.6175594 38.9469903,66.6175594 C37.4450875,66.6175594 36.2275992,65.3998004 36.2275992,63.8978977 C36.2275992,62.3959949 37.4450875,61.1782359 38.9469903,61.1782359 C40.4491636,61.1782359 41.666652,62.3959949 41.666652,63.8978977" id="Fill-98" fill="#464A4C"></path>
                    <g id="Group-102" transform="translate(96.338266, 43.568710)">
                        <mask id="mask-24" fill="white">
                            <use xlink:href="#path-23"></use>
                        </mask>
                        <g id="Clip-101"></g>
                        <polygon id="Fill-100" fill="#464A4C" mask="url(#mask-24)" points="12.5416457 40.4566867 10.3391256 39.1447543 0.0763940803 21.3692617 0.26447019 18.9583696 10.3034047 1.57066554 12.6025336 0.196762791 32.8105674 0.196762791 35.1887154 1.66510951 45.2276499 19.0530841 45.1808338 21.681008 35.1773497 39.0075535 32.9702292 40.4566867"></polygon>
                    </g>
                    <path d="M111.390282,46.2757074 C111.390282,47.6620584 110.266425,48.7861852 108.879804,48.7861852 C107.493453,48.7861852 106.369597,47.6620584 106.369597,46.2757074 C106.369597,44.8893564 107.493453,43.7652296 108.879804,43.7652296 C110.266425,43.7652296 111.390282,44.8893564 111.390282,46.2757074" id="Fill-103" fill="#464A4C"></path>
                    <path d="M111.390282,81.5150275 C111.390282,82.9013784 110.266425,84.0255053 108.879804,84.0255053 C107.493453,84.0255053 106.369597,82.9013784 106.369597,81.5150275 C106.369597,80.1286765 107.493453,79.0045497 108.879804,79.0045497 C110.266425,79.0045497 111.390282,80.1286765 111.390282,81.5150275" id="Fill-105" fill="#464A4C"></path>
                    <path d="M101.216122,63.8976812 C101.216122,65.2840321 100.092266,66.408159 98.705644,66.408159 C97.319293,66.408159 96.1954368,65.2840321 96.1954368,63.8976812 C96.1954368,62.5113302 97.319293,61.3872034 98.705644,61.3872034 C100.092266,61.3872034 101.216122,62.5113302 101.216122,63.8976812" id="Fill-113" fill="#464A4C"></path>
                    <g id="Group-117" transform="translate(100.126850, 114.198732)">
                        <mask id="mask-26" fill="white">
                            <use xlink:href="#path-25"></use>
                        </mask>
                        <g id="Clip-116"></g>
                        <polygon id="Fill-115" fill="#464A4C" mask="url(#mask-26)" points="10.4507805 33.5891484 8.61548245 32.4958715 0.0630257928 17.6827805 0.219710782 15.6740195 8.5854444 1.18404059 10.5016558 0.0390765328 27.3416389 0.0390765328 29.3233387 1.26278901 37.6890723 15.7530385 37.650104 17.9428397 29.3138672 32.3816727 27.4747805 33.5891484"></polygon>
                    </g>
                </g>
            </g>
        </g>
    </g>
</svg>