<svg width="131px" height="128px" viewBox="93 64 131 128" version="1.1" xmlns="http://www.w3.org/2000/svg" xmlns:xlink="http://www.w3.org/1999/xlink">
    <!-- Generator: Sketch 40.3 (33839) - http://www.bohemiancoding.com/sketch -->
    <desc>Created with Sketch.</desc>
    <defs></defs>
    <g id="nature-color_snake" stroke="none" stroke-width="1" fill="none" fill-rule="evenodd" transform="translate(93.000000, 64.000000)">
        <g id="Group">
            <path d="M13.3569422,36.4000142 C12.7638756,36.4000142 12.1652622,36.2139022 11.6527787,35.8305564 C10.3958471,34.8889031 10.1416676,33.1055502 11.0847147,31.8500124 C16.362496,24.8111218 22.5847182,25.7250133 27.5847111,26.4500053 C32.2097209,27.1222329 35.8611058,27.6583253 39.6444444,23.2222151 C40.6652871,22.0222009 42.4583396,21.87776 43.6555662,22.902784 C44.8500053,23.9222329 44.9930524,25.7166791 43.9749973,26.9111182 C38.1472142,33.7444409 31.8305564,32.8222151 26.762496,32.0805547 C22.0222293,31.3888996 18.8861156,30.9305458 15.6347164,35.2610987 C15.0763804,36.0083342 14.2222222,36.4000142 13.3569422,36.4000142 L13.3569422,36.4000142 Z" id="Shape" fill="#E86C60"></path>
            <path d="M88.1777778,56.8888889 L88.1777778,17.0666667 C88.1777778,7.64100267 80.5367751,0 71.1111111,0 L54.044416,0 C44.6187804,0 36.9777778,7.64100267 36.9777778,17.0666382 L36.9777778,17.0666667 C36.9777778,26.4923307 44.6187804,34.1333333 54.044416,34.1333333 L59.7333333,34.1333333 L59.7333333,56.8888889 L88.1777778,56.8888889 L88.1777778,56.8888889 Z" id="Shape" fill="#5A7A84"></path>
            <path d="M93.8666667,56.8888889 L36.9777778,56.8888889 C25.9986204,56.8888889 17.0666667,65.1833458 17.0666667,75.3777778 C17.0666667,85.5722098 25.9986204,93.8666667 36.9777778,93.8666667 C38.5486222,93.8666667 39.8222222,92.594432 39.8222222,91.0222222 L91.0222222,91.0222222 C91.0222222,92.594432 92.2958222,93.8666667 93.8666667,93.8666667 C104.845824,93.8666667 113.777778,85.5722098 113.777778,75.3777778 C113.777778,65.1833458 104.845824,56.8888889 93.8666667,56.8888889 L93.8666667,56.8888889 Z" id="Shape" fill="#335262"></path>
            <path d="M110.933333,88.1777778 L19.9111111,88.1777778 C8.93195378,88.1777778 0,97.1110969 0,108.088889 C0,119.066681 8.93195378,128 19.9111111,128 L110.933333,128 C121.912491,128 130.844444,119.066681 130.844444,108.088889 C130.844444,97.1110969 121.912491,88.1777778 110.933333,88.1777778 L110.933333,88.1777778 Z" id="Shape" fill="#223E49"></path>
            <ellipse id="Oval" fill="#EFD358" cx="55.4666667" cy="12.8" rx="4.26666667" ry="4.26666667"></ellipse>
        </g>
    </g>
</svg>
