<?xml version="1.0" encoding="UTF-8"?>
<svg width="145px" height="128px" viewBox="0 0 145 128" version="1.1" xmlns="http://www.w3.org/2000/svg" xmlns:xlink="http://www.w3.org/1999/xlink">
    <!-- Generator: Sketch 41.2 (35397) - http://www.bohemiancoding.com/sketch -->
    <title>Page 1 Copy 5</title>
    <desc>Created with Sketch.</desc>
    <defs>
        <polygon id="path-1" points="0.16419351 126.825688 114.645862 126.825688 114.645862 0.068992394 0.16419351 0.068992394"></polygon>
    </defs>
    <g id="Page-1" stroke="none" stroke-width="1" fill="none" fill-rule="evenodd">
        <g id="Page-1-Copy-5" transform="translate(2.000000, 0.000000)">
            <path d="M20.0901284,28.6309872 C18.6971009,27.2379596 13.4353028,27.3929688 8.32792661,32.5000514 C3.22055046,37.6074275 0.280073394,36.5901798 0.280073394,36.5901798" id="Stroke-1" stroke="#FF4856" stroke-width="3" stroke-linecap="round"></path>
            <path d="M12.8161174,21.0122569 L12.8161174,25.7679266 C12.8161174,25.7679266 8.79204404,25.5239633 8.79204404,21.0122569 L12.8161174,21.0122569 Z" id="Fill-3" fill="#D5D5D5"></path>
            <path d="M18.6972477,21.0122569 L18.6972477,25.7679266 C18.6972477,25.7679266 14.6731743,25.5239633 14.6731743,21.0122569 L18.6972477,21.0122569 Z" id="Fill-5" fill="#D5D5D5"></path>
            <g id="Group-9" transform="translate(28.183486, 1.084771)">
                <mask id="mask-2" fill="white">
                    <use xlink:href="#path-1"></use>
                </mask>
                <g id="Clip-8"></g>
                <path d="M10.6667743,0.0696954128 C10.6667743,0.0696954128 10.7554349,0.0705761468 10.9301138,0.0726311927 C11.0173064,0.0735119266 11.1262239,0.0746862385 11.2559853,0.0761541284 C11.435655,0.0805577982 11.6446826,0.0858422018 11.8824807,0.0920073394 C12.4329394,0.108154128 12.9748844,0.135750459 13.6794716,0.190062385 C14.3737835,0.240557798 15.1928661,0.330099083 16.1267376,0.462209174 C17.995655,0.744924771 20.3742239,1.21993394 23.1682055,2.31762202 C24.5606459,2.86690642 26.0490862,3.58030092 27.5648294,4.50947523 C29.0761688,5.44099817 30.6168661,6.58565872 32.0586275,7.96165872 C33.5042055,9.33208073 34.8549578,10.9194569 36.0307376,12.6547963 C37.2088661,14.3901358 38.2123156,16.267567 39.0366826,18.2151633 C40.6877651,22.1191633 41.6295633,26.2694752 42.1016367,30.481145 C42.5710679,34.7001541 42.5775266,39.0066495 42.2575266,43.3929982 C41.9348844,47.7799339 41.2790312,52.2490716 40.3448661,56.8012917 C39.4021872,61.3523376 38.1715083,65.9826495 36.660756,70.6878239 C35.9047927,73.0405578 35.0754349,75.4112 34.1671046,77.7997505 C33.7117651,78.9937321 33.2385174,80.1929982 32.7406092,81.3960807 C32.487545,81.9967413 32.2333064,82.5994569 31.9781872,83.2042275 C31.745967,83.7438239 31.5125725,84.2854752 31.2785908,84.8288881 L31.0208294,85.4559706 L30.7472147,86.1558606 C30.5710679,86.6226495 30.3999119,87.0897321 30.2399119,87.5565211 C29.9204991,88.4895119 29.639545,89.4207413 29.4040954,90.3414018 C28.9376,92.1792 28.6513615,93.9847046 28.6070312,95.6237505 C28.5544807,97.2639706 28.7473615,98.7289248 29.1146275,99.8580257 C29.4798385,100.998576 29.9918385,101.774796 30.5516917,102.318796 C31.1133064,102.862796 31.7703339,103.23065 32.6275817,103.409732 C33.4769028,103.586172 34.5147009,103.545072 35.6103339,103.17898 C36.7053798,102.815824 37.8479853,102.130613 38.9089761,101.110723 C39.9696734,100.088778 40.9422972,98.7306862 41.7411229,97.0978055 C42.5414165,95.4655119 43.1541138,93.5596037 43.5648294,91.4922275 C43.9682055,89.4186862 44.1760587,87.1869064 44.1845725,84.8673468 L44.1816367,83.8691817 L44.1725358,82.8084844 C44.1734165,82.0569248 44.1704807,81.2149431 44.1851596,80.4601541 C44.2018936,78.925622 44.2629578,77.3781725 44.3436917,75.8254385 C44.519545,72.7170349 44.8187009,69.5745761 45.3301138,66.3913101 C45.8403523,63.2095119 46.5437651,59.9883743 47.5753982,56.7358239 C48.6105541,53.4870899 49.9648294,50.1954936 51.9200587,46.9552734 C52.9064807,45.3379523 54.0373431,43.7353101 55.393967,42.1990165 C56.7432514,40.6638972 58.3206459,39.1939523 60.1531596,37.9022092 C61.980389,36.6101725 64.0897468,35.5113101 66.3884624,34.7670899 C68.6842422,34.0199339 71.1684991,33.6476771 73.6210495,33.7143193 C76.0750679,33.7747963 78.4815266,34.2659523 80.6789578,35.0797505 C82.8807927,35.8929615 84.8780037,37.018833 86.6371229,38.3296587 C90.1638752,40.9609982 92.7403156,44.2948697 94.5434716,47.7790532 C96.3507376,51.2743927 97.3961688,54.944411 97.8747009,58.5392734 C98.351178,62.1411817 98.2557651,65.6691083 97.7857468,69.0194202 C97.3101505,72.3703193 96.4529028,75.5465394 95.3455266,78.5181358 C94.2402055,81.4926679 92.8938569,84.2672734 91.4060037,86.8619156 C91.0360954,87.512778 90.6465174,88.1436771 90.2575266,88.7713468 L89.6639119,89.7011083 L89.1950679,90.413622 L88.8316183,90.9837505 C88.7144807,91.1672367 88.5829578,91.397989 88.4581872,91.6020257 C88.2112881,92.0236037 87.9758385,92.446356 87.7536,92.8696954 C86.8658202,94.5624661 86.155655,96.2561174 85.7017835,97.9289248 C85.4736734,98.7644477 85.2978202,99.5911633 85.1677651,100.404081 C85.0462239,101.216705 84.9822239,102.016117 84.971655,102.795567 C84.9613798,104.351824 85.1721688,105.827347 85.5802422,107.148741 C85.9847927,108.472778 86.6054165,109.629475 87.3287927,110.549842 C88.0533431,111.473732 88.8829945,112.143677 89.7161688,112.556741 C89.9254899,112.656851 90.1339303,112.751677 90.3450128,112.828594 C90.5566826,112.900815 90.769233,112.964521 90.9847193,113.013549 L91.1473615,113.044374 L91.1881688,113.052888 C91.3443523,113.057879 91.0152514,113.056117 91.0901138,113.058466 L91.2844624,113.07109 L91.6267743,113.093989 C91.6502606,113.096631 91.6740404,113.101916 91.6984073,113.109549 C91.7057468,113.120998 91.796756,113.116594 91.8498936,113.120705 C91.9118385,113.121585 91.9723156,113.13098 92.0357284,113.127163 C92.1610862,113.125402 92.2876183,113.128631 92.4176734,113.118062 C93.4525358,113.065512 94.6198018,112.756668 95.7442055,112.203861 C96.8718385,111.657218 97.9621872,110.888631 98.9462606,109.98353 C99.9332697,109.078136 100.806664,108.028301 101.568206,106.91153 C103.090701,104.671237 104.132609,102.157035 104.794921,99.6909798 C105.450774,97.216411 105.738481,94.7858789 105.836829,92.5502826 C105.882334,91.4314569 105.874114,90.3596037 105.836242,89.3452917 C105.78516,88.3312734 105.720866,87.3733284 105.631325,86.4787963 C105.457233,84.6888514 105.194481,83.1598972 104.960793,81.9186495 C104.725343,80.6765211 104.506921,79.7238606 104.353967,79.0823927 C104.199545,78.4394569 104.119985,78.1074202 104.119985,78.1074202 L104.100316,78.0258055 C103.743912,76.5397138 104.659582,75.045989 106.145673,74.6895853 C107.432132,74.3810349 108.724756,75.0274936 109.279912,76.1703927 C109.279912,76.1703927 109.442554,76.5053651 109.75815,77.1544661 C110.068169,77.8073835 110.512059,78.7847046 111.049894,80.088778 C111.58538,81.3937321 112.185453,83.0357138 112.775839,85.0279339 C113.372389,87.0189798 113.915508,89.370833 114.282481,92.0928881 C114.653563,94.8123009 114.794481,97.9151266 114.446004,101.346466 C114.093417,104.768998 113.24527,108.547347 111.406004,112.366796 C110.495618,114.276228 109.327178,116.183897 107.850774,118.008191 C106.377013,119.831604 104.587068,121.572815 102.402848,123.053035 C100.226554,124.529145 97.649233,125.776558 94.6609028,126.401585 C94.2898202,126.483494 93.9090495,126.546613 93.5262239,126.60709 C93.3359853,126.640264 93.1395817,126.659053 92.9455266,126.684007 C92.7426642,126.706613 92.577967,126.732448 92.327545,126.748301 L91.6258936,126.792925 L91.1922789,126.81553 L90.9979303,126.825806 L90.5519853,126.821989 L89.935178,126.810246 C88.2887927,126.744778 86.6309578,126.46353 85.0377101,125.972081 C81.8450495,124.985072 78.9562422,123.186319 76.6061505,120.926062 C74.244022,118.664631 72.4141505,115.932888 71.1042055,113.001806 C70.4439486,111.535383 69.9269578,110.014062 69.5244624,108.463677 C69.1366459,106.912117 68.868022,105.332081 68.7224073,103.745292 C68.4370495,100.57142 68.6046826,97.3696587 69.2091596,94.2803376 C69.8027743,91.1872 70.7651229,88.1929982 72.033967,85.3702459 C72.3513248,84.6644844 72.6860037,83.968411 73.0350679,83.2814385 C73.2164991,82.9353101 73.380022,82.6088514 73.5787743,82.245989 C73.7769394,81.8910532 73.9753982,81.5355303 74.1738569,81.1794202 C74.4853431,80.6471633 74.7974165,80.1134385 75.1103706,79.5782459 C75.3760587,79.1138055 75.6391046,78.6467229 75.8895266,78.1772917 C76.9017835,76.3027963 77.7672514,74.3769248 78.4319119,72.4313835 C79.0939303,70.4858422 79.563655,68.5247413 79.8061505,66.6012183 C79.921233,65.6397505 79.9781872,64.6888514 79.9764257,63.7567413 C79.9640954,62.827567 79.9050862,61.9136587 79.7676917,61.0382092 C79.5122789,59.2829064 78.9902972,57.6550165 78.257233,56.2931083 C77.5312147,54.9303193 76.5853064,53.8429064 75.6514349,53.1761908 C75.1858202,52.8403376 74.7304807,52.6072367 74.3185908,52.4645578 C73.9049394,52.3212917 73.5394349,52.2646312 73.1997651,52.2637505 C72.8589211,52.2643376 72.5359853,52.3165945 72.1678385,52.4431266 C71.8017468,52.5725945 71.3851596,52.7751633 70.9221872,53.1163009 C69.995655,53.7777321 68.9173431,54.9913835 67.9696734,56.6025394 C67.0173064,58.2169248 66.187655,60.1959339 65.5303339,62.3557872 C64.8689028,64.5168147 64.3709945,66.859567 64.0093064,69.2851083 C63.644389,71.7109431 63.4274349,74.2295486 63.3100037,76.7833835 C63.2574532,78.0627963 63.2181138,79.3480807 63.2184073,80.6456954 C63.2125358,81.306833 63.2222239,81.8801908 63.2266275,82.5436771 L63.2697835,84.7270165 C63.3276183,88.0603009 63.1136,91.4804844 62.5191046,94.9455853 C61.9128661,98.4086312 60.9208661,101.926283 59.3461138,105.356448 C57.7760587,108.779861 55.5985908,112.111383 52.7341505,115.002833 C49.8738202,117.88665 46.3050862,120.306906 42.2328661,121.7792 C38.1750312,123.257365 33.6142972,123.766723 29.1381138,122.988741 C26.9042789,122.603273 24.6992147,121.902796 22.6365358,120.893182 C20.5732697,119.887383 18.6556183,118.578026 16.9816367,117.049659 C15.3056,115.521879 13.8805725,113.777145 12.7273982,111.945218 C11.5701138,110.112117 10.692022,108.192411 10.0399853,106.282686 C8.73796697,102.449732 8.33752661,98.6922275 8.38919633,95.2192 C8.44409541,91.7338422 8.9575633,88.5036037 9.67947156,85.4826862 C10.044389,83.9734018 10.4662606,82.5163743 10.9295266,81.105145 C11.1614532,80.3996771 11.4048294,79.706833 11.6543706,79.0219156 C11.7823706,78.6822459 11.9100771,78.3431633 12.0374899,78.0046679 C12.1801688,77.6465028 12.3222606,77.2889248 12.4643523,76.9319339 C12.7065541,76.3527046 12.9478752,75.7752367 13.1883156,75.1998239 C13.3993982,74.6869431 13.6096,74.1758239 13.8192147,73.6664661 C14.2325725,72.6436404 14.6268477,71.6178789 15.0073248,70.5944661 C15.7662239,68.5464661 16.4614165,66.5037505 17.092022,64.4809982 C18.3552881,60.4357872 19.364022,56.4713101 20.1223339,52.6791633 C20.8871046,48.8890716 21.3955817,45.2645578 21.6289761,41.9101358 C21.8638385,38.5574752 21.8206826,35.4716771 21.5121321,32.8142092 C21.2091596,30.155567 20.6296367,27.9434569 19.9347376,26.3337688 C19.2366092,24.7096954 18.4741872,23.7185761 17.7657835,23.0524477 C17.054444,22.3860257 16.3340037,21.9667963 15.524022,21.6453284 C14.724022,21.3259156 13.8632514,21.1362642 13.1058202,21.0220624 C12.7224073,20.9703927 12.3730495,20.9272367 12.0553982,20.9058055 C11.7489028,20.881145 11.4377101,20.8658789 11.3011963,20.862356 C11.2598018,20.8603009 11.220756,20.8585394 11.1840587,20.856778 C11.1632147,20.8558972 11.1432514,20.8550165 11.1238752,20.8541358 C11.0886459,20.8535486 11.0548844,20.853255 11.0222972,20.8529615 C10.8925358,20.8514936 10.7836183,20.8500257 10.6964257,20.849145 C10.5217468,20.8470899 10.4330862,20.8459156 10.4330862,20.8459156 C4.69569174,20.7798606 0.0985541284,16.0752734 0.164902752,10.3378789 C0.230957798,4.60077798 4.93583853,0.00364036697 10.6729394,0.0696954128 L10.6667743,0.0696954128 Z" id="Fill-7" fill="#00BC74" mask="url(#mask-2)"></path>
            </g>
            <path d="M56.8690495,17.7354862 C56.7228477,27.3533945 47.3045725,31.4975413 35.7593248,31.4520367 C32.1113248,31.4376514 22.049233,31.4755229 16.6852697,31.4755229 C14.308756,31.4755229 19.547655,27.0228257 22.9287927,24.3333578 C23.7525725,23.6780917 23.2846092,22.3525872 22.2318385,22.3605138 L10.3257835,22.4485872 C7.47103119,22.4697248 5.09833394,20.0852844 5.31587523,17.2387523 C5.32350826,17.1392294 5.33378349,17.0438165 5.34758165,16.9531009 C6.78493945,7.40242202 24.6849761,-0.172183486 36.2299303,0.00308256881 C47.7745908,0.178348624 57.0152514,8.11757798 56.8690495,17.7354862" id="Fill-10" fill="#00BC74"></path>
            <path d="M32.7165945,6.61701284 C34.6022459,6.61701284 36.1309064,8.14567339 36.1309064,10.0313248 L36.1309064,14.2283156 C36.1309064,16.113967 34.6022459,17.6426275 32.7165945,17.6426275 C30.8309431,17.6426275 29.3022826,16.113967 29.3022826,14.2283156 L29.3022826,10.0313248 C29.3022826,8.14567339 30.8309431,6.61701284 32.7165945,6.61701284" id="Fill-12" fill="#2C3C47"></path>
            <path d="M1.82766972,31.4756697 C2.29211009,32.0358165 4.61225688,35.5933945 6.47001835,34.0468257" id="Stroke-14" stroke="#FF4856" stroke-width="3" stroke-linecap="round"></path>
            <path d="M11.8101138,17.1782752 C11.8101138,17.7337248 11.3597651,18.184367 10.804022,18.184367 C10.2485725,18.184367 9.79822385,17.7337248 9.79822385,17.1782752 C9.79822385,16.6228257 10.2485725,16.1721835 10.804022,16.1721835 C11.3597651,16.1721835 11.8101138,16.6228257 11.8101138,17.1782752" id="Fill-16" fill="#2C3C47"></path>
        </g>
    </g>
</svg>