<svg width="64px" height="64px" viewBox="0 0 64 64" version="1.1" xmlns="http://www.w3.org/2000/svg" xmlns:xlink="http://www.w3.org/1999/xlink">
    <!-- Generator: Sketch 50.2 (55047) - http://www.bohemiancoding.com/sketch -->
    <desc>Created with Sketch.</desc>
    <g id="Screens" stroke="none" stroke-width="1" fill="none" fill-rule="evenodd" fill-opacity="0.25">
        <g transform="translate(-382.000000, -286.000000)" fill="#FFE900" fill-rule="nonzero">
            <path d="M445.769311,310.053917 C445.25449,308.514668 443.943627,307.377217 442.347544,307.084811 L425.789431,304.123807 L417.990232,288.468154 C417.236715,286.95583 415.692819,286 414.00357,286 C412.31432,286 410.770424,286.95583 410.016907,288.468154 L402.213659,304.123807 L385.687942,307.07671 C384.077718,307.358082 382.750915,308.499065 382.231218,310.049315 C381.711522,311.599565 382.082429,313.310014 383.197543,314.50555 L395.05022,327.252856 L392.584118,344.913567 C392.352273,346.567872 393.064961,348.212922 394.430258,349.174886 C395.795555,350.136851 397.584069,350.254104 399.063204,349.478617 L414.001545,341.685221 L428.943936,349.490769 C430.423071,350.266256 432.211584,350.149003 433.576881,349.187038 C434.942178,348.225074 435.654866,346.580024 435.423021,344.925718 L432.95287,327.252856 L444.801497,314.509601 C445.916925,313.314485 446.288398,311.604273 445.769311,310.053917 Z" id="Star"></path>
        </g>
    </g>
</svg>
