<svg width="17px" height="16px" viewBox="0 0 17 16" version="1.1" xmlns="http://www.w3.org/2000/svg" xmlns:xlink="http://www.w3.org/1999/xlink">
    <!-- Generator: Sketch 47.1 (45422) - http://www.bohemiancoding.com/sketch -->
    <desc>Created with Sketch.</desc>
    <defs></defs>
    <g id="Screens" stroke="none" stroke-width="1" fill="none" fill-rule="evenodd">
        <g id="Extension-Detail---1366px" transform="translate(-1268.000000, -191.000000)" fill-rule="nonzero" fill="#D7D7DB">
            <g id="Icon/Star/Off" transform="translate(1268.093458, 191.000000)">
                <path d="M16.9387231,6.0134792 C16.8019739,5.62866693 16.4537759,5.34430427 16.0298163,5.27120279 L11.6315676,4.53095169 L9.55990532,0.617038533 C9.35975238,0.238957594 8.94965505,-8.43205013e-17 8.50094816,0 C8.05224128,5.62136675e-17 7.64214395,0.238957594 7.44199101,0.617038533 L5.36925312,4.53095169 L0.979609481,5.26917748 C0.55189384,5.33952054 0.199461709,5.62476632 0.0614173919,6.01232884 C-0.0766269256,6.39989135 0.0218952463,6.82750347 0.318097391,7.1263875 L3.46646469,10.3132141 L2.81140637,14.7283917 C2.74982246,15.1419679 2.93913032,15.5532305 3.30178728,15.7937216 C3.66444423,16.0342127 4.13951821,16.0635259 4.53241344,15.8696543 L8.50041035,13.9213053 L12.4694829,15.8726923 C12.8623781,16.0665639 13.3374521,16.0372507 13.7001091,15.7967596 C14.062766,15.5562685 14.2520739,15.1450059 14.19049,14.7314296 L13.534356,10.3132141 L16.6816477,7.12740015 C16.9779332,6.82862115 17.0766057,6.40106827 16.9387231,6.0134792 Z" id="Star-Copy"></path>
            </g>
        </g>
    </g>
</svg>
