<svg width="17px" height="16px" viewBox="0 0 17 16" version="1.1" xmlns="http://www.w3.org/2000/svg" xmlns:xlink="http://www.w3.org/1999/xlink">
    <!-- Generator: Sketch 47.1 (45422) - http://www.bohemiancoding.com/sketch -->
    <desc>Created with Sketch.</desc>
    <defs>
      <linearGradient id="half" x1="0" x2="100%" y1="0" y2="0">
        <stop offset="50%" stop-color="#737373"/>
        <stop offset="50%" stop-color="#D7D7DB"/>
      </linearGradient>
    </defs>
    <g id="Screens" stroke="none" stroke-width="1" fill="none" fill-rule="evenodd">
        <g id="Extension-Detail---1366px" transform="translate(-1200.000000, -191.000000)" fill-rule="nonzero" fill="url(#half)">
            <path d="M1216.67559,197.013479 C1216.54115,196.628667 1216.19883,196.344304 1215.78203,196.271203 L1211.45804,195.530952 L1209.42135,191.617039 C1209.22458,191.238958 1208.8214,191 1208.38027,191 C1207.93914,191 1207.53597,191.238958 1207.33919,191.617039 L1205.30145,195.530952 L1200.98592,196.269177 C1200.56542,196.339521 1200.21894,196.624766 1200.08323,197.012329 C1199.94751,197.399891 1200.04437,197.827503 1200.33557,198.126387 L1203.43079,201.313214 L1202.78679,205.728392 C1202.72624,206.141968 1202.91235,206.553231 1203.26889,206.793722 C1203.62542,207.034213 1204.09248,207.063526 1204.47874,206.869654 L1208.37974,204.921305 L1212.28181,206.872692 C1212.66807,207.066564 1213.13512,207.037251 1213.49166,206.79676 C1213.84819,206.556269 1214.0343,206.145006 1213.97376,205.73143 L1213.3287,201.313214 L1216.42286,198.1274 C1216.71414,197.828621 1216.81115,197.401068 1216.67559,197.013479 Z" id="Star"></path>
        </g>
    </g>
</svg>
