<svg width="64px" height="64px" viewBox="0 0 64 64" version="1.1" xmlns="http://www.w3.org/2000/svg" xmlns:xlink="http://www.w3.org/1999/xlink">
    <!-- Generator: Sketch 47.1 (45422) - http://www.bohemiancoding.com/sketch -->
    <desc>Created with Sketch.</desc>
    <defs></defs>
    <g id="Screens" stroke="none" stroke-width="1" fill="none" fill-rule="evenodd">
        <g id="Extension-Detail---1366px" transform="translate(-303.000000, -1287.000000)" fill-rule="nonzero" fill="#FFE900">
            <g id="Group-3" transform="translate(24.000000, 1143.000000)">
                <path d="M293.994575,207.99995 C292.704598,208.000763 291.477615,207.442079 290.630967,206.468394 C289.784319,205.49471 289.401158,204.201652 289.580582,202.923653 L292.046749,185.259919 L280.193762,172.514481 C279.080773,171.318044 278.711733,169.608076 279.232152,168.058811 C279.752571,166.509546 281.078939,165.369589 282.688275,165.088421 L299.214424,162.130961 L307.013827,146.468577 C307.767364,144.955994 309.3113,144 311.000594,144 C312.689888,144 314.233824,144.955994 314.98736,146.468577 L322.790813,162.130961 L339.329111,165.08437 C340.934946,165.371492 342.25546,166.513805 342.771316,168.062053 C343.287172,169.610301 342.915846,171.316807 341.803377,172.51043 L329.954439,185.26397 L332.420606,202.923653 C332.652457,204.578241 331.93975,206.223573 330.574418,207.185702 C329.209085,208.147831 327.420524,208.265104 325.941351,207.489485 L311.002619,199.698806 L296.047688,207.50569 C295.413201,207.833752 294.708782,208.003331 293.994575,207.99995 Z M290.678006,171.89463 L300.603415,182.569846 L298.578647,197.041143 L311.002619,190.56309 L323.42254,197.045194 L321.397773,182.573897 L331.323182,171.89463 L317.352288,169.39902 L311.002619,156.637378 L304.648899,169.39902 L290.678006,171.89463 Z" id="Star-outline"></path>
            </g>
        </g>
    </g>
</svg>
