<svg xmlns="http://www.w3.org/2000/svg" xmlns:xlink="http://www.w3.org/1999/xlink" width="24" height="24" viewBox="0 0 24 24">
  <defs>
    <path id="browser-a" d="M19.5,1.5 L4.5,1.5 C2.01471863,1.5 3.04359188e-16,3.51471863 0,6 L0,18 C3.04359188e-16,20.4852814 2.01471863,22.5 4.5,22.5 L21,22.5 C22.6568542,22.5 24,21.1568542 24,19.5 L24,6 C24,3.51471863 21.9852814,1.5 19.5,1.5 Z M21,18 C21,18.8284271 20.3284271,19.5 19.5,19.5 L4.5,19.5 C3.67157288,19.5 3,18.8284271 3,18 L3,9 L21,9 L21,18 Z M21,7.5 L3,7.5 L3,6 C3,5.17157288 3.67157288,4.5 4.5,4.5 L19.5,4.5 C20.3284271,4.5 21,5.17157288 21,6 L21,7.5 Z"/>
  </defs>
  <g fill="none" fill-rule="evenodd">
    <use fill="#000" fill-rule="nonzero" xlink:href="#browser-a"/>
  </g>
</svg>
