<svg xmlns="http://www.w3.org/2000/svg" xmlns:xlink="http://www.w3.org/1999/xlink" width="24" height="24" viewBox="0 0 24 24">
  <defs>
    <path id="navigation-a" d="M23.5605,10.9395 L14.5605,1.9395 C13.9719317,1.37104169 13.0363728,1.37917144 12.4577721,1.95777214 C11.8791714,2.53637283 11.8710417,3.47193167 12.4395,4.0605 L18.879,10.5 L1.5,10.5 C0.671572875,10.5 1.01453063e-16,11.1715729 0,12 C-1.01453063e-16,12.8284271 0.671572875,13.5 1.5,13.5 L18.879,13.5 L12.4395,19.9395 C12.0495651,20.3161117 11.8931811,20.8738168 12.0304543,21.398261 C12.1677274,21.9227051 12.5772949,22.3322726 13.101739,22.4695457 C13.6261832,22.6068189 14.1838883,22.4504349 14.5605,22.0605 L23.5605,13.0605 C24.1460729,12.4747502 24.1460729,11.5252498 23.5605,10.9395 Z"/>
  </defs>
  <g fill="none" fill-rule="evenodd">
    <rect width="24" height="24"/>
    <mask id="navigation-b" fill="#fff">
      <use xlink:href="#navigation-a"/>
    </mask>
    <use fill="#000" fill-rule="nonzero" xlink:href="#navigation-a"/>
    <g fill="#0C0C0D" fill-opacity=".8" mask="url(#navigation-b)">
      <rect width="24" height="24"/>
    </g>
  </g>
</svg>
