<svg xmlns="http://www.w3.org/2000/svg" xmlns:xlink="http://www.w3.org/1999/xlink" width="24" height="24" viewBox="0 0 24 24">
  <defs>
    <path id="search-a" d="M22.6727557,20.6365957 L15.7290757,13.6929157 C18.3422052,10.0210397 17.7053057,4.95923573 14.2640044,2.04915604 C10.8227031,-0.860923663 5.72542741,-0.648130255 2.53864858,2.53864858 C-0.648130255,5.72542741 -0.860923663,10.8227031 2.04915604,14.2640044 C4.95923573,17.7053057 10.0210397,18.3422052 13.6929157,15.7290757 L20.6365957,22.6727557 C21.2016213,23.2184757 22.0997578,23.2106711 22.6552144,22.6552144 C23.2106711,22.0997578 23.2184757,21.2016213 22.6727557,20.6365957 Z M8.69467569,14.4546757 C5.51351553,14.4546757 2.93467569,11.8758358 2.93467569,8.69467569 C2.93467569,5.51351553 5.51351553,2.93467569 8.69467569,2.93467569 C11.8758358,2.93467569 14.4546757,5.51351553 14.4546757,8.69467569 C14.4546757,10.2223227 13.8478203,11.6874012 12.7676108,12.7676108 C11.6874012,13.8478203 10.2223227,14.4546757 8.69467569,14.4546757 Z"/>
  </defs>
  <g fill="none" fill-rule="evenodd">
    <mask id="search-b" fill="#fff">
      <use xlink:href="#search-a"/>
    </mask>
    <use fill="#000" fill-rule="nonzero" xlink:href="#search-a"/>
    <g fill="#0F1126" mask="url(#search-b)">
      <rect width="23.04" height="23.04"/>
    </g>
  </g>
</svg>
