<svg width="18px" height="20px" viewBox="0 0 18 20" version="1.1" xmlns="http://www.w3.org/2000/svg" xmlns:xlink="http://www.w3.org/1999/xlink">
  <!-- Generator: Sketch 49.1 (51147) - http://www.bohemiancoding.com/sketch -->
  <desc>Created with Sketch.</desc>
  <defs>
    <path d="M19.5,15.825 L4.5,15.825 C3.675,15.825 3,16.5 3,17.325 L3,20.25 C3,21.075 3.675,21.75 4.5,21.75 L19.5,21.75 C20.325,21.75 21,21.075 21,20.25 L21,17.325 C21,16.5 20.325,15.825 19.5,15.825 Z M18.075,20.25 C17.25,20.25 16.575,19.575 16.575,18.75 C16.575,17.925 17.25,17.25 18.075,17.25 C18.9,17.25 19.575,17.925 19.575,18.75 C19.575,19.575 18.9,20.25 18.075,20.25 Z M18.75,2.25 L5.25,2.25 C3.975,2.25 3,3.3 3,4.65 L3,14.625 C3.45,14.4 3.975,14.25 4.5,14.25 L19.5,14.25 C20.025,14.25 20.55,14.4 21,14.625 L21,4.65 C21,3.3 20.025,2.25 18.75,2.25 Z" id="path-1"></path>
  </defs>
  <g id="Symbols" stroke="none" stroke-width="1" fill="none" fill-rule="evenodd">
    <g id="storage" transform="translate(-3.000000, -2.000000)">
      <g id="Icon-/-32-/-Storage---32">
        <rect id="bouding-box" x="0" y="0" width="24" height="24"></rect>
        <mask id="mask-2" fill="white">
          <use xlink:href="#path-1"></use>
        </mask>
        <g id="Shape" fill-rule="nonzero"></g>
        <g id="Icon-Color" mask="url(#mask-2)" fill="#0F1126">
          <rect id="Rectangle" x="0" y="0" width="24" height="24"></rect>
        </g>
      </g>
    </g>
  </g>
</svg>