<svg width="17" height="16" xmlns="http://www.w3.org/2000/svg"><path d="M17.032 6.013a1.164 1.164 0 0 0-.909-.742l-4.398-.74L9.653.617C9.453.239 9.043 0 8.594 0c-.448 0-.858.239-1.059.617L5.463 4.531l-4.39.738c-.428.07-.78.356-.918.743-.138.388-.04.816.257 1.114l3.148 3.187-.655 4.415c-.062.414.128.825.49 1.066.363.24.838.27 1.23.076l3.969-1.949 3.969 1.952c.393.194.868.164 1.23-.076.363-.24.553-.652.49-1.066l-.655-4.418 3.147-3.186c.296-.298.395-.726.257-1.114Z" fill-rule="nonzero" fill="#D7D7DB"/></svg>