<svg width="64" height="64" xmlns="http://www.w3.org/2000/svg"><path d="M14.995 64a4.454 4.454 0 0 1-4.414-5.076l2.466-17.664L1.194 28.514a4.458 4.458 0 0 1 2.494-7.426l16.526-2.957 7.8-15.662a4.454 4.454 0 0 1 7.973 0l7.804 15.662 16.538 2.953a4.455 4.455 0 0 1 2.474 7.426L50.954 41.264l2.467 17.66a4.453 4.453 0 0 1-6.48 4.566l-14.938-7.791-14.955 7.807a4.425 4.425 0 0 1-2.053.494Zm-3.317-36.105 9.925 10.675L19.58 53.04l12.424-6.478 12.42 6.482-2.025-14.471 9.925-10.68-13.97-2.495-6.35-12.762L25.649 25.4l-13.971 2.496Z" fill="#FFBD4F" fill-rule="nonzero"/></svg>
