<svg xmlns="http://www.w3.org/2000/svg" width="64" height="64" viewBox="0 0 64 64">
  <path fill="#fd504e" d="M24.9452862,21.7218027 C24.1756209,23.1935984 22.7579304,24.2224959 21.1138367,24.5025006 L6.50334387,26.9907735 L16.8779735,37.6254538 C18.0308643,38.807243 18.5665412,40.4545244 18.3278229,42.0839433 L16.1377243,57.0328891 L29.6165333,50.33056 C31.118808,49.5835549 32.887125,49.5840077 34.3890127,50.3317822 L47.8689832,57.0433267 L45.6753714,42.0846573 C45.4363967,40.4550418 45.9720333,38.8074681 47.1250718,37.6254993 L58.9780938,25.4750925 C58.6914763,25.7700145 58.5836194,26.2466145 58.7344196,26.6758966 C58.8630181,27.0423678 59.1394525,27.2709893 59.4466821,27.3245914 L42.8885694,24.5023841 C41.24436,24.2221408 39.826703,23.1928975 39.0572808,21.7208028 L32.0033762,8.22494127 L24.9452862,21.7218027 Z M63.7693105,24.9263895 C64.2883979,26.4040728 63.9169251,28.0341181 62.8014971,29.1732131 L50.9528697,41.3191286 L53.423021,58.1635754 C53.6548663,59.7403349 52.9421779,61.3082737 51.5768811,62.2251459 C50.2115844,63.1420181 48.4230706,63.2537749 46.9439356,62.5146392 L32.0015448,55.0749764 L17.0632035,62.503057 C15.5840685,63.2421926 13.7955547,63.1304359 12.430258,62.2135637 C11.0649612,61.2966915 10.3522728,59.7287527 10.5841181,58.1519932 L13.05022,41.3191286 L1.19754312,29.1693523 C0.0824291627,28.029857 -0.288477837,26.3995858 0.231218417,24.9220037 C0.750914671,23.4444216 2.07771798,22.3569221 3.68794158,22.0887391 L20.2136588,19.2742533 L28.0169073,4.35245941 C28.7704243,2.91102583 30.3143201,2 32.0035696,2 C33.692819,2 35.2367148,2.91102583 35.9902318,4.35245941 L43.7894309,19.2742533 L60.3475435,22.0964606 C61.9436267,22.37516 63.2544898,23.4592927 63.7693105,24.9263895 Z"/>
</svg>
