<svg width="70px" height="70px" viewBox="280 1858 70 70" version="1.1" xmlns="http://www.w3.org/2000/svg" xmlns:xlink="http://www.w3.org/1999/xlink">
    <!-- Generator: Sketch 40.3 (33839) - http://www.bohemiancoding.com/sketch -->
    <desc>Created with Sketch.</desc>
    <defs></defs>
    <path d="M337.857143,1886.95392 L337.857143,1870.43779 L319.571429,1870.43779 C319.571429,1865.247 315.457143,1861 310.428571,1861 C305.4,1861 301.285714,1865.247 301.285714,1870.43779 L283,1870.43779 L283,1884.59447 C289.285714,1884.59447 294.428571,1889.90323 294.428571,1896.39171 C294.428571,1902.88018 289.285714,1908.18894 283,1908.18894 L283,1924.70507 L299,1924.70507 C299,1918.21659 304.142857,1912.90783 310.428571,1912.90783 C316.714286,1912.90783 321.857143,1918.21659 321.857143,1924.70507 L337.857143,1924.70507 L337.857143,1905.82949 C342.885714,1905.82949 347,1901.58249 347,1896.39171 C347,1891.20092 342.885714,1886.95392 337.857143,1886.95392 L337.857143,1886.95392 Z" id="Shape" stroke="#0675D3" stroke-width="6" stroke-linecap="round" stroke-linejoin="round" fill="none"></path>
</svg>
