<svg width="139px" height="134px" viewBox="64 673 139 134" version="1.1" xmlns="http://www.w3.org/2000/svg" xmlns:xlink="http://www.w3.org/1999/xlink">
    <!-- Generator: Sketch 42 (36781) - http://www.bohemiancoding.com/sketch -->
    <desc>Created with Sketch.</desc>
    <defs></defs>
    <g id="Group-22-Copy" stroke="none" stroke-width="1" fill="none" fill-rule="evenodd" transform="translate(67.000000, 676.000000)" stroke-linecap="round" stroke-linejoin="round">
        <path d="M113.253456,51.9078341 L113.253456,18.875576 L75.5023041,18.875576 C75.5023041,8.49400922 67.0082949,0 56.6267281,0 C46.2451613,0 37.7511521,8.49400922 37.7511521,18.875576 L0,18.875576 L0,47.1889401 C12.9769585,47.1889401 23.59447,57.8064516 23.59447,70.7834101 C23.59447,83.7603687 12.9769585,94.3778802 0,94.3778802 L0,127.410138 L33.0322581,127.410138 C33.0322581,114.43318 43.6497696,103.815668 56.6267281,103.815668 C69.6036866,103.815668 80.2211982,114.43318 80.2211982,127.410138 L113.253456,127.410138 L113.253456,89.6589862 C123.635023,89.6589862 132.129032,81.164977 132.129032,70.7834101 C132.129032,60.4018433 123.635023,51.9078341 113.253456,51.9078341 L113.253456,51.9078341 Z" id="Shape" stroke="#000000" stroke-width="6"></path>
    </g>
</svg>
