<svg width="13px" height="16px" viewBox="24 24 39 48" version="1.1" xmlns="http://www.w3.org/2000/svg" xmlns:xlink="http://www.w3.org/1999/xlink">
    <!-- Generator: Sketch 40 (33762) - http://www.bohemiancoding.com/sketch -->
    <desc>Created with Sketch.</desc>
    <defs></defs>
    <g id="Group-31" stroke="none" stroke-width="1" fill="none" fill-rule="evenodd" transform="translate(24.000000, 24.000000)">
        <path d="M24,30.4 L14.4,30.4 C6.4472,30.4 0,36.8472 0,44.8 L0,44.8 C0,44.8 7.2,48 19.2,48 C31.2,48 38.4,44.8 38.4,44.8 L38.4,44.8 C38.4,36.8472 31.9528,30.4 24,30.4 L24,30.4 Z" id="Shape" fill="#FFFFFF"></path>
        <path d="M8,11.2 C8,5.0144 13.0144,0 19.2,0 C25.3856,0 30.4,5.0144 30.4,11.2 C30.4,17.3856 25.3856,24 19.2,24 C13.0144,24 8,17.3856 8,11.2 L8,11.2 Z" id="Shape" fill="#FFFFFF"></path>
    </g>
</svg>
