<svg width="24" height="24" fill="none" xmlns="http://www.w3.org/2000/svg"><path fill-rule="evenodd" clip-rule="evenodd" d="M20 5h-5a3 3 0 1 0-6 0H4a1 1 0 0 0 0 2h1v12a3 3 0 0 0 3 3h8a3 3 0 0 0 3-3V7h1a1 1 0 1 0 0-2zm-8-2a2 2 0 0 1 2 2h-4a2 2 0 0 1 2-2zM7 7v12a1 1 0 0 0 1 1h8a1 1 0 0 0 1-1V7H7zm2.539 2.002a.5.5 0 0 0-.503.498l-.034 8a.5.5 0 0 0 1 .004l.034-8a.5.5 0 0 0-.497-.502zm4.497.498a.5.5 0 0 1 1 .004l-.034 8a.5.5 0 0 1-1-.004l.034-8zM12 9.002a.5.5 0 0 0-.502.498l-.034 8a.5.5 0 0 0 1 .004l.034-8A.5.5 0 0 0 12 9.002z" fill="#0C0C0D" fill-opacity=".8"/></svg>