<svg width="10px" height="10px" viewBox="0 0 10 10" version="1.1" xmlns="http://www.w3.org/2000/svg" xmlns:xlink="http://www.w3.org/1999/xlink">
    <!-- Generator: Sketch 46.2 (44496) - http://www.bohemiancoding.com/sketch -->
    <desc>Created with Sketch.</desc>
    <defs></defs>
    <g id="Specs" stroke="none" stroke-width="1" fill="none" fill-rule="evenodd">
        <g id="Header-Copy" transform="translate(-1304.000000, -123.000000)" fill-rule="nonzero" fill="#00FEFF">
            <g id="Group-15-Copy" transform="translate(1165.000000, 117.000000)">
                <g id="Group-11" transform="translate(139.000000, 6.000000)">
                    <path d="M9.93333333,0.516666667 C9.805497,0.205478744 9.5030849,0.00167928764 9.16666667,0 L5,0 C4.53976271,6.43371791e-17 4.16666667,0.373096042 4.16666667,0.833333333 C4.16666667,1.29357062 4.53976271,1.66666667 5,1.66666667 L7.15833333,1.66666667 L3.99166667,4.825 C3.78028452,5.03638214 3.69773039,5.34447832 3.77510163,5.6332317 C3.85247286,5.92198508 4.07801492,6.14752714 4.3667683,6.22489837 C4.65552168,6.30226961 4.96361786,6.21971548 5.175,6.00833333 L8.33333333,2.84166667 L8.33333333,5 C8.33333333,5.46023729 8.70642938,5.83333333 9.16666667,5.83333333 C9.62690396,5.83333333 10,5.46023729 10,5 L10,0.833333333 C9.99868334,0.724435619 9.97603415,0.616851927 9.93333333,0.516666667 Z" id="Shape"></path>
                    <path d="M6.66666667,10 L2.5,10 C1.11928813,10 1.69088438e-16,8.88071187 0,7.5 L0,3.33333333 C-5.63628126e-17,2.87309604 0.373096042,2.5 0.833333333,2.5 C1.29357062,2.5 1.66666667,2.87309604 1.66666667,3.33333333 L1.66666667,7.5 C1.66666667,7.96023729 2.03976271,8.33333333 2.5,8.33333333 L6.66666667,8.33333333 C7.12690396,8.33333333 7.5,8.70642938 7.5,9.16666667 C7.5,9.62690396 7.12690396,10 6.66666667,10 Z" id="Shape"></path>
                </g>
            </g>
        </g>
    </g>
</svg>
