
<svg width="14px" height="12px" viewBox="0 0 14 12" version="1.1" xmlns="http://www.w3.org/2000/svg" xmlns:xlink="http://www.w3.org/1999/xlink">
    <!-- Generator: Sketch 46.2 (44496) - http://www.bohemiancoding.com/sketch -->
    <desc>Created with Sketch.</desc>
    <defs></defs>
    <g id="Screens" stroke="none" stroke-width="1" fill="none" fill-rule="evenodd">
        <g id="All-Reviews-Page---Developer-View---1366px-Copy" transform="translate(-582.000000, -477.000000)" fill-rule="nonzero" fill="#0A84FF">
            <g id="Group-29" transform="translate(559.000000, 456.000000)">
                <g id="Group-25" transform="translate(23.000000, 19.000000)">
                    <path d="M5.72727273,5.24455735 L5.72727273,2.32563843 C5.72727273,2.1959087 5.66363636,2.06617897 5.53636364,2.03374654 C5.40909091,1.96888168 5.28181818,2.00131411 5.18636364,2.09861141 L0.0954545455,7.2878006 C-0.0318181818,7.41753033 -0.0318181818,7.61212492 0.0954545455,7.74185465 L5.18636364,12.9310438 C5.28181818,13.0283411 5.40909091,13.0607736 5.53636364,12.9959087 C5.66363636,12.9310438 5.72727273,12.8337465 5.72727273,12.7040168 L5.72727273,9.78509789 C10.0863636,9.81753033 11.7727273,10.6607736 13.3954545,13.5148276 C13.4590909,13.6121249 13.5545455,13.6769898 13.6818182,13.6769898 C13.7136364,13.6769898 13.7454545,13.6769898 13.7772727,13.6769898 C13.9045455,13.6445574 14,13.5148276 14,13.3526655 C14,6.31482762 8.46363636,5.30942222 5.72727273,5.24455735 Z" id="Shape"></path>
                </g>
            </g>
        </g>
    </g>
</svg>