<svg xmlns="http://www.w3.org/2000/svg" width="30" height="32" viewBox="0 0 30 32">
  <path fill="#D70022" d="M188.955782,274.064695 C188.112772,274.139229 187.471992,274.854718 187.4905,275.700814 L187.4905,285.677529 C187.4905,286.105101 187.143884,286.451717 186.716311,286.451717 C186.288738,286.451717 185.942122,286.105101 185.942122,285.677529 L185.942122,275.18572 C185.96019,274.100585 185.15743,273.176309 184.080456,273.042249 C183.500415,272.984983 182.923194,273.175573 182.491294,273.566967 C182.059394,273.958361 181.813063,274.514086 181.813115,275.096946 L181.813115,285.677529 C181.813115,286.105101 181.466498,286.451717 181.038926,286.451717 C180.611353,286.451717 180.264737,286.105101 180.264737,285.677529 L180.264737,274.153468 C180.282804,273.068333 179.480044,272.144057 178.40307,272.009997 C177.82303,271.952731 177.245808,272.143321 176.813908,272.534715 C176.382008,272.926109 176.135678,273.481834 176.135729,274.064695 L176.135729,285.677529 C176.135729,286.105101 175.789113,286.451717 175.36154,286.451717 C174.933967,286.451717 174.587351,286.105101 174.587351,285.677529 L174.587351,275.18572 C174.605419,274.100585 173.802659,273.176309 172.725685,273.042249 C172.145644,272.984983 171.568423,273.175573 171.136523,273.566967 C170.704623,273.958361 170.458292,274.514086 170.458344,275.096946 L170.458344,291.246011 C170.458451,291.775298 170.188193,292.267969 169.741766,292.552306 C169.29534,292.836643 168.734604,292.873246 168.255002,292.649358 L164.177607,290.746918 C163.393284,290.364073 162.458465,290.468209 161.777621,291.014271 C161.317127,291.400777 161.03692,291.960471 161.003392,292.560736 C160.969865,293.161 161.186002,293.748417 161.60059,294.1838 L167.924681,300.806213 C169.87245,302.846031 172.570042,304.000037 175.390443,304 L180.264737,304 C183.002439,304 185.628012,302.912452 187.56386,300.976604 C189.499708,299.040756 190.587256,296.415183 190.587256,293.677481 L190.587256,275.613072 C190.587869,275.187606 190.41338,274.780633 190.104773,274.487745 C189.796166,274.194856 189.380636,274.041861 188.955782,274.064695 Z" transform="translate(-161 -272)"/>
</svg>
