<svg width="14px" height="14px" viewBox="0 0 14 14" version="1.1" xmlns="http://www.w3.org/2000/svg" xmlns:xlink="http://www.w3.org/1999/xlink">
    <!-- Generator: Sketch 48.2 (47327) - http://www.bohemiancoding.com/sketch -->
    <desc>Created with Sketch.</desc>
    <defs></defs>
    <g id="Page-1" stroke="none" stroke-width="1" fill="none" fill-rule="evenodd">
        <g id="identity-icon-hover" fill="#FFFFFF">
            <path d="M7,0 C10.8659932,-2.22044605e-16 14,3.13400675 14,7 C14,10.8659932 10.8659932,14 7,14 C3.13400675,14 0,10.8659932 -4.4408921e-16,7 C0,3.13400675 3.13400675,2.44249065e-15 7,0 Z M7,3 C7.55228475,3 8,3.44771525 8,4 C8,4.55228475 7.55228475,5 7,5 C6.44771525,5 6,4.55228475 6,4 C6,3.44771525 6.44771525,3 7,3 Z M7,6 C7.55228475,6 8,6.44771525 8,7 L8,10 C8,10.5522847 7.55228475,11 7,11 C6.44771525,11 6,10.5522847 6,10 L6,7 C6,6.44771525 6.44771525,6 7,6 Z" id="Shape"></path>
        </g>
    </g>
</svg>
