<svg width="14px" height="14px" viewBox="0 0 14 14" version="1.1" xmlns="http://www.w3.org/2000/svg" xmlns:xlink="http://www.w3.org/1999/xlink">
    <!-- Generator: Sketch 48.2 (47327) - http://www.bohemiancoding.com/sketch -->
    <desc>Created with Sketch.</desc>
    <defs></defs>
    <g id="Page-1" stroke="none" stroke-width="1" fill="none" fill-rule="evenodd">
        <g id="exclamation" fill="#FFFFFF" fill-rule="nonzero">
            <path d="M7,0 C3.13400675,-2.36723813e-16 4.73447626e-16,3.13400675 0,7 C-4.73447626e-16,10.8659932 3.13400675,14 7,14 C10.8659932,14 14,10.8659932 14,7 C14,3.13400675 10.8659932,1.79103605e-15 7,0 Z M6.125,4.375 C6.125,3.89175084 6.51675084,3.5 7,3.5 C7.48324916,3.5 7.875,3.89175084 7.875,4.375 L7.875,7 C7.875,7.48324916 7.48324916,7.875 7,7.875 C6.51675084,7.875 6.125,7.48324916 6.125,7 L6.125,4.375 Z M7,10.66625 C6.4249335,10.66625 5.95875,10.2000665 5.95875,9.625 C5.95875,9.0499335 6.4249335,8.58375 7,8.58375 C7.5750665,8.58375 8.04125,9.0499335 8.04125,9.625 C8.04125,10.2000665 7.5750665,10.66625 7,10.66625 Z" id="Shape"></path>
        </g>
    </g>
</svg>
