<svg xmlns="http://www.w3.org/2000/svg" width="64" height="64" viewBox="0 0 64 64">
  <path d="M40.613669,27.4435044 C40.6983325,26.5044936 40.7937044,25.5239001 40.8978601,24.5133892 C41.0359315,23.1738311 41.1829908,21.8426932 41.3307701,20.570841 C30.9585148,17.9997079 25.4839437,21.5724526 23.2096556,28.2812662 C21.1894033,34.2407118 21.9915974,39.7432699 26.223998,41.9968811 C31.0382944,44.5603324 37.8946795,41.3646418 40.24122,35.5545115 C40.131,33.9005277 40.2782073,31.1641418 40.613669,27.4435044 Z M23.9061653,46.3285494 C17.0152063,42.659345 15.8496807,34.6645566 18.5468442,26.7083233 C21.7725574,17.1929462 30.3943528,12.0564368 44.7432786,16.4211861 C45.8887546,16.7696244 46.6165333,17.8899774 46.4673744,19.0752841 C46.4257391,19.4061439 46.3522631,20.0084534 46.2575822,20.8162435 C46.0996039,22.1640693 45.9416099,23.5859834 45.7942562,25.0155976 C45.6921465,26.0062582 45.5987758,26.9662757 45.5160901,27.8833513 C45.1738354,31.6793306 45.0430392,34.4956254 45.1778797,35.5070665 C45.9436336,40.8004978 47.4098316,43.1429264 51.3950134,42.8335779 C56.0270902,42.4740144 58.4915642,37.7552313 59.0167617,29.6828338 C59.637326,20.1446279 55.5220769,11.2151684 45.5410966,7.17314301 C33.7711669,2.40664188 19.5879965,5.46798224 12.6243852,13.5459378 C3.77029079,23.8190466 1.85568608,40.8605621 10.638007,50.9416598 C18.7841905,60.2914685 34.6426146,60.7845759 46.4030931,56.2994129 C47.6727015,55.8152149 49.0954082,56.4493894 49.5807977,57.7158814 C50.0661871,58.9823734 49.4304521,60.4015881 48.1608438,60.8857861 C34.6864787,66.0245841 16.7724677,65.4675595 6.92278554,54.1625546 C-3.63971852,42.0380108 -1.42371809,22.3138319 8.89215313,10.3446725 C17.2665293,0.630196014 33.7074861,-2.9184721 47.3926044,2.62362829 C59.6146663,7.57323068 64.6736152,18.5503742 63.9286377,30.000838 C63.263107,40.2301879 59.666616,47.116469 51.7768842,47.728907 C46.4957876,48.1388505 43.5242004,46.0402794 41.84422,42.1703725 C41.1194767,40.5008954 40.635109,38.5017625 40.3093935,36.2321588 C40.2805841,36.0314131 40.25794,35.8054165 40.24122,35.5545115 C40.3054234,35.3955412 40.3662506,35.2346138 40.4235675,35.0717935 C40.8739168,33.7924853 42.2786331,33.1195851 43.5610892,33.568829 C44.4464415,33.8789675 45.0420731,34.6428338 45.1778797,35.5070665 C45.2344372,35.9454696 45.1985116,36.3272004 45.067752,36.6986494 C44.3445798,38.7529666 43.228882,40.5995615 41.84422,42.1703725 C37.3044842,47.3204142 29.8736159,49.5060166 23.9061653,46.3285494 Z"/>
</svg>
