<svg xmlns="http://www.w3.org/2000/svg" width="64" height="64" viewBox="0 0 64 64">
  <g transform="translate(10)">
    <path d="M20.7777778,51.6923077 L20.7777778,61.5384615 C20.7777778,62.2181966 21.3249853,62.7692308 22,62.7692308 C22.6750147,62.7692308 23.2222222,62.2181966 23.2222222,61.5384615 L23.2222222,51.6923077 C23.2222222,51.0125726 22.6750147,50.4615385 22,50.4615385 C21.3249853,50.4615385 20.7777778,51.0125726 20.7777778,51.6923077 Z"/>
    <path d="M22.6075482,43.6308073 C23.7358819,42.8843799 25.251474,43.2003727 25.9927178,44.3365968 L29.9096956,50.3407814 C30.9775479,51.9776512 29.811549,54.1538462 27.8666667,54.1538462 L16.1333333,54.1538462 C14.188451,54.1538462 13.0224521,51.9776512 14.0903044,50.3407814 L18.0072822,44.3365968 C18.748526,43.2003727 20.2641181,42.8843799 21.3924518,43.6308073 C21.6326556,43.7897095 21.8359451,43.9839501 22,44.2022439 C22.1640549,43.9839501 22.3673444,43.7897095 22.6075482,43.6308073 Z M20.663909,49.2307692 L23.336091,49.2307692 L22,47.1827267 L20.663909,49.2307692 Z"/>
    <path d="M22,43.3230769 C31.4505039,43.3230769 39.1111111,35.6088991 39.1111111,26.0923077 L39.1111111,22.1538462 C39.1111111,12.6372548 31.4505039,4.92307692 22,4.92307692 C12.5494961,4.92307692 4.88888889,12.6372548 4.88888889,22.1538462 L4.88888889,26.0923077 C4.88888889,35.6088991 12.5494961,43.3230769 22,43.3230769 Z M22,48.2461538 C9.84943728,48.2461538 0,38.3278394 0,26.0923077 L0,22.1538462 C0,9.91831446 9.84943728,0 22,0 C34.1505627,0 44,9.91831446 44,22.1538462 L44,26.0923077 C44,38.3278394 34.1505627,48.2461538 22,48.2461538 Z"/>
    <path d="M9.53333333,22.1538462 C9.53333333,15.2323505 15.1265702,9.6 22,9.6 C22.6750147,9.6 23.2222222,9.04896585 23.2222222,8.36923077 C23.2222222,7.68949569 22.6750147,7.13846154 22,7.13846154 C13.7765409,7.13846154 7.08888889,13.8728803 7.08888889,22.1538462 C7.08888889,22.8335812 7.63609642,23.3846154 8.31111111,23.3846154 C8.98612581,23.3846154 9.53333333,22.8335812 9.53333333,22.1538462 Z"/>
  </g>
</svg>
