<svg xmlns="http://www.w3.org/2000/svg" width="64" height="64" viewBox="0 0 64 64">
  <g fill="#0F1126" transform="translate(0 6)">
    <path d="M44.3032258,11.6604106 L37.856305,3.06451613 L20.3548387,3.06451613 C19.7847383,3.06451613 19.3225806,2.60235845 19.3225806,2.03225806 C19.3225806,1.46215768 19.7847383,1 20.3548387,1 L38.372434,1 C38.6973448,1 39.003294,1.15297461 39.1982405,1.41290323 L45.6451613,10.0087977 L59.5806452,10.0087977 C60.1507455,10.0087977 60.6129032,10.4709553 60.6129032,11.0410557 C60.6129032,11.6111561 60.1507455,12.0733138 59.5806452,12.0733138 L45.1290323,12.0733138 C44.8041215,12.0733138 44.4981723,11.9203392 44.3032258,11.6604106 Z M10.0322581,21.6451613 L26.2037224,21.6451613 C26.7738228,21.6451613 27.2359805,22.107319 27.2359805,22.6774194 L27.2359805,36.1906158 C27.2359805,36.7607162 26.7738228,37.2228739 26.2037224,37.2228739 L10.0322581,37.2228739 C9.46215768,37.2228739 9,36.7607162 9,36.1906158 L9,22.6774194 C9,22.107319 9.46215768,21.6451613 10.0322581,21.6451613 Z M11.0645161,35.1583578 L25.1714644,35.1583578 L25.1714644,23.7096774 L11.0645161,23.7096774 L11.0645161,35.1583578 Z M34.738662,23.7096774 C34.1685616,23.7096774 33.7064039,23.2475197 33.7064039,22.6774194 C33.7064039,22.107319 34.1685616,21.6451613 34.738662,21.6451613 L53.6053704,21.6451613 C54.1754708,21.6451613 54.6376284,22.107319 54.6376284,22.6774194 C54.6376284,23.2475197 54.1754708,23.7096774 53.6053704,23.7096774 L34.738662,23.7096774 Z M34.738662,30.9354839 C34.1685616,30.9354839 33.7064039,30.4733262 33.7064039,29.9032258 C33.7064039,29.3331254 34.1685616,28.8709677 34.738662,28.8709677 L53.6053704,28.8709677 C54.1754708,28.8709677 54.6376284,29.3331254 54.6376284,29.9032258 C54.6376284,30.4733262 54.1754708,30.9354839 53.6053704,30.9354839 L34.738662,30.9354839 Z M34.738662,38.1612903 C34.1685616,38.1612903 33.7064039,37.6991326 33.7064039,37.1290323 C33.7064039,36.5589319 34.1685616,36.0967742 34.738662,36.0967742 L42.8243941,36.0967742 C43.3944945,36.0967742 43.8566522,36.5589319 43.8566522,37.1290323 C43.8566522,37.6991326 43.3944945,38.1612903 42.8243941,38.1612903 L34.738662,38.1612903 Z"/>
    <path d="M64,27.9648094 L64,44.856305 C64,48.48406 61.0588401,51.4252199 57.431085,51.4252199 L6.56891496,51.4252199 C2.94115993,51.4252199 0,48.48406 0,44.856305 L0,2.06451613 C0,0.924315355 0.924315355,0 2.06451613,0 L15.483871,0 L61.9354839,0 C63.0756846,0 64,0.924315355 64,2.06451613 L64,27.9648094 Z M24.2111437,4.12903226 L27.8709677,9.00879765 L59.8709677,9.00879765 L59.8709677,4.12903226 L24.2111437,4.12903226 Z M4.12903226,44.856305 C4.12903226,46.2036585 5.22156148,47.2961877 6.56891496,47.2961877 L57.431085,47.2961877 C58.7784385,47.2961877 59.8709677,46.2036585 59.8709677,44.856305 L59.8709677,13.1378299 L26.8387097,13.1378299 C26.1888881,13.1378299 25.5769897,12.8318807 25.1870968,12.3120235 L19.0498534,4.12903226 L4.12903226,4.12903226 L4.12903226,44.856305 Z"/>
  </g>
</svg>
