<svg xmlns="http://www.w3.org/2000/svg" width="64" height="64" viewBox="0 0 64 64">
  <g fill="#0F1126" fill-rule="evenodd" transform="translate(7)">
    <path d="M11,22.016 L11,14.848 C11,6.64810304 17.648103,0 25.848,0 C34.047897,0 40.696,6.64810304 40.696,14.848 L40.696,22.016 L35.576,22.016 L35.576,14.848 C35.576,9.47580096 31.220199,5.12 25.848,5.12 C20.475801,5.12 16.12,9.47580096 16.12,14.848 L16.12,22.016 L43.52,22.016 C47.195865,22.016 50.176,24.996135 50.176,28.672 L50.176,57.344 C50.176,61.019865 47.195865,64 43.52,64 L6.656,64 C2.98013504,64 0,61.019865 0,57.344 L0,28.672 C0,24.996135 2.98013504,22.016 6.656,22.016 L11,22.016 Z M43.52,58.88 C44.368167,58.88 45.056,58.192167 45.056,57.344 L45.056,28.672 C45.056,27.823833 44.368167,27.136 43.52,27.136 L6.656,27.136 C5.80783296,27.136 5.12,27.823833 5.12,28.672 L5.12,57.344 C5.12,58.192167 5.80783296,58.88 6.656,58.88 L43.52,58.88 Z"/>
    <path fill-rule="nonzero" d="M27.216,47.6302788 L27.216,52.712 C27.216,53.4189245 26.6429245,53.992 25.936,53.992 C25.2290755,53.992 24.656,53.4189245 24.656,52.712 L24.656,47.8087575 C20.9166926,47.4244535 18,44.2648418 18,40.424 C18,36.323838 21.323838,33 25.424,33 C29.524162,33 32.848,36.323838 32.848,40.424 C32.848,43.9062935 30.450445,46.8286081 27.216,47.6302788 Z M25.424,45.288 C28.110313,45.288 30.288,43.110313 30.288,40.424 C30.288,37.737687 28.110313,35.56 25.424,35.56 C22.737687,35.56 20.56,37.737687 20.56,40.424 C20.56,43.110313 22.737687,45.288 25.424,45.288 Z"/>
  </g>
</svg>
