<svg xmlns="http://www.w3.org/2000/svg" width="64" height="64" viewBox="0 0 64 64">
  <g transform="translate(0 1)">
    <path d="M45.5 19L39.5 19C38.1192881 19 37 20.1192881 37 21.5 37 22.8807119 38.1192881 24 39.5 24L45.5 24C46.8807119 24 48 22.8807119 48 21.5 48 20.1192881 46.8807119 19 45.5 19zM45.5 57L39.5 57C38.1192881 57 37 58.1192881 37 59.5 37 60.8807119 38.1192881 62 39.5 62L45.5 62C46.8807119 62 48 60.8807119 48 59.5 48 58.1192881 46.8807119 57 45.5 57zM29.5 57L23.5 57C22.1192881 57 21 58.1192881 21 59.5 21 60.8807119 22.1192881 62 23.5 62L29.5 62C30.8807119 62 32 60.8807119 32 59.5 32 58.1192881 30.8807119 57 29.5 57zM64 43.5L64 37.5C64 36.1192881 62.8807119 35 61.5 35 60.1192881 35 59 36.1192881 59 37.5L59 43.5C59 44.8807119 60.1192881 46 61.5 46 62.8807119 46 64 44.8807119 64 43.5zM59 27.5C59 28.8807119 60.1192881 30 61.5 30 62.8807119 30 64 28.8807119 64 27.5L64 21.5C64 20.1192881 62.8807119 19 61.5 19L55.5 19C54.1192881 19 53 20.1192881 53 21.5 53 22.8807119 54.1192881 24 55.5 24L59 24 59 27.5zM55.5 57C54.1192881 57 53 58.1192881 53 59.5 53 60.8807119 54.1192881 62 55.5 62L61.5 62C62.8807119 62 64 60.8807119 64 59.5L64 53.5C64 52.1192881 62.8807119 51 61.5 51 60.1192881 51 59 52.1192881 59 53.5L59 57 55.5 57zM10 53.5C10 52.1192881 8.88071187 51 7.5 51 6.11928813 51 5 52.1192881 5 53.5L5 59.5C5 60.8807119 6.11928813 62 7.5 62L13.5 62C14.8807119 62 16 60.8807119 16 59.5 16 58.1192881 14.8807119 57 13.5 57L10 57 10 53.5zM10.0414338 13.535891L40.5464338 38.657891C41.1859193 39.184531 42.1312509 39.0930517 42.657891 38.4535662 43.184531 37.8140807 43.0930517 36.8687491 42.4535662 36.342109L11.9485662 11.220109C11.3090807 10.693469 10.3637491 10.7849483 9.83710903 11.4244338 9.31046896 12.0639193 9.40194827 13.0092509 10.0414338 13.535891z"/>
    <path d="M12.0572842,31.854819 L42.4572842,6.65481902 C43.0950731,6.12612556 43.1835125,5.18050474 42.654819,4.54271581 C42.1261256,3.90492687 41.1805047,3.81648752 40.5427158,4.34518098 L10.1427158,29.545181 C9.50492687,30.0738744 9.41648752,31.0194953 9.94518098,31.6572842 C10.4738744,32.2950731 11.4194953,32.3835125 12.0572842,31.854819 Z"/>
    <path d="M7.5 43C3.35786438 43 0 39.6421356 0 35.5 0 31.3578644 3.35786438 28 7.5 28 11.6421356 28 15 31.3578644 15 35.5 15 39.6421356 11.6421356 43 7.5 43zM7.5 40C9.98528137 40 12 37.9852814 12 35.5 12 33.0147186 9.98528137 31 7.5 31 5.01471863 31 3 33.0147186 3 35.5 3 37.9852814 5.01471863 40 7.5 40zM7.5 15C3.35786438 15 0 11.6421356 0 7.5 0 3.35786438 3.35786438 0 7.5 0 11.6421356 0 15 3.35786438 15 7.5 15 11.6421356 11.6421356 15 7.5 15zM7.5 12C9.98528137 12 12 9.98528137 12 7.5 12 5.01471863 9.98528137 3 7.5 3 5.01471863 3 3 5.01471863 3 7.5 3 9.98528137 5.01471863 12 7.5 12z"/>
  </g>
</svg>
