<svg xmlns="http://www.w3.org/2000/svg" width="64" height="64" viewBox="0 0 64 64">
  <g fill="#0F1126" transform="translate(1 4)">
    <path d="M49.8923077,17.4615385 C49.2125726,17.4615385 48.6615385,16.9105043 48.6615385,16.2307692 C48.6615385,15.5510342 49.2125726,15 49.8923077,15 L61.7076923,15 C62.3874274,15 62.9384615,15.5510342 62.9384615,16.2307692 L62.9384615,45.7692308 C62.9384615,46.4489658 62.3874274,47 61.7076923,47 L55.0615385,47 L55.0615385,55.6153846 C55.0615385,56.6164585 53.9300065,57.1987651 53.1153991,56.6169027 L39.6517353,47 L28.2307692,47 C27.5510342,47 27,46.4489658 27,45.7692308 C27,45.0894957 27.5510342,44.5384615 28.2307692,44.5384615 L40.0461538,44.5384615 C40.3026744,44.5384615 40.5527845,44.6186131 40.7615239,44.7677127 L52.6,53.223767 L52.6,45.7692308 C52.6,45.0894957 53.1510342,44.5384615 53.8307692,44.5384615 L60.4769231,44.5384615 L60.4769231,17.4615385 L49.8923077,17.4615385 Z"/>
    <path d="M2.46153846,38.4 C1.10206831,38.4 0,37.2979317 0,35.9384615 L0,2.46153846 C0,1.10206831 1.10206831,0 2.46153846,0 L49.7230769,0 C51.0825471,0 52.1846154,1.10206831 52.1846154,2.46153846 L52.1846154,35.9384615 C52.1846154,37.2979317 51.0825471,38.4 49.7230769,38.4 L28.9864249,38.4 L13.9286267,51.5755734 C12.3370381,52.9682135 9.84615385,51.8379294 9.84615385,49.7230769 L9.84615385,38.4 L2.46153846,38.4 Z M4.92307692,4.92307692 L4.92307692,33.4769231 L12.3076923,33.4769231 C13.6671625,33.4769231 14.7692308,34.5789914 14.7692308,35.9384615 L14.7692308,44.2984167 L26.440604,34.0859651 C26.8893216,33.6933372 27.4652969,33.4769231 28.0615385,33.4769231 L47.2615385,33.4769231 L47.2615385,4.92307692 L4.92307692,4.92307692 Z"/>
  </g>
</svg>
