<svg xmlns="http://www.w3.org/2000/svg" width="64" height="64" viewBox="0 0 64 64">
  <g transform="translate(1 3)">
    <path d="M51,36.2307692 L51,56.2260355 C51,56.9057706 51.5510342,57.4568047 52.2307692,57.4568047 C52.9105043,57.4568047 53.4615385,56.9057706 53.4615385,56.2260355 L53.4615385,36.2307692 C53.4615385,35.5510342 52.9105043,35 52.2307692,35 C51.5510342,35 51,35.5510342 51,36.2307692 Z"/>
    <path d="M44.231232,47.0350402 C43.7505867,46.5543949 42.9713068,46.5543949 42.4906615,47.0350402 C42.0100162,47.5156855 42.0100162,48.2949654 42.4906615,48.7756107 L51.5794189,57.8643681 C52.0600642,58.3450134 52.8393441,58.3450134 53.3199894,57.8643681 L62.4087468,48.7756107 C62.8893921,48.2949654 62.8893921,47.5156855 62.4087468,47.0350402 C61.9281015,46.5543949 61.1488216,46.5543949 60.6681763,47.0350402 L52.4497041,55.2535123 L44.231232,47.0350402 Z"/>
    <path d="M4.92307692,4.92307692 L54.5325444,4.92307692 L54.5325444,29.7278107 C54.5325444,31.0872808 55.6346127,32.1893491 56.9940828,32.1893491 C58.353553,32.1893491 59.4556213,31.0872808 59.4556213,29.7278107 L59.4556213,2.46153846 C59.4556213,1.10206831 58.353553,0 56.9940828,0 L2.46153846,0 C1.10206831,0 0,1.10206831 0,2.46153846 L0,53.3585799 C0,54.71805 1.10206831,55.8201183 2.46153846,55.8201183 L37.9076923,55.8201183 C39.2671625,55.8201183 40.3692308,54.71805 40.3692308,53.3585799 C40.3692308,51.9991097 39.2671625,50.8970414 37.9076923,50.8970414 L4.92307692,50.8970414 L4.92307692,4.92307692 Z"/>
    <path d="M2.46153846 13.5384615L56.9940828 13.5384615C57.6738179 13.5384615 58.2248521 12.9874274 58.2248521 12.3076923 58.2248521 11.6279572 57.6738179 11.0769231 56.9940828 11.0769231L2.46153846 11.0769231C1.78180338 11.0769231 1.23076923 11.6279572 1.23076923 12.3076923 1.23076923 12.9874274 1.78180338 13.5384615 2.46153846 13.5384615zM37.9076923 41.8461538L2.46153846 41.8461538C1.78180338 41.8461538 1.23076923 42.397188 1.23076923 43.0769231 1.23076923 43.7566582 1.78180338 44.3076923 2.46153846 44.3076923L37.9076923 44.3076923C38.5874274 44.3076923 39.1384615 43.7566582 39.1384615 43.0769231 39.1384615 42.397188 38.5874274 41.8461538 37.9076923 41.8461538z"/>
    <path d="M28.3076923 2.46153846L28.3076923 11.5502959C28.3076923 12.2300309 28.8587265 12.7810651 29.5384615 12.7810651 30.2181966 12.7810651 30.7692308 12.2300309 30.7692308 11.5502959L30.7692308 2.46153846C30.7692308 1.78180338 30.2181966 1.23076923 29.5384615 1.23076923 28.8587265 1.23076923 28.3076923 1.78180338 28.3076923 2.46153846zM28.3076923 44.3076923L28.3076923 53.3964497C28.3076923 54.0761848 28.8587265 54.6272189 29.5384615 54.6272189 30.2181966 54.6272189 30.7692308 54.0761848 30.7692308 53.3964497L30.7692308 44.3076923C30.7692308 43.6279572 30.2181966 43.0769231 29.5384615 43.0769231 28.8587265 43.0769231 28.3076923 43.6279572 28.3076923 44.3076923zM48 2.46153846L48 11.5502959C48 12.2300309 48.5510342 12.7810651 49.2307692 12.7810651 49.9105043 12.7810651 50.4615385 12.2300309 50.4615385 11.5502959L50.4615385 2.46153846C50.4615385 1.78180338 49.9105043 1.23076923 49.2307692 1.23076923 48.5510342 1.23076923 48 1.78180338 48 2.46153846zM38.1538462 2.46153846L38.1538462 11.5502959C38.1538462 12.2300309 38.7048803 12.7810651 39.3846154 12.7810651 40.0643505 12.7810651 40.6153846 12.2300309 40.6153846 11.5502959L40.6153846 2.46153846C40.6153846 1.78180338 40.0643505 1.23076923 39.3846154 1.23076923 38.7048803 1.23076923 38.1538462 1.78180338 38.1538462 2.46153846zM18.4615385 2.46153846L18.4615385 11.5502959C18.4615385 12.2300309 19.0125726 12.7810651 19.6923077 12.7810651 20.3720428 12.7810651 20.9230769 12.2300309 20.9230769 11.5502959L20.9230769 2.46153846C20.9230769 1.78180338 20.3720428 1.23076923 19.6923077 1.23076923 19.0125726 1.23076923 18.4615385 1.78180338 18.4615385 2.46153846zM8.61538462 2.46153846L8.61538462 11.5502959C8.61538462 12.2300309 9.16641877 12.7810651 9.84615385 12.7810651 10.5258889 12.7810651 11.0769231 12.2300309 11.0769231 11.5502959L11.0769231 2.46153846C11.0769231 1.78180338 10.5258889 1.23076923 9.84615385 1.23076923 9.16641877 1.23076923 8.61538462 1.78180338 8.61538462 2.46153846zM18.4615385 44.3076923L18.4615385 53.3964497C18.4615385 54.0761848 19.0125726 54.6272189 19.6923077 54.6272189 20.3720428 54.6272189 20.9230769 54.0761848 20.9230769 53.3964497L20.9230769 44.3076923C20.9230769 43.6279572 20.3720428 43.0769231 19.6923077 43.0769231 19.0125726 43.0769231 18.4615385 43.6279572 18.4615385 44.3076923zM8.61538462 44.3076923L8.61538462 53.3964497C8.61538462 54.0761848 9.16641877 54.6272189 9.84615385 54.6272189 10.5258889 54.6272189 11.0769231 54.0761848 11.0769231 53.3964497L11.0769231 44.3076923C11.0769231 43.6279572 10.5258889 43.0769231 9.84615385 43.0769231 9.16641877 43.0769231 8.61538462 43.6279572 8.61538462 44.3076923zM25.5053254 34.6991032L35.6888915 27.9100592 25.5053254 21.1210151 25.5053254 34.6991032zM24.9572641 17.7972399L38.5904002 26.8859973C39.3211486 27.3731629 39.3211486 28.4469555 38.5904002 28.9341211L24.9572641 38.0228785C24.1393506 38.5681541 23.043787 37.9818263 23.043787 36.9988166L23.043787 18.8213018C23.043787 17.8382921 24.1393506 17.2519642 24.9572641 17.7972399z"/>
  </g>
</svg>
