<svg xmlns="http://www.w3.org/2000/svg" width="64" height="64" viewBox="0 0 64 64">
  <g transform="translate(0 2)">
    <path d="M23.2953349 11.6786975C20.1469758 11.6994045 18.6257548 12.5558755 16.6923066 14.684246 16.6534203 14.7270653 16.6534203 14.7270653 16.6150168 14.7693641 15.1936552 16.3346297 14.4534441 16.7490243 12.3268707 16.7214359 11.5112574 16.7108548 10.8414857 17.3627849 10.8308938 18.1775625 10.8203018 18.9923402 11.4729006 19.6614257 12.2885139 19.6720068 15.3897217 19.7122393 16.8643257 18.8867074 18.8028159 16.7519571 18.8414873 16.7093634 18.8414873 16.7093634 18.8797218 16.6672617 20.3068089 15.0963016 21.1102486 14.6439526 23.314782 14.6294533 24.1304464 14.6240886 24.7873197 13.9591905 24.7819495 13.1443618 24.7765794 12.3295331 24.1109993 11.6733329 23.2953349 11.6786975zM31.0153846 11.8032787C29.1121264 11.8032787 27.5692308 10.2619639 27.5692308 8.36065574 27.5692308 6.45934758 29.1121264 4.91803279 31.0153846 4.91803279 32.9186428 4.91803279 34.4615385 6.45934758 34.4615385 8.36065574 34.4615385 10.2619639 32.9186428 11.8032787 31.0153846 11.8032787zM31.0153846 8.85245902C31.2872786 8.85245902 31.5076923 8.63227119 31.5076923 8.36065574 31.5076923 8.08904029 31.2872786 7.86885246 31.0153846 7.86885246 30.7434906 7.86885246 30.5230769 8.08904029 30.5230769 8.36065574 30.5230769 8.63227119 30.7434906 8.85245902 31.0153846 8.85245902zM54.6461637 41.3114754C59.8121512 41.3114754 64 45.4950416 64 50.6557475 64 55.8164379 59.8121471 60 54.6461637 60L9.35383631 60C4.18784879 60 0 55.8164338 0 50.6557279 0 45.4950375 4.18785292 41.3114754 9.35383631 41.3114754L54.6461637 41.3114754zM54.6461637 46.2295082L9.35383631 46.2295082C6.90679323 46.2295082 4.92307692 48.211192 4.92307692 50.6557279 4.92307692 53.1002814 6.90679127 55.0819672 9.35383631 55.0819672L54.6461637 55.0819672C57.0932068 55.0819672 59.0769231 53.1002834 59.0769231 50.6557475 59.0769231 48.211194 57.0932087 46.2295082 54.6461637 46.2295082z"/>
    <path d="M46.7692406,27.5409836 C51.9352281,27.5409836 56.1230769,31.7245498 56.1230769,36.8852557 C56.1230769,42.0459461 51.935224,46.2295082 46.7692406,46.2295082 L17.2307594,46.2295082 C12.0647719,46.2295082 7.87692308,42.045942 7.87692308,36.8852361 C7.87692308,31.7245457 12.064776,27.5409836 17.2307594,27.5409836 L46.7692406,27.5409836 Z M46.7692406,32.4590164 L17.2307594,32.4590164 C14.7837163,32.4590164 12.8,34.4407002 12.8,36.8852361 C12.8,39.3297896 14.7837143,41.3114754 17.2307594,41.3114754 L46.7692406,41.3114754 C49.2162837,41.3114754 51.2,39.3297916 51.2,36.8852557 C51.2,34.4407022 49.2162857,32.4590164 46.7692406,32.4590164 Z"/>
    <path d="M35.9384615,13.7704918 L29.046144,13.7704918 C26.5991009,13.7704918 24.6153846,11.788808 24.6153846,9.34427213 C24.6153846,6.89971855 26.599099,4.91803279 29.046144,4.91803279 L38.8923175,4.91803279 C41.3393606,4.91803279 43.3230769,6.8997166 43.3230769,9.34425246 L43.3230769,30 C43.3230769,31.3580773 44.4251452,32.4590164 45.7846154,32.4590164 C47.1440855,32.4590164 48.2461538,31.3580773 48.2461538,30 L48.2461538,9.34425246 C48.2461538,4.18356209 44.0583009,0 38.8923175,0 L29.046144,0 C23.8801565,0 19.6923077,4.18356622 19.6923077,9.34427213 C19.6923077,14.5049625 23.8801606,18.6885246 29.046144,18.6885246 L35.9384615,18.6885246 C37.2979317,18.6885246 38.4,17.5875855 38.4,16.2295082 C38.4,14.8714309 37.2979317,13.7704918 35.9384615,13.7704918 Z"/>
    <path d="M34.4615385,30 L34.4615385,16.2294984 C34.4615385,14.8714211 33.3594702,13.770482 32,13.770482 C30.6405298,13.770482 29.5384615,14.8714211 29.5384615,16.2294984 L29.5384615,30 C29.5384615,31.3580773 30.6405298,32.4590164 32,32.4590164 C33.3594702,32.4590164 34.4615385,31.3580773 34.4615385,30 Z"/>
  </g>
</svg>
