<svg width="600" height="600" viewBox="0 0 600 600" fill="none" xmlns="http://www.w3.org/2000/svg">
<path d="M596.529 278.057C596.066 272.217 583.079 270.769 577.455 262.172C575.683 259.476 575.221 255.054 575.221 250.217C575.221 245.995 575.56 241.481 575.714 237.522C576.084 228.247 575.699 223.147 575.791 207.463C575.868 195.015 574.328 181.21 568.596 177.975C563.281 174.955 554.699 180.825 542.513 192.026C535.718 198.281 531.251 203.673 526.598 207.525C526.32 207.756 526.043 208.002 525.75 208.234C525.473 208.449 518.494 206.647 514.411 205.83C513.533 205.661 512.994 204.628 512.547 202.81C511.561 198.728 511.037 190.593 508.187 178.699C504.643 163.893 499.836 156.652 492.888 156.051C487.033 155.558 476.88 170.302 469.054 182.643C462.568 192.858 462.09 193.905 459.563 197.588C457.714 200.268 455.604 203.442 453.308 206.631C448.578 213.194 443.124 219.742 437.901 221.822C428.041 225.736 420.43 220.466 416.763 225.011C413.251 229.371 417.072 230.188 417.857 230.943C438.98 236.274 444.033 264.406 453.801 261.972C462.121 259.892 467.605 268.736 484.753 270.877C501.808 273.003 503.765 282.201 516.553 279.813C543.468 274.806 565.977 273.589 592.107 283.095C590.766 281.045 596.821 281.816 596.529 278.057Z" fill="url(#paint0_linear_37_2629)"/>
<path d="M553.359 225.365C562.202 235.611 571.323 245.995 575.221 250.232C575.221 246.01 575.56 241.496 575.714 237.537C576.084 228.262 575.699 223.162 575.791 207.478C575.868 195.03 574.327 181.225 568.596 177.99C563.281 174.97 554.699 180.84 542.513 192.041C535.718 198.296 531.25 203.688 526.598 207.54C532.144 209.527 544.223 214.781 553.359 225.365Z" fill="url(#paint1_linear_37_2629)"/>
<path d="M512.563 202.81C511.577 198.728 511.053 190.593 508.203 178.699C504.659 163.893 499.852 156.652 492.904 156.051C487.049 155.558 476.896 170.302 469.07 182.643C462.584 192.858 462.106 193.905 459.579 197.588C457.731 200.268 455.62 203.442 453.324 206.631C460.026 205.522 471.997 203.38 483.722 201.208C495.277 199.051 506.03 201.008 512.547 202.81H512.563Z" fill="url(#paint2_linear_37_2629)"/>
<path d="M592.107 283.094C566.686 273.85 544.454 274.759 518.155 279.535C515.505 280.013 513.348 280.444 510.452 280.075C516.337 286.345 499.205 302.553 478.837 298.671C471.889 297.346 466.265 295.204 461.782 292.6C446.745 283.834 445.035 269.953 450.504 262.881C450.751 262.573 450.997 262.249 451.275 261.926C443.001 259.538 437.085 235.827 417.858 230.974C418.027 231.128 418.058 231.282 417.858 231.467C415.963 233.254 407.951 229.787 405.964 234.979C404.346 239.232 412.943 240.002 412.311 241.974C411.433 244.67 405.27 243.992 404.454 246.704C403.083 251.233 406.025 250.956 413.528 257.75C417.318 261.171 422.249 266.394 428.396 274.929C438.164 288.518 438.826 319.67 437.624 341.07C437.024 351.777 431.57 375.581 430.953 388.153C430.306 401.079 431.662 412.711 431.986 422.956C432.063 427.979 431.986 434.989 430.815 439.95C427.887 454.694 419.183 457.051 416.009 476.433C411.233 505.598 442.971 516.552 442.632 516.644C442.555 516.66 442.447 516.69 442.323 516.721C443.941 516.906 445.528 517.106 447.069 517.291C454.002 518.139 460.026 518.94 465.202 519.664C467.205 519.941 469.331 520.219 471.103 520.48C470.564 523.67 469.717 527.367 468.9 529.755C467.76 533.099 466.574 539.184 468.238 541.973C471.565 547.596 492.195 546.749 493.15 540.109C493.628 536.873 493.936 532.914 494.121 528.43C494.121 528.446 494.121 528.461 494.121 528.477C496.463 528.369 496.617 528.4 498.142 528.492C498.157 529.154 498.404 535.317 499.112 540.109C500.083 546.749 520.697 547.596 524.025 541.973C525.674 539.2 524.518 533.114 523.363 529.755C522.823 528.184 522.253 525.965 521.776 523.685C524.364 523.161 554.315 517.029 556.841 516.629C556.872 516.506 557.042 516.398 557.35 516.29C571.077 511.545 586.653 490.53 579.458 470.886C575.345 459.64 567.703 454.309 563.42 446.806C554.561 431.26 561.325 427.624 557.427 386.134C555.732 368.062 550.987 346.77 549.061 335.754C545.24 313.877 550.186 314.016 563.081 310.426C579.72 305.788 585.39 308.716 587.624 303.508C588.687 301.059 584.727 299.333 585.59 296.806C586.961 292.847 598.07 296.144 598.886 292.03C599.934 286.746 593.417 285.082 592.123 283.11L592.107 283.094Z" fill="url(#paint3_linear_37_2629)"/>
<path opacity="0.6" d="M592.107 283.094C566.686 273.85 544.454 274.759 518.155 279.535C515.505 280.013 513.348 280.444 510.452 280.075C516.337 286.345 499.205 302.553 478.837 298.671C471.889 297.346 466.265 295.204 461.782 292.6C446.745 283.834 445.035 269.953 450.504 262.881C450.751 262.573 450.997 262.249 451.275 261.926C443.001 259.538 437.085 235.827 417.858 230.974C418.027 231.128 418.058 231.282 417.858 231.467C415.963 233.254 407.951 229.787 405.964 234.979C404.346 239.232 412.943 240.002 412.311 241.974C411.433 244.67 405.27 243.992 404.454 246.704C403.083 251.233 406.025 250.956 413.528 257.75C417.318 261.171 422.249 266.394 428.396 274.929C438.164 288.518 438.826 319.67 437.624 341.07C437.024 351.777 431.57 375.581 430.953 388.153C430.306 401.079 431.662 412.711 431.986 422.956C432.063 427.979 431.986 434.989 430.815 439.95C427.887 454.694 419.183 457.051 416.009 476.433C411.233 505.598 442.971 516.552 442.632 516.644C442.555 516.66 442.447 516.69 442.323 516.721C443.941 516.906 445.528 517.106 447.069 517.291C454.002 518.139 460.026 518.94 465.202 519.664C467.205 519.941 469.331 520.219 471.103 520.48C470.564 523.67 469.717 527.367 468.9 529.755C467.76 533.099 466.574 539.184 468.238 541.973C471.565 547.596 492.195 546.749 493.15 540.109C493.628 536.873 493.936 532.914 494.121 528.43C494.121 528.446 494.121 528.461 494.121 528.477C496.463 528.369 496.617 528.4 498.142 528.492C498.157 529.154 498.404 535.317 499.112 540.109C500.083 546.749 520.697 547.596 524.025 541.973C525.674 539.2 524.518 533.114 523.363 529.755C522.823 528.184 522.253 525.965 521.776 523.685C524.364 523.161 554.315 517.029 556.841 516.629C556.872 516.506 557.042 516.398 557.35 516.29C571.077 511.545 586.653 490.53 579.458 470.886C575.345 459.64 567.703 454.309 563.42 446.806C554.561 431.26 561.325 427.624 557.427 386.134C555.732 368.062 550.987 346.77 549.061 335.754C545.24 313.877 550.186 314.016 563.081 310.426C579.72 305.788 585.39 308.716 587.624 303.508C588.687 301.059 584.727 299.333 585.59 296.806C586.961 292.847 598.07 296.144 598.886 292.03C599.934 286.746 593.417 285.082 592.123 283.11L592.107 283.094Z" fill="url(#paint4_linear_37_2629)"/>
<path d="M465.465 519.663C460.288 518.939 454.264 518.138 447.331 517.291C445.791 517.106 444.219 516.906 442.586 516.721C440.599 517.137 432.433 518.462 426.486 525.734C424.375 528.306 423.667 530.325 423.651 531.989C423.651 533.098 423.944 534.053 424.375 534.885C426.332 538.691 435.853 538.321 441.354 536.857C444.466 536.025 448.502 535.101 452.986 534.207C457.87 533.237 463.277 532.297 468.608 531.557C468.778 530.956 468.947 530.356 469.163 529.755C469.948 527.459 470.811 523.777 471.35 520.526C469.532 520.249 467.545 519.971 465.45 519.663H465.465Z" fill="url(#paint5_linear_37_2629)"/>
<path d="M570.754 526.565C569.506 525.04 567.349 523.315 563.851 521.281C559.414 518.708 555.455 517.568 555.994 516.782C555.285 516.89 554.577 517.013 553.837 517.167C538.8 520.218 528.693 521.974 521.868 522.96C522.377 525.502 523.024 528.029 523.609 529.755C523.809 530.34 523.994 530.926 524.148 531.511C524.21 531.758 524.272 532.004 524.333 532.251C537.46 534.253 543.237 536.734 553.791 537.273C565.608 537.874 569.275 536.688 571.277 533.144C572.356 531.218 572.895 529.185 570.754 526.565Z" fill="url(#paint6_linear_37_2629)"/>
<path opacity="0.38" d="M470.902 479.653C465.864 460.533 450.365 445.635 430.86 441.321C430.583 442.538 430.228 443.709 429.828 444.865C429.828 444.911 429.797 444.942 429.782 444.988C429.196 446.683 428.518 448.331 427.64 449.903C423.326 457.729 418.427 463.199 416.27 476.448C411.494 505.613 443.232 516.567 442.893 516.66C442.816 516.675 442.708 516.706 442.585 516.737C444.202 516.922 445.789 517.122 447.33 517.307C454.263 518.154 460.287 518.956 465.463 519.68C468.807 513.948 471.102 507.539 472.088 500.699C471.904 494.289 471.488 487.125 470.902 479.653Z" fill="url(#paint7_radial_37_2629)"/>
<path d="M492.025 460.255C490.993 461.488 490.377 469.576 489.052 470.254C487.989 470.793 487.465 463.906 486.371 457.698C486.078 456.018 484.938 450.58 484.645 448.962C483.259 441.182 483.243 441.798 482.088 435.45C481.857 440.519 481.395 441.875 480.47 449.64C480.023 453.414 479.376 457.944 478.852 460.455C478.39 462.643 477.666 454.493 477.235 452.351C475.078 441.952 473.568 439.163 470.656 428.81C469.008 422.955 463.846 417.548 463.338 413.819C465.695 429.796 469.1 456.234 470.933 479.667C471.519 487.124 471.935 494.288 472.12 500.713C472.289 506.876 472.243 512.376 471.889 516.782C471.796 517.876 471.627 519.17 471.396 520.557C470.856 523.808 469.994 527.49 469.208 529.785C469.008 530.386 468.823 530.987 468.653 531.588C467.451 536.025 467.451 540.154 468.545 542.003C471.873 547.626 492.503 546.779 493.458 540.139C493.936 536.888 494.244 532.928 494.429 528.43C495.122 511.482 493.936 486.585 492.056 460.27L492.025 460.255Z" fill="url(#paint8_linear_37_2629)"/>
<path d="M524.163 531.511C524.009 530.925 523.824 530.34 523.624 529.755C523.023 528.014 522.391 525.487 521.883 522.96C521.436 520.726 521.067 518.477 520.928 516.767C519.064 493.364 525.627 439.78 529.479 413.819C528.97 417.563 523.809 422.955 522.16 428.81C519.249 439.163 517.739 441.952 515.582 452.351C515.135 454.508 514.426 462.658 513.964 460.455C513.425 457.944 512.793 453.414 512.346 449.64C511.422 441.859 510.96 440.519 510.729 435.45C509.573 441.798 509.573 441.197 508.171 448.962C507.878 450.564 506.754 456.003 506.446 457.698C505.352 463.922 504.828 470.793 503.765 470.254C502.425 469.576 501.824 461.488 500.791 460.255C498.912 486.554 497.725 511.451 498.419 528.399C498.604 532.898 498.912 536.872 499.389 540.123C500.36 546.764 520.974 547.611 524.302 541.987C525.334 540.231 525.38 536.426 524.364 532.25C524.302 532.004 524.256 531.757 524.179 531.511H524.163Z" fill="url(#paint9_linear_37_2629)"/>
<path opacity="0.6" d="M494.336 336.495C494.336 336.495 472.505 352.626 478.39 390.31C483.104 420.492 486.956 427.471 489.929 446.622C492.903 465.772 496.077 487.881 496.077 487.881C496.077 487.881 498.758 466.496 502.363 446.129C504.936 431.57 510.097 411.972 512.87 388.415C517.323 350.484 494.336 336.479 494.336 336.479V336.495Z" fill="url(#paint10_linear_37_2629)"/>
<path d="M472.953 251.849C485.478 253.529 494.383 272.864 508.311 278.642C519.435 283.248 501.054 302.923 478.853 298.67C448.949 292.97 443.218 272.325 450.521 262.881C454.434 257.812 462.445 250.432 472.953 251.849Z" fill="#FFC635"/>
<path d="M472.567 254.963C468.1 253.499 464.987 254.624 463.631 256.195C461.968 258.121 462.214 263.359 467.699 265.162C472.906 266.872 477.451 263.529 477.652 260.863C477.79 258.968 476.496 256.241 472.552 254.963H472.567Z" fill="#00073A"/>
<path d="M523.547 243.175C528.924 244.685 530.758 249.23 525.905 259.152C522.099 266.948 518.71 266.593 513.656 265.099C511.006 264.313 507.833 260.261 510.714 254.314C514.642 246.195 517.924 241.604 523.547 243.19V243.175Z" fill="url(#paint11_linear_37_2629)"/>
<path d="M516.002 258.279C516.643 256.936 516.161 255.368 514.925 254.778C513.689 254.187 512.166 254.798 511.525 256.142C510.883 257.486 511.365 259.054 512.602 259.644C513.838 260.234 515.36 259.623 516.002 258.279Z" fill="white"/>
<path d="M478.991 224.657C486.078 226.306 485.292 232.499 480.439 241.681C477.404 247.428 474.107 247.289 469.069 245.795C466.434 245.025 462.937 242.144 467.051 234.271C470.379 227.877 474.538 223.609 479.006 224.657H478.991Z" fill="url(#paint12_linear_37_2629)"/>
<path d="M472.289 239.879C472.949 238.497 472.456 236.886 471.189 236.281C469.923 235.676 468.36 236.307 467.701 237.689C467.041 239.071 467.533 240.682 468.8 241.287C470.067 241.891 471.629 241.261 472.289 239.879Z" fill="white"/>
<path d="M433.418 478.436V547.226C433.418 559.167 423.712 568.873 411.771 568.873H156.313C144.373 568.873 134.667 559.167 134.667 547.226V478.436H433.418Z" fill="#7543E3"/>
<path d="M433.418 53.7352V470.347H134.667V53.7352C134.667 41.8105 144.373 32.0889 156.313 32.0889H411.771C423.712 32.0889 433.418 41.8105 433.418 53.7352Z" fill="#FCF5F0"/>
<path d="M153.803 141.46C178.947 141.198 182.09 137.038 188.037 136.977C191.272 136.946 202.211 137.285 211.332 135.806C220.976 134.25 227.539 134.404 230.913 128.734C235.844 120.445 230.744 114.791 223.873 111.433C218.357 108.752 210.993 107.951 205.061 106.271C197.265 104.068 193.306 102.497 188.807 100.078C179.609 95.1477 166.714 94.1771 160.936 94.6547C145.268 95.9642 138.443 97.813 134.668 99.6156V138.117C138.843 139.719 143.157 141.553 153.803 141.429V141.46Z" fill="url(#paint13_linear_37_2629)"/>
<path d="M415.501 401.847C383.825 404.497 394.902 409.75 381.945 410.783C371.885 411.584 364.058 416.853 360.684 423.709C355.846 433.6 372.393 436.312 383.963 436.573C394.378 436.805 394.039 441.473 409.477 441.319C423.697 441.165 429.583 439.547 433.419 438.468V404.112C426.671 401.97 419.276 401.539 415.485 401.847H415.501Z" fill="url(#paint14_linear_37_2629)"/>
<path d="M252.805 357.137C256.903 356.799 266.07 357.492 272.603 360.989C275.807 362.715 278.611 363.824 284.158 365.395C288.364 366.582 293.602 367.152 297.515 369.062C302.399 371.435 306.035 375.471 302.523 381.357C300.119 385.378 295.466 385.27 288.61 386.379C282.124 387.427 274.359 387.18 272.048 387.211C267.827 387.258 265.593 390.2 247.721 390.4C234.733 390.539 235.01 386.61 226.244 386.41C216.507 386.194 202.564 383.899 206.647 375.579C209.482 369.817 216.076 365.365 224.534 364.702C235.442 363.839 226.105 359.418 252.79 357.184L252.805 357.137Z" fill="url(#paint15_linear_37_2629)"/>
<path d="M338.944 160.41C344.398 159.948 356.616 160.872 365.32 165.541C369.603 167.836 373.332 169.315 380.712 171.395C386.32 172.982 393.299 173.737 398.522 176.279C405.023 179.453 409.861 184.814 405.193 192.656C401.988 198.018 395.795 197.879 386.659 199.343C378.015 200.729 367.662 200.406 364.612 200.437C358.988 200.498 355.999 204.427 332.196 204.674C314.894 204.858 315.279 199.62 303.586 199.358C290.598 199.066 272.033 196.015 277.471 184.922C281.231 177.234 290.043 171.318 301.321 170.425C315.85 169.269 303.416 163.384 338.96 160.41H338.944Z" fill="url(#paint16_linear_37_2629)"/>
<path d="M329.192 248.104C332.273 248.72 342.026 246.995 351.023 248.535C363.626 250.708 379.587 264.82 381.559 273.71C386.828 297.39 353.349 302.597 329.716 304.415C308.454 306.049 325.171 308.806 293.633 310.178C250.248 312.057 242.082 303.969 231.837 304.415C226.26 304.662 217.74 306.711 201.871 305.032C185.093 303.26 173.8 304.123 167.437 294.678C158.147 280.859 167.114 252.326 196.587 249.629C210.514 248.351 212.193 249.552 219.743 244.961C235.149 235.594 260.262 231.033 270.261 231.28C312.368 232.328 310.781 244.437 329.207 248.119L329.192 248.104Z" fill="url(#paint17_linear_37_2629)"/>
<path d="M411.771 24H156.313C139.889 24 126.578 37.3114 126.578 53.7349V547.226C126.578 563.65 139.889 576.961 156.313 576.961H411.771C428.195 576.961 441.506 563.65 441.506 547.226V53.7349C441.506 37.3114 428.195 24 411.771 24ZM433.417 547.226C433.417 559.166 423.711 568.872 411.771 568.872H156.313C144.373 568.872 134.667 559.166 134.667 547.226V478.435H433.417V547.226ZM433.417 470.347H134.667V53.7349C134.667 41.8101 144.373 32.0885 156.313 32.0885H411.771C423.711 32.0885 433.417 41.8101 433.417 53.7349V470.347ZM165.788 513.578C165.788 509.11 167.606 505.043 170.533 502.115C173.476 499.188 177.513 497.37 181.996 497.37H383.13C392.081 497.37 399.338 504.627 399.338 513.578C399.338 518.046 397.52 522.113 394.593 525.041C391.665 527.968 387.598 529.786 383.13 529.786H181.996C173.045 529.786 165.788 522.529 165.788 513.578Z" fill="#00073A"/>
<path d="M126.595 496.537C126.595 496.537 107.229 496.46 93.5171 491.962C48.4371 477.202 23.8943 449.054 8.6263 416.037C3.20315 404.328 1 384.408 1 384.408C1 384.408 4.28162 387.458 8.74956 390.955C12.2931 393.729 14.866 394.638 14.866 394.638C14.866 394.638 12.0004 388.382 10.2286 379.246C3.94266 346.908 11.3225 323.551 25.3425 299.378C44.7087 265.992 63.6589 252.48 73.1032 225.811C76.4773 216.259 77.4171 208.571 75.0445 201.268C72.2097 192.517 55.1853 185.939 55.1853 185.939C55.1853 185.939 79.9438 177.881 109.771 193.534C126.919 202.532 142.094 214.164 151.061 227.29C173.354 259.922 176.205 280.798 169.996 320.038C164.111 357.184 140.338 388.382 131.479 404.22C129.938 406.978 126.611 416.191 126.611 417.948V496.522L126.595 496.537Z" fill="url(#paint18_linear_37_2629)"/>
<path opacity="0.7" d="M148.826 269.505C144.697 254.422 142.155 250.201 133.604 237.105C127.842 228.262 122.265 224.502 122.265 224.502L126.224 236.412L129.075 247.674C130.677 248.722 124.114 239.909 114.022 229.926C106.935 222.916 96.0273 218.201 96.0273 218.201C96.0273 218.201 105.21 231.466 111.095 244.531C116.98 257.596 119.569 284.989 118.244 293.093C115.856 307.729 135.992 302.168 144.836 303.77C153.679 305.372 152.986 293.386 148.811 269.475L148.826 269.505Z" fill="url(#paint19_linear_37_2629)"/>
<path d="M126.595 459.777C122.25 457.589 117.982 455.216 113.884 452.628C102.683 445.556 93.7475 437.992 84.7654 426.467C80.4669 420.952 74.258 408.056 74.258 408.056C74.258 408.056 86.491 420.875 93.7783 425.928C99.8794 430.15 113.622 435.511 113.622 435.511C113.622 435.511 102.914 427.068 98.3079 422.4C87.2613 411.184 79.1419 398.35 73.765 384.53C65.5841 363.469 63.7661 340.128 67.6948 316.772C69.2047 307.821 74.6894 290.057 74.6894 290.057C74.6894 290.057 57.9732 305.987 51.7643 321.409C43.7066 341.453 44.7389 365.303 44.7389 365.303C44.7389 365.303 39.9628 357.476 37.7904 353.008C35.7876 348.895 33.7231 339.635 33.7231 339.635C33.7231 339.635 30.7034 351.452 30.5493 364.979C30.272 389.476 33.7539 408.58 45.617 429.687C55.3849 447.035 79.8661 466.124 107.29 477.956C113.191 480.499 119.831 482.116 126.564 483.226V459.792L126.595 459.777Z" fill="url(#paint20_radial_37_2629)"/>
<defs>
<linearGradient id="paint0_linear_37_2629" x1="538.353" y1="153.663" x2="476.803" y2="342.688" gradientUnits="userSpaceOnUse">
<stop offset="0.17" stop-color="#FF6600"/>
<stop offset="0.54" stop-color="#FF9C00"/>
<stop offset="0.9" stop-color="#FF6700"/>
<stop offset="0.91" stop-color="#FF6600"/>
</linearGradient>
<linearGradient id="paint1_linear_37_2629" x1="555.003" y1="222.654" x2="587.901" y2="170.554" gradientUnits="userSpaceOnUse">
<stop stop-color="#FF6600" stop-opacity="0"/>
<stop offset="0.11" stop-color="#FF6600" stop-opacity="0.3"/>
<stop offset="0.23" stop-color="#FF6600" stop-opacity="0.6"/>
<stop offset="0.32" stop-color="#FF6600" stop-opacity="0.82"/>
<stop offset="0.4" stop-color="#FF6600" stop-opacity="0.95"/>
<stop offset="0.43" stop-color="#FF6600"/>
<stop offset="0.72" stop-color="#FD4737"/>
<stop offset="1" stop-color="#FB2872"/>
</linearGradient>
<linearGradient id="paint2_linear_37_2629" x1="483.235" y1="200.253" x2="490.546" y2="138.942" gradientUnits="userSpaceOnUse">
<stop stop-color="#FF6600" stop-opacity="0"/>
<stop offset="0.03" stop-color="#FF6600" stop-opacity="0.17"/>
<stop offset="0.07" stop-color="#FF6600" stop-opacity="0.36"/>
<stop offset="0.11" stop-color="#FF6600" stop-opacity="0.53"/>
<stop offset="0.15" stop-color="#FF6600" stop-opacity="0.68"/>
<stop offset="0.2" stop-color="#FF6600" stop-opacity="0.8"/>
<stop offset="0.24" stop-color="#FF6600" stop-opacity="0.89"/>
<stop offset="0.29" stop-color="#FF6600" stop-opacity="0.95"/>
<stop offset="0.35" stop-color="#FF6600" stop-opacity="0.99"/>
<stop offset="0.42" stop-color="#FF6600"/>
<stop offset="0.7" stop-color="#FD4737"/>
<stop offset="0.97" stop-color="#FB2872"/>
</linearGradient>
<linearGradient id="paint3_linear_37_2629" x1="501.562" y1="225.196" x2="501.562" y2="564.99" gradientUnits="userSpaceOnUse">
<stop stop-color="#FF6600"/>
<stop offset="0.01" stop-color="#FF7408"/>
<stop offset="0.04" stop-color="#FF8A14"/>
<stop offset="0.07" stop-color="#FF9B1D"/>
<stop offset="0.11" stop-color="#FFA724"/>
<stop offset="0.17" stop-color="#FFAE27"/>
<stop offset="0.33" stop-color="#FFB029"/>
<stop offset="0.46" stop-color="#FF9218"/>
<stop offset="0.63" stop-color="#FF6600"/>
<stop offset="0.64" stop-color="#FE5D0F"/>
<stop offset="0.69" stop-color="#FD4A32"/>
<stop offset="0.74" stop-color="#FC3B4E"/>
<stop offset="0.79" stop-color="#FB3062"/>
<stop offset="0.84" stop-color="#FB2A6E"/>
<stop offset="0.89" stop-color="#FB2872"/>
</linearGradient>
<linearGradient id="paint4_linear_37_2629" x1="501.562" y1="225.196" x2="501.562" y2="564.99" gradientUnits="userSpaceOnUse">
<stop stop-color="#FFEB49" stop-opacity="0.8"/>
<stop offset="0.22" stop-color="#FFD13A" stop-opacity="0.64"/>
<stop offset="0.7" stop-color="#FF8F17" stop-opacity="0.25"/>
<stop offset="1" stop-color="#FF6600" stop-opacity="0"/>
</linearGradient>
<linearGradient id="paint5_linear_37_2629" x1="579.089" y1="474.584" x2="371.9" y2="557.148" gradientUnits="userSpaceOnUse">
<stop offset="0.02" stop-color="#BE0449" stop-opacity="0"/>
<stop offset="0.51" stop-color="#FB2872"/>
<stop offset="0.67" stop-color="#A31C5E"/>
<stop offset="0.83" stop-color="#4C104A"/>
<stop offset="0.94" stop-color="#15093E"/>
<stop offset="1" stop-color="#00073A"/>
</linearGradient>
<linearGradient id="paint6_linear_37_2629" x1="463.015" y1="494.35" x2="604.402" y2="549.629" gradientUnits="userSpaceOnUse">
<stop stop-color="#BE0449" stop-opacity="0"/>
<stop offset="0.41" stop-color="#FB2872"/>
<stop offset="1" stop-color="#00073A"/>
</linearGradient>
<radialGradient id="paint7_radial_37_2629" cx="0" cy="0" r="1" gradientUnits="userSpaceOnUse" gradientTransform="translate(419.552 500.36) scale(87.7565 87.7564)">
<stop stop-color="#FFEB49"/>
<stop offset="0.05" stop-color="#FFE546" stop-opacity="0.96"/>
<stop offset="0.14" stop-color="#FFD73E" stop-opacity="0.85"/>
<stop offset="0.25" stop-color="#FFC031" stop-opacity="0.68"/>
<stop offset="0.38" stop-color="#FFA01F" stop-opacity="0.44"/>
<stop offset="0.53" stop-color="#FF7709" stop-opacity="0.13"/>
<stop offset="0.59" stop-color="#FF6600" stop-opacity="0"/>
</radialGradient>
<linearGradient id="paint8_linear_37_2629" x1="477.096" y1="415.899" x2="483.12" y2="576.052" gradientUnits="userSpaceOnUse">
<stop offset="0.01" stop-color="#BE0449" stop-opacity="0"/>
<stop offset="0.06" stop-color="#BF054A" stop-opacity="0.04"/>
<stop offset="0.14" stop-color="#C2084C" stop-opacity="0.16"/>
<stop offset="0.23" stop-color="#C70D51" stop-opacity="0.36"/>
<stop offset="0.35" stop-color="#CE1457" stop-opacity="0.63"/>
<stop offset="0.48" stop-color="#D71E5F" stop-opacity="0.97"/>
<stop offset="0.49" stop-color="#D81F60"/>
<stop offset="0.56" stop-color="#D31E5F"/>
<stop offset="0.63" stop-color="#C71D5D"/>
<stop offset="0.7" stop-color="#B31A59"/>
<stop offset="0.77" stop-color="#971754"/>
<stop offset="0.84" stop-color="#73134E"/>
<stop offset="0.91" stop-color="#460E46"/>
<stop offset="0.98" stop-color="#13093D"/>
<stop offset="1" stop-color="#00073A"/>
</linearGradient>
<linearGradient id="paint9_linear_37_2629" x1="516.46" y1="386.534" x2="509.804" y2="577.238" gradientUnits="userSpaceOnUse">
<stop stop-color="#D81F60" stop-opacity="0"/>
<stop offset="0.11" stop-color="#D81F60" stop-opacity="0.01"/>
<stop offset="0.19" stop-color="#D81F60" stop-opacity="0.06"/>
<stop offset="0.27" stop-color="#D81F60" stop-opacity="0.14"/>
<stop offset="0.35" stop-color="#D81F60" stop-opacity="0.25"/>
<stop offset="0.42" stop-color="#D81F60" stop-opacity="0.39"/>
<stop offset="0.49" stop-color="#D81F60" stop-opacity="0.57"/>
<stop offset="0.55" stop-color="#D81F60" stop-opacity="0.77"/>
<stop offset="0.62" stop-color="#D81F60"/>
<stop offset="0.66" stop-color="#D21E5F"/>
<stop offset="0.71" stop-color="#C21C5C"/>
<stop offset="0.77" stop-color="#A81957"/>
<stop offset="0.83" stop-color="#841551"/>
<stop offset="0.9" stop-color="#551049"/>
<stop offset="0.97" stop-color="#1D0A3F"/>
<stop offset="1" stop-color="#00073A"/>
</linearGradient>
<linearGradient id="paint10_linear_37_2629" x1="494.967" y1="368.679" x2="501.469" y2="511.715" gradientUnits="userSpaceOnUse">
<stop stop-color="#FFEB49"/>
<stop offset="0.09" stop-color="#FFE745" stop-opacity="0.96"/>
<stop offset="0.24" stop-color="#FFDE3D" stop-opacity="0.84"/>
<stop offset="0.44" stop-color="#FFCF2F" stop-opacity="0.66"/>
<stop offset="0.67" stop-color="#FFBB1C" stop-opacity="0.4"/>
<stop offset="0.94" stop-color="#FFA105" stop-opacity="0.07"/>
<stop offset="1" stop-color="#FF9C00" stop-opacity="0"/>
</linearGradient>
<linearGradient id="paint11_linear_37_2629" x1="524.04" y1="235.472" x2="516.291" y2="265.53" gradientUnits="userSpaceOnUse">
<stop offset="0.16" stop-color="#A030B9"/>
<stop offset="0.88" stop-color="#00073A"/>
</linearGradient>
<linearGradient id="paint12_linear_37_2629" x1="479.777" y1="218.695" x2="472.274" y2="243.808" gradientUnits="userSpaceOnUse">
<stop offset="0.16" stop-color="#A030B9"/>
<stop offset="0.88" stop-color="#00073A"/>
</linearGradient>
<linearGradient id="paint13_linear_37_2629" x1="186.927" y1="162.629" x2="179.979" y2="90.8184" gradientUnits="userSpaceOnUse">
<stop stop-color="#D0CED3"/>
<stop offset="0.29" stop-color="#D9D7DB"/>
<stop offset="0.77" stop-color="#F1F1F2"/>
<stop offset="1" stop-color="white"/>
</linearGradient>
<linearGradient id="paint14_linear_37_2629" x1="397.46" y1="460.392" x2="396.52" y2="409.797" gradientUnits="userSpaceOnUse">
<stop stop-color="#D0CED3"/>
<stop offset="0.29" stop-color="#D9D7DB"/>
<stop offset="0.77" stop-color="#F1F1F2"/>
<stop offset="1" stop-color="white"/>
</linearGradient>
<linearGradient id="paint15_linear_37_2629" x1="255.455" y1="406.1" x2="254.654" y2="363.5" gradientUnits="userSpaceOnUse">
<stop stop-color="#D0CED3"/>
<stop offset="0.29" stop-color="#D9D7DB"/>
<stop offset="0.77" stop-color="#F1F1F2"/>
<stop offset="1" stop-color="white"/>
</linearGradient>
<linearGradient id="paint16_linear_37_2629" x1="342.472" y1="225.627" x2="341.409" y2="168.884" gradientUnits="userSpaceOnUse">
<stop stop-color="#D0CED3"/>
<stop offset="0.29" stop-color="#D9D7DB"/>
<stop offset="0.77" stop-color="#F1F1F2"/>
<stop offset="1" stop-color="white"/>
</linearGradient>
<linearGradient id="paint17_linear_37_2629" x1="273.712" y1="335.522" x2="272.557" y2="243.867" gradientUnits="userSpaceOnUse">
<stop stop-color="#D0CED3"/>
<stop offset="0.29" stop-color="#D9D7DB"/>
<stop offset="0.77" stop-color="#F1F1F2"/>
<stop offset="1" stop-color="white"/>
</linearGradient>
<linearGradient id="paint18_linear_37_2629" x1="86.923" y1="183.89" x2="86.923" y2="496.537" gradientUnits="userSpaceOnUse">
<stop stop-color="#FFEB49"/>
<stop offset="0.32" stop-color="#FF9B1D"/>
<stop offset="0.56" stop-color="#FF6600"/>
<stop offset="0.74" stop-color="#FD4835"/>
<stop offset="0.91" stop-color="#FB3161"/>
<stop offset="1" stop-color="#FB2872"/>
</linearGradient>
<linearGradient id="paint19_linear_37_2629" x1="97.0014" y1="216.331" x2="136.534" y2="285.633" gradientUnits="userSpaceOnUse">
<stop offset="0.03" stop-color="#FFEB49"/>
<stop offset="0.12" stop-color="#FFEB49" stop-opacity="0.96"/>
<stop offset="0.26" stop-color="#FFEB49" stop-opacity="0.84"/>
<stop offset="0.46" stop-color="#FFEB49" stop-opacity="0.66"/>
<stop offset="0.69" stop-color="#FFEB49" stop-opacity="0.4"/>
<stop offset="0.95" stop-color="#FFEB49" stop-opacity="0.07"/>
<stop offset="1" stop-color="#FFEB49" stop-opacity="0"/>
</linearGradient>
<radialGradient id="paint20_radial_37_2629" cx="0" cy="0" r="1" gradientUnits="userSpaceOnUse" gradientTransform="translate(-189.104 342.085) scale(294.129 294.129)">
<stop stop-color="#BE0449"/>
<stop offset="1" stop-color="#FB2872" stop-opacity="0.07"/>
</radialGradient>
</defs>
</svg>
