<?xml version="1.0" encoding="UTF-8"?>
<svg fill="none" viewBox="0 0 600 600" xmlns="http://www.w3.org/2000/svg">
<path d="m596.53 278.06c-0.463-5.84-13.45-7.288-19.074-15.885-1.772-2.696-2.234-7.118-2.234-11.955 0-4.222 0.339-8.736 0.493-12.695 0.37-9.275-0.015-14.375 0.077-30.059 0.077-12.448-1.463-26.253-7.195-29.488-5.315-3.02-13.897 2.85-26.083 14.051-6.795 6.255-11.262 11.647-15.915 15.499-0.278 0.231-0.555 0.477-0.848 0.709-0.277 0.215-7.256-1.587-11.339-2.404-0.878-0.169-1.417-1.202-1.864-3.02-0.986-4.082-1.51-12.217-4.36-24.111-3.544-14.806-8.351-22.047-15.299-22.648-5.855-0.493-16.008 14.251-23.834 26.592-6.486 10.215-6.964 11.262-9.491 14.945-1.849 2.68-3.959 5.854-6.255 9.043-4.73 6.563-10.184 13.111-15.407 15.191-9.86 3.914-17.471-1.356-21.138 3.189-3.512 4.36 0.309 5.177 1.094 5.932 21.123 5.331 26.176 33.463 35.944 31.029 8.32-2.08 13.804 6.764 30.952 8.905 17.055 2.126 19.012 11.324 31.8 8.936 26.915-5.007 49.424-6.224 75.554 3.282-1.341-2.05 4.714-1.279 4.422-5.038z" fill="url(#u)"/>
<path d="m553.36 225.36c8.843 10.246 17.964 20.63 21.862 24.867 0-4.222 0.339-8.736 0.493-12.695 0.37-9.275-0.015-14.375 0.077-30.059 0.077-12.448-1.464-26.253-7.195-29.488-5.315-3.02-13.897 2.85-26.083 14.051-6.795 6.255-11.263 11.647-15.915 15.499 5.546 1.987 17.625 7.241 26.761 17.825z" fill="url(#j)"/>
<path d="m512.56 202.81c-0.986-4.082-1.51-12.217-4.36-24.111-3.544-14.806-8.351-22.047-15.299-22.648-5.855-0.493-16.008 14.251-23.834 26.592-6.486 10.215-6.964 11.262-9.491 14.945-1.848 2.68-3.959 5.854-6.255 9.043 6.702-1.109 18.673-3.251 30.398-5.423 11.555-2.157 22.308-0.2 28.825 1.602h0.016z" fill="url(#h)"/>
<path d="m592.11 283.09c-25.421-9.244-47.653-8.335-73.952-3.559-2.65 0.478-4.807 0.909-7.703 0.54 5.885 6.27-11.247 22.478-31.615 18.596-6.948-1.325-12.572-3.467-17.055-6.071-15.037-8.766-16.747-22.647-11.278-29.719 0.247-0.308 0.493-0.632 0.771-0.955-8.274-2.388-14.19-26.099-33.417-30.952 0.169 0.154 0.2 0.308 0 0.493-1.895 1.787-9.907-1.68-11.894 3.512-1.618 4.253 6.979 5.023 6.347 6.995-0.878 2.696-7.041 2.018-7.857 4.73-1.371 4.529 1.571 4.252 9.074 11.046 3.79 3.421 8.721 8.644 14.868 17.179 9.768 13.589 10.43 44.741 9.228 66.141-0.6 10.707-6.054 34.511-6.671 47.083-0.647 12.926 0.709 24.558 1.033 34.803 0.077 5.023 0 12.033-1.171 16.994-2.928 14.744-11.632 17.101-14.806 36.483-4.776 29.165 26.962 40.119 26.623 40.211-0.077 0.016-0.185 0.046-0.309 0.077 1.618 0.185 3.205 0.385 4.746 0.57 6.933 0.848 12.957 1.649 18.133 2.373 2.003 0.277 4.129 0.555 5.901 0.816-0.539 3.19-1.386 6.887-2.203 9.275-1.14 3.344-2.326 9.429-0.662 12.218 3.327 5.623 23.957 4.776 24.912-1.864 0.478-3.236 0.786-7.195 0.971-11.679v0.047c2.342-0.108 2.496-0.077 4.021 0.015 0.015 0.662 0.262 6.825 0.97 11.617 0.971 6.64 21.585 7.487 24.913 1.864 1.649-2.773 0.493-8.859-0.662-12.218-0.54-1.571-1.11-3.79-1.587-6.07 2.588-0.524 32.539-6.656 35.065-7.056 0.031-0.123 0.201-0.231 0.509-0.339 13.727-4.745 29.303-25.76 22.108-45.404-4.113-11.246-11.755-16.577-16.038-24.08-8.859-15.546-2.095-19.182-5.993-60.672-1.695-18.072-6.44-39.364-8.366-50.38-3.821-21.877 1.125-21.738 14.02-25.328 16.639-4.638 22.309-1.71 24.543-6.918 1.063-2.449-2.897-4.175-2.034-6.702 1.371-3.959 12.48-0.662 13.296-4.776 1.048-5.284-5.469-6.948-6.763-8.92l-0.016-0.016z" fill="url(#g)"/>
<path d="m592.11 283.09c-25.421-9.244-47.653-8.335-73.952-3.559-2.65 0.478-4.807 0.909-7.703 0.54 5.885 6.27-11.247 22.478-31.615 18.596-6.948-1.325-12.572-3.467-17.055-6.071-15.037-8.766-16.747-22.647-11.278-29.719 0.247-0.308 0.493-0.632 0.771-0.955-8.274-2.388-14.19-26.099-33.417-30.952 0.169 0.154 0.2 0.308 0 0.493-1.895 1.787-9.907-1.68-11.894 3.512-1.618 4.253 6.979 5.023 6.347 6.995-0.878 2.696-7.041 2.018-7.857 4.73-1.371 4.529 1.571 4.252 9.074 11.046 3.79 3.421 8.721 8.644 14.868 17.179 9.768 13.589 10.43 44.741 9.228 66.141-0.6 10.707-6.054 34.511-6.671 47.083-0.647 12.926 0.709 24.558 1.033 34.803 0.077 5.023 0 12.033-1.171 16.994-2.928 14.744-11.632 17.101-14.806 36.483-4.776 29.165 26.962 40.119 26.623 40.211-0.077 0.016-0.185 0.046-0.309 0.077 1.618 0.185 3.205 0.385 4.746 0.57 6.933 0.848 12.957 1.649 18.133 2.373 2.003 0.277 4.129 0.555 5.901 0.816-0.539 3.19-1.386 6.887-2.203 9.275-1.14 3.344-2.326 9.429-0.662 12.218 3.327 5.623 23.957 4.776 24.912-1.864 0.478-3.236 0.786-7.195 0.971-11.679v0.047c2.342-0.108 2.496-0.077 4.021 0.015 0.015 0.662 0.262 6.825 0.97 11.617 0.971 6.64 21.585 7.487 24.913 1.864 1.649-2.773 0.493-8.859-0.662-12.218-0.54-1.571-1.11-3.79-1.587-6.07 2.588-0.524 32.539-6.656 35.065-7.056 0.031-0.123 0.201-0.231 0.509-0.339 13.727-4.745 29.303-25.76 22.108-45.404-4.113-11.246-11.755-16.577-16.038-24.08-8.859-15.546-2.095-19.182-5.993-60.672-1.695-18.072-6.44-39.364-8.366-50.38-3.821-21.877 1.125-21.738 14.02-25.328 16.639-4.638 22.309-1.71 24.543-6.918 1.063-2.449-2.897-4.175-2.034-6.702 1.371-3.959 12.48-0.662 13.296-4.776 1.048-5.284-5.469-6.948-6.763-8.92l-0.016-0.016z" fill="url(#f)" opacity=".6"/>
<path d="m465.46 519.66c-5.177-0.724-11.201-1.525-18.134-2.372-1.54-0.185-3.112-0.385-4.745-0.57-1.987 0.416-10.153 1.741-16.1 9.013-2.111 2.572-2.819 4.591-2.835 6.255 0 1.109 0.293 2.064 0.724 2.896 1.957 3.806 11.478 3.436 16.979 1.972 3.112-0.832 7.148-1.756 11.632-2.65 4.884-0.97 10.291-1.91 15.622-2.65 0.17-0.601 0.339-1.201 0.555-1.802 0.785-2.296 1.648-5.978 2.187-9.229-1.818-0.277-3.805-0.555-5.9-0.863h0.015z" fill="url(#e)"/>
<path d="m570.75 526.56c-1.248-1.525-3.405-3.25-6.903-5.284-4.437-2.573-8.396-3.713-7.857-4.499-0.709 0.108-1.417 0.231-2.157 0.385-15.037 3.051-25.144 4.807-31.969 5.793 0.509 2.542 1.156 5.069 1.741 6.795 0.2 0.585 0.385 1.171 0.539 1.756 0.062 0.247 0.124 0.493 0.185 0.74 13.127 2.002 18.904 4.483 29.458 5.022 11.817 0.601 15.484-0.585 17.486-4.129 1.079-1.926 1.618-3.959-0.523-6.579z" fill="url(#d)"/>
<path d="m470.9 479.65c-5.038-19.12-20.537-34.018-40.042-38.332-0.277 1.217-0.632 2.388-1.032 3.544 0 0.046-0.031 0.077-0.046 0.123-0.586 1.695-1.264 3.343-2.142 4.915-4.314 7.826-9.213 13.296-11.37 26.545-4.776 29.165 26.962 40.119 26.623 40.212-0.077 0.015-0.185 0.046-0.308 0.077 1.617 0.185 3.204 0.385 4.745 0.57 6.933 0.847 12.957 1.649 18.133 2.373 3.344-5.732 5.639-12.141 6.625-18.981-0.184-6.41-0.6-13.574-1.186-21.046z" fill="url(#c)" opacity=".38"/>
<path d="m492.02 460.26c-1.032 1.233-1.648 9.321-2.973 9.999-1.063 0.539-1.587-6.348-2.681-12.556-0.293-1.68-1.433-7.118-1.726-8.736-1.386-7.78-1.402-7.164-2.557-13.512-0.231 5.069-0.693 6.425-1.618 14.19-0.447 3.774-1.094 8.304-1.618 10.815-0.462 2.188-1.186-5.962-1.617-8.104-2.157-10.399-3.667-13.188-6.579-23.541-1.648-5.855-6.81-11.262-7.318-14.991 2.357 15.977 5.762 42.415 7.595 65.848 0.586 7.457 1.002 14.621 1.187 21.046 0.169 6.163 0.123 11.663-0.231 16.069-0.093 1.094-0.262 2.388-0.493 3.775-0.54 3.251-1.402 6.933-2.188 9.228-0.2 0.601-0.385 1.202-0.555 1.803-1.202 4.437-1.202 8.566-0.108 10.415 3.328 5.623 23.958 4.776 24.913-1.864 0.478-3.251 0.786-7.211 0.971-11.709 0.693-16.948-0.493-41.845-2.373-68.16l-0.031-0.015z" fill="url(#b)"/>
<path d="m524.16 531.51c-0.154-0.586-0.339-1.171-0.539-1.756-0.601-1.741-1.233-4.268-1.741-6.795-0.447-2.234-0.816-4.483-0.955-6.193-1.864-23.403 4.699-76.987 8.551-102.95-0.509 3.744-5.67 9.136-7.319 14.991-2.911 10.353-4.421 13.142-6.578 23.541-0.447 2.157-1.156 10.307-1.618 8.104-0.539-2.511-1.171-7.041-1.618-10.815-0.924-7.781-1.386-9.121-1.617-14.19-1.156 6.348-1.156 5.747-2.558 13.512-0.293 1.602-1.417 7.041-1.725 8.736-1.094 6.224-1.618 13.095-2.681 12.556-1.34-0.678-1.941-8.766-2.974-9.999-1.879 26.299-3.066 51.196-2.372 68.144 0.185 4.499 0.493 8.473 0.97 11.724 0.971 6.641 21.585 7.488 24.913 1.864 1.032-1.756 1.078-5.561 0.062-9.737-0.062-0.246-0.108-0.493-0.185-0.739h-0.016z" fill="url(#a)"/>
<path d="m494.34 336.5s-21.831 16.131-15.946 53.815c4.714 30.182 8.566 37.161 11.539 56.312 2.974 19.15 6.148 41.259 6.148 41.259s2.681-21.385 6.286-41.752c2.573-14.559 7.734-34.157 10.507-57.714 4.453-37.931-18.534-51.936-18.534-51.936v0.016z" fill="url(#t)" opacity=".6"/>
<path d="m472.95 251.85c12.525 1.68 21.43 21.015 35.358 26.793 11.124 4.606-7.257 24.281-29.458 20.028-29.904-5.7-35.635-26.345-28.332-35.789 3.913-5.069 11.924-12.449 22.432-11.032z" fill="#FFC635"/>
<path d="m472.57 254.96c-4.467-1.464-7.58-0.339-8.936 1.232-1.663 1.926-1.417 7.164 4.068 8.967 5.207 1.71 9.752-1.633 9.953-4.299 0.138-1.895-1.156-4.622-5.1-5.9h0.015z" fill="#00073A"/>
<path d="m523.55 243.18c5.377 1.51 7.211 6.055 2.358 15.977-3.806 7.796-7.195 7.441-12.249 5.947-2.65-0.786-5.823-4.838-2.942-10.785 3.928-8.119 7.21-12.71 12.833-11.124v-0.015z" fill="url(#s)"/>
<path d="m516 258.28c0.641-1.343 0.159-2.911-1.077-3.501-1.236-0.591-2.759 0.02-3.4 1.364-0.642 1.344-0.16 2.912 1.077 3.502 1.236 0.59 2.758-0.021 3.4-1.365z" fill="#fff"/>
<path d="m478.99 224.66c7.087 1.649 6.301 7.842 1.448 17.024-3.035 5.747-6.332 5.608-11.37 4.114-2.635-0.77-6.132-3.651-2.018-11.524 3.328-6.394 7.487-10.662 11.955-9.614h-0.015z" fill="url(#r)"/>
<path d="m472.29 239.88c0.66-1.382 0.167-2.993-1.1-3.598-1.266-0.605-2.829 0.026-3.488 1.408-0.66 1.382-0.168 2.993 1.099 3.598 1.267 0.604 2.829-0.026 3.489-1.408z" fill="#fff"/>
<path d="m433.42 478.44v68.79c0 11.941-9.706 21.647-21.647 21.647h-255.46c-11.94 0-21.646-9.706-21.646-21.647v-68.79h298.75z" fill="#7543E3"/>
<path d="m433.42 53.735v416.61h-298.75v-416.61c0-11.925 9.706-21.646 21.646-21.646h255.46c11.941 0 21.647 9.7216 21.647 21.646z" fill="#FCF5F0"/>
<path d="m153.8 141.46c25.144-0.262 28.287-4.422 34.234-4.483 3.235-0.031 14.174 0.308 23.295-1.171 9.644-1.556 16.207-1.402 19.581-7.072 4.931-8.289-0.169-13.943-7.04-17.301-5.516-2.681-12.88-3.482-18.812-5.162-7.796-2.203-11.755-3.774-16.254-6.193-9.198-4.9303-22.093-5.9009-27.871-5.4233-15.668 1.3095-22.493 3.1583-26.268 4.9609v38.501c4.175 1.602 8.489 3.436 19.135 3.312v0.031z" fill="url(#q)"/>
<path d="m415.5 401.85c-31.676 2.65-20.599 7.903-33.556 8.936-10.06 0.801-17.887 6.07-21.261 12.926-4.838 9.891 11.709 12.603 23.279 12.864 10.415 0.232 10.076 4.9 25.514 4.746 14.22-0.154 20.106-1.772 23.942-2.851v-34.356c-6.748-2.142-14.143-2.573-17.934-2.265h0.016z" fill="url(#p)"/>
<path d="m252.8 357.14c4.098-0.338 13.265 0.355 19.798 3.852 3.204 1.726 6.008 2.835 11.555 4.406 4.206 1.187 9.444 1.757 13.357 3.667 4.884 2.373 8.52 6.409 5.008 12.295-2.404 4.021-7.057 3.913-13.913 5.022-6.486 1.048-14.251 0.801-16.562 0.832-4.221 0.047-6.455 2.989-24.327 3.189-12.988 0.139-12.711-3.79-21.477-3.99-9.737-0.216-23.68-2.511-19.597-10.831 2.835-5.762 9.429-10.214 17.887-10.877 10.908-0.863 1.571-5.284 28.256-7.518l0.015-0.047z" fill="url(#o)"/>
<path d="m338.94 160.41c5.454-0.462 17.672 0.462 26.376 5.131 4.283 2.295 8.012 3.774 15.392 5.854 5.608 1.587 12.587 2.342 17.81 4.884 6.501 3.174 11.339 8.535 6.671 16.377-3.205 5.362-9.398 5.223-18.534 6.687-8.644 1.386-18.997 1.063-22.047 1.094-5.624 0.061-8.613 3.99-32.416 4.237-17.302 0.184-16.917-5.054-28.61-5.316-12.988-0.292-31.553-3.343-26.115-14.436 3.76-7.688 12.572-13.604 23.85-14.497 14.529-1.156 2.095-7.041 37.639-10.015h-0.016z" fill="url(#n)"/>
<path d="m329.19 248.1c3.081 0.616 12.834-1.109 21.831 0.431 12.603 2.173 28.564 16.285 30.536 25.175 5.269 23.68-28.21 28.887-51.843 30.705-21.262 1.634-4.545 4.391-36.083 5.763-43.385 1.879-51.551-6.209-61.796-5.763-5.577 0.247-14.097 2.296-29.966 0.617-16.778-1.772-28.071-0.909-34.434-10.354-9.29-13.819-0.323-42.352 29.15-45.049 13.927-1.278 15.606-0.077 23.156-4.668 15.406-9.367 40.519-13.928 50.518-13.681 42.107 1.048 40.52 13.157 58.946 16.839l-0.015-0.015z" fill="url(#m)"/>
<path d="m411.77 24h-255.46c-16.424 0-29.735 13.311-29.735 29.735v493.49c0 16.424 13.311 29.735 29.735 29.735h255.46c16.424 0 29.735-13.311 29.735-29.735v-493.49c0-16.424-13.311-29.735-29.735-29.735zm21.646 523.23c0 11.94-9.706 21.646-21.646 21.646h-255.46c-11.94 0-21.646-9.706-21.646-21.646v-68.791h298.75v68.791zm0-76.879h-298.75v-416.61c0-11.925 9.706-21.646 21.646-21.646h255.46c11.94 0 21.646 9.7216 21.646 21.646v416.61zm-267.63 43.231c0-4.468 1.818-8.535 4.745-11.463 2.943-2.927 6.98-4.745 11.463-4.745h201.13c8.951 0 16.208 7.257 16.208 16.208 0 4.468-1.818 8.535-4.745 11.463-2.928 2.927-6.995 4.745-11.463 4.745h-201.13c-8.951 0-16.208-7.257-16.208-16.208z" fill="#00073A"/>
<path d="m126.6 496.54s-19.366-0.077-33.078-4.575c-45.08-14.76-69.623-42.908-84.891-75.925-5.4232-11.709-7.6263-31.629-7.6263-31.629s3.2816 3.05 7.7496 6.547c3.5435 2.774 6.1164 3.683 6.1164 3.683s-2.8656-6.256-4.6374-15.392c-6.2859-32.338 1.0939-55.695 15.114-79.868 19.366-33.386 38.316-46.898 47.761-73.567 3.3741-9.552 4.3139-17.24 1.9413-24.543-2.8348-8.751-19.859-15.329-19.859-15.329s24.758-8.058 54.586 7.595c17.148 8.998 32.323 20.63 41.29 33.756 22.293 32.632 25.144 53.508 18.935 92.748-5.885 37.146-29.658 68.344-38.517 84.182-1.541 2.758-4.868 11.971-4.868 13.728v78.574l-0.016 0.015z" fill="url(#l)"/>
<path d="m148.83 269.5c-4.129-15.083-6.671-19.304-15.222-32.4-5.762-8.843-11.339-12.603-11.339-12.603l3.959 11.91 2.851 11.262c1.602 1.048-4.961-7.765-15.053-17.748-7.087-7.01-17.995-11.725-17.995-11.725s9.1827 13.265 15.068 26.33 8.474 40.458 7.149 48.562c-2.388 14.636 17.748 9.075 26.592 10.677 8.843 1.602 8.15-10.384 3.975-34.295l0.015 0.03z" fill="url(#k)" opacity=".7"/>
<path d="m126.6 459.78c-4.345-2.188-8.613-4.561-12.711-7.149-11.201-7.072-20.136-14.636-29.119-26.161-4.2985-5.515-10.507-18.411-10.507-18.411s12.233 12.819 19.52 17.872c6.1011 4.222 19.844 9.583 19.844 9.583s-10.708-8.443-15.314-13.111c-11.047-11.216-19.166-24.05-24.543-37.87-8.1809-21.061-9.9989-44.402-6.0702-67.758 1.5099-8.951 6.9946-26.715 6.9946-26.715s-16.716 15.93-22.925 31.352c-8.0577 20.044-7.0254 43.894-7.0254 43.894s-4.7761-7.827-6.9485-12.295c-2.0028-4.113-4.0673-13.373-4.0673-13.373s-3.0197 11.817-3.1738 25.344c-0.2773 24.497 3.2046 43.601 15.068 64.708 9.7679 17.348 34.249 36.437 61.673 48.269 5.901 2.543 12.541 4.16 19.274 5.27v-23.434l0.031-0.015z" fill="url(#i)"/>
<defs>
<linearGradient id="u" x1="538.35" x2="476.8" y1="153.66" y2="342.69" gradientUnits="userSpaceOnUse">
<stop stop-color="#f60" offset=".17"/>
<stop stop-color="#FF9C00" offset=".54"/>
<stop stop-color="#FF6700" offset=".9"/>
<stop stop-color="#f60" offset=".91"/>
</linearGradient>
<linearGradient id="j" x1="555" x2="587.9" y1="222.65" y2="170.55" gradientUnits="userSpaceOnUse">
<stop stop-color="#f60" stop-opacity="0" offset="0"/>
<stop stop-color="#f60" stop-opacity=".3" offset=".11"/>
<stop stop-color="#f60" stop-opacity=".6" offset=".23"/>
<stop stop-color="#f60" stop-opacity=".82" offset=".32"/>
<stop stop-color="#f60" stop-opacity=".95" offset=".4"/>
<stop stop-color="#f60" offset=".43"/>
<stop stop-color="#FD4737" offset=".72"/>
<stop stop-color="#FB2872" offset="1"/>
</linearGradient>
<linearGradient id="h" x1="483.24" x2="490.55" y1="200.25" y2="138.94" gradientUnits="userSpaceOnUse">
<stop stop-color="#f60" stop-opacity="0" offset="0"/>
<stop stop-color="#f60" stop-opacity=".17" offset=".03"/>
<stop stop-color="#f60" stop-opacity=".36" offset=".07"/>
<stop stop-color="#f60" stop-opacity=".53" offset=".11"/>
<stop stop-color="#f60" stop-opacity=".68" offset=".15"/>
<stop stop-color="#f60" stop-opacity=".8" offset=".2"/>
<stop stop-color="#f60" stop-opacity=".89" offset=".24"/>
<stop stop-color="#f60" stop-opacity=".95" offset=".29"/>
<stop stop-color="#f60" stop-opacity=".99" offset=".35"/>
<stop stop-color="#f60" offset=".42"/>
<stop stop-color="#FD4737" offset=".7"/>
<stop stop-color="#FB2872" offset=".97"/>
</linearGradient>
<linearGradient id="g" x1="501.56" x2="501.56" y1="225.2" y2="564.99" gradientUnits="userSpaceOnUse">
<stop stop-color="#f60" offset="0"/>
<stop stop-color="#FF7408" offset=".01"/>
<stop stop-color="#FF8A14" offset=".04"/>
<stop stop-color="#FF9B1D" offset=".07"/>
<stop stop-color="#FFA724" offset=".11"/>
<stop stop-color="#FFAE27" offset=".17"/>
<stop stop-color="#FFB029" offset=".33"/>
<stop stop-color="#FF9218" offset=".46"/>
<stop stop-color="#f60" offset=".63"/>
<stop stop-color="#FE5D0F" offset=".64"/>
<stop stop-color="#FD4A32" offset=".69"/>
<stop stop-color="#FC3B4E" offset=".74"/>
<stop stop-color="#FB3062" offset=".79"/>
<stop stop-color="#FB2A6E" offset=".84"/>
<stop stop-color="#FB2872" offset=".89"/>
</linearGradient>
<linearGradient id="f" x1="501.56" x2="501.56" y1="225.2" y2="564.99" gradientUnits="userSpaceOnUse">
<stop stop-color="#FFEB49" stop-opacity=".8" offset="0"/>
<stop stop-color="#FFD13A" stop-opacity=".64" offset=".22"/>
<stop stop-color="#FF8F17" stop-opacity=".25" offset=".7"/>
<stop stop-color="#f60" stop-opacity="0" offset="1"/>
</linearGradient>
<linearGradient id="e" x1="579.09" x2="371.9" y1="474.58" y2="557.15" gradientUnits="userSpaceOnUse">
<stop stop-color="#BE0449" stop-opacity="0" offset=".02"/>
<stop stop-color="#FB2872" offset=".51"/>
<stop stop-color="#A31C5E" offset=".67"/>
<stop stop-color="#4C104A" offset=".83"/>
<stop stop-color="#15093E" offset=".94"/>
<stop stop-color="#00073A" offset="1"/>
</linearGradient>
<linearGradient id="d" x1="463.02" x2="604.4" y1="494.35" y2="549.63" gradientUnits="userSpaceOnUse">
<stop stop-color="#BE0449" stop-opacity="0" offset="0"/>
<stop stop-color="#FB2872" offset=".41"/>
<stop stop-color="#00073A" offset="1"/>
</linearGradient>
<radialGradient id="c" cx="0" cy="0" r="1" gradientTransform="translate(419.55 500.36) scale(87.756)" gradientUnits="userSpaceOnUse">
<stop stop-color="#FFEB49" offset="0"/>
<stop stop-color="#FFE546" stop-opacity=".96" offset=".05"/>
<stop stop-color="#FFD73E" stop-opacity=".85" offset=".14"/>
<stop stop-color="#FFC031" stop-opacity=".68" offset=".25"/>
<stop stop-color="#FFA01F" stop-opacity=".44" offset=".38"/>
<stop stop-color="#FF7709" stop-opacity=".13" offset=".53"/>
<stop stop-color="#f60" stop-opacity="0" offset=".59"/>
</radialGradient>
<linearGradient id="b" x1="477.1" x2="483.12" y1="415.9" y2="576.05" gradientUnits="userSpaceOnUse">
<stop stop-color="#BE0449" stop-opacity="0" offset=".01"/>
<stop stop-color="#BF054A" stop-opacity=".04" offset=".06"/>
<stop stop-color="#C2084C" stop-opacity=".16" offset=".14"/>
<stop stop-color="#C70D51" stop-opacity=".36" offset=".23"/>
<stop stop-color="#CE1457" stop-opacity=".63" offset=".35"/>
<stop stop-color="#D71E5F" stop-opacity=".97" offset=".48"/>
<stop stop-color="#D81F60" offset=".49"/>
<stop stop-color="#D31E5F" offset=".56"/>
<stop stop-color="#C71D5D" offset=".63"/>
<stop stop-color="#B31A59" offset=".7"/>
<stop stop-color="#971754" offset=".77"/>
<stop stop-color="#73134E" offset=".84"/>
<stop stop-color="#460E46" offset=".91"/>
<stop stop-color="#13093D" offset=".98"/>
<stop stop-color="#00073A" offset="1"/>
</linearGradient>
<linearGradient id="a" x1="516.46" x2="509.8" y1="386.53" y2="577.24" gradientUnits="userSpaceOnUse">
<stop stop-color="#D81F60" stop-opacity="0" offset="0"/>
<stop stop-color="#D81F60" stop-opacity=".01" offset=".11"/>
<stop stop-color="#D81F60" stop-opacity=".06" offset=".19"/>
<stop stop-color="#D81F60" stop-opacity=".14" offset=".27"/>
<stop stop-color="#D81F60" stop-opacity=".25" offset=".35"/>
<stop stop-color="#D81F60" stop-opacity=".39" offset=".42"/>
<stop stop-color="#D81F60" stop-opacity=".57" offset=".49"/>
<stop stop-color="#D81F60" stop-opacity=".77" offset=".55"/>
<stop stop-color="#D81F60" offset=".62"/>
<stop stop-color="#D21E5F" offset=".66"/>
<stop stop-color="#C21C5C" offset=".71"/>
<stop stop-color="#A81957" offset=".77"/>
<stop stop-color="#841551" offset=".83"/>
<stop stop-color="#551049" offset=".9"/>
<stop stop-color="#1D0A3F" offset=".97"/>
<stop stop-color="#00073A" offset="1"/>
</linearGradient>
<linearGradient id="t" x1="494.97" x2="501.47" y1="368.68" y2="511.72" gradientUnits="userSpaceOnUse">
<stop stop-color="#FFEB49" offset="0"/>
<stop stop-color="#FFE745" stop-opacity=".96" offset=".09"/>
<stop stop-color="#FFDE3D" stop-opacity=".84" offset=".24"/>
<stop stop-color="#FFCF2F" stop-opacity=".66" offset=".44"/>
<stop stop-color="#FFBB1C" stop-opacity=".4" offset=".67"/>
<stop stop-color="#FFA105" stop-opacity=".07" offset=".94"/>
<stop stop-color="#FF9C00" stop-opacity="0" offset="1"/>
</linearGradient>
<linearGradient id="s" x1="524.04" x2="516.29" y1="235.47" y2="265.53" gradientUnits="userSpaceOnUse">
<stop stop-color="#A030B9" offset=".16"/>
<stop stop-color="#00073A" offset=".88"/>
</linearGradient>
<linearGradient id="r" x1="479.78" x2="472.27" y1="218.7" y2="243.81" gradientUnits="userSpaceOnUse">
<stop stop-color="#A030B9" offset=".16"/>
<stop stop-color="#00073A" offset=".88"/>
</linearGradient>
<linearGradient id="q" x1="186.93" x2="179.98" y1="162.63" y2="90.818" gradientUnits="userSpaceOnUse">
<stop stop-color="#D0CED3" offset="0"/>
<stop stop-color="#D9D7DB" offset=".29"/>
<stop stop-color="#F1F1F2" offset=".77"/>
<stop stop-color="#fff" offset="1"/>
</linearGradient>
<linearGradient id="p" x1="397.46" x2="396.52" y1="460.39" y2="409.8" gradientUnits="userSpaceOnUse">
<stop stop-color="#D0CED3" offset="0"/>
<stop stop-color="#D9D7DB" offset=".29"/>
<stop stop-color="#F1F1F2" offset=".77"/>
<stop stop-color="#fff" offset="1"/>
</linearGradient>
<linearGradient id="o" x1="255.46" x2="254.65" y1="406.1" y2="363.5" gradientUnits="userSpaceOnUse">
<stop stop-color="#D0CED3" offset="0"/>
<stop stop-color="#D9D7DB" offset=".29"/>
<stop stop-color="#F1F1F2" offset=".77"/>
<stop stop-color="#fff" offset="1"/>
</linearGradient>
<linearGradient id="n" x1="342.47" x2="341.41" y1="225.63" y2="168.88" gradientUnits="userSpaceOnUse">
<stop stop-color="#D0CED3" offset="0"/>
<stop stop-color="#D9D7DB" offset=".29"/>
<stop stop-color="#F1F1F2" offset=".77"/>
<stop stop-color="#fff" offset="1"/>
</linearGradient>
<linearGradient id="m" x1="273.71" x2="272.56" y1="335.52" y2="243.87" gradientUnits="userSpaceOnUse">
<stop stop-color="#D0CED3" offset="0"/>
<stop stop-color="#D9D7DB" offset=".29"/>
<stop stop-color="#F1F1F2" offset=".77"/>
<stop stop-color="#fff" offset="1"/>
</linearGradient>
<linearGradient id="l" x1="86.923" x2="86.923" y1="183.89" y2="496.54" gradientUnits="userSpaceOnUse">
<stop stop-color="#FFEB49" offset="0"/>
<stop stop-color="#FF9B1D" offset=".32"/>
<stop stop-color="#f60" offset=".56"/>
<stop stop-color="#FD4835" offset=".74"/>
<stop stop-color="#FB3161" offset=".91"/>
<stop stop-color="#FB2872" offset="1"/>
</linearGradient>
<linearGradient id="k" x1="97.001" x2="136.53" y1="216.33" y2="285.63" gradientUnits="userSpaceOnUse">
<stop stop-color="#FFEB49" offset=".03"/>
<stop stop-color="#FFEB49" stop-opacity=".96" offset=".12"/>
<stop stop-color="#FFEB49" stop-opacity=".84" offset=".26"/>
<stop stop-color="#FFEB49" stop-opacity=".66" offset=".46"/>
<stop stop-color="#FFEB49" stop-opacity=".4" offset=".69"/>
<stop stop-color="#FFEB49" stop-opacity=".07" offset=".95"/>
<stop stop-color="#FFEB49" stop-opacity="0" offset="1"/>
</linearGradient>
<radialGradient id="i" cx="0" cy="0" r="1" gradientTransform="translate(-189.1 342.08) scale(294.13)" gradientUnits="userSpaceOnUse">
<stop stop-color="#BE0449" offset="0"/>
<stop stop-color="#FB2872" stop-opacity=".07" offset="1"/>
</radialGradient>
</defs>
</svg>
