<svg width="27.3px" height="34px" viewBox="15 -3 82 102" version="1.1" xmlns="http://www.w3.org/2000/svg" xmlns:xlink="http://www.w3.org/1999/xlink">
    <g id="Group-2-Copy" stroke="none" stroke-width="1" fill="none" fill-rule="evenodd" transform="translate(18.000000, 0.000000)">
        <path d="M37.7142857,54.8571429 L37.7142857,54.8571429 C24.5142857,54.8571429 13.7142857,44.0571429 13.7142857,30.8571429 L13.7142857,24 C13.7142857,10.8 24.5142857,0 37.7142857,0 L37.7142857,0 C50.9142857,0 61.7142857,10.8 61.7142857,24 L61.7142857,30.8571429 C61.7142857,44.0571429 50.9142857,54.8571429 37.7142857,54.8571429 L37.7142857,54.8571429 Z" id="Shape" stroke="#000000" stroke-width="6"></path>
        <path d="M54.8571429,68.5714286 L20.5714286,68.5714286 C9.25714286,68.5714286 0,77.8285714 0,89.1428571 L0,96 L75.4285714,96 L75.4285714,89.1428571 C75.4285714,77.8285714 66.1714286,68.5714286 54.8571429,68.5714286 L54.8571429,68.5714286 Z" id="Shape" stroke="#000000" stroke-width="6"></path>
    </g>
</svg>
